solid OpenSCAD_Model
  facet normal 0 0 -1
    outer loop
      vertex 24.0307 -0.939499 -4.5
      vertex 24.1852 -0.480988 -4.5
      vertex 24.8256 -0.970032 -4.5
    endloop
  endfacet
  facet normal 0 0 -1
    outer loop
      vertex 16.2119 15.1752 -4.5
      vertex 16.0807 14.1839 -4.5
      vertex 15.7362 15.1226 -4.5
    endloop
  endfacet
  facet normal 0 0 -1
    outer loop
      vertex 20.7999 -2.73587 -4.5
      vertex 21.1718 -2.07858 -4.5
      vertex 21.2666 -2.89607 -4.5
    endloop
  endfacet
  facet normal 0 -0 -1
    outer loop
      vertex 20.0828 -1.15355 -4.5
      vertex 20.3756 -1.53873 -4.5
      vertex 19.7944 -2 -4.5
    endloop
  endfacet
  facet normal 0 0 -1
    outer loop
      vertex 22.7911 4.2354 -4.5
      vertex 23.6814 4.6906 -4.5
      vertex 23.791 4.22467 -4.5
    endloop
  endfacet
  facet normal 0 0 -1
    outer loop
      vertex 21.2666 -2.89607 -4.5
      vertex 21.638 -2.20802 -4.5
      vertex 21.7533 -2.97729 -4.5
    endloop
  endfacet
  facet normal 0 0 -1
    outer loop
      vertex 21.7533 -2.97729 -4.5
      vertex 22.1211 -2.23421 -4.5
      vertex 22.2467 -2.97729 -4.5
    endloop
  endfacet
  facet normal 0 0 -1
    outer loop
      vertex 22.2467 -2.97729 -4.5
      vertex 22.5986 -2.15593 -4.5
      vertex 22.7334 -2.89607 -4.5
    endloop
  endfacet
  facet normal 0 0 -1
    outer loop
      vertex 22.5986 -2.15593 -4.5
      vertex 23.048 -1.97685 -4.5
      vertex 23.2001 -2.73587 -4.5
    endloop
  endfacet
  facet normal 0 0 -1
    outer loop
      vertex 23.2001 -2.73587 -4.5
      vertex 23.048 -1.97685 -4.5
      vertex 23.634 -2.50102 -4.5
    endloop
  endfacet
  facet normal 0 0 -1
    outer loop
      vertex 23.634 -2.50102 -4.5
      vertex 23.4485 -1.70534 -4.5
      vertex 24.0234 -2.19797 -4.5
    endloop
  endfacet
  facet normal 0 0 -1
    outer loop
      vertex 24.0234 -2.19797 -4.5
      vertex 23.7812 -1.35406 -4.5
      vertex 24.3575 -1.83495 -4.5
    endloop
  endfacet
  facet normal 0 0 -1
    outer loop
      vertex 23.7812 -1.35406 -4.5
      vertex 24.0307 -0.939499 -4.5
      vertex 24.6274 -1.42189 -4.5
    endloop
  endfacet
  facet normal 0 0 -1
    outer loop
      vertex 24.6274 -1.42189 -4.5
      vertex 24.0307 -0.939499 -4.5
      vertex 24.8256 -0.970032 -4.5
    endloop
  endfacet
  facet normal 0 0 -1
    outer loop
      vertex 24.1852 -0.480988 -4.5
      vertex 24.2375 0 -4.5
      vertex 24.9467 -0.491714 -4.5
    endloop
  endfacet
  facet normal 0 -0 -1
    outer loop
      vertex 24.8256 0.970032 -4.5
      vertex 24.9467 0.491714 -4.5
      vertex 24.1852 0.480988 -4.5
    endloop
  endfacet
  facet normal 0 0 -1
    outer loop
      vertex 22.6214 2.91476 -4.5
      vertex 22.5986 2.15593 -4.5
      vertex 22.1211 2.23421 -4.5
    endloop
  endfacet
  facet normal 0 -0 -1
    outer loop
      vertex 23.634 2.50102 -4.5
      vertex 24.0234 2.19797 -4.5
      vertex 23.4485 1.70534 -4.5
    endloop
  endfacet
  facet normal 0 0 -1
    outer loop
      vertex 23.048 1.97685 -4.5
      vertex 23.634 2.50102 -4.5
      vertex 23.4485 1.70534 -4.5
    endloop
  endfacet
  facet normal 0 0 -1
    outer loop
      vertex 23.048 1.97685 -4.5
      vertex 23.2001 2.73587 -4.5
      vertex 23.634 2.50102 -4.5
    endloop
  endfacet
  facet normal 0 0 -1
    outer loop
      vertex 23.048 1.97685 -4.5
      vertex 22.5986 2.15593 -4.5
      vertex 23.2001 2.73587 -4.5
    endloop
  endfacet
  facet normal -0 0 -1
    outer loop
      vertex 23.2001 2.73587 -4.5
      vertex 22.5986 2.15593 -4.5
      vertex 22.7334 2.89607 -4.5
    endloop
  endfacet
  facet normal -0 0 -1
    outer loop
      vertex 22.7334 2.89607 -4.5
      vertex 22.5986 2.15593 -4.5
      vertex 22.6214 2.91476 -4.5
    endloop
  endfacet
  facet normal 0 0 -1
    outer loop
      vertex 24.2375 0 -4.5
      vertex 24.9467 0.491714 -4.5
      vertex 24.9875 0 -4.5
    endloop
  endfacet
  facet normal 0 0 -1
    outer loop
      vertex 22.7911 4.2354 -4.5
      vertex 23.791 4.22467 -4.5
      vertex 23.6715 3.7612 -4.5
    endloop
  endfacet
  facet normal 0 0 -1
    outer loop
      vertex 23.3503 3.40636 -4.5
      vertex 22.7911 4.2354 -4.5
      vertex 23.6715 3.7612 -4.5
    endloop
  endfacet
  facet normal -0 0 -1
    outer loop
      vertex 23.3503 3.40636 -4.5
      vertex 22.6214 2.91476 -4.5
      vertex 22.7911 4.2354 -4.5
    endloop
  endfacet
  facet normal 0 0 -1
    outer loop
      vertex 16.0807 14.1839 -4.5
      vertex 16.2119 15.1752 -4.5
      vertex 16.6576 15.0007 -4.5
    endloop
  endfacet
  facet normal 0 0 -1
    outer loop
      vertex 1.67513 -2 -4.5
      vertex -0.5 3 -4.5
      vertex 6.21031 -6.94844 -4.5
    endloop
  endfacet
  facet normal 0 0 -1
    outer loop
      vertex -1.87886 2.23421 -4.5
      vertex -1.7533 2.97729 -4.5
      vertex -1.47174 2.9303 -4.5
    endloop
  endfacet
  facet normal 0 -0 -1
    outer loop
      vertex -1.46829 3.24973 -4.5
      vertex -0.5 3 -4.5
      vertex -1.47174 2.9303 -4.5
    endloop
  endfacet
  facet normal 0 0 -1
    outer loop
      vertex -0.218735 -1.35406 -4.5
      vertex 0.0306854 -0.939499 -4.5
      vertex 0.205612 -2 -4.5
    endloop
  endfacet
  facet normal -0 0 -1
    outer loop
      vertex -0.799942 -2.73587 -4.5
      vertex -1.26662 -2.89607 -4.5
      vertex -1.4014 -2.15593 -4.5
    endloop
  endfacet
  facet normal -0 0 -1
    outer loop
      vertex -2.36198 2.20802 -4.5
      vertex -2.82817 2.07858 -4.5
      vertex -2.73338 2.89607 -4.5
    endloop
  endfacet
  facet normal -0 0 -1
    outer loop
      vertex -2.82817 2.07858 -4.5
      vertex -3.25565 1.85194 -4.5
      vertex -3.20006 2.73587 -4.5
    endloop
  endfacet
  facet normal 0 0 -1
    outer loop
      vertex -3.25565 1.85194 -4.5
      vertex -4.02338 2.19797 -4.5
      vertex -3.634 2.50102 -4.5
    endloop
  endfacet
  facet normal 0 0 -1
    outer loop
      vertex -3.6244 1.53873 -4.5
      vertex -4.35754 1.83495 -4.5
      vertex -4.02338 2.19797 -4.5
    endloop
  endfacet
  facet normal -0 0 -1
    outer loop
      vertex -3.6244 1.53873 -4.5
      vertex -3.91721 1.15355 -4.5
      vertex -4.35754 1.83495 -4.5
    endloop
  endfacet
  facet normal -0 0 -1
    outer loop
      vertex -3.91721 1.15355 -4.5
      vertex -4.12036 0.714432 -4.5
      vertex -4.62743 1.42189 -4.5
    endloop
  endfacet
  facet normal -0 0 -1
    outer loop
      vertex -4.12036 0.714432 -4.5
      vertex -4.94675 0.491714 -4.5
      vertex -4.82562 0.970032 -4.5
    endloop
  endfacet
  facet normal -0 0 -1
    outer loop
      vertex -4.22438 0.241913 -4.5
      vertex -4.98749 0 -4.5
      vertex -4.94675 0.491714 -4.5
    endloop
  endfacet
  facet normal 0 -0 -1
    outer loop
      vertex -4.22438 0.241913 -4.5
      vertex -4.22438 -0.241913 -4.5
      vertex -4.98749 0 -4.5
    endloop
  endfacet
  facet normal 0 -0 -1
    outer loop
      vertex -4.22438 -0.241913 -4.5
      vertex -4.12036 -0.714432 -4.5
      vertex -4.94675 -0.491714 -4.5
    endloop
  endfacet
  facet normal 0 0 -1
    outer loop
      vertex -4.12036 -0.714432 -4.5
      vertex -4.62743 -1.42189 -4.5
      vertex -4.82562 -0.970032 -4.5
    endloop
  endfacet
  facet normal 0 0 -1
    outer loop
      vertex -3.91721 -1.15355 -4.5
      vertex -4.35754 -1.83495 -4.5
      vertex -4.62743 -1.42189 -4.5
    endloop
  endfacet
  facet normal 0 -0 -1
    outer loop
      vertex -3.91721 -1.15355 -4.5
      vertex -3.6244 -1.53873 -4.5
      vertex -4.35754 -1.83495 -4.5
    endloop
  endfacet
  facet normal 0 -0 -1
    outer loop
      vertex -3.6244 -1.53873 -4.5
      vertex -3.25565 -1.85194 -4.5
      vertex -4.02338 -2.19797 -4.5
    endloop
  endfacet
  facet normal 0 -0 -1
    outer loop
      vertex -3.25565 -1.85194 -4.5
      vertex -3.20006 -2.73587 -4.5
      vertex -3.634 -2.50102 -4.5
    endloop
  endfacet
  facet normal 0 0 -1
    outer loop
      vertex -3.25565 -1.85194 -4.5
      vertex -2.82817 -2.07858 -4.5
      vertex -3.20006 -2.73587 -4.5
    endloop
  endfacet
  facet normal 0 0 -1
    outer loop
      vertex -2.82817 -2.07858 -4.5
      vertex -2.36198 -2.20802 -4.5
      vertex -2.73338 -2.89607 -4.5
    endloop
  endfacet
  facet normal 0 0 -1
    outer loop
      vertex -2.73338 -2.89607 -4.5
      vertex -2.36198 -2.20802 -4.5
      vertex -2.2467 -2.97729 -4.5
    endloop
  endfacet
  facet normal 0 0 -1
    outer loop
      vertex 5.45471 -7.60349 -4.5
      vertex 6.21031 -6.94844 -4.5
      vertex 5.84567 -7.87959 -4.5
    endloop
  endfacet
  facet normal 0 0 -1
    outer loop
      vertex -2.2467 -2.97729 -4.5
      vertex -1.87888 -2.23421 -4.5
      vertex -1.7533 -2.97729 -4.5
    endloop
  endfacet
  facet normal -0 0 -1
    outer loop
      vertex -0.365997 -2.50102 -4.5
      vertex -0.799942 -2.73587 -4.5
      vertex -0.951935 -1.97685 -4.5
    endloop
  endfacet
  facet normal 0 0 -1
    outer loop
      vertex 0.0233765 -2.19797 -4.5
      vertex -0.551468 -1.70534 -4.5
      vertex 0.205612 -2 -4.5
    endloop
  endfacet
  facet normal 0 -0 -1
    outer loop
      vertex 16.9711 14.639 -4.5
      vertex 22.7911 4.2354 -4.5
      vertex 16.0807 14.1839 -4.5
    endloop
  endfacet
  facet normal 0 -0 -1
    outer loop
      vertex 0.185181 -0.480988 -4.5
      vertex 1.67513 -2 -4.5
      vertex 0.0306854 -0.939499 -4.5
    endloop
  endfacet
  facet normal 0 0 -1
    outer loop
      vertex -2.2467 2.97729 -4.5
      vertex -2.36198 2.20802 -4.5
      vertex -2.73338 2.89607 -4.5
    endloop
  endfacet
  facet normal 0 0 -1
    outer loop
      vertex 6.32018 -7.94238 -4.5
      vertex 6.21031 -6.94844 -4.5
      vertex 6.7695 -7.77748 -4.5
    endloop
  endfacet
  facet normal 0 0 -1
    outer loop
      vertex 6.32018 -7.94238 -4.5
      vertex 5.84567 -7.87959 -4.5
      vertex 6.21031 -6.94844 -4.5
    endloop
  endfacet
  facet normal -0 0 -1
    outer loop
      vertex 23.6814 4.6906 -4.5
      vertex 22.7911 4.2354 -4.5
      vertex 16.9711 14.639 -4.5
    endloop
  endfacet
  facet normal 0 -0 -1
    outer loop
      vertex -1.24132 3.67111 -4.5
      vertex -0.5 3 -4.5
      vertex -1.46829 3.24973 -4.5
    endloop
  endfacet
  facet normal 0 0 -1
    outer loop
      vertex 1.67513 -2 -4.5
      vertex 6.21031 -6.94844 -4.5
      vertex 5.45471 -7.60349 -4.5
    endloop
  endfacet
  facet normal 0 0 -1
    outer loop
      vertex 6.21031 -6.94844 -4.5
      vertex 15.335 -2 -4.5
      vertex 6.7695 -7.77748 -4.5
    endloop
  endfacet
  facet normal -0 0 -1
    outer loop
      vertex 15.335 -2 -4.5
      vertex 6.21031 -6.94844 -4.5
      vertex 22.7911 4.2354 -4.5
    endloop
  endfacet
  facet normal 0 -0 -1
    outer loop
      vertex 15.7362 15.1226 -4.5
      vertex 16.0807 14.1839 -4.5
      vertex -0.5 3 -4.5
    endloop
  endfacet
  facet normal 0 0 -1
    outer loop
      vertex -1.24132 3.67111 -4.5
      vertex 15.7362 15.1226 -4.5
      vertex -0.5 3 -4.5
    endloop
  endfacet
  facet normal -0 0 -1
    outer loop
      vertex 16.9711 14.639 -4.5
      vertex 16.0807 14.1839 -4.5
      vertex 16.6576 15.0007 -4.5
    endloop
  endfacet
  facet normal 0 0 -1
    outer loop
      vertex 20.7443 -1.85194 -4.5
      vertex 21.1718 -2.07858 -4.5
      vertex 20.7999 -2.73587 -4.5
    endloop
  endfacet
  facet normal 0 -0 -1
    outer loop
      vertex 24.0234 2.19797 -4.5
      vertex 24.3575 1.83495 -4.5
      vertex 23.7812 1.35406 -4.5
    endloop
  endfacet
  facet normal 0 0 -1
    outer loop
      vertex 24.0234 2.19797 -4.5
      vertex 23.7812 1.35406 -4.5
      vertex 23.4485 1.70534 -4.5
    endloop
  endfacet
  facet normal 0 0 -1
    outer loop
      vertex 23.7812 1.35406 -4.5
      vertex 24.6274 1.42189 -4.5
      vertex 24.0307 0.939499 -4.5
    endloop
  endfacet
  facet normal 0 -0 -1
    outer loop
      vertex 24.3575 1.83495 -4.5
      vertex 24.6274 1.42189 -4.5
      vertex 23.7812 1.35406 -4.5
    endloop
  endfacet
  facet normal 0 0 -1
    outer loop
      vertex 24.0307 0.939499 -4.5
      vertex 24.8256 0.970032 -4.5
      vertex 24.1852 0.480988 -4.5
    endloop
  endfacet
  facet normal 0 -0 -1
    outer loop
      vertex 24.6274 1.42189 -4.5
      vertex 24.8256 0.970032 -4.5
      vertex 24.0307 0.939499 -4.5
    endloop
  endfacet
  facet normal 0 0 -1
    outer loop
      vertex 24.1852 0.480988 -4.5
      vertex 24.9467 0.491714 -4.5
      vertex 24.2375 0 -4.5
    endloop
  endfacet
  facet normal 0 0 -1
    outer loop
      vertex 24.2375 0 -4.5
      vertex 24.9875 0 -4.5
      vertex 24.9467 -0.491714 -4.5
    endloop
  endfacet
  facet normal 0 0 -1
    outer loop
      vertex 24.1852 -0.480988 -4.5
      vertex 24.9467 -0.491714 -4.5
      vertex 24.8256 -0.970032 -4.5
    endloop
  endfacet
  facet normal 0 0 -1
    outer loop
      vertex 24.3575 -1.83495 -4.5
      vertex 23.7812 -1.35406 -4.5
      vertex 24.6274 -1.42189 -4.5
    endloop
  endfacet
  facet normal 0 0 -1
    outer loop
      vertex 24.0234 -2.19797 -4.5
      vertex 23.4485 -1.70534 -4.5
      vertex 23.7812 -1.35406 -4.5
    endloop
  endfacet
  facet normal 0 0 -1
    outer loop
      vertex 23.634 -2.50102 -4.5
      vertex 23.048 -1.97685 -4.5
      vertex 23.4485 -1.70534 -4.5
    endloop
  endfacet
  facet normal 0 0 -1
    outer loop
      vertex 22.7334 -2.89607 -4.5
      vertex 22.5986 -2.15593 -4.5
      vertex 23.2001 -2.73587 -4.5
    endloop
  endfacet
  facet normal 0 0 -1
    outer loop
      vertex 22.2467 -2.97729 -4.5
      vertex 22.1211 -2.23421 -4.5
      vertex 22.5986 -2.15593 -4.5
    endloop
  endfacet
  facet normal 0 0 -1
    outer loop
      vertex 21.7533 -2.97729 -4.5
      vertex 21.638 -2.20802 -4.5
      vertex 22.1211 -2.23421 -4.5
    endloop
  endfacet
  facet normal 0 0 -1
    outer loop
      vertex 21.2666 -2.89607 -4.5
      vertex 21.1718 -2.07858 -4.5
      vertex 21.638 -2.20802 -4.5
    endloop
  endfacet
  facet normal 0 0 -1
    outer loop
      vertex 20.366 -2.50102 -4.5
      vertex 20.7443 -1.85194 -4.5
      vertex 20.7999 -2.73587 -4.5
    endloop
  endfacet
  facet normal 0 0 -1
    outer loop
      vertex 20.7443 -1.85194 -4.5
      vertex 20.366 -2.50102 -4.5
      vertex 19.9766 -2.19797 -4.5
    endloop
  endfacet
  facet normal 0 -0 -1
    outer loop
      vertex 20.3756 -1.53873 -4.5
      vertex 20.7443 -1.85194 -4.5
      vertex 19.9766 -2.19797 -4.5
    endloop
  endfacet
  facet normal 0 0 -1
    outer loop
      vertex 19.7944 -2 -4.5
      vertex 20.3756 -1.53873 -4.5
      vertex 19.9766 -2.19797 -4.5
    endloop
  endfacet
  facet normal -0 0 -1
    outer loop
      vertex 20.0828 -1.15355 -4.5
      vertex 19.7944 -2 -4.5
      vertex 19.8796 -0.714432 -4.5
    endloop
  endfacet
  facet normal 0 0 -1
    outer loop
      vertex 19.8796 -0.714432 -4.5
      vertex 19.7944 -2 -4.5
      vertex 15.335 -2 -4.5
    endloop
  endfacet
  facet normal 0 -0 -1
    outer loop
      vertex 19.7756 -0.241913 -4.5
      vertex 19.8796 -0.714432 -4.5
      vertex 15.335 -2 -4.5
    endloop
  endfacet
  facet normal 0 -0 -1
    outer loop
      vertex 19.7756 0.241913 -4.5
      vertex 19.7756 -0.241913 -4.5
      vertex 15.335 -2 -4.5
    endloop
  endfacet
  facet normal 0 0 -1
    outer loop
      vertex 19.8796 0.714432 -4.5
      vertex 19.7756 0.241913 -4.5
      vertex 15.335 -2 -4.5
    endloop
  endfacet
  facet normal 0 0 -1
    outer loop
      vertex 20.0828 1.15355 -4.5
      vertex 19.8796 0.714432 -4.5
      vertex 15.335 -2 -4.5
    endloop
  endfacet
  facet normal 0 0 -1
    outer loop
      vertex 22.7911 4.2354 -4.5
      vertex 20.3756 1.53873 -4.5
      vertex 15.335 -2 -4.5
    endloop
  endfacet
  facet normal 0 0 -1
    outer loop
      vertex 20.3756 1.53873 -4.5
      vertex 20.0828 1.15355 -4.5
      vertex 15.335 -2 -4.5
    endloop
  endfacet
  facet normal -0 0 -1
    outer loop
      vertex 21.1718 2.07858 -4.5
      vertex 20.7443 1.85194 -4.5
      vertex 22.7911 4.2354 -4.5
    endloop
  endfacet
  facet normal -0 0 -1
    outer loop
      vertex 20.7443 1.85194 -4.5
      vertex 20.3756 1.53873 -4.5
      vertex 22.7911 4.2354 -4.5
    endloop
  endfacet
  facet normal -0 0 -1
    outer loop
      vertex 21.638 2.20802 -4.5
      vertex 21.1718 2.07858 -4.5
      vertex 22.7911 4.2354 -4.5
    endloop
  endfacet
  facet normal -0 0 -1
    outer loop
      vertex 22.6214 2.91476 -4.5
      vertex 21.638 2.20802 -4.5
      vertex 22.7911 4.2354 -4.5
    endloop
  endfacet
  facet normal 0 0 -1
    outer loop
      vertex 22.6214 2.91476 -4.5
      vertex 22.1211 2.23421 -4.5
      vertex 21.638 2.20802 -4.5
    endloop
  endfacet
  facet normal 0 -0 -1
    outer loop
      vertex -2.82817 -2.07858 -4.5
      vertex -2.73338 -2.89607 -4.5
      vertex -3.20006 -2.73587 -4.5
    endloop
  endfacet
  facet normal -0 0 -1
    outer loop
      vertex -1.87886 2.23421 -4.5
      vertex -2.36198 2.20802 -4.5
      vertex -2.2467 2.97729 -4.5
    endloop
  endfacet
  facet normal 0 0 -1
    outer loop
      vertex -3.25565 -1.85194 -4.5
      vertex -3.634 -2.50102 -4.5
      vertex -4.02338 -2.19797 -4.5
    endloop
  endfacet
  facet normal 0 0 -1
    outer loop
      vertex 0.205612 -2 -4.5
      vertex 0.0306854 -0.939499 -4.5
      vertex 1.67513 -2 -4.5
    endloop
  endfacet
  facet normal 0 0 -1
    outer loop
      vertex -3.6244 -1.53873 -4.5
      vertex -4.02338 -2.19797 -4.5
      vertex -4.35754 -1.83495 -4.5
    endloop
  endfacet
  facet normal -0 0 -1
    outer loop
      vertex -3.91721 -1.15355 -4.5
      vertex -4.62743 -1.42189 -4.5
      vertex -4.12036 -0.714432 -4.5
    endloop
  endfacet
  facet normal -0 0 -1
    outer loop
      vertex -4.12036 -0.714432 -4.5
      vertex -4.82562 -0.970032 -4.5
      vertex -4.94675 -0.491714 -4.5
    endloop
  endfacet
  facet normal -0 0 -1
    outer loop
      vertex -4.22438 -0.241913 -4.5
      vertex -4.94675 -0.491714 -4.5
      vertex -4.98749 0 -4.5
    endloop
  endfacet
  facet normal 0 0 -1
    outer loop
      vertex -4.22438 0.241913 -4.5
      vertex -4.94675 0.491714 -4.5
      vertex -4.12036 0.714432 -4.5
    endloop
  endfacet
  facet normal 0 0 -1
    outer loop
      vertex -4.12036 0.714432 -4.5
      vertex -4.82562 0.970032 -4.5
      vertex -4.62743 1.42189 -4.5
    endloop
  endfacet
  facet normal 0 0 -1
    outer loop
      vertex -3.91721 1.15355 -4.5
      vertex -4.62743 1.42189 -4.5
      vertex -4.35754 1.83495 -4.5
    endloop
  endfacet
  facet normal 0 0 -1
    outer loop
      vertex -3.6244 1.53873 -4.5
      vertex -4.02338 2.19797 -4.5
      vertex -3.25565 1.85194 -4.5
    endloop
  endfacet
  facet normal 0 0 -1
    outer loop
      vertex -3.25565 1.85194 -4.5
      vertex -3.634 2.50102 -4.5
      vertex -3.20006 2.73587 -4.5
    endloop
  endfacet
  facet normal 0 0 -1
    outer loop
      vertex -2.82817 2.07858 -4.5
      vertex -3.20006 2.73587 -4.5
      vertex -2.73338 2.89607 -4.5
    endloop
  endfacet
  facet normal -0 0 -1
    outer loop
      vertex -1.7533 2.97729 -4.5
      vertex -1.87886 2.23421 -4.5
      vertex -2.2467 2.97729 -4.5
    endloop
  endfacet
  facet normal 0 -0 -1
    outer loop
      vertex -1.47174 2.9303 -4.5
      vertex -1.4014 2.15593 -4.5
      vertex -1.87886 2.23421 -4.5
    endloop
  endfacet
  facet normal 0 0 -1
    outer loop
      vertex -1.47174 2.9303 -4.5
      vertex -0.951935 1.97685 -4.5
      vertex -1.4014 2.15593 -4.5
    endloop
  endfacet
  facet normal 0 0 -1
    outer loop
      vertex -1.47174 2.9303 -4.5
      vertex -0.5 3 -4.5
      vertex -0.951935 1.97685 -4.5
    endloop
  endfacet
  facet normal 0 0 -1
    outer loop
      vertex 0.0306854 0.939499 -4.5
      vertex 1.67513 -2 -4.5
      vertex 0.185181 0.480988 -4.5
    endloop
  endfacet
  facet normal 0 0 -1
    outer loop
      vertex -0.551468 1.70534 -4.5
      vertex -0.951935 1.97685 -4.5
      vertex -0.5 3 -4.5
    endloop
  endfacet
  facet normal 0 0 -1
    outer loop
      vertex -0.218735 1.35406 -4.5
      vertex -0.551468 1.70534 -4.5
      vertex -0.5 3 -4.5
    endloop
  endfacet
  facet normal 0 0 -1
    outer loop
      vertex 1.67513 -2 -4.5
      vertex 0.0306854 0.939499 -4.5
      vertex -0.5 3 -4.5
    endloop
  endfacet
  facet normal 0 0 -1
    outer loop
      vertex 0.0306854 0.939499 -4.5
      vertex -0.218735 1.35406 -4.5
      vertex -0.5 3 -4.5
    endloop
  endfacet
  facet normal 0 0 -1
    outer loop
      vertex 0.185181 0.480988 -4.5
      vertex 1.67513 -2 -4.5
      vertex 0.237488 0 -4.5
    endloop
  endfacet
  facet normal 0 -0 -1
    outer loop
      vertex 0.237488 0 -4.5
      vertex 1.67513 -2 -4.5
      vertex 0.185181 -0.480988 -4.5
    endloop
  endfacet
  facet normal 0 0 -1
    outer loop
      vertex -0.551468 -1.70534 -4.5
      vertex -0.218735 -1.35406 -4.5
      vertex 0.205612 -2 -4.5
    endloop
  endfacet
  facet normal 0 0 -1
    outer loop
      vertex -0.365997 -2.50102 -4.5
      vertex -0.551468 -1.70534 -4.5
      vertex 0.0233765 -2.19797 -4.5
    endloop
  endfacet
  facet normal 0 0 -1
    outer loop
      vertex -0.365997 -2.50102 -4.5
      vertex -0.951935 -1.97685 -4.5
      vertex -0.551468 -1.70534 -4.5
    endloop
  endfacet
  facet normal 0 0 -1
    outer loop
      vertex -0.799942 -2.73587 -4.5
      vertex -1.4014 -2.15593 -4.5
      vertex -0.951935 -1.97685 -4.5
    endloop
  endfacet
  facet normal -0 0 -1
    outer loop
      vertex -1.26662 -2.89607 -4.5
      vertex -1.7533 -2.97729 -4.5
      vertex -1.4014 -2.15593 -4.5
    endloop
  endfacet
  facet normal 0 0 -1
    outer loop
      vertex -1.4014 -2.15593 -4.5
      vertex -1.7533 -2.97729 -4.5
      vertex -1.87888 -2.23421 -4.5
    endloop
  endfacet
  facet normal -0 0 -1
    outer loop
      vertex -1.87888 -2.23421 -4.5
      vertex -2.2467 -2.97729 -4.5
      vertex -2.36198 -2.20802 -4.5
    endloop
  endfacet
  facet normal 0 0 1
    outer loop
      vertex 24.8256 -0.970032 4.5
      vertex 24.1852 -0.480988 4.5
      vertex 24.0307 -0.939499 4.5
    endloop
  endfacet
  facet normal -0 0 1
    outer loop
      vertex 15.7362 15.1226 4.5
      vertex 16.0807 14.1839 4.5
      vertex 16.2119 15.1752 4.5
    endloop
  endfacet
  facet normal 0 0 1
    outer loop
      vertex 21.2666 -2.89607 4.5
      vertex 21.1718 -2.07858 4.5
      vertex 20.7999 -2.73587 4.5
    endloop
  endfacet
  facet normal 0 0 1
    outer loop
      vertex 19.7944 -2 4.5
      vertex 20.3756 -1.53873 4.5
      vertex 20.0828 -1.15355 4.5
    endloop
  endfacet
  facet normal 0 0 1
    outer loop
      vertex 23.791 4.22467 4.5
      vertex 23.6814 4.6906 4.5
      vertex 22.7911 4.2354 4.5
    endloop
  endfacet
  facet normal 0 0 1
    outer loop
      vertex 21.7533 -2.97729 4.5
      vertex 21.638 -2.20802 4.5
      vertex 21.2666 -2.89607 4.5
    endloop
  endfacet
  facet normal 0 0 1
    outer loop
      vertex 22.2467 -2.97729 4.5
      vertex 22.1211 -2.23421 4.5
      vertex 21.7533 -2.97729 4.5
    endloop
  endfacet
  facet normal 0 0 1
    outer loop
      vertex 22.7334 -2.89607 4.5
      vertex 22.5986 -2.15593 4.5
      vertex 22.2467 -2.97729 4.5
    endloop
  endfacet
  facet normal 0 0 1
    outer loop
      vertex 23.2001 -2.73587 4.5
      vertex 23.048 -1.97685 4.5
      vertex 22.5986 -2.15593 4.5
    endloop
  endfacet
  facet normal 0 0 1
    outer loop
      vertex 23.634 -2.50102 4.5
      vertex 23.048 -1.97685 4.5
      vertex 23.2001 -2.73587 4.5
    endloop
  endfacet
  facet normal 0 0 1
    outer loop
      vertex 24.0234 -2.19797 4.5
      vertex 23.4485 -1.70534 4.5
      vertex 23.634 -2.50102 4.5
    endloop
  endfacet
  facet normal 0 0 1
    outer loop
      vertex 24.3575 -1.83495 4.5
      vertex 23.7812 -1.35406 4.5
      vertex 24.0234 -2.19797 4.5
    endloop
  endfacet
  facet normal 0 0 1
    outer loop
      vertex 24.6274 -1.42189 4.5
      vertex 24.0307 -0.939499 4.5
      vertex 23.7812 -1.35406 4.5
    endloop
  endfacet
  facet normal 0 0 1
    outer loop
      vertex 24.8256 -0.970032 4.5
      vertex 24.0307 -0.939499 4.5
      vertex 24.6274 -1.42189 4.5
    endloop
  endfacet
  facet normal 0 0 1
    outer loop
      vertex 24.9467 -0.491714 4.5
      vertex 24.2375 0 4.5
      vertex 24.1852 -0.480988 4.5
    endloop
  endfacet
  facet normal 0 0 1
    outer loop
      vertex 24.1852 0.480988 4.5
      vertex 24.9467 0.491714 4.5
      vertex 24.8256 0.970032 4.5
    endloop
  endfacet
  facet normal -0 0 1
    outer loop
      vertex 22.1211 2.23421 4.5
      vertex 22.5986 2.15593 4.5
      vertex 22.6214 2.91476 4.5
    endloop
  endfacet
  facet normal 0 0 1
    outer loop
      vertex 23.4485 1.70534 4.5
      vertex 24.0234 2.19797 4.5
      vertex 23.634 2.50102 4.5
    endloop
  endfacet
  facet normal 0 -0 1
    outer loop
      vertex 23.4485 1.70534 4.5
      vertex 23.634 2.50102 4.5
      vertex 23.048 1.97685 4.5
    endloop
  endfacet
  facet normal 0 0 1
    outer loop
      vertex 23.634 2.50102 4.5
      vertex 23.2001 2.73587 4.5
      vertex 23.048 1.97685 4.5
    endloop
  endfacet
  facet normal 0 0 1
    outer loop
      vertex 23.2001 2.73587 4.5
      vertex 22.5986 2.15593 4.5
      vertex 23.048 1.97685 4.5
    endloop
  endfacet
  facet normal 0 0 1
    outer loop
      vertex 22.7334 2.89607 4.5
      vertex 22.5986 2.15593 4.5
      vertex 23.2001 2.73587 4.5
    endloop
  endfacet
  facet normal 0 0 1
    outer loop
      vertex 22.6214 2.91476 4.5
      vertex 22.5986 2.15593 4.5
      vertex 22.7334 2.89607 4.5
    endloop
  endfacet
  facet normal 0 0 1
    outer loop
      vertex 24.9875 0 4.5
      vertex 24.9467 0.491714 4.5
      vertex 24.2375 0 4.5
    endloop
  endfacet
  facet normal 0 -0 1
    outer loop
      vertex 23.6715 3.7612 4.5
      vertex 23.791 4.22467 4.5
      vertex 22.7911 4.2354 4.5
    endloop
  endfacet
  facet normal 0 0 1
    outer loop
      vertex 23.6715 3.7612 4.5
      vertex 22.7911 4.2354 4.5
      vertex 23.3503 3.40636 4.5
    endloop
  endfacet
  facet normal 0 0 1
    outer loop
      vertex 22.7911 4.2354 4.5
      vertex 22.6214 2.91476 4.5
      vertex 23.3503 3.40636 4.5
    endloop
  endfacet
  facet normal 0 0 1
    outer loop
      vertex 16.6576 15.0007 4.5
      vertex 16.2119 15.1752 4.5
      vertex 16.0807 14.1839 4.5
    endloop
  endfacet
  facet normal 0 0 1
    outer loop
      vertex 6.21031 -6.94844 4.5
      vertex -0.5 3 4.5
      vertex 1.67513 -2 4.5
    endloop
  endfacet
  facet normal 0 0 1
    outer loop
      vertex -1.47174 2.9303 4.5
      vertex -1.7533 2.97729 4.5
      vertex -1.87886 2.23421 4.5
    endloop
  endfacet
  facet normal 0 0 1
    outer loop
      vertex -1.47174 2.9303 4.5
      vertex -0.5 3 4.5
      vertex -1.46829 3.24973 4.5
    endloop
  endfacet
  facet normal 0 0 1
    outer loop
      vertex 0.205612 -2 4.5
      vertex 0.0306854 -0.939499 4.5
      vertex -0.218735 -1.35406 4.5
    endloop
  endfacet
  facet normal 0 0 1
    outer loop
      vertex -1.4014 -2.15593 4.5
      vertex -1.26662 -2.89607 4.5
      vertex -0.799942 -2.73587 4.5
    endloop
  endfacet
  facet normal 0 0 1
    outer loop
      vertex -2.73338 2.89607 4.5
      vertex -2.82817 2.07858 4.5
      vertex -2.36198 2.20802 4.5
    endloop
  endfacet
  facet normal 0 0 1
    outer loop
      vertex -3.20006 2.73587 4.5
      vertex -3.25565 1.85194 4.5
      vertex -2.82817 2.07858 4.5
    endloop
  endfacet
  facet normal 0 0 1
    outer loop
      vertex -3.634 2.50102 4.5
      vertex -4.02338 2.19797 4.5
      vertex -3.25565 1.85194 4.5
    endloop
  endfacet
  facet normal 0 0 1
    outer loop
      vertex -4.02338 2.19797 4.5
      vertex -4.35754 1.83495 4.5
      vertex -3.6244 1.53873 4.5
    endloop
  endfacet
  facet normal 0 0 1
    outer loop
      vertex -4.35754 1.83495 4.5
      vertex -3.91721 1.15355 4.5
      vertex -3.6244 1.53873 4.5
    endloop
  endfacet
  facet normal 0 0 1
    outer loop
      vertex -4.62743 1.42189 4.5
      vertex -4.12036 0.714432 4.5
      vertex -3.91721 1.15355 4.5
    endloop
  endfacet
  facet normal 0 0 1
    outer loop
      vertex -4.82562 0.970032 4.5
      vertex -4.94675 0.491714 4.5
      vertex -4.12036 0.714432 4.5
    endloop
  endfacet
  facet normal 0 0 1
    outer loop
      vertex -4.94675 0.491714 4.5
      vertex -4.98749 0 4.5
      vertex -4.22438 0.241913 4.5
    endloop
  endfacet
  facet normal -0 0 1
    outer loop
      vertex -4.98749 0 4.5
      vertex -4.22438 -0.241913 4.5
      vertex -4.22438 0.241913 4.5
    endloop
  endfacet
  facet normal -0 0 1
    outer loop
      vertex -4.94675 -0.491714 4.5
      vertex -4.12036 -0.714432 4.5
      vertex -4.22438 -0.241913 4.5
    endloop
  endfacet
  facet normal -0 0 1
    outer loop
      vertex -4.82562 -0.970032 4.5
      vertex -4.62743 -1.42189 4.5
      vertex -4.12036 -0.714432 4.5
    endloop
  endfacet
  facet normal -0 0 1
    outer loop
      vertex -4.62743 -1.42189 4.5
      vertex -4.35754 -1.83495 4.5
      vertex -3.91721 -1.15355 4.5
    endloop
  endfacet
  facet normal 0 0 1
    outer loop
      vertex -4.35754 -1.83495 4.5
      vertex -3.6244 -1.53873 4.5
      vertex -3.91721 -1.15355 4.5
    endloop
  endfacet
  facet normal 0 0 1
    outer loop
      vertex -4.02338 -2.19797 4.5
      vertex -3.25565 -1.85194 4.5
      vertex -3.6244 -1.53873 4.5
    endloop
  endfacet
  facet normal -0 0 1
    outer loop
      vertex -3.634 -2.50102 4.5
      vertex -3.20006 -2.73587 4.5
      vertex -3.25565 -1.85194 4.5
    endloop
  endfacet
  facet normal 0 -0 1
    outer loop
      vertex -3.20006 -2.73587 4.5
      vertex -2.82817 -2.07858 4.5
      vertex -3.25565 -1.85194 4.5
    endloop
  endfacet
  facet normal 0 -0 1
    outer loop
      vertex -2.73338 -2.89607 4.5
      vertex -2.36198 -2.20802 4.5
      vertex -2.82817 -2.07858 4.5
    endloop
  endfacet
  facet normal 0 0 1
    outer loop
      vertex -2.2467 -2.97729 4.5
      vertex -2.36198 -2.20802 4.5
      vertex -2.73338 -2.89607 4.5
    endloop
  endfacet
  facet normal 0 -0 1
    outer loop
      vertex 5.84567 -7.87959 4.5
      vertex 6.21031 -6.94844 4.5
      vertex 5.45471 -7.60349 4.5
    endloop
  endfacet
  facet normal 0 0 1
    outer loop
      vertex -1.7533 -2.97729 4.5
      vertex -1.87888 -2.23421 4.5
      vertex -2.2467 -2.97729 4.5
    endloop
  endfacet
  facet normal 0 0 1
    outer loop
      vertex -0.951935 -1.97685 4.5
      vertex -0.799942 -2.73587 4.5
      vertex -0.365997 -2.50102 4.5
    endloop
  endfacet
  facet normal 0 0 1
    outer loop
      vertex 0.205612 -2 4.5
      vertex -0.551468 -1.70534 4.5
      vertex 0.0233765 -2.19797 4.5
    endloop
  endfacet
  facet normal -0 0 1
    outer loop
      vertex 16.0807 14.1839 4.5
      vertex 22.7911 4.2354 4.5
      vertex 16.9711 14.639 4.5
    endloop
  endfacet
  facet normal -0 0 1
    outer loop
      vertex 0.0306854 -0.939499 4.5
      vertex 1.67513 -2 4.5
      vertex 0.185181 -0.480988 4.5
    endloop
  endfacet
  facet normal -0 0 1
    outer loop
      vertex -2.73338 2.89607 4.5
      vertex -2.36198 2.20802 4.5
      vertex -2.2467 2.97729 4.5
    endloop
  endfacet
  facet normal 0 0 1
    outer loop
      vertex 6.7695 -7.77748 4.5
      vertex 6.21031 -6.94844 4.5
      vertex 6.32018 -7.94238 4.5
    endloop
  endfacet
  facet normal 0 0 1
    outer loop
      vertex 6.21031 -6.94844 4.5
      vertex 5.84567 -7.87959 4.5
      vertex 6.32018 -7.94238 4.5
    endloop
  endfacet
  facet normal 0 0 1
    outer loop
      vertex 16.9711 14.639 4.5
      vertex 22.7911 4.2354 4.5
      vertex 23.6814 4.6906 4.5
    endloop
  endfacet
  facet normal -0 0 1
    outer loop
      vertex -1.46829 3.24973 4.5
      vertex -0.5 3 4.5
      vertex -1.24132 3.67111 4.5
    endloop
  endfacet
  facet normal 0 -0 1
    outer loop
      vertex 5.45471 -7.60349 4.5
      vertex 6.21031 -6.94844 4.5
      vertex 1.67513 -2 4.5
    endloop
  endfacet
  facet normal 0 -0 1
    outer loop
      vertex 6.7695 -7.77748 4.5
      vertex 15.335 -2 4.5
      vertex 6.21031 -6.94844 4.5
    endloop
  endfacet
  facet normal 0 0 1
    outer loop
      vertex 22.7911 4.2354 4.5
      vertex 6.21031 -6.94844 4.5
      vertex 15.335 -2 4.5
    endloop
  endfacet
  facet normal 0 0 1
    outer loop
      vertex -0.5 3 4.5
      vertex 16.0807 14.1839 4.5
      vertex 15.7362 15.1226 4.5
    endloop
  endfacet
  facet normal 0 -0 1
    outer loop
      vertex -0.5 3 4.5
      vertex 15.7362 15.1226 4.5
      vertex -1.24132 3.67111 4.5
    endloop
  endfacet
  facet normal 0 0 1
    outer loop
      vertex 16.6576 15.0007 4.5
      vertex 16.0807 14.1839 4.5
      vertex 16.9711 14.639 4.5
    endloop
  endfacet
  facet normal 0 -0 1
    outer loop
      vertex 20.7999 -2.73587 4.5
      vertex 21.1718 -2.07858 4.5
      vertex 20.7443 -1.85194 4.5
    endloop
  endfacet
  facet normal 0 0 1
    outer loop
      vertex 23.7812 1.35406 4.5
      vertex 24.3575 1.83495 4.5
      vertex 24.0234 2.19797 4.5
    endloop
  endfacet
  facet normal -0 0 1
    outer loop
      vertex 23.4485 1.70534 4.5
      vertex 23.7812 1.35406 4.5
      vertex 24.0234 2.19797 4.5
    endloop
  endfacet
  facet normal 0 -0 1
    outer loop
      vertex 24.0307 0.939499 4.5
      vertex 24.6274 1.42189 4.5
      vertex 23.7812 1.35406 4.5
    endloop
  endfacet
  facet normal 0 0 1
    outer loop
      vertex 23.7812 1.35406 4.5
      vertex 24.6274 1.42189 4.5
      vertex 24.3575 1.83495 4.5
    endloop
  endfacet
  facet normal 0 -0 1
    outer loop
      vertex 24.1852 0.480988 4.5
      vertex 24.8256 0.970032 4.5
      vertex 24.0307 0.939499 4.5
    endloop
  endfacet
  facet normal 0 0 1
    outer loop
      vertex 24.0307 0.939499 4.5
      vertex 24.8256 0.970032 4.5
      vertex 24.6274 1.42189 4.5
    endloop
  endfacet
  facet normal 0 -0 1
    outer loop
      vertex 24.2375 0 4.5
      vertex 24.9467 0.491714 4.5
      vertex 24.1852 0.480988 4.5
    endloop
  endfacet
  facet normal 0 -0 1
    outer loop
      vertex 24.9467 -0.491714 4.5
      vertex 24.9875 0 4.5
      vertex 24.2375 0 4.5
    endloop
  endfacet
  facet normal 0 -0 1
    outer loop
      vertex 24.8256 -0.970032 4.5
      vertex 24.9467 -0.491714 4.5
      vertex 24.1852 -0.480988 4.5
    endloop
  endfacet
  facet normal 0 0 1
    outer loop
      vertex 24.6274 -1.42189 4.5
      vertex 23.7812 -1.35406 4.5
      vertex 24.3575 -1.83495 4.5
    endloop
  endfacet
  facet normal 0 0 1
    outer loop
      vertex 23.7812 -1.35406 4.5
      vertex 23.4485 -1.70534 4.5
      vertex 24.0234 -2.19797 4.5
    endloop
  endfacet
  facet normal 0 0 1
    outer loop
      vertex 23.4485 -1.70534 4.5
      vertex 23.048 -1.97685 4.5
      vertex 23.634 -2.50102 4.5
    endloop
  endfacet
  facet normal 0 0 1
    outer loop
      vertex 23.2001 -2.73587 4.5
      vertex 22.5986 -2.15593 4.5
      vertex 22.7334 -2.89607 4.5
    endloop
  endfacet
  facet normal 0 0 1
    outer loop
      vertex 22.5986 -2.15593 4.5
      vertex 22.1211 -2.23421 4.5
      vertex 22.2467 -2.97729 4.5
    endloop
  endfacet
  facet normal 0 0 1
    outer loop
      vertex 22.1211 -2.23421 4.5
      vertex 21.638 -2.20802 4.5
      vertex 21.7533 -2.97729 4.5
    endloop
  endfacet
  facet normal 0 0 1
    outer loop
      vertex 21.638 -2.20802 4.5
      vertex 21.1718 -2.07858 4.5
      vertex 21.2666 -2.89607 4.5
    endloop
  endfacet
  facet normal 0 0 1
    outer loop
      vertex 20.7999 -2.73587 4.5
      vertex 20.7443 -1.85194 4.5
      vertex 20.366 -2.50102 4.5
    endloop
  endfacet
  facet normal -0 0 1
    outer loop
      vertex 19.9766 -2.19797 4.5
      vertex 20.366 -2.50102 4.5
      vertex 20.7443 -1.85194 4.5
    endloop
  endfacet
  facet normal 0 0 1
    outer loop
      vertex 19.9766 -2.19797 4.5
      vertex 20.7443 -1.85194 4.5
      vertex 20.3756 -1.53873 4.5
    endloop
  endfacet
  facet normal 0 -0 1
    outer loop
      vertex 19.9766 -2.19797 4.5
      vertex 20.3756 -1.53873 4.5
      vertex 19.7944 -2 4.5
    endloop
  endfacet
  facet normal 0 0 1
    outer loop
      vertex 19.8796 -0.714432 4.5
      vertex 19.7944 -2 4.5
      vertex 20.0828 -1.15355 4.5
    endloop
  endfacet
  facet normal 0 0 1
    outer loop
      vertex 15.335 -2 4.5
      vertex 19.7944 -2 4.5
      vertex 19.8796 -0.714432 4.5
    endloop
  endfacet
  facet normal 0 0 1
    outer loop
      vertex 15.335 -2 4.5
      vertex 19.8796 -0.714432 4.5
      vertex 19.7756 -0.241913 4.5
    endloop
  endfacet
  facet normal 0 0 1
    outer loop
      vertex 15.335 -2 4.5
      vertex 19.7756 -0.241913 4.5
      vertex 19.7756 0.241913 4.5
    endloop
  endfacet
  facet normal 0 0 1
    outer loop
      vertex 15.335 -2 4.5
      vertex 19.7756 0.241913 4.5
      vertex 19.8796 0.714432 4.5
    endloop
  endfacet
  facet normal 0 0 1
    outer loop
      vertex 15.335 -2 4.5
      vertex 19.8796 0.714432 4.5
      vertex 20.0828 1.15355 4.5
    endloop
  endfacet
  facet normal 0 0 1
    outer loop
      vertex 15.335 -2 4.5
      vertex 20.3756 1.53873 4.5
      vertex 22.7911 4.2354 4.5
    endloop
  endfacet
  facet normal 0 0 1
    outer loop
      vertex 15.335 -2 4.5
      vertex 20.0828 1.15355 4.5
      vertex 20.3756 1.53873 4.5
    endloop
  endfacet
  facet normal 0 0 1
    outer loop
      vertex 22.7911 4.2354 4.5
      vertex 20.7443 1.85194 4.5
      vertex 21.1718 2.07858 4.5
    endloop
  endfacet
  facet normal 0 0 1
    outer loop
      vertex 22.7911 4.2354 4.5
      vertex 20.3756 1.53873 4.5
      vertex 20.7443 1.85194 4.5
    endloop
  endfacet
  facet normal 0 0 1
    outer loop
      vertex 22.7911 4.2354 4.5
      vertex 21.1718 2.07858 4.5
      vertex 21.638 2.20802 4.5
    endloop
  endfacet
  facet normal 0 0 1
    outer loop
      vertex 22.7911 4.2354 4.5
      vertex 21.638 2.20802 4.5
      vertex 22.6214 2.91476 4.5
    endloop
  endfacet
  facet normal 0 0 1
    outer loop
      vertex 21.638 2.20802 4.5
      vertex 22.1211 2.23421 4.5
      vertex 22.6214 2.91476 4.5
    endloop
  endfacet
  facet normal -0 0 1
    outer loop
      vertex -3.20006 -2.73587 4.5
      vertex -2.73338 -2.89607 4.5
      vertex -2.82817 -2.07858 4.5
    endloop
  endfacet
  facet normal 0 0 1
    outer loop
      vertex -2.2467 2.97729 4.5
      vertex -2.36198 2.20802 4.5
      vertex -1.87886 2.23421 4.5
    endloop
  endfacet
  facet normal -0 0 1
    outer loop
      vertex -4.02338 -2.19797 4.5
      vertex -3.634 -2.50102 4.5
      vertex -3.25565 -1.85194 4.5
    endloop
  endfacet
  facet normal 0 0 1
    outer loop
      vertex 1.67513 -2 4.5
      vertex 0.0306854 -0.939499 4.5
      vertex 0.205612 -2 4.5
    endloop
  endfacet
  facet normal -0 0 1
    outer loop
      vertex -4.35754 -1.83495 4.5
      vertex -4.02338 -2.19797 4.5
      vertex -3.6244 -1.53873 4.5
    endloop
  endfacet
  facet normal 0 0 1
    outer loop
      vertex -4.12036 -0.714432 4.5
      vertex -4.62743 -1.42189 4.5
      vertex -3.91721 -1.15355 4.5
    endloop
  endfacet
  facet normal 0 0 1
    outer loop
      vertex -4.94675 -0.491714 4.5
      vertex -4.82562 -0.970032 4.5
      vertex -4.12036 -0.714432 4.5
    endloop
  endfacet
  facet normal 0 0 1
    outer loop
      vertex -4.98749 0 4.5
      vertex -4.94675 -0.491714 4.5
      vertex -4.22438 -0.241913 4.5
    endloop
  endfacet
  facet normal 0 0 1
    outer loop
      vertex -4.12036 0.714432 4.5
      vertex -4.94675 0.491714 4.5
      vertex -4.22438 0.241913 4.5
    endloop
  endfacet
  facet normal 0 0 1
    outer loop
      vertex -4.62743 1.42189 4.5
      vertex -4.82562 0.970032 4.5
      vertex -4.12036 0.714432 4.5
    endloop
  endfacet
  facet normal 0 0 1
    outer loop
      vertex -4.35754 1.83495 4.5
      vertex -4.62743 1.42189 4.5
      vertex -3.91721 1.15355 4.5
    endloop
  endfacet
  facet normal 0 0 1
    outer loop
      vertex -3.25565 1.85194 4.5
      vertex -4.02338 2.19797 4.5
      vertex -3.6244 1.53873 4.5
    endloop
  endfacet
  facet normal 0 0 1
    outer loop
      vertex -3.20006 2.73587 4.5
      vertex -3.634 2.50102 4.5
      vertex -3.25565 1.85194 4.5
    endloop
  endfacet
  facet normal 0 0 1
    outer loop
      vertex -2.73338 2.89607 4.5
      vertex -3.20006 2.73587 4.5
      vertex -2.82817 2.07858 4.5
    endloop
  endfacet
  facet normal -0 0 1
    outer loop
      vertex -2.2467 2.97729 4.5
      vertex -1.87886 2.23421 4.5
      vertex -1.7533 2.97729 4.5
    endloop
  endfacet
  facet normal -0 0 1
    outer loop
      vertex -1.87886 2.23421 4.5
      vertex -1.4014 2.15593 4.5
      vertex -1.47174 2.9303 4.5
    endloop
  endfacet
  facet normal -0 -0 1
    outer loop
      vertex -1.4014 2.15593 4.5
      vertex -0.951935 1.97685 4.5
      vertex -1.47174 2.9303 4.5
    endloop
  endfacet
  facet normal 0 -0 1
    outer loop
      vertex -0.951935 1.97685 4.5
      vertex -0.5 3 4.5
      vertex -1.47174 2.9303 4.5
    endloop
  endfacet
  facet normal -0 -0 1
    outer loop
      vertex 0.185181 0.480988 4.5
      vertex 1.67513 -2 4.5
      vertex 0.0306854 0.939499 4.5
    endloop
  endfacet
  facet normal 0 0 1
    outer loop
      vertex -0.5 3 4.5
      vertex -0.951935 1.97685 4.5
      vertex -0.551468 1.70534 4.5
    endloop
  endfacet
  facet normal 0 0 1
    outer loop
      vertex -0.5 3 4.5
      vertex -0.551468 1.70534 4.5
      vertex -0.218735 1.35406 4.5
    endloop
  endfacet
  facet normal 0 0 1
    outer loop
      vertex -0.5 3 4.5
      vertex 0.0306854 0.939499 4.5
      vertex 1.67513 -2 4.5
    endloop
  endfacet
  facet normal 0 0 1
    outer loop
      vertex -0.5 3 4.5
      vertex -0.218735 1.35406 4.5
      vertex 0.0306854 0.939499 4.5
    endloop
  endfacet
  facet normal -0 -0 1
    outer loop
      vertex 0.237488 0 4.5
      vertex 1.67513 -2 4.5
      vertex 0.185181 0.480988 4.5
    endloop
  endfacet
  facet normal -0 0 1
    outer loop
      vertex 0.185181 -0.480988 4.5
      vertex 1.67513 -2 4.5
      vertex 0.237488 0 4.5
    endloop
  endfacet
  facet normal 0 0 1
    outer loop
      vertex 0.205612 -2 4.5
      vertex -0.218735 -1.35406 4.5
      vertex -0.551468 -1.70534 4.5
    endloop
  endfacet
  facet normal 0 0 1
    outer loop
      vertex 0.0233765 -2.19797 4.5
      vertex -0.551468 -1.70534 4.5
      vertex -0.365997 -2.50102 4.5
    endloop
  endfacet
  facet normal 0 0 1
    outer loop
      vertex -0.551468 -1.70534 4.5
      vertex -0.951935 -1.97685 4.5
      vertex -0.365997 -2.50102 4.5
    endloop
  endfacet
  facet normal 0 0 1
    outer loop
      vertex -0.951935 -1.97685 4.5
      vertex -1.4014 -2.15593 4.5
      vertex -0.799942 -2.73587 4.5
    endloop
  endfacet
  facet normal 0 0 1
    outer loop
      vertex -1.4014 -2.15593 4.5
      vertex -1.7533 -2.97729 4.5
      vertex -1.26662 -2.89607 4.5
    endloop
  endfacet
  facet normal -0 0 1
    outer loop
      vertex -1.87888 -2.23421 4.5
      vertex -1.7533 -2.97729 4.5
      vertex -1.4014 -2.15593 4.5
    endloop
  endfacet
  facet normal 0 0 1
    outer loop
      vertex -2.36198 -2.20802 4.5
      vertex -2.2467 -2.97729 4.5
      vertex -1.87888 -2.23421 4.5
    endloop
  endfacet
  facet normal 0.559191 -0.829039 0
    outer loop
      vertex 15.335 -2 -4.5
      vertex 6.7695 -7.77748 4.5
      vertex 6.7695 -7.77748 -4.5
    endloop
  endfacet
  facet normal 0.559191 -0.829039 0
    outer loop
      vertex 15.335 -2 -4.5
      vertex 15.335 -2 4.5
      vertex 6.7695 -7.77748 4.5
    endloop
  endfacet
  facet normal 0 -1 0
    outer loop
      vertex 19.7944 -2 -4.5
      vertex 15.335 -2 4.5
      vertex 15.335 -2 -4.5
    endloop
  endfacet
  facet normal 0 -1 0
    outer loop
      vertex 19.7944 -2 -4.5
      vertex 19.7944 -2 4.5
      vertex 15.335 -2 4.5
    endloop
  endfacet
  facet normal -0.735806 -0.677193 0
    outer loop
      vertex 19.9766 -2.19797 -4.5
      vertex 19.7944 -2 4.5
      vertex 19.7944 -2 -4.5
    endloop
  endfacet
  facet normal -0.735806 -0.677193 0
    outer loop
      vertex 19.9766 -2.19797 -4.5
      vertex 19.9766 -2.19797 4.5
      vertex 19.7944 -2 4.5
    endloop
  endfacet
  facet normal -0.614172 -0.789172 0
    outer loop
      vertex 20.366 -2.50102 -4.5
      vertex 19.9766 -2.19797 4.5
      vertex 19.9766 -2.19797 -4.5
    endloop
  endfacet
  facet normal -0.614172 -0.789172 0
    outer loop
      vertex 20.366 -2.50102 -4.5
      vertex 20.366 -2.50102 4.5
      vertex 19.9766 -2.19797 4.5
    endloop
  endfacet
  facet normal -0.476002 -0.879444 0
    outer loop
      vertex 20.7999 -2.73587 -4.5
      vertex 20.366 -2.50102 4.5
      vertex 20.366 -2.50102 -4.5
    endloop
  endfacet
  facet normal -0.476002 -0.879444 0
    outer loop
      vertex 20.7999 -2.73587 -4.5
      vertex 20.7999 -2.73587 4.5
      vertex 20.366 -2.50102 4.5
    endloop
  endfacet
  facet normal -0.324666 -0.945829 0
    outer loop
      vertex 21.2666 -2.89607 -4.5
      vertex 20.7999 -2.73587 4.5
      vertex 20.7999 -2.73587 -4.5
    endloop
  endfacet
  facet normal -0.324666 -0.945829 0
    outer loop
      vertex 21.2666 -2.89607 -4.5
      vertex 21.2666 -2.89607 4.5
      vertex 20.7999 -2.73587 4.5
    endloop
  endfacet
  facet normal -0.164603 -0.98636 0
    outer loop
      vertex 21.7533 -2.97729 -4.5
      vertex 21.2666 -2.89607 4.5
      vertex 21.2666 -2.89607 -4.5
    endloop
  endfacet
  facet normal -0.164603 -0.98636 0
    outer loop
      vertex 21.7533 -2.97729 -4.5
      vertex 21.7533 -2.97729 4.5
      vertex 21.2666 -2.89607 4.5
    endloop
  endfacet
  facet normal 0 -1 0
    outer loop
      vertex 22.2467 -2.97729 -4.5
      vertex 21.7533 -2.97729 4.5
      vertex 21.7533 -2.97729 -4.5
    endloop
  endfacet
  facet normal 0 -1 0
    outer loop
      vertex 22.2467 -2.97729 -4.5
      vertex 22.2467 -2.97729 4.5
      vertex 21.7533 -2.97729 4.5
    endloop
  endfacet
  facet normal 0.164603 -0.98636 0
    outer loop
      vertex 22.7334 -2.89607 -4.5
      vertex 22.2467 -2.97729 4.5
      vertex 22.2467 -2.97729 -4.5
    endloop
  endfacet
  facet normal 0.164603 -0.98636 0
    outer loop
      vertex 22.7334 -2.89607 -4.5
      vertex 22.7334 -2.89607 4.5
      vertex 22.2467 -2.97729 4.5
    endloop
  endfacet
  facet normal 0.324666 -0.945829 0
    outer loop
      vertex 23.2001 -2.73587 -4.5
      vertex 22.7334 -2.89607 4.5
      vertex 22.7334 -2.89607 -4.5
    endloop
  endfacet
  facet normal 0.324666 -0.945829 0
    outer loop
      vertex 23.2001 -2.73587 -4.5
      vertex 23.2001 -2.73587 4.5
      vertex 22.7334 -2.89607 4.5
    endloop
  endfacet
  facet normal 0.476002 -0.879444 0
    outer loop
      vertex 23.634 -2.50102 -4.5
      vertex 23.2001 -2.73587 4.5
      vertex 23.2001 -2.73587 -4.5
    endloop
  endfacet
  facet normal 0.476002 -0.879444 0
    outer loop
      vertex 23.634 -2.50102 -4.5
      vertex 23.634 -2.50102 4.5
      vertex 23.2001 -2.73587 4.5
    endloop
  endfacet
  facet normal 0.614172 -0.789172 0
    outer loop
      vertex 24.0234 -2.19797 -4.5
      vertex 23.634 -2.50102 4.5
      vertex 23.634 -2.50102 -4.5
    endloop
  endfacet
  facet normal 0.614172 -0.789172 0
    outer loop
      vertex 24.0234 -2.19797 -4.5
      vertex 24.0234 -2.19797 4.5
      vertex 23.634 -2.50102 4.5
    endloop
  endfacet
  facet normal 0.735808 -0.67719 0
    outer loop
      vertex 24.3575 -1.83495 -4.5
      vertex 24.0234 -2.19797 4.5
      vertex 24.0234 -2.19797 -4.5
    endloop
  endfacet
  facet normal 0.735808 -0.67719 0
    outer loop
      vertex 24.3575 -1.83495 -4.5
      vertex 24.3575 -1.83495 4.5
      vertex 24.0234 -2.19797 4.5
    endloop
  endfacet
  facet normal 0.837135 -0.546997 0
    outer loop
      vertex 24.6274 -1.42189 -4.5
      vertex 24.3575 -1.83495 4.5
      vertex 24.3575 -1.83495 -4.5
    endloop
  endfacet
  facet normal 0.837135 -0.546997 0
    outer loop
      vertex 24.6274 -1.42189 -4.5
      vertex 24.6274 -1.42189 4.5
      vertex 24.3575 -1.83495 4.5
    endloop
  endfacet
  facet normal 0.915776 -0.40169 0
    outer loop
      vertex 24.8256 -0.970032 -4.5
      vertex 24.6274 -1.42189 4.5
      vertex 24.6274 -1.42189 -4.5
    endloop
  endfacet
  facet normal 0.915776 -0.40169 0
    outer loop
      vertex 24.8256 -0.970032 -4.5
      vertex 24.8256 -0.970032 4.5
      vertex 24.6274 -1.42189 4.5
    endloop
  endfacet
  facet normal 0.969413 -0.245435 0
    outer loop
      vertex 24.9467 -0.491714 -4.5
      vertex 24.8256 -0.970032 4.5
      vertex 24.8256 -0.970032 -4.5
    endloop
  endfacet
  facet normal 0.969413 -0.245435 0
    outer loop
      vertex 24.9467 -0.491714 -4.5
      vertex 24.9467 -0.491714 4.5
      vertex 24.8256 -0.970032 4.5
    endloop
  endfacet
  facet normal 0.996575 -0.0826909 0
    outer loop
      vertex 24.9875 0 -4.5
      vertex 24.9467 -0.491714 4.5
      vertex 24.9467 -0.491714 -4.5
    endloop
  endfacet
  facet normal 0.996575 -0.0826909 0
    outer loop
      vertex 24.9875 0 -4.5
      vertex 24.9875 0 4.5
      vertex 24.9467 -0.491714 4.5
    endloop
  endfacet
  facet normal 0.996575 0.0826909 0
    outer loop
      vertex 24.9467 0.491714 -4.5
      vertex 24.9875 0 4.5
      vertex 24.9875 0 -4.5
    endloop
  endfacet
  facet normal 0.996575 0.0826909 -0
    outer loop
      vertex 24.9467 0.491714 -4.5
      vertex 24.9467 0.491714 4.5
      vertex 24.9875 0 4.5
    endloop
  endfacet
  facet normal 0.969413 0.245435 0
    outer loop
      vertex 24.8256 0.970032 -4.5
      vertex 24.9467 0.491714 4.5
      vertex 24.9467 0.491714 -4.5
    endloop
  endfacet
  facet normal 0.969413 0.245435 -0
    outer loop
      vertex 24.8256 0.970032 -4.5
      vertex 24.8256 0.970032 4.5
      vertex 24.9467 0.491714 4.5
    endloop
  endfacet
  facet normal 0.915776 0.40169 0
    outer loop
      vertex 24.6274 1.42189 -4.5
      vertex 24.8256 0.970032 4.5
      vertex 24.8256 0.970032 -4.5
    endloop
  endfacet
  facet normal 0.915776 0.40169 -0
    outer loop
      vertex 24.6274 1.42189 -4.5
      vertex 24.6274 1.42189 4.5
      vertex 24.8256 0.970032 4.5
    endloop
  endfacet
  facet normal 0.837135 0.546997 0
    outer loop
      vertex 24.3575 1.83495 -4.5
      vertex 24.6274 1.42189 4.5
      vertex 24.6274 1.42189 -4.5
    endloop
  endfacet
  facet normal 0.837135 0.546997 -0
    outer loop
      vertex 24.3575 1.83495 -4.5
      vertex 24.3575 1.83495 4.5
      vertex 24.6274 1.42189 4.5
    endloop
  endfacet
  facet normal 0.735808 0.67719 0
    outer loop
      vertex 24.0234 2.19797 -4.5
      vertex 24.3575 1.83495 4.5
      vertex 24.3575 1.83495 -4.5
    endloop
  endfacet
  facet normal 0.735808 0.67719 -0
    outer loop
      vertex 24.0234 2.19797 -4.5
      vertex 24.0234 2.19797 4.5
      vertex 24.3575 1.83495 4.5
    endloop
  endfacet
  facet normal 0.614172 0.789172 0
    outer loop
      vertex 23.634 2.50102 -4.5
      vertex 24.0234 2.19797 4.5
      vertex 24.0234 2.19797 -4.5
    endloop
  endfacet
  facet normal 0.614172 0.789172 -0
    outer loop
      vertex 23.634 2.50102 -4.5
      vertex 23.634 2.50102 4.5
      vertex 24.0234 2.19797 4.5
    endloop
  endfacet
  facet normal 0.476002 0.879444 0
    outer loop
      vertex 23.2001 2.73587 -4.5
      vertex 23.634 2.50102 4.5
      vertex 23.634 2.50102 -4.5
    endloop
  endfacet
  facet normal 0.476002 0.879444 -0
    outer loop
      vertex 23.2001 2.73587 -4.5
      vertex 23.2001 2.73587 4.5
      vertex 23.634 2.50102 4.5
    endloop
  endfacet
  facet normal 0.324666 0.945829 0
    outer loop
      vertex 22.7334 2.89607 -4.5
      vertex 23.2001 2.73587 4.5
      vertex 23.2001 2.73587 -4.5
    endloop
  endfacet
  facet normal 0.324666 0.945829 -0
    outer loop
      vertex 22.7334 2.89607 -4.5
      vertex 22.7334 2.89607 4.5
      vertex 23.2001 2.73587 4.5
    endloop
  endfacet
  facet normal 0.164599 0.986361 0
    outer loop
      vertex 22.6214 2.91476 -4.5
      vertex 22.7334 2.89607 4.5
      vertex 22.7334 2.89607 -4.5
    endloop
  endfacet
  facet normal 0.164599 0.986361 -0
    outer loop
      vertex 22.6214 2.91476 -4.5
      vertex 22.6214 2.91476 4.5
      vertex 22.7334 2.89607 4.5
    endloop
  endfacet
  facet normal 0.559154 -0.829064 0
    outer loop
      vertex 23.3503 3.40636 -4.5
      vertex 22.6214 2.91476 4.5
      vertex 22.6214 2.91476 -4.5
    endloop
  endfacet
  facet normal 0.559154 -0.829064 0
    outer loop
      vertex 23.3503 3.40636 -4.5
      vertex 23.3503 3.40636 4.5
      vertex 22.6214 2.91476 4.5
    endloop
  endfacet
  facet normal 0.741375 -0.671091 0
    outer loop
      vertex 23.6715 3.7612 -4.5
      vertex 23.3503 3.40636 4.5
      vertex 23.3503 3.40636 -4.5
    endloop
  endfacet
  facet normal 0.741375 -0.671091 0
    outer loop
      vertex 23.6715 3.7612 -4.5
      vertex 23.6715 3.7612 4.5
      vertex 23.3503 3.40636 4.5
    endloop
  endfacet
  facet normal 0.96833 -0.249672 0
    outer loop
      vertex 23.791 4.22467 -4.5
      vertex 23.6715 3.7612 4.5
      vertex 23.6715 3.7612 -4.5
    endloop
  endfacet
  facet normal 0.96833 -0.249672 0
    outer loop
      vertex 23.791 4.22467 -4.5
      vertex 23.791 4.22467 4.5
      vertex 23.6715 3.7612 4.5
    endloop
  endfacet
  facet normal 0.973431 0.228979 0
    outer loop
      vertex 23.6814 4.6906 -4.5
      vertex 23.791 4.22467 4.5
      vertex 23.791 4.22467 -4.5
    endloop
  endfacet
  facet normal 0.973431 0.228979 -0
    outer loop
      vertex 23.6814 4.6906 -4.5
      vertex 23.6814 4.6906 4.5
      vertex 23.791 4.22467 4.5
    endloop
  endfacet
  facet normal 0.829037 0.559194 0
    outer loop
      vertex 16.9711 14.639 -4.5
      vertex 23.6814 4.6906 4.5
      vertex 23.6814 4.6906 -4.5
    endloop
  endfacet
  facet normal 0.829037 0.559194 -0
    outer loop
      vertex 16.9711 14.639 -4.5
      vertex 16.9711 14.639 4.5
      vertex 23.6814 4.6906 4.5
    endloop
  endfacet
  facet normal 0.755662 0.654962 0
    outer loop
      vertex 16.6576 15.0007 -4.5
      vertex 16.9711 14.639 4.5
      vertex 16.9711 14.639 -4.5
    endloop
  endfacet
  facet normal 0.755662 0.654962 -0
    outer loop
      vertex 16.6576 15.0007 -4.5
      vertex 16.6576 15.0007 4.5
      vertex 16.9711 14.639 4.5
    endloop
  endfacet
  facet normal 0.364573 0.931175 0
    outer loop
      vertex 16.2119 15.1752 -4.5
      vertex 16.6576 15.0007 4.5
      vertex 16.6576 15.0007 -4.5
    endloop
  endfacet
  facet normal 0.364573 0.931175 -0
    outer loop
      vertex 16.2119 15.1752 -4.5
      vertex 16.2119 15.1752 4.5
      vertex 16.6576 15.0007 4.5
    endloop
  endfacet
  facet normal -0.109904 0.993942 0
    outer loop
      vertex 15.7362 15.1226 -4.5
      vertex 16.2119 15.1752 4.5
      vertex 16.2119 15.1752 -4.5
    endloop
  endfacet
  facet normal -0.109904 0.993942 0
    outer loop
      vertex 15.7362 15.1226 -4.5
      vertex 15.7362 15.1226 4.5
      vertex 16.2119 15.1752 4.5
    endloop
  endfacet
  facet normal -0.559193 0.829037 0
    outer loop
      vertex -1.24132 3.67111 -4.5
      vertex 15.7362 15.1226 4.5
      vertex 15.7362 15.1226 -4.5
    endloop
  endfacet
  facet normal -0.559193 0.829037 0
    outer loop
      vertex -1.24132 3.67111 -4.5
      vertex -1.24132 3.67111 4.5
      vertex 15.7362 15.1226 4.5
    endloop
  endfacet
  facet normal -0.880407 0.474218 0
    outer loop
      vertex -1.46829 3.24973 -4.5
      vertex -1.24132 3.67111 4.5
      vertex -1.24132 3.67111 -4.5
    endloop
  endfacet
  facet normal -0.880407 0.474218 0
    outer loop
      vertex -1.46829 3.24973 -4.5
      vertex -1.46829 3.24973 4.5
      vertex -1.24132 3.67111 4.5
    endloop
  endfacet
  facet normal -0.999942 0.0107999 0
    outer loop
      vertex -1.47174 2.9303 -4.5
      vertex -1.46829 3.24973 4.5
      vertex -1.46829 3.24973 -4.5
    endloop
  endfacet
  facet normal -0.999942 0.0107999 0
    outer loop
      vertex -1.47174 2.9303 -4.5
      vertex -1.47174 2.9303 4.5
      vertex -1.46829 3.24973 4.5
    endloop
  endfacet
  facet normal 0.164615 0.986358 0
    outer loop
      vertex -1.7533 2.97729 -4.5
      vertex -1.47174 2.9303 4.5
      vertex -1.47174 2.9303 -4.5
    endloop
  endfacet
  facet normal 0.164615 0.986358 -0
    outer loop
      vertex -1.7533 2.97729 -4.5
      vertex -1.7533 2.97729 4.5
      vertex -1.47174 2.9303 4.5
    endloop
  endfacet
  facet normal 0 1 0
    outer loop
      vertex -2.2467 2.97729 -4.5
      vertex -1.7533 2.97729 4.5
      vertex -1.7533 2.97729 -4.5
    endloop
  endfacet
  facet normal 0 1 0
    outer loop
      vertex -2.2467 2.97729 -4.5
      vertex -2.2467 2.97729 4.5
      vertex -1.7533 2.97729 4.5
    endloop
  endfacet
  facet normal -0.164609 0.986359 0
    outer loop
      vertex -2.73338 2.89607 -4.5
      vertex -2.2467 2.97729 4.5
      vertex -2.2467 2.97729 -4.5
    endloop
  endfacet
  facet normal -0.164609 0.986359 0
    outer loop
      vertex -2.73338 2.89607 -4.5
      vertex -2.73338 2.89607 4.5
      vertex -2.2467 2.97729 4.5
    endloop
  endfacet
  facet normal -0.324679 0.945824 0
    outer loop
      vertex -3.20006 2.73587 -4.5
      vertex -2.73338 2.89607 4.5
      vertex -2.73338 2.89607 -4.5
    endloop
  endfacet
  facet normal -0.324679 0.945824 0
    outer loop
      vertex -3.20006 2.73587 -4.5
      vertex -3.20006 2.73587 4.5
      vertex -2.73338 2.89607 4.5
    endloop
  endfacet
  facet normal -0.475968 0.879462 0
    outer loop
      vertex -3.634 2.50102 -4.5
      vertex -3.20006 2.73587 4.5
      vertex -3.20006 2.73587 -4.5
    endloop
  endfacet
  facet normal -0.475968 0.879462 0
    outer loop
      vertex -3.634 2.50102 -4.5
      vertex -3.634 2.50102 4.5
      vertex -3.20006 2.73587 4.5
    endloop
  endfacet
  facet normal -0.614192 0.789157 0
    outer loop
      vertex -4.02338 2.19797 -4.5
      vertex -3.634 2.50102 4.5
      vertex -3.634 2.50102 -4.5
    endloop
  endfacet
  facet normal -0.614192 0.789157 0
    outer loop
      vertex -4.02338 2.19797 -4.5
      vertex -4.02338 2.19797 4.5
      vertex -3.634 2.50102 4.5
    endloop
  endfacet
  facet normal -0.735748 0.677256 0
    outer loop
      vertex -4.35754 1.83495 -4.5
      vertex -4.02338 2.19797 4.5
      vertex -4.02338 2.19797 -4.5
    endloop
  endfacet
  facet normal -0.735748 0.677256 0
    outer loop
      vertex -4.35754 1.83495 -4.5
      vertex -4.35754 1.83495 4.5
      vertex -4.02338 2.19797 4.5
    endloop
  endfacet
  facet normal -0.837144 0.546983 0
    outer loop
      vertex -4.62743 1.42189 -4.5
      vertex -4.35754 1.83495 4.5
      vertex -4.35754 1.83495 -4.5
    endloop
  endfacet
  facet normal -0.837144 0.546983 0
    outer loop
      vertex -4.62743 1.42189 -4.5
      vertex -4.62743 1.42189 4.5
      vertex -4.35754 1.83495 4.5
    endloop
  endfacet
  facet normal -0.915783 0.401673 0
    outer loop
      vertex -4.82562 0.970032 -4.5
      vertex -4.62743 1.42189 4.5
      vertex -4.62743 1.42189 -4.5
    endloop
  endfacet
  facet normal -0.915783 0.401673 0
    outer loop
      vertex -4.82562 0.970032 -4.5
      vertex -4.82562 0.970032 4.5
      vertex -4.62743 1.42189 4.5
    endloop
  endfacet
  facet normal -0.969399 0.245492 0
    outer loop
      vertex -4.94675 0.491714 -4.5
      vertex -4.82562 0.970032 4.5
      vertex -4.82562 0.970032 -4.5
    endloop
  endfacet
  facet normal -0.969399 0.245492 0
    outer loop
      vertex -4.94675 0.491714 -4.5
      vertex -4.94675 0.491714 4.5
      vertex -4.82562 0.970032 4.5
    endloop
  endfacet
  facet normal -0.996585 0.0825701 0
    outer loop
      vertex -4.98749 0 -4.5
      vertex -4.94675 0.491714 4.5
      vertex -4.94675 0.491714 -4.5
    endloop
  endfacet
  facet normal -0.996585 0.0825701 0
    outer loop
      vertex -4.98749 0 -4.5
      vertex -4.98749 0 4.5
      vertex -4.94675 0.491714 4.5
    endloop
  endfacet
  facet normal -0.996585 -0.0825701 0
    outer loop
      vertex -4.94675 -0.491714 -4.5
      vertex -4.98749 0 4.5
      vertex -4.98749 0 -4.5
    endloop
  endfacet
  facet normal -0.996585 -0.0825701 0
    outer loop
      vertex -4.94675 -0.491714 -4.5
      vertex -4.94675 -0.491714 4.5
      vertex -4.98749 0 4.5
    endloop
  endfacet
  facet normal -0.969399 -0.245492 0
    outer loop
      vertex -4.82562 -0.970032 -4.5
      vertex -4.94675 -0.491714 4.5
      vertex -4.94675 -0.491714 -4.5
    endloop
  endfacet
  facet normal -0.969399 -0.245492 0
    outer loop
      vertex -4.82562 -0.970032 -4.5
      vertex -4.82562 -0.970032 4.5
      vertex -4.94675 -0.491714 4.5
    endloop
  endfacet
  facet normal -0.915783 -0.401673 0
    outer loop
      vertex -4.62743 -1.42189 -4.5
      vertex -4.82562 -0.970032 4.5
      vertex -4.82562 -0.970032 -4.5
    endloop
  endfacet
  facet normal -0.915783 -0.401673 0
    outer loop
      vertex -4.62743 -1.42189 -4.5
      vertex -4.62743 -1.42189 4.5
      vertex -4.82562 -0.970032 4.5
    endloop
  endfacet
  facet normal -0.837144 -0.546983 0
    outer loop
      vertex -4.35754 -1.83495 -4.5
      vertex -4.62743 -1.42189 4.5
      vertex -4.62743 -1.42189 -4.5
    endloop
  endfacet
  facet normal -0.837144 -0.546983 0
    outer loop
      vertex -4.35754 -1.83495 -4.5
      vertex -4.35754 -1.83495 4.5
      vertex -4.62743 -1.42189 4.5
    endloop
  endfacet
  facet normal -0.735748 -0.677256 0
    outer loop
      vertex -4.02338 -2.19797 -4.5
      vertex -4.35754 -1.83495 4.5
      vertex -4.35754 -1.83495 -4.5
    endloop
  endfacet
  facet normal -0.735748 -0.677256 0
    outer loop
      vertex -4.02338 -2.19797 -4.5
      vertex -4.02338 -2.19797 4.5
      vertex -4.35754 -1.83495 4.5
    endloop
  endfacet
  facet normal -0.614192 -0.789157 0
    outer loop
      vertex -3.634 -2.50102 -4.5
      vertex -4.02338 -2.19797 4.5
      vertex -4.02338 -2.19797 -4.5
    endloop
  endfacet
  facet normal -0.614192 -0.789157 0
    outer loop
      vertex -3.634 -2.50102 -4.5
      vertex -3.634 -2.50102 4.5
      vertex -4.02338 -2.19797 4.5
    endloop
  endfacet
  facet normal -0.475968 -0.879462 0
    outer loop
      vertex -3.20006 -2.73587 -4.5
      vertex -3.634 -2.50102 4.5
      vertex -3.634 -2.50102 -4.5
    endloop
  endfacet
  facet normal -0.475968 -0.879462 0
    outer loop
      vertex -3.20006 -2.73587 -4.5
      vertex -3.20006 -2.73587 4.5
      vertex -3.634 -2.50102 4.5
    endloop
  endfacet
  facet normal -0.324679 -0.945824 0
    outer loop
      vertex -2.73338 -2.89607 -4.5
      vertex -3.20006 -2.73587 4.5
      vertex -3.20006 -2.73587 -4.5
    endloop
  endfacet
  facet normal -0.324679 -0.945824 0
    outer loop
      vertex -2.73338 -2.89607 -4.5
      vertex -2.73338 -2.89607 4.5
      vertex -3.20006 -2.73587 4.5
    endloop
  endfacet
  facet normal -0.164609 -0.986359 0
    outer loop
      vertex -2.2467 -2.97729 -4.5
      vertex -2.73338 -2.89607 4.5
      vertex -2.73338 -2.89607 -4.5
    endloop
  endfacet
  facet normal -0.164609 -0.986359 0
    outer loop
      vertex -2.2467 -2.97729 -4.5
      vertex -2.2467 -2.97729 4.5
      vertex -2.73338 -2.89607 4.5
    endloop
  endfacet
  facet normal 0 -1 0
    outer loop
      vertex -1.7533 -2.97729 -4.5
      vertex -2.2467 -2.97729 4.5
      vertex -2.2467 -2.97729 -4.5
    endloop
  endfacet
  facet normal 0 -1 0
    outer loop
      vertex -1.7533 -2.97729 -4.5
      vertex -1.7533 -2.97729 4.5
      vertex -2.2467 -2.97729 4.5
    endloop
  endfacet
  facet normal 0.164609 -0.986359 0
    outer loop
      vertex -1.26662 -2.89607 -4.5
      vertex -1.7533 -2.97729 4.5
      vertex -1.7533 -2.97729 -4.5
    endloop
  endfacet
  facet normal 0.164609 -0.986359 0
    outer loop
      vertex -1.26662 -2.89607 -4.5
      vertex -1.26662 -2.89607 4.5
      vertex -1.7533 -2.97729 4.5
    endloop
  endfacet
  facet normal 0.32468 -0.945824 0
    outer loop
      vertex -0.799942 -2.73587 -4.5
      vertex -1.26662 -2.89607 4.5
      vertex -1.26662 -2.89607 -4.5
    endloop
  endfacet
  facet normal 0.32468 -0.945824 0
    outer loop
      vertex -0.799942 -2.73587 -4.5
      vertex -0.799942 -2.73587 4.5
      vertex -1.26662 -2.89607 4.5
    endloop
  endfacet
  facet normal 0.475964 -0.879465 0
    outer loop
      vertex -0.365997 -2.50102 -4.5
      vertex -0.799942 -2.73587 4.5
      vertex -0.799942 -2.73587 -4.5
    endloop
  endfacet
  facet normal 0.475964 -0.879465 0
    outer loop
      vertex -0.365997 -2.50102 -4.5
      vertex -0.365997 -2.50102 4.5
      vertex -0.799942 -2.73587 4.5
    endloop
  endfacet
  facet normal 0.614198 -0.789152 0
    outer loop
      vertex 0.0233765 -2.19797 -4.5
      vertex -0.365997 -2.50102 4.5
      vertex -0.365997 -2.50102 -4.5
    endloop
  endfacet
  facet normal 0.614198 -0.789152 0
    outer loop
      vertex 0.0233765 -2.19797 -4.5
      vertex 0.0233765 -2.19797 4.5
      vertex -0.365997 -2.50102 4.5
    endloop
  endfacet
  facet normal 0.73574 -0.677264 0
    outer loop
      vertex 0.205612 -2 -4.5
      vertex 0.0233765 -2.19797 4.5
      vertex 0.0233765 -2.19797 -4.5
    endloop
  endfacet
  facet normal 0.73574 -0.677264 0
    outer loop
      vertex 0.205612 -2 -4.5
      vertex 0.205612 -2 4.5
      vertex 0.0233765 -2.19797 4.5
    endloop
  endfacet
  facet normal 0 -1 0
    outer loop
      vertex 1.67513 -2 -4.5
      vertex 0.205612 -2 4.5
      vertex 0.205612 -2 -4.5
    endloop
  endfacet
  facet normal 0 -1 0
    outer loop
      vertex 1.67513 -2 -4.5
      vertex 1.67513 -2 4.5
      vertex 0.205612 -2 4.5
    endloop
  endfacet
  facet normal -0.829039 -0.559191 0
    outer loop
      vertex 5.45471 -7.60349 -4.5
      vertex 1.67513 -2 4.5
      vertex 1.67513 -2 -4.5
    endloop
  endfacet
  facet normal -0.829039 -0.559191 0
    outer loop
      vertex 5.45471 -7.60349 -4.5
      vertex 5.45471 -7.60349 4.5
      vertex 1.67513 -2 4.5
    endloop
  endfacet
  facet normal -0.576862 -0.816842 0
    outer loop
      vertex 5.84567 -7.87959 -4.5
      vertex 5.45471 -7.60349 4.5
      vertex 5.45471 -7.60349 -4.5
    endloop
  endfacet
  facet normal -0.576862 -0.816842 0
    outer loop
      vertex 5.84567 -7.87959 -4.5
      vertex 5.84567 -7.87959 4.5
      vertex 5.45471 -7.60349 4.5
    endloop
  endfacet
  facet normal -0.131182 -0.991358 0
    outer loop
      vertex 6.32018 -7.94238 -4.5
      vertex 5.84567 -7.87959 4.5
      vertex 5.84567 -7.87959 -4.5
    endloop
  endfacet
  facet normal -0.131182 -0.991358 0
    outer loop
      vertex 6.32018 -7.94238 -4.5
      vertex 6.32018 -7.94238 4.5
      vertex 5.84567 -7.87959 4.5
    endloop
  endfacet
  facet normal 0.34453 -0.938775 0
    outer loop
      vertex 6.7695 -7.77748 -4.5
      vertex 6.32018 -7.94238 4.5
      vertex 6.32018 -7.94238 -4.5
    endloop
  endfacet
  facet normal 0.34453 -0.938775 0
    outer loop
      vertex 6.7695 -7.77748 -4.5
      vertex 6.7695 -7.77748 4.5
      vertex 6.32018 -7.94238 4.5
    endloop
  endfacet
  facet normal 0.829037 0.559193 -0
    outer loop
      vertex -0.5 3 -4.5
      vertex -0.5 3 4.5
      vertex 6.21031 -6.94844 -4.5
    endloop
  endfacet
  facet normal 0.829037 0.559193 0
    outer loop
      vertex 6.21031 -6.94844 4.5
      vertex 6.21031 -6.94844 -4.5
      vertex -0.5 3 4.5
    endloop
  endfacet
  facet normal 0.559196 -0.829036 0
    outer loop
      vertex 16.0807 14.1839 -4.5
      vertex 16.0807 14.1839 4.5
      vertex -0.5 3 -4.5
    endloop
  endfacet
  facet normal 0.559196 -0.829036 0
    outer loop
      vertex -0.5 3 4.5
      vertex -0.5 3 -4.5
      vertex 16.0807 14.1839 4.5
    endloop
  endfacet
  facet normal -0.829036 -0.559196 0
    outer loop
      vertex 22.7911 4.2354 -4.5
      vertex 22.7911 4.2354 4.5
      vertex 16.0807 14.1839 -4.5
    endloop
  endfacet
  facet normal -0.829036 -0.559196 -0
    outer loop
      vertex 16.0807 14.1839 4.5
      vertex 16.0807 14.1839 -4.5
      vertex 22.7911 4.2354 4.5
    endloop
  endfacet
  facet normal -0.559191 0.829039 0
    outer loop
      vertex 6.21031 -6.94844 -4.5
      vertex 6.21031 -6.94844 4.5
      vertex 22.7911 4.2354 -4.5
    endloop
  endfacet
  facet normal -0.559191 0.829039 0
    outer loop
      vertex 22.7911 4.2354 4.5
      vertex 22.7911 4.2354 -4.5
      vertex 6.21031 -6.94844 4.5
    endloop
  endfacet
  facet normal -0.561136 -0.827723 0
    outer loop
      vertex 23.4485 1.70534 -4.5
      vertex 23.4485 1.70534 4.5
      vertex 23.048 1.97685 -4.5
    endloop
  endfacet
  facet normal -0.561136 -0.827723 -0
    outer loop
      vertex 23.048 1.97685 4.5
      vertex 23.048 1.97685 -4.5
      vertex 23.4485 1.70534 4.5
    endloop
  endfacet
  facet normal -0.726047 -0.687645 0
    outer loop
      vertex 23.7812 1.35406 -4.5
      vertex 23.7812 1.35406 4.5
      vertex 23.4485 1.70534 -4.5
    endloop
  endfacet
  facet normal -0.726047 -0.687645 -0
    outer loop
      vertex 23.4485 1.70534 4.5
      vertex 23.4485 1.70534 -4.5
      vertex 23.7812 1.35406 4.5
    endloop
  endfacet
  facet normal -0.856796 -0.515655 0
    outer loop
      vertex 24.0307 0.939499 -4.5
      vertex 24.0307 0.939499 4.5
      vertex 23.7812 1.35406 -4.5
    endloop
  endfacet
  facet normal -0.856796 -0.515655 -0
    outer loop
      vertex 23.7812 1.35406 4.5
      vertex 23.7812 1.35406 -4.5
      vertex 24.0307 0.939499 4.5
    endloop
  endfacet
  facet normal -0.947647 -0.319319 0
    outer loop
      vertex 24.1852 0.480988 -4.5
      vertex 24.1852 0.480988 4.5
      vertex 24.0307 0.939499 -4.5
    endloop
  endfacet
  facet normal -0.947647 -0.319319 -0
    outer loop
      vertex 24.0307 0.939499 4.5
      vertex 24.0307 0.939499 -4.5
      vertex 24.1852 0.480988 4.5
    endloop
  endfacet
  facet normal -0.99414 -0.108097 0
    outer loop
      vertex 24.2375 0 -4.5
      vertex 24.2375 0 4.5
      vertex 24.1852 0.480988 -4.5
    endloop
  endfacet
  facet normal -0.99414 -0.108097 -0
    outer loop
      vertex 24.1852 0.480988 4.5
      vertex 24.1852 0.480988 -4.5
      vertex 24.2375 0 4.5
    endloop
  endfacet
  facet normal -0.99414 0.108097 0
    outer loop
      vertex 24.1852 -0.480988 -4.5
      vertex 24.1852 -0.480988 4.5
      vertex 24.2375 0 -4.5
    endloop
  endfacet
  facet normal -0.99414 0.108097 0
    outer loop
      vertex 24.2375 0 4.5
      vertex 24.2375 0 -4.5
      vertex 24.1852 -0.480988 4.5
    endloop
  endfacet
  facet normal -0.947647 0.319319 0
    outer loop
      vertex 24.0307 -0.939499 -4.5
      vertex 24.0307 -0.939499 4.5
      vertex 24.1852 -0.480988 -4.5
    endloop
  endfacet
  facet normal -0.947647 0.319319 0
    outer loop
      vertex 24.1852 -0.480988 4.5
      vertex 24.1852 -0.480988 -4.5
      vertex 24.0307 -0.939499 4.5
    endloop
  endfacet
  facet normal -0.856796 0.515655 0
    outer loop
      vertex 23.7812 -1.35406 -4.5
      vertex 23.7812 -1.35406 4.5
      vertex 24.0307 -0.939499 -4.5
    endloop
  endfacet
  facet normal -0.856796 0.515655 0
    outer loop
      vertex 24.0307 -0.939499 4.5
      vertex 24.0307 -0.939499 -4.5
      vertex 23.7812 -1.35406 4.5
    endloop
  endfacet
  facet normal -0.726047 0.687645 0
    outer loop
      vertex 23.4485 -1.70534 -4.5
      vertex 23.4485 -1.70534 4.5
      vertex 23.7812 -1.35406 -4.5
    endloop
  endfacet
  facet normal -0.726047 0.687645 0
    outer loop
      vertex 23.7812 -1.35406 4.5
      vertex 23.7812 -1.35406 -4.5
      vertex 23.4485 -1.70534 4.5
    endloop
  endfacet
  facet normal -0.561136 0.827723 0
    outer loop
      vertex 23.048 -1.97685 -4.5
      vertex 23.048 -1.97685 4.5
      vertex 23.4485 -1.70534 -4.5
    endloop
  endfacet
  facet normal -0.561136 0.827723 0
    outer loop
      vertex 23.4485 -1.70534 4.5
      vertex 23.4485 -1.70534 -4.5
      vertex 23.048 -1.97685 4.5
    endloop
  endfacet
  facet normal -0.370179 0.928961 0
    outer loop
      vertex 22.5986 -2.15593 -4.5
      vertex 22.5986 -2.15593 4.5
      vertex 23.048 -1.97685 -4.5
    endloop
  endfacet
  facet normal -0.370179 0.928961 0
    outer loop
      vertex 23.048 -1.97685 4.5
      vertex 23.048 -1.97685 -4.5
      vertex 22.5986 -2.15593 4.5
    endloop
  endfacet
  facet normal -0.161778 0.986827 0
    outer loop
      vertex 22.1211 -2.23421 -4.5
      vertex 22.1211 -2.23421 4.5
      vertex 22.5986 -2.15593 -4.5
    endloop
  endfacet
  facet normal -0.161778 0.986827 0
    outer loop
      vertex 22.5986 -2.15593 4.5
      vertex 22.5986 -2.15593 -4.5
      vertex 22.1211 -2.23421 4.5
    endloop
  endfacet
  facet normal 0.0541329 0.998534 -0
    outer loop
      vertex 21.638 -2.20802 -4.5
      vertex 21.638 -2.20802 4.5
      vertex 22.1211 -2.23421 -4.5
    endloop
  endfacet
  facet normal 0.0541329 0.998534 0
    outer loop
      vertex 22.1211 -2.23421 4.5
      vertex 22.1211 -2.23421 -4.5
      vertex 21.638 -2.20802 4.5
    endloop
  endfacet
  facet normal 0.267529 0.96355 -0
    outer loop
      vertex 21.1718 -2.07858 -4.5
      vertex 21.1718 -2.07858 4.5
      vertex 21.638 -2.20802 -4.5
    endloop
  endfacet
  facet normal 0.267529 0.96355 0
    outer loop
      vertex 21.638 -2.20802 4.5
      vertex 21.638 -2.20802 -4.5
      vertex 21.1718 -2.07858 4.5
    endloop
  endfacet
  facet normal 0.468399 0.883517 -0
    outer loop
      vertex 20.7443 -1.85194 -4.5
      vertex 20.7443 -1.85194 4.5
      vertex 21.1718 -2.07858 -4.5
    endloop
  endfacet
  facet normal 0.468399 0.883517 0
    outer loop
      vertex 21.1718 -2.07858 4.5
      vertex 21.1718 -2.07858 -4.5
      vertex 20.7443 -1.85194 4.5
    endloop
  endfacet
  facet normal 0.647426 0.762128 -0
    outer loop
      vertex 20.3756 -1.53873 -4.5
      vertex 20.3756 -1.53873 4.5
      vertex 20.7443 -1.85194 -4.5
    endloop
  endfacet
  facet normal 0.647426 0.762128 0
    outer loop
      vertex 20.7443 -1.85194 4.5
      vertex 20.7443 -1.85194 -4.5
      vertex 20.3756 -1.53873 4.5
    endloop
  endfacet
  facet normal 0.796099 0.605166 -0
    outer loop
      vertex 20.0828 -1.15355 -4.5
      vertex 20.0828 -1.15355 4.5
      vertex 20.3756 -1.53873 -4.5
    endloop
  endfacet
  facet normal 0.796099 0.605166 0
    outer loop
      vertex 20.3756 -1.53873 4.5
      vertex 20.3756 -1.53873 -4.5
      vertex 20.0828 -1.15355 4.5
    endloop
  endfacet
  facet normal 0.907542 0.419961 -0
    outer loop
      vertex 19.8796 -0.714432 -4.5
      vertex 19.8796 -0.714432 4.5
      vertex 20.0828 -1.15355 -4.5
    endloop
  endfacet
  facet normal 0.907542 0.419961 0
    outer loop
      vertex 20.0828 -1.15355 4.5
      vertex 20.0828 -1.15355 -4.5
      vertex 19.8796 -0.714432 4.5
    endloop
  endfacet
  facet normal 0.976625 0.214952 -0
    outer loop
      vertex 19.7756 -0.241913 -4.5
      vertex 19.7756 -0.241913 4.5
      vertex 19.8796 -0.714432 -4.5
    endloop
  endfacet
  facet normal 0.976625 0.214952 0
    outer loop
      vertex 19.8796 -0.714432 4.5
      vertex 19.8796 -0.714432 -4.5
      vertex 19.7756 -0.241913 4.5
    endloop
  endfacet
  facet normal 1 0 -0
    outer loop
      vertex 19.7756 0.241913 -4.5
      vertex 19.7756 0.241913 4.5
      vertex 19.7756 -0.241913 -4.5
    endloop
  endfacet
  facet normal 1 -0 0
    outer loop
      vertex 19.7756 -0.241913 4.5
      vertex 19.7756 -0.241913 -4.5
      vertex 19.7756 0.241913 4.5
    endloop
  endfacet
  facet normal 0.976625 -0.214952 0
    outer loop
      vertex 19.8796 0.714432 -4.5
      vertex 19.8796 0.714432 4.5
      vertex 19.7756 0.241913 -4.5
    endloop
  endfacet
  facet normal 0.976625 -0.214952 0
    outer loop
      vertex 19.7756 0.241913 4.5
      vertex 19.7756 0.241913 -4.5
      vertex 19.8796 0.714432 4.5
    endloop
  endfacet
  facet normal 0.907542 -0.419961 0
    outer loop
      vertex 20.0828 1.15355 -4.5
      vertex 20.0828 1.15355 4.5
      vertex 19.8796 0.714432 -4.5
    endloop
  endfacet
  facet normal 0.907542 -0.419961 0
    outer loop
      vertex 19.8796 0.714432 4.5
      vertex 19.8796 0.714432 -4.5
      vertex 20.0828 1.15355 4.5
    endloop
  endfacet
  facet normal 0.796099 -0.605166 0
    outer loop
      vertex 20.3756 1.53873 -4.5
      vertex 20.3756 1.53873 4.5
      vertex 20.0828 1.15355 -4.5
    endloop
  endfacet
  facet normal 0.796099 -0.605166 0
    outer loop
      vertex 20.0828 1.15355 4.5
      vertex 20.0828 1.15355 -4.5
      vertex 20.3756 1.53873 4.5
    endloop
  endfacet
  facet normal 0.647426 -0.762128 0
    outer loop
      vertex 20.7443 1.85194 -4.5
      vertex 20.7443 1.85194 4.5
      vertex 20.3756 1.53873 -4.5
    endloop
  endfacet
  facet normal 0.647426 -0.762128 0
    outer loop
      vertex 20.3756 1.53873 4.5
      vertex 20.3756 1.53873 -4.5
      vertex 20.7443 1.85194 4.5
    endloop
  endfacet
  facet normal 0.468399 -0.883517 0
    outer loop
      vertex 21.1718 2.07858 -4.5
      vertex 21.1718 2.07858 4.5
      vertex 20.7443 1.85194 -4.5
    endloop
  endfacet
  facet normal 0.468399 -0.883517 0
    outer loop
      vertex 20.7443 1.85194 4.5
      vertex 20.7443 1.85194 -4.5
      vertex 21.1718 2.07858 4.5
    endloop
  endfacet
  facet normal 0.267529 -0.96355 0
    outer loop
      vertex 21.638 2.20802 -4.5
      vertex 21.638 2.20802 4.5
      vertex 21.1718 2.07858 -4.5
    endloop
  endfacet
  facet normal 0.267529 -0.96355 0
    outer loop
      vertex 21.1718 2.07858 4.5
      vertex 21.1718 2.07858 -4.5
      vertex 21.638 2.20802 4.5
    endloop
  endfacet
  facet normal 0.0541329 -0.998534 0
    outer loop
      vertex 22.1211 2.23421 -4.5
      vertex 22.1211 2.23421 4.5
      vertex 21.638 2.20802 -4.5
    endloop
  endfacet
  facet normal 0.0541329 -0.998534 0
    outer loop
      vertex 21.638 2.20802 4.5
      vertex 21.638 2.20802 -4.5
      vertex 22.1211 2.23421 4.5
    endloop
  endfacet
  facet normal -0.161778 -0.986827 0
    outer loop
      vertex 22.5986 2.15593 -4.5
      vertex 22.5986 2.15593 4.5
      vertex 22.1211 2.23421 -4.5
    endloop
  endfacet
  facet normal -0.161778 -0.986827 -0
    outer loop
      vertex 22.1211 2.23421 4.5
      vertex 22.1211 2.23421 -4.5
      vertex 22.5986 2.15593 4.5
    endloop
  endfacet
  facet normal -0.370179 -0.928961 0
    outer loop
      vertex 23.048 1.97685 -4.5
      vertex 23.048 1.97685 4.5
      vertex 22.5986 2.15593 -4.5
    endloop
  endfacet
  facet normal -0.370179 -0.928961 -0
    outer loop
      vertex 22.5986 2.15593 4.5
      vertex 22.5986 2.15593 -4.5
      vertex 23.048 1.97685 4.5
    endloop
  endfacet
  facet normal 0.468416 0.883508 -0
    outer loop
      vertex -3.25565 -1.85194 -4.5
      vertex -3.25565 -1.85194 4.5
      vertex -2.82817 -2.07858 -4.5
    endloop
  endfacet
  facet normal 0.468416 0.883508 0
    outer loop
      vertex -2.82817 -2.07858 4.5
      vertex -2.82817 -2.07858 -4.5
      vertex -3.25565 -1.85194 4.5
    endloop
  endfacet
  facet normal 0.647375 0.762171 -0
    outer loop
      vertex -3.6244 -1.53873 -4.5
      vertex -3.6244 -1.53873 4.5
      vertex -3.25565 -1.85194 -4.5
    endloop
  endfacet
  facet normal 0.647375 0.762171 0
    outer loop
      vertex -3.25565 -1.85194 4.5
      vertex -3.25565 -1.85194 -4.5
      vertex -3.6244 -1.53873 4.5
    endloop
  endfacet
  facet normal 0.796089 0.605179 -0
    outer loop
      vertex -3.91721 -1.15355 -4.5
      vertex -3.91721 -1.15355 4.5
      vertex -3.6244 -1.53873 -4.5
    endloop
  endfacet
  facet normal 0.796089 0.605179 0
    outer loop
      vertex -3.6244 -1.53873 4.5
      vertex -3.6244 -1.53873 -4.5
      vertex -3.91721 -1.15355 4.5
    endloop
  endfacet
  facet normal 0.907581 0.419876 -0
    outer loop
      vertex -4.12036 -0.714432 -4.5
      vertex -4.12036 -0.714432 4.5
      vertex -3.91721 -1.15355 -4.5
    endloop
  endfacet
  facet normal 0.907581 0.419876 0
    outer loop
      vertex -3.91721 -1.15355 4.5
      vertex -3.91721 -1.15355 -4.5
      vertex -4.12036 -0.714432 4.5
    endloop
  endfacet
  facet normal 0.976616 0.214992 -0
    outer loop
      vertex -4.22438 -0.241913 -4.5
      vertex -4.22438 -0.241913 4.5
      vertex -4.12036 -0.714432 -4.5
    endloop
  endfacet
  facet normal 0.976616 0.214992 0
    outer loop
      vertex -4.12036 -0.714432 4.5
      vertex -4.12036 -0.714432 -4.5
      vertex -4.22438 -0.241913 4.5
    endloop
  endfacet
  facet normal 1 0 -0
    outer loop
      vertex -4.22438 0.241913 -4.5
      vertex -4.22438 0.241913 4.5
      vertex -4.22438 -0.241913 -4.5
    endloop
  endfacet
  facet normal 1 -0 0
    outer loop
      vertex -4.22438 -0.241913 4.5
      vertex -4.22438 -0.241913 -4.5
      vertex -4.22438 0.241913 4.5
    endloop
  endfacet
  facet normal 0.976616 -0.214992 0
    outer loop
      vertex -4.12036 0.714432 -4.5
      vertex -4.12036 0.714432 4.5
      vertex -4.22438 0.241913 -4.5
    endloop
  endfacet
  facet normal 0.976616 -0.214992 0
    outer loop
      vertex -4.22438 0.241913 4.5
      vertex -4.22438 0.241913 -4.5
      vertex -4.12036 0.714432 4.5
    endloop
  endfacet
  facet normal 0.907581 -0.419876 0
    outer loop
      vertex -3.91721 1.15355 -4.5
      vertex -3.91721 1.15355 4.5
      vertex -4.12036 0.714432 -4.5
    endloop
  endfacet
  facet normal 0.907581 -0.419876 0
    outer loop
      vertex -4.12036 0.714432 4.5
      vertex -4.12036 0.714432 -4.5
      vertex -3.91721 1.15355 4.5
    endloop
  endfacet
  facet normal 0.796089 -0.605179 0
    outer loop
      vertex -3.6244 1.53873 -4.5
      vertex -3.6244 1.53873 4.5
      vertex -3.91721 1.15355 -4.5
    endloop
  endfacet
  facet normal 0.796089 -0.605179 0
    outer loop
      vertex -3.91721 1.15355 4.5
      vertex -3.91721 1.15355 -4.5
      vertex -3.6244 1.53873 4.5
    endloop
  endfacet
  facet normal 0.647375 -0.762171 0
    outer loop
      vertex -3.25565 1.85194 -4.5
      vertex -3.25565 1.85194 4.5
      vertex -3.6244 1.53873 -4.5
    endloop
  endfacet
  facet normal 0.647375 -0.762171 0
    outer loop
      vertex -3.6244 1.53873 4.5
      vertex -3.6244 1.53873 -4.5
      vertex -3.25565 1.85194 4.5
    endloop
  endfacet
  facet normal 0.468416 -0.883508 0
    outer loop
      vertex -2.82817 2.07858 -4.5
      vertex -2.82817 2.07858 4.5
      vertex -3.25565 1.85194 -4.5
    endloop
  endfacet
  facet normal 0.468416 -0.883508 0
    outer loop
      vertex -3.25565 1.85194 4.5
      vertex -3.25565 1.85194 -4.5
      vertex -2.82817 2.07858 4.5
    endloop
  endfacet
  facet normal 0.267534 -0.963548 0
    outer loop
      vertex -2.36198 2.20802 -4.5
      vertex -2.36198 2.20802 4.5
      vertex -2.82817 2.07858 -4.5
    endloop
  endfacet
  facet normal 0.267534 -0.963548 0
    outer loop
      vertex -2.82817 2.07858 4.5
      vertex -2.82817 2.07858 -4.5
      vertex -2.36198 2.20802 4.5
    endloop
  endfacet
  facet normal 0.0541307 -0.998534 0
    outer loop
      vertex -1.87886 2.23421 -4.5
      vertex -1.87886 2.23421 4.5
      vertex -2.36198 2.20802 -4.5
    endloop
  endfacet
  facet normal 0.0541307 -0.998534 0
    outer loop
      vertex -2.36198 2.20802 4.5
      vertex -2.36198 2.20802 -4.5
      vertex -1.87886 2.23421 4.5
    endloop
  endfacet
  facet normal -0.161791 -0.986825 0
    outer loop
      vertex -1.4014 2.15593 -4.5
      vertex -1.4014 2.15593 4.5
      vertex -1.87886 2.23421 -4.5
    endloop
  endfacet
  facet normal -0.161791 -0.986825 -0
    outer loop
      vertex -1.87886 2.23421 4.5
      vertex -1.87886 2.23421 -4.5
      vertex -1.4014 2.15593 4.5
    endloop
  endfacet
  facet normal -0.370132 -0.928979 0
    outer loop
      vertex -0.951935 1.97685 -4.5
      vertex -0.951935 1.97685 4.5
      vertex -1.4014 2.15593 -4.5
    endloop
  endfacet
  facet normal -0.370132 -0.928979 -0
    outer loop
      vertex -1.4014 2.15593 4.5
      vertex -1.4014 2.15593 -4.5
      vertex -0.951935 1.97685 4.5
    endloop
  endfacet
  facet normal -0.561168 -0.827702 0
    outer loop
      vertex -0.551468 1.70534 -4.5
      vertex -0.551468 1.70534 4.5
      vertex -0.951935 1.97685 -4.5
    endloop
  endfacet
  facet normal -0.561168 -0.827702 -0
    outer loop
      vertex -0.951935 1.97685 4.5
      vertex -0.951935 1.97685 -4.5
      vertex -0.551468 1.70534 4.5
    endloop
  endfacet
  facet normal -0.726013 -0.687681 0
    outer loop
      vertex -0.218735 1.35406 -4.5
      vertex -0.218735 1.35406 4.5
      vertex -0.551468 1.70534 -4.5
    endloop
  endfacet
  facet normal -0.726013 -0.687681 -0
    outer loop
      vertex -0.551468 1.70534 4.5
      vertex -0.551468 1.70534 -4.5
      vertex -0.218735 1.35406 4.5
    endloop
  endfacet
  facet normal -0.856869 -0.515535 0
    outer loop
      vertex 0.0306854 0.939499 -4.5
      vertex 0.0306854 0.939499 4.5
      vertex -0.218735 1.35406 -4.5
    endloop
  endfacet
  facet normal -0.856869 -0.515535 -0
    outer loop
      vertex -0.218735 1.35406 4.5
      vertex -0.218735 1.35406 -4.5
      vertex 0.0306854 0.939499 4.5
    endloop
  endfacet
  facet normal -0.94765 -0.319311 0
    outer loop
      vertex 0.185181 0.480988 -4.5
      vertex 0.185181 0.480988 4.5
      vertex 0.0306854 0.939499 -4.5
    endloop
  endfacet
  facet normal -0.94765 -0.319311 -0
    outer loop
      vertex 0.0306854 0.939499 4.5
      vertex 0.0306854 0.939499 -4.5
      vertex 0.185181 0.480988 4.5
    endloop
  endfacet
  facet normal -0.994139 -0.108112 0
    outer loop
      vertex 0.237488 0 -4.5
      vertex 0.237488 0 4.5
      vertex 0.185181 0.480988 -4.5
    endloop
  endfacet
  facet normal -0.994139 -0.108112 -0
    outer loop
      vertex 0.185181 0.480988 4.5
      vertex 0.185181 0.480988 -4.5
      vertex 0.237488 0 4.5
    endloop
  endfacet
  facet normal -0.994139 0.108112 0
    outer loop
      vertex 0.185181 -0.480988 -4.5
      vertex 0.185181 -0.480988 4.5
      vertex 0.237488 0 -4.5
    endloop
  endfacet
  facet normal -0.994139 0.108112 0
    outer loop
      vertex 0.237488 0 4.5
      vertex 0.237488 0 -4.5
      vertex 0.185181 -0.480988 4.5
    endloop
  endfacet
  facet normal -0.94765 0.319311 0
    outer loop
      vertex 0.0306854 -0.939499 -4.5
      vertex 0.0306854 -0.939499 4.5
      vertex 0.185181 -0.480988 -4.5
    endloop
  endfacet
  facet normal -0.94765 0.319311 0
    outer loop
      vertex 0.185181 -0.480988 4.5
      vertex 0.185181 -0.480988 -4.5
      vertex 0.0306854 -0.939499 4.5
    endloop
  endfacet
  facet normal -0.856869 0.515535 0
    outer loop
      vertex -0.218735 -1.35406 -4.5
      vertex -0.218735 -1.35406 4.5
      vertex 0.0306854 -0.939499 -4.5
    endloop
  endfacet
  facet normal -0.856869 0.515535 0
    outer loop
      vertex 0.0306854 -0.939499 4.5
      vertex 0.0306854 -0.939499 -4.5
      vertex -0.218735 -1.35406 4.5
    endloop
  endfacet
  facet normal -0.726013 0.687681 0
    outer loop
      vertex -0.551468 -1.70534 -4.5
      vertex -0.551468 -1.70534 4.5
      vertex -0.218735 -1.35406 -4.5
    endloop
  endfacet
  facet normal -0.726013 0.687681 0
    outer loop
      vertex -0.218735 -1.35406 4.5
      vertex -0.218735 -1.35406 -4.5
      vertex -0.551468 -1.70534 4.5
    endloop
  endfacet
  facet normal -0.561168 0.827702 0
    outer loop
      vertex -0.951935 -1.97685 -4.5
      vertex -0.951935 -1.97685 4.5
      vertex -0.551468 -1.70534 -4.5
    endloop
  endfacet
  facet normal -0.561168 0.827702 0
    outer loop
      vertex -0.551468 -1.70534 4.5
      vertex -0.551468 -1.70534 -4.5
      vertex -0.951935 -1.97685 4.5
    endloop
  endfacet
  facet normal -0.370132 0.928979 0
    outer loop
      vertex -1.4014 -2.15593 -4.5
      vertex -1.4014 -2.15593 4.5
      vertex -0.951935 -1.97685 -4.5
    endloop
  endfacet
  facet normal -0.370132 0.928979 0
    outer loop
      vertex -0.951935 -1.97685 4.5
      vertex -0.951935 -1.97685 -4.5
      vertex -1.4014 -2.15593 4.5
    endloop
  endfacet
  facet normal -0.161784 0.986826 0
    outer loop
      vertex -1.87888 -2.23421 -4.5
      vertex -1.87888 -2.23421 4.5
      vertex -1.4014 -2.15593 -4.5
    endloop
  endfacet
  facet normal -0.161784 0.986826 0
    outer loop
      vertex -1.4014 -2.15593 4.5
      vertex -1.4014 -2.15593 -4.5
      vertex -1.87888 -2.23421 4.5
    endloop
  endfacet
  facet normal 0.0541329 0.998534 -0
    outer loop
      vertex -2.36198 -2.20802 -4.5
      vertex -2.36198 -2.20802 4.5
      vertex -1.87888 -2.23421 -4.5
    endloop
  endfacet
  facet normal 0.0541329 0.998534 0
    outer loop
      vertex -1.87888 -2.23421 4.5
      vertex -1.87888 -2.23421 -4.5
      vertex -2.36198 -2.20802 4.5
    endloop
  endfacet
  facet normal 0.267534 0.963548 -0
    outer loop
      vertex -2.82817 -2.07858 -4.5
      vertex -2.82817 -2.07858 4.5
      vertex -2.36198 -2.20802 -4.5
    endloop
  endfacet
  facet normal 0.267534 0.963548 0
    outer loop
      vertex -2.36198 -2.20802 4.5
      vertex -2.36198 -2.20802 -4.5
      vertex -2.82817 -2.07858 4.5
    endloop
  endfacet
endsolid OpenSCAD_Model
