solid OpenSCAD_Model
  facet normal -1 0 0
    outer loop
      vertex -11.25 -10.5 -0.875
      vertex -11.25 -4.5 0.875
      vertex -11.25 -4.5 -0.875
    endloop
  endfacet
  facet normal -1 -0 0
    outer loop
      vertex -11.25 -4.5 0.875
      vertex -11.25 -10.5 -0.875
      vertex -11.25 -10.5 0.875
    endloop
  endfacet
  facet normal 0 -1 0
    outer loop
      vertex -7.5 -14.5 -0.875
      vertex 7.5 -14.5 0.875
      vertex -7.5 -14.5 0.875
    endloop
  endfacet
  facet normal 0 -1 -0
    outer loop
      vertex 7.5 -14.5 0.875
      vertex -7.5 -14.5 -0.875
      vertex 7.5 -14.5 -0.875
    endloop
  endfacet
  facet normal 0.729537 -0.683941 0
    outer loop
      vertex 7.5 -14.5 0.875
      vertex 11.25 -10.5 -0.875
      vertex 11.25 -10.5 0.875
    endloop
  endfacet
  facet normal 0.729537 -0.683941 0
    outer loop
      vertex 11.25 -10.5 -0.875
      vertex 7.5 -14.5 0.875
      vertex 7.5 -14.5 -0.875
    endloop
  endfacet
  facet normal 1 -0 0
    outer loop
      vertex 11.25 -10.5 0.875
      vertex 11.25 -4.5 -0.875
      vertex 11.25 -4.5 0.875
    endloop
  endfacet
  facet normal 1 0 0
    outer loop
      vertex 11.25 -4.5 -0.875
      vertex 11.25 -10.5 0.875
      vertex 11.25 -10.5 -0.875
    endloop
  endfacet
  facet normal -0.729537 -0.683941 0
    outer loop
      vertex -7.5 -14.5 -0.875
      vertex -11.25 -10.5 0.875
      vertex -11.25 -10.5 -0.875
    endloop
  endfacet
  facet normal -0.729537 -0.683941 0
    outer loop
      vertex -11.25 -10.5 0.875
      vertex -7.5 -14.5 -0.875
      vertex -7.5 -14.5 0.875
    endloop
  endfacet
  facet normal -0 0 1
    outer loop
      vertex -3.75 15.25 0.875
      vertex 3.75 6.75 0.875
      vertex 3.75 15.25 0.875
    endloop
  endfacet
  facet normal 0 0 1
    outer loop
      vertex 3.75 6.75 0.875
      vertex -3.75 15.25 0.875
      vertex -3.75 6.75 0.875
    endloop
  endfacet
  facet normal -0 0 1
    outer loop
      vertex -3.75 25.25 0.875
      vertex 3.75 16.75 0.875
      vertex 3.75 25.25 0.875
    endloop
  endfacet
  facet normal 0 0 1
    outer loop
      vertex 3.75 16.75 0.875
      vertex -3.75 25.25 0.875
      vertex -3.75 16.75 0.875
    endloop
  endfacet
  facet normal 0 0 1
    outer loop
      vertex 4.16875 122.988 0.875
      vertex -3.75 26.75 0.875
      vertex 3.75 26.75 0.875
    endloop
  endfacet
  facet normal 0 0 1
    outer loop
      vertex -7.5 0.5 0.875
      vertex -3.75 25.25 0.875
      vertex -3.75 26.75 0.875
    endloop
  endfacet
  facet normal 0 0 1
    outer loop
      vertex -3.75 25.25 0.875
      vertex -7.5 0.5 0.875
      vertex -3.75 16.75 0.875
    endloop
  endfacet
  facet normal 0 0 1
    outer loop
      vertex -3.75 16.75 0.875
      vertex -7.5 0.5 0.875
      vertex -3.75 15.25 0.875
    endloop
  endfacet
  facet normal 0 0 1
    outer loop
      vertex -3.75 15.25 0.875
      vertex -7.5 0.5 0.875
      vertex -3.75 6.75 0.875
    endloop
  endfacet
  facet normal 0 0 1
    outer loop
      vertex -7.5 0.5 0.875
      vertex -3.75 26.75 0.875
      vertex -4.16875 122.988 0.875
    endloop
  endfacet
  facet normal -0 0 1
    outer loop
      vertex -4.16875 122.988 0.875
      vertex -3.75 26.75 0.875
      vertex 4.16875 122.988 0.875
    endloop
  endfacet
  facet normal -0 0 1
    outer loop
      vertex -4.16875 132.988 0.875
      vertex 4.16875 125.012 0.875
      vertex 4.16875 132.988 0.875
    endloop
  endfacet
  facet normal 0 0 1
    outer loop
      vertex 4.16875 125.012 0.875
      vertex -4.16875 132.988 0.875
      vertex -4.16875 125.012 0.875
    endloop
  endfacet
  facet normal -0 0 1
    outer loop
      vertex -4.16875 142.988 0.875
      vertex 4.16875 135.012 0.875
      vertex 4.16875 142.988 0.875
    endloop
  endfacet
  facet normal 0 0 1
    outer loop
      vertex 4.16875 135.012 0.875
      vertex -4.16875 142.988 0.875
      vertex -4.16875 135.012 0.875
    endloop
  endfacet
  facet normal -0 0 1
    outer loop
      vertex -4.16875 152.988 0.875
      vertex 4.16875 145.012 0.875
      vertex 4.16875 152.988 0.875
    endloop
  endfacet
  facet normal 0 0 1
    outer loop
      vertex 4.16875 145.012 0.875
      vertex -4.16875 152.988 0.875
      vertex -4.16875 145.012 0.875
    endloop
  endfacet
  facet normal -0 0 1
    outer loop
      vertex -4.16875 162.988 0.875
      vertex 4.16875 155.012 0.875
      vertex 4.16875 162.988 0.875
    endloop
  endfacet
  facet normal 0 0 1
    outer loop
      vertex 4.16875 155.012 0.875
      vertex -4.16875 162.988 0.875
      vertex -4.16875 155.012 0.875
    endloop
  endfacet
  facet normal -0 0 1
    outer loop
      vertex -4.16875 172.988 0.875
      vertex 4.16875 165.012 0.875
      vertex 4.16875 172.988 0.875
    endloop
  endfacet
  facet normal 0 0 1
    outer loop
      vertex 4.16875 165.012 0.875
      vertex -4.16875 172.988 0.875
      vertex -4.16875 165.012 0.875
    endloop
  endfacet
  facet normal -0 0 1
    outer loop
      vertex -4.16875 182.988 0.875
      vertex 4.16875 175.012 0.875
      vertex 4.16875 182.988 0.875
    endloop
  endfacet
  facet normal 0 0 1
    outer loop
      vertex 4.16875 175.012 0.875
      vertex -4.16875 182.988 0.875
      vertex -4.16875 175.012 0.875
    endloop
  endfacet
  facet normal 0 0 1
    outer loop
      vertex 4.16875 182.988 0.875
      vertex 7.5 190.5 0.875
      vertex 4.16875 185.012 0.875
    endloop
  endfacet
  facet normal 0 0 1
    outer loop
      vertex 1.18371 197.921 0.875
      vertex 4.16875 185.012 0.875
      vertex 7.5 190.5 0.875
    endloop
  endfacet
  facet normal -0 0 1
    outer loop
      vertex -1.01592 198.104 0.875
      vertex 1.18371 197.921 0.875
      vertex 0.820422 198.256 0.875
    endloop
  endfacet
  facet normal 0 0 1
    outer loop
      vertex -1.01592 198.104 0.875
      vertex 0.820422 198.256 0.875
      vertex 0.368228 198.454 0.875
    endloop
  endfacet
  facet normal 0 0 1
    outer loop
      vertex -1.01592 198.104 0.875
      vertex 0.368228 198.454 0.875
      vertex -0.123869 198.495 0.875
    endloop
  endfacet
  facet normal 0 0 1
    outer loop
      vertex -1.01592 198.104 0.875
      vertex -0.123869 198.495 0.875
      vertex -0.602543 198.374 0.875
    endloop
  endfacet
  facet normal 0 0 1
    outer loop
      vertex -4.16875 185.012 0.875
      vertex 1.18371 197.921 0.875
      vertex -1.01592 198.104 0.875
    endloop
  endfacet
  facet normal 0 0 1
    outer loop
      vertex 1.18371 197.921 0.875
      vertex -4.16875 185.012 0.875
      vertex 4.16875 185.012 0.875
    endloop
  endfacet
  facet normal 0 0 1
    outer loop
      vertex -7.5 190.5 0.875
      vertex -4.16875 182.988 0.875
      vertex -4.16875 185.012 0.875
    endloop
  endfacet
  facet normal 0 0 1
    outer loop
      vertex -4.16875 182.988 0.875
      vertex -7.5 190.5 0.875
      vertex -4.16875 175.012 0.875
    endloop
  endfacet
  facet normal 0 0 1
    outer loop
      vertex -4.16875 175.012 0.875
      vertex -7.5 190.5 0.875
      vertex -4.16875 172.988 0.875
    endloop
  endfacet
  facet normal 0 0 1
    outer loop
      vertex -4.16875 172.988 0.875
      vertex -7.5 190.5 0.875
      vertex -4.16875 165.012 0.875
    endloop
  endfacet
  facet normal 0 0 1
    outer loop
      vertex -4.16875 165.012 0.875
      vertex -7.5 190.5 0.875
      vertex -4.16875 162.988 0.875
    endloop
  endfacet
  facet normal 0 0 1
    outer loop
      vertex -4.16875 162.988 0.875
      vertex -7.5 190.5 0.875
      vertex -4.16875 155.012 0.875
    endloop
  endfacet
  facet normal 0 0 1
    outer loop
      vertex -4.16875 155.012 0.875
      vertex -7.5 190.5 0.875
      vertex -4.16875 152.988 0.875
    endloop
  endfacet
  facet normal 0 0 1
    outer loop
      vertex -4.16875 152.988 0.875
      vertex -7.5 190.5 0.875
      vertex -4.16875 145.012 0.875
    endloop
  endfacet
  facet normal 0 0 1
    outer loop
      vertex -4.16875 145.012 0.875
      vertex -7.5 190.5 0.875
      vertex -4.16875 142.988 0.875
    endloop
  endfacet
  facet normal 0 0 1
    outer loop
      vertex -4.16875 142.988 0.875
      vertex -7.5 190.5 0.875
      vertex -4.16875 135.012 0.875
    endloop
  endfacet
  facet normal 0 0 1
    outer loop
      vertex -4.16875 135.012 0.875
      vertex -7.5 190.5 0.875
      vertex -4.16875 132.988 0.875
    endloop
  endfacet
  facet normal 0 0 1
    outer loop
      vertex -4.16875 132.988 0.875
      vertex -7.5 190.5 0.875
      vertex -4.16875 125.012 0.875
    endloop
  endfacet
  facet normal 0 0 1
    outer loop
      vertex -4.16875 125.012 0.875
      vertex -7.5 190.5 0.875
      vertex -4.16875 122.988 0.875
    endloop
  endfacet
  facet normal -0 0 1
    outer loop
      vertex -7.5 190.5 0.875
      vertex -4.16875 185.012 0.875
      vertex -1.01592 198.104 0.875
    endloop
  endfacet
  facet normal 0 0 1
    outer loop
      vertex 7.7625 -9.59987 0.875
      vertex 11.25 -4.5 0.875
      vertex 7.7625 -4.65013 0.875
    endloop
  endfacet
  facet normal 0 0 1
    outer loop
      vertex 7.5 0.5 0.875
      vertex 7.7625 -4.65013 0.875
      vertex 11.25 -4.5 0.875
    endloop
  endfacet
  facet normal 0 0 1
    outer loop
      vertex 4.16875 175.012 0.875
      vertex 7.5 190.5 0.875
      vertex 4.16875 182.988 0.875
    endloop
  endfacet
  facet normal 0 0 1
    outer loop
      vertex 4.16875 172.988 0.875
      vertex 7.5 190.5 0.875
      vertex 4.16875 175.012 0.875
    endloop
  endfacet
  facet normal 0 0 1
    outer loop
      vertex 4.16875 165.012 0.875
      vertex 7.5 190.5 0.875
      vertex 4.16875 172.988 0.875
    endloop
  endfacet
  facet normal 0 0 1
    outer loop
      vertex 4.16875 162.988 0.875
      vertex 7.5 190.5 0.875
      vertex 4.16875 165.012 0.875
    endloop
  endfacet
  facet normal 0 0 1
    outer loop
      vertex 4.16875 155.012 0.875
      vertex 7.5 190.5 0.875
      vertex 4.16875 162.988 0.875
    endloop
  endfacet
  facet normal 0 0 1
    outer loop
      vertex 4.16875 152.988 0.875
      vertex 7.5 190.5 0.875
      vertex 4.16875 155.012 0.875
    endloop
  endfacet
  facet normal 0 0 1
    outer loop
      vertex 4.16875 145.012 0.875
      vertex 7.5 190.5 0.875
      vertex 4.16875 152.988 0.875
    endloop
  endfacet
  facet normal 0 0 1
    outer loop
      vertex 4.16875 142.988 0.875
      vertex 7.5 190.5 0.875
      vertex 4.16875 145.012 0.875
    endloop
  endfacet
  facet normal 0 0 1
    outer loop
      vertex 4.16875 135.012 0.875
      vertex 7.5 190.5 0.875
      vertex 4.16875 142.988 0.875
    endloop
  endfacet
  facet normal 0 0 1
    outer loop
      vertex 4.16875 132.988 0.875
      vertex 7.5 190.5 0.875
      vertex 4.16875 135.012 0.875
    endloop
  endfacet
  facet normal 0 0 1
    outer loop
      vertex 4.16875 125.012 0.875
      vertex 7.5 190.5 0.875
      vertex 4.16875 132.988 0.875
    endloop
  endfacet
  facet normal 0 0 1
    outer loop
      vertex 4.16875 122.988 0.875
      vertex 7.5 190.5 0.875
      vertex 4.16875 125.012 0.875
    endloop
  endfacet
  facet normal 0 0 1
    outer loop
      vertex 7.5 190.5 0.875
      vertex 4.16875 122.988 0.875
      vertex 7.5 0.5 0.875
    endloop
  endfacet
  facet normal -0 0 1
    outer loop
      vertex 3.75 26.75 0.875
      vertex 7.5 0.5 0.875
      vertex 4.16875 122.988 0.875
    endloop
  endfacet
  facet normal -0 0 1
    outer loop
      vertex 3.75 25.25 0.875
      vertex 7.5 0.5 0.875
      vertex 3.75 26.75 0.875
    endloop
  endfacet
  facet normal -0 0 1
    outer loop
      vertex 3.75 16.75 0.875
      vertex 7.5 0.5 0.875
      vertex 3.75 25.25 0.875
    endloop
  endfacet
  facet normal -0 0 1
    outer loop
      vertex 3.75 15.25 0.875
      vertex 7.5 0.5 0.875
      vertex 3.75 16.75 0.875
    endloop
  endfacet
  facet normal -0 0 1
    outer loop
      vertex 3.75 6.75 0.875
      vertex 7.5 0.5 0.875
      vertex 3.75 15.25 0.875
    endloop
  endfacet
  facet normal -0 0 1
    outer loop
      vertex 3.75 5.25 0.875
      vertex 7.5 0.5 0.875
      vertex 3.75 6.75 0.875
    endloop
  endfacet
  facet normal 0 0 1
    outer loop
      vertex -7.5 0.5 0.875
      vertex 7.5 0.5 0.875
      vertex 3.75 5.25 0.875
    endloop
  endfacet
  facet normal 0 0 1
    outer loop
      vertex -7.5 0.5 0.875
      vertex 3.75 5.25 0.875
      vertex -3.75 5.25 0.875
    endloop
  endfacet
  facet normal 0 0 1
    outer loop
      vertex -7.5 0.5 0.875
      vertex -4.16875 122.988 0.875
      vertex -7.5 190.5 0.875
    endloop
  endfacet
  facet normal 0 0 1
    outer loop
      vertex -3.75 6.75 0.875
      vertex -7.5 0.5 0.875
      vertex -3.75 5.25 0.875
    endloop
  endfacet
  facet normal 0 0 1
    outer loop
      vertex 7.5 0.5 0.875
      vertex -7.5 0.5 0.875
      vertex 7.7625 -4.65013 0.875
    endloop
  endfacet
  facet normal 0 0 1
    outer loop
      vertex -7.5 0.5 0.875
      vertex -7.7625 -4.65013 0.875
      vertex 7.7625 -4.65013 0.875
    endloop
  endfacet
  facet normal 0 0 1
    outer loop
      vertex -7.7625 -4.65013 0.875
      vertex -11.25 -4.5 0.875
      vertex -7.7625 -9.59987 0.875
    endloop
  endfacet
  facet normal -0 0 1
    outer loop
      vertex -11.25 -4.5 0.875
      vertex -7.7625 -4.65013 0.875
      vertex -7.5 0.5 0.875
    endloop
  endfacet
  facet normal 0 0 1
    outer loop
      vertex 11.25 -4.5 0.875
      vertex 7.7625 -9.59987 0.875
      vertex 11.25 -10.5 0.875
    endloop
  endfacet
  facet normal 0 0 1
    outer loop
      vertex 7.7625 -9.59987 0.875
      vertex 7.5 -14.5 0.875
      vertex 11.25 -10.5 0.875
    endloop
  endfacet
  facet normal 0 0 1
    outer loop
      vertex 7.7625 -9.59987 0.875
      vertex -7.5 -14.5 0.875
      vertex 7.5 -14.5 0.875
    endloop
  endfacet
  facet normal -0 0 1
    outer loop
      vertex -7.7625 -9.59987 0.875
      vertex -7.5 -14.5 0.875
      vertex 7.7625 -9.59987 0.875
    endloop
  endfacet
  facet normal 0 0 1
    outer loop
      vertex -11.25 -10.5 0.875
      vertex -7.7625 -9.59987 0.875
      vertex -11.25 -4.5 0.875
    endloop
  endfacet
  facet normal 0 0 1
    outer loop
      vertex -7.7625 -9.59987 0.875
      vertex -11.25 -10.5 0.875
      vertex -7.5 -14.5 0.875
    endloop
  endfacet
  facet normal -0.8 0.6 0
    outer loop
      vertex -11.25 -4.5 -0.875
      vertex -7.5 0.5 0.875
      vertex -7.5 0.5 -0.875
    endloop
  endfacet
  facet normal -0.8 0.6 0
    outer loop
      vertex -7.5 0.5 0.875
      vertex -11.25 -4.5 -0.875
      vertex -11.25 -4.5 0.875
    endloop
  endfacet
  facet normal 0.8 0.6 0
    outer loop
      vertex 11.25 -4.5 0.875
      vertex 7.5 0.5 -0.875
      vertex 7.5 0.5 0.875
    endloop
  endfacet
  facet normal 0.8 0.6 0
    outer loop
      vertex 7.5 0.5 -0.875
      vertex 11.25 -4.5 0.875
      vertex 11.25 -4.5 -0.875
    endloop
  endfacet
  facet normal 0 0 -1
    outer loop
      vertex -4.16875 175.012 -0.875
      vertex 4.16875 182.988 -0.875
      vertex 4.16875 175.012 -0.875
    endloop
  endfacet
  facet normal -0 0 -1
    outer loop
      vertex 4.16875 182.988 -0.875
      vertex -4.16875 175.012 -0.875
      vertex -4.16875 182.988 -0.875
    endloop
  endfacet
  facet normal 0 0 -1
    outer loop
      vertex -4.16875 165.012 -0.875
      vertex 4.16875 172.988 -0.875
      vertex 4.16875 165.012 -0.875
    endloop
  endfacet
  facet normal -0 0 -1
    outer loop
      vertex 4.16875 172.988 -0.875
      vertex -4.16875 165.012 -0.875
      vertex -4.16875 172.988 -0.875
    endloop
  endfacet
  facet normal 0 0 -1
    outer loop
      vertex -4.16875 155.012 -0.875
      vertex 4.16875 162.988 -0.875
      vertex 4.16875 155.012 -0.875
    endloop
  endfacet
  facet normal -0 0 -1
    outer loop
      vertex 4.16875 162.988 -0.875
      vertex -4.16875 155.012 -0.875
      vertex -4.16875 162.988 -0.875
    endloop
  endfacet
  facet normal 0 0 -1
    outer loop
      vertex -4.16875 145.012 -0.875
      vertex 4.16875 152.988 -0.875
      vertex 4.16875 145.012 -0.875
    endloop
  endfacet
  facet normal -0 0 -1
    outer loop
      vertex 4.16875 152.988 -0.875
      vertex -4.16875 145.012 -0.875
      vertex -4.16875 152.988 -0.875
    endloop
  endfacet
  facet normal 0 0 -1
    outer loop
      vertex -4.16875 135.012 -0.875
      vertex 4.16875 142.988 -0.875
      vertex 4.16875 135.012 -0.875
    endloop
  endfacet
  facet normal -0 0 -1
    outer loop
      vertex 4.16875 142.988 -0.875
      vertex -4.16875 135.012 -0.875
      vertex -4.16875 142.988 -0.875
    endloop
  endfacet
  facet normal 0 0 -1
    outer loop
      vertex -4.16875 125.012 -0.875
      vertex 4.16875 132.988 -0.875
      vertex 4.16875 125.012 -0.875
    endloop
  endfacet
  facet normal -0 0 -1
    outer loop
      vertex 4.16875 132.988 -0.875
      vertex -4.16875 125.012 -0.875
      vertex -4.16875 132.988 -0.875
    endloop
  endfacet
  facet normal 0 0 -1
    outer loop
      vertex 7.7625 -6.40013 -0.875
      vertex 11.25 -10.5 -0.875
      vertex 7.7625 -11.3499 -0.875
    endloop
  endfacet
  facet normal 0 0 -1
    outer loop
      vertex 7.5 -14.5 -0.875
      vertex 7.7625 -11.3499 -0.875
      vertex 11.25 -10.5 -0.875
    endloop
  endfacet
  facet normal 0 0 -1
    outer loop
      vertex -7.5 -14.5 -0.875
      vertex 7.7625 -11.3499 -0.875
      vertex 7.5 -14.5 -0.875
    endloop
  endfacet
  facet normal 0 0 -1
    outer loop
      vertex -7.5 -14.5 -0.875
      vertex -7.7625 -11.3499 -0.875
      vertex 7.7625 -11.3499 -0.875
    endloop
  endfacet
  facet normal 0 0 -1
    outer loop
      vertex -7.7625 -11.3499 -0.875
      vertex -11.25 -10.5 -0.875
      vertex -7.7625 -6.40013 -0.875
    endloop
  endfacet
  facet normal 0 0 -1
    outer loop
      vertex -11.25 -10.5 -0.875
      vertex -7.7625 -11.3499 -0.875
      vertex -7.5 -14.5 -0.875
    endloop
  endfacet
  facet normal 0 0 -1
    outer loop
      vertex 11.25 -10.5 -0.875
      vertex 7.7625 -6.40013 -0.875
      vertex 11.25 -4.5 -0.875
    endloop
  endfacet
  facet normal 0 0 -1
    outer loop
      vertex 7.7625 -6.40013 -0.875
      vertex 7.5 0.5 -0.875
      vertex 11.25 -4.5 -0.875
    endloop
  endfacet
  facet normal 0 0 -1
    outer loop
      vertex 7.5 0.5 -0.875
      vertex 4.16875 122.988 -0.875
      vertex 7.5 190.5 -0.875
    endloop
  endfacet
  facet normal 0 0 -1
    outer loop
      vertex 7.5 0.5 -0.875
      vertex -4.16875 122.988 -0.875
      vertex 4.16875 122.988 -0.875
    endloop
  endfacet
  facet normal 0 0 -1
    outer loop
      vertex -7.5 0.5 -0.875
      vertex 7.5 0.5 -0.875
      vertex 7.7625 -6.40013 -0.875
    endloop
  endfacet
  facet normal 0 0 0
    outer loop
      vertex -4.16875 122.988 -0.875
      vertex -4.16875 132.988 -0.875
      vertex -4.16875 125.012 -0.875
    endloop
  endfacet
  facet normal 0 0 -1
    outer loop
      vertex -7.5 190.5 -0.875
      vertex -4.16875 132.988 -0.875
      vertex -4.16875 122.988 -0.875
    endloop
  endfacet
  facet normal 0 0 -1
    outer loop
      vertex -4.16875 132.988 -0.875
      vertex -7.5 190.5 -0.875
      vertex -4.16875 135.012 -0.875
    endloop
  endfacet
  facet normal 0 0 -1
    outer loop
      vertex -4.16875 135.012 -0.875
      vertex -7.5 190.5 -0.875
      vertex -4.16875 142.988 -0.875
    endloop
  endfacet
  facet normal 0 0 -1
    outer loop
      vertex -4.16875 142.988 -0.875
      vertex -7.5 190.5 -0.875
      vertex -4.16875 145.012 -0.875
    endloop
  endfacet
  facet normal 0 0 -1
    outer loop
      vertex -4.16875 145.012 -0.875
      vertex -7.5 190.5 -0.875
      vertex -4.16875 152.988 -0.875
    endloop
  endfacet
  facet normal 0 0 -1
    outer loop
      vertex -4.16875 152.988 -0.875
      vertex -7.5 190.5 -0.875
      vertex -4.16875 155.012 -0.875
    endloop
  endfacet
  facet normal 0 0 -1
    outer loop
      vertex -4.16875 155.012 -0.875
      vertex -7.5 190.5 -0.875
      vertex -4.16875 162.988 -0.875
    endloop
  endfacet
  facet normal 0 0 -1
    outer loop
      vertex -4.16875 162.988 -0.875
      vertex -7.5 190.5 -0.875
      vertex -4.16875 165.012 -0.875
    endloop
  endfacet
  facet normal 0 0 -1
    outer loop
      vertex -4.16875 165.012 -0.875
      vertex -7.5 190.5 -0.875
      vertex -4.16875 172.988 -0.875
    endloop
  endfacet
  facet normal 0 0 -1
    outer loop
      vertex -4.16875 172.988 -0.875
      vertex -7.5 190.5 -0.875
      vertex -4.16875 175.012 -0.875
    endloop
  endfacet
  facet normal 0 0 -1
    outer loop
      vertex -4.16875 175.012 -0.875
      vertex -7.5 190.5 -0.875
      vertex -4.16875 182.988 -0.875
    endloop
  endfacet
  facet normal 0 0 -1
    outer loop
      vertex -7.5 190.5 -0.875
      vertex -4.16875 122.988 -0.875
      vertex -7.5 0.5 -0.875
    endloop
  endfacet
  facet normal 0 0 -1
    outer loop
      vertex 7.5 0.5 -0.875
      vertex -7.5 0.5 -0.875
      vertex -4.16875 122.988 -0.875
    endloop
  endfacet
  facet normal 0 0 -1
    outer loop
      vertex -7.7625 -6.40013 -0.875
      vertex -7.5 0.5 -0.875
      vertex 7.7625 -6.40013 -0.875
    endloop
  endfacet
  facet normal 0 0 -1
    outer loop
      vertex -11.25 -4.5 -0.875
      vertex -7.7625 -6.40013 -0.875
      vertex -11.25 -10.5 -0.875
    endloop
  endfacet
  facet normal 0 0 -1
    outer loop
      vertex -7.7625 -6.40013 -0.875
      vertex -11.25 -4.5 -0.875
      vertex -7.5 0.5 -0.875
    endloop
  endfacet
  facet normal 0 0 -1
    outer loop
      vertex 4.16875 125.012 -0.875
      vertex 7.5 190.5 -0.875
      vertex 4.16875 122.988 -0.875
    endloop
  endfacet
  facet normal 0 0 -1
    outer loop
      vertex 4.16875 132.988 -0.875
      vertex 7.5 190.5 -0.875
      vertex 4.16875 125.012 -0.875
    endloop
  endfacet
  facet normal 0 0 -1
    outer loop
      vertex 4.16875 135.012 -0.875
      vertex 7.5 190.5 -0.875
      vertex 4.16875 132.988 -0.875
    endloop
  endfacet
  facet normal 0 0 -1
    outer loop
      vertex 4.16875 142.988 -0.875
      vertex 7.5 190.5 -0.875
      vertex 4.16875 135.012 -0.875
    endloop
  endfacet
  facet normal 0 0 -1
    outer loop
      vertex 4.16875 145.012 -0.875
      vertex 7.5 190.5 -0.875
      vertex 4.16875 142.988 -0.875
    endloop
  endfacet
  facet normal 0 0 -1
    outer loop
      vertex 4.16875 152.988 -0.875
      vertex 7.5 190.5 -0.875
      vertex 4.16875 145.012 -0.875
    endloop
  endfacet
  facet normal 0 0 -1
    outer loop
      vertex 4.16875 155.012 -0.875
      vertex 7.5 190.5 -0.875
      vertex 4.16875 152.988 -0.875
    endloop
  endfacet
  facet normal 0 0 -1
    outer loop
      vertex 4.16875 162.988 -0.875
      vertex 7.5 190.5 -0.875
      vertex 4.16875 155.012 -0.875
    endloop
  endfacet
  facet normal 0 0 -1
    outer loop
      vertex 4.16875 165.012 -0.875
      vertex 7.5 190.5 -0.875
      vertex 4.16875 162.988 -0.875
    endloop
  endfacet
  facet normal 0 0 -1
    outer loop
      vertex 4.16875 172.988 -0.875
      vertex 7.5 190.5 -0.875
      vertex 4.16875 165.012 -0.875
    endloop
  endfacet
  facet normal 0 0 -1
    outer loop
      vertex 4.16875 175.012 -0.875
      vertex 7.5 190.5 -0.875
      vertex 4.16875 172.988 -0.875
    endloop
  endfacet
  facet normal 0 0 -1
    outer loop
      vertex 4.16875 182.988 -0.875
      vertex 7.5 190.5 -0.875
      vertex 4.16875 175.012 -0.875
    endloop
  endfacet
  facet normal 0 0 -1
    outer loop
      vertex 4.16875 185.012 -0.875
      vertex 7.5 190.5 -0.875
      vertex 4.16875 182.988 -0.875
    endloop
  endfacet
  facet normal 0 0 -1
    outer loop
      vertex 4.16875 185.012 -0.875
      vertex 1.18371 197.921 -0.875
      vertex 7.5 190.5 -0.875
    endloop
  endfacet
  facet normal 0 0 -1
    outer loop
      vertex -4.16875 185.012 -0.875
      vertex 1.18371 197.921 -0.875
      vertex 4.16875 185.012 -0.875
    endloop
  endfacet
  facet normal 0 0 -1
    outer loop
      vertex 1.18371 197.921 -0.875
      vertex -1.01592 198.104 -0.875
      vertex 0.820422 198.256 -0.875
    endloop
  endfacet
  facet normal -0 0 -1
    outer loop
      vertex 0.820422 198.256 -0.875
      vertex -1.01592 198.104 -0.875
      vertex 0.368228 198.454 -0.875
    endloop
  endfacet
  facet normal -0 0 -1
    outer loop
      vertex 0.368228 198.454 -0.875
      vertex -1.01592 198.104 -0.875
      vertex -0.123869 198.495 -0.875
    endloop
  endfacet
  facet normal 0 0 -1
    outer loop
      vertex -0.123869 198.495 -0.875
      vertex -1.01592 198.104 -0.875
      vertex -0.602543 198.374 -0.875
    endloop
  endfacet
  facet normal -0 0 -1
    outer loop
      vertex 1.18371 197.921 -0.875
      vertex -4.16875 185.012 -0.875
      vertex -1.01592 198.104 -0.875
    endloop
  endfacet
  facet normal 0 0 -1
    outer loop
      vertex -4.16875 185.012 -0.875
      vertex -7.5 190.5 -0.875
      vertex -1.01592 198.104 -0.875
    endloop
  endfacet
  facet normal 0 0 -1
    outer loop
      vertex -4.16875 182.988 -0.875
      vertex -7.5 190.5 -0.875
      vertex -4.16875 185.012 -0.875
    endloop
  endfacet
  facet normal -1 0 0
    outer loop
      vertex 7.7625 -6.40013 -0.875
      vertex 7.7625 -9.59987 0.875
      vertex 7.7625 -4.65013 0.875
    endloop
  endfacet
  facet normal -1 0 -0
    outer loop
      vertex 7.7625 -9.59987 0.875
      vertex 7.7625 -6.40013 -0.875
      vertex 7.7625 -11.3499 -0.875
    endloop
  endfacet
  facet normal 1 -0 0
    outer loop
      vertex -7.7625 -9.59987 0.875
      vertex -7.7625 -6.40013 -0.875
      vertex -7.7625 -4.65013 0.875
    endloop
  endfacet
  facet normal 1 0 0
    outer loop
      vertex -7.7625 -6.40013 -0.875
      vertex -7.7625 -9.59987 0.875
      vertex -7.7625 -11.3499 -0.875
    endloop
  endfacet
  facet normal 0 0.707101 -0.707113
    outer loop
      vertex 7.7625 -11.3499 -0.875
      vertex -7.7625 -9.59987 0.875
      vertex 7.7625 -9.59987 0.875
    endloop
  endfacet
  facet normal 0 0.707101 -0.707113
    outer loop
      vertex -7.7625 -9.59987 0.875
      vertex 7.7625 -11.3499 -0.875
      vertex -7.7625 -11.3499 -0.875
    endloop
  endfacet
  facet normal 0 -0.707107 0.707107
    outer loop
      vertex -7.7625 -6.40013 -0.875
      vertex 7.7625 -4.65013 0.875
      vertex -7.7625 -4.65013 0.875
    endloop
  endfacet
  facet normal 0 -0.707107 0.707107
    outer loop
      vertex 7.7625 -4.65013 0.875
      vertex -7.7625 -6.40013 -0.875
      vertex 7.7625 -6.40013 -0.875
    endloop
  endfacet
  facet normal 1 -0 0
    outer loop
      vertex 7.5 0.5 0.875
      vertex 7.5 190.5 -0.875
      vertex 7.5 190.5 0.875
    endloop
  endfacet
  facet normal 1 0 0
    outer loop
      vertex 7.5 190.5 -0.875
      vertex 7.5 0.5 0.875
      vertex 7.5 0.5 -0.875
    endloop
  endfacet
  facet normal -1 0 0
    outer loop
      vertex -7.5 0.5 -0.875
      vertex -7.5 190.5 0.875
      vertex -7.5 190.5 -0.875
    endloop
  endfacet
  facet normal -1 -0 0
    outer loop
      vertex -7.5 190.5 0.875
      vertex -7.5 0.5 -0.875
      vertex -7.5 0.5 0.875
    endloop
  endfacet
  facet normal -0.245073 0.969505 0
    outer loop
      vertex -0.123869 198.495 -0.875
      vertex -0.602543 198.374 0.875
      vertex -0.123869 198.495 0.875
    endloop
  endfacet
  facet normal -0.245073 0.969505 0
    outer loop
      vertex -0.602543 198.374 0.875
      vertex -0.123869 198.495 -0.875
      vertex -0.602543 198.374 -0.875
    endloop
  endfacet
  facet normal -0.546845 0.837234 0
    outer loop
      vertex -0.602543 198.374 -0.875
      vertex -1.01592 198.104 0.875
      vertex -0.602543 198.374 0.875
    endloop
  endfacet
  facet normal -0.546845 0.837234 0
    outer loop
      vertex -1.01592 198.104 0.875
      vertex -0.602543 198.374 -0.875
      vertex -1.01592 198.104 -0.875
    endloop
  endfacet
  facet normal 0.4011 0.916034 -0
    outer loop
      vertex 0.820422 198.256 -0.875
      vertex 0.368228 198.454 0.875
      vertex 0.820422 198.256 0.875
    endloop
  endfacet
  facet normal 0.4011 0.916034 0
    outer loop
      vertex 0.368228 198.454 0.875
      vertex 0.820422 198.256 -0.875
      vertex 0.368228 198.454 -0.875
    endloop
  endfacet
  facet normal 0.677906 0.735149 -0
    outer loop
      vertex 1.18371 197.921 -0.875
      vertex 0.820422 198.256 0.875
      vertex 1.18371 197.921 0.875
    endloop
  endfacet
  facet normal 0.677906 0.735149 0
    outer loop
      vertex 0.820422 198.256 0.875
      vertex 1.18371 197.921 -0.875
      vertex 0.820422 198.256 -0.875
    endloop
  endfacet
  facet normal -0.760917 0.648849 0
    outer loop
      vertex -7.5 190.5 -0.875
      vertex -1.01592 198.104 0.875
      vertex -1.01592 198.104 -0.875
    endloop
  endfacet
  facet normal -0.760917 0.648849 0
    outer loop
      vertex -1.01592 198.104 0.875
      vertex -7.5 190.5 -0.875
      vertex -7.5 190.5 0.875
    endloop
  endfacet
  facet normal 0.761512 0.648151 0
    outer loop
      vertex 7.5 190.5 0.875
      vertex 1.18371 197.921 -0.875
      vertex 1.18371 197.921 0.875
    endloop
  endfacet
  facet normal 0.761512 0.648151 0
    outer loop
      vertex 1.18371 197.921 -0.875
      vertex 7.5 190.5 0.875
      vertex 7.5 190.5 -0.875
    endloop
  endfacet
  facet normal 0.0830292 0.996547 -0
    outer loop
      vertex 0.368228 198.454 -0.875
      vertex -0.123869 198.495 0.875
      vertex 0.368228 198.454 0.875
    endloop
  endfacet
  facet normal 0.0830292 0.996547 0
    outer loop
      vertex -0.123869 198.495 0.875
      vertex 0.368228 198.454 -0.875
      vertex -0.123869 198.495 -0.875
    endloop
  endfacet
  facet normal -1 0 0
    outer loop
      vertex 4.16875 182.988 -0.875
      vertex 4.16875 185.012 0.875
      vertex 4.16875 185.012 -0.875
    endloop
  endfacet
  facet normal -1 -0 0
    outer loop
      vertex 4.16875 185.012 0.875
      vertex 4.16875 182.988 -0.875
      vertex 4.16875 182.988 0.875
    endloop
  endfacet
  facet normal 1 -0 0
    outer loop
      vertex -4.16875 182.988 0.875
      vertex -4.16875 185.012 -0.875
      vertex -4.16875 185.012 0.875
    endloop
  endfacet
  facet normal 1 0 0
    outer loop
      vertex -4.16875 185.012 -0.875
      vertex -4.16875 182.988 0.875
      vertex -4.16875 182.988 -0.875
    endloop
  endfacet
  facet normal 0 -1 0
    outer loop
      vertex -4.16875 185.012 -0.875
      vertex 4.16875 185.012 0.875
      vertex -4.16875 185.012 0.875
    endloop
  endfacet
  facet normal 0 -1 -0
    outer loop
      vertex 4.16875 185.012 0.875
      vertex -4.16875 185.012 -0.875
      vertex 4.16875 185.012 -0.875
    endloop
  endfacet
  facet normal 0 1 -0
    outer loop
      vertex 4.16875 182.988 -0.875
      vertex -4.16875 182.988 0.875
      vertex 4.16875 182.988 0.875
    endloop
  endfacet
  facet normal 0 1 0
    outer loop
      vertex -4.16875 182.988 0.875
      vertex 4.16875 182.988 -0.875
      vertex -4.16875 182.988 -0.875
    endloop
  endfacet
  facet normal -1 0 0
    outer loop
      vertex 4.16875 172.988 -0.875
      vertex 4.16875 175.012 0.875
      vertex 4.16875 175.012 -0.875
    endloop
  endfacet
  facet normal -1 -0 0
    outer loop
      vertex 4.16875 175.012 0.875
      vertex 4.16875 172.988 -0.875
      vertex 4.16875 172.988 0.875
    endloop
  endfacet
  facet normal 1 -0 0
    outer loop
      vertex -4.16875 172.988 0.875
      vertex -4.16875 175.012 -0.875
      vertex -4.16875 175.012 0.875
    endloop
  endfacet
  facet normal 1 0 0
    outer loop
      vertex -4.16875 175.012 -0.875
      vertex -4.16875 172.988 0.875
      vertex -4.16875 172.988 -0.875
    endloop
  endfacet
  facet normal 0 -1 0
    outer loop
      vertex -4.16875 175.012 -0.875
      vertex 4.16875 175.012 0.875
      vertex -4.16875 175.012 0.875
    endloop
  endfacet
  facet normal 0 -1 -0
    outer loop
      vertex 4.16875 175.012 0.875
      vertex -4.16875 175.012 -0.875
      vertex 4.16875 175.012 -0.875
    endloop
  endfacet
  facet normal 0 1 -0
    outer loop
      vertex 4.16875 172.988 -0.875
      vertex -4.16875 172.988 0.875
      vertex 4.16875 172.988 0.875
    endloop
  endfacet
  facet normal 0 1 0
    outer loop
      vertex -4.16875 172.988 0.875
      vertex 4.16875 172.988 -0.875
      vertex -4.16875 172.988 -0.875
    endloop
  endfacet
  facet normal -1 0 0
    outer loop
      vertex 4.16875 162.988 -0.875
      vertex 4.16875 165.012 0.875
      vertex 4.16875 165.012 -0.875
    endloop
  endfacet
  facet normal -1 -0 0
    outer loop
      vertex 4.16875 165.012 0.875
      vertex 4.16875 162.988 -0.875
      vertex 4.16875 162.988 0.875
    endloop
  endfacet
  facet normal 1 -0 0
    outer loop
      vertex -4.16875 162.988 0.875
      vertex -4.16875 165.012 -0.875
      vertex -4.16875 165.012 0.875
    endloop
  endfacet
  facet normal 1 0 0
    outer loop
      vertex -4.16875 165.012 -0.875
      vertex -4.16875 162.988 0.875
      vertex -4.16875 162.988 -0.875
    endloop
  endfacet
  facet normal 0 -1 0
    outer loop
      vertex -4.16875 165.012 -0.875
      vertex 4.16875 165.012 0.875
      vertex -4.16875 165.012 0.875
    endloop
  endfacet
  facet normal 0 -1 -0
    outer loop
      vertex 4.16875 165.012 0.875
      vertex -4.16875 165.012 -0.875
      vertex 4.16875 165.012 -0.875
    endloop
  endfacet
  facet normal 0 1 -0
    outer loop
      vertex 4.16875 162.988 -0.875
      vertex -4.16875 162.988 0.875
      vertex 4.16875 162.988 0.875
    endloop
  endfacet
  facet normal 0 1 0
    outer loop
      vertex -4.16875 162.988 0.875
      vertex 4.16875 162.988 -0.875
      vertex -4.16875 162.988 -0.875
    endloop
  endfacet
  facet normal -1 0 0
    outer loop
      vertex 4.16875 152.988 -0.875
      vertex 4.16875 155.012 0.875
      vertex 4.16875 155.012 -0.875
    endloop
  endfacet
  facet normal -1 -0 0
    outer loop
      vertex 4.16875 155.012 0.875
      vertex 4.16875 152.988 -0.875
      vertex 4.16875 152.988 0.875
    endloop
  endfacet
  facet normal 1 -0 0
    outer loop
      vertex -4.16875 152.988 0.875
      vertex -4.16875 155.012 -0.875
      vertex -4.16875 155.012 0.875
    endloop
  endfacet
  facet normal 1 0 0
    outer loop
      vertex -4.16875 155.012 -0.875
      vertex -4.16875 152.988 0.875
      vertex -4.16875 152.988 -0.875
    endloop
  endfacet
  facet normal 0 -1 0
    outer loop
      vertex -4.16875 155.012 -0.875
      vertex 4.16875 155.012 0.875
      vertex -4.16875 155.012 0.875
    endloop
  endfacet
  facet normal 0 -1 -0
    outer loop
      vertex 4.16875 155.012 0.875
      vertex -4.16875 155.012 -0.875
      vertex 4.16875 155.012 -0.875
    endloop
  endfacet
  facet normal 0 1 -0
    outer loop
      vertex 4.16875 152.988 -0.875
      vertex -4.16875 152.988 0.875
      vertex 4.16875 152.988 0.875
    endloop
  endfacet
  facet normal 0 1 0
    outer loop
      vertex -4.16875 152.988 0.875
      vertex 4.16875 152.988 -0.875
      vertex -4.16875 152.988 -0.875
    endloop
  endfacet
  facet normal -1 0 0
    outer loop
      vertex 4.16875 142.988 -0.875
      vertex 4.16875 145.012 0.875
      vertex 4.16875 145.012 -0.875
    endloop
  endfacet
  facet normal -1 -0 0
    outer loop
      vertex 4.16875 145.012 0.875
      vertex 4.16875 142.988 -0.875
      vertex 4.16875 142.988 0.875
    endloop
  endfacet
  facet normal 1 -0 0
    outer loop
      vertex -4.16875 142.988 0.875
      vertex -4.16875 145.012 -0.875
      vertex -4.16875 145.012 0.875
    endloop
  endfacet
  facet normal 1 0 0
    outer loop
      vertex -4.16875 145.012 -0.875
      vertex -4.16875 142.988 0.875
      vertex -4.16875 142.988 -0.875
    endloop
  endfacet
  facet normal 0 -1 0
    outer loop
      vertex -4.16875 145.012 -0.875
      vertex 4.16875 145.012 0.875
      vertex -4.16875 145.012 0.875
    endloop
  endfacet
  facet normal 0 -1 -0
    outer loop
      vertex 4.16875 145.012 0.875
      vertex -4.16875 145.012 -0.875
      vertex 4.16875 145.012 -0.875
    endloop
  endfacet
  facet normal 0 1 -0
    outer loop
      vertex 4.16875 142.988 -0.875
      vertex -4.16875 142.988 0.875
      vertex 4.16875 142.988 0.875
    endloop
  endfacet
  facet normal 0 1 0
    outer loop
      vertex -4.16875 142.988 0.875
      vertex 4.16875 142.988 -0.875
      vertex -4.16875 142.988 -0.875
    endloop
  endfacet
  facet normal -1 0 0
    outer loop
      vertex 4.16875 132.988 -0.875
      vertex 4.16875 135.012 0.875
      vertex 4.16875 135.012 -0.875
    endloop
  endfacet
  facet normal -1 -0 0
    outer loop
      vertex 4.16875 135.012 0.875
      vertex 4.16875 132.988 -0.875
      vertex 4.16875 132.988 0.875
    endloop
  endfacet
  facet normal 1 -0 0
    outer loop
      vertex -4.16875 132.988 0.875
      vertex -4.16875 135.012 -0.875
      vertex -4.16875 135.012 0.875
    endloop
  endfacet
  facet normal 1 0 0
    outer loop
      vertex -4.16875 135.012 -0.875
      vertex -4.16875 132.988 0.875
      vertex -4.16875 132.988 -0.875
    endloop
  endfacet
  facet normal 0 -1 0
    outer loop
      vertex -4.16875 135.012 -0.875
      vertex 4.16875 135.012 0.875
      vertex -4.16875 135.012 0.875
    endloop
  endfacet
  facet normal 0 -1 -0
    outer loop
      vertex 4.16875 135.012 0.875
      vertex -4.16875 135.012 -0.875
      vertex 4.16875 135.012 -0.875
    endloop
  endfacet
  facet normal 0 1 -0
    outer loop
      vertex 4.16875 132.988 -0.875
      vertex -4.16875 132.988 0.875
      vertex 4.16875 132.988 0.875
    endloop
  endfacet
  facet normal 0 1 0
    outer loop
      vertex -4.16875 132.988 0.875
      vertex 4.16875 132.988 -0.875
      vertex -4.16875 132.988 -0.875
    endloop
  endfacet
  facet normal -1 0 0
    outer loop
      vertex 4.16875 122.988 -0.875
      vertex 4.16875 125.012 0.875
      vertex 4.16875 125.012 -0.875
    endloop
  endfacet
  facet normal -1 -0 0
    outer loop
      vertex 4.16875 125.012 0.875
      vertex 4.16875 122.988 -0.875
      vertex 4.16875 122.988 0.875
    endloop
  endfacet
  facet normal 1 -0 0
    outer loop
      vertex -4.16875 122.988 0.875
      vertex -4.16875 125.012 -0.875
      vertex -4.16875 125.012 0.875
    endloop
  endfacet
  facet normal 1 0 0
    outer loop
      vertex -4.16875 125.012 -0.875
      vertex -4.16875 122.988 0.875
      vertex -4.16875 122.988 -0.875
    endloop
  endfacet
  facet normal 0 -1 0
    outer loop
      vertex -4.16875 125.012 -0.875
      vertex 4.16875 125.012 0.875
      vertex -4.16875 125.012 0.875
    endloop
  endfacet
  facet normal 0 -1 -0
    outer loop
      vertex 4.16875 125.012 0.875
      vertex -4.16875 125.012 -0.875
      vertex 4.16875 125.012 -0.875
    endloop
  endfacet
  facet normal 0 1 -0
    outer loop
      vertex 4.16875 122.988 -0.875
      vertex -4.16875 122.988 0.875
      vertex 4.16875 122.988 0.875
    endloop
  endfacet
  facet normal 0 1 0
    outer loop
      vertex -4.16875 122.988 0.875
      vertex 4.16875 122.988 -0.875
      vertex -4.16875 122.988 -0.875
    endloop
  endfacet
  facet normal 1 -0 0
    outer loop
      vertex 3.75 5.25 2.875
      vertex 3.75 6.75 0.875
      vertex 3.75 6.75 2.875
    endloop
  endfacet
  facet normal 1 0 0
    outer loop
      vertex 3.75 6.75 0.875
      vertex 3.75 5.25 2.875
      vertex 3.75 5.25 0.875
    endloop
  endfacet
  facet normal -1 0 0
    outer loop
      vertex -3.75 5.25 0.875
      vertex -3.75 6.75 2.875
      vertex -3.75 6.75 0.875
    endloop
  endfacet
  facet normal -1 -0 0
    outer loop
      vertex -3.75 6.75 2.875
      vertex -3.75 5.25 0.875
      vertex -3.75 5.25 2.875
    endloop
  endfacet
  facet normal 0 1 -0
    outer loop
      vertex 3.75 6.75 0.875
      vertex -3.75 6.75 2.875
      vertex 3.75 6.75 2.875
    endloop
  endfacet
  facet normal 0 1 0
    outer loop
      vertex -3.75 6.75 2.875
      vertex 3.75 6.75 0.875
      vertex -3.75 6.75 0.875
    endloop
  endfacet
  facet normal 0 -1 0
    outer loop
      vertex -3.75 5.25 0.875
      vertex 3.75 5.25 2.875
      vertex -3.75 5.25 2.875
    endloop
  endfacet
  facet normal 0 -1 -0
    outer loop
      vertex 3.75 5.25 2.875
      vertex -3.75 5.25 0.875
      vertex 3.75 5.25 0.875
    endloop
  endfacet
  facet normal 0.0550673 0.638488 0.767659
    outer loop
      vertex 3.36607 7.98542 3.875
      vertex 2.5 8 3.925
      vertex 3.75 6.75 4.875
    endloop
  endfacet
  facet normal 0.622911 -0.0756211 0.778629
    outer loop
      vertex 3.875 6 4.875
      vertex 3.85321 5.82051 4.875
      vertex 5.06688 5.52137 3.875
    endloop
  endfacet
  facet normal 0.612769 -0.0744085 -0.786751
    outer loop
      vertex 5.06688 5.52137 3.875
      vertex 3.75 5.25 2.875
      vertex 5.125 6 3.875
    endloop
  endfacet
  facet normal 0 1 -0
    outer loop
      vertex 2.5 8 3.825
      vertex -2.5 8 3.925
      vertex 2.5 8 3.925
    endloop
  endfacet
  facet normal 0 1 0
    outer loop
      vertex -2.5 8 3.925
      vertex 2.5 8 3.825
      vertex -2.5 8 3.825
    endloop
  endfacet
  facet normal 0.466656 0.526747 0.710471
    outer loop
      vertex 4.26113 7.64597 3.875
      vertex 3.75 6.75 4.875
      vertex 4.62202 7.32625 3.875
    endloop
  endfacet
  facet normal -0.0168323 0.999858 0
    outer loop
      vertex -2.5 8 3.825
      vertex -3.36607 7.98542 3.875
      vertex -2.5 8 3.925
    endloop
  endfacet
  facet normal -0 0.605083 0.796162
    outer loop
      vertex -2.5 8 3.925
      vertex 3.75 6.75 4.875
      vertex 2.5 8 3.925
    endloop
  endfacet
  facet normal 0 0.605083 0.796162
    outer loop
      vertex 3.75 6.75 4.875
      vertex -2.5 8 3.925
      vertex -3.75 6.75 4.875
    endloop
  endfacet
  facet normal -0.0550673 -0.638488 -0.767659
    outer loop
      vertex -3.36607 4.01458 3.875
      vertex -3.75 5.25 2.875
      vertex -2.5 4 3.825
    endloop
  endfacet
  facet normal 0.466656 0.526747 -0.710471
    outer loop
      vertex 4.62202 7.32625 3.875
      vertex 3.75 6.75 2.875
      vertex 4.26113 7.64597 3.875
    endloop
  endfacet
  facet normal 0.622905 -0.0756394 0.778632
    outer loop
      vertex 5.125 6 3.875
      vertex 3.875 6 4.875
      vertex 5.06688 5.52137 3.875
    endloop
  endfacet
  facet normal -0.615456 -0.111341 0.780267
    outer loop
      vertex -3.85321 5.82051 4.875
      vertex -5.06688 5.52137 3.875
      vertex -3.75 5.25 4.875
    endloop
  endfacet
  facet normal -0.612769 0.0744085 -0.786751
    outer loop
      vertex -3.75 6.75 2.875
      vertex -5.125 6 3.875
      vertex -5.06688 6.47863 3.875
    endloop
  endfacet
  facet normal 0.160376 0.650648 -0.742251
    outer loop
      vertex 3.75 6.75 2.875
      vertex 3.36607 7.98542 3.875
      vertex 3.83421 7.87003 3.875
    endloop
  endfacet
  facet normal 0.160376 0.650648 0.742251
    outer loop
      vertex 3.83421 7.87003 3.875
      vertex 3.36607 7.98542 3.875
      vertex 3.75 6.75 4.875
    endloop
  endfacet
  facet normal 0.0550673 -0.638488 -0.767659
    outer loop
      vertex 3.36607 4.01458 3.875
      vertex 2.5 4 3.825
      vertex 3.75 5.25 2.875
    endloop
  endfacet
  facet normal 0 -0.605083 0.796162
    outer loop
      vertex 3.75 5.25 4.875
      vertex -2.5 4 3.925
      vertex 2.5 4 3.925
    endloop
  endfacet
  facet normal 0 -0.605083 0.796162
    outer loop
      vertex -2.5 4 3.925
      vertex 3.75 5.25 4.875
      vertex -3.75 5.25 4.875
    endloop
  endfacet
  facet normal -0.0550673 0.638488 -0.767659
    outer loop
      vertex -2.5 8 3.825
      vertex -3.75 6.75 2.875
      vertex -3.36607 7.98542 3.875
    endloop
  endfacet
  facet normal 0 0.605083 -0.796162
    outer loop
      vertex 3.75 6.75 2.875
      vertex -2.5 8 3.825
      vertex 2.5 8 3.825
    endloop
  endfacet
  facet normal 0 0.605083 -0.796162
    outer loop
      vertex -2.5 8 3.825
      vertex 3.75 6.75 2.875
      vertex -3.75 6.75 2.875
    endloop
  endfacet
  facet normal -0.588172 0 -0.808736
    outer loop
      vertex -3.75 5.25 2.875
      vertex -5.125 6 3.875
      vertex -3.75 6.75 2.875
    endloop
  endfacet
  facet normal -0.0550673 -0.638488 0.767659
    outer loop
      vertex -2.5 4 3.925
      vertex -3.75 5.25 4.875
      vertex -3.36607 4.01458 3.875
    endloop
  endfacet
  facet normal 0.588172 0 -0.808736
    outer loop
      vertex 5.125 6 3.875
      vertex 3.75 5.25 2.875
      vertex 3.75 6.75 2.875
    endloop
  endfacet
  facet normal 0.0550673 0.638488 -0.767659
    outer loop
      vertex 3.75 6.75 2.875
      vertex 2.5 8 3.825
      vertex 3.36607 7.98542 3.875
    endloop
  endfacet
  facet normal 0.0168323 0.999858 0
    outer loop
      vertex 3.36607 7.98542 3.875
      vertex 2.5 8 3.825
      vertex 2.5 8 3.925
    endloop
  endfacet
  facet normal 0.32357 0.616525 -0.717774
    outer loop
      vertex 4.26113 7.64597 3.875
      vertex 3.75 6.75 2.875
      vertex 3.83421 7.87003 3.875
    endloop
  endfacet
  facet normal 0.32357 0.616525 0.717774
    outer loop
      vertex 3.83421 7.87003 3.875
      vertex 3.75 6.75 4.875
      vertex 4.26113 7.64597 3.875
    endloop
  endfacet
  facet normal 0.612769 0.0744085 -0.786751
    outer loop
      vertex 5.125 6 3.875
      vertex 3.75 6.75 2.875
      vertex 5.06688 6.47863 3.875
    endloop
  endfacet
  facet normal 0.622905 0.0756394 0.778632
    outer loop
      vertex 5.06688 6.47863 3.875
      vertex 3.875 6 4.875
      vertex 5.125 6 3.875
    endloop
  endfacet
  facet normal -0.622911 -0.0756211 0.778629
    outer loop
      vertex -3.875 6 4.875
      vertex -5.06688 5.52137 3.875
      vertex -3.85321 5.82051 4.875
    endloop
  endfacet
  facet normal 0 0 1
    outer loop
      vertex 3.85321 6.17949 4.875
      vertex 3.85321 5.82051 4.875
      vertex 3.875 6 4.875
    endloop
  endfacet
  facet normal 0 0 1
    outer loop
      vertex 3.75 6.75 4.875
      vertex 3.85321 5.82051 4.875
      vertex 3.85321 6.17949 4.875
    endloop
  endfacet
  facet normal 0 0 1
    outer loop
      vertex 3.75 6.75 4.875
      vertex 3.75 5.25 4.875
      vertex 3.85321 5.82051 4.875
    endloop
  endfacet
  facet normal -0 0 1
    outer loop
      vertex -3.75 6.75 4.875
      vertex 3.75 5.25 4.875
      vertex 3.75 6.75 4.875
    endloop
  endfacet
  facet normal 0 0 1
    outer loop
      vertex -3.75 6.75 4.875
      vertex -3.75 5.25 4.875
      vertex 3.75 5.25 4.875
    endloop
  endfacet
  facet normal -0 0 1
    outer loop
      vertex -3.85321 6.17949 4.875
      vertex -3.75 5.25 4.875
      vertex -3.75 6.75 4.875
    endloop
  endfacet
  facet normal 0 0 1
    outer loop
      vertex -3.85321 6.17949 4.875
      vertex -3.85321 5.82051 4.875
      vertex -3.75 5.25 4.875
    endloop
  endfacet
  facet normal 0 -0 1
    outer loop
      vertex -3.85321 5.82051 4.875
      vertex -3.85321 6.17949 4.875
      vertex -3.875 6 4.875
    endloop
  endfacet
  facet normal -0.466656 0.526747 0.710471
    outer loop
      vertex -4.26113 7.64597 3.875
      vertex -4.62202 7.32625 3.875
      vertex -3.75 6.75 4.875
    endloop
  endfacet
  facet normal 0 -0.605083 -0.796162
    outer loop
      vertex -2.5 4 3.825
      vertex 3.75 5.25 2.875
      vertex 2.5 4 3.825
    endloop
  endfacet
  facet normal -0 -0.605083 -0.796162
    outer loop
      vertex 3.75 5.25 2.875
      vertex -2.5 4 3.825
      vertex -3.75 5.25 2.875
    endloop
  endfacet
  facet normal 0.618093 0.234407 0.750343
    outer loop
      vertex 4.89591 6.92945 3.875
      vertex 3.75 6.75 4.875
      vertex 5.06688 6.47863 3.875
    endloop
  endfacet
  facet normal 0.618093 0.234407 -0.750343
    outer loop
      vertex 5.06688 6.47863 3.875
      vertex 3.75 6.75 2.875
      vertex 4.89591 6.92945 3.875
    endloop
  endfacet
  facet normal 0.466656 -0.526747 -0.710471
    outer loop
      vertex 4.26113 4.35403 3.875
      vertex 3.75 5.25 2.875
      vertex 4.62202 4.67375 3.875
    endloop
  endfacet
  facet normal 0.466656 -0.526747 0.710471
    outer loop
      vertex 4.62202 4.67375 3.875
      vertex 3.75 5.25 4.875
      vertex 4.26113 4.35403 3.875
    endloop
  endfacet
  facet normal -0.466656 0.526747 -0.710471
    outer loop
      vertex -3.75 6.75 2.875
      vertex -4.62202 7.32625 3.875
      vertex -4.26113 7.64597 3.875
    endloop
  endfacet
  facet normal -0.160376 0.650648 0.742251
    outer loop
      vertex -3.36607 7.98542 3.875
      vertex -3.83421 7.87003 3.875
      vertex -3.75 6.75 4.875
    endloop
  endfacet
  facet normal -0.466656 -0.526747 0.710471
    outer loop
      vertex -3.75 5.25 4.875
      vertex -4.62202 4.67375 3.875
      vertex -4.26113 4.35403 3.875
    endloop
  endfacet
  facet normal -0.466656 -0.526747 -0.710471
    outer loop
      vertex -4.26113 4.35403 3.875
      vertex -4.62202 4.67375 3.875
      vertex -3.75 5.25 2.875
    endloop
  endfacet
  facet normal -0.622905 0.0756394 0.778632
    outer loop
      vertex -5.06688 6.47863 3.875
      vertex -5.125 6 3.875
      vertex -3.875 6 4.875
    endloop
  endfacet
  facet normal 0.615456 -0.111341 0.780267
    outer loop
      vertex 3.85321 5.82051 4.875
      vertex 3.75 5.25 4.875
      vertex 5.06688 5.52137 3.875
    endloop
  endfacet
  facet normal -0.0168323 -0.999858 -0
    outer loop
      vertex -2.5 4 3.925
      vertex -3.36607 4.01458 3.875
      vertex -2.5 4 3.825
    endloop
  endfacet
  facet normal 0 -1 0
    outer loop
      vertex -2.5 4 3.825
      vertex 2.5 4 3.925
      vertex -2.5 4 3.925
    endloop
  endfacet
  facet normal 0 -1 -0
    outer loop
      vertex 2.5 4 3.925
      vertex -2.5 4 3.825
      vertex 2.5 4 3.825
    endloop
  endfacet
  facet normal 0.622911 0.0756211 0.778629
    outer loop
      vertex 5.06688 6.47863 3.875
      vertex 3.85321 6.17949 4.875
      vertex 3.875 6 4.875
    endloop
  endfacet
  facet normal 0.615456 0.111341 0.780267
    outer loop
      vertex 5.06688 6.47863 3.875
      vertex 3.75 6.75 4.875
      vertex 3.85321 6.17949 4.875
    endloop
  endfacet
  facet normal 0.568993 0.392746 -0.722494
    outer loop
      vertex 4.89591 6.92945 3.875
      vertex 3.75 6.75 2.875
      vertex 4.62202 7.32625 3.875
    endloop
  endfacet
  facet normal 0.568993 0.392746 0.722494
    outer loop
      vertex 4.62202 7.32625 3.875
      vertex 3.75 6.75 4.875
      vertex 4.89591 6.92945 3.875
    endloop
  endfacet
  facet normal 0.160376 -0.650648 -0.742251
    outer loop
      vertex 3.83421 4.12997 3.875
      vertex 3.36607 4.01458 3.875
      vertex 3.75 5.25 2.875
    endloop
  endfacet
  facet normal 0.160376 -0.650648 0.742251
    outer loop
      vertex 3.75 5.25 4.875
      vertex 3.36607 4.01458 3.875
      vertex 3.83421 4.12997 3.875
    endloop
  endfacet
  facet normal -0.622905 -0.0756394 0.778632
    outer loop
      vertex -3.875 6 4.875
      vertex -5.125 6 3.875
      vertex -5.06688 5.52137 3.875
    endloop
  endfacet
  facet normal -0.612769 -0.0744085 -0.786751
    outer loop
      vertex -5.06688 5.52137 3.875
      vertex -5.125 6 3.875
      vertex -3.75 5.25 2.875
    endloop
  endfacet
  facet normal -0.160376 0.650648 -0.742251
    outer loop
      vertex -3.75 6.75 2.875
      vertex -3.83421 7.87003 3.875
      vertex -3.36607 7.98542 3.875
    endloop
  endfacet
  facet normal -0.0550673 0.638488 0.767659
    outer loop
      vertex -3.36607 7.98542 3.875
      vertex -3.75 6.75 4.875
      vertex -2.5 8 3.925
    endloop
  endfacet
  facet normal -0.618093 0.234407 0.750343
    outer loop
      vertex -4.89591 6.92945 3.875
      vertex -5.06688 6.47863 3.875
      vertex -3.75 6.75 4.875
    endloop
  endfacet
  facet normal -0.618093 0.234407 -0.750343
    outer loop
      vertex -3.75 6.75 2.875
      vertex -5.06688 6.47863 3.875
      vertex -4.89591 6.92945 3.875
    endloop
  endfacet
  facet normal -0.568993 -0.392746 -0.722494
    outer loop
      vertex -4.62202 4.67375 3.875
      vertex -4.89591 5.07055 3.875
      vertex -3.75 5.25 2.875
    endloop
  endfacet
  facet normal -0.568993 -0.392746 0.722494
    outer loop
      vertex -3.75 5.25 4.875
      vertex -4.89591 5.07055 3.875
      vertex -4.62202 4.67375 3.875
    endloop
  endfacet
  facet normal -0.160376 -0.650648 -0.742251
    outer loop
      vertex -3.36607 4.01458 3.875
      vertex -3.83421 4.12997 3.875
      vertex -3.75 5.25 2.875
    endloop
  endfacet
  facet normal -0.160376 -0.650648 0.742251
    outer loop
      vertex -3.75 5.25 4.875
      vertex -3.83421 4.12997 3.875
      vertex -3.36607 4.01458 3.875
    endloop
  endfacet
  facet normal 0.0550673 -0.638488 0.767659
    outer loop
      vertex 3.75 5.25 4.875
      vertex 2.5 4 3.925
      vertex 3.36607 4.01458 3.875
    endloop
  endfacet
  facet normal 0.0168323 -0.999858 0
    outer loop
      vertex 2.5 4 3.925
      vertex 2.5 4 3.825
      vertex 3.36607 4.01458 3.875
    endloop
  endfacet
  facet normal 0.618093 -0.234407 -0.750343
    outer loop
      vertex 4.89591 5.07055 3.875
      vertex 3.75 5.25 2.875
      vertex 5.06688 5.52137 3.875
    endloop
  endfacet
  facet normal 0.618093 -0.234407 0.750343
    outer loop
      vertex 5.06688 5.52137 3.875
      vertex 3.75 5.25 4.875
      vertex 4.89591 5.07055 3.875
    endloop
  endfacet
  facet normal -0.32357 0.616525 -0.717774
    outer loop
      vertex -3.75 6.75 2.875
      vertex -4.26113 7.64597 3.875
      vertex -3.83421 7.87003 3.875
    endloop
  endfacet
  facet normal -0.32357 0.616525 0.717774
    outer loop
      vertex -3.83421 7.87003 3.875
      vertex -4.26113 7.64597 3.875
      vertex -3.75 6.75 4.875
    endloop
  endfacet
  facet normal -0.568993 0.392746 -0.722494
    outer loop
      vertex -3.75 6.75 2.875
      vertex -4.89591 6.92945 3.875
      vertex -4.62202 7.32625 3.875
    endloop
  endfacet
  facet normal -0.568993 0.392746 0.722494
    outer loop
      vertex -4.62202 7.32625 3.875
      vertex -4.89591 6.92945 3.875
      vertex -3.75 6.75 4.875
    endloop
  endfacet
  facet normal -0.622911 0.0756211 0.778629
    outer loop
      vertex -3.85321 6.17949 4.875
      vertex -5.06688 6.47863 3.875
      vertex -3.875 6 4.875
    endloop
  endfacet
  facet normal -0.615456 0.111341 0.780267
    outer loop
      vertex -3.75 6.75 4.875
      vertex -5.06688 6.47863 3.875
      vertex -3.85321 6.17949 4.875
    endloop
  endfacet
  facet normal -0.618093 -0.234407 -0.750343
    outer loop
      vertex -4.89591 5.07055 3.875
      vertex -5.06688 5.52137 3.875
      vertex -3.75 5.25 2.875
    endloop
  endfacet
  facet normal -0.618093 -0.234407 0.750343
    outer loop
      vertex -3.75 5.25 4.875
      vertex -5.06688 5.52137 3.875
      vertex -4.89591 5.07055 3.875
    endloop
  endfacet
  facet normal -0.32357 -0.616525 -0.717774
    outer loop
      vertex -3.83421 4.12997 3.875
      vertex -4.26113 4.35403 3.875
      vertex -3.75 5.25 2.875
    endloop
  endfacet
  facet normal -0.32357 -0.616525 0.717774
    outer loop
      vertex -3.75 5.25 4.875
      vertex -4.26113 4.35403 3.875
      vertex -3.83421 4.12997 3.875
    endloop
  endfacet
  facet normal 0.32357 -0.616525 -0.717774
    outer loop
      vertex 3.83421 4.12997 3.875
      vertex 3.75 5.25 2.875
      vertex 4.26113 4.35403 3.875
    endloop
  endfacet
  facet normal 0.32357 -0.616525 0.717774
    outer loop
      vertex 4.26113 4.35403 3.875
      vertex 3.75 5.25 4.875
      vertex 3.83421 4.12997 3.875
    endloop
  endfacet
  facet normal 0.568993 -0.392746 -0.722494
    outer loop
      vertex 4.62202 4.67375 3.875
      vertex 3.75 5.25 2.875
      vertex 4.89591 5.07055 3.875
    endloop
  endfacet
  facet normal 0.568993 -0.392746 0.722494
    outer loop
      vertex 4.89591 5.07055 3.875
      vertex 3.75 5.25 4.875
      vertex 4.62202 4.67375 3.875
    endloop
  endfacet
  facet normal 1 -0 0
    outer loop
      vertex 3.75 15.25 2.875
      vertex 3.75 16.75 0.875
      vertex 3.75 16.75 2.875
    endloop
  endfacet
  facet normal 1 0 0
    outer loop
      vertex 3.75 16.75 0.875
      vertex 3.75 15.25 2.875
      vertex 3.75 15.25 0.875
    endloop
  endfacet
  facet normal -1 0 0
    outer loop
      vertex -3.75 15.25 0.875
      vertex -3.75 16.75 2.875
      vertex -3.75 16.75 0.875
    endloop
  endfacet
  facet normal -1 -0 0
    outer loop
      vertex -3.75 16.75 2.875
      vertex -3.75 15.25 0.875
      vertex -3.75 15.25 2.875
    endloop
  endfacet
  facet normal 0 1 -0
    outer loop
      vertex 3.75 16.75 0.875
      vertex -3.75 16.75 2.875
      vertex 3.75 16.75 2.875
    endloop
  endfacet
  facet normal 0 1 0
    outer loop
      vertex -3.75 16.75 2.875
      vertex 3.75 16.75 0.875
      vertex -3.75 16.75 0.875
    endloop
  endfacet
  facet normal 0 -1 0
    outer loop
      vertex -3.75 15.25 0.875
      vertex 3.75 15.25 2.875
      vertex -3.75 15.25 2.875
    endloop
  endfacet
  facet normal 0 -1 -0
    outer loop
      vertex 3.75 15.25 2.875
      vertex -3.75 15.25 0.875
      vertex 3.75 15.25 0.875
    endloop
  endfacet
  facet normal 0.0550817 0.638497 0.767651
    outer loop
      vertex 3.36607 17.9854 3.875
      vertex 2.5 18 3.925
      vertex 3.75 16.75 4.875
    endloop
  endfacet
  facet normal 0.622913 -0.0756171 0.778628
    outer loop
      vertex 3.875 16 4.875
      vertex 3.85321 15.8205 4.875
      vertex 5.06688 15.5214 3.875
    endloop
  endfacet
  facet normal 0.612771 -0.0744133 -0.78675
    outer loop
      vertex 5.06688 15.5214 3.875
      vertex 3.75 15.25 2.875
      vertex 5.125 16 3.875
    endloop
  endfacet
  facet normal 0 1 -0
    outer loop
      vertex 2.5 18 3.825
      vertex -2.5 18 3.925
      vertex 2.5 18 3.925
    endloop
  endfacet
  facet normal 0 1 0
    outer loop
      vertex -2.5 18 3.925
      vertex 2.5 18 3.825
      vertex -2.5 18 3.825
    endloop
  endfacet
  facet normal 0.466722 0.52669 0.71047
    outer loop
      vertex 4.26113 17.646 3.875
      vertex 3.75 16.75 4.875
      vertex 4.62202 17.3262 3.875
    endloop
  endfacet
  facet normal -0.0168554 0.999858 0
    outer loop
      vertex -2.5 18 3.825
      vertex -3.36607 17.9854 3.875
      vertex -2.5 18 3.925
    endloop
  endfacet
  facet normal -0 0.605083 0.796162
    outer loop
      vertex -2.5 18 3.925
      vertex 3.75 16.75 4.875
      vertex 2.5 18 3.925
    endloop
  endfacet
  facet normal 0 0.605083 0.796162
    outer loop
      vertex 3.75 16.75 4.875
      vertex -2.5 18 3.925
      vertex -3.75 16.75 4.875
    endloop
  endfacet
  facet normal -0.0550817 -0.638497 -0.767651
    outer loop
      vertex -3.36607 14.0146 3.875
      vertex -3.75 15.25 2.875
      vertex -2.5 14 3.825
    endloop
  endfacet
  facet normal 0.466722 0.52669 -0.71047
    outer loop
      vertex 4.62202 17.3262 3.875
      vertex 3.75 16.75 2.875
      vertex 4.26113 17.646 3.875
    endloop
  endfacet
  facet normal 0.622905 -0.0756441 0.778632
    outer loop
      vertex 5.125 16 3.875
      vertex 3.875 16 4.875
      vertex 5.06688 15.5214 3.875
    endloop
  endfacet
  facet normal -0.615458 -0.111343 0.780266
    outer loop
      vertex -3.85321 15.8205 4.875
      vertex -5.06688 15.5214 3.875
      vertex -3.75 15.25 4.875
    endloop
  endfacet
  facet normal -0.612771 0.0744133 -0.78675
    outer loop
      vertex -3.75 16.75 2.875
      vertex -5.125 16 3.875
      vertex -5.06688 16.4786 3.875
    endloop
  endfacet
  facet normal 0.160391 0.650656 -0.742241
    outer loop
      vertex 3.75 16.75 2.875
      vertex 3.36607 17.9854 3.875
      vertex 3.83421 17.87 3.875
    endloop
  endfacet
  facet normal 0.160391 0.650656 0.742241
    outer loop
      vertex 3.83421 17.87 3.875
      vertex 3.36607 17.9854 3.875
      vertex 3.75 16.75 4.875
    endloop
  endfacet
  facet normal 0.0550817 -0.638497 -0.767651
    outer loop
      vertex 3.36607 14.0146 3.875
      vertex 2.5 14 3.825
      vertex 3.75 15.25 2.875
    endloop
  endfacet
  facet normal 0 -0.605083 0.796162
    outer loop
      vertex 3.75 15.25 4.875
      vertex -2.5 14 3.925
      vertex 2.5 14 3.925
    endloop
  endfacet
  facet normal 0 -0.605083 0.796162
    outer loop
      vertex -2.5 14 3.925
      vertex 3.75 15.25 4.875
      vertex -3.75 15.25 4.875
    endloop
  endfacet
  facet normal -0.0550817 0.638497 -0.767651
    outer loop
      vertex -2.5 18 3.825
      vertex -3.75 16.75 2.875
      vertex -3.36607 17.9854 3.875
    endloop
  endfacet
  facet normal 0 0.605083 -0.796162
    outer loop
      vertex 3.75 16.75 2.875
      vertex -2.5 18 3.825
      vertex 2.5 18 3.825
    endloop
  endfacet
  facet normal 0 0.605083 -0.796162
    outer loop
      vertex -2.5 18 3.825
      vertex 3.75 16.75 2.875
      vertex -3.75 16.75 2.875
    endloop
  endfacet
  facet normal -0.588172 0 -0.808736
    outer loop
      vertex -3.75 15.25 2.875
      vertex -5.125 16 3.875
      vertex -3.75 16.75 2.875
    endloop
  endfacet
  facet normal -0.0550817 -0.638497 0.767651
    outer loop
      vertex -2.5 14 3.925
      vertex -3.75 15.25 4.875
      vertex -3.36607 14.0146 3.875
    endloop
  endfacet
  facet normal 0.588172 0 -0.808736
    outer loop
      vertex 5.125 16 3.875
      vertex 3.75 15.25 2.875
      vertex 3.75 16.75 2.875
    endloop
  endfacet
  facet normal 0.0550817 0.638497 -0.767651
    outer loop
      vertex 3.75 16.75 2.875
      vertex 2.5 18 3.825
      vertex 3.36607 17.9854 3.875
    endloop
  endfacet
  facet normal 0.0168554 0.999858 0
    outer loop
      vertex 3.36607 17.9854 3.875
      vertex 2.5 18 3.825
      vertex 2.5 18 3.925
    endloop
  endfacet
  facet normal 0.323498 0.616553 -0.717782
    outer loop
      vertex 4.26113 17.646 3.875
      vertex 3.75 16.75 2.875
      vertex 3.83421 17.87 3.875
    endloop
  endfacet
  facet normal 0.323498 0.616553 0.717782
    outer loop
      vertex 3.83421 17.87 3.875
      vertex 3.75 16.75 4.875
      vertex 4.26113 17.646 3.875
    endloop
  endfacet
  facet normal 0.612771 0.0744133 -0.78675
    outer loop
      vertex 5.125 16 3.875
      vertex 3.75 16.75 2.875
      vertex 5.06688 16.4786 3.875
    endloop
  endfacet
  facet normal 0.622905 0.0756441 0.778632
    outer loop
      vertex 5.06688 16.4786 3.875
      vertex 3.875 16 4.875
      vertex 5.125 16 3.875
    endloop
  endfacet
  facet normal -0.622913 -0.0756171 0.778628
    outer loop
      vertex -3.875 16 4.875
      vertex -5.06688 15.5214 3.875
      vertex -3.85321 15.8205 4.875
    endloop
  endfacet
  facet normal 0 0 1
    outer loop
      vertex 3.85321 16.1795 4.875
      vertex 3.85321 15.8205 4.875
      vertex 3.875 16 4.875
    endloop
  endfacet
  facet normal 0 0 1
    outer loop
      vertex 3.75 16.75 4.875
      vertex 3.85321 15.8205 4.875
      vertex 3.85321 16.1795 4.875
    endloop
  endfacet
  facet normal 0 0 1
    outer loop
      vertex 3.75 16.75 4.875
      vertex 3.75 15.25 4.875
      vertex 3.85321 15.8205 4.875
    endloop
  endfacet
  facet normal -0 0 1
    outer loop
      vertex -3.75 16.75 4.875
      vertex 3.75 15.25 4.875
      vertex 3.75 16.75 4.875
    endloop
  endfacet
  facet normal 0 0 1
    outer loop
      vertex -3.75 16.75 4.875
      vertex -3.75 15.25 4.875
      vertex 3.75 15.25 4.875
    endloop
  endfacet
  facet normal -0 0 1
    outer loop
      vertex -3.85321 16.1795 4.875
      vertex -3.75 15.25 4.875
      vertex -3.75 16.75 4.875
    endloop
  endfacet
  facet normal 0 0 1
    outer loop
      vertex -3.85321 16.1795 4.875
      vertex -3.85321 15.8205 4.875
      vertex -3.75 15.25 4.875
    endloop
  endfacet
  facet normal 0 -0 1
    outer loop
      vertex -3.85321 15.8205 4.875
      vertex -3.85321 16.1795 4.875
      vertex -3.875 16 4.875
    endloop
  endfacet
  facet normal -0.466722 0.52669 0.71047
    outer loop
      vertex -4.26113 17.646 3.875
      vertex -4.62202 17.3262 3.875
      vertex -3.75 16.75 4.875
    endloop
  endfacet
  facet normal 0 -0.605083 -0.796162
    outer loop
      vertex -2.5 14 3.825
      vertex 3.75 15.25 2.875
      vertex 2.5 14 3.825
    endloop
  endfacet
  facet normal -0 -0.605083 -0.796162
    outer loop
      vertex 3.75 15.25 2.875
      vertex -2.5 14 3.825
      vertex -3.75 15.25 2.875
    endloop
  endfacet
  facet normal 0.618096 0.234418 0.750337
    outer loop
      vertex 4.89591 16.9294 3.875
      vertex 3.75 16.75 4.875
      vertex 5.06688 16.4786 3.875
    endloop
  endfacet
  facet normal 0.618096 0.234418 -0.750337
    outer loop
      vertex 5.06688 16.4786 3.875
      vertex 3.75 16.75 2.875
      vertex 4.89591 16.9294 3.875
    endloop
  endfacet
  facet normal 0.466722 -0.52669 -0.71047
    outer loop
      vertex 4.26113 14.354 3.875
      vertex 3.75 15.25 2.875
      vertex 4.62202 14.6738 3.875
    endloop
  endfacet
  facet normal 0.466722 -0.52669 0.71047
    outer loop
      vertex 4.62202 14.6738 3.875
      vertex 3.75 15.25 4.875
      vertex 4.26113 14.354 3.875
    endloop
  endfacet
  facet normal -0.466722 0.52669 -0.71047
    outer loop
      vertex -3.75 16.75 2.875
      vertex -4.62202 17.3262 3.875
      vertex -4.26113 17.646 3.875
    endloop
  endfacet
  facet normal -0.160391 0.650656 0.742241
    outer loop
      vertex -3.36607 17.9854 3.875
      vertex -3.83421 17.87 3.875
      vertex -3.75 16.75 4.875
    endloop
  endfacet
  facet normal -0.466722 -0.52669 0.71047
    outer loop
      vertex -3.75 15.25 4.875
      vertex -4.62202 14.6738 3.875
      vertex -4.26113 14.354 3.875
    endloop
  endfacet
  facet normal -0.466722 -0.52669 -0.71047
    outer loop
      vertex -4.26113 14.354 3.875
      vertex -4.62202 14.6738 3.875
      vertex -3.75 15.25 2.875
    endloop
  endfacet
  facet normal -0.622905 0.0756441 0.778632
    outer loop
      vertex -5.06688 16.4786 3.875
      vertex -5.125 16 3.875
      vertex -3.875 16 4.875
    endloop
  endfacet
  facet normal 0.615458 -0.111343 0.780266
    outer loop
      vertex 3.85321 15.8205 4.875
      vertex 3.75 15.25 4.875
      vertex 5.06688 15.5214 3.875
    endloop
  endfacet
  facet normal -0.0168554 -0.999858 -0
    outer loop
      vertex -2.5 14 3.925
      vertex -3.36607 14.0146 3.875
      vertex -2.5 14 3.825
    endloop
  endfacet
  facet normal 0 -1 0
    outer loop
      vertex -2.5 14 3.825
      vertex 2.5 14 3.925
      vertex -2.5 14 3.925
    endloop
  endfacet
  facet normal 0 -1 -0
    outer loop
      vertex 2.5 14 3.925
      vertex -2.5 14 3.825
      vertex 2.5 14 3.825
    endloop
  endfacet
  facet normal 0.622913 0.0756171 0.778628
    outer loop
      vertex 5.06688 16.4786 3.875
      vertex 3.85321 16.1795 4.875
      vertex 3.875 16 4.875
    endloop
  endfacet
  facet normal 0.615458 0.111343 0.780266
    outer loop
      vertex 5.06688 16.4786 3.875
      vertex 3.75 16.75 4.875
      vertex 3.85321 16.1795 4.875
    endloop
  endfacet
  facet normal 0.569002 0.392752 -0.722484
    outer loop
      vertex 4.89591 16.9294 3.875
      vertex 3.75 16.75 2.875
      vertex 4.62202 17.3262 3.875
    endloop
  endfacet
  facet normal 0.569002 0.392752 0.722484
    outer loop
      vertex 4.62202 17.3262 3.875
      vertex 3.75 16.75 4.875
      vertex 4.89591 16.9294 3.875
    endloop
  endfacet
  facet normal 0.160391 -0.650656 -0.742241
    outer loop
      vertex 3.83421 14.13 3.875
      vertex 3.36607 14.0146 3.875
      vertex 3.75 15.25 2.875
    endloop
  endfacet
  facet normal 0.160391 -0.650656 0.742241
    outer loop
      vertex 3.75 15.25 4.875
      vertex 3.36607 14.0146 3.875
      vertex 3.83421 14.13 3.875
    endloop
  endfacet
  facet normal -0.622905 -0.0756441 0.778632
    outer loop
      vertex -3.875 16 4.875
      vertex -5.125 16 3.875
      vertex -5.06688 15.5214 3.875
    endloop
  endfacet
  facet normal -0.612771 -0.0744133 -0.78675
    outer loop
      vertex -5.06688 15.5214 3.875
      vertex -5.125 16 3.875
      vertex -3.75 15.25 2.875
    endloop
  endfacet
  facet normal -0.160391 0.650656 -0.742241
    outer loop
      vertex -3.75 16.75 2.875
      vertex -3.83421 17.87 3.875
      vertex -3.36607 17.9854 3.875
    endloop
  endfacet
  facet normal -0.0550817 0.638497 0.767651
    outer loop
      vertex -3.36607 17.9854 3.875
      vertex -3.75 16.75 4.875
      vertex -2.5 18 3.925
    endloop
  endfacet
  facet normal -0.618096 0.234418 0.750337
    outer loop
      vertex -4.89591 16.9294 3.875
      vertex -5.06688 16.4786 3.875
      vertex -3.75 16.75 4.875
    endloop
  endfacet
  facet normal -0.618096 0.234418 -0.750337
    outer loop
      vertex -3.75 16.75 2.875
      vertex -5.06688 16.4786 3.875
      vertex -4.89591 16.9294 3.875
    endloop
  endfacet
  facet normal -0.569002 -0.392752 -0.722484
    outer loop
      vertex -4.62202 14.6738 3.875
      vertex -4.89591 15.0706 3.875
      vertex -3.75 15.25 2.875
    endloop
  endfacet
  facet normal -0.569002 -0.392752 0.722484
    outer loop
      vertex -3.75 15.25 4.875
      vertex -4.89591 15.0706 3.875
      vertex -4.62202 14.6738 3.875
    endloop
  endfacet
  facet normal -0.160391 -0.650656 -0.742241
    outer loop
      vertex -3.36607 14.0146 3.875
      vertex -3.83421 14.13 3.875
      vertex -3.75 15.25 2.875
    endloop
  endfacet
  facet normal -0.160391 -0.650656 0.742241
    outer loop
      vertex -3.75 15.25 4.875
      vertex -3.83421 14.13 3.875
      vertex -3.36607 14.0146 3.875
    endloop
  endfacet
  facet normal 0.0550817 -0.638497 0.767651
    outer loop
      vertex 3.75 15.25 4.875
      vertex 2.5 14 3.925
      vertex 3.36607 14.0146 3.875
    endloop
  endfacet
  facet normal 0.0168554 -0.999858 0
    outer loop
      vertex 2.5 14 3.925
      vertex 2.5 14 3.825
      vertex 3.36607 14.0146 3.875
    endloop
  endfacet
  facet normal 0.618096 -0.234418 -0.750337
    outer loop
      vertex 4.89591 15.0706 3.875
      vertex 3.75 15.25 2.875
      vertex 5.06688 15.5214 3.875
    endloop
  endfacet
  facet normal 0.618096 -0.234418 0.750337
    outer loop
      vertex 5.06688 15.5214 3.875
      vertex 3.75 15.25 4.875
      vertex 4.89591 15.0706 3.875
    endloop
  endfacet
  facet normal -0.323498 0.616553 -0.717782
    outer loop
      vertex -3.75 16.75 2.875
      vertex -4.26113 17.646 3.875
      vertex -3.83421 17.87 3.875
    endloop
  endfacet
  facet normal -0.323498 0.616553 0.717782
    outer loop
      vertex -3.83421 17.87 3.875
      vertex -4.26113 17.646 3.875
      vertex -3.75 16.75 4.875
    endloop
  endfacet
  facet normal -0.569002 0.392752 -0.722484
    outer loop
      vertex -3.75 16.75 2.875
      vertex -4.89591 16.9294 3.875
      vertex -4.62202 17.3262 3.875
    endloop
  endfacet
  facet normal -0.569002 0.392752 0.722484
    outer loop
      vertex -4.62202 17.3262 3.875
      vertex -4.89591 16.9294 3.875
      vertex -3.75 16.75 4.875
    endloop
  endfacet
  facet normal -0.622913 0.0756171 0.778628
    outer loop
      vertex -3.85321 16.1795 4.875
      vertex -5.06688 16.4786 3.875
      vertex -3.875 16 4.875
    endloop
  endfacet
  facet normal -0.615458 0.111343 0.780266
    outer loop
      vertex -3.75 16.75 4.875
      vertex -5.06688 16.4786 3.875
      vertex -3.85321 16.1795 4.875
    endloop
  endfacet
  facet normal -0.618096 -0.234418 -0.750337
    outer loop
      vertex -4.89591 15.0706 3.875
      vertex -5.06688 15.5214 3.875
      vertex -3.75 15.25 2.875
    endloop
  endfacet
  facet normal -0.618096 -0.234418 0.750337
    outer loop
      vertex -3.75 15.25 4.875
      vertex -5.06688 15.5214 3.875
      vertex -4.89591 15.0706 3.875
    endloop
  endfacet
  facet normal -0.323498 -0.616553 -0.717782
    outer loop
      vertex -3.83421 14.13 3.875
      vertex -4.26113 14.354 3.875
      vertex -3.75 15.25 2.875
    endloop
  endfacet
  facet normal -0.323498 -0.616553 0.717782
    outer loop
      vertex -3.75 15.25 4.875
      vertex -4.26113 14.354 3.875
      vertex -3.83421 14.13 3.875
    endloop
  endfacet
  facet normal 0.323498 -0.616553 -0.717782
    outer loop
      vertex 3.83421 14.13 3.875
      vertex 3.75 15.25 2.875
      vertex 4.26113 14.354 3.875
    endloop
  endfacet
  facet normal 0.323498 -0.616553 0.717782
    outer loop
      vertex 4.26113 14.354 3.875
      vertex 3.75 15.25 4.875
      vertex 3.83421 14.13 3.875
    endloop
  endfacet
  facet normal 0.569002 -0.392752 -0.722484
    outer loop
      vertex 4.62202 14.6738 3.875
      vertex 3.75 15.25 2.875
      vertex 4.89591 15.0706 3.875
    endloop
  endfacet
  facet normal 0.569002 -0.392752 0.722484
    outer loop
      vertex 4.89591 15.0706 3.875
      vertex 3.75 15.25 4.875
      vertex 4.62202 14.6738 3.875
    endloop
  endfacet
  facet normal 1 -0 0
    outer loop
      vertex 3.75 25.25 2.875
      vertex 3.75 26.75 0.875
      vertex 3.75 26.75 2.875
    endloop
  endfacet
  facet normal 1 0 0
    outer loop
      vertex 3.75 26.75 0.875
      vertex 3.75 25.25 2.875
      vertex 3.75 25.25 0.875
    endloop
  endfacet
  facet normal -1 0 0
    outer loop
      vertex -3.75 25.25 0.875
      vertex -3.75 26.75 2.875
      vertex -3.75 26.75 0.875
    endloop
  endfacet
  facet normal -1 -0 0
    outer loop
      vertex -3.75 26.75 2.875
      vertex -3.75 25.25 0.875
      vertex -3.75 25.25 2.875
    endloop
  endfacet
  facet normal 0 1 -0
    outer loop
      vertex 3.75 26.75 0.875
      vertex -3.75 26.75 2.875
      vertex 3.75 26.75 2.875
    endloop
  endfacet
  facet normal 0 1 0
    outer loop
      vertex -3.75 26.75 2.875
      vertex 3.75 26.75 0.875
      vertex -3.75 26.75 0.875
    endloop
  endfacet
  facet normal 0 -1 0
    outer loop
      vertex -3.75 25.25 0.875
      vertex 3.75 25.25 2.875
      vertex -3.75 25.25 2.875
    endloop
  endfacet
  facet normal 0 -1 -0
    outer loop
      vertex 3.75 25.25 2.875
      vertex -3.75 25.25 0.875
      vertex 3.75 25.25 0.875
    endloop
  endfacet
  facet normal 0.0550817 0.638497 0.767651
    outer loop
      vertex 3.36607 27.9854 3.875
      vertex 2.5 28 3.925
      vertex 3.75 26.75 4.875
    endloop
  endfacet
  facet normal 0.622913 -0.0756171 0.778628
    outer loop
      vertex 3.875 26 4.875
      vertex 3.85321 25.8205 4.875
      vertex 5.06688 25.5214 3.875
    endloop
  endfacet
  facet normal 0.612771 -0.0744133 -0.78675
    outer loop
      vertex 5.06688 25.5214 3.875
      vertex 3.75 25.25 2.875
      vertex 5.125 26 3.875
    endloop
  endfacet
  facet normal 0 1 -0
    outer loop
      vertex 2.5 28 3.825
      vertex -2.5 28 3.925
      vertex 2.5 28 3.925
    endloop
  endfacet
  facet normal 0 1 0
    outer loop
      vertex -2.5 28 3.925
      vertex 2.5 28 3.825
      vertex -2.5 28 3.825
    endloop
  endfacet
  facet normal 0.466722 0.52669 0.71047
    outer loop
      vertex 4.26113 27.646 3.875
      vertex 3.75 26.75 4.875
      vertex 4.62202 27.3262 3.875
    endloop
  endfacet
  facet normal -0.0168554 0.999858 0
    outer loop
      vertex -2.5 28 3.825
      vertex -3.36607 27.9854 3.875
      vertex -2.5 28 3.925
    endloop
  endfacet
  facet normal -0 0.605083 0.796162
    outer loop
      vertex -2.5 28 3.925
      vertex 3.75 26.75 4.875
      vertex 2.5 28 3.925
    endloop
  endfacet
  facet normal 0 0.605083 0.796162
    outer loop
      vertex 3.75 26.75 4.875
      vertex -2.5 28 3.925
      vertex -3.75 26.75 4.875
    endloop
  endfacet
  facet normal -0.0550817 -0.638497 -0.767651
    outer loop
      vertex -3.36607 24.0146 3.875
      vertex -3.75 25.25 2.875
      vertex -2.5 24 3.825
    endloop
  endfacet
  facet normal 0.466722 0.52669 -0.71047
    outer loop
      vertex 4.62202 27.3262 3.875
      vertex 3.75 26.75 2.875
      vertex 4.26113 27.646 3.875
    endloop
  endfacet
  facet normal 0.622905 -0.0756441 0.778632
    outer loop
      vertex 5.125 26 3.875
      vertex 3.875 26 4.875
      vertex 5.06688 25.5214 3.875
    endloop
  endfacet
  facet normal -0.615458 -0.111343 0.780266
    outer loop
      vertex -3.85321 25.8205 4.875
      vertex -5.06688 25.5214 3.875
      vertex -3.75 25.25 4.875
    endloop
  endfacet
  facet normal -0.612771 0.0744133 -0.78675
    outer loop
      vertex -3.75 26.75 2.875
      vertex -5.125 26 3.875
      vertex -5.06688 26.4786 3.875
    endloop
  endfacet
  facet normal 0.160391 0.650656 -0.742241
    outer loop
      vertex 3.75 26.75 2.875
      vertex 3.36607 27.9854 3.875
      vertex 3.83421 27.87 3.875
    endloop
  endfacet
  facet normal 0.160391 0.650656 0.742241
    outer loop
      vertex 3.83421 27.87 3.875
      vertex 3.36607 27.9854 3.875
      vertex 3.75 26.75 4.875
    endloop
  endfacet
  facet normal 0.0550817 -0.638497 -0.767651
    outer loop
      vertex 3.36607 24.0146 3.875
      vertex 2.5 24 3.825
      vertex 3.75 25.25 2.875
    endloop
  endfacet
  facet normal 0 -0.605083 0.796162
    outer loop
      vertex 3.75 25.25 4.875
      vertex -2.5 24 3.925
      vertex 2.5 24 3.925
    endloop
  endfacet
  facet normal 0 -0.605083 0.796162
    outer loop
      vertex -2.5 24 3.925
      vertex 3.75 25.25 4.875
      vertex -3.75 25.25 4.875
    endloop
  endfacet
  facet normal -0.0550817 0.638497 -0.767651
    outer loop
      vertex -2.5 28 3.825
      vertex -3.75 26.75 2.875
      vertex -3.36607 27.9854 3.875
    endloop
  endfacet
  facet normal 0 0.605083 -0.796162
    outer loop
      vertex 3.75 26.75 2.875
      vertex -2.5 28 3.825
      vertex 2.5 28 3.825
    endloop
  endfacet
  facet normal 0 0.605083 -0.796162
    outer loop
      vertex -2.5 28 3.825
      vertex 3.75 26.75 2.875
      vertex -3.75 26.75 2.875
    endloop
  endfacet
  facet normal -0.588172 0 -0.808736
    outer loop
      vertex -3.75 25.25 2.875
      vertex -5.125 26 3.875
      vertex -3.75 26.75 2.875
    endloop
  endfacet
  facet normal -0.0550817 -0.638497 0.767651
    outer loop
      vertex -2.5 24 3.925
      vertex -3.75 25.25 4.875
      vertex -3.36607 24.0146 3.875
    endloop
  endfacet
  facet normal 0.588172 0 -0.808736
    outer loop
      vertex 5.125 26 3.875
      vertex 3.75 25.25 2.875
      vertex 3.75 26.75 2.875
    endloop
  endfacet
  facet normal 0.0550817 0.638497 -0.767651
    outer loop
      vertex 3.75 26.75 2.875
      vertex 2.5 28 3.825
      vertex 3.36607 27.9854 3.875
    endloop
  endfacet
  facet normal 0.0168554 0.999858 0
    outer loop
      vertex 3.36607 27.9854 3.875
      vertex 2.5 28 3.825
      vertex 2.5 28 3.925
    endloop
  endfacet
  facet normal 0.323498 0.616553 -0.717782
    outer loop
      vertex 4.26113 27.646 3.875
      vertex 3.75 26.75 2.875
      vertex 3.83421 27.87 3.875
    endloop
  endfacet
  facet normal 0.323498 0.616553 0.717782
    outer loop
      vertex 3.83421 27.87 3.875
      vertex 3.75 26.75 4.875
      vertex 4.26113 27.646 3.875
    endloop
  endfacet
  facet normal 0.612771 0.0744133 -0.78675
    outer loop
      vertex 5.125 26 3.875
      vertex 3.75 26.75 2.875
      vertex 5.06688 26.4786 3.875
    endloop
  endfacet
  facet normal 0.622905 0.0756441 0.778632
    outer loop
      vertex 5.06688 26.4786 3.875
      vertex 3.875 26 4.875
      vertex 5.125 26 3.875
    endloop
  endfacet
  facet normal -0.622913 -0.0756171 0.778628
    outer loop
      vertex -3.875 26 4.875
      vertex -5.06688 25.5214 3.875
      vertex -3.85321 25.8205 4.875
    endloop
  endfacet
  facet normal 0 0 1
    outer loop
      vertex 3.85321 26.1795 4.875
      vertex 3.85321 25.8205 4.875
      vertex 3.875 26 4.875
    endloop
  endfacet
  facet normal 0 0 1
    outer loop
      vertex 3.75 26.75 4.875
      vertex 3.85321 25.8205 4.875
      vertex 3.85321 26.1795 4.875
    endloop
  endfacet
  facet normal 0 0 1
    outer loop
      vertex 3.75 26.75 4.875
      vertex 3.75 25.25 4.875
      vertex 3.85321 25.8205 4.875
    endloop
  endfacet
  facet normal -0 0 1
    outer loop
      vertex -3.75 26.75 4.875
      vertex 3.75 25.25 4.875
      vertex 3.75 26.75 4.875
    endloop
  endfacet
  facet normal 0 0 1
    outer loop
      vertex -3.75 26.75 4.875
      vertex -3.75 25.25 4.875
      vertex 3.75 25.25 4.875
    endloop
  endfacet
  facet normal -0 0 1
    outer loop
      vertex -3.85321 26.1795 4.875
      vertex -3.75 25.25 4.875
      vertex -3.75 26.75 4.875
    endloop
  endfacet
  facet normal 0 0 1
    outer loop
      vertex -3.85321 26.1795 4.875
      vertex -3.85321 25.8205 4.875
      vertex -3.75 25.25 4.875
    endloop
  endfacet
  facet normal 0 -0 1
    outer loop
      vertex -3.85321 25.8205 4.875
      vertex -3.85321 26.1795 4.875
      vertex -3.875 26 4.875
    endloop
  endfacet
  facet normal -0.466722 0.52669 0.71047
    outer loop
      vertex -4.26113 27.646 3.875
      vertex -4.62202 27.3262 3.875
      vertex -3.75 26.75 4.875
    endloop
  endfacet
  facet normal 0 -0.605083 -0.796162
    outer loop
      vertex -2.5 24 3.825
      vertex 3.75 25.25 2.875
      vertex 2.5 24 3.825
    endloop
  endfacet
  facet normal -0 -0.605083 -0.796162
    outer loop
      vertex 3.75 25.25 2.875
      vertex -2.5 24 3.825
      vertex -3.75 25.25 2.875
    endloop
  endfacet
  facet normal 0.618096 0.234418 0.750337
    outer loop
      vertex 4.89591 26.9294 3.875
      vertex 3.75 26.75 4.875
      vertex 5.06688 26.4786 3.875
    endloop
  endfacet
  facet normal 0.618096 0.234418 -0.750337
    outer loop
      vertex 5.06688 26.4786 3.875
      vertex 3.75 26.75 2.875
      vertex 4.89591 26.9294 3.875
    endloop
  endfacet
  facet normal 0.466722 -0.52669 -0.71047
    outer loop
      vertex 4.26113 24.354 3.875
      vertex 3.75 25.25 2.875
      vertex 4.62202 24.6738 3.875
    endloop
  endfacet
  facet normal 0.466722 -0.52669 0.71047
    outer loop
      vertex 4.62202 24.6738 3.875
      vertex 3.75 25.25 4.875
      vertex 4.26113 24.354 3.875
    endloop
  endfacet
  facet normal -0.466722 0.52669 -0.71047
    outer loop
      vertex -3.75 26.75 2.875
      vertex -4.62202 27.3262 3.875
      vertex -4.26113 27.646 3.875
    endloop
  endfacet
  facet normal -0.160391 0.650656 0.742241
    outer loop
      vertex -3.36607 27.9854 3.875
      vertex -3.83421 27.87 3.875
      vertex -3.75 26.75 4.875
    endloop
  endfacet
  facet normal -0.466722 -0.52669 0.71047
    outer loop
      vertex -3.75 25.25 4.875
      vertex -4.62202 24.6738 3.875
      vertex -4.26113 24.354 3.875
    endloop
  endfacet
  facet normal -0.466722 -0.52669 -0.71047
    outer loop
      vertex -4.26113 24.354 3.875
      vertex -4.62202 24.6738 3.875
      vertex -3.75 25.25 2.875
    endloop
  endfacet
  facet normal -0.622905 0.0756441 0.778632
    outer loop
      vertex -5.06688 26.4786 3.875
      vertex -5.125 26 3.875
      vertex -3.875 26 4.875
    endloop
  endfacet
  facet normal 0.615458 -0.111343 0.780266
    outer loop
      vertex 3.85321 25.8205 4.875
      vertex 3.75 25.25 4.875
      vertex 5.06688 25.5214 3.875
    endloop
  endfacet
  facet normal -0.0168554 -0.999858 -0
    outer loop
      vertex -2.5 24 3.925
      vertex -3.36607 24.0146 3.875
      vertex -2.5 24 3.825
    endloop
  endfacet
  facet normal 0 -1 0
    outer loop
      vertex -2.5 24 3.825
      vertex 2.5 24 3.925
      vertex -2.5 24 3.925
    endloop
  endfacet
  facet normal 0 -1 -0
    outer loop
      vertex 2.5 24 3.925
      vertex -2.5 24 3.825
      vertex 2.5 24 3.825
    endloop
  endfacet
  facet normal 0.622913 0.0756171 0.778628
    outer loop
      vertex 5.06688 26.4786 3.875
      vertex 3.85321 26.1795 4.875
      vertex 3.875 26 4.875
    endloop
  endfacet
  facet normal 0.615458 0.111343 0.780266
    outer loop
      vertex 5.06688 26.4786 3.875
      vertex 3.75 26.75 4.875
      vertex 3.85321 26.1795 4.875
    endloop
  endfacet
  facet normal 0.569002 0.392752 -0.722484
    outer loop
      vertex 4.89591 26.9294 3.875
      vertex 3.75 26.75 2.875
      vertex 4.62202 27.3262 3.875
    endloop
  endfacet
  facet normal 0.569002 0.392752 0.722484
    outer loop
      vertex 4.62202 27.3262 3.875
      vertex 3.75 26.75 4.875
      vertex 4.89591 26.9294 3.875
    endloop
  endfacet
  facet normal 0.160391 -0.650656 -0.742241
    outer loop
      vertex 3.83421 24.13 3.875
      vertex 3.36607 24.0146 3.875
      vertex 3.75 25.25 2.875
    endloop
  endfacet
  facet normal 0.160391 -0.650656 0.742241
    outer loop
      vertex 3.75 25.25 4.875
      vertex 3.36607 24.0146 3.875
      vertex 3.83421 24.13 3.875
    endloop
  endfacet
  facet normal -0.622905 -0.0756441 0.778632
    outer loop
      vertex -3.875 26 4.875
      vertex -5.125 26 3.875
      vertex -5.06688 25.5214 3.875
    endloop
  endfacet
  facet normal -0.612771 -0.0744133 -0.78675
    outer loop
      vertex -5.06688 25.5214 3.875
      vertex -5.125 26 3.875
      vertex -3.75 25.25 2.875
    endloop
  endfacet
  facet normal -0.160391 0.650656 -0.742241
    outer loop
      vertex -3.75 26.75 2.875
      vertex -3.83421 27.87 3.875
      vertex -3.36607 27.9854 3.875
    endloop
  endfacet
  facet normal -0.0550817 0.638497 0.767651
    outer loop
      vertex -3.36607 27.9854 3.875
      vertex -3.75 26.75 4.875
      vertex -2.5 28 3.925
    endloop
  endfacet
  facet normal -0.618096 0.234418 0.750337
    outer loop
      vertex -4.89591 26.9294 3.875
      vertex -5.06688 26.4786 3.875
      vertex -3.75 26.75 4.875
    endloop
  endfacet
  facet normal -0.618096 0.234418 -0.750337
    outer loop
      vertex -3.75 26.75 2.875
      vertex -5.06688 26.4786 3.875
      vertex -4.89591 26.9294 3.875
    endloop
  endfacet
  facet normal -0.569002 -0.392752 -0.722484
    outer loop
      vertex -4.62202 24.6738 3.875
      vertex -4.89591 25.0706 3.875
      vertex -3.75 25.25 2.875
    endloop
  endfacet
  facet normal -0.569002 -0.392752 0.722484
    outer loop
      vertex -3.75 25.25 4.875
      vertex -4.89591 25.0706 3.875
      vertex -4.62202 24.6738 3.875
    endloop
  endfacet
  facet normal -0.160391 -0.650656 -0.742241
    outer loop
      vertex -3.36607 24.0146 3.875
      vertex -3.83421 24.13 3.875
      vertex -3.75 25.25 2.875
    endloop
  endfacet
  facet normal -0.160391 -0.650656 0.742241
    outer loop
      vertex -3.75 25.25 4.875
      vertex -3.83421 24.13 3.875
      vertex -3.36607 24.0146 3.875
    endloop
  endfacet
  facet normal 0.0550817 -0.638497 0.767651
    outer loop
      vertex 3.75 25.25 4.875
      vertex 2.5 24 3.925
      vertex 3.36607 24.0146 3.875
    endloop
  endfacet
  facet normal 0.0168554 -0.999858 0
    outer loop
      vertex 2.5 24 3.925
      vertex 2.5 24 3.825
      vertex 3.36607 24.0146 3.875
    endloop
  endfacet
  facet normal 0.618096 -0.234418 -0.750337
    outer loop
      vertex 4.89591 25.0706 3.875
      vertex 3.75 25.25 2.875
      vertex 5.06688 25.5214 3.875
    endloop
  endfacet
  facet normal 0.618096 -0.234418 0.750337
    outer loop
      vertex 5.06688 25.5214 3.875
      vertex 3.75 25.25 4.875
      vertex 4.89591 25.0706 3.875
    endloop
  endfacet
  facet normal -0.323498 0.616553 -0.717782
    outer loop
      vertex -3.75 26.75 2.875
      vertex -4.26113 27.646 3.875
      vertex -3.83421 27.87 3.875
    endloop
  endfacet
  facet normal -0.323498 0.616553 0.717782
    outer loop
      vertex -3.83421 27.87 3.875
      vertex -4.26113 27.646 3.875
      vertex -3.75 26.75 4.875
    endloop
  endfacet
  facet normal -0.569002 0.392752 -0.722484
    outer loop
      vertex -3.75 26.75 2.875
      vertex -4.89591 26.9294 3.875
      vertex -4.62202 27.3262 3.875
    endloop
  endfacet
  facet normal -0.569002 0.392752 0.722484
    outer loop
      vertex -4.62202 27.3262 3.875
      vertex -4.89591 26.9294 3.875
      vertex -3.75 26.75 4.875
    endloop
  endfacet
  facet normal -0.622913 0.0756171 0.778628
    outer loop
      vertex -3.85321 26.1795 4.875
      vertex -5.06688 26.4786 3.875
      vertex -3.875 26 4.875
    endloop
  endfacet
  facet normal -0.615458 0.111343 0.780266
    outer loop
      vertex -3.75 26.75 4.875
      vertex -5.06688 26.4786 3.875
      vertex -3.85321 26.1795 4.875
    endloop
  endfacet
  facet normal -0.618096 -0.234418 -0.750337
    outer loop
      vertex -4.89591 25.0706 3.875
      vertex -5.06688 25.5214 3.875
      vertex -3.75 25.25 2.875
    endloop
  endfacet
  facet normal -0.618096 -0.234418 0.750337
    outer loop
      vertex -3.75 25.25 4.875
      vertex -5.06688 25.5214 3.875
      vertex -4.89591 25.0706 3.875
    endloop
  endfacet
  facet normal -0.323498 -0.616553 -0.717782
    outer loop
      vertex -3.83421 24.13 3.875
      vertex -4.26113 24.354 3.875
      vertex -3.75 25.25 2.875
    endloop
  endfacet
  facet normal -0.323498 -0.616553 0.717782
    outer loop
      vertex -3.75 25.25 4.875
      vertex -4.26113 24.354 3.875
      vertex -3.83421 24.13 3.875
    endloop
  endfacet
  facet normal 0.323498 -0.616553 -0.717782
    outer loop
      vertex 3.83421 24.13 3.875
      vertex 3.75 25.25 2.875
      vertex 4.26113 24.354 3.875
    endloop
  endfacet
  facet normal 0.323498 -0.616553 0.717782
    outer loop
      vertex 4.26113 24.354 3.875
      vertex 3.75 25.25 4.875
      vertex 3.83421 24.13 3.875
    endloop
  endfacet
  facet normal 0.569002 -0.392752 -0.722484
    outer loop
      vertex 4.62202 24.6738 3.875
      vertex 3.75 25.25 2.875
      vertex 4.89591 25.0706 3.875
    endloop
  endfacet
  facet normal 0.569002 -0.392752 0.722484
    outer loop
      vertex 4.89591 25.0706 3.875
      vertex 3.75 25.25 4.875
      vertex 4.62202 24.6738 3.875
    endloop
  endfacet
endsolid OpenSCAD_Model
