solid OpenSCAD_Model
  facet normal 1 -0 0
    outer loop
      vertex 4.5 -0.9 1.25
      vertex 4.5 0.9 0
      vertex 4.5 0.9 1.25
    endloop
  endfacet
  facet normal 1 0 0
    outer loop
      vertex 4.5 0.9 0
      vertex 4.5 -0.9 1.25
      vertex 4.5 -0.9 0
    endloop
  endfacet
  facet normal 0 0 -1
    outer loop
      vertex -4.5 -0.9 0
      vertex 4.5 0.9 0
      vertex 4.5 -0.9 0
    endloop
  endfacet
  facet normal -0 0 -1
    outer loop
      vertex 4.5 0.9 0
      vertex -4.5 -0.9 0
      vertex -4.5 0.9 0
    endloop
  endfacet
  facet normal -1 0 0
    outer loop
      vertex -4.5 -0.9 0
      vertex -4.5 0.9 1.25
      vertex -4.5 0.9 0
    endloop
  endfacet
  facet normal -1 -0 0
    outer loop
      vertex -4.5 0.9 1.25
      vertex -4.5 -0.9 0
      vertex -4.5 -0.9 1.25
    endloop
  endfacet
  facet normal 0 1 -0
    outer loop
      vertex 4.5 0.9 0
      vertex -4.5 0.9 1.25
      vertex 4.5 0.9 1.25
    endloop
  endfacet
  facet normal 0 1 0
    outer loop
      vertex -4.5 0.9 1.25
      vertex 4.5 0.9 0
      vertex -4.5 0.9 0
    endloop
  endfacet
  facet normal 0 -1 0
    outer loop
      vertex -4.5 -0.9 0
      vertex 4.5 -0.9 1.25
      vertex -4.5 -0.9 1.25
    endloop
  endfacet
  facet normal 0 -1 -0
    outer loop
      vertex 4.5 -0.9 1.25
      vertex -4.5 -0.9 0
      vertex 4.5 -0.9 0
    endloop
  endfacet
  facet normal 0.0509945 0.570254 -0.819884
    outer loop
      vertex 4.5 0.9 1.25
      vertex 3 2.4 2.2
      vertex 4.11343 2.37232 2.25
    endloop
  endfacet
  facet normal -0.0491031 0.568991 0.820876
    outer loop
      vertex -3.87156 2.39692 2.25
      vertex -4.5 0.9 3.25
      vertex -3 2.4 2.3
    endloop
  endfacet
  facet normal 0.0509945 0.570254 0.819884
    outer loop
      vertex 4.11343 2.37232 2.25
      vertex 3 2.4 2.3
      vertex 4.5 0.9 3.25
    endloop
  endfacet
  facet normal -0.0491031 -0.568991 -0.820876
    outer loop
      vertex -3.87156 -2.39692 2.25
      vertex -4.5 -0.9 1.25
      vertex -3 -2.4 2.2
    endloop
  endfacet
  facet normal -0.0491031 0.568991 -0.820876
    outer loop
      vertex -3 2.4 2.2
      vertex -4.5 0.9 1.25
      vertex -3.87156 2.39692 2.25
    endloop
  endfacet
  facet normal 0.539228 0.0548362 -0.840373
    outer loop
      vertex 6.15 0 2.25
      vertex 4.5 0.9 1.25
      vertex 6.10087 0.483116 2.25
    endloop
  endfacet
  facet normal -0.00353387 -0.999994 -0
    outer loop
      vertex -3 -2.4 2.3
      vertex -3.87156 -2.39692 2.25
      vertex -3 -2.4 2.2
    endloop
  endfacet
  facet normal 0.553821 0.0563202 0.830729
    outer loop
      vertex 6.10087 0.483116 2.25
      vertex 4.63158 0.181169 3.25
      vertex 6.15 0 2.25
    endloop
  endfacet
  facet normal -0.213477 0.576419 0.788777
    outer loop
      vertex -4.35157 2.32338 2.25
      vertex -4.80695 2.15473 2.25
      vertex -4.5 0.9 3.25
    endloop
  endfacet
  facet normal 0.388623 -0.502053 -0.772603
    outer loop
      vertex 5.01951 -2.03675 2.25
      vertex 4.5 -0.9 1.25
      vertex 5.40352 -1.7395 2.25
    endloop
  endfacet
  facet normal 0.00490097 0.999988 -1.00531e-18
    outer loop
      vertex 3.62844 2.39692 2.25
      vertex 3 2.4 2.2
      vertex 3 2.4 2.3
    endloop
  endfacet
  facet normal 0.15075 0.582217 0.798935
    outer loop
      vertex 4.58353 2.2506 2.25
      vertex 4.11343 2.37232 2.25
      vertex 4.5 0.9 3.25
    endloop
  endfacet
  facet normal -0.550473 0.113134 -0.827152
    outer loop
      vertex -4.5 0.9 1.25
      vertex -6.13769 0.242804 2.25
      vertex -6.03993 0.718471 2.25
    endloop
  endfacet
  facet normal 0 -0.535052 -0.844819
    outer loop
      vertex -3 -2.4 2.2
      vertex 4.5 -0.9 1.25
      vertex 3 -2.4 2.2
    endloop
  endfacet
  facet normal -0 -0.535052 -0.844819
    outer loop
      vertex 4.5 -0.9 1.25
      vertex -3 -2.4 2.2
      vertex -4.5 -0.9 1.25
    endloop
  endfacet
  facet normal -0.213477 0.576419 -0.788777
    outer loop
      vertex -4.5 0.9 1.25
      vertex -4.80695 2.15473 2.25
      vertex -4.35157 2.32338 2.25
    endloop
  endfacet
  facet normal -0.521142 0 -0.85347
    outer loop
      vertex -6.13769 -0.242804 2.25
      vertex -4.5 0.9 1.25
      vertex -4.5 -0.9 1.25
    endloop
  endfacet
  facet normal -0.521142 0 -0.85347
    outer loop
      vertex -4.5 0.9 1.25
      vertex -6.13769 -0.242804 2.25
      vertex -6.13769 0.242804 2.25
    endloop
  endfacet
  facet normal 0 1 -0
    outer loop
      vertex 3 2.4 2.2
      vertex -3 2.4 2.3
      vertex 3 2.4 2.3
    endloop
  endfacet
  facet normal 0 1 0
    outer loop
      vertex -3 2.4 2.3
      vertex 3 2.4 2.2
      vertex -3 2.4 2.2
    endloop
  endfacet
  facet normal 0 0.535052 -0.844819
    outer loop
      vertex 4.5 0.9 1.25
      vertex -3 2.4 2.2
      vertex 3 2.4 2.2
    endloop
  endfacet
  facet normal 0 0.535052 -0.844819
    outer loop
      vertex -3 2.4 2.2
      vertex 4.5 0.9 1.25
      vertex -4.5 0.9 1.25
    endloop
  endfacet
  facet normal 0.0439119 0.865724 0.498591
    outer loop
      vertex 3.62844 2.39692 2.25
      vertex 3 2.4 2.3
      vertex 4.11343 2.37232 2.25
    endloop
  endfacet
  facet normal 0.0439119 0.865724 -0.498591
    outer loop
      vertex 4.11343 2.37232 2.25
      vertex 3 2.4 2.2
      vertex 3.62844 2.39692 2.25
    endloop
  endfacet
  facet normal 0 -1 0
    outer loop
      vertex -3 -2.4 2.2
      vertex 3 -2.4 2.3
      vertex -3 -2.4 2.3
    endloop
  endfacet
  facet normal 0 -1 -0
    outer loop
      vertex 3 -2.4 2.3
      vertex -3 -2.4 2.2
      vertex 3 -2.4 2.2
    endloop
  endfacet
  facet normal 0.55382 0.0563086 0.83073
    outer loop
      vertex 6.15 0 2.25
      vertex 4.63158 0.181169 3.25
      vertex 4.65 0 3.25
    endloop
  endfacet
  facet normal 0.478092 0.410425 -0.776517
    outer loop
      vertex 5.71983 1.37104 2.25
      vertex 4.5 0.9 1.25
      vertex 5.40352 1.7395 2.25
    endloop
  endfacet
  facet normal 0.275188 -0.561031 0.780715
    outer loop
      vertex 5.01951 -2.03675 2.25
      vertex 4.5 -0.9 3.25
      vertex 4.58353 -2.2506 2.25
    endloop
  endfacet
  facet normal -0.437044 -0.459774 -0.773046
    outer loop
      vertex -5.21905 -1.89786 2.25
      vertex -5.57102 -1.56329 2.25
      vertex -4.5 -0.9 1.25
    endloop
  endfacet
  facet normal -0.334153 -0.536086 0.775212
    outer loop
      vertex -4.5 -0.9 3.25
      vertex -5.21905 -1.89786 2.25
      vertex -4.80695 -2.15473 2.25
    endloop
  endfacet
  facet normal -0.00353387 0.999994 0
    outer loop
      vertex -3 2.4 2.2
      vertex -3.87156 2.39692 2.25
      vertex -3 2.4 2.3
    endloop
  endfacet
  facet normal -0 0.535052 0.844819
    outer loop
      vertex -3 2.4 2.3
      vertex 4.5 0.9 3.25
      vertex 3 2.4 2.3
    endloop
  endfacet
  facet normal 0 0.535052 0.844819
    outer loop
      vertex 4.5 0.9 3.25
      vertex -3 2.4 2.3
      vertex -4.5 0.9 3.25
    endloop
  endfacet
  facet normal -0.51074 0.355482 0.782801
    outer loop
      vertex -5.57102 1.56329 2.25
      vertex -5.84843 1.16472 2.25
      vertex -4.5 0.9 3.25
    endloop
  endfacet
  facet normal -0.51074 0.355482 -0.782801
    outer loop
      vertex -4.5 0.9 1.25
      vertex -5.84843 1.16472 2.25
      vertex -5.57102 1.56329 2.25
    endloop
  endfacet
  facet normal 0.00490097 -0.999988 0
    outer loop
      vertex 3 -2.4 2.3
      vertex 3 -2.4 2.2
      vertex 3.62844 -2.39692 2.25
    endloop
  endfacet
  facet normal -0.550473 -0.113134 -0.827152
    outer loop
      vertex -6.03993 -0.718471 2.25
      vertex -6.13769 -0.242804 2.25
      vertex -4.5 -0.9 1.25
    endloop
  endfacet
  facet normal -0.0886711 -0.578774 0.810653
    outer loop
      vertex -3.87156 -2.39692 2.25
      vertex -4.5 -0.9 3.25
      vertex -4.35157 -2.32338 2.25
    endloop
  endfacet
  facet normal 0.478092 0.410425 0.776517
    outer loop
      vertex 5.40352 1.7395 2.25
      vertex 4.5 0.9 3.25
      vertex 5.71983 1.37104 2.25
    endloop
  endfacet
  facet normal 0.388623 0.502053 0.772603
    outer loop
      vertex 5.01951 2.03675 2.25
      vertex 4.5 0.9 3.25
      vertex 5.40352 1.7395 2.25
    endloop
  endfacet
  facet normal 0.545724 -0.0998933 0.831989
    outer loop
      vertex 4.63158 -0.181169 3.25
      vertex 4.5 -0.9 3.25
      vertex 6.10087 -0.483116 2.25
    endloop
  endfacet
  facet normal 0.539228 -0.0548362 -0.840373
    outer loop
      vertex 6.10087 -0.483116 2.25
      vertex 4.5 -0.9 1.25
      vertex 6.15 0 2.25
    endloop
  endfacet
  facet normal 0.534347 -0.296594 -0.791521
    outer loop
      vertex 5.71983 -1.37104 2.25
      vertex 4.5 -0.9 1.25
      vertex 5.9555 -0.946454 2.25
    endloop
  endfacet
  facet normal -0.0886711 0.578774 -0.810653
    outer loop
      vertex -3.87156 2.39692 2.25
      vertex -4.5 0.9 1.25
      vertex -4.35157 2.32338 2.25
    endloop
  endfacet
  facet normal -0.0886711 0.578774 0.810653
    outer loop
      vertex -4.35157 2.32338 2.25
      vertex -4.5 0.9 3.25
      vertex -3.87156 2.39692 2.25
    endloop
  endfacet
  facet normal -0.334153 0.536086 0.775212
    outer loop
      vertex -4.80695 2.15473 2.25
      vertex -5.21905 1.89786 2.25
      vertex -4.5 0.9 3.25
    endloop
  endfacet
  facet normal -0.334153 0.536086 -0.775212
    outer loop
      vertex -4.5 0.9 1.25
      vertex -5.21905 1.89786 2.25
      vertex -4.80695 2.15473 2.25
    endloop
  endfacet
  facet normal -0.550473 0.113134 0.827152
    outer loop
      vertex -6.03993 0.718471 2.25
      vertex -6.13769 0.242804 2.25
      vertex -4.5 0.9 3.25
    endloop
  endfacet
  facet normal 0 -0.535052 0.844819
    outer loop
      vertex 4.5 -0.9 3.25
      vertex -3 -2.4 2.3
      vertex 3 -2.4 2.3
    endloop
  endfacet
  facet normal 0 -0.535052 0.844819
    outer loop
      vertex -3 -2.4 2.3
      vertex 4.5 -0.9 3.25
      vertex -4.5 -0.9 3.25
    endloop
  endfacet
  facet normal -0.0491031 -0.568991 0.820876
    outer loop
      vertex -3 -2.4 2.3
      vertex -4.5 -0.9 3.25
      vertex -3.87156 -2.39692 2.25
    endloop
  endfacet
  facet normal 0.0509945 -0.570254 0.819884
    outer loop
      vertex 4.5 -0.9 3.25
      vertex 3 -2.4 2.3
      vertex 4.11343 -2.37232 2.25
    endloop
  endfacet
  facet normal -0.547059 -0.0983145 0.831301
    outer loop
      vertex -4.64538 -0.0910511 3.25
      vertex -6.13769 -0.242804 2.25
      vertex -4.5 -0.9 3.25
    endloop
  endfacet
  facet normal -0.437044 -0.459774 0.773046
    outer loop
      vertex -4.5 -0.9 3.25
      vertex -5.57102 -1.56329 2.25
      vertex -5.21905 -1.89786 2.25
    endloop
  endfacet
  facet normal -0.548682 -0.235457 -0.802189
    outer loop
      vertex -5.84843 -1.16472 2.25
      vertex -6.03993 -0.718471 2.25
      vertex -4.5 -0.9 1.25
    endloop
  endfacet
  facet normal -0.334153 -0.536086 -0.775212
    outer loop
      vertex -4.80695 -2.15473 2.25
      vertex -5.21905 -1.89786 2.25
      vertex -4.5 -0.9 1.25
    endloop
  endfacet
  facet normal -0.213477 -0.576419 0.788777
    outer loop
      vertex -4.5 -0.9 3.25
      vertex -4.80695 -2.15473 2.25
      vertex -4.35157 -2.32338 2.25
    endloop
  endfacet
  facet normal 0.388623 0.502053 -0.772603
    outer loop
      vertex 5.40352 1.7395 2.25
      vertex 4.5 0.9 1.25
      vertex 5.01951 2.03675 2.25
    endloop
  endfacet
  facet normal 0.275188 0.561031 0.780715
    outer loop
      vertex 4.58353 2.2506 2.25
      vertex 4.5 0.9 3.25
      vertex 5.01951 2.03675 2.25
    endloop
  endfacet
  facet normal 0.553887 0.173779 0.814255
    outer loop
      vertex 5.9555 0.946454 2.25
      vertex 4.5 0.9 3.25
      vertex 6.10087 0.483116 2.25
    endloop
  endfacet
  facet normal 0.553887 0.173779 -0.814255
    outer loop
      vertex 6.10087 0.483116 2.25
      vertex 4.5 0.9 1.25
      vertex 5.9555 0.946454 2.25
    endloop
  endfacet
  facet normal 0.545724 0.0998933 0.831989
    outer loop
      vertex 6.10087 0.483116 2.25
      vertex 4.5 0.9 3.25
      vertex 4.63158 0.181169 3.25
    endloop
  endfacet
  facet normal 0.534347 -0.296594 0.791521
    outer loop
      vertex 5.9555 -0.946454 2.25
      vertex 4.5 -0.9 3.25
      vertex 5.71983 -1.37104 2.25
    endloop
  endfacet
  facet normal 0.388623 -0.502053 0.772603
    outer loop
      vertex 5.40352 -1.7395 2.25
      vertex 4.5 -0.9 3.25
      vertex 5.01951 -2.03675 2.25
    endloop
  endfacet
  facet normal 0 0 1
    outer loop
      vertex 4.63158 0.181169 3.25
      vertex 4.63158 -0.181169 3.25
      vertex 4.65 0 3.25
    endloop
  endfacet
  facet normal 0 0 1
    outer loop
      vertex 4.5 0.9 3.25
      vertex 4.63158 -0.181169 3.25
      vertex 4.63158 0.181169 3.25
    endloop
  endfacet
  facet normal 0 0 1
    outer loop
      vertex 4.5 0.9 3.25
      vertex 4.5 -0.9 3.25
      vertex 4.63158 -0.181169 3.25
    endloop
  endfacet
  facet normal -0 0 1
    outer loop
      vertex -4.5 0.9 3.25
      vertex 4.5 -0.9 3.25
      vertex 4.5 0.9 3.25
    endloop
  endfacet
  facet normal 0 0 1
    outer loop
      vertex -4.5 0.9 3.25
      vertex -4.5 -0.9 3.25
      vertex 4.5 -0.9 3.25
    endloop
  endfacet
  facet normal -0 0 1
    outer loop
      vertex -4.64538 0.0910511 3.25
      vertex -4.5 -0.9 3.25
      vertex -4.5 0.9 3.25
    endloop
  endfacet
  facet normal 0 0 1
    outer loop
      vertex -4.5 -0.9 3.25
      vertex -4.64538 0.0910511 3.25
      vertex -4.64538 -0.0910511 3.25
    endloop
  endfacet
  facet normal 0.518302 0 -0.855198
    outer loop
      vertex 6.15 0 2.25
      vertex 4.5 -0.9 1.25
      vertex 4.5 0.9 1.25
    endloop
  endfacet
  facet normal -0.437044 0.459774 -0.773046
    outer loop
      vertex -4.5 0.9 1.25
      vertex -5.57102 1.56329 2.25
      vertex -5.21905 1.89786 2.25
    endloop
  endfacet
  facet normal -0.437044 0.459774 0.773046
    outer loop
      vertex -5.21905 1.89786 2.25
      vertex -5.57102 1.56329 2.25
      vertex -4.5 0.9 3.25
    endloop
  endfacet
  facet normal -0.548682 0.235457 -0.802189
    outer loop
      vertex -4.5 0.9 1.25
      vertex -6.03993 0.718471 2.25
      vertex -5.84843 1.16472 2.25
    endloop
  endfacet
  facet normal -0.548682 0.235457 0.802189
    outer loop
      vertex -5.84843 1.16472 2.25
      vertex -6.03993 0.718471 2.25
      vertex -4.5 0.9 3.25
    endloop
  endfacet
  facet normal -0.556674 0 0.830731
    outer loop
      vertex -6.13769 0.242804 2.25
      vertex -4.64538 -0.0910511 3.25
      vertex -4.64538 0.0910511 3.25
    endloop
  endfacet
  facet normal -0.556674 0 0.830731
    outer loop
      vertex -4.64538 -0.0910511 3.25
      vertex -6.13769 0.242804 2.25
      vertex -6.13769 -0.242804 2.25
    endloop
  endfacet
  facet normal -0.547059 0.0983145 0.831301
    outer loop
      vertex -4.5 0.9 3.25
      vertex -6.13769 0.242804 2.25
      vertex -4.64538 0.0910511 3.25
    endloop
  endfacet
  facet normal 0.0509945 -0.570254 -0.819884
    outer loop
      vertex 4.11343 -2.37232 2.25
      vertex 3 -2.4 2.2
      vertex 4.5 -0.9 1.25
    endloop
  endfacet
  facet normal 0.15075 -0.582217 0.798935
    outer loop
      vertex 4.5 -0.9 3.25
      vertex 4.11343 -2.37232 2.25
      vertex 4.58353 -2.2506 2.25
    endloop
  endfacet
  facet normal 0.553821 -0.0563202 0.830729
    outer loop
      vertex 6.15 0 2.25
      vertex 4.63158 -0.181169 3.25
      vertex 6.10087 -0.483116 2.25
    endloop
  endfacet
  facet normal 0.55382 -0.0563086 0.83073
    outer loop
      vertex 4.65 0 3.25
      vertex 4.63158 -0.181169 3.25
      vertex 6.15 0 2.25
    endloop
  endfacet
  facet normal -0.548682 -0.235457 0.802189
    outer loop
      vertex -4.5 -0.9 3.25
      vertex -6.03993 -0.718471 2.25
      vertex -5.84843 -1.16472 2.25
    endloop
  endfacet
  facet normal -0.550473 -0.113134 0.827152
    outer loop
      vertex -4.5 -0.9 3.25
      vertex -6.13769 -0.242804 2.25
      vertex -6.03993 -0.718471 2.25
    endloop
  endfacet
  facet normal -0.51074 -0.355482 0.782801
    outer loop
      vertex -4.5 -0.9 3.25
      vertex -5.84843 -1.16472 2.25
      vertex -5.57102 -1.56329 2.25
    endloop
  endfacet
  facet normal -0.51074 -0.355482 -0.782801
    outer loop
      vertex -5.57102 -1.56329 2.25
      vertex -5.84843 -1.16472 2.25
      vertex -4.5 -0.9 1.25
    endloop
  endfacet
  facet normal -0.213477 -0.576419 -0.788777
    outer loop
      vertex -4.35157 -2.32338 2.25
      vertex -4.80695 -2.15473 2.25
      vertex -4.5 -0.9 1.25
    endloop
  endfacet
  facet normal -0.0886711 -0.578774 -0.810653
    outer loop
      vertex -4.35157 -2.32338 2.25
      vertex -4.5 -0.9 1.25
      vertex -3.87156 -2.39692 2.25
    endloop
  endfacet
  facet normal 0.275188 0.561031 -0.780715
    outer loop
      vertex 5.01951 2.03675 2.25
      vertex 4.5 0.9 1.25
      vertex 4.58353 2.2506 2.25
    endloop
  endfacet
  facet normal 0.15075 0.582217 -0.798935
    outer loop
      vertex 4.5 0.9 1.25
      vertex 4.11343 2.37232 2.25
      vertex 4.58353 2.2506 2.25
    endloop
  endfacet
  facet normal 0.534347 0.296594 0.791521
    outer loop
      vertex 5.71983 1.37104 2.25
      vertex 4.5 0.9 3.25
      vertex 5.9555 0.946454 2.25
    endloop
  endfacet
  facet normal 0.534347 0.296594 -0.791521
    outer loop
      vertex 5.9555 0.946454 2.25
      vertex 4.5 0.9 1.25
      vertex 5.71983 1.37104 2.25
    endloop
  endfacet
  facet normal 0.478092 -0.410425 0.776517
    outer loop
      vertex 5.71983 -1.37104 2.25
      vertex 4.5 -0.9 3.25
      vertex 5.40352 -1.7395 2.25
    endloop
  endfacet
  facet normal 0.478092 -0.410425 -0.776517
    outer loop
      vertex 5.40352 -1.7395 2.25
      vertex 4.5 -0.9 1.25
      vertex 5.71983 -1.37104 2.25
    endloop
  endfacet
  facet normal 0.553887 -0.173779 0.814255
    outer loop
      vertex 6.10087 -0.483116 2.25
      vertex 4.5 -0.9 3.25
      vertex 5.9555 -0.946454 2.25
    endloop
  endfacet
  facet normal 0.553887 -0.173779 -0.814255
    outer loop
      vertex 5.9555 -0.946454 2.25
      vertex 4.5 -0.9 1.25
      vertex 6.10087 -0.483116 2.25
    endloop
  endfacet
  facet normal 0.15075 -0.582217 -0.798935
    outer loop
      vertex 4.58353 -2.2506 2.25
      vertex 4.11343 -2.37232 2.25
      vertex 4.5 -0.9 1.25
    endloop
  endfacet
  facet normal 0.275188 -0.561031 -0.780715
    outer loop
      vertex 4.58353 -2.2506 2.25
      vertex 4.5 -0.9 1.25
      vertex 5.01951 -2.03675 2.25
    endloop
  endfacet
  facet normal 0.0439119 -0.865724 -0.498591
    outer loop
      vertex 3.62844 -2.39692 2.25
      vertex 3 -2.4 2.2
      vertex 4.11343 -2.37232 2.25
    endloop
  endfacet
  facet normal 0.0439119 -0.865724 0.498591
    outer loop
      vertex 4.11343 -2.37232 2.25
      vertex 3 -2.4 2.3
      vertex 3.62844 -2.39692 2.25
    endloop
  endfacet
endsolid OpenSCAD_Model
