solid OpenSCAD_Model
  facet normal 0 0 1
    outer loop
      vertex 64 36 2
      vertex 2 36 2
      vertex 64 33 2
    endloop
  endfacet
  facet normal -0 0 1
    outer loop
      vertex 69 28 2
      vertex 71 2 2
      vertex 71 28 2
    endloop
  endfacet
  facet normal 0 0 1
    outer loop
      vertex 67.0866 28.3806 2
      vertex 71 2 2
      vertex 69 28 2
    endloop
  endfacet
  facet normal 0 0 1
    outer loop
      vertex 65.4645 29.4645 2
      vertex 71 2 2
      vertex 67.0866 28.3806 2
    endloop
  endfacet
  facet normal 0 0 1
    outer loop
      vertex 2 2 2
      vertex 65.4645 29.4645 2
      vertex 64.3806 31.0866 2
    endloop
  endfacet
  facet normal 0 0 1
    outer loop
      vertex 2 36 2
      vertex 64.3806 31.0866 2
      vertex 64 33 2
    endloop
  endfacet
  facet normal 0 0 1
    outer loop
      vertex 2 2 2
      vertex 64.3806 31.0866 2
      vertex 2 36 2
    endloop
  endfacet
  facet normal 0 0 1
    outer loop
      vertex 65.4645 29.4645 2
      vertex 2 2 2
      vertex 71 2 2
    endloop
  endfacet
  facet normal 0 0 -1
    outer loop
      vertex 71 0 0
      vertex 69 28 0
      vertex 71 28 0
    endloop
  endfacet
  facet normal 0 0 -1
    outer loop
      vertex 71 0 0
      vertex 67.0866 28.3806 0
      vertex 69 28 0
    endloop
  endfacet
  facet normal 0 0 -1
    outer loop
      vertex 71 0 0
      vertex 65.4645 29.4645 0
      vertex 67.0866 28.3806 0
    endloop
  endfacet
  facet normal 0 0 -1
    outer loop
      vertex 0 0 0
      vertex 65.4645 29.4645 0
      vertex 71 0 0
    endloop
  endfacet
  facet normal -0 0 -1
    outer loop
      vertex 65.4645 29.4645 0
      vertex 0 0 0
      vertex 64.3806 31.0866 0
    endloop
  endfacet
  facet normal 0 0 -1
    outer loop
      vertex 0 38 0
      vertex 64.3806 31.0866 0
      vertex 0 0 0
    endloop
  endfacet
  facet normal 0 0 -1
    outer loop
      vertex 64.3806 31.0866 0
      vertex 0 38 0
      vertex 64 33 0
    endloop
  endfacet
  facet normal 0 0 -1
    outer loop
      vertex 64 33 0
      vertex 0 38 0
      vertex 64 38 0
    endloop
  endfacet
  facet normal 1 -0 0
    outer loop
      vertex 64 36 2
      vertex 64 38 0
      vertex 64 38 2
    endloop
  endfacet
  facet normal 1 0 0
    outer loop
      vertex 64 33 0
      vertex 64 36 2
      vertex 64 33 2
    endloop
  endfacet
  facet normal 1 0 0
    outer loop
      vertex 64 36 2
      vertex 64 33 0
      vertex 64 38 0
    endloop
  endfacet
  facet normal 0 1 -0
    outer loop
      vertex 71 28 0
      vertex 69 28 2
      vertex 71 28 2
    endloop
  endfacet
  facet normal 0 1 0
    outer loop
      vertex 69 28 2
      vertex 71 28 0
      vertex 69 28 0
    endloop
  endfacet
  facet normal 0.195091 0.980785 -0
    outer loop
      vertex 69 28 0
      vertex 67.0866 28.3806 2
      vertex 69 28 2
    endloop
  endfacet
  facet normal 0.195091 0.980785 0
    outer loop
      vertex 67.0866 28.3806 2
      vertex 69 28 0
      vertex 67.0866 28.3806 0
    endloop
  endfacet
  facet normal 0.980785 0.195091 0
    outer loop
      vertex 64.3806 31.0866 2
      vertex 64 33 0
      vertex 64 33 2
    endloop
  endfacet
  facet normal 0.980785 0.195091 0
    outer loop
      vertex 64 33 0
      vertex 64.3806 31.0866 2
      vertex 64.3806 31.0866 0
    endloop
  endfacet
  facet normal 0.831458 0.555587 0
    outer loop
      vertex 65.4645 29.4645 2
      vertex 64.3806 31.0866 0
      vertex 64.3806 31.0866 2
    endloop
  endfacet
  facet normal 0.831458 0.555587 0
    outer loop
      vertex 64.3806 31.0866 0
      vertex 65.4645 29.4645 2
      vertex 65.4645 29.4645 0
    endloop
  endfacet
  facet normal 0.555587 0.831458 -0
    outer loop
      vertex 67.0866 28.3806 0
      vertex 65.4645 29.4645 2
      vertex 67.0866 28.3806 2
    endloop
  endfacet
  facet normal 0.555587 0.831458 0
    outer loop
      vertex 65.4645 29.4645 2
      vertex 67.0866 28.3806 0
      vertex 65.4645 29.4645 0
    endloop
  endfacet
  facet normal 1 0 0
    outer loop
      vertex 71 3 13
      vertex 71 2 12
      vertex 71 3 12
    endloop
  endfacet
  facet normal 1 0 0
    outer loop
      vertex 71 2 12
      vertex 71 0 14
      vertex 71 2 2
    endloop
  endfacet
  facet normal 1 0 0
    outer loop
      vertex 71 0 14
      vertex 71 2 12
      vertex 71 3 13
    endloop
  endfacet
  facet normal 1 -0 0
    outer loop
      vertex 71 2 2
      vertex 71 28 0
      vertex 71 28 2
    endloop
  endfacet
  facet normal 1 0 0
    outer loop
      vertex 71 2 2
      vertex 71 0 0
      vertex 71 28 0
    endloop
  endfacet
  facet normal 1 0 0
    outer loop
      vertex 71 0 0
      vertex 71 2 2
      vertex 71 0 14
    endloop
  endfacet
  facet normal 0 1 -0
    outer loop
      vertex 64 38 2
      vertex 0 38 14
      vertex 64 38 14
    endloop
  endfacet
  facet normal 0 1 0
    outer loop
      vertex 0 38 0
      vertex 64 38 2
      vertex 64 38 0
    endloop
  endfacet
  facet normal 0 1 0
    outer loop
      vertex 64 38 2
      vertex 0 38 0
      vertex 0 38 14
    endloop
  endfacet
  facet normal -1 0 0
    outer loop
      vertex 0 0 0
      vertex 0 38 14
      vertex 0 38 0
    endloop
  endfacet
  facet normal -1 -0 0
    outer loop
      vertex 0 38 14
      vertex 0 0 0
      vertex 0 0 14
    endloop
  endfacet
  facet normal 0 -1 0
    outer loop
      vertex 0 0 0
      vertex 71 0 14
      vertex 0 0 14
    endloop
  endfacet
  facet normal 0 -1 -0
    outer loop
      vertex 71 0 14
      vertex 0 0 0
      vertex 71 0 0
    endloop
  endfacet
  facet normal 0 0 -1
    outer loop
      vertex 71 2 12
      vertex 3 3 12
      vertex 71 3 12
    endloop
  endfacet
  facet normal -0 0 -1
    outer loop
      vertex 3 3 12
      vertex 2 2 12
      vertex 3 35 12
    endloop
  endfacet
  facet normal 0 0 -1
    outer loop
      vertex 2 2 12
      vertex 3 3 12
      vertex 71 2 12
    endloop
  endfacet
  facet normal 0 0 -1
    outer loop
      vertex 3 35 12
      vertex 64 36 12
      vertex 64 35 12
    endloop
  endfacet
  facet normal 0 0 -1
    outer loop
      vertex 3 35 12
      vertex 2 36 12
      vertex 64 36 12
    endloop
  endfacet
  facet normal 0 0 -1
    outer loop
      vertex 2 36 12
      vertex 3 35 12
      vertex 2 2 12
    endloop
  endfacet
  facet normal 1 -0 0
    outer loop
      vertex 3 3 13
      vertex 3 35 12
      vertex 3 35 13
    endloop
  endfacet
  facet normal 1 0 0
    outer loop
      vertex 3 35 12
      vertex 3 3 13
      vertex 3 3 12
    endloop
  endfacet
  facet normal 0.316228 0 0.948683
    outer loop
      vertex 0 38 14
      vertex 3 3 13
      vertex 3 35 13
    endloop
  endfacet
  facet normal 0.316228 0 0.948683
    outer loop
      vertex 3 3 13
      vertex 0 38 14
      vertex 0 0 14
    endloop
  endfacet
  facet normal 1 -0 0
    outer loop
      vertex 2 2 12
      vertex 2 36 2
      vertex 2 36 12
    endloop
  endfacet
  facet normal 1 0 0
    outer loop
      vertex 2 36 2
      vertex 2 2 12
      vertex 2 2 2
    endloop
  endfacet
  facet normal 0 1 -0
    outer loop
      vertex 71 3 12
      vertex 3 3 13
      vertex 71 3 13
    endloop
  endfacet
  facet normal 0 1 0
    outer loop
      vertex 3 3 13
      vertex 71 3 12
      vertex 3 3 12
    endloop
  endfacet
  facet normal -0 0.316228 0.948683
    outer loop
      vertex 3 3 13
      vertex 71 0 14
      vertex 71 3 13
    endloop
  endfacet
  facet normal 0 0.316228 0.948683
    outer loop
      vertex 71 0 14
      vertex 3 3 13
      vertex 0 0 14
    endloop
  endfacet
  facet normal 0 1 -0
    outer loop
      vertex 71 2 2
      vertex 2 2 12
      vertex 71 2 12
    endloop
  endfacet
  facet normal 0 1 0
    outer loop
      vertex 2 2 12
      vertex 71 2 2
      vertex 2 2 2
    endloop
  endfacet
  facet normal 1 0 0
    outer loop
      vertex 64 38 14
      vertex 64 36 12
      vertex 64 38 2
    endloop
  endfacet
  facet normal 1 -0 0
    outer loop
      vertex 64 35 13
      vertex 64 36 12
      vertex 64 38 14
    endloop
  endfacet
  facet normal 1 0 0
    outer loop
      vertex 64 36 12
      vertex 64 35 13
      vertex 64 35 12
    endloop
  endfacet
  facet normal 1 0 0
    outer loop
      vertex 64 38 2
      vertex 64 36 12
      vertex 64 36 2
    endloop
  endfacet
  facet normal 0 -1 0
    outer loop
      vertex 3 35 12
      vertex 64 35 13
      vertex 3 35 13
    endloop
  endfacet
  facet normal 0 -1 -0
    outer loop
      vertex 64 35 13
      vertex 3 35 12
      vertex 64 35 12
    endloop
  endfacet
  facet normal 0 -0.316228 0.948683
    outer loop
      vertex 64 38 14
      vertex 3 35 13
      vertex 64 35 13
    endloop
  endfacet
  facet normal 0 -0.316228 0.948683
    outer loop
      vertex 3 35 13
      vertex 64 38 14
      vertex 0 38 14
    endloop
  endfacet
  facet normal 0 -1 0
    outer loop
      vertex 2 36 2
      vertex 64 36 12
      vertex 2 36 12
    endloop
  endfacet
  facet normal 0 -1 -0
    outer loop
      vertex 64 36 12
      vertex 2 36 2
      vertex 64 36 2
    endloop
  endfacet
endsolid OpenSCAD_Model
