solid OpenSCAD_Model
  facet normal 1 -0 0
    outer loop
      vertex 25 21.9504 3
      vertex 25 36 0
      vertex 25 36 3
    endloop
  endfacet
  facet normal 1 0 0
    outer loop
      vertex 25 36 0
      vertex 25 21.9504 3
      vertex 25 21.9504 0
    endloop
  endfacet
  facet normal 0 0 1
    outer loop
      vertex 25 36 3
      vertex 24.5605 21.9504 3
      vertex 25 21.9504 3
    endloop
  endfacet
  facet normal 0 0 1
    outer loop
      vertex 25 36 3
      vertex 23.6883 21.7147 3
      vertex 24.5605 21.9504 3
    endloop
  endfacet
  facet normal 0 0 1
    outer loop
      vertex 25 36 3
      vertex 22.8369 21.2468 3
      vertex 23.6883 21.7147 3
    endloop
  endfacet
  facet normal 0 0 1
    outer loop
      vertex 25 36 3
      vertex 22.0195 20.5543 3
      vertex 22.8369 21.2468 3
    endloop
  endfacet
  facet normal 0 0 1
    outer loop
      vertex 14.6252 16.9646 3
      vertex 22.0195 20.5543 3
      vertex 25 36 3
    endloop
  endfacet
  facet normal 0 0 1
    outer loop
      vertex 22.0195 20.5543 3
      vertex 14.8744 16.9961 3
      vertex 21.2492 19.648 3
    endloop
  endfacet
  facet normal 0 -0 1
    outer loop
      vertex 15.1256 16.9961 3
      vertex 21.2492 19.648 3
      vertex 14.8744 16.9961 3
    endloop
  endfacet
  facet normal 0 -0 1
    outer loop
      vertex 15.618 16.9021 3
      vertex 20.538 18.5423 3
      vertex 15.3748 16.9646 3
    endloop
  endfacet
  facet normal 0 0 1
    outer loop
      vertex 20.538 18.5423 3
      vertex 16.0717 16.6887 3
      vertex 19.8972 17.2545 3
    endloop
  endfacet
  facet normal 0 0 1
    outer loop
      vertex 18.8659 14.2167 3
      vertex 16.7526 14.0365 3
      vertex 18.4916 12.5145 3
    endloop
  endfacet
  facet normal 0 0 1
    outer loop
      vertex 16.7526 14.0365 3
      vertex 18.8659 14.2167 3
      vertex 16.8596 14.2638 3
    endloop
  endfacet
  facet normal -0 0 1
    outer loop
      vertex 16.8596 14.2638 3
      vertex 18.8659 14.2167 3
      vertex 16.9372 14.5026 3
    endloop
  endfacet
  facet normal -0 0 1
    outer loop
      vertex 16.9372 14.5026 3
      vertex 18.8659 14.2167 3
      vertex 16.9842 14.7493 3
    endloop
  endfacet
  facet normal -0 0 1
    outer loop
      vertex 16.9842 14.7493 3
      vertex 18.8659 14.2167 3
      vertex 17 15 3
    endloop
  endfacet
  facet normal 0 0 1
    outer loop
      vertex 19.8972 17.2545 3
      vertex 16.618 16.1756 3
      vertex 19.3369 15.805 3
    endloop
  endfacet
  facet normal 0 0 1
    outer loop
      vertex 18.8659 14.2167 3
      vertex 16.9842 15.2507 3
      vertex 17 15 3
    endloop
  endfacet
  facet normal 0 0 1
    outer loop
      vertex 19.3369 15.805 3
      vertex 16.9842 15.2507 3
      vertex 18.8659 14.2167 3
    endloop
  endfacet
  facet normal 0 -0 1
    outer loop
      vertex 16.9842 15.2507 3
      vertex 19.3369 15.805 3
      vertex 16.9372 15.4974 3
    endloop
  endfacet
  facet normal 0 -0 1
    outer loop
      vertex 16.9372 15.4974 3
      vertex 19.3369 15.805 3
      vertex 16.8596 15.7362 3
    endloop
  endfacet
  facet normal 0 -0 1
    outer loop
      vertex 16.8596 15.7362 3
      vertex 19.3369 15.805 3
      vertex 16.7526 15.9635 3
    endloop
  endfacet
  facet normal -0 -0 1
    outer loop
      vertex 16.7526 15.9635 3
      vertex 19.3369 15.805 3
      vertex 16.618 16.1756 3
    endloop
  endfacet
  facet normal 0 -0 1
    outer loop
      vertex 16.618 16.1756 3
      vertex 19.8972 17.2545 3
      vertex 16.4579 16.3691 3
    endloop
  endfacet
  facet normal 0 -0 1
    outer loop
      vertex 16.4579 16.3691 3
      vertex 19.8972 17.2545 3
      vertex 16.2748 16.541 3
    endloop
  endfacet
  facet normal 0 -0 1
    outer loop
      vertex 16.2748 16.541 3
      vertex 19.8972 17.2545 3
      vertex 16.0717 16.6887 3
    endloop
  endfacet
  facet normal 0 -0 1
    outer loop
      vertex 16.0717 16.6887 3
      vertex 20.538 18.5423 3
      vertex 15.8516 16.8097 3
    endloop
  endfacet
  facet normal 0 -0 1
    outer loop
      vertex 15.8516 16.8097 3
      vertex 20.538 18.5423 3
      vertex 15.618 16.9021 3
    endloop
  endfacet
  facet normal 0 0 1
    outer loop
      vertex 21.2492 19.648 3
      vertex 15.3748 16.9646 3
      vertex 20.538 18.5423 3
    endloop
  endfacet
  facet normal 0 -0 1
    outer loop
      vertex 15.3748 16.9646 3
      vertex 21.2492 19.648 3
      vertex 15.1256 16.9961 3
    endloop
  endfacet
  facet normal 0 0 1
    outer loop
      vertex 22.0195 20.5543 3
      vertex 14.6252 16.9646 3
      vertex 14.8744 16.9961 3
    endloop
  endfacet
  facet normal -0 0 1
    outer loop
      vertex 0 36 3
      vertex 14.6252 16.9646 3
      vertex 25 36 3
    endloop
  endfacet
  facet normal 0 0 1
    outer loop
      vertex 14.6252 16.9646 3
      vertex 0 36 3
      vertex 14.382 16.9021 3
    endloop
  endfacet
  facet normal 0 0 1
    outer loop
      vertex 14.382 16.9021 3
      vertex 0 36 3
      vertex 14.1484 16.8097 3
    endloop
  endfacet
  facet normal 0 0 1
    outer loop
      vertex 14.1484 16.8097 3
      vertex 0 36 3
      vertex 13.9283 16.6887 3
    endloop
  endfacet
  facet normal 0 0 1
    outer loop
      vertex 13.9283 16.6887 3
      vertex 0 36 3
      vertex 13.7252 16.541 3
    endloop
  endfacet
  facet normal 0 0 1
    outer loop
      vertex 13.7252 16.541 3
      vertex 0 36 3
      vertex 13.5421 16.3691 3
    endloop
  endfacet
  facet normal 0 0 1
    outer loop
      vertex 13.5421 16.3691 3
      vertex 0 36 3
      vertex 13.382 16.1756 3
    endloop
  endfacet
  facet normal 0 0 1
    outer loop
      vertex 0 0 3
      vertex 13.0158 15.2507 3
      vertex 0 36 3
    endloop
  endfacet
  facet normal 0 0 1
    outer loop
      vertex 13.0628 15.4974 3
      vertex 0 36 3
      vertex 13.0158 15.2507 3
    endloop
  endfacet
  facet normal 0 0 1
    outer loop
      vertex 13.1404 15.7362 3
      vertex 0 36 3
      vertex 13.0628 15.4974 3
    endloop
  endfacet
  facet normal 0 0 1
    outer loop
      vertex 13.2474 15.9635 3
      vertex 0 36 3
      vertex 13.1404 15.7362 3
    endloop
  endfacet
  facet normal 0 0 1
    outer loop
      vertex 13.382 16.1756 3
      vertex 0 36 3
      vertex 13.2474 15.9635 3
    endloop
  endfacet
  facet normal -0 0 1
    outer loop
      vertex 16.618 13.8244 3
      vertex 18.4916 12.5145 3
      vertex 16.7526 14.0365 3
    endloop
  endfacet
  facet normal -0 0 1
    outer loop
      vertex 16.4579 13.6309 3
      vertex 18.4916 12.5145 3
      vertex 16.618 13.8244 3
    endloop
  endfacet
  facet normal -0 0 1
    outer loop
      vertex 16.2748 13.459 3
      vertex 18.4916 12.5145 3
      vertex 16.4579 13.6309 3
    endloop
  endfacet
  facet normal -0 0 1
    outer loop
      vertex 16.0717 13.3113 3
      vertex 18.4916 12.5145 3
      vertex 16.2748 13.459 3
    endloop
  endfacet
  facet normal 0 0 1
    outer loop
      vertex 18.4916 12.5145 3
      vertex 16.0717 13.3113 3
      vertex 18.2199 10.7254 3
    endloop
  endfacet
  facet normal -0 0 1
    outer loop
      vertex 15.8516 13.1903 3
      vertex 18.2199 10.7254 3
      vertex 16.0717 13.3113 3
    endloop
  endfacet
  facet normal -0 0 1
    outer loop
      vertex 15.618 13.0979 3
      vertex 18.2199 10.7254 3
      vertex 15.8516 13.1903 3
    endloop
  endfacet
  facet normal -0 0 1
    outer loop
      vertex 15.3748 13.0354 3
      vertex 18.2199 10.7254 3
      vertex 15.618 13.0979 3
    endloop
  endfacet
  facet normal -0 0 1
    outer loop
      vertex 15.1256 13.0039 3
      vertex 18.2199 10.7254 3
      vertex 15.3748 13.0354 3
    endloop
  endfacet
  facet normal 0 0 1
    outer loop
      vertex 18.2199 10.7254 3
      vertex 15.1256 13.0039 3
      vertex 18.0552 8.87749 3
    endloop
  endfacet
  facet normal -0 0 1
    outer loop
      vertex 14.8744 13.0039 3
      vertex 18.0552 8.87749 3
      vertex 15.1256 13.0039 3
    endloop
  endfacet
  facet normal 0 0 1
    outer loop
      vertex 14.6252 13.0354 3
      vertex 18.0552 8.87749 3
      vertex 14.8744 13.0039 3
    endloop
  endfacet
  facet normal 0 0 1
    outer loop
      vertex 14.382 13.0979 3
      vertex 18.0552 8.87749 3
      vertex 14.6252 13.0354 3
    endloop
  endfacet
  facet normal 0 0 1
    outer loop
      vertex 18.0552 8.87749 3
      vertex 14.382 13.0979 3
      vertex 18 7 3
    endloop
  endfacet
  facet normal 0 0 1
    outer loop
      vertex 14.1484 13.1903 3
      vertex 18 7 3
      vertex 14.382 13.0979 3
    endloop
  endfacet
  facet normal 0 0 1
    outer loop
      vertex 13.9283 13.3113 3
      vertex 18 7 3
      vertex 14.1484 13.1903 3
    endloop
  endfacet
  facet normal 0 0 1
    outer loop
      vertex 0 0 3
      vertex 18 7 3
      vertex 13.9283 13.3113 3
    endloop
  endfacet
  facet normal 0 0 1
    outer loop
      vertex 0 0 3
      vertex 13.9283 13.3113 3
      vertex 13.7252 13.459 3
    endloop
  endfacet
  facet normal 0 0 1
    outer loop
      vertex 0 0 3
      vertex 13.7252 13.459 3
      vertex 13.5421 13.6309 3
    endloop
  endfacet
  facet normal 0 0 1
    outer loop
      vertex 0 0 3
      vertex 13.5421 13.6309 3
      vertex 13.382 13.8244 3
    endloop
  endfacet
  facet normal 0 0 1
    outer loop
      vertex 0 0 3
      vertex 13.382 13.8244 3
      vertex 13.2474 14.0365 3
    endloop
  endfacet
  facet normal 0 0 1
    outer loop
      vertex 0 0 3
      vertex 13.2474 14.0365 3
      vertex 13.1404 14.2638 3
    endloop
  endfacet
  facet normal 0 0 1
    outer loop
      vertex 13.0158 15.2507 3
      vertex 0 0 3
      vertex 13 15 3
    endloop
  endfacet
  facet normal 0 0 1
    outer loop
      vertex 13 15 3
      vertex 0 0 3
      vertex 13.0158 14.7493 3
    endloop
  endfacet
  facet normal 0 0 1
    outer loop
      vertex 13.0158 14.7493 3
      vertex 0 0 3
      vertex 13.0628 14.5026 3
    endloop
  endfacet
  facet normal 0 0 1
    outer loop
      vertex 13.0628 14.5026 3
      vertex 0 0 3
      vertex 13.1404 14.2638 3
    endloop
  endfacet
  facet normal 0 0 1
    outer loop
      vertex 18 7 3
      vertex 0 0 3
      vertex 18 0 3
    endloop
  endfacet
  facet normal 0 0 -1
    outer loop
      vertex 0 0 0
      vertex 18 7 0
      vertex 18 0 0
    endloop
  endfacet
  facet normal 0 0 -1
    outer loop
      vertex 18 7 0
      vertex 16.9842 14.7493 0
      vertex 17 15 0
    endloop
  endfacet
  facet normal 0 0 -1
    outer loop
      vertex 18 7 0
      vertex 16.9372 14.5026 0
      vertex 16.9842 14.7493 0
    endloop
  endfacet
  facet normal 0 0 -1
    outer loop
      vertex 18 7 0
      vertex 16.8596 14.2638 0
      vertex 16.9372 14.5026 0
    endloop
  endfacet
  facet normal 0 0 -1
    outer loop
      vertex 18 7 0
      vertex 16.7526 14.0365 0
      vertex 16.8596 14.2638 0
    endloop
  endfacet
  facet normal 0 0 -1
    outer loop
      vertex 18 7 0
      vertex 16.618 13.8244 0
      vertex 16.7526 14.0365 0
    endloop
  endfacet
  facet normal 0 0 -1
    outer loop
      vertex 18 7 0
      vertex 16.4579 13.6309 0
      vertex 16.618 13.8244 0
    endloop
  endfacet
  facet normal 0 0 -1
    outer loop
      vertex 18 7 0
      vertex 16.2748 13.459 0
      vertex 16.4579 13.6309 0
    endloop
  endfacet
  facet normal 0 0 -1
    outer loop
      vertex 18 7 0
      vertex 16.0717 13.3113 0
      vertex 16.2748 13.459 0
    endloop
  endfacet
  facet normal 0 0 -1
    outer loop
      vertex 18 7 0
      vertex 15.8516 13.1903 0
      vertex 16.0717 13.3113 0
    endloop
  endfacet
  facet normal 0 0 -1
    outer loop
      vertex 18 7 0
      vertex 15.618 13.0979 0
      vertex 15.8516 13.1903 0
    endloop
  endfacet
  facet normal 0 0 -1
    outer loop
      vertex 18 7 0
      vertex 15.3748 13.0354 0
      vertex 15.618 13.0979 0
    endloop
  endfacet
  facet normal 0 0 -1
    outer loop
      vertex 18 7 0
      vertex 15.1256 13.0039 0
      vertex 15.3748 13.0354 0
    endloop
  endfacet
  facet normal 0 0 -1
    outer loop
      vertex 18 7 0
      vertex 14.8744 13.0039 0
      vertex 15.1256 13.0039 0
    endloop
  endfacet
  facet normal 0 0 -1
    outer loop
      vertex 18 7 0
      vertex 14.6252 13.0354 0
      vertex 14.8744 13.0039 0
    endloop
  endfacet
  facet normal 0 0 -1
    outer loop
      vertex 18 7 0
      vertex 14.382 13.0979 0
      vertex 14.6252 13.0354 0
    endloop
  endfacet
  facet normal 0 0 -1
    outer loop
      vertex 18 7 0
      vertex 14.1484 13.1903 0
      vertex 14.382 13.0979 0
    endloop
  endfacet
  facet normal 0 0 -1
    outer loop
      vertex 18 7 0
      vertex 13.9283 13.3113 0
      vertex 14.1484 13.1903 0
    endloop
  endfacet
  facet normal -0 0 -1
    outer loop
      vertex 18 7 0
      vertex 0 0 0
      vertex 13.9283 13.3113 0
    endloop
  endfacet
  facet normal -0 0 -1
    outer loop
      vertex 13.9283 13.3113 0
      vertex 0 0 0
      vertex 13.7252 13.459 0
    endloop
  endfacet
  facet normal -0 0 -1
    outer loop
      vertex 13.7252 13.459 0
      vertex 0 0 0
      vertex 13.5421 13.6309 0
    endloop
  endfacet
  facet normal -0 0 -1
    outer loop
      vertex 13.5421 13.6309 0
      vertex 0 0 0
      vertex 13.382 13.8244 0
    endloop
  endfacet
  facet normal -0 0 -1
    outer loop
      vertex 13.382 13.8244 0
      vertex 0 0 0
      vertex 13.2474 14.0365 0
    endloop
  endfacet
  facet normal -0 0 -1
    outer loop
      vertex 13.0158 14.7493 0
      vertex 0 0 0
      vertex 13 15 0
    endloop
  endfacet
  facet normal -0 0 -1
    outer loop
      vertex 13.0628 14.5026 0
      vertex 0 0 0
      vertex 13.0158 14.7493 0
    endloop
  endfacet
  facet normal -0 0 -1
    outer loop
      vertex 13.1404 14.2638 0
      vertex 0 0 0
      vertex 13.0628 14.5026 0
    endloop
  endfacet
  facet normal -0 0 -1
    outer loop
      vertex 13.2474 14.0365 0
      vertex 0 0 0
      vertex 13.1404 14.2638 0
    endloop
  endfacet
  facet normal 0 0 -1
    outer loop
      vertex 24.5605 21.9504 0
      vertex 25 36 0
      vertex 25 21.9504 0
    endloop
  endfacet
  facet normal 0 0 -1
    outer loop
      vertex 23.6883 21.7147 0
      vertex 25 36 0
      vertex 24.5605 21.9504 0
    endloop
  endfacet
  facet normal 0 0 -1
    outer loop
      vertex 22.8369 21.2468 0
      vertex 25 36 0
      vertex 23.6883 21.7147 0
    endloop
  endfacet
  facet normal 0 0 -1
    outer loop
      vertex 22.0195 20.5543 0
      vertex 25 36 0
      vertex 22.8369 21.2468 0
    endloop
  endfacet
  facet normal 0 0 -1
    outer loop
      vertex 14.8744 16.9961 0
      vertex 22.0195 20.5543 0
      vertex 21.2492 19.648 0
    endloop
  endfacet
  facet normal 0 0 -1
    outer loop
      vertex 15.3748 16.9646 0
      vertex 21.2492 19.648 0
      vertex 20.538 18.5423 0
    endloop
  endfacet
  facet normal 0 0 -1
    outer loop
      vertex 16.0717 16.6887 0
      vertex 20.538 18.5423 0
      vertex 19.8972 17.2545 0
    endloop
  endfacet
  facet normal 0 0 -1
    outer loop
      vertex 16.618 16.1756 0
      vertex 19.8972 17.2545 0
      vertex 19.3369 15.805 0
    endloop
  endfacet
  facet normal 0 0 -1
    outer loop
      vertex 16.9842 15.2507 0
      vertex 19.3369 15.805 0
      vertex 18.8659 14.2167 0
    endloop
  endfacet
  facet normal 0 0 -1
    outer loop
      vertex 17 15 0
      vertex 18.0552 8.87749 0
      vertex 18 7 0
    endloop
  endfacet
  facet normal 0 0 -1
    outer loop
      vertex 17 15 0
      vertex 18.2199 10.7254 0
      vertex 18.0552 8.87749 0
    endloop
  endfacet
  facet normal 0 0 -1
    outer loop
      vertex 17 15 0
      vertex 18.4916 12.5145 0
      vertex 18.2199 10.7254 0
    endloop
  endfacet
  facet normal 0 0 -1
    outer loop
      vertex 17 15 0
      vertex 18.8659 14.2167 0
      vertex 18.4916 12.5145 0
    endloop
  endfacet
  facet normal 0 0 -1
    outer loop
      vertex 16.9842 15.2507 0
      vertex 18.8659 14.2167 0
      vertex 17 15 0
    endloop
  endfacet
  facet normal 0 0 -1
    outer loop
      vertex 19.3369 15.805 0
      vertex 16.9842 15.2507 0
      vertex 16.9372 15.4974 0
    endloop
  endfacet
  facet normal 0 0 -1
    outer loop
      vertex 19.3369 15.805 0
      vertex 16.9372 15.4974 0
      vertex 16.8596 15.7362 0
    endloop
  endfacet
  facet normal -0 0 -1
    outer loop
      vertex 19.3369 15.805 0
      vertex 16.8596 15.7362 0
      vertex 16.7526 15.9635 0
    endloop
  endfacet
  facet normal 0 0 -1
    outer loop
      vertex 19.3369 15.805 0
      vertex 16.7526 15.9635 0
      vertex 16.618 16.1756 0
    endloop
  endfacet
  facet normal 0 0 -1
    outer loop
      vertex 19.8972 17.2545 0
      vertex 16.618 16.1756 0
      vertex 16.4579 16.3691 0
    endloop
  endfacet
  facet normal 0 0 -1
    outer loop
      vertex 19.8972 17.2545 0
      vertex 16.4579 16.3691 0
      vertex 16.2748 16.541 0
    endloop
  endfacet
  facet normal 0 0 -1
    outer loop
      vertex 19.8972 17.2545 0
      vertex 16.2748 16.541 0
      vertex 16.0717 16.6887 0
    endloop
  endfacet
  facet normal 0 0 -1
    outer loop
      vertex 20.538 18.5423 0
      vertex 16.0717 16.6887 0
      vertex 15.8516 16.8097 0
    endloop
  endfacet
  facet normal 0 0 -1
    outer loop
      vertex 20.538 18.5423 0
      vertex 15.8516 16.8097 0
      vertex 15.618 16.9021 0
    endloop
  endfacet
  facet normal 0 0 -1
    outer loop
      vertex 20.538 18.5423 0
      vertex 15.618 16.9021 0
      vertex 15.3748 16.9646 0
    endloop
  endfacet
  facet normal 0 0 -1
    outer loop
      vertex 21.2492 19.648 0
      vertex 15.3748 16.9646 0
      vertex 15.1256 16.9961 0
    endloop
  endfacet
  facet normal 0 0 -1
    outer loop
      vertex 21.2492 19.648 0
      vertex 15.1256 16.9961 0
      vertex 14.8744 16.9961 0
    endloop
  endfacet
  facet normal 0 0 -1
    outer loop
      vertex 14.6252 16.9646 0
      vertex 22.0195 20.5543 0
      vertex 14.8744 16.9961 0
    endloop
  endfacet
  facet normal -0 0 -1
    outer loop
      vertex 22.0195 20.5543 0
      vertex 14.6252 16.9646 0
      vertex 25 36 0
    endloop
  endfacet
  facet normal 0 0 -1
    outer loop
      vertex 0 36 0
      vertex 14.6252 16.9646 0
      vertex 14.382 16.9021 0
    endloop
  endfacet
  facet normal 0 0 -1
    outer loop
      vertex 0 36 0
      vertex 14.382 16.9021 0
      vertex 14.1484 16.8097 0
    endloop
  endfacet
  facet normal 0 0 -1
    outer loop
      vertex 0 36 0
      vertex 14.1484 16.8097 0
      vertex 13.9283 16.6887 0
    endloop
  endfacet
  facet normal 0 0 -1
    outer loop
      vertex 0 36 0
      vertex 13.9283 16.6887 0
      vertex 13.7252 16.541 0
    endloop
  endfacet
  facet normal 0 0 -1
    outer loop
      vertex 0 36 0
      vertex 13.7252 16.541 0
      vertex 13.5421 16.3691 0
    endloop
  endfacet
  facet normal 0 0 -1
    outer loop
      vertex 0 36 0
      vertex 13.5421 16.3691 0
      vertex 13.382 16.1756 0
    endloop
  endfacet
  facet normal 0 0 -1
    outer loop
      vertex 0 36 0
      vertex 13.382 16.1756 0
      vertex 13.2474 15.9635 0
    endloop
  endfacet
  facet normal 0 0 -1
    outer loop
      vertex 0 0 0
      vertex 13.0158 15.2507 0
      vertex 13 15 0
    endloop
  endfacet
  facet normal 0 0 -1
    outer loop
      vertex 0 36 0
      vertex 13.0158 15.2507 0
      vertex 0 0 0
    endloop
  endfacet
  facet normal 0 0 -1
    outer loop
      vertex 13.0158 15.2507 0
      vertex 0 36 0
      vertex 13.0628 15.4974 0
    endloop
  endfacet
  facet normal 0 0 -1
    outer loop
      vertex 13.0628 15.4974 0
      vertex 0 36 0
      vertex 13.1404 15.7362 0
    endloop
  endfacet
  facet normal 0 0 -1
    outer loop
      vertex 13.1404 15.7362 0
      vertex 0 36 0
      vertex 13.2474 15.9635 0
    endloop
  endfacet
  facet normal 0 0 -1
    outer loop
      vertex 14.6252 16.9646 0
      vertex 0 36 0
      vertex 25 36 0
    endloop
  endfacet
  facet normal -1 0 0
    outer loop
      vertex 0 0 0
      vertex 0 36 3
      vertex 0 36 0
    endloop
  endfacet
  facet normal -1 -0 0
    outer loop
      vertex 0 36 3
      vertex 0 0 0
      vertex 0 0 3
    endloop
  endfacet
  facet normal 0 1 -0
    outer loop
      vertex 25 36 0
      vertex 0 36 3
      vertex 25 36 3
    endloop
  endfacet
  facet normal 0 1 0
    outer loop
      vertex 0 36 3
      vertex 25 36 0
      vertex 0 36 0
    endloop
  endfacet
  facet normal 0 -1 0
    outer loop
      vertex 0 0 0
      vertex 18 0 3
      vertex 0 0 3
    endloop
  endfacet
  facet normal 0 -1 -0
    outer loop
      vertex 18 0 3
      vertex 0 0 0
      vertex 18 0 0
    endloop
  endfacet
  facet normal -0.770468 -0.637478 1.67471e-18
    outer loop
      vertex 16.618 16.1756 0
      vertex 16.4579 16.3691 3
      vertex 16.4579 16.3691 0
    endloop
  endfacet
  facet normal -0.770468 -0.637478 1.67471e-18
    outer loop
      vertex 16.4579 16.3691 3
      vertex 16.618 16.1756 0
      vertex 16.618 16.1756 3
    endloop
  endfacet
  facet normal -0.684458 -0.729053 0
    outer loop
      vertex 16.2748 16.541 0
      vertex 16.4579 16.3691 3
      vertex 16.2748 16.541 3
    endloop
  endfacet
  facet normal -0.684458 -0.729053 -0
    outer loop
      vertex 16.4579 16.3691 3
      vertex 16.2748 16.541 0
      vertex 16.4579 16.3691 0
    endloop
  endfacet
  facet normal -0.951046 0.30905 2.97283e-19
    outer loop
      vertex 16.8596 14.2638 0
      vertex 16.9372 14.5026 3
      vertex 16.9372 14.5026 0
    endloop
  endfacet
  facet normal -0.951046 0.30905 2.97283e-19
    outer loop
      vertex 16.9372 14.5026 3
      vertex 16.8596 14.2638 0
      vertex 16.8596 14.2638 3
    endloop
  endfacet
  facet normal -0.684458 0.729053 0
    outer loop
      vertex 16.4579 13.6309 0
      vertex 16.2748 13.459 3
      vertex 16.4579 13.6309 3
    endloop
  endfacet
  facet normal -0.684458 0.729053 0
    outer loop
      vertex 16.2748 13.459 3
      vertex 16.4579 13.6309 0
      vertex 16.2748 13.459 0
    endloop
  endfacet
  facet normal -0.248902 0.968529 0
    outer loop
      vertex 15.618 13.0979 0
      vertex 15.3748 13.0354 3
      vertex 15.618 13.0979 3
    endloop
  endfacet
  facet normal -0.248902 0.968529 0
    outer loop
      vertex 15.3748 13.0354 3
      vertex 15.618 13.0979 0
      vertex 15.3748 13.0354 0
    endloop
  endfacet
  facet normal -0.99802 0.0628987 3.70665e-19
    outer loop
      vertex 16.9842 14.7493 0
      vertex 17 15 3
      vertex 17 15 0
    endloop
  endfacet
  facet normal -0.99802 0.0628987 3.70665e-19
    outer loop
      vertex 17 15 3
      vertex 16.9842 14.7493 0
      vertex 16.9842 14.7493 3
    endloop
  endfacet
  facet normal 0.684458 0.729053 -0
    outer loop
      vertex 13.7252 13.459 0
      vertex 13.5421 13.6309 3
      vertex 13.7252 13.459 3
    endloop
  endfacet
  facet normal 0.684458 0.729053 0
    outer loop
      vertex 13.5421 13.6309 3
      vertex 13.7252 13.459 0
      vertex 13.5421 13.6309 0
    endloop
  endfacet
  facet normal -0.844333 -0.535819 1.90348e-18
    outer loop
      vertex 16.7526 15.9635 0
      vertex 16.618 16.1756 3
      vertex 16.618 16.1756 0
    endloop
  endfacet
  facet normal -0.844333 -0.535819 1.90348e-18
    outer loop
      vertex 16.618 16.1756 3
      vertex 16.7526 15.9635 0
      vertex 16.7526 15.9635 3
    endloop
  endfacet
  facet normal 0.367819 -0.929897 0
    outer loop
      vertex 14.1484 16.8097 0
      vertex 14.382 16.9021 3
      vertex 14.1484 16.8097 3
    endloop
  endfacet
  facet normal 0.367819 -0.929897 0
    outer loop
      vertex 14.382 16.9021 3
      vertex 14.1484 16.8097 0
      vertex 14.382 16.9021 0
    endloop
  endfacet
  facet normal -0.99802 -0.0628987 -3.70665e-19
    outer loop
      vertex 17 15 0
      vertex 16.9842 15.2507 3
      vertex 16.9842 15.2507 0
    endloop
  endfacet
  facet normal -0.99802 -0.0628987 -3.70665e-19
    outer loop
      vertex 16.9842 15.2507 3
      vertex 17 15 0
      vertex 17 15 3
    endloop
  endfacet
  facet normal 0.770468 -0.637478 -1.67471e-18
    outer loop
      vertex 13.382 16.1756 3
      vertex 13.5421 16.3691 0
      vertex 13.5421 16.3691 3
    endloop
  endfacet
  facet normal 0.770468 -0.637478 -1.67471e-18
    outer loop
      vertex 13.5421 16.3691 0
      vertex 13.382 16.1756 3
      vertex 13.382 16.1756 0
    endloop
  endfacet
  facet normal 0.481751 -0.876308 0
    outer loop
      vertex 13.9283 16.6887 0
      vertex 14.1484 16.8097 3
      vertex 13.9283 16.6887 3
    endloop
  endfacet
  facet normal 0.481751 -0.876308 0
    outer loop
      vertex 14.1484 16.8097 3
      vertex 13.9283 16.6887 0
      vertex 14.1484 16.8097 0
    endloop
  endfacet
  facet normal 0.125407 0.992105 -0
    outer loop
      vertex 14.8744 13.0039 0
      vertex 14.6252 13.0354 3
      vertex 14.8744 13.0039 3
    endloop
  endfacet
  facet normal 0.125407 0.992105 0
    outer loop
      vertex 14.6252 13.0354 3
      vertex 14.8744 13.0039 0
      vertex 14.6252 13.0354 0
    endloop
  endfacet
  facet normal 0.844333 -0.535819 1.82372e-18
    outer loop
      vertex 13.2474 15.9635 3
      vertex 13.382 16.1756 0
      vertex 13.382 16.1756 3
    endloop
  endfacet
  facet normal 0.844333 -0.535819 1.82372e-18
    outer loop
      vertex 13.382 16.1756 0
      vertex 13.2474 15.9635 3
      vertex 13.2474 15.9635 0
    endloop
  endfacet
  facet normal 0.844333 0.535819 -1.82372e-18
    outer loop
      vertex 13.382 13.8244 3
      vertex 13.2474 14.0365 0
      vertex 13.2474 14.0365 3
    endloop
  endfacet
  facet normal 0.844333 0.535819 -1.82372e-18
    outer loop
      vertex 13.2474 14.0365 0
      vertex 13.382 13.8244 3
      vertex 13.382 13.8244 0
    endloop
  endfacet
  facet normal 0.248902 -0.968529 0
    outer loop
      vertex 14.382 16.9021 0
      vertex 14.6252 16.9646 3
      vertex 14.382 16.9021 3
    endloop
  endfacet
  facet normal 0.248902 -0.968529 0
    outer loop
      vertex 14.6252 16.9646 3
      vertex 14.382 16.9021 0
      vertex 14.6252 16.9646 0
    endloop
  endfacet
  facet normal -0.982332 -0.187149 5.88082e-19
    outer loop
      vertex 16.9842 15.2507 0
      vertex 16.9372 15.4974 3
      vertex 16.9372 15.4974 0
    endloop
  endfacet
  facet normal -0.982332 -0.187149 5.88082e-19
    outer loop
      vertex 16.9372 15.4974 3
      vertex 16.9842 15.2507 0
      vertex 16.9842 15.2507 3
    endloop
  endfacet
  facet normal -0.588148 -0.808753 0
    outer loop
      vertex 16.0717 16.6887 0
      vertex 16.2748 16.541 3
      vertex 16.0717 16.6887 3
    endloop
  endfacet
  facet normal -0.588148 -0.808753 -0
    outer loop
      vertex 16.2748 16.541 3
      vertex 16.0717 16.6887 0
      vertex 16.2748 16.541 0
    endloop
  endfacet
  facet normal 0.684458 -0.729053 0
    outer loop
      vertex 13.5421 16.3691 0
      vertex 13.7252 16.541 3
      vertex 13.5421 16.3691 3
    endloop
  endfacet
  facet normal 0.684458 -0.729053 0
    outer loop
      vertex 13.7252 16.541 3
      vertex 13.5421 16.3691 0
      vertex 13.7252 16.541 0
    endloop
  endfacet
  facet normal -0.125407 -0.992105 0
    outer loop
      vertex 15.1256 16.9961 0
      vertex 15.3748 16.9646 3
      vertex 15.1256 16.9961 3
    endloop
  endfacet
  facet normal -0.125407 -0.992105 -0
    outer loop
      vertex 15.3748 16.9646 3
      vertex 15.1256 16.9961 0
      vertex 15.3748 16.9646 0
    endloop
  endfacet
  facet normal -0.367819 -0.929897 0
    outer loop
      vertex 15.618 16.9021 0
      vertex 15.8516 16.8097 3
      vertex 15.618 16.9021 3
    endloop
  endfacet
  facet normal -0.367819 -0.929897 -0
    outer loop
      vertex 15.8516 16.8097 3
      vertex 15.618 16.9021 0
      vertex 15.8516 16.8097 0
    endloop
  endfacet
  facet normal 0.982332 -0.187149 2.85023e-19
    outer loop
      vertex 13.0158 15.2507 3
      vertex 13.0628 15.4974 0
      vertex 13.0628 15.4974 3
    endloop
  endfacet
  facet normal 0.982332 -0.187149 2.85023e-19
    outer loop
      vertex 13.0628 15.4974 0
      vertex 13.0158 15.2507 3
      vertex 13.0158 15.2507 0
    endloop
  endfacet
  facet normal -0.481751 0.876308 0
    outer loop
      vertex 16.0717 13.3113 0
      vertex 15.8516 13.1903 3
      vertex 16.0717 13.3113 3
    endloop
  endfacet
  facet normal -0.481751 0.876308 0
    outer loop
      vertex 15.8516 13.1903 3
      vertex 16.0717 13.3113 0
      vertex 15.8516 13.1903 0
    endloop
  endfacet
  facet normal 0.99802 -0.0628987 -2.81245e-19
    outer loop
      vertex 13 15 3
      vertex 13.0158 15.2507 0
      vertex 13.0158 15.2507 3
    endloop
  endfacet
  facet normal 0.99802 -0.0628987 -2.81245e-19
    outer loop
      vertex 13.0158 15.2507 0
      vertex 13 15 3
      vertex 13 15 0
    endloop
  endfacet
  facet normal 0.770468 0.637478 1.67471e-18
    outer loop
      vertex 13.5421 13.6309 3
      vertex 13.382 13.8244 0
      vertex 13.382 13.8244 3
    endloop
  endfacet
  facet normal 0.770468 0.637478 1.67471e-18
    outer loop
      vertex 13.382 13.8244 0
      vertex 13.5421 13.6309 3
      vertex 13.5421 13.6309 0
    endloop
  endfacet
  facet normal -0.588148 0.808753 0
    outer loop
      vertex 16.2748 13.459 0
      vertex 16.0717 13.3113 3
      vertex 16.2748 13.459 3
    endloop
  endfacet
  facet normal -0.588148 0.808753 0
    outer loop
      vertex 16.0717 13.3113 3
      vertex 16.2748 13.459 0
      vertex 16.0717 13.3113 0
    endloop
  endfacet
  facet normal -0.367819 0.929897 0
    outer loop
      vertex 15.8516 13.1903 0
      vertex 15.618 13.0979 3
      vertex 15.8516 13.1903 3
    endloop
  endfacet
  facet normal -0.367819 0.929897 0
    outer loop
      vertex 15.618 13.0979 3
      vertex 15.8516 13.1903 0
      vertex 15.618 13.0979 0
    endloop
  endfacet
  facet normal -0.481751 -0.876308 0
    outer loop
      vertex 15.8516 16.8097 0
      vertex 16.0717 16.6887 3
      vertex 15.8516 16.8097 3
    endloop
  endfacet
  facet normal -0.481751 -0.876308 -0
    outer loop
      vertex 16.0717 16.6887 3
      vertex 15.8516 16.8097 0
      vertex 16.0717 16.6887 0
    endloop
  endfacet
  facet normal -0.844333 0.535819 -1.90348e-18
    outer loop
      vertex 16.618 13.8244 0
      vertex 16.7526 14.0365 3
      vertex 16.7526 14.0365 0
    endloop
  endfacet
  facet normal -0.844333 0.535819 -1.90348e-18
    outer loop
      vertex 16.7526 14.0365 3
      vertex 16.618 13.8244 0
      vertex 16.618 13.8244 3
    endloop
  endfacet
  facet normal 0.982332 0.187149 -2.85023e-19
    outer loop
      vertex 13.0628 14.5026 3
      vertex 13.0158 14.7493 0
      vertex 13.0158 14.7493 3
    endloop
  endfacet
  facet normal 0.982332 0.187149 -2.85023e-19
    outer loop
      vertex 13.0158 14.7493 0
      vertex 13.0628 14.5026 3
      vertex 13.0628 14.5026 0
    endloop
  endfacet
  facet normal -0.904765 0.425912 -5.20173e-19
    outer loop
      vertex 16.7526 14.0365 0
      vertex 16.8596 14.2638 3
      vertex 16.8596 14.2638 0
    endloop
  endfacet
  facet normal -0.904765 0.425912 -5.20173e-19
    outer loop
      vertex 16.8596 14.2638 3
      vertex 16.7526 14.0365 0
      vertex 16.7526 14.0365 3
    endloop
  endfacet
  facet normal 0 -1 0
    outer loop
      vertex 14.8744 16.9961 0
      vertex 15.1256 16.9961 3
      vertex 14.8744 16.9961 3
    endloop
  endfacet
  facet normal 0 -1 -0
    outer loop
      vertex 15.1256 16.9961 3
      vertex 14.8744 16.9961 0
      vertex 15.1256 16.9961 0
    endloop
  endfacet
  facet normal -0.982332 0.187149 -5.88082e-19
    outer loop
      vertex 16.9372 14.5026 0
      vertex 16.9842 14.7493 3
      vertex 16.9842 14.7493 0
    endloop
  endfacet
  facet normal -0.982332 0.187149 -5.88082e-19
    outer loop
      vertex 16.9842 14.7493 3
      vertex 16.9372 14.5026 0
      vertex 16.9372 14.5026 3
    endloop
  endfacet
  facet normal 0.588148 -0.808753 0
    outer loop
      vertex 13.7252 16.541 0
      vertex 13.9283 16.6887 3
      vertex 13.7252 16.541 3
    endloop
  endfacet
  facet normal 0.588148 -0.808753 0
    outer loop
      vertex 13.9283 16.6887 3
      vertex 13.7252 16.541 0
      vertex 13.9283 16.6887 0
    endloop
  endfacet
  facet normal 0.951046 0.30905 -2.97283e-19
    outer loop
      vertex 13.1404 14.2638 3
      vertex 13.0628 14.5026 0
      vertex 13.0628 14.5026 3
    endloop
  endfacet
  facet normal 0.951046 0.30905 -2.97283e-19
    outer loop
      vertex 13.0628 14.5026 0
      vertex 13.1404 14.2638 3
      vertex 13.1404 14.2638 0
    endloop
  endfacet
  facet normal -0.951046 -0.30905 -2.97283e-19
    outer loop
      vertex 16.9372 15.4974 0
      vertex 16.8596 15.7362 3
      vertex 16.8596 15.7362 0
    endloop
  endfacet
  facet normal -0.951046 -0.30905 -2.97283e-19
    outer loop
      vertex 16.8596 15.7362 3
      vertex 16.9372 15.4974 0
      vertex 16.9372 15.4974 3
    endloop
  endfacet
  facet normal -0.770468 0.637478 -1.67471e-18
    outer loop
      vertex 16.4579 13.6309 0
      vertex 16.618 13.8244 3
      vertex 16.618 13.8244 0
    endloop
  endfacet
  facet normal -0.770468 0.637478 -1.67471e-18
    outer loop
      vertex 16.618 13.8244 3
      vertex 16.4579 13.6309 0
      vertex 16.4579 13.6309 3
    endloop
  endfacet
  facet normal 0.367819 0.929897 -0
    outer loop
      vertex 14.382 13.0979 0
      vertex 14.1484 13.1903 3
      vertex 14.382 13.0979 3
    endloop
  endfacet
  facet normal 0.367819 0.929897 0
    outer loop
      vertex 14.1484 13.1903 3
      vertex 14.382 13.0979 0
      vertex 14.1484 13.1903 0
    endloop
  endfacet
  facet normal 0.125407 -0.992105 0
    outer loop
      vertex 14.6252 16.9646 0
      vertex 14.8744 16.9961 3
      vertex 14.6252 16.9646 3
    endloop
  endfacet
  facet normal 0.125407 -0.992105 0
    outer loop
      vertex 14.8744 16.9961 3
      vertex 14.6252 16.9646 0
      vertex 14.8744 16.9961 0
    endloop
  endfacet
  facet normal -0.904765 -0.425912 5.20173e-19
    outer loop
      vertex 16.8596 15.7362 0
      vertex 16.7526 15.9635 3
      vertex 16.7526 15.9635 0
    endloop
  endfacet
  facet normal -0.904765 -0.425912 5.20173e-19
    outer loop
      vertex 16.7526 15.9635 3
      vertex 16.8596 15.7362 0
      vertex 16.8596 15.7362 3
    endloop
  endfacet
  facet normal 0.588148 0.808753 -0
    outer loop
      vertex 13.9283 13.3113 0
      vertex 13.7252 13.459 3
      vertex 13.9283 13.3113 3
    endloop
  endfacet
  facet normal 0.588148 0.808753 0
    outer loop
      vertex 13.7252 13.459 3
      vertex 13.9283 13.3113 0
      vertex 13.7252 13.459 0
    endloop
  endfacet
  facet normal 0 1 -0
    outer loop
      vertex 15.1256 13.0039 0
      vertex 14.8744 13.0039 3
      vertex 15.1256 13.0039 3
    endloop
  endfacet
  facet normal 0 1 0
    outer loop
      vertex 14.8744 13.0039 3
      vertex 15.1256 13.0039 0
      vertex 14.8744 13.0039 0
    endloop
  endfacet
  facet normal 0.99802 0.0628987 2.81245e-19
    outer loop
      vertex 13.0158 14.7493 3
      vertex 13 15 0
      vertex 13 15 3
    endloop
  endfacet
  facet normal 0.99802 0.0628987 2.81245e-19
    outer loop
      vertex 13 15 0
      vertex 13.0158 14.7493 3
      vertex 13.0158 14.7493 0
    endloop
  endfacet
  facet normal 0.951046 -0.30905 2.97283e-19
    outer loop
      vertex 13.0628 15.4974 3
      vertex 13.1404 15.7362 0
      vertex 13.1404 15.7362 3
    endloop
  endfacet
  facet normal 0.951046 -0.30905 2.97283e-19
    outer loop
      vertex 13.1404 15.7362 0
      vertex 13.0628 15.4974 3
      vertex 13.0628 15.4974 0
    endloop
  endfacet
  facet normal -0.125407 0.992105 0
    outer loop
      vertex 15.3748 13.0354 0
      vertex 15.1256 13.0039 3
      vertex 15.3748 13.0354 3
    endloop
  endfacet
  facet normal -0.125407 0.992105 0
    outer loop
      vertex 15.1256 13.0039 3
      vertex 15.3748 13.0354 0
      vertex 15.1256 13.0039 0
    endloop
  endfacet
  facet normal 0.904765 0.425912 -1.21806e-18
    outer loop
      vertex 13.2474 14.0365 3
      vertex 13.1404 14.2638 0
      vertex 13.1404 14.2638 3
    endloop
  endfacet
  facet normal 0.904765 0.425912 -1.21806e-18
    outer loop
      vertex 13.1404 14.2638 0
      vertex 13.2474 14.0365 3
      vertex 13.2474 14.0365 0
    endloop
  endfacet
  facet normal -0.248902 -0.968529 0
    outer loop
      vertex 15.3748 16.9646 0
      vertex 15.618 16.9021 3
      vertex 15.3748 16.9646 3
    endloop
  endfacet
  facet normal -0.248902 -0.968529 -0
    outer loop
      vertex 15.618 16.9021 3
      vertex 15.3748 16.9646 0
      vertex 15.618 16.9021 0
    endloop
  endfacet
  facet normal 0.904765 -0.425912 1.21806e-18
    outer loop
      vertex 13.1404 15.7362 3
      vertex 13.2474 15.9635 0
      vertex 13.2474 15.9635 3
    endloop
  endfacet
  facet normal 0.904765 -0.425912 1.21806e-18
    outer loop
      vertex 13.2474 15.9635 0
      vertex 13.1404 15.7362 3
      vertex 13.1404 15.7362 0
    endloop
  endfacet
  facet normal 0.248902 0.968529 -0
    outer loop
      vertex 14.6252 13.0354 0
      vertex 14.382 13.0979 3
      vertex 14.6252 13.0354 3
    endloop
  endfacet
  facet normal 0.248902 0.968529 0
    outer loop
      vertex 14.382 13.0979 3
      vertex 14.6252 13.0354 0
      vertex 14.382 13.0979 0
    endloop
  endfacet
  facet normal 0.481751 0.876308 -0
    outer loop
      vertex 14.1484 13.1903 0
      vertex 13.9283 13.3113 3
      vertex 14.1484 13.1903 3
    endloop
  endfacet
  facet normal 0.481751 0.876308 0
    outer loop
      vertex 13.9283 13.3113 3
      vertex 14.1484 13.1903 0
      vertex 13.9283 13.3113 0
    endloop
  endfacet
  facet normal 1 -0 0
    outer loop
      vertex 18 0 3
      vertex 18 7 0
      vertex 18 7 3
    endloop
  endfacet
  facet normal 1 0 0
    outer loop
      vertex 18 7 0
      vertex 18 0 3
      vertex 18 0 0
    endloop
  endfacet
  facet normal 0.996052 -0.0887758 3.90672e-18
    outer loop
      vertex 18.0552 8.87749 3
      vertex 18.2199 10.7254 0
      vertex 18.2199 10.7254 3
    endloop
  endfacet
  facet normal 0.996052 -0.0887758 3.90672e-18
    outer loop
      vertex 18.2199 10.7254 0
      vertex 18.0552 8.87749 3
      vertex 18.0552 8.87749 0
    endloop
  endfacet
  facet normal 0.932741 -0.360548 -2.40807e-20
    outer loop
      vertex 19.3369 15.805 3
      vertex 19.8972 17.2545 0
      vertex 19.8972 17.2545 3
    endloop
  endfacet
  facet normal 0.932741 -0.360548 -2.40807e-20
    outer loop
      vertex 19.8972 17.2545 0
      vertex 19.3369 15.805 3
      vertex 19.3369 15.805 0
    endloop
  endfacet
  facet normal 0.895288 -0.445489 4.4133e-18
    outer loop
      vertex 19.8972 17.2545 3
      vertex 20.538 18.5423 0
      vertex 20.538 18.5423 3
    endloop
  endfacet
  facet normal 0.895288 -0.445489 4.4133e-18
    outer loop
      vertex 20.538 18.5423 0
      vertex 19.8972 17.2545 3
      vertex 19.8972 17.2545 0
    endloop
  endfacet
  facet normal 0.841043 -0.540969 9.99507e-20
    outer loop
      vertex 20.538 18.5423 3
      vertex 21.2492 19.648 0
      vertex 21.2492 19.648 3
    endloop
  endfacet
  facet normal 0.841043 -0.540969 9.99507e-20
    outer loop
      vertex 21.2492 19.648 0
      vertex 20.538 18.5423 3
      vertex 20.538 18.5423 0
    endloop
  endfacet
  facet normal 0.976667 -0.214761 -1.39276e-18
    outer loop
      vertex 18.4916 12.5145 3
      vertex 18.8659 14.2167 0
      vertex 18.8659 14.2167 3
    endloop
  endfacet
  facet normal 0.976667 -0.214761 -1.39276e-18
    outer loop
      vertex 18.8659 14.2167 0
      vertex 18.4916 12.5145 3
      vertex 18.4916 12.5145 0
    endloop
  endfacet
  facet normal 0.761962 -0.647622 -4.14766e-18
    outer loop
      vertex 21.2492 19.648 3
      vertex 22.0195 20.5543 0
      vertex 22.0195 20.5543 3
    endloop
  endfacet
  facet normal 0.761962 -0.647622 -4.14766e-18
    outer loop
      vertex 22.0195 20.5543 0
      vertex 21.2492 19.648 3
      vertex 21.2492 19.648 0
    endloop
  endfacet
  facet normal 0.999568 -0.0293883 -1.20242e-18
    outer loop
      vertex 18 7 3
      vertex 18.0552 8.87749 0
      vertex 18.0552 8.87749 3
    endloop
  endfacet
  facet normal 0.999568 -0.0293883 -1.20242e-18
    outer loop
      vertex 18.0552 8.87749 0
      vertex 18 7 3
      vertex 18 7 0
    endloop
  endfacet
  facet normal 0.481626 -0.876377 0
    outer loop
      vertex 22.8369 21.2468 0
      vertex 23.6883 21.7147 3
      vertex 22.8369 21.2468 3
    endloop
  endfacet
  facet normal 0.481626 -0.876377 0
    outer loop
      vertex 23.6883 21.7147 3
      vertex 22.8369 21.2468 0
      vertex 23.6883 21.7147 0
    endloop
  endfacet
  facet normal 0.646407 -0.762993 0
    outer loop
      vertex 22.0195 20.5543 0
      vertex 22.8369 21.2468 3
      vertex 22.0195 20.5543 3
    endloop
  endfacet
  facet normal 0.646407 -0.762993 0
    outer loop
      vertex 22.8369 21.2468 3
      vertex 22.0195 20.5543 0
      vertex 22.8369 21.2468 0
    endloop
  endfacet
  facet normal 0 -1 0
    outer loop
      vertex 24.5605 21.9504 0
      vertex 25 21.9504 3
      vertex 24.5605 21.9504 3
    endloop
  endfacet
  facet normal 0 -1 -0
    outer loop
      vertex 25 21.9504 3
      vertex 24.5605 21.9504 0
      vertex 25 21.9504 0
    endloop
  endfacet
  facet normal 0.260878 -0.965372 0
    outer loop
      vertex 23.6883 21.7147 0
      vertex 24.5605 21.9504 3
      vertex 23.6883 21.7147 3
    endloop
  endfacet
  facet normal 0.260878 -0.965372 0
    outer loop
      vertex 24.5605 21.9504 3
      vertex 23.6883 21.7147 0
      vertex 24.5605 21.9504 0
    endloop
  endfacet
  facet normal 0.958734 -0.284306 -5.81216e-18
    outer loop
      vertex 18.8659 14.2167 3
      vertex 19.3369 15.805 0
      vertex 19.3369 15.805 3
    endloop
  endfacet
  facet normal 0.958734 -0.284306 -5.81216e-18
    outer loop
      vertex 19.3369 15.805 0
      vertex 18.8659 14.2167 3
      vertex 18.8659 14.2167 0
    endloop
  endfacet
  facet normal 0.988664 -0.150143 3.91254e-18
    outer loop
      vertex 18.2199 10.7254 3
      vertex 18.4916 12.5145 0
      vertex 18.4916 12.5145 3
    endloop
  endfacet
  facet normal 0.988664 -0.150143 3.91254e-18
    outer loop
      vertex 18.4916 12.5145 0
      vertex 18.2199 10.7254 3
      vertex 18.2199 10.7254 0
    endloop
  endfacet
endsolid OpenSCAD_Model
