solid OpenSCAD_Model
  facet normal 0 1 -0
    outer loop
      vertex 0.502324 7.98421 0
      vertex -0.502324 7.98421 8
      vertex 0.502324 7.98421 8
    endloop
  endfacet
  facet normal 0 1 0
    outer loop
      vertex -0.502324 7.98421 8
      vertex 0.502324 7.98421 0
      vertex -0.502324 7.98421 0
    endloop
  endfacet
  facet normal 0.982286 0.187389 1.24275e-18
    outer loop
      vertex 7.93692 1.00267 8
      vertex 7.74866 1.98952 0
      vertex 7.74866 1.98952 8
    endloop
  endfacet
  facet normal 0.982286 0.187389 1.24275e-18
    outer loop
      vertex 7.74866 1.98952 0
      vertex 7.93692 1.00267 8
      vertex 7.93692 1.00267 0
    endloop
  endfacet
  facet normal 0.998027 0.0627879 -3.11906e-19
    outer loop
      vertex 8 0 8
      vertex 7.93692 1.00267 0
      vertex 7.93692 1.00267 8
    endloop
  endfacet
  facet normal 0.998027 0.0627879 -3.11906e-19
    outer loop
      vertex 7.93692 1.00267 0
      vertex 8 0 8
      vertex 8 0 0
    endloop
  endfacet
  facet normal 0.951058 0.309013 -2.53402e-18
    outer loop
      vertex 7.74866 1.98952 8
      vertex 7.43821 2.945 0
      vertex 7.43821 2.945 8
    endloop
  endfacet
  facet normal 0.951058 0.309013 -2.53402e-18
    outer loop
      vertex 7.43821 2.945 0
      vertex 7.74866 1.98952 8
      vertex 7.74866 1.98952 0
    endloop
  endfacet
  facet normal 0.904826 -0.425782 4.18671e-19
    outer loop
      vertex 7.01045 -3.85403 8
      vertex 7.43821 -2.945 0
      vertex 7.43821 -2.945 8
    endloop
  endfacet
  facet normal 0.904826 -0.425782 4.18671e-19
    outer loop
      vertex 7.43821 -2.945 0
      vertex 7.01045 -3.85403 8
      vertex 7.01045 -3.85403 0
    endloop
  endfacet
  facet normal 0.368122 0.929777 -0
    outer loop
      vertex 3.40623 7.23862 0
      vertex 2.47214 7.60845 8
      vertex 3.40623 7.23862 8
    endloop
  endfacet
  facet normal 0.368122 0.929777 0
    outer loop
      vertex 2.47214 7.60845 8
      vertex 3.40623 7.23862 0
      vertex 2.47214 7.60845 0
    endloop
  endfacet
  facet normal 0 0 -1
    outer loop
      vertex 3 0 0
      vertex 8 0 0
      vertex 7.93692 -1.00267 0
    endloop
  endfacet
  facet normal 0 0 -1
    outer loop
      vertex 2.97634 -0.375999 0
      vertex 7.93692 -1.00267 0
      vertex 7.74866 -1.98952 0
    endloop
  endfacet
  facet normal 0 0 -1
    outer loop
      vertex 8 0 0
      vertex 3 0 0
      vertex 7.93692 1.00267 0
    endloop
  endfacet
  facet normal 0 0 -1
    outer loop
      vertex 2.90575 -0.746069 0
      vertex 7.74866 -1.98952 0
      vertex 7.43821 -2.945 0
    endloop
  endfacet
  facet normal 0 0 -1
    outer loop
      vertex 2.97634 0.375999 0
      vertex 7.93692 1.00267 0
      vertex 3 0 0
    endloop
  endfacet
  facet normal 0 0 -1
    outer loop
      vertex 2.78933 -1.10437 0
      vertex 7.43821 -2.945 0
      vertex 7.01045 -3.85403 0
    endloop
  endfacet
  facet normal -0 0 -1
    outer loop
      vertex 7.93692 1.00267 0
      vertex 2.97634 0.375999 0
      vertex 7.74866 1.98952 0
    endloop
  endfacet
  facet normal 0 0 -1
    outer loop
      vertex 2.62892 -1.44526 0
      vertex 7.01045 -3.85403 0
      vertex 6.47214 -4.70228 0
    endloop
  endfacet
  facet normal 0 0 -1
    outer loop
      vertex 2.90575 0.746069 0
      vertex 7.74866 1.98952 0
      vertex 2.97634 0.375999 0
    endloop
  endfacet
  facet normal 0 0 -1
    outer loop
      vertex 2.42705 -1.76336 0
      vertex 6.47214 -4.70228 0
      vertex 5.83175 -5.47638 0
    endloop
  endfacet
  facet normal -0 0 -1
    outer loop
      vertex 7.74866 1.98952 0
      vertex 2.90575 0.746069 0
      vertex 7.43821 2.945 0
    endloop
  endfacet
  facet normal 0 0 -1
    outer loop
      vertex 2.18691 -2.05364 0
      vertex 5.83175 -5.47638 0
      vertex 5.09939 -6.16411 0
    endloop
  endfacet
  facet normal 0 0 -1
    outer loop
      vertex 2.78933 1.10437 0
      vertex 7.43821 2.945 0
      vertex 2.90575 0.746069 0
    endloop
  endfacet
  facet normal 0 0 -1
    outer loop
      vertex 1.91227 -2.31154 0
      vertex 5.09939 -6.16411 0
      vertex 4.28661 -6.75462 0
    endloop
  endfacet
  facet normal -0 0 -1
    outer loop
      vertex 7.43821 2.945 0
      vertex 2.78933 1.10437 0
      vertex 7.01045 3.85403 0
    endloop
  endfacet
  facet normal 0 0 -1
    outer loop
      vertex 1.60748 -2.53298 0
      vertex 4.28661 -6.75462 0
      vertex 3.40623 -7.23862 0
    endloop
  endfacet
  facet normal 0 0 -1
    outer loop
      vertex 2.62892 1.44526 0
      vertex 7.01045 3.85403 0
      vertex 2.78933 1.10437 0
    endloop
  endfacet
  facet normal -0 0 -1
    outer loop
      vertex 7.01045 3.85403 0
      vertex 2.62892 1.44526 0
      vertex 6.47214 4.70228 0
    endloop
  endfacet
  facet normal 0 0 -1
    outer loop
      vertex 7.93692 -1.00267 0
      vertex 2.97634 -0.375999 0
      vertex 3 0 0
    endloop
  endfacet
  facet normal 0 0 -1
    outer loop
      vertex 7.74866 -1.98952 0
      vertex 2.90575 -0.746069 0
      vertex 2.97634 -0.375999 0
    endloop
  endfacet
  facet normal 0 0 -1
    outer loop
      vertex 7.43821 -2.945 0
      vertex 2.78933 -1.10437 0
      vertex 2.90575 -0.746069 0
    endloop
  endfacet
  facet normal 0 0 -1
    outer loop
      vertex 7.01045 -3.85403 0
      vertex 2.62892 -1.44526 0
      vertex 2.78933 -1.10437 0
    endloop
  endfacet
  facet normal 0 0 -1
    outer loop
      vertex 1.27734 -2.71448 0
      vertex 3.40623 -7.23862 0
      vertex 2.47214 -7.60845 0
    endloop
  endfacet
  facet normal 0 0 -1
    outer loop
      vertex 6.47214 -4.70228 0
      vertex 2.42705 -1.76336 0
      vertex 2.62892 -1.44526 0
    endloop
  endfacet
  facet normal 0 0 -1
    outer loop
      vertex 5.83175 -5.47638 0
      vertex 2.18691 -2.05364 0
      vertex 2.42705 -1.76336 0
    endloop
  endfacet
  facet normal 0 0 -1
    outer loop
      vertex 5.09939 -6.16411 0
      vertex 1.91227 -2.31154 0
      vertex 2.18691 -2.05364 0
    endloop
  endfacet
  facet normal 0 0 -1
    outer loop
      vertex 4.28661 -6.75462 0
      vertex 1.60748 -2.53298 0
      vertex 1.91227 -2.31154 0
    endloop
  endfacet
  facet normal 0 0 -1
    outer loop
      vertex 0.927051 -2.85317 0
      vertex 2.47214 -7.60845 0
      vertex 1.49905 -7.8583 0
    endloop
  endfacet
  facet normal 0 0 -1
    outer loop
      vertex 3.40623 -7.23862 0
      vertex 1.27734 -2.71448 0
      vertex 1.60748 -2.53298 0
    endloop
  endfacet
  facet normal 0 0 -1
    outer loop
      vertex 2.47214 -7.60845 0
      vertex 0.927051 -2.85317 0
      vertex 1.27734 -2.71448 0
    endloop
  endfacet
  facet normal 0 0 -1
    outer loop
      vertex 1.49905 -7.8583 0
      vertex 0.562143 -2.94686 0
      vertex 0.927051 -2.85317 0
    endloop
  endfacet
  facet normal 0 0 -1
    outer loop
      vertex 0.502324 -7.98421 0
      vertex 0.562143 -2.94686 0
      vertex 1.49905 -7.8583 0
    endloop
  endfacet
  facet normal 0 0 -1
    outer loop
      vertex 0.502324 -7.98421 0
      vertex 0.188371 -2.99408 0
      vertex 0.562143 -2.94686 0
    endloop
  endfacet
  facet normal 0 0 -1
    outer loop
      vertex 0.502324 -7.98421 0
      vertex -0.188371 -2.99408 0
      vertex 0.188371 -2.99408 0
    endloop
  endfacet
  facet normal 0 0 -1
    outer loop
      vertex -0.502324 -7.98421 0
      vertex -0.188371 -2.99408 0
      vertex 0.502324 -7.98421 0
    endloop
  endfacet
  facet normal 0 0 -1
    outer loop
      vertex -0.502324 -7.98421 0
      vertex -0.562143 -2.94686 0
      vertex -0.188371 -2.99408 0
    endloop
  endfacet
  facet normal 0 0 -1
    outer loop
      vertex -1.49905 -7.8583 0
      vertex -0.562143 -2.94686 0
      vertex -0.502324 -7.98421 0
    endloop
  endfacet
  facet normal -0 0 -1
    outer loop
      vertex -0.562143 -2.94686 0
      vertex -1.49905 -7.8583 0
      vertex -0.927051 -2.85317 0
    endloop
  endfacet
  facet normal 0 0 -1
    outer loop
      vertex -2.47214 -7.60845 0
      vertex -0.927051 -2.85317 0
      vertex -1.49905 -7.8583 0
    endloop
  endfacet
  facet normal -0 0 -1
    outer loop
      vertex -0.927051 -2.85317 0
      vertex -2.47214 -7.60845 0
      vertex -1.27734 -2.71448 0
    endloop
  endfacet
  facet normal 0 0 -1
    outer loop
      vertex -3.40623 -7.23862 0
      vertex -1.27734 -2.71448 0
      vertex -2.47214 -7.60845 0
    endloop
  endfacet
  facet normal -0 0 -1
    outer loop
      vertex -1.27734 -2.71448 0
      vertex -3.40623 -7.23862 0
      vertex -1.60748 -2.53298 0
    endloop
  endfacet
  facet normal 0 0 -1
    outer loop
      vertex -4.28661 -6.75462 0
      vertex -1.60748 -2.53298 0
      vertex -3.40623 -7.23862 0
    endloop
  endfacet
  facet normal -0 0 -1
    outer loop
      vertex -1.60748 -2.53298 0
      vertex -4.28661 -6.75462 0
      vertex -1.91227 -2.31154 0
    endloop
  endfacet
  facet normal 0 0 -1
    outer loop
      vertex -5.09939 -6.16411 0
      vertex -1.91227 -2.31154 0
      vertex -4.28661 -6.75462 0
    endloop
  endfacet
  facet normal -0 0 -1
    outer loop
      vertex -1.91227 -2.31154 0
      vertex -5.09939 -6.16411 0
      vertex -2.18691 -2.05364 0
    endloop
  endfacet
  facet normal 0 0 -1
    outer loop
      vertex -5.83175 -5.47638 0
      vertex -2.18691 -2.05364 0
      vertex -5.09939 -6.16411 0
    endloop
  endfacet
  facet normal -0 0 -1
    outer loop
      vertex -2.18691 -2.05364 0
      vertex -5.83175 -5.47638 0
      vertex -2.42705 -1.76336 0
    endloop
  endfacet
  facet normal -0 0 -1
    outer loop
      vertex -2.42705 -1.76336 0
      vertex -6.47214 -4.70228 0
      vertex -2.62892 -1.44526 0
    endloop
  endfacet
  facet normal 0 0 -1
    outer loop
      vertex -6.47214 -4.70228 0
      vertex -2.42705 -1.76336 0
      vertex -5.83175 -5.47638 0
    endloop
  endfacet
  facet normal 0 0 -1
    outer loop
      vertex 2.42705 1.76336 0
      vertex 6.47214 4.70228 0
      vertex 2.62892 1.44526 0
    endloop
  endfacet
  facet normal -0 0 -1
    outer loop
      vertex 6.47214 4.70228 0
      vertex 2.42705 1.76336 0
      vertex 5.83175 5.47638 0
    endloop
  endfacet
  facet normal 0 0 -1
    outer loop
      vertex 2.18691 2.05364 0
      vertex 5.83175 5.47638 0
      vertex 2.42705 1.76336 0
    endloop
  endfacet
  facet normal -0 0 -1
    outer loop
      vertex 5.83175 5.47638 0
      vertex 2.18691 2.05364 0
      vertex 5.09939 6.16411 0
    endloop
  endfacet
  facet normal 0 0 -1
    outer loop
      vertex 1.91227 2.31154 0
      vertex 5.09939 6.16411 0
      vertex 2.18691 2.05364 0
    endloop
  endfacet
  facet normal -0 0 -1
    outer loop
      vertex 5.09939 6.16411 0
      vertex 1.91227 2.31154 0
      vertex 4.28661 6.75462 0
    endloop
  endfacet
  facet normal 0 0 -1
    outer loop
      vertex 1.60748 2.53298 0
      vertex 4.28661 6.75462 0
      vertex 1.91227 2.31154 0
    endloop
  endfacet
  facet normal -0 0 -1
    outer loop
      vertex 4.28661 6.75462 0
      vertex 1.60748 2.53298 0
      vertex 3.40623 7.23862 0
    endloop
  endfacet
  facet normal 0 0 -1
    outer loop
      vertex 1.27734 2.71448 0
      vertex 3.40623 7.23862 0
      vertex 1.60748 2.53298 0
    endloop
  endfacet
  facet normal -0 0 -1
    outer loop
      vertex 3.40623 7.23862 0
      vertex 1.27734 2.71448 0
      vertex 2.47214 7.60845 0
    endloop
  endfacet
  facet normal 0 0 -1
    outer loop
      vertex 0.927051 2.85317 0
      vertex 2.47214 7.60845 0
      vertex 1.27734 2.71448 0
    endloop
  endfacet
  facet normal -0 0 -1
    outer loop
      vertex 2.47214 7.60845 0
      vertex 0.927051 2.85317 0
      vertex 1.49905 7.8583 0
    endloop
  endfacet
  facet normal 0 0 -1
    outer loop
      vertex 0.562143 2.94686 0
      vertex 1.49905 7.8583 0
      vertex 0.927051 2.85317 0
    endloop
  endfacet
  facet normal 0 0 -1
    outer loop
      vertex 0.562143 2.94686 0
      vertex 0.502324 7.98421 0
      vertex 1.49905 7.8583 0
    endloop
  endfacet
  facet normal 0 0 -1
    outer loop
      vertex 0.188371 2.99408 0
      vertex 0.502324 7.98421 0
      vertex 0.562143 2.94686 0
    endloop
  endfacet
  facet normal 0 0 -1
    outer loop
      vertex -0.188371 2.99408 0
      vertex 0.502324 7.98421 0
      vertex 0.188371 2.99408 0
    endloop
  endfacet
  facet normal 0 0 -1
    outer loop
      vertex -0.188371 2.99408 0
      vertex -0.502324 7.98421 0
      vertex 0.502324 7.98421 0
    endloop
  endfacet
  facet normal 0 0 -1
    outer loop
      vertex -0.562143 2.94686 0
      vertex -0.502324 7.98421 0
      vertex -0.188371 2.99408 0
    endloop
  endfacet
  facet normal 0 0 -1
    outer loop
      vertex -1.49905 7.8583 0
      vertex -0.562143 2.94686 0
      vertex -0.927051 2.85317 0
    endloop
  endfacet
  facet normal 0 0 -1
    outer loop
      vertex -2.47214 7.60845 0
      vertex -0.927051 2.85317 0
      vertex -1.27734 2.71448 0
    endloop
  endfacet
  facet normal 0 0 -1
    outer loop
      vertex -0.562143 2.94686 0
      vertex -1.49905 7.8583 0
      vertex -0.502324 7.98421 0
    endloop
  endfacet
  facet normal 0 0 -1
    outer loop
      vertex -3.40623 7.23862 0
      vertex -1.27734 2.71448 0
      vertex -1.60748 2.53298 0
    endloop
  endfacet
  facet normal 0 0 -1
    outer loop
      vertex -4.28661 6.75462 0
      vertex -1.60748 2.53298 0
      vertex -1.91227 2.31154 0
    endloop
  endfacet
  facet normal 0 0 -1
    outer loop
      vertex -5.09939 6.16411 0
      vertex -1.91227 2.31154 0
      vertex -2.18691 2.05364 0
    endloop
  endfacet
  facet normal 0 0 -1
    outer loop
      vertex -5.83175 5.47638 0
      vertex -2.18691 2.05364 0
      vertex -2.42705 1.76336 0
    endloop
  endfacet
  facet normal 0 0 -1
    outer loop
      vertex -0.927051 2.85317 0
      vertex -2.47214 7.60845 0
      vertex -1.49905 7.8583 0
    endloop
  endfacet
  facet normal 0 0 -1
    outer loop
      vertex -6.47214 4.70228 0
      vertex -2.42705 1.76336 0
      vertex -2.62892 1.44526 0
    endloop
  endfacet
  facet normal 0 0 -1
    outer loop
      vertex -7.01045 3.85403 0
      vertex -2.62892 1.44526 0
      vertex -2.78933 1.10437 0
    endloop
  endfacet
  facet normal 0 0 -1
    outer loop
      vertex -7.43821 2.945 0
      vertex -2.78933 1.10437 0
      vertex -2.90575 0.746069 0
    endloop
  endfacet
  facet normal 0 0 -1
    outer loop
      vertex -7.74866 1.98952 0
      vertex -2.90575 0.746069 0
      vertex -2.97634 0.375999 0
    endloop
  endfacet
  facet normal 0 0 -1
    outer loop
      vertex -1.27734 2.71448 0
      vertex -3.40623 7.23862 0
      vertex -2.47214 7.60845 0
    endloop
  endfacet
  facet normal 0 0 -1
    outer loop
      vertex -7.93692 1.00267 0
      vertex -2.97634 0.375999 0
      vertex -3 0 0
    endloop
  endfacet
  facet normal 0 0 -1
    outer loop
      vertex -7.01045 -3.85403 0
      vertex -2.62892 -1.44526 0
      vertex -6.47214 -4.70228 0
    endloop
  endfacet
  facet normal -0 0 -1
    outer loop
      vertex -2.62892 -1.44526 0
      vertex -7.01045 -3.85403 0
      vertex -2.78933 -1.10437 0
    endloop
  endfacet
  facet normal 0 0 -1
    outer loop
      vertex -1.60748 2.53298 0
      vertex -4.28661 6.75462 0
      vertex -3.40623 7.23862 0
    endloop
  endfacet
  facet normal 0 0 -1
    outer loop
      vertex -7.43821 -2.945 0
      vertex -2.78933 -1.10437 0
      vertex -7.01045 -3.85403 0
    endloop
  endfacet
  facet normal 0 0 -1
    outer loop
      vertex -1.91227 2.31154 0
      vertex -5.09939 6.16411 0
      vertex -4.28661 6.75462 0
    endloop
  endfacet
  facet normal -0 0 -1
    outer loop
      vertex -2.78933 -1.10437 0
      vertex -7.43821 -2.945 0
      vertex -2.90575 -0.746069 0
    endloop
  endfacet
  facet normal 0 0 -1
    outer loop
      vertex -2.18691 2.05364 0
      vertex -5.83175 5.47638 0
      vertex -5.09939 6.16411 0
    endloop
  endfacet
  facet normal 0 0 -1
    outer loop
      vertex -7.74866 -1.98952 0
      vertex -2.90575 -0.746069 0
      vertex -7.43821 -2.945 0
    endloop
  endfacet
  facet normal 0 0 -1
    outer loop
      vertex -2.42705 1.76336 0
      vertex -6.47214 4.70228 0
      vertex -5.83175 5.47638 0
    endloop
  endfacet
  facet normal -0 0 -1
    outer loop
      vertex -2.90575 -0.746069 0
      vertex -7.74866 -1.98952 0
      vertex -2.97634 -0.375999 0
    endloop
  endfacet
  facet normal 0 0 -1
    outer loop
      vertex -2.62892 1.44526 0
      vertex -7.01045 3.85403 0
      vertex -6.47214 4.70228 0
    endloop
  endfacet
  facet normal 0 0 -1
    outer loop
      vertex -7.93692 -1.00267 0
      vertex -2.97634 -0.375999 0
      vertex -7.74866 -1.98952 0
    endloop
  endfacet
  facet normal 0 0 -1
    outer loop
      vertex -2.78933 1.10437 0
      vertex -7.43821 2.945 0
      vertex -7.01045 3.85403 0
    endloop
  endfacet
  facet normal -0 0 -1
    outer loop
      vertex -2.97634 -0.375999 0
      vertex -7.93692 -1.00267 0
      vertex -3 0 0
    endloop
  endfacet
  facet normal 0 0 -1
    outer loop
      vertex -2.90575 0.746069 0
      vertex -7.74866 1.98952 0
      vertex -7.43821 2.945 0
    endloop
  endfacet
  facet normal 0 0 -1
    outer loop
      vertex -8 0 0
      vertex -3 0 0
      vertex -7.93692 -1.00267 0
    endloop
  endfacet
  facet normal 0 0 -1
    outer loop
      vertex -2.97634 0.375999 0
      vertex -7.93692 1.00267 0
      vertex -7.74866 1.98952 0
    endloop
  endfacet
  facet normal 0 0 -1
    outer loop
      vertex -3 0 0
      vertex -8 0 0
      vertex -7.93692 1.00267 0
    endloop
  endfacet
  facet normal -0.844331 0.535823 -1.59072e-18
    outer loop
      vertex -7.01045 3.85403 0
      vertex -6.47214 4.70228 8
      vertex -6.47214 4.70228 0
    endloop
  endfacet
  facet normal -0.844331 0.535823 -1.59072e-18
    outer loop
      vertex -6.47214 4.70228 8
      vertex -7.01045 3.85403 0
      vertex -7.01045 3.85403 8
    endloop
  endfacet
  facet normal -0.684546 -0.72897 0
    outer loop
      vertex -5.83175 -5.47638 0
      vertex -5.09939 -6.16411 8
      vertex -5.83175 -5.47638 8
    endloop
  endfacet
  facet normal -0.684546 -0.72897 -0
    outer loop
      vertex -5.09939 -6.16411 8
      vertex -5.83175 -5.47638 0
      vertex -5.09939 -6.16411 0
    endloop
  endfacet
  facet normal 0.998027 -0.0627879 3.11906e-19
    outer loop
      vertex 7.93692 -1.00267 8
      vertex 8 0 0
      vertex 8 0 8
    endloop
  endfacet
  facet normal 0.998027 -0.0627879 3.11906e-19
    outer loop
      vertex 8 0 0
      vertex 7.93692 -1.00267 8
      vertex 7.93692 -1.00267 0
    endloop
  endfacet
  facet normal 0.904826 0.425782 -4.18671e-19
    outer loop
      vertex 7.43821 2.945 8
      vertex 7.01045 3.85403 0
      vertex 7.01045 3.85403 8
    endloop
  endfacet
  facet normal 0.904826 0.425782 -4.18671e-19
    outer loop
      vertex 7.01045 3.85403 0
      vertex 7.43821 2.945 8
      vertex 7.43821 2.945 0
    endloop
  endfacet
  facet normal -0.770514 0.637423 -5.49111e-19
    outer loop
      vertex -6.47214 4.70228 0
      vertex -5.83175 5.47638 8
      vertex -5.83175 5.47638 0
    endloop
  endfacet
  facet normal -0.770514 0.637423 -5.49111e-19
    outer loop
      vertex -5.83175 5.47638 8
      vertex -6.47214 4.70228 0
      vertex -6.47214 4.70228 8
    endloop
  endfacet
  facet normal 0.770514 -0.637423 -5.49111e-19
    outer loop
      vertex 5.83175 -5.47638 8
      vertex 6.47214 -4.70228 0
      vertex 6.47214 -4.70228 8
    endloop
  endfacet
  facet normal 0.770514 -0.637423 -5.49111e-19
    outer loop
      vertex 6.47214 -4.70228 0
      vertex 5.83175 -5.47638 8
      vertex 5.83175 -5.47638 0
    endloop
  endfacet
  facet normal -0.587779 0.809021 0
    outer loop
      vertex -4.28661 6.75462 0
      vertex -5.09939 6.16411 8
      vertex -4.28661 6.75462 8
    endloop
  endfacet
  facet normal -0.587779 0.809021 0
    outer loop
      vertex -5.09939 6.16411 8
      vertex -4.28661 6.75462 0
      vertex -5.09939 6.16411 0
    endloop
  endfacet
  facet normal 0 0 1
    outer loop
      vertex 3 0 8
      vertex 8 0 8
      vertex 7.93692 1.00267 8
    endloop
  endfacet
  facet normal 0 0 1
    outer loop
      vertex 2.97634 0.375999 8
      vertex 7.93692 1.00267 8
      vertex 7.74866 1.98952 8
    endloop
  endfacet
  facet normal 0 0 1
    outer loop
      vertex 8 0 8
      vertex 3 0 8
      vertex 7.93692 -1.00267 8
    endloop
  endfacet
  facet normal 0 0 1
    outer loop
      vertex 2.90575 0.746069 8
      vertex 7.74866 1.98952 8
      vertex 7.43821 2.945 8
    endloop
  endfacet
  facet normal -0 0 1
    outer loop
      vertex 2.97634 -0.375999 8
      vertex 7.93692 -1.00267 8
      vertex 3 0 8
    endloop
  endfacet
  facet normal 0 0 1
    outer loop
      vertex 2.78933 1.10437 8
      vertex 7.43821 2.945 8
      vertex 7.01045 3.85403 8
    endloop
  endfacet
  facet normal 0 0 1
    outer loop
      vertex 7.93692 -1.00267 8
      vertex 2.97634 -0.375999 8
      vertex 7.74866 -1.98952 8
    endloop
  endfacet
  facet normal 0 0 1
    outer loop
      vertex 2.62892 1.44526 8
      vertex 7.01045 3.85403 8
      vertex 6.47214 4.70228 8
    endloop
  endfacet
  facet normal -0 0 1
    outer loop
      vertex 2.90575 -0.746069 8
      vertex 7.74866 -1.98952 8
      vertex 2.97634 -0.375999 8
    endloop
  endfacet
  facet normal 0 0 1
    outer loop
      vertex 2.42705 1.76336 8
      vertex 6.47214 4.70228 8
      vertex 5.83175 5.47638 8
    endloop
  endfacet
  facet normal 0 0 1
    outer loop
      vertex 7.74866 -1.98952 8
      vertex 2.90575 -0.746069 8
      vertex 7.43821 -2.945 8
    endloop
  endfacet
  facet normal 0 0 1
    outer loop
      vertex 2.18691 2.05364 8
      vertex 5.83175 5.47638 8
      vertex 5.09939 6.16411 8
    endloop
  endfacet
  facet normal -0 0 1
    outer loop
      vertex 2.78933 -1.10437 8
      vertex 7.43821 -2.945 8
      vertex 2.90575 -0.746069 8
    endloop
  endfacet
  facet normal 0 0 1
    outer loop
      vertex 1.91227 2.31154 8
      vertex 5.09939 6.16411 8
      vertex 4.28661 6.75462 8
    endloop
  endfacet
  facet normal 0 0 1
    outer loop
      vertex 7.43821 -2.945 8
      vertex 2.78933 -1.10437 8
      vertex 7.01045 -3.85403 8
    endloop
  endfacet
  facet normal 0 0 1
    outer loop
      vertex 1.60748 2.53298 8
      vertex 4.28661 6.75462 8
      vertex 3.40623 7.23862 8
    endloop
  endfacet
  facet normal -0 0 1
    outer loop
      vertex 2.62892 -1.44526 8
      vertex 7.01045 -3.85403 8
      vertex 2.78933 -1.10437 8
    endloop
  endfacet
  facet normal 0 0 1
    outer loop
      vertex 7.01045 -3.85403 8
      vertex 2.62892 -1.44526 8
      vertex 6.47214 -4.70228 8
    endloop
  endfacet
  facet normal 0 0 1
    outer loop
      vertex 7.93692 1.00267 8
      vertex 2.97634 0.375999 8
      vertex 3 0 8
    endloop
  endfacet
  facet normal 0 0 1
    outer loop
      vertex 7.74866 1.98952 8
      vertex 2.90575 0.746069 8
      vertex 2.97634 0.375999 8
    endloop
  endfacet
  facet normal 0 0 1
    outer loop
      vertex 7.43821 2.945 8
      vertex 2.78933 1.10437 8
      vertex 2.90575 0.746069 8
    endloop
  endfacet
  facet normal 0 0 1
    outer loop
      vertex 7.01045 3.85403 8
      vertex 2.62892 1.44526 8
      vertex 2.78933 1.10437 8
    endloop
  endfacet
  facet normal 0 0 1
    outer loop
      vertex 1.27734 2.71448 8
      vertex 3.40623 7.23862 8
      vertex 2.47214 7.60845 8
    endloop
  endfacet
  facet normal 0 0 1
    outer loop
      vertex 6.47214 4.70228 8
      vertex 2.42705 1.76336 8
      vertex 2.62892 1.44526 8
    endloop
  endfacet
  facet normal 0 0 1
    outer loop
      vertex 5.83175 5.47638 8
      vertex 2.18691 2.05364 8
      vertex 2.42705 1.76336 8
    endloop
  endfacet
  facet normal 0 0 1
    outer loop
      vertex 5.09939 6.16411 8
      vertex 1.91227 2.31154 8
      vertex 2.18691 2.05364 8
    endloop
  endfacet
  facet normal 0 0 1
    outer loop
      vertex 4.28661 6.75462 8
      vertex 1.60748 2.53298 8
      vertex 1.91227 2.31154 8
    endloop
  endfacet
  facet normal 0 0 1
    outer loop
      vertex 0.927051 2.85317 8
      vertex 2.47214 7.60845 8
      vertex 1.49905 7.8583 8
    endloop
  endfacet
  facet normal 0 0 1
    outer loop
      vertex 3.40623 7.23862 8
      vertex 1.27734 2.71448 8
      vertex 1.60748 2.53298 8
    endloop
  endfacet
  facet normal 0 0 1
    outer loop
      vertex 2.47214 7.60845 8
      vertex 0.927051 2.85317 8
      vertex 1.27734 2.71448 8
    endloop
  endfacet
  facet normal 0 0 1
    outer loop
      vertex 1.49905 7.8583 8
      vertex 0.562143 2.94686 8
      vertex 0.927051 2.85317 8
    endloop
  endfacet
  facet normal 0 0 1
    outer loop
      vertex 0.502324 7.98421 8
      vertex 0.562143 2.94686 8
      vertex 1.49905 7.8583 8
    endloop
  endfacet
  facet normal 0 0 1
    outer loop
      vertex 0.502324 7.98421 8
      vertex 0.188371 2.99408 8
      vertex 0.562143 2.94686 8
    endloop
  endfacet
  facet normal 0 0 1
    outer loop
      vertex 0.502324 7.98421 8
      vertex -0.188371 2.99408 8
      vertex 0.188371 2.99408 8
    endloop
  endfacet
  facet normal -0 0 1
    outer loop
      vertex -0.502324 7.98421 8
      vertex -0.188371 2.99408 8
      vertex 0.502324 7.98421 8
    endloop
  endfacet
  facet normal 0 0 1
    outer loop
      vertex -0.502324 7.98421 8
      vertex -0.562143 2.94686 8
      vertex -0.188371 2.99408 8
    endloop
  endfacet
  facet normal -0 0 1
    outer loop
      vertex -1.49905 7.8583 8
      vertex -0.562143 2.94686 8
      vertex -0.502324 7.98421 8
    endloop
  endfacet
  facet normal 0 0 1
    outer loop
      vertex -0.562143 2.94686 8
      vertex -1.49905 7.8583 8
      vertex -0.927051 2.85317 8
    endloop
  endfacet
  facet normal -0 0 1
    outer loop
      vertex -2.47214 7.60845 8
      vertex -0.927051 2.85317 8
      vertex -1.49905 7.8583 8
    endloop
  endfacet
  facet normal 0 0 1
    outer loop
      vertex -0.927051 2.85317 8
      vertex -2.47214 7.60845 8
      vertex -1.27734 2.71448 8
    endloop
  endfacet
  facet normal -0 0 1
    outer loop
      vertex -3.40623 7.23862 8
      vertex -1.27734 2.71448 8
      vertex -2.47214 7.60845 8
    endloop
  endfacet
  facet normal 0 0 1
    outer loop
      vertex -1.27734 2.71448 8
      vertex -3.40623 7.23862 8
      vertex -1.60748 2.53298 8
    endloop
  endfacet
  facet normal -0 0 1
    outer loop
      vertex -4.28661 6.75462 8
      vertex -1.60748 2.53298 8
      vertex -3.40623 7.23862 8
    endloop
  endfacet
  facet normal 0 0 1
    outer loop
      vertex -1.60748 2.53298 8
      vertex -4.28661 6.75462 8
      vertex -1.91227 2.31154 8
    endloop
  endfacet
  facet normal -0 0 1
    outer loop
      vertex -5.09939 6.16411 8
      vertex -1.91227 2.31154 8
      vertex -4.28661 6.75462 8
    endloop
  endfacet
  facet normal 0 0 1
    outer loop
      vertex -1.91227 2.31154 8
      vertex -5.09939 6.16411 8
      vertex -2.18691 2.05364 8
    endloop
  endfacet
  facet normal -0 0 1
    outer loop
      vertex -5.83175 5.47638 8
      vertex -2.18691 2.05364 8
      vertex -5.09939 6.16411 8
    endloop
  endfacet
  facet normal 0 0 1
    outer loop
      vertex -2.18691 2.05364 8
      vertex -5.83175 5.47638 8
      vertex -2.42705 1.76336 8
    endloop
  endfacet
  facet normal 0 0 1
    outer loop
      vertex -2.42705 1.76336 8
      vertex -6.47214 4.70228 8
      vertex -2.62892 1.44526 8
    endloop
  endfacet
  facet normal -0 0 1
    outer loop
      vertex -6.47214 4.70228 8
      vertex -2.42705 1.76336 8
      vertex -5.83175 5.47638 8
    endloop
  endfacet
  facet normal -0 0 1
    outer loop
      vertex 2.42705 -1.76336 8
      vertex 6.47214 -4.70228 8
      vertex 2.62892 -1.44526 8
    endloop
  endfacet
  facet normal 0 0 1
    outer loop
      vertex 6.47214 -4.70228 8
      vertex 2.42705 -1.76336 8
      vertex 5.83175 -5.47638 8
    endloop
  endfacet
  facet normal -0 0 1
    outer loop
      vertex 2.18691 -2.05364 8
      vertex 5.83175 -5.47638 8
      vertex 2.42705 -1.76336 8
    endloop
  endfacet
  facet normal 0 0 1
    outer loop
      vertex 5.83175 -5.47638 8
      vertex 2.18691 -2.05364 8
      vertex 5.09939 -6.16411 8
    endloop
  endfacet
  facet normal -0 0 1
    outer loop
      vertex 1.91227 -2.31154 8
      vertex 5.09939 -6.16411 8
      vertex 2.18691 -2.05364 8
    endloop
  endfacet
  facet normal 0 0 1
    outer loop
      vertex 5.09939 -6.16411 8
      vertex 1.91227 -2.31154 8
      vertex 4.28661 -6.75462 8
    endloop
  endfacet
  facet normal -0 0 1
    outer loop
      vertex 1.60748 -2.53298 8
      vertex 4.28661 -6.75462 8
      vertex 1.91227 -2.31154 8
    endloop
  endfacet
  facet normal 0 0 1
    outer loop
      vertex 4.28661 -6.75462 8
      vertex 1.60748 -2.53298 8
      vertex 3.40623 -7.23862 8
    endloop
  endfacet
  facet normal -0 0 1
    outer loop
      vertex 1.27734 -2.71448 8
      vertex 3.40623 -7.23862 8
      vertex 1.60748 -2.53298 8
    endloop
  endfacet
  facet normal 0 0 1
    outer loop
      vertex 3.40623 -7.23862 8
      vertex 1.27734 -2.71448 8
      vertex 2.47214 -7.60845 8
    endloop
  endfacet
  facet normal -0 0 1
    outer loop
      vertex 0.927051 -2.85317 8
      vertex 2.47214 -7.60845 8
      vertex 1.27734 -2.71448 8
    endloop
  endfacet
  facet normal 0 0 1
    outer loop
      vertex 2.47214 -7.60845 8
      vertex 0.927051 -2.85317 8
      vertex 1.49905 -7.8583 8
    endloop
  endfacet
  facet normal -0 0 1
    outer loop
      vertex 0.562143 -2.94686 8
      vertex 1.49905 -7.8583 8
      vertex 0.927051 -2.85317 8
    endloop
  endfacet
  facet normal 0 0 1
    outer loop
      vertex 0.562143 -2.94686 8
      vertex 0.502324 -7.98421 8
      vertex 1.49905 -7.8583 8
    endloop
  endfacet
  facet normal -0 0 1
    outer loop
      vertex 0.188371 -2.99408 8
      vertex 0.502324 -7.98421 8
      vertex 0.562143 -2.94686 8
    endloop
  endfacet
  facet normal -0 0 1
    outer loop
      vertex -0.188371 -2.99408 8
      vertex 0.502324 -7.98421 8
      vertex 0.188371 -2.99408 8
    endloop
  endfacet
  facet normal 0 0 1
    outer loop
      vertex -0.188371 -2.99408 8
      vertex -0.502324 -7.98421 8
      vertex 0.502324 -7.98421 8
    endloop
  endfacet
  facet normal 0 0 1
    outer loop
      vertex -0.562143 -2.94686 8
      vertex -0.502324 -7.98421 8
      vertex -0.188371 -2.99408 8
    endloop
  endfacet
  facet normal 0 0 1
    outer loop
      vertex -1.49905 -7.8583 8
      vertex -0.562143 -2.94686 8
      vertex -0.927051 -2.85317 8
    endloop
  endfacet
  facet normal 0 0 1
    outer loop
      vertex -2.47214 -7.60845 8
      vertex -0.927051 -2.85317 8
      vertex -1.27734 -2.71448 8
    endloop
  endfacet
  facet normal 0 0 1
    outer loop
      vertex -0.562143 -2.94686 8
      vertex -1.49905 -7.8583 8
      vertex -0.502324 -7.98421 8
    endloop
  endfacet
  facet normal 0 0 1
    outer loop
      vertex -3.40623 -7.23862 8
      vertex -1.27734 -2.71448 8
      vertex -1.60748 -2.53298 8
    endloop
  endfacet
  facet normal 0 0 1
    outer loop
      vertex -4.28661 -6.75462 8
      vertex -1.60748 -2.53298 8
      vertex -1.91227 -2.31154 8
    endloop
  endfacet
  facet normal 0 0 1
    outer loop
      vertex -5.09939 -6.16411 8
      vertex -1.91227 -2.31154 8
      vertex -2.18691 -2.05364 8
    endloop
  endfacet
  facet normal 0 0 1
    outer loop
      vertex -5.83175 -5.47638 8
      vertex -2.18691 -2.05364 8
      vertex -2.42705 -1.76336 8
    endloop
  endfacet
  facet normal 0 0 1
    outer loop
      vertex -0.927051 -2.85317 8
      vertex -2.47214 -7.60845 8
      vertex -1.49905 -7.8583 8
    endloop
  endfacet
  facet normal 0 0 1
    outer loop
      vertex -6.47214 -4.70228 8
      vertex -2.42705 -1.76336 8
      vertex -2.62892 -1.44526 8
    endloop
  endfacet
  facet normal 0 0 1
    outer loop
      vertex -7.01045 -3.85403 8
      vertex -2.62892 -1.44526 8
      vertex -2.78933 -1.10437 8
    endloop
  endfacet
  facet normal 0 0 1
    outer loop
      vertex -7.43821 -2.945 8
      vertex -2.78933 -1.10437 8
      vertex -2.90575 -0.746069 8
    endloop
  endfacet
  facet normal 0 0 1
    outer loop
      vertex -7.74866 -1.98952 8
      vertex -2.90575 -0.746069 8
      vertex -2.97634 -0.375999 8
    endloop
  endfacet
  facet normal 0 0 1
    outer loop
      vertex -1.27734 -2.71448 8
      vertex -3.40623 -7.23862 8
      vertex -2.47214 -7.60845 8
    endloop
  endfacet
  facet normal 0 0 1
    outer loop
      vertex -7.93692 -1.00267 8
      vertex -2.97634 -0.375999 8
      vertex -3 0 8
    endloop
  endfacet
  facet normal -0 0 1
    outer loop
      vertex -7.01045 3.85403 8
      vertex -2.62892 1.44526 8
      vertex -6.47214 4.70228 8
    endloop
  endfacet
  facet normal 0 0 1
    outer loop
      vertex -2.62892 1.44526 8
      vertex -7.01045 3.85403 8
      vertex -2.78933 1.10437 8
    endloop
  endfacet
  facet normal 0 0 1
    outer loop
      vertex -1.60748 -2.53298 8
      vertex -4.28661 -6.75462 8
      vertex -3.40623 -7.23862 8
    endloop
  endfacet
  facet normal -0 0 1
    outer loop
      vertex -7.43821 2.945 8
      vertex -2.78933 1.10437 8
      vertex -7.01045 3.85403 8
    endloop
  endfacet
  facet normal 0 0 1
    outer loop
      vertex -1.91227 -2.31154 8
      vertex -5.09939 -6.16411 8
      vertex -4.28661 -6.75462 8
    endloop
  endfacet
  facet normal 0 0 1
    outer loop
      vertex -2.78933 1.10437 8
      vertex -7.43821 2.945 8
      vertex -2.90575 0.746069 8
    endloop
  endfacet
  facet normal 0 0 1
    outer loop
      vertex -2.18691 -2.05364 8
      vertex -5.83175 -5.47638 8
      vertex -5.09939 -6.16411 8
    endloop
  endfacet
  facet normal -0 0 1
    outer loop
      vertex -7.74866 1.98952 8
      vertex -2.90575 0.746069 8
      vertex -7.43821 2.945 8
    endloop
  endfacet
  facet normal 0 0 1
    outer loop
      vertex -2.42705 -1.76336 8
      vertex -6.47214 -4.70228 8
      vertex -5.83175 -5.47638 8
    endloop
  endfacet
  facet normal 0 0 1
    outer loop
      vertex -2.90575 0.746069 8
      vertex -7.74866 1.98952 8
      vertex -2.97634 0.375999 8
    endloop
  endfacet
  facet normal 0 0 1
    outer loop
      vertex -2.62892 -1.44526 8
      vertex -7.01045 -3.85403 8
      vertex -6.47214 -4.70228 8
    endloop
  endfacet
  facet normal -0 0 1
    outer loop
      vertex -7.93692 1.00267 8
      vertex -2.97634 0.375999 8
      vertex -7.74866 1.98952 8
    endloop
  endfacet
  facet normal 0 0 1
    outer loop
      vertex -2.78933 -1.10437 8
      vertex -7.43821 -2.945 8
      vertex -7.01045 -3.85403 8
    endloop
  endfacet
  facet normal 0 0 1
    outer loop
      vertex -2.97634 0.375999 8
      vertex -7.93692 1.00267 8
      vertex -3 0 8
    endloop
  endfacet
  facet normal 0 0 1
    outer loop
      vertex -2.90575 -0.746069 8
      vertex -7.74866 -1.98952 8
      vertex -7.43821 -2.945 8
    endloop
  endfacet
  facet normal 0 0 1
    outer loop
      vertex -8 0 8
      vertex -3 0 8
      vertex -7.93692 1.00267 8
    endloop
  endfacet
  facet normal 0 0 1
    outer loop
      vertex -2.97634 -0.375999 8
      vertex -7.93692 -1.00267 8
      vertex -7.74866 -1.98952 8
    endloop
  endfacet
  facet normal 0 0 1
    outer loop
      vertex -3 0 8
      vertex -8 0 8
      vertex -7.93692 -1.00267 8
    endloop
  endfacet
  facet normal 0.368122 -0.929777 0
    outer loop
      vertex 2.47214 -7.60845 0
      vertex 3.40623 -7.23862 8
      vertex 2.47214 -7.60845 8
    endloop
  endfacet
  facet normal 0.368122 -0.929777 0
    outer loop
      vertex 3.40623 -7.23862 8
      vertex 2.47214 -7.60845 0
      vertex 3.40623 -7.23862 0
    endloop
  endfacet
  facet normal 0.684546 -0.72897 0
    outer loop
      vertex 5.09939 -6.16411 0
      vertex 5.83175 -5.47638 8
      vertex 5.09939 -6.16411 8
    endloop
  endfacet
  facet normal 0.684546 -0.72897 0
    outer loop
      vertex 5.83175 -5.47638 8
      vertex 5.09939 -6.16411 0
      vertex 5.83175 -5.47638 0
    endloop
  endfacet
  facet normal -0.684546 0.72897 0
    outer loop
      vertex -5.09939 6.16411 0
      vertex -5.83175 5.47638 8
      vertex -5.09939 6.16411 8
    endloop
  endfacet
  facet normal -0.684546 0.72897 0
    outer loop
      vertex -5.83175 5.47638 8
      vertex -5.09939 6.16411 0
      vertex -5.83175 5.47638 0
    endloop
  endfacet
  facet normal 0.844331 -0.535823 -1.59072e-18
    outer loop
      vertex 6.47214 -4.70228 8
      vertex 7.01045 -3.85403 0
      vertex 7.01045 -3.85403 8
    endloop
  endfacet
  facet normal 0.844331 -0.535823 -1.59072e-18
    outer loop
      vertex 7.01045 -3.85403 0
      vertex 6.47214 -4.70228 8
      vertex 6.47214 -4.70228 0
    endloop
  endfacet
  facet normal -0.904826 -0.425782 -4.18671e-19
    outer loop
      vertex -7.01045 -3.85403 0
      vertex -7.43821 -2.945 8
      vertex -7.43821 -2.945 0
    endloop
  endfacet
  facet normal -0.904826 -0.425782 -4.18671e-19
    outer loop
      vertex -7.43821 -2.945 8
      vertex -7.01045 -3.85403 0
      vertex -7.01045 -3.85403 8
    endloop
  endfacet
  facet normal -0.368122 0.929777 0
    outer loop
      vertex -2.47214 7.60845 0
      vertex -3.40623 7.23862 8
      vertex -2.47214 7.60845 8
    endloop
  endfacet
  facet normal -0.368122 0.929777 0
    outer loop
      vertex -3.40623 7.23862 8
      vertex -2.47214 7.60845 0
      vertex -3.40623 7.23862 0
    endloop
  endfacet
  facet normal 0.587779 0.809021 -0
    outer loop
      vertex 5.09939 6.16411 0
      vertex 4.28661 6.75462 8
      vertex 5.09939 6.16411 8
    endloop
  endfacet
  facet normal 0.587779 0.809021 0
    outer loop
      vertex 4.28661 6.75462 8
      vertex 5.09939 6.16411 0
      vertex 4.28661 6.75462 0
    endloop
  endfacet
  facet normal 0.844331 0.535823 1.59072e-18
    outer loop
      vertex 7.01045 3.85403 8
      vertex 6.47214 4.70228 0
      vertex 6.47214 4.70228 8
    endloop
  endfacet
  facet normal 0.844331 0.535823 1.59072e-18
    outer loop
      vertex 6.47214 4.70228 0
      vertex 7.01045 3.85403 8
      vertex 7.01045 3.85403 0
    endloop
  endfacet
  facet normal 0.125328 -0.992115 0
    outer loop
      vertex 0.502324 -7.98421 0
      vertex 1.49905 -7.8583 8
      vertex 0.502324 -7.98421 8
    endloop
  endfacet
  facet normal 0.125328 -0.992115 0
    outer loop
      vertex 1.49905 -7.8583 8
      vertex 0.502324 -7.98421 0
      vertex 1.49905 -7.8583 0
    endloop
  endfacet
  facet normal -0.982286 0.187389 -1.24275e-18
    outer loop
      vertex -7.93692 1.00267 0
      vertex -7.74866 1.98952 8
      vertex -7.74866 1.98952 0
    endloop
  endfacet
  facet normal -0.982286 0.187389 -1.24275e-18
    outer loop
      vertex -7.74866 1.98952 8
      vertex -7.93692 1.00267 0
      vertex -7.93692 1.00267 8
    endloop
  endfacet
  facet normal -0.844331 -0.535823 1.59072e-18
    outer loop
      vertex -6.47214 -4.70228 0
      vertex -7.01045 -3.85403 8
      vertex -7.01045 -3.85403 0
    endloop
  endfacet
  facet normal -0.844331 -0.535823 1.59072e-18
    outer loop
      vertex -7.01045 -3.85403 8
      vertex -6.47214 -4.70228 0
      vertex -6.47214 -4.70228 8
    endloop
  endfacet
  facet normal 0.684546 0.72897 -0
    outer loop
      vertex 5.83175 5.47638 0
      vertex 5.09939 6.16411 8
      vertex 5.83175 5.47638 8
    endloop
  endfacet
  facet normal 0.684546 0.72897 0
    outer loop
      vertex 5.09939 6.16411 8
      vertex 5.83175 5.47638 0
      vertex 5.09939 6.16411 0
    endloop
  endfacet
  facet normal 0.587779 -0.809021 0
    outer loop
      vertex 4.28661 -6.75462 0
      vertex 5.09939 -6.16411 8
      vertex 4.28661 -6.75462 8
    endloop
  endfacet
  facet normal 0.587779 -0.809021 0
    outer loop
      vertex 5.09939 -6.16411 8
      vertex 4.28661 -6.75462 0
      vertex 5.09939 -6.16411 0
    endloop
  endfacet
  facet normal 0.248693 -0.968582 0
    outer loop
      vertex 1.49905 -7.8583 0
      vertex 2.47214 -7.60845 8
      vertex 1.49905 -7.8583 8
    endloop
  endfacet
  facet normal 0.248693 -0.968582 0
    outer loop
      vertex 2.47214 -7.60845 8
      vertex 1.49905 -7.8583 0
      vertex 2.47214 -7.60845 0
    endloop
  endfacet
  facet normal 0.770514 0.637423 5.49111e-19
    outer loop
      vertex 6.47214 4.70228 8
      vertex 5.83175 5.47638 0
      vertex 5.83175 5.47638 8
    endloop
  endfacet
  facet normal 0.770514 0.637423 5.49111e-19
    outer loop
      vertex 5.83175 5.47638 0
      vertex 6.47214 4.70228 8
      vertex 6.47214 4.70228 0
    endloop
  endfacet
  facet normal 0.125328 0.992115 -0
    outer loop
      vertex 1.49905 7.8583 0
      vertex 0.502324 7.98421 8
      vertex 1.49905 7.8583 8
    endloop
  endfacet
  facet normal 0.125328 0.992115 0
    outer loop
      vertex 0.502324 7.98421 8
      vertex 1.49905 7.8583 0
      vertex 0.502324 7.98421 0
    endloop
  endfacet
  facet normal 0.982286 -0.187389 -1.24275e-18
    outer loop
      vertex 7.74866 -1.98952 8
      vertex 7.93692 -1.00267 0
      vertex 7.93692 -1.00267 8
    endloop
  endfacet
  facet normal 0.982286 -0.187389 -1.24275e-18
    outer loop
      vertex 7.93692 -1.00267 0
      vertex 7.74866 -1.98952 8
      vertex 7.74866 -1.98952 0
    endloop
  endfacet
  facet normal -0.951058 0.309013 2.53402e-18
    outer loop
      vertex -7.74866 1.98952 0
      vertex -7.43821 2.945 8
      vertex -7.43821 2.945 0
    endloop
  endfacet
  facet normal -0.951058 0.309013 2.53402e-18
    outer loop
      vertex -7.43821 2.945 8
      vertex -7.74866 1.98952 0
      vertex -7.74866 1.98952 8
    endloop
  endfacet
  facet normal 0.481759 0.876304 -0
    outer loop
      vertex 4.28661 6.75462 0
      vertex 3.40623 7.23862 8
      vertex 4.28661 6.75462 8
    endloop
  endfacet
  facet normal 0.481759 0.876304 0
    outer loop
      vertex 3.40623 7.23862 8
      vertex 4.28661 6.75462 0
      vertex 3.40623 7.23862 0
    endloop
  endfacet
  facet normal -0.248693 0.968582 0
    outer loop
      vertex -1.49905 7.8583 0
      vertex -2.47214 7.60845 8
      vertex -1.49905 7.8583 8
    endloop
  endfacet
  facet normal -0.248693 0.968582 0
    outer loop
      vertex -2.47214 7.60845 8
      vertex -1.49905 7.8583 0
      vertex -2.47214 7.60845 0
    endloop
  endfacet
  facet normal 0.951058 -0.309013 2.53402e-18
    outer loop
      vertex 7.43821 -2.945 8
      vertex 7.74866 -1.98952 0
      vertex 7.74866 -1.98952 8
    endloop
  endfacet
  facet normal 0.951058 -0.309013 2.53402e-18
    outer loop
      vertex 7.74866 -1.98952 0
      vertex 7.43821 -2.945 8
      vertex 7.43821 -2.945 0
    endloop
  endfacet
  facet normal -0.770514 -0.637423 5.49111e-19
    outer loop
      vertex -5.83175 -5.47638 0
      vertex -6.47214 -4.70228 8
      vertex -6.47214 -4.70228 0
    endloop
  endfacet
  facet normal -0.770514 -0.637423 5.49111e-19
    outer loop
      vertex -6.47214 -4.70228 8
      vertex -5.83175 -5.47638 0
      vertex -5.83175 -5.47638 8
    endloop
  endfacet
  facet normal -0.998027 -0.0627879 -3.11906e-19
    outer loop
      vertex -7.93692 -1.00267 0
      vertex -8 0 8
      vertex -8 0 0
    endloop
  endfacet
  facet normal -0.998027 -0.0627879 -3.11906e-19
    outer loop
      vertex -8 0 8
      vertex -7.93692 -1.00267 0
      vertex -7.93692 -1.00267 8
    endloop
  endfacet
  facet normal -0.982286 -0.187389 1.24275e-18
    outer loop
      vertex -7.74866 -1.98952 0
      vertex -7.93692 -1.00267 8
      vertex -7.93692 -1.00267 0
    endloop
  endfacet
  facet normal -0.982286 -0.187389 1.24275e-18
    outer loop
      vertex -7.93692 -1.00267 8
      vertex -7.74866 -1.98952 0
      vertex -7.74866 -1.98952 8
    endloop
  endfacet
  facet normal 0.248693 0.968582 -0
    outer loop
      vertex 2.47214 7.60845 0
      vertex 1.49905 7.8583 8
      vertex 2.47214 7.60845 8
    endloop
  endfacet
  facet normal 0.248693 0.968582 0
    outer loop
      vertex 1.49905 7.8583 8
      vertex 2.47214 7.60845 0
      vertex 1.49905 7.8583 0
    endloop
  endfacet
  facet normal 0.481759 -0.876304 0
    outer loop
      vertex 3.40623 -7.23862 0
      vertex 4.28661 -6.75462 8
      vertex 3.40623 -7.23862 8
    endloop
  endfacet
  facet normal 0.481759 -0.876304 0
    outer loop
      vertex 4.28661 -6.75462 8
      vertex 3.40623 -7.23862 0
      vertex 4.28661 -6.75462 0
    endloop
  endfacet
  facet normal -0.481759 0.876304 0
    outer loop
      vertex -3.40623 7.23862 0
      vertex -4.28661 6.75462 8
      vertex -3.40623 7.23862 8
    endloop
  endfacet
  facet normal -0.481759 0.876304 0
    outer loop
      vertex -4.28661 6.75462 8
      vertex -3.40623 7.23862 0
      vertex -4.28661 6.75462 0
    endloop
  endfacet
  facet normal -0.248693 -0.968582 0
    outer loop
      vertex -2.47214 -7.60845 0
      vertex -1.49905 -7.8583 8
      vertex -2.47214 -7.60845 8
    endloop
  endfacet
  facet normal -0.248693 -0.968582 -0
    outer loop
      vertex -1.49905 -7.8583 8
      vertex -2.47214 -7.60845 0
      vertex -1.49905 -7.8583 0
    endloop
  endfacet
  facet normal -0.125328 -0.992115 0
    outer loop
      vertex -1.49905 -7.8583 0
      vertex -0.502324 -7.98421 8
      vertex -1.49905 -7.8583 8
    endloop
  endfacet
  facet normal -0.125328 -0.992115 -0
    outer loop
      vertex -0.502324 -7.98421 8
      vertex -1.49905 -7.8583 0
      vertex -0.502324 -7.98421 0
    endloop
  endfacet
  facet normal -0.125328 0.992115 0
    outer loop
      vertex -0.502324 7.98421 0
      vertex -1.49905 7.8583 8
      vertex -0.502324 7.98421 8
    endloop
  endfacet
  facet normal -0.125328 0.992115 0
    outer loop
      vertex -1.49905 7.8583 8
      vertex -0.502324 7.98421 0
      vertex -1.49905 7.8583 0
    endloop
  endfacet
  facet normal -0.998027 0.0627879 3.11906e-19
    outer loop
      vertex -8 0 0
      vertex -7.93692 1.00267 8
      vertex -7.93692 1.00267 0
    endloop
  endfacet
  facet normal -0.998027 0.0627879 3.11906e-19
    outer loop
      vertex -7.93692 1.00267 8
      vertex -8 0 0
      vertex -8 0 8
    endloop
  endfacet
  facet normal -0.951058 -0.309013 -2.53402e-18
    outer loop
      vertex -7.43821 -2.945 0
      vertex -7.74866 -1.98952 8
      vertex -7.74866 -1.98952 0
    endloop
  endfacet
  facet normal -0.951058 -0.309013 -2.53402e-18
    outer loop
      vertex -7.74866 -1.98952 8
      vertex -7.43821 -2.945 0
      vertex -7.43821 -2.945 8
    endloop
  endfacet
  facet normal 0 -1 0
    outer loop
      vertex -0.502324 -7.98421 0
      vertex 0.502324 -7.98421 8
      vertex -0.502324 -7.98421 8
    endloop
  endfacet
  facet normal 0 -1 -0
    outer loop
      vertex 0.502324 -7.98421 8
      vertex -0.502324 -7.98421 0
      vertex 0.502324 -7.98421 0
    endloop
  endfacet
  facet normal -0.904826 0.425782 4.18671e-19
    outer loop
      vertex -7.43821 2.945 0
      vertex -7.01045 3.85403 8
      vertex -7.01045 3.85403 0
    endloop
  endfacet
  facet normal -0.904826 0.425782 4.18671e-19
    outer loop
      vertex -7.01045 3.85403 8
      vertex -7.43821 2.945 0
      vertex -7.43821 2.945 8
    endloop
  endfacet
  facet normal -0.481759 -0.876304 0
    outer loop
      vertex -4.28661 -6.75462 0
      vertex -3.40623 -7.23862 8
      vertex -4.28661 -6.75462 8
    endloop
  endfacet
  facet normal -0.481759 -0.876304 -0
    outer loop
      vertex -3.40623 -7.23862 8
      vertex -4.28661 -6.75462 0
      vertex -3.40623 -7.23862 0
    endloop
  endfacet
  facet normal -0.587779 -0.809021 0
    outer loop
      vertex -5.09939 -6.16411 0
      vertex -4.28661 -6.75462 8
      vertex -5.09939 -6.16411 8
    endloop
  endfacet
  facet normal -0.587779 -0.809021 -0
    outer loop
      vertex -4.28661 -6.75462 8
      vertex -5.09939 -6.16411 0
      vertex -4.28661 -6.75462 0
    endloop
  endfacet
  facet normal -0.368122 -0.929777 0
    outer loop
      vertex -3.40623 -7.23862 0
      vertex -2.47214 -7.60845 8
      vertex -3.40623 -7.23862 8
    endloop
  endfacet
  facet normal -0.368122 -0.929777 -0
    outer loop
      vertex -2.47214 -7.60845 8
      vertex -3.40623 -7.23862 0
      vertex -2.47214 -7.60845 0
    endloop
  endfacet
  facet normal -0.98229 -0.187369 4.01234e-19
    outer loop
      vertex 2.97634 0.375999 0
      vertex 2.90575 0.746069 8
      vertex 2.90575 0.746069 0
    endloop
  endfacet
  facet normal -0.98229 -0.187369 4.01234e-19
    outer loop
      vertex 2.90575 0.746069 8
      vertex 2.97634 0.375999 0
      vertex 2.97634 0.375999 8
    endloop
  endfacet
  facet normal -0.998026 -0.0628015 6.55998e-20
    outer loop
      vertex 3 0 0
      vertex 2.97634 0.375999 8
      vertex 2.97634 0.375999 0
    endloop
  endfacet
  facet normal -0.998026 -0.0628015 6.55998e-20
    outer loop
      vertex 2.97634 0.375999 8
      vertex 3 0 0
      vertex 3 0 8
    endloop
  endfacet
  facet normal 0.770514 -0.637423 -1.57458e-18
    outer loop
      vertex -2.42705 1.76336 8
      vertex -2.18691 2.05364 0
      vertex -2.18691 2.05364 8
    endloop
  endfacet
  facet normal 0.770514 -0.637423 -1.57458e-18
    outer loop
      vertex -2.18691 2.05364 0
      vertex -2.42705 1.76336 8
      vertex -2.42705 1.76336 0
    endloop
  endfacet
  facet normal -0.684541 -0.728974 0
    outer loop
      vertex 1.91227 2.31154 0
      vertex 2.18691 2.05364 8
      vertex 1.91227 2.31154 8
    endloop
  endfacet
  facet normal -0.684541 -0.728974 -0
    outer loop
      vertex 2.18691 2.05364 8
      vertex 1.91227 2.31154 0
      vertex 2.18691 2.05364 0
    endloop
  endfacet
  facet normal 0.125337 0.992114 -0
    outer loop
      vertex -0.188371 -2.99408 0
      vertex -0.562143 -2.94686 8
      vertex -0.188371 -2.99408 8
    endloop
  endfacet
  facet normal 0.125337 0.992114 0
    outer loop
      vertex -0.562143 -2.94686 8
      vertex -0.188371 -2.99408 0
      vertex -0.562143 -2.94686 0
    endloop
  endfacet
  facet normal 0.58778 0.809021 -0
    outer loop
      vertex -1.60748 -2.53298 0
      vertex -1.91227 -2.31154 8
      vertex -1.60748 -2.53298 8
    endloop
  endfacet
  facet normal 0.58778 0.809021 0
    outer loop
      vertex -1.91227 -2.31154 8
      vertex -1.60748 -2.53298 0
      vertex -1.91227 -2.31154 0
    endloop
  endfacet
  facet normal -0.368126 0.929776 0
    outer loop
      vertex 1.27734 -2.71448 0
      vertex 0.927051 -2.85317 8
      vertex 1.27734 -2.71448 8
    endloop
  endfacet
  facet normal -0.368126 0.929776 0
    outer loop
      vertex 0.927051 -2.85317 8
      vertex 1.27734 -2.71448 0
      vertex 0.927051 -2.85317 0
    endloop
  endfacet
  facet normal -0.904828 0.425778 -9.69286e-19
    outer loop
      vertex 2.62892 -1.44526 0
      vertex 2.78933 -1.10437 8
      vertex 2.78933 -1.10437 0
    endloop
  endfacet
  facet normal -0.904828 0.425778 -9.69286e-19
    outer loop
      vertex 2.78933 -1.10437 8
      vertex 2.62892 -1.44526 0
      vertex 2.62892 -1.44526 8
    endloop
  endfacet
  facet normal -0.248684 -0.968585 0
    outer loop
      vertex 0.562143 2.94686 0
      vertex 0.927051 2.85317 8
      vertex 0.562143 2.94686 8
    endloop
  endfacet
  facet normal -0.248684 -0.968585 -0
    outer loop
      vertex 0.927051 2.85317 8
      vertex 0.562143 2.94686 0
      vertex 0.927051 2.85317 0
    endloop
  endfacet
  facet normal -0.58778 0.809021 0
    outer loop
      vertex 1.91227 -2.31154 0
      vertex 1.60748 -2.53298 8
      vertex 1.91227 -2.31154 8
    endloop
  endfacet
  facet normal -0.58778 0.809021 0
    outer loop
      vertex 1.60748 -2.53298 8
      vertex 1.91227 -2.31154 0
      vertex 1.60748 -2.53298 0
    endloop
  endfacet
  facet normal 0.98229 -0.187369 -4.01234e-19
    outer loop
      vertex -2.97634 0.375999 8
      vertex -2.90575 0.746069 0
      vertex -2.90575 0.746069 8
    endloop
  endfacet
  facet normal 0.98229 -0.187369 -4.01234e-19
    outer loop
      vertex -2.90575 0.746069 0
      vertex -2.97634 0.375999 8
      vertex -2.97634 0.375999 0
    endloop
  endfacet
  facet normal 0.684541 0.728974 -0
    outer loop
      vertex -1.91227 -2.31154 0
      vertex -2.18691 -2.05364 8
      vertex -1.91227 -2.31154 8
    endloop
  endfacet
  facet normal 0.684541 0.728974 0
    outer loop
      vertex -2.18691 -2.05364 8
      vertex -1.91227 -2.31154 0
      vertex -2.18691 -2.05364 0
    endloop
  endfacet
  facet normal -0.481762 -0.876302 0
    outer loop
      vertex 1.27734 2.71448 0
      vertex 1.60748 2.53298 8
      vertex 1.27734 2.71448 8
    endloop
  endfacet
  facet normal -0.481762 -0.876302 -0
    outer loop
      vertex 1.60748 2.53298 8
      vertex 1.27734 2.71448 0
      vertex 1.60748 2.53298 0
    endloop
  endfacet
  facet normal 0.481762 -0.876302 0
    outer loop
      vertex -1.60748 2.53298 0
      vertex -1.27734 2.71448 8
      vertex -1.60748 2.53298 8
    endloop
  endfacet
  facet normal 0.481762 -0.876302 0
    outer loop
      vertex -1.27734 2.71448 8
      vertex -1.60748 2.53298 0
      vertex -1.27734 2.71448 0
    endloop
  endfacet
  facet normal -0.904828 -0.425778 9.69286e-19
    outer loop
      vertex 2.78933 1.10437 0
      vertex 2.62892 1.44526 8
      vertex 2.62892 1.44526 0
    endloop
  endfacet
  facet normal -0.904828 -0.425778 9.69286e-19
    outer loop
      vertex 2.62892 1.44526 8
      vertex 2.78933 1.10437 0
      vertex 2.78933 1.10437 8
    endloop
  endfacet
  facet normal -0.998026 0.0628015 -6.55998e-20
    outer loop
      vertex 2.97634 -0.375999 0
      vertex 3 0 8
      vertex 3 0 0
    endloop
  endfacet
  facet normal -0.998026 0.0628015 -6.55998e-20
    outer loop
      vertex 3 0 8
      vertex 2.97634 -0.375999 0
      vertex 2.97634 -0.375999 8
    endloop
  endfacet
  facet normal -0.125337 0.992114 0
    outer loop
      vertex 0.562143 -2.94686 0
      vertex 0.188371 -2.99408 8
      vertex 0.562143 -2.94686 8
    endloop
  endfacet
  facet normal -0.125337 0.992114 0
    outer loop
      vertex 0.188371 -2.99408 8
      vertex 0.562143 -2.94686 0
      vertex 0.188371 -2.99408 0
    endloop
  endfacet
  facet normal 0.951056 -0.309019 -2.49088e-19
    outer loop
      vertex -2.90575 0.746069 8
      vertex -2.78933 1.10437 0
      vertex -2.78933 1.10437 8
    endloop
  endfacet
  facet normal 0.951056 -0.309019 -2.49088e-19
    outer loop
      vertex -2.78933 1.10437 0
      vertex -2.90575 0.746069 8
      vertex -2.90575 0.746069 0
    endloop
  endfacet
  facet normal -0.844331 -0.535822 -8.54286e-19
    outer loop
      vertex 2.62892 1.44526 0
      vertex 2.42705 1.76336 8
      vertex 2.42705 1.76336 0
    endloop
  endfacet
  facet normal -0.844331 -0.535822 -8.54286e-19
    outer loop
      vertex 2.42705 1.76336 8
      vertex 2.62892 1.44526 0
      vertex 2.62892 1.44526 8
    endloop
  endfacet
  facet normal -0.951056 0.309019 -2.49088e-19
    outer loop
      vertex 2.78933 -1.10437 0
      vertex 2.90575 -0.746069 8
      vertex 2.90575 -0.746069 0
    endloop
  endfacet
  facet normal -0.951056 0.309019 -2.49088e-19
    outer loop
      vertex 2.90575 -0.746069 8
      vertex 2.78933 -1.10437 0
      vertex 2.78933 -1.10437 8
    endloop
  endfacet
  facet normal 0.684541 -0.728974 0
    outer loop
      vertex -2.18691 2.05364 0
      vertex -1.91227 2.31154 8
      vertex -2.18691 2.05364 8
    endloop
  endfacet
  facet normal 0.684541 -0.728974 0
    outer loop
      vertex -1.91227 2.31154 8
      vertex -2.18691 2.05364 0
      vertex -1.91227 2.31154 0
    endloop
  endfacet
  facet normal 0.248684 0.968585 -0
    outer loop
      vertex -0.562143 -2.94686 0
      vertex -0.927051 -2.85317 8
      vertex -0.562143 -2.94686 8
    endloop
  endfacet
  facet normal 0.248684 0.968585 0
    outer loop
      vertex -0.927051 -2.85317 8
      vertex -0.562143 -2.94686 0
      vertex -0.927051 -2.85317 0
    endloop
  endfacet
  facet normal -0.248684 0.968585 0
    outer loop
      vertex 0.927051 -2.85317 0
      vertex 0.562143 -2.94686 8
      vertex 0.927051 -2.85317 8
    endloop
  endfacet
  facet normal -0.248684 0.968585 0
    outer loop
      vertex 0.562143 -2.94686 8
      vertex 0.927051 -2.85317 0
      vertex 0.562143 -2.94686 0
    endloop
  endfacet
  facet normal -0.125337 -0.992114 0
    outer loop
      vertex 0.188371 2.99408 0
      vertex 0.562143 2.94686 8
      vertex 0.188371 2.99408 8
    endloop
  endfacet
  facet normal -0.125337 -0.992114 -0
    outer loop
      vertex 0.562143 2.94686 8
      vertex 0.188371 2.99408 0
      vertex 0.562143 2.94686 0
    endloop
  endfacet
  facet normal -0.98229 0.187369 -4.01234e-19
    outer loop
      vertex 2.90575 -0.746069 0
      vertex 2.97634 -0.375999 8
      vertex 2.97634 -0.375999 0
    endloop
  endfacet
  facet normal -0.98229 0.187369 -4.01234e-19
    outer loop
      vertex 2.97634 -0.375999 8
      vertex 2.90575 -0.746069 0
      vertex 2.90575 -0.746069 8
    endloop
  endfacet
  facet normal 0.98229 0.187369 4.01234e-19
    outer loop
      vertex -2.90575 -0.746069 8
      vertex -2.97634 -0.375999 0
      vertex -2.97634 -0.375999 8
    endloop
  endfacet
  facet normal 0.98229 0.187369 4.01234e-19
    outer loop
      vertex -2.97634 -0.375999 0
      vertex -2.90575 -0.746069 8
      vertex -2.90575 -0.746069 0
    endloop
  endfacet
  facet normal 0 1 -0
    outer loop
      vertex 0.188371 -2.99408 0
      vertex -0.188371 -2.99408 8
      vertex 0.188371 -2.99408 8
    endloop
  endfacet
  facet normal 0 1 0
    outer loop
      vertex -0.188371 -2.99408 8
      vertex 0.188371 -2.99408 0
      vertex -0.188371 -2.99408 0
    endloop
  endfacet
  facet normal -0.58778 -0.809021 0
    outer loop
      vertex 1.60748 2.53298 0
      vertex 1.91227 2.31154 8
      vertex 1.60748 2.53298 8
    endloop
  endfacet
  facet normal -0.58778 -0.809021 -0
    outer loop
      vertex 1.91227 2.31154 8
      vertex 1.60748 2.53298 0
      vertex 1.91227 2.31154 0
    endloop
  endfacet
  facet normal -0.481762 0.876302 0
    outer loop
      vertex 1.60748 -2.53298 0
      vertex 1.27734 -2.71448 8
      vertex 1.60748 -2.53298 8
    endloop
  endfacet
  facet normal -0.481762 0.876302 0
    outer loop
      vertex 1.27734 -2.71448 8
      vertex 1.60748 -2.53298 0
      vertex 1.27734 -2.71448 0
    endloop
  endfacet
  facet normal 0.368126 -0.929776 0
    outer loop
      vertex -1.27734 2.71448 0
      vertex -0.927051 2.85317 8
      vertex -1.27734 2.71448 8
    endloop
  endfacet
  facet normal 0.368126 -0.929776 0
    outer loop
      vertex -0.927051 2.85317 8
      vertex -1.27734 2.71448 0
      vertex -0.927051 2.85317 0
    endloop
  endfacet
  facet normal 0.904828 -0.425778 -9.69286e-19
    outer loop
      vertex -2.78933 1.10437 8
      vertex -2.62892 1.44526 0
      vertex -2.62892 1.44526 8
    endloop
  endfacet
  facet normal 0.904828 -0.425778 -9.69286e-19
    outer loop
      vertex -2.62892 1.44526 0
      vertex -2.78933 1.10437 8
      vertex -2.78933 1.10437 0
    endloop
  endfacet
  facet normal -0.684541 0.728974 0
    outer loop
      vertex 2.18691 -2.05364 0
      vertex 1.91227 -2.31154 8
      vertex 2.18691 -2.05364 8
    endloop
  endfacet
  facet normal -0.684541 0.728974 0
    outer loop
      vertex 1.91227 -2.31154 8
      vertex 2.18691 -2.05364 0
      vertex 1.91227 -2.31154 0
    endloop
  endfacet
  facet normal 0.58778 -0.809021 0
    outer loop
      vertex -1.91227 2.31154 0
      vertex -1.60748 2.53298 8
      vertex -1.91227 2.31154 8
    endloop
  endfacet
  facet normal 0.58778 -0.809021 0
    outer loop
      vertex -1.60748 2.53298 8
      vertex -1.91227 2.31154 0
      vertex -1.60748 2.53298 0
    endloop
  endfacet
  facet normal -0.368126 -0.929776 0
    outer loop
      vertex 0.927051 2.85317 0
      vertex 1.27734 2.71448 8
      vertex 0.927051 2.85317 8
    endloop
  endfacet
  facet normal -0.368126 -0.929776 -0
    outer loop
      vertex 1.27734 2.71448 8
      vertex 0.927051 2.85317 0
      vertex 1.27734 2.71448 0
    endloop
  endfacet
  facet normal 0.904828 0.425778 9.69286e-19
    outer loop
      vertex -2.62892 -1.44526 8
      vertex -2.78933 -1.10437 0
      vertex -2.78933 -1.10437 8
    endloop
  endfacet
  facet normal 0.904828 0.425778 9.69286e-19
    outer loop
      vertex -2.78933 -1.10437 0
      vertex -2.62892 -1.44526 8
      vertex -2.62892 -1.44526 0
    endloop
  endfacet
  facet normal 0.770514 0.637423 1.57458e-18
    outer loop
      vertex -2.18691 -2.05364 8
      vertex -2.42705 -1.76336 0
      vertex -2.42705 -1.76336 8
    endloop
  endfacet
  facet normal 0.770514 0.637423 1.57458e-18
    outer loop
      vertex -2.42705 -1.76336 0
      vertex -2.18691 -2.05364 8
      vertex -2.18691 -2.05364 0
    endloop
  endfacet
  facet normal -0.844331 0.535822 8.54286e-19
    outer loop
      vertex 2.42705 -1.76336 0
      vertex 2.62892 -1.44526 8
      vertex 2.62892 -1.44526 0
    endloop
  endfacet
  facet normal -0.844331 0.535822 8.54286e-19
    outer loop
      vertex 2.62892 -1.44526 8
      vertex 2.42705 -1.76336 0
      vertex 2.42705 -1.76336 8
    endloop
  endfacet
  facet normal -0.770514 -0.637423 1.57458e-18
    outer loop
      vertex 2.42705 1.76336 0
      vertex 2.18691 2.05364 8
      vertex 2.18691 2.05364 0
    endloop
  endfacet
  facet normal -0.770514 -0.637423 1.57458e-18
    outer loop
      vertex 2.18691 2.05364 8
      vertex 2.42705 1.76336 0
      vertex 2.42705 1.76336 8
    endloop
  endfacet
  facet normal -0.951056 -0.309019 2.49088e-19
    outer loop
      vertex 2.90575 0.746069 0
      vertex 2.78933 1.10437 8
      vertex 2.78933 1.10437 0
    endloop
  endfacet
  facet normal -0.951056 -0.309019 2.49088e-19
    outer loop
      vertex 2.78933 1.10437 8
      vertex 2.90575 0.746069 0
      vertex 2.90575 0.746069 8
    endloop
  endfacet
  facet normal 0.248684 -0.968585 0
    outer loop
      vertex -0.927051 2.85317 0
      vertex -0.562143 2.94686 8
      vertex -0.927051 2.85317 8
    endloop
  endfacet
  facet normal 0.248684 -0.968585 0
    outer loop
      vertex -0.562143 2.94686 8
      vertex -0.927051 2.85317 0
      vertex -0.562143 2.94686 0
    endloop
  endfacet
  facet normal 0.844331 0.535822 -8.54286e-19
    outer loop
      vertex -2.42705 -1.76336 8
      vertex -2.62892 -1.44526 0
      vertex -2.62892 -1.44526 8
    endloop
  endfacet
  facet normal 0.844331 0.535822 -8.54286e-19
    outer loop
      vertex -2.62892 -1.44526 0
      vertex -2.42705 -1.76336 8
      vertex -2.42705 -1.76336 0
    endloop
  endfacet
  facet normal 0.368126 0.929776 -0
    outer loop
      vertex -0.927051 -2.85317 0
      vertex -1.27734 -2.71448 8
      vertex -0.927051 -2.85317 8
    endloop
  endfacet
  facet normal 0.368126 0.929776 0
    outer loop
      vertex -1.27734 -2.71448 8
      vertex -0.927051 -2.85317 0
      vertex -1.27734 -2.71448 0
    endloop
  endfacet
  facet normal 0 -1 0
    outer loop
      vertex -0.188371 2.99408 0
      vertex 0.188371 2.99408 8
      vertex -0.188371 2.99408 8
    endloop
  endfacet
  facet normal 0 -1 -0
    outer loop
      vertex 0.188371 2.99408 8
      vertex -0.188371 2.99408 0
      vertex 0.188371 2.99408 0
    endloop
  endfacet
  facet normal 0.998026 0.0628015 6.55998e-20
    outer loop
      vertex -2.97634 -0.375999 8
      vertex -3 0 0
      vertex -3 0 8
    endloop
  endfacet
  facet normal 0.998026 0.0628015 6.55998e-20
    outer loop
      vertex -3 0 0
      vertex -2.97634 -0.375999 8
      vertex -2.97634 -0.375999 0
    endloop
  endfacet
  facet normal 0.125337 -0.992114 0
    outer loop
      vertex -0.562143 2.94686 0
      vertex -0.188371 2.99408 8
      vertex -0.562143 2.94686 8
    endloop
  endfacet
  facet normal 0.125337 -0.992114 0
    outer loop
      vertex -0.188371 2.99408 8
      vertex -0.562143 2.94686 0
      vertex -0.188371 2.99408 0
    endloop
  endfacet
  facet normal 0.998026 -0.0628015 -6.55998e-20
    outer loop
      vertex -3 0 8
      vertex -2.97634 0.375999 0
      vertex -2.97634 0.375999 8
    endloop
  endfacet
  facet normal 0.998026 -0.0628015 -6.55998e-20
    outer loop
      vertex -2.97634 0.375999 0
      vertex -3 0 8
      vertex -3 0 0
    endloop
  endfacet
  facet normal 0.481762 0.876302 -0
    outer loop
      vertex -1.27734 -2.71448 0
      vertex -1.60748 -2.53298 8
      vertex -1.27734 -2.71448 8
    endloop
  endfacet
  facet normal 0.481762 0.876302 0
    outer loop
      vertex -1.60748 -2.53298 8
      vertex -1.27734 -2.71448 0
      vertex -1.60748 -2.53298 0
    endloop
  endfacet
  facet normal 0.844331 -0.535822 8.54286e-19
    outer loop
      vertex -2.62892 1.44526 8
      vertex -2.42705 1.76336 0
      vertex -2.42705 1.76336 8
    endloop
  endfacet
  facet normal 0.844331 -0.535822 8.54286e-19
    outer loop
      vertex -2.42705 1.76336 0
      vertex -2.62892 1.44526 8
      vertex -2.62892 1.44526 0
    endloop
  endfacet
  facet normal 0.951056 0.309019 2.49088e-19
    outer loop
      vertex -2.78933 -1.10437 8
      vertex -2.90575 -0.746069 0
      vertex -2.90575 -0.746069 8
    endloop
  endfacet
  facet normal 0.951056 0.309019 2.49088e-19
    outer loop
      vertex -2.90575 -0.746069 0
      vertex -2.78933 -1.10437 8
      vertex -2.78933 -1.10437 0
    endloop
  endfacet
  facet normal -0.770514 0.637423 -1.57458e-18
    outer loop
      vertex 2.18691 -2.05364 0
      vertex 2.42705 -1.76336 8
      vertex 2.42705 -1.76336 0
    endloop
  endfacet
  facet normal -0.770514 0.637423 -1.57458e-18
    outer loop
      vertex 2.42705 -1.76336 8
      vertex 2.18691 -2.05364 0
      vertex 2.18691 -2.05364 8
    endloop
  endfacet
endsolid OpenSCAD_Model
