solid OpenSCAD_Model
  facet normal 0.982288 0.187379 0
    outer loop
      vertex 4.76215 0.601599 8
      vertex 4.6492 1.19371 0
      vertex 4.6492 1.19371 8
    endloop
  endfacet
  facet normal 0.982288 0.187379 0
    outer loop
      vertex 4.6492 1.19371 0
      vertex 4.76215 0.601599 8
      vertex 4.76215 0.601599 0
    endloop
  endfacet
  facet normal 0.998027 0.0627915 0
    outer loop
      vertex 4.8 0 8
      vertex 4.76215 0.601599 0
      vertex 4.76215 0.601599 8
    endloop
  endfacet
  facet normal 0.998027 0.0627915 0
    outer loop
      vertex 4.76215 0.601599 0
      vertex 4.8 0 8
      vertex 4.8 0 0
    endloop
  endfacet
  facet normal 0.951058 0.309012 0
    outer loop
      vertex 4.6492 1.19371 8
      vertex 4.46293 1.767 0
      vertex 4.46293 1.767 8
    endloop
  endfacet
  facet normal 0.951058 0.309012 0
    outer loop
      vertex 4.46293 1.767 0
      vertex 4.6492 1.19371 8
      vertex 4.6492 1.19371 0
    endloop
  endfacet
  facet normal 0.481758 0.876305 -0
    outer loop
      vertex 2.57197 4.05277 0
      vertex 2.04374 4.34317 8
      vertex 2.57197 4.05277 8
    endloop
  endfacet
  facet normal 0.481758 0.876305 0
    outer loop
      vertex 2.04374 4.34317 8
      vertex 2.57197 4.05277 0
      vertex 2.04374 4.34317 0
    endloop
  endfacet
  facet normal 0.904824 -0.425786 0
    outer loop
      vertex 4.20627 -2.31242 8
      vertex 4.46293 -1.767 0
      vertex 4.46293 -1.767 8
    endloop
  endfacet
  facet normal 0.904824 -0.425786 0
    outer loop
      vertex 4.46293 -1.767 0
      vertex 4.20627 -2.31242 8
      vertex 4.20627 -2.31242 0
    endloop
  endfacet
  facet normal -0.125334 0.992115 0
    outer loop
      vertex -0.301394 4.79053 0
      vertex -0.89943 4.71498 8
      vertex -0.301394 4.79053 8
    endloop
  endfacet
  facet normal -0.125334 0.992115 0
    outer loop
      vertex -0.89943 4.71498 8
      vertex -0.301394 4.79053 0
      vertex -0.89943 4.71498 0
    endloop
  endfacet
  facet normal -0.844328 -0.535827 0
    outer loop
      vertex -3.88328 -2.82137 0
      vertex -4.20627 -2.31242 8
      vertex -4.20627 -2.31242 0
    endloop
  endfacet
  facet normal -0.844328 -0.535827 0
    outer loop
      vertex -4.20627 -2.31242 8
      vertex -3.88328 -2.82137 0
      vertex -3.88328 -2.82137 8
    endloop
  endfacet
  facet normal 0.684536 -0.728979 0
    outer loop
      vertex 3.05963 -3.69846 0
      vertex 3.49905 -3.28583 8
      vertex 3.05963 -3.69846 8
    endloop
  endfacet
  facet normal 0.684536 -0.728979 0
    outer loop
      vertex 3.49905 -3.28583 8
      vertex 3.05963 -3.69846 0
      vertex 3.49905 -3.28583 0
    endloop
  endfacet
  facet normal 0.844328 0.535827 0
    outer loop
      vertex 4.20627 2.31242 8
      vertex 3.88328 2.82137 0
      vertex 3.88328 2.82137 8
    endloop
  endfacet
  facet normal 0.844328 0.535827 0
    outer loop
      vertex 3.88328 2.82137 0
      vertex 4.20627 2.31242 8
      vertex 4.20627 2.31242 0
    endloop
  endfacet
  facet normal 0.998027 -0.0627915 0
    outer loop
      vertex 4.76215 -0.601599 8
      vertex 4.8 0 0
      vertex 4.8 0 8
    endloop
  endfacet
  facet normal 0.998027 -0.0627915 0
    outer loop
      vertex 4.8 0 0
      vertex 4.76215 -0.601599 8
      vertex 4.76215 -0.601599 0
    endloop
  endfacet
  facet normal -0.770517 0.637419 0
    outer loop
      vertex -3.88328 2.82137 0
      vertex -3.49905 3.28583 8
      vertex -3.49905 3.28583 0
    endloop
  endfacet
  facet normal -0.770517 0.637419 0
    outer loop
      vertex -3.49905 3.28583 8
      vertex -3.88328 2.82137 0
      vertex -3.88328 2.82137 8
    endloop
  endfacet
  facet normal 0.904824 0.425786 0
    outer loop
      vertex 4.46293 1.767 8
      vertex 4.20627 2.31242 0
      vertex 4.20627 2.31242 8
    endloop
  endfacet
  facet normal 0.904824 0.425786 0
    outer loop
      vertex 4.20627 2.31242 0
      vertex 4.46293 1.767 8
      vertex 4.46293 1.767 0
    endloop
  endfacet
  facet normal 0.770517 -0.637419 0
    outer loop
      vertex 3.49905 -3.28583 8
      vertex 3.88328 -2.82137 0
      vertex 3.88328 -2.82137 8
    endloop
  endfacet
  facet normal 0.770517 -0.637419 0
    outer loop
      vertex 3.88328 -2.82137 0
      vertex 3.49905 -3.28583 8
      vertex 3.49905 -3.28583 0
    endloop
  endfacet
  facet normal 0.248694 0.968582 -0
    outer loop
      vertex 1.48328 4.56507 0
      vertex 0.89943 4.71498 8
      vertex 1.48328 4.56507 8
    endloop
  endfacet
  facet normal 0.248694 0.968582 0
    outer loop
      vertex 0.89943 4.71498 8
      vertex 1.48328 4.56507 0
      vertex 0.89943 4.71498 0
    endloop
  endfacet
  facet normal 0.368122 0.929778 -0
    outer loop
      vertex 2.04374 4.34317 0
      vertex 1.48328 4.56507 8
      vertex 2.04374 4.34317 8
    endloop
  endfacet
  facet normal 0.368122 0.929778 0
    outer loop
      vertex 1.48328 4.56507 8
      vertex 2.04374 4.34317 0
      vertex 1.48328 4.56507 0
    endloop
  endfacet
  facet normal 0.125334 0.992115 -0
    outer loop
      vertex 0.89943 4.71498 0
      vertex 0.301394 4.79053 8
      vertex 0.89943 4.71498 8
    endloop
  endfacet
  facet normal 0.125334 0.992115 0
    outer loop
      vertex 0.301394 4.79053 8
      vertex 0.89943 4.71498 0
      vertex 0.301394 4.79053 0
    endloop
  endfacet
  facet normal -0.684536 0.728979 0
    outer loop
      vertex -3.05963 3.69846 0
      vertex -3.49905 3.28583 8
      vertex -3.05963 3.69846 8
    endloop
  endfacet
  facet normal -0.684536 0.728979 0
    outer loop
      vertex -3.49905 3.28583 8
      vertex -3.05963 3.69846 0
      vertex -3.49905 3.28583 0
    endloop
  endfacet
  facet normal 0.844328 -0.535827 0
    outer loop
      vertex 3.88328 -2.82137 8
      vertex 4.20627 -2.31242 0
      vertex 4.20627 -2.31242 8
    endloop
  endfacet
  facet normal 0.844328 -0.535827 0
    outer loop
      vertex 4.20627 -2.31242 0
      vertex 3.88328 -2.82137 8
      vertex 3.88328 -2.82137 0
    endloop
  endfacet
  facet normal -0.951058 -0.309012 0
    outer loop
      vertex -4.46293 -1.767 0
      vertex -4.6492 -1.19371 8
      vertex -4.6492 -1.19371 0
    endloop
  endfacet
  facet normal -0.951058 -0.309012 0
    outer loop
      vertex -4.6492 -1.19371 8
      vertex -4.46293 -1.767 0
      vertex -4.46293 -1.767 8
    endloop
  endfacet
  facet normal -0.998027 -0.0627915 0
    outer loop
      vertex -4.76215 -0.601599 0
      vertex -4.8 0 8
      vertex -4.8 0 0
    endloop
  endfacet
  facet normal -0.998027 -0.0627915 0
    outer loop
      vertex -4.8 0 8
      vertex -4.76215 -0.601599 0
      vertex -4.76215 -0.601599 8
    endloop
  endfacet
  facet normal -0.982288 -0.187379 0
    outer loop
      vertex -4.6492 -1.19371 0
      vertex -4.76215 -0.601599 8
      vertex -4.76215 -0.601599 0
    endloop
  endfacet
  facet normal -0.982288 -0.187379 0
    outer loop
      vertex -4.76215 -0.601599 8
      vertex -4.6492 -1.19371 0
      vertex -4.6492 -1.19371 8
    endloop
  endfacet
  facet normal -0.951058 0.309012 0
    outer loop
      vertex -4.6492 1.19371 0
      vertex -4.46293 1.767 8
      vertex -4.46293 1.767 0
    endloop
  endfacet
  facet normal -0.951058 0.309012 0
    outer loop
      vertex -4.46293 1.767 8
      vertex -4.6492 1.19371 0
      vertex -4.6492 1.19371 8
    endloop
  endfacet
  facet normal -0.58779 -0.809014 0
    outer loop
      vertex -3.05963 -3.69846 0
      vertex -2.57197 -4.05277 8
      vertex -3.05963 -3.69846 8
    endloop
  endfacet
  facet normal -0.58779 -0.809014 -0
    outer loop
      vertex -2.57197 -4.05277 8
      vertex -3.05963 -3.69846 0
      vertex -2.57197 -4.05277 0
    endloop
  endfacet
  facet normal -0.368122 0.929778 0
    outer loop
      vertex -1.48328 4.56507 0
      vertex -2.04374 4.34317 8
      vertex -1.48328 4.56507 8
    endloop
  endfacet
  facet normal -0.368122 0.929778 0
    outer loop
      vertex -2.04374 4.34317 8
      vertex -1.48328 4.56507 0
      vertex -2.04374 4.34317 0
    endloop
  endfacet
  facet normal 0.951058 -0.309012 0
    outer loop
      vertex 4.46293 -1.767 8
      vertex 4.6492 -1.19371 0
      vertex 4.6492 -1.19371 8
    endloop
  endfacet
  facet normal 0.951058 -0.309012 0
    outer loop
      vertex 4.6492 -1.19371 0
      vertex 4.46293 -1.767 8
      vertex 4.46293 -1.767 0
    endloop
  endfacet
  facet normal 0.125334 -0.992115 0
    outer loop
      vertex 0.301394 -4.79053 0
      vertex 0.89943 -4.71498 8
      vertex 0.301394 -4.79053 8
    endloop
  endfacet
  facet normal 0.125334 -0.992115 0
    outer loop
      vertex 0.89943 -4.71498 8
      vertex 0.301394 -4.79053 0
      vertex 0.89943 -4.71498 0
    endloop
  endfacet
  facet normal 0.481758 -0.876305 0
    outer loop
      vertex 2.04374 -4.34317 0
      vertex 2.57197 -4.05277 8
      vertex 2.04374 -4.34317 8
    endloop
  endfacet
  facet normal 0.481758 -0.876305 0
    outer loop
      vertex 2.57197 -4.05277 8
      vertex 2.04374 -4.34317 0
      vertex 2.57197 -4.05277 0
    endloop
  endfacet
  facet normal -0.982288 0.187379 0
    outer loop
      vertex -4.76215 0.601599 0
      vertex -4.6492 1.19371 8
      vertex -4.6492 1.19371 0
    endloop
  endfacet
  facet normal -0.982288 0.187379 0
    outer loop
      vertex -4.6492 1.19371 8
      vertex -4.76215 0.601599 0
      vertex -4.76215 0.601599 8
    endloop
  endfacet
  facet normal 0.58779 -0.809014 0
    outer loop
      vertex 2.57197 -4.05277 0
      vertex 3.05963 -3.69846 8
      vertex 2.57197 -4.05277 8
    endloop
  endfacet
  facet normal 0.58779 -0.809014 0
    outer loop
      vertex 3.05963 -3.69846 8
      vertex 2.57197 -4.05277 0
      vertex 3.05963 -3.69846 0
    endloop
  endfacet
  facet normal 0.684536 0.728979 -0
    outer loop
      vertex 3.49905 3.28583 0
      vertex 3.05963 3.69846 8
      vertex 3.49905 3.28583 8
    endloop
  endfacet
  facet normal 0.684536 0.728979 0
    outer loop
      vertex 3.05963 3.69846 8
      vertex 3.49905 3.28583 0
      vertex 3.05963 3.69846 0
    endloop
  endfacet
  facet normal 0.248694 -0.968582 0
    outer loop
      vertex 0.89943 -4.71498 0
      vertex 1.48328 -4.56507 8
      vertex 0.89943 -4.71498 8
    endloop
  endfacet
  facet normal 0.248694 -0.968582 0
    outer loop
      vertex 1.48328 -4.56507 8
      vertex 0.89943 -4.71498 0
      vertex 1.48328 -4.56507 0
    endloop
  endfacet
  facet normal 0.770517 0.637419 0
    outer loop
      vertex 3.88328 2.82137 8
      vertex 3.49905 3.28583 0
      vertex 3.49905 3.28583 8
    endloop
  endfacet
  facet normal 0.770517 0.637419 0
    outer loop
      vertex 3.49905 3.28583 0
      vertex 3.88328 2.82137 8
      vertex 3.88328 2.82137 0
    endloop
  endfacet
  facet normal 0 1 -0
    outer loop
      vertex 0.301394 4.79053 0
      vertex -0.301394 4.79053 8
      vertex 0.301394 4.79053 8
    endloop
  endfacet
  facet normal 0 1 0
    outer loop
      vertex -0.301394 4.79053 8
      vertex 0.301394 4.79053 0
      vertex -0.301394 4.79053 0
    endloop
  endfacet
  facet normal -0.58779 0.809014 0
    outer loop
      vertex -2.57197 4.05277 0
      vertex -3.05963 3.69846 8
      vertex -2.57197 4.05277 8
    endloop
  endfacet
  facet normal -0.58779 0.809014 0
    outer loop
      vertex -3.05963 3.69846 8
      vertex -2.57197 4.05277 0
      vertex -3.05963 3.69846 0
    endloop
  endfacet
  facet normal -0.904824 -0.425786 0
    outer loop
      vertex -4.20627 -2.31242 0
      vertex -4.46293 -1.767 8
      vertex -4.46293 -1.767 0
    endloop
  endfacet
  facet normal -0.904824 -0.425786 0
    outer loop
      vertex -4.46293 -1.767 8
      vertex -4.20627 -2.31242 0
      vertex -4.20627 -2.31242 8
    endloop
  endfacet
  facet normal 0.58779 0.809014 -0
    outer loop
      vertex 3.05963 3.69846 0
      vertex 2.57197 4.05277 8
      vertex 3.05963 3.69846 8
    endloop
  endfacet
  facet normal 0.58779 0.809014 0
    outer loop
      vertex 2.57197 4.05277 8
      vertex 3.05963 3.69846 0
      vertex 2.57197 4.05277 0
    endloop
  endfacet
  facet normal 0.982288 -0.187379 0
    outer loop
      vertex 4.6492 -1.19371 8
      vertex 4.76215 -0.601599 0
      vertex 4.76215 -0.601599 8
    endloop
  endfacet
  facet normal 0.982288 -0.187379 0
    outer loop
      vertex 4.76215 -0.601599 0
      vertex 4.6492 -1.19371 8
      vertex 4.6492 -1.19371 0
    endloop
  endfacet
  facet normal -0.481758 0.876305 0
    outer loop
      vertex -2.04374 4.34317 0
      vertex -2.57197 4.05277 8
      vertex -2.04374 4.34317 8
    endloop
  endfacet
  facet normal -0.481758 0.876305 0
    outer loop
      vertex -2.57197 4.05277 8
      vertex -2.04374 4.34317 0
      vertex -2.57197 4.05277 0
    endloop
  endfacet
  facet normal -0.248694 -0.968582 0
    outer loop
      vertex -1.48328 -4.56507 0
      vertex -0.89943 -4.71498 8
      vertex -1.48328 -4.56507 8
    endloop
  endfacet
  facet normal -0.248694 -0.968582 -0
    outer loop
      vertex -0.89943 -4.71498 8
      vertex -1.48328 -4.56507 0
      vertex -0.89943 -4.71498 0
    endloop
  endfacet
  facet normal -0.770517 -0.637419 0
    outer loop
      vertex -3.49905 -3.28583 0
      vertex -3.88328 -2.82137 8
      vertex -3.88328 -2.82137 0
    endloop
  endfacet
  facet normal -0.770517 -0.637419 0
    outer loop
      vertex -3.88328 -2.82137 8
      vertex -3.49905 -3.28583 0
      vertex -3.49905 -3.28583 8
    endloop
  endfacet
  facet normal -0.904824 0.425786 0
    outer loop
      vertex -4.46293 1.767 0
      vertex -4.20627 2.31242 8
      vertex -4.20627 2.31242 0
    endloop
  endfacet
  facet normal -0.904824 0.425786 0
    outer loop
      vertex -4.20627 2.31242 8
      vertex -4.46293 1.767 0
      vertex -4.46293 1.767 8
    endloop
  endfacet
  facet normal 0.368122 -0.929778 0
    outer loop
      vertex 1.48328 -4.56507 0
      vertex 2.04374 -4.34317 8
      vertex 1.48328 -4.56507 8
    endloop
  endfacet
  facet normal 0.368122 -0.929778 0
    outer loop
      vertex 2.04374 -4.34317 8
      vertex 1.48328 -4.56507 0
      vertex 2.04374 -4.34317 0
    endloop
  endfacet
  facet normal -0.844328 0.535827 0
    outer loop
      vertex -4.20627 2.31242 0
      vertex -3.88328 2.82137 8
      vertex -3.88328 2.82137 0
    endloop
  endfacet
  facet normal -0.844328 0.535827 0
    outer loop
      vertex -3.88328 2.82137 8
      vertex -4.20627 2.31242 0
      vertex -4.20627 2.31242 8
    endloop
  endfacet
  facet normal -0.248694 0.968582 0
    outer loop
      vertex -0.89943 4.71498 0
      vertex -1.48328 4.56507 8
      vertex -0.89943 4.71498 8
    endloop
  endfacet
  facet normal -0.248694 0.968582 0
    outer loop
      vertex -1.48328 4.56507 8
      vertex -0.89943 4.71498 0
      vertex -1.48328 4.56507 0
    endloop
  endfacet
  facet normal -0.125334 -0.992115 0
    outer loop
      vertex -0.89943 -4.71498 0
      vertex -0.301394 -4.79053 8
      vertex -0.89943 -4.71498 8
    endloop
  endfacet
  facet normal -0.125334 -0.992115 -0
    outer loop
      vertex -0.301394 -4.79053 8
      vertex -0.89943 -4.71498 0
      vertex -0.301394 -4.79053 0
    endloop
  endfacet
  facet normal 0 0 -1
    outer loop
      vertex 3 0 0
      vertex 4.8 0 0
      vertex 4.76215 -0.601599 0
    endloop
  endfacet
  facet normal 0 0 -1
    outer loop
      vertex 2.97634 -0.375999 0
      vertex 4.76215 -0.601599 0
      vertex 4.6492 -1.19371 0
    endloop
  endfacet
  facet normal 0 0 -1
    outer loop
      vertex 4.8 0 0
      vertex 3 0 0
      vertex 4.76215 0.601599 0
    endloop
  endfacet
  facet normal 0 0 -1
    outer loop
      vertex 2.90575 -0.746069 0
      vertex 4.6492 -1.19371 0
      vertex 4.46293 -1.767 0
    endloop
  endfacet
  facet normal 0 0 -1
    outer loop
      vertex 2.97634 0.375999 0
      vertex 4.76215 0.601599 0
      vertex 3 0 0
    endloop
  endfacet
  facet normal 0 0 -1
    outer loop
      vertex 2.78933 -1.10437 0
      vertex 4.46293 -1.767 0
      vertex 4.20627 -2.31242 0
    endloop
  endfacet
  facet normal -0 0 -1
    outer loop
      vertex 4.76215 0.601599 0
      vertex 2.97634 0.375999 0
      vertex 4.6492 1.19371 0
    endloop
  endfacet
  facet normal 0 0 -1
    outer loop
      vertex 2.62892 -1.44526 0
      vertex 4.20627 -2.31242 0
      vertex 3.88328 -2.82137 0
    endloop
  endfacet
  facet normal 0 0 -1
    outer loop
      vertex 2.90575 0.746069 0
      vertex 4.6492 1.19371 0
      vertex 2.97634 0.375999 0
    endloop
  endfacet
  facet normal 0 0 -1
    outer loop
      vertex 2.42705 -1.76336 0
      vertex 3.88328 -2.82137 0
      vertex 3.49905 -3.28583 0
    endloop
  endfacet
  facet normal -0 0 -1
    outer loop
      vertex 4.6492 1.19371 0
      vertex 2.90575 0.746069 0
      vertex 4.46293 1.767 0
    endloop
  endfacet
  facet normal 0 0 -1
    outer loop
      vertex 2.18691 -2.05364 0
      vertex 3.49905 -3.28583 0
      vertex 3.05963 -3.69846 0
    endloop
  endfacet
  facet normal 0 0 -1
    outer loop
      vertex 2.78933 1.10437 0
      vertex 4.46293 1.767 0
      vertex 2.90575 0.746069 0
    endloop
  endfacet
  facet normal -0 0 -1
    outer loop
      vertex 4.46293 1.767 0
      vertex 2.78933 1.10437 0
      vertex 4.20627 2.31242 0
    endloop
  endfacet
  facet normal 0 0 -1
    outer loop
      vertex 4.76215 -0.601599 0
      vertex 2.97634 -0.375999 0
      vertex 3 0 0
    endloop
  endfacet
  facet normal 0 0 -1
    outer loop
      vertex 4.6492 -1.19371 0
      vertex 2.90575 -0.746069 0
      vertex 2.97634 -0.375999 0
    endloop
  endfacet
  facet normal 0 0 -1
    outer loop
      vertex 4.46293 -1.767 0
      vertex 2.78933 -1.10437 0
      vertex 2.90575 -0.746069 0
    endloop
  endfacet
  facet normal 0 0 -1
    outer loop
      vertex 4.20627 -2.31242 0
      vertex 2.62892 -1.44526 0
      vertex 2.78933 -1.10437 0
    endloop
  endfacet
  facet normal 0 0 -1
    outer loop
      vertex 1.91227 -2.31154 0
      vertex 3.05963 -3.69846 0
      vertex 2.57197 -4.05277 0
    endloop
  endfacet
  facet normal 0 0 -1
    outer loop
      vertex 3.88328 -2.82137 0
      vertex 2.42705 -1.76336 0
      vertex 2.62892 -1.44526 0
    endloop
  endfacet
  facet normal 0 0 -1
    outer loop
      vertex 3.49905 -3.28583 0
      vertex 2.18691 -2.05364 0
      vertex 2.42705 -1.76336 0
    endloop
  endfacet
  facet normal 0 0 -1
    outer loop
      vertex 1.60748 -2.53298 0
      vertex 2.57197 -4.05277 0
      vertex 2.04374 -4.34317 0
    endloop
  endfacet
  facet normal 0 0 -1
    outer loop
      vertex 3.05963 -3.69846 0
      vertex 1.91227 -2.31154 0
      vertex 2.18691 -2.05364 0
    endloop
  endfacet
  facet normal 0 0 -1
    outer loop
      vertex 2.57197 -4.05277 0
      vertex 1.60748 -2.53298 0
      vertex 1.91227 -2.31154 0
    endloop
  endfacet
  facet normal 0 0 -1
    outer loop
      vertex 1.27734 -2.71448 0
      vertex 2.04374 -4.34317 0
      vertex 1.48328 -4.56507 0
    endloop
  endfacet
  facet normal 0 0 -1
    outer loop
      vertex 2.04374 -4.34317 0
      vertex 1.27734 -2.71448 0
      vertex 1.60748 -2.53298 0
    endloop
  endfacet
  facet normal 0 0 -1
    outer loop
      vertex 1.48328 -4.56507 0
      vertex 0.927051 -2.85317 0
      vertex 1.27734 -2.71448 0
    endloop
  endfacet
  facet normal 0 0 -1
    outer loop
      vertex 0.89943 -4.71498 0
      vertex 0.927051 -2.85317 0
      vertex 1.48328 -4.56507 0
    endloop
  endfacet
  facet normal 0 0 -1
    outer loop
      vertex 0.89943 -4.71498 0
      vertex 0.562143 -2.94686 0
      vertex 0.927051 -2.85317 0
    endloop
  endfacet
  facet normal 0 0 -1
    outer loop
      vertex 0.301394 -4.79053 0
      vertex 0.562143 -2.94686 0
      vertex 0.89943 -4.71498 0
    endloop
  endfacet
  facet normal 0 0 -1
    outer loop
      vertex 0.301394 -4.79053 0
      vertex 0.188371 -2.99408 0
      vertex 0.562143 -2.94686 0
    endloop
  endfacet
  facet normal 0 0 -1
    outer loop
      vertex 0.301394 -4.79053 0
      vertex -0.188371 -2.99408 0
      vertex 0.188371 -2.99408 0
    endloop
  endfacet
  facet normal 0 0 -1
    outer loop
      vertex -0.301394 -4.79053 0
      vertex -0.188371 -2.99408 0
      vertex 0.301394 -4.79053 0
    endloop
  endfacet
  facet normal 0 0 -1
    outer loop
      vertex -0.301394 -4.79053 0
      vertex -0.562143 -2.94686 0
      vertex -0.188371 -2.99408 0
    endloop
  endfacet
  facet normal 0 0 -1
    outer loop
      vertex -0.89943 -4.71498 0
      vertex -0.562143 -2.94686 0
      vertex -0.301394 -4.79053 0
    endloop
  endfacet
  facet normal 0 0 -1
    outer loop
      vertex -0.89943 -4.71498 0
      vertex -0.927051 -2.85317 0
      vertex -0.562143 -2.94686 0
    endloop
  endfacet
  facet normal 0 0 -1
    outer loop
      vertex -1.48328 -4.56507 0
      vertex -0.927051 -2.85317 0
      vertex -0.89943 -4.71498 0
    endloop
  endfacet
  facet normal -0 0 -1
    outer loop
      vertex -0.927051 -2.85317 0
      vertex -1.48328 -4.56507 0
      vertex -1.27734 -2.71448 0
    endloop
  endfacet
  facet normal 0 0 -1
    outer loop
      vertex -2.04374 -4.34317 0
      vertex -1.27734 -2.71448 0
      vertex -1.48328 -4.56507 0
    endloop
  endfacet
  facet normal -0 0 -1
    outer loop
      vertex -1.27734 -2.71448 0
      vertex -2.04374 -4.34317 0
      vertex -1.60748 -2.53298 0
    endloop
  endfacet
  facet normal 0 0 -1
    outer loop
      vertex -2.57197 -4.05277 0
      vertex -1.60748 -2.53298 0
      vertex -2.04374 -4.34317 0
    endloop
  endfacet
  facet normal -0 0 -1
    outer loop
      vertex -1.60748 -2.53298 0
      vertex -2.57197 -4.05277 0
      vertex -1.91227 -2.31154 0
    endloop
  endfacet
  facet normal 0 0 -1
    outer loop
      vertex -3.05963 -3.69846 0
      vertex -1.91227 -2.31154 0
      vertex -2.57197 -4.05277 0
    endloop
  endfacet
  facet normal -0 0 -1
    outer loop
      vertex -1.91227 -2.31154 0
      vertex -3.05963 -3.69846 0
      vertex -2.18691 -2.05364 0
    endloop
  endfacet
  facet normal 0 0 -1
    outer loop
      vertex -3.49905 -3.28583 0
      vertex -2.18691 -2.05364 0
      vertex -3.05963 -3.69846 0
    endloop
  endfacet
  facet normal -0 0 -1
    outer loop
      vertex -2.18691 -2.05364 0
      vertex -3.49905 -3.28583 0
      vertex -2.42705 -1.76336 0
    endloop
  endfacet
  facet normal 0 0 -1
    outer loop
      vertex -3.88328 -2.82137 0
      vertex -2.42705 -1.76336 0
      vertex -3.49905 -3.28583 0
    endloop
  endfacet
  facet normal -0 0 -1
    outer loop
      vertex -2.42705 -1.76336 0
      vertex -3.88328 -2.82137 0
      vertex -2.62892 -1.44526 0
    endloop
  endfacet
  facet normal -0 0 -1
    outer loop
      vertex -2.62892 -1.44526 0
      vertex -4.20627 -2.31242 0
      vertex -2.78933 -1.10437 0
    endloop
  endfacet
  facet normal 0 0 -1
    outer loop
      vertex -4.20627 -2.31242 0
      vertex -2.62892 -1.44526 0
      vertex -3.88328 -2.82137 0
    endloop
  endfacet
  facet normal 0 0 -1
    outer loop
      vertex 2.62892 1.44526 0
      vertex 4.20627 2.31242 0
      vertex 2.78933 1.10437 0
    endloop
  endfacet
  facet normal -0 0 -1
    outer loop
      vertex 4.20627 2.31242 0
      vertex 2.62892 1.44526 0
      vertex 3.88328 2.82137 0
    endloop
  endfacet
  facet normal 0 0 -1
    outer loop
      vertex 2.42705 1.76336 0
      vertex 3.88328 2.82137 0
      vertex 2.62892 1.44526 0
    endloop
  endfacet
  facet normal -0 0 -1
    outer loop
      vertex 3.88328 2.82137 0
      vertex 2.42705 1.76336 0
      vertex 3.49905 3.28583 0
    endloop
  endfacet
  facet normal 0 0 -1
    outer loop
      vertex 2.18691 2.05364 0
      vertex 3.49905 3.28583 0
      vertex 2.42705 1.76336 0
    endloop
  endfacet
  facet normal -0 0 -1
    outer loop
      vertex 3.49905 3.28583 0
      vertex 2.18691 2.05364 0
      vertex 3.05963 3.69846 0
    endloop
  endfacet
  facet normal 0 0 -1
    outer loop
      vertex 1.91227 2.31154 0
      vertex 3.05963 3.69846 0
      vertex 2.18691 2.05364 0
    endloop
  endfacet
  facet normal -0 0 -1
    outer loop
      vertex 3.05963 3.69846 0
      vertex 1.91227 2.31154 0
      vertex 2.57197 4.05277 0
    endloop
  endfacet
  facet normal 0 0 -1
    outer loop
      vertex 1.60748 2.53298 0
      vertex 2.57197 4.05277 0
      vertex 1.91227 2.31154 0
    endloop
  endfacet
  facet normal -0 0 -1
    outer loop
      vertex 2.57197 4.05277 0
      vertex 1.60748 2.53298 0
      vertex 2.04374 4.34317 0
    endloop
  endfacet
  facet normal 0 0 -1
    outer loop
      vertex 1.27734 2.71448 0
      vertex 2.04374 4.34317 0
      vertex 1.60748 2.53298 0
    endloop
  endfacet
  facet normal -0 0 -1
    outer loop
      vertex 2.04374 4.34317 0
      vertex 1.27734 2.71448 0
      vertex 1.48328 4.56507 0
    endloop
  endfacet
  facet normal 0 0 -1
    outer loop
      vertex 0.927051 2.85317 0
      vertex 1.48328 4.56507 0
      vertex 1.27734 2.71448 0
    endloop
  endfacet
  facet normal 0 0 -1
    outer loop
      vertex 0.927051 2.85317 0
      vertex 0.89943 4.71498 0
      vertex 1.48328 4.56507 0
    endloop
  endfacet
  facet normal 0 0 -1
    outer loop
      vertex 0.562143 2.94686 0
      vertex 0.89943 4.71498 0
      vertex 0.927051 2.85317 0
    endloop
  endfacet
  facet normal 0 0 -1
    outer loop
      vertex 0.562143 2.94686 0
      vertex 0.301394 4.79053 0
      vertex 0.89943 4.71498 0
    endloop
  endfacet
  facet normal 0 0 -1
    outer loop
      vertex 0.188371 2.99408 0
      vertex 0.301394 4.79053 0
      vertex 0.562143 2.94686 0
    endloop
  endfacet
  facet normal 0 0 -1
    outer loop
      vertex -0.188371 2.99408 0
      vertex 0.301394 4.79053 0
      vertex 0.188371 2.99408 0
    endloop
  endfacet
  facet normal 0 0 -1
    outer loop
      vertex -0.188371 2.99408 0
      vertex -0.301394 4.79053 0
      vertex 0.301394 4.79053 0
    endloop
  endfacet
  facet normal 0 0 -1
    outer loop
      vertex -0.562143 2.94686 0
      vertex -0.301394 4.79053 0
      vertex -0.188371 2.99408 0
    endloop
  endfacet
  facet normal 0 0 -1
    outer loop
      vertex -0.562143 2.94686 0
      vertex -0.89943 4.71498 0
      vertex -0.301394 4.79053 0
    endloop
  endfacet
  facet normal 0 0 -1
    outer loop
      vertex -0.927051 2.85317 0
      vertex -0.89943 4.71498 0
      vertex -0.562143 2.94686 0
    endloop
  endfacet
  facet normal 0 0 -1
    outer loop
      vertex -1.48328 4.56507 0
      vertex -0.927051 2.85317 0
      vertex -1.27734 2.71448 0
    endloop
  endfacet
  facet normal 0 0 -1
    outer loop
      vertex -0.927051 2.85317 0
      vertex -1.48328 4.56507 0
      vertex -0.89943 4.71498 0
    endloop
  endfacet
  facet normal 0 0 -1
    outer loop
      vertex -2.04374 4.34317 0
      vertex -1.27734 2.71448 0
      vertex -1.60748 2.53298 0
    endloop
  endfacet
  facet normal 0 0 -1
    outer loop
      vertex -2.57197 4.05277 0
      vertex -1.60748 2.53298 0
      vertex -1.91227 2.31154 0
    endloop
  endfacet
  facet normal 0 0 -1
    outer loop
      vertex -1.27734 2.71448 0
      vertex -2.04374 4.34317 0
      vertex -1.48328 4.56507 0
    endloop
  endfacet
  facet normal 0 0 -1
    outer loop
      vertex -3.05963 3.69846 0
      vertex -1.91227 2.31154 0
      vertex -2.18691 2.05364 0
    endloop
  endfacet
  facet normal 0 0 -1
    outer loop
      vertex -3.49905 3.28583 0
      vertex -2.18691 2.05364 0
      vertex -2.42705 1.76336 0
    endloop
  endfacet
  facet normal 0 0 -1
    outer loop
      vertex -1.60748 2.53298 0
      vertex -2.57197 4.05277 0
      vertex -2.04374 4.34317 0
    endloop
  endfacet
  facet normal 0 0 -1
    outer loop
      vertex -3.88328 2.82137 0
      vertex -2.42705 1.76336 0
      vertex -2.62892 1.44526 0
    endloop
  endfacet
  facet normal 0 0 -1
    outer loop
      vertex -4.20627 2.31242 0
      vertex -2.62892 1.44526 0
      vertex -2.78933 1.10437 0
    endloop
  endfacet
  facet normal 0 0 -1
    outer loop
      vertex -4.46293 1.767 0
      vertex -2.78933 1.10437 0
      vertex -2.90575 0.746069 0
    endloop
  endfacet
  facet normal 0 0 -1
    outer loop
      vertex -4.6492 1.19371 0
      vertex -2.90575 0.746069 0
      vertex -2.97634 0.375999 0
    endloop
  endfacet
  facet normal 0 0 -1
    outer loop
      vertex -1.91227 2.31154 0
      vertex -3.05963 3.69846 0
      vertex -2.57197 4.05277 0
    endloop
  endfacet
  facet normal 0 0 -1
    outer loop
      vertex -4.76215 0.601599 0
      vertex -2.97634 0.375999 0
      vertex -3 0 0
    endloop
  endfacet
  facet normal 0 0 -1
    outer loop
      vertex -4.46293 -1.767 0
      vertex -2.78933 -1.10437 0
      vertex -4.20627 -2.31242 0
    endloop
  endfacet
  facet normal -0 0 -1
    outer loop
      vertex -2.78933 -1.10437 0
      vertex -4.46293 -1.767 0
      vertex -2.90575 -0.746069 0
    endloop
  endfacet
  facet normal 0 0 -1
    outer loop
      vertex -2.18691 2.05364 0
      vertex -3.49905 3.28583 0
      vertex -3.05963 3.69846 0
    endloop
  endfacet
  facet normal 0 0 -1
    outer loop
      vertex -4.6492 -1.19371 0
      vertex -2.90575 -0.746069 0
      vertex -4.46293 -1.767 0
    endloop
  endfacet
  facet normal 0 0 -1
    outer loop
      vertex -2.42705 1.76336 0
      vertex -3.88328 2.82137 0
      vertex -3.49905 3.28583 0
    endloop
  endfacet
  facet normal -0 0 -1
    outer loop
      vertex -2.90575 -0.746069 0
      vertex -4.6492 -1.19371 0
      vertex -2.97634 -0.375999 0
    endloop
  endfacet
  facet normal 0 0 -1
    outer loop
      vertex -2.62892 1.44526 0
      vertex -4.20627 2.31242 0
      vertex -3.88328 2.82137 0
    endloop
  endfacet
  facet normal 0 0 -1
    outer loop
      vertex -4.76215 -0.601599 0
      vertex -2.97634 -0.375999 0
      vertex -4.6492 -1.19371 0
    endloop
  endfacet
  facet normal 0 0 -1
    outer loop
      vertex -2.78933 1.10437 0
      vertex -4.46293 1.767 0
      vertex -4.20627 2.31242 0
    endloop
  endfacet
  facet normal -0 0 -1
    outer loop
      vertex -2.97634 -0.375999 0
      vertex -4.76215 -0.601599 0
      vertex -3 0 0
    endloop
  endfacet
  facet normal 0 0 -1
    outer loop
      vertex -2.90575 0.746069 0
      vertex -4.6492 1.19371 0
      vertex -4.46293 1.767 0
    endloop
  endfacet
  facet normal 0 0 -1
    outer loop
      vertex -4.8 0 0
      vertex -3 0 0
      vertex -4.76215 -0.601599 0
    endloop
  endfacet
  facet normal 0 0 -1
    outer loop
      vertex -2.97634 0.375999 0
      vertex -4.76215 0.601599 0
      vertex -4.6492 1.19371 0
    endloop
  endfacet
  facet normal 0 0 -1
    outer loop
      vertex -3 0 0
      vertex -4.8 0 0
      vertex -4.76215 0.601599 0
    endloop
  endfacet
  facet normal -0.368122 -0.929778 0
    outer loop
      vertex -2.04374 -4.34317 0
      vertex -1.48328 -4.56507 8
      vertex -2.04374 -4.34317 8
    endloop
  endfacet
  facet normal -0.368122 -0.929778 -0
    outer loop
      vertex -1.48328 -4.56507 8
      vertex -2.04374 -4.34317 0
      vertex -1.48328 -4.56507 0
    endloop
  endfacet
  facet normal 0 -1 0
    outer loop
      vertex -0.301394 -4.79053 0
      vertex 0.301394 -4.79053 8
      vertex -0.301394 -4.79053 8
    endloop
  endfacet
  facet normal 0 -1 -0
    outer loop
      vertex 0.301394 -4.79053 8
      vertex -0.301394 -4.79053 0
      vertex 0.301394 -4.79053 0
    endloop
  endfacet
  facet normal -0.481758 -0.876305 0
    outer loop
      vertex -2.57197 -4.05277 0
      vertex -2.04374 -4.34317 8
      vertex -2.57197 -4.05277 8
    endloop
  endfacet
  facet normal -0.481758 -0.876305 -0
    outer loop
      vertex -2.04374 -4.34317 8
      vertex -2.57197 -4.05277 0
      vertex -2.04374 -4.34317 0
    endloop
  endfacet
  facet normal -0.998027 0.0627915 0
    outer loop
      vertex -4.8 0 0
      vertex -4.76215 0.601599 8
      vertex -4.76215 0.601599 0
    endloop
  endfacet
  facet normal -0.998027 0.0627915 0
    outer loop
      vertex -4.76215 0.601599 8
      vertex -4.8 0 0
      vertex -4.8 0 8
    endloop
  endfacet
  facet normal -0.684536 -0.728979 0
    outer loop
      vertex -3.49905 -3.28583 0
      vertex -3.05963 -3.69846 8
      vertex -3.49905 -3.28583 8
    endloop
  endfacet
  facet normal -0.684536 -0.728979 -0
    outer loop
      vertex -3.05963 -3.69846 8
      vertex -3.49905 -3.28583 0
      vertex -3.05963 -3.69846 0
    endloop
  endfacet
  facet normal 0 0 1
    outer loop
      vertex 3 0 8
      vertex 4.8 0 8
      vertex 4.76215 0.601599 8
    endloop
  endfacet
  facet normal 0 0 1
    outer loop
      vertex 2.97634 0.375999 8
      vertex 4.76215 0.601599 8
      vertex 4.6492 1.19371 8
    endloop
  endfacet
  facet normal 0 0 1
    outer loop
      vertex 4.8 0 8
      vertex 3 0 8
      vertex 4.76215 -0.601599 8
    endloop
  endfacet
  facet normal 0 0 1
    outer loop
      vertex 2.90575 0.746069 8
      vertex 4.6492 1.19371 8
      vertex 4.46293 1.767 8
    endloop
  endfacet
  facet normal -0 0 1
    outer loop
      vertex 2.97634 -0.375999 8
      vertex 4.76215 -0.601599 8
      vertex 3 0 8
    endloop
  endfacet
  facet normal 0 0 1
    outer loop
      vertex 2.78933 1.10437 8
      vertex 4.46293 1.767 8
      vertex 4.20627 2.31242 8
    endloop
  endfacet
  facet normal 0 0 1
    outer loop
      vertex 4.76215 -0.601599 8
      vertex 2.97634 -0.375999 8
      vertex 4.6492 -1.19371 8
    endloop
  endfacet
  facet normal 0 0 1
    outer loop
      vertex 2.62892 1.44526 8
      vertex 4.20627 2.31242 8
      vertex 3.88328 2.82137 8
    endloop
  endfacet
  facet normal -0 0 1
    outer loop
      vertex 2.90575 -0.746069 8
      vertex 4.6492 -1.19371 8
      vertex 2.97634 -0.375999 8
    endloop
  endfacet
  facet normal 0 0 1
    outer loop
      vertex 2.42705 1.76336 8
      vertex 3.88328 2.82137 8
      vertex 3.49905 3.28583 8
    endloop
  endfacet
  facet normal 0 0 1
    outer loop
      vertex 4.6492 -1.19371 8
      vertex 2.90575 -0.746069 8
      vertex 4.46293 -1.767 8
    endloop
  endfacet
  facet normal 0 0 1
    outer loop
      vertex 2.18691 2.05364 8
      vertex 3.49905 3.28583 8
      vertex 3.05963 3.69846 8
    endloop
  endfacet
  facet normal -0 0 1
    outer loop
      vertex 2.78933 -1.10437 8
      vertex 4.46293 -1.767 8
      vertex 2.90575 -0.746069 8
    endloop
  endfacet
  facet normal 0 0 1
    outer loop
      vertex 4.46293 -1.767 8
      vertex 2.78933 -1.10437 8
      vertex 4.20627 -2.31242 8
    endloop
  endfacet
  facet normal 0 0 1
    outer loop
      vertex 4.76215 0.601599 8
      vertex 2.97634 0.375999 8
      vertex 3 0 8
    endloop
  endfacet
  facet normal 0 0 1
    outer loop
      vertex 4.6492 1.19371 8
      vertex 2.90575 0.746069 8
      vertex 2.97634 0.375999 8
    endloop
  endfacet
  facet normal 0 0 1
    outer loop
      vertex 4.46293 1.767 8
      vertex 2.78933 1.10437 8
      vertex 2.90575 0.746069 8
    endloop
  endfacet
  facet normal 0 0 1
    outer loop
      vertex 4.20627 2.31242 8
      vertex 2.62892 1.44526 8
      vertex 2.78933 1.10437 8
    endloop
  endfacet
  facet normal 0 0 1
    outer loop
      vertex 1.91227 2.31154 8
      vertex 3.05963 3.69846 8
      vertex 2.57197 4.05277 8
    endloop
  endfacet
  facet normal 0 0 1
    outer loop
      vertex 3.88328 2.82137 8
      vertex 2.42705 1.76336 8
      vertex 2.62892 1.44526 8
    endloop
  endfacet
  facet normal 0 0 1
    outer loop
      vertex 3.49905 3.28583 8
      vertex 2.18691 2.05364 8
      vertex 2.42705 1.76336 8
    endloop
  endfacet
  facet normal 0 0 1
    outer loop
      vertex 1.60748 2.53298 8
      vertex 2.57197 4.05277 8
      vertex 2.04374 4.34317 8
    endloop
  endfacet
  facet normal 0 0 1
    outer loop
      vertex 3.05963 3.69846 8
      vertex 1.91227 2.31154 8
      vertex 2.18691 2.05364 8
    endloop
  endfacet
  facet normal 0 0 1
    outer loop
      vertex 2.57197 4.05277 8
      vertex 1.60748 2.53298 8
      vertex 1.91227 2.31154 8
    endloop
  endfacet
  facet normal 0 0 1
    outer loop
      vertex 1.27734 2.71448 8
      vertex 2.04374 4.34317 8
      vertex 1.48328 4.56507 8
    endloop
  endfacet
  facet normal 0 0 1
    outer loop
      vertex 2.04374 4.34317 8
      vertex 1.27734 2.71448 8
      vertex 1.60748 2.53298 8
    endloop
  endfacet
  facet normal 0 0 1
    outer loop
      vertex 1.48328 4.56507 8
      vertex 0.927051 2.85317 8
      vertex 1.27734 2.71448 8
    endloop
  endfacet
  facet normal 0 0 1
    outer loop
      vertex 0.89943 4.71498 8
      vertex 0.927051 2.85317 8
      vertex 1.48328 4.56507 8
    endloop
  endfacet
  facet normal 0 0 1
    outer loop
      vertex 0.89943 4.71498 8
      vertex 0.562143 2.94686 8
      vertex 0.927051 2.85317 8
    endloop
  endfacet
  facet normal 0 0 1
    outer loop
      vertex 0.301394 4.79053 8
      vertex 0.562143 2.94686 8
      vertex 0.89943 4.71498 8
    endloop
  endfacet
  facet normal 0 0 1
    outer loop
      vertex 0.301394 4.79053 8
      vertex 0.188371 2.99408 8
      vertex 0.562143 2.94686 8
    endloop
  endfacet
  facet normal 0 0 1
    outer loop
      vertex 0.301394 4.79053 8
      vertex -0.188371 2.99408 8
      vertex 0.188371 2.99408 8
    endloop
  endfacet
  facet normal -0 0 1
    outer loop
      vertex -0.301394 4.79053 8
      vertex -0.188371 2.99408 8
      vertex 0.301394 4.79053 8
    endloop
  endfacet
  facet normal 0 0 1
    outer loop
      vertex -0.301394 4.79053 8
      vertex -0.562143 2.94686 8
      vertex -0.188371 2.99408 8
    endloop
  endfacet
  facet normal -0 0 1
    outer loop
      vertex -0.89943 4.71498 8
      vertex -0.562143 2.94686 8
      vertex -0.301394 4.79053 8
    endloop
  endfacet
  facet normal 0 0 1
    outer loop
      vertex -0.89943 4.71498 8
      vertex -0.927051 2.85317 8
      vertex -0.562143 2.94686 8
    endloop
  endfacet
  facet normal -0 0 1
    outer loop
      vertex -1.48328 4.56507 8
      vertex -0.927051 2.85317 8
      vertex -0.89943 4.71498 8
    endloop
  endfacet
  facet normal 0 0 1
    outer loop
      vertex -0.927051 2.85317 8
      vertex -1.48328 4.56507 8
      vertex -1.27734 2.71448 8
    endloop
  endfacet
  facet normal -0 0 1
    outer loop
      vertex -2.04374 4.34317 8
      vertex -1.27734 2.71448 8
      vertex -1.48328 4.56507 8
    endloop
  endfacet
  facet normal 0 0 1
    outer loop
      vertex -1.27734 2.71448 8
      vertex -2.04374 4.34317 8
      vertex -1.60748 2.53298 8
    endloop
  endfacet
  facet normal -0 0 1
    outer loop
      vertex -2.57197 4.05277 8
      vertex -1.60748 2.53298 8
      vertex -2.04374 4.34317 8
    endloop
  endfacet
  facet normal 0 0 1
    outer loop
      vertex -1.60748 2.53298 8
      vertex -2.57197 4.05277 8
      vertex -1.91227 2.31154 8
    endloop
  endfacet
  facet normal -0 0 1
    outer loop
      vertex -3.05963 3.69846 8
      vertex -1.91227 2.31154 8
      vertex -2.57197 4.05277 8
    endloop
  endfacet
  facet normal 0 0 1
    outer loop
      vertex -1.91227 2.31154 8
      vertex -3.05963 3.69846 8
      vertex -2.18691 2.05364 8
    endloop
  endfacet
  facet normal -0 0 1
    outer loop
      vertex -3.49905 3.28583 8
      vertex -2.18691 2.05364 8
      vertex -3.05963 3.69846 8
    endloop
  endfacet
  facet normal 0 0 1
    outer loop
      vertex -2.18691 2.05364 8
      vertex -3.49905 3.28583 8
      vertex -2.42705 1.76336 8
    endloop
  endfacet
  facet normal -0 0 1
    outer loop
      vertex -3.88328 2.82137 8
      vertex -2.42705 1.76336 8
      vertex -3.49905 3.28583 8
    endloop
  endfacet
  facet normal 0 0 1
    outer loop
      vertex -2.42705 1.76336 8
      vertex -3.88328 2.82137 8
      vertex -2.62892 1.44526 8
    endloop
  endfacet
  facet normal 0 0 1
    outer loop
      vertex -2.62892 1.44526 8
      vertex -4.20627 2.31242 8
      vertex -2.78933 1.10437 8
    endloop
  endfacet
  facet normal -0 0 1
    outer loop
      vertex -4.20627 2.31242 8
      vertex -2.62892 1.44526 8
      vertex -3.88328 2.82137 8
    endloop
  endfacet
  facet normal -0 0 1
    outer loop
      vertex 2.62892 -1.44526 8
      vertex 4.20627 -2.31242 8
      vertex 2.78933 -1.10437 8
    endloop
  endfacet
  facet normal 0 0 1
    outer loop
      vertex 4.20627 -2.31242 8
      vertex 2.62892 -1.44526 8
      vertex 3.88328 -2.82137 8
    endloop
  endfacet
  facet normal -0 0 1
    outer loop
      vertex 2.42705 -1.76336 8
      vertex 3.88328 -2.82137 8
      vertex 2.62892 -1.44526 8
    endloop
  endfacet
  facet normal 0 0 1
    outer loop
      vertex 3.88328 -2.82137 8
      vertex 2.42705 -1.76336 8
      vertex 3.49905 -3.28583 8
    endloop
  endfacet
  facet normal -0 0 1
    outer loop
      vertex 2.18691 -2.05364 8
      vertex 3.49905 -3.28583 8
      vertex 2.42705 -1.76336 8
    endloop
  endfacet
  facet normal 0 0 1
    outer loop
      vertex 3.49905 -3.28583 8
      vertex 2.18691 -2.05364 8
      vertex 3.05963 -3.69846 8
    endloop
  endfacet
  facet normal -0 0 1
    outer loop
      vertex 1.91227 -2.31154 8
      vertex 3.05963 -3.69846 8
      vertex 2.18691 -2.05364 8
    endloop
  endfacet
  facet normal 0 0 1
    outer loop
      vertex 3.05963 -3.69846 8
      vertex 1.91227 -2.31154 8
      vertex 2.57197 -4.05277 8
    endloop
  endfacet
  facet normal -0 0 1
    outer loop
      vertex 1.60748 -2.53298 8
      vertex 2.57197 -4.05277 8
      vertex 1.91227 -2.31154 8
    endloop
  endfacet
  facet normal 0 0 1
    outer loop
      vertex 2.57197 -4.05277 8
      vertex 1.60748 -2.53298 8
      vertex 2.04374 -4.34317 8
    endloop
  endfacet
  facet normal -0 0 1
    outer loop
      vertex 1.27734 -2.71448 8
      vertex 2.04374 -4.34317 8
      vertex 1.60748 -2.53298 8
    endloop
  endfacet
  facet normal 0 0 1
    outer loop
      vertex 2.04374 -4.34317 8
      vertex 1.27734 -2.71448 8
      vertex 1.48328 -4.56507 8
    endloop
  endfacet
  facet normal -0 0 1
    outer loop
      vertex 0.927051 -2.85317 8
      vertex 1.48328 -4.56507 8
      vertex 1.27734 -2.71448 8
    endloop
  endfacet
  facet normal 0 0 1
    outer loop
      vertex 0.927051 -2.85317 8
      vertex 0.89943 -4.71498 8
      vertex 1.48328 -4.56507 8
    endloop
  endfacet
  facet normal -0 0 1
    outer loop
      vertex 0.562143 -2.94686 8
      vertex 0.89943 -4.71498 8
      vertex 0.927051 -2.85317 8
    endloop
  endfacet
  facet normal 0 0 1
    outer loop
      vertex 0.562143 -2.94686 8
      vertex 0.301394 -4.79053 8
      vertex 0.89943 -4.71498 8
    endloop
  endfacet
  facet normal -0 0 1
    outer loop
      vertex 0.188371 -2.99408 8
      vertex 0.301394 -4.79053 8
      vertex 0.562143 -2.94686 8
    endloop
  endfacet
  facet normal -0 0 1
    outer loop
      vertex -0.188371 -2.99408 8
      vertex 0.301394 -4.79053 8
      vertex 0.188371 -2.99408 8
    endloop
  endfacet
  facet normal 0 0 1
    outer loop
      vertex -0.188371 -2.99408 8
      vertex -0.301394 -4.79053 8
      vertex 0.301394 -4.79053 8
    endloop
  endfacet
  facet normal 0 0 1
    outer loop
      vertex -0.562143 -2.94686 8
      vertex -0.301394 -4.79053 8
      vertex -0.188371 -2.99408 8
    endloop
  endfacet
  facet normal 0 0 1
    outer loop
      vertex -0.562143 -2.94686 8
      vertex -0.89943 -4.71498 8
      vertex -0.301394 -4.79053 8
    endloop
  endfacet
  facet normal 0 0 1
    outer loop
      vertex -0.927051 -2.85317 8
      vertex -0.89943 -4.71498 8
      vertex -0.562143 -2.94686 8
    endloop
  endfacet
  facet normal 0 0 1
    outer loop
      vertex -1.48328 -4.56507 8
      vertex -0.927051 -2.85317 8
      vertex -1.27734 -2.71448 8
    endloop
  endfacet
  facet normal 0 0 1
    outer loop
      vertex -0.927051 -2.85317 8
      vertex -1.48328 -4.56507 8
      vertex -0.89943 -4.71498 8
    endloop
  endfacet
  facet normal 0 0 1
    outer loop
      vertex -2.04374 -4.34317 8
      vertex -1.27734 -2.71448 8
      vertex -1.60748 -2.53298 8
    endloop
  endfacet
  facet normal 0 0 1
    outer loop
      vertex -2.57197 -4.05277 8
      vertex -1.60748 -2.53298 8
      vertex -1.91227 -2.31154 8
    endloop
  endfacet
  facet normal 0 0 1
    outer loop
      vertex -1.27734 -2.71448 8
      vertex -2.04374 -4.34317 8
      vertex -1.48328 -4.56507 8
    endloop
  endfacet
  facet normal 0 0 1
    outer loop
      vertex -3.05963 -3.69846 8
      vertex -1.91227 -2.31154 8
      vertex -2.18691 -2.05364 8
    endloop
  endfacet
  facet normal 0 0 1
    outer loop
      vertex -3.49905 -3.28583 8
      vertex -2.18691 -2.05364 8
      vertex -2.42705 -1.76336 8
    endloop
  endfacet
  facet normal 0 0 1
    outer loop
      vertex -1.60748 -2.53298 8
      vertex -2.57197 -4.05277 8
      vertex -2.04374 -4.34317 8
    endloop
  endfacet
  facet normal 0 0 1
    outer loop
      vertex -3.88328 -2.82137 8
      vertex -2.42705 -1.76336 8
      vertex -2.62892 -1.44526 8
    endloop
  endfacet
  facet normal 0 0 1
    outer loop
      vertex -4.20627 -2.31242 8
      vertex -2.62892 -1.44526 8
      vertex -2.78933 -1.10437 8
    endloop
  endfacet
  facet normal 0 0 1
    outer loop
      vertex -4.46293 -1.767 8
      vertex -2.78933 -1.10437 8
      vertex -2.90575 -0.746069 8
    endloop
  endfacet
  facet normal 0 0 1
    outer loop
      vertex -4.6492 -1.19371 8
      vertex -2.90575 -0.746069 8
      vertex -2.97634 -0.375999 8
    endloop
  endfacet
  facet normal 0 0 1
    outer loop
      vertex -1.91227 -2.31154 8
      vertex -3.05963 -3.69846 8
      vertex -2.57197 -4.05277 8
    endloop
  endfacet
  facet normal 0 0 1
    outer loop
      vertex -4.76215 -0.601599 8
      vertex -2.97634 -0.375999 8
      vertex -3 0 8
    endloop
  endfacet
  facet normal -0 0 1
    outer loop
      vertex -4.46293 1.767 8
      vertex -2.78933 1.10437 8
      vertex -4.20627 2.31242 8
    endloop
  endfacet
  facet normal 0 0 1
    outer loop
      vertex -2.78933 1.10437 8
      vertex -4.46293 1.767 8
      vertex -2.90575 0.746069 8
    endloop
  endfacet
  facet normal 0 0 1
    outer loop
      vertex -2.18691 -2.05364 8
      vertex -3.49905 -3.28583 8
      vertex -3.05963 -3.69846 8
    endloop
  endfacet
  facet normal -0 0 1
    outer loop
      vertex -4.6492 1.19371 8
      vertex -2.90575 0.746069 8
      vertex -4.46293 1.767 8
    endloop
  endfacet
  facet normal 0 0 1
    outer loop
      vertex -2.42705 -1.76336 8
      vertex -3.88328 -2.82137 8
      vertex -3.49905 -3.28583 8
    endloop
  endfacet
  facet normal 0 0 1
    outer loop
      vertex -2.90575 0.746069 8
      vertex -4.6492 1.19371 8
      vertex -2.97634 0.375999 8
    endloop
  endfacet
  facet normal 0 0 1
    outer loop
      vertex -2.62892 -1.44526 8
      vertex -4.20627 -2.31242 8
      vertex -3.88328 -2.82137 8
    endloop
  endfacet
  facet normal -0 0 1
    outer loop
      vertex -4.76215 0.601599 8
      vertex -2.97634 0.375999 8
      vertex -4.6492 1.19371 8
    endloop
  endfacet
  facet normal 0 0 1
    outer loop
      vertex -2.78933 -1.10437 8
      vertex -4.46293 -1.767 8
      vertex -4.20627 -2.31242 8
    endloop
  endfacet
  facet normal 0 0 1
    outer loop
      vertex -2.97634 0.375999 8
      vertex -4.76215 0.601599 8
      vertex -3 0 8
    endloop
  endfacet
  facet normal 0 0 1
    outer loop
      vertex -2.90575 -0.746069 8
      vertex -4.6492 -1.19371 8
      vertex -4.46293 -1.767 8
    endloop
  endfacet
  facet normal 0 0 1
    outer loop
      vertex -4.8 0 8
      vertex -3 0 8
      vertex -4.76215 0.601599 8
    endloop
  endfacet
  facet normal 0 0 1
    outer loop
      vertex -2.97634 -0.375999 8
      vertex -4.76215 -0.601599 8
      vertex -4.6492 -1.19371 8
    endloop
  endfacet
  facet normal 0 0 1
    outer loop
      vertex -3 0 8
      vertex -4.8 0 8
      vertex -4.76215 -0.601599 8
    endloop
  endfacet
  facet normal -0.98229 -0.187369 0
    outer loop
      vertex 2.97634 0.375999 0
      vertex 2.90575 0.746069 8
      vertex 2.90575 0.746069 0
    endloop
  endfacet
  facet normal -0.98229 -0.187369 0
    outer loop
      vertex 2.90575 0.746069 8
      vertex 2.97634 0.375999 0
      vertex 2.97634 0.375999 8
    endloop
  endfacet
  facet normal -0.998026 -0.0628015 0
    outer loop
      vertex 3 0 0
      vertex 2.97634 0.375999 8
      vertex 2.97634 0.375999 0
    endloop
  endfacet
  facet normal -0.998026 -0.0628015 0
    outer loop
      vertex 2.97634 0.375999 8
      vertex 3 0 0
      vertex 3 0 8
    endloop
  endfacet
  facet normal 0.770514 -0.637423 0
    outer loop
      vertex -2.42705 1.76336 8
      vertex -2.18691 2.05364 0
      vertex -2.18691 2.05364 8
    endloop
  endfacet
  facet normal 0.770514 -0.637423 0
    outer loop
      vertex -2.18691 2.05364 0
      vertex -2.42705 1.76336 8
      vertex -2.42705 1.76336 0
    endloop
  endfacet
  facet normal -0.684541 -0.728974 0
    outer loop
      vertex 1.91227 2.31154 0
      vertex 2.18691 2.05364 8
      vertex 1.91227 2.31154 8
    endloop
  endfacet
  facet normal -0.684541 -0.728974 -0
    outer loop
      vertex 2.18691 2.05364 8
      vertex 1.91227 2.31154 0
      vertex 2.18691 2.05364 0
    endloop
  endfacet
  facet normal 0.125337 0.992114 -0
    outer loop
      vertex -0.188371 -2.99408 0
      vertex -0.562143 -2.94686 8
      vertex -0.188371 -2.99408 8
    endloop
  endfacet
  facet normal 0.125337 0.992114 0
    outer loop
      vertex -0.562143 -2.94686 8
      vertex -0.188371 -2.99408 0
      vertex -0.562143 -2.94686 0
    endloop
  endfacet
  facet normal 0.58778 0.809021 -0
    outer loop
      vertex -1.60748 -2.53298 0
      vertex -1.91227 -2.31154 8
      vertex -1.60748 -2.53298 8
    endloop
  endfacet
  facet normal 0.58778 0.809021 0
    outer loop
      vertex -1.91227 -2.31154 8
      vertex -1.60748 -2.53298 0
      vertex -1.91227 -2.31154 0
    endloop
  endfacet
  facet normal -0.368126 0.929776 0
    outer loop
      vertex 1.27734 -2.71448 0
      vertex 0.927051 -2.85317 8
      vertex 1.27734 -2.71448 8
    endloop
  endfacet
  facet normal -0.368126 0.929776 0
    outer loop
      vertex 0.927051 -2.85317 8
      vertex 1.27734 -2.71448 0
      vertex 0.927051 -2.85317 0
    endloop
  endfacet
  facet normal -0.904828 0.425778 0
    outer loop
      vertex 2.62892 -1.44526 0
      vertex 2.78933 -1.10437 8
      vertex 2.78933 -1.10437 0
    endloop
  endfacet
  facet normal -0.904828 0.425778 0
    outer loop
      vertex 2.78933 -1.10437 8
      vertex 2.62892 -1.44526 0
      vertex 2.62892 -1.44526 8
    endloop
  endfacet
  facet normal -0.248684 -0.968585 0
    outer loop
      vertex 0.562143 2.94686 0
      vertex 0.927051 2.85317 8
      vertex 0.562143 2.94686 8
    endloop
  endfacet
  facet normal -0.248684 -0.968585 -0
    outer loop
      vertex 0.927051 2.85317 8
      vertex 0.562143 2.94686 0
      vertex 0.927051 2.85317 0
    endloop
  endfacet
  facet normal -0.58778 0.809021 0
    outer loop
      vertex 1.91227 -2.31154 0
      vertex 1.60748 -2.53298 8
      vertex 1.91227 -2.31154 8
    endloop
  endfacet
  facet normal -0.58778 0.809021 0
    outer loop
      vertex 1.60748 -2.53298 8
      vertex 1.91227 -2.31154 0
      vertex 1.60748 -2.53298 0
    endloop
  endfacet
  facet normal 0.98229 -0.187369 0
    outer loop
      vertex -2.97634 0.375999 8
      vertex -2.90575 0.746069 0
      vertex -2.90575 0.746069 8
    endloop
  endfacet
  facet normal 0.98229 -0.187369 0
    outer loop
      vertex -2.90575 0.746069 0
      vertex -2.97634 0.375999 8
      vertex -2.97634 0.375999 0
    endloop
  endfacet
  facet normal 0.684541 0.728974 -0
    outer loop
      vertex -1.91227 -2.31154 0
      vertex -2.18691 -2.05364 8
      vertex -1.91227 -2.31154 8
    endloop
  endfacet
  facet normal 0.684541 0.728974 0
    outer loop
      vertex -2.18691 -2.05364 8
      vertex -1.91227 -2.31154 0
      vertex -2.18691 -2.05364 0
    endloop
  endfacet
  facet normal -0.481762 -0.876302 0
    outer loop
      vertex 1.27734 2.71448 0
      vertex 1.60748 2.53298 8
      vertex 1.27734 2.71448 8
    endloop
  endfacet
  facet normal -0.481762 -0.876302 -0
    outer loop
      vertex 1.60748 2.53298 8
      vertex 1.27734 2.71448 0
      vertex 1.60748 2.53298 0
    endloop
  endfacet
  facet normal 0.481762 -0.876302 0
    outer loop
      vertex -1.60748 2.53298 0
      vertex -1.27734 2.71448 8
      vertex -1.60748 2.53298 8
    endloop
  endfacet
  facet normal 0.481762 -0.876302 0
    outer loop
      vertex -1.27734 2.71448 8
      vertex -1.60748 2.53298 0
      vertex -1.27734 2.71448 0
    endloop
  endfacet
  facet normal -0.904828 -0.425778 0
    outer loop
      vertex 2.78933 1.10437 0
      vertex 2.62892 1.44526 8
      vertex 2.62892 1.44526 0
    endloop
  endfacet
  facet normal -0.904828 -0.425778 0
    outer loop
      vertex 2.62892 1.44526 8
      vertex 2.78933 1.10437 0
      vertex 2.78933 1.10437 8
    endloop
  endfacet
  facet normal -0.998026 0.0628015 0
    outer loop
      vertex 2.97634 -0.375999 0
      vertex 3 0 8
      vertex 3 0 0
    endloop
  endfacet
  facet normal -0.998026 0.0628015 0
    outer loop
      vertex 3 0 8
      vertex 2.97634 -0.375999 0
      vertex 2.97634 -0.375999 8
    endloop
  endfacet
  facet normal 0.998026 -0.0628015 0
    outer loop
      vertex -3 0 8
      vertex -2.97634 0.375999 0
      vertex -2.97634 0.375999 8
    endloop
  endfacet
  facet normal 0.998026 -0.0628015 0
    outer loop
      vertex -2.97634 0.375999 0
      vertex -3 0 8
      vertex -3 0 0
    endloop
  endfacet
  facet normal -0.125337 0.992114 0
    outer loop
      vertex 0.562143 -2.94686 0
      vertex 0.188371 -2.99408 8
      vertex 0.562143 -2.94686 8
    endloop
  endfacet
  facet normal -0.125337 0.992114 0
    outer loop
      vertex 0.188371 -2.99408 8
      vertex 0.562143 -2.94686 0
      vertex 0.188371 -2.99408 0
    endloop
  endfacet
  facet normal 0.951056 -0.309019 0
    outer loop
      vertex -2.90575 0.746069 8
      vertex -2.78933 1.10437 0
      vertex -2.78933 1.10437 8
    endloop
  endfacet
  facet normal 0.951056 -0.309019 0
    outer loop
      vertex -2.78933 1.10437 0
      vertex -2.90575 0.746069 8
      vertex -2.90575 0.746069 0
    endloop
  endfacet
  facet normal -0.844331 -0.535822 0
    outer loop
      vertex 2.62892 1.44526 0
      vertex 2.42705 1.76336 8
      vertex 2.42705 1.76336 0
    endloop
  endfacet
  facet normal -0.844331 -0.535822 0
    outer loop
      vertex 2.42705 1.76336 8
      vertex 2.62892 1.44526 0
      vertex 2.62892 1.44526 8
    endloop
  endfacet
  facet normal -0.951056 0.309019 0
    outer loop
      vertex 2.78933 -1.10437 0
      vertex 2.90575 -0.746069 8
      vertex 2.90575 -0.746069 0
    endloop
  endfacet
  facet normal -0.951056 0.309019 0
    outer loop
      vertex 2.90575 -0.746069 8
      vertex 2.78933 -1.10437 0
      vertex 2.78933 -1.10437 8
    endloop
  endfacet
  facet normal 0.684541 -0.728974 0
    outer loop
      vertex -2.18691 2.05364 0
      vertex -1.91227 2.31154 8
      vertex -2.18691 2.05364 8
    endloop
  endfacet
  facet normal 0.684541 -0.728974 0
    outer loop
      vertex -1.91227 2.31154 8
      vertex -2.18691 2.05364 0
      vertex -1.91227 2.31154 0
    endloop
  endfacet
  facet normal 0.248684 0.968585 -0
    outer loop
      vertex -0.562143 -2.94686 0
      vertex -0.927051 -2.85317 8
      vertex -0.562143 -2.94686 8
    endloop
  endfacet
  facet normal 0.248684 0.968585 0
    outer loop
      vertex -0.927051 -2.85317 8
      vertex -0.562143 -2.94686 0
      vertex -0.927051 -2.85317 0
    endloop
  endfacet
  facet normal -0.248684 0.968585 0
    outer loop
      vertex 0.927051 -2.85317 0
      vertex 0.562143 -2.94686 8
      vertex 0.927051 -2.85317 8
    endloop
  endfacet
  facet normal -0.248684 0.968585 0
    outer loop
      vertex 0.562143 -2.94686 8
      vertex 0.927051 -2.85317 0
      vertex 0.562143 -2.94686 0
    endloop
  endfacet
  facet normal -0.125337 -0.992114 0
    outer loop
      vertex 0.188371 2.99408 0
      vertex 0.562143 2.94686 8
      vertex 0.188371 2.99408 8
    endloop
  endfacet
  facet normal -0.125337 -0.992114 -0
    outer loop
      vertex 0.562143 2.94686 8
      vertex 0.188371 2.99408 0
      vertex 0.562143 2.94686 0
    endloop
  endfacet
  facet normal -0.98229 0.187369 0
    outer loop
      vertex 2.90575 -0.746069 0
      vertex 2.97634 -0.375999 8
      vertex 2.97634 -0.375999 0
    endloop
  endfacet
  facet normal -0.98229 0.187369 0
    outer loop
      vertex 2.97634 -0.375999 8
      vertex 2.90575 -0.746069 0
      vertex 2.90575 -0.746069 8
    endloop
  endfacet
  facet normal 0.98229 0.187369 0
    outer loop
      vertex -2.90575 -0.746069 8
      vertex -2.97634 -0.375999 0
      vertex -2.97634 -0.375999 8
    endloop
  endfacet
  facet normal 0.98229 0.187369 0
    outer loop
      vertex -2.97634 -0.375999 0
      vertex -2.90575 -0.746069 8
      vertex -2.90575 -0.746069 0
    endloop
  endfacet
  facet normal 0 1 -0
    outer loop
      vertex 0.188371 -2.99408 0
      vertex -0.188371 -2.99408 8
      vertex 0.188371 -2.99408 8
    endloop
  endfacet
  facet normal 0 1 0
    outer loop
      vertex -0.188371 -2.99408 8
      vertex 0.188371 -2.99408 0
      vertex -0.188371 -2.99408 0
    endloop
  endfacet
  facet normal -0.58778 -0.809021 0
    outer loop
      vertex 1.60748 2.53298 0
      vertex 1.91227 2.31154 8
      vertex 1.60748 2.53298 8
    endloop
  endfacet
  facet normal -0.58778 -0.809021 -0
    outer loop
      vertex 1.91227 2.31154 8
      vertex 1.60748 2.53298 0
      vertex 1.91227 2.31154 0
    endloop
  endfacet
  facet normal -0.481762 0.876302 0
    outer loop
      vertex 1.60748 -2.53298 0
      vertex 1.27734 -2.71448 8
      vertex 1.60748 -2.53298 8
    endloop
  endfacet
  facet normal -0.481762 0.876302 0
    outer loop
      vertex 1.27734 -2.71448 8
      vertex 1.60748 -2.53298 0
      vertex 1.27734 -2.71448 0
    endloop
  endfacet
  facet normal 0.368126 -0.929776 0
    outer loop
      vertex -1.27734 2.71448 0
      vertex -0.927051 2.85317 8
      vertex -1.27734 2.71448 8
    endloop
  endfacet
  facet normal 0.368126 -0.929776 0
    outer loop
      vertex -0.927051 2.85317 8
      vertex -1.27734 2.71448 0
      vertex -0.927051 2.85317 0
    endloop
  endfacet
  facet normal 0.904828 -0.425778 0
    outer loop
      vertex -2.78933 1.10437 8
      vertex -2.62892 1.44526 0
      vertex -2.62892 1.44526 8
    endloop
  endfacet
  facet normal 0.904828 -0.425778 0
    outer loop
      vertex -2.62892 1.44526 0
      vertex -2.78933 1.10437 8
      vertex -2.78933 1.10437 0
    endloop
  endfacet
  facet normal -0.684541 0.728974 0
    outer loop
      vertex 2.18691 -2.05364 0
      vertex 1.91227 -2.31154 8
      vertex 2.18691 -2.05364 8
    endloop
  endfacet
  facet normal -0.684541 0.728974 0
    outer loop
      vertex 1.91227 -2.31154 8
      vertex 2.18691 -2.05364 0
      vertex 1.91227 -2.31154 0
    endloop
  endfacet
  facet normal 0.58778 -0.809021 0
    outer loop
      vertex -1.91227 2.31154 0
      vertex -1.60748 2.53298 8
      vertex -1.91227 2.31154 8
    endloop
  endfacet
  facet normal 0.58778 -0.809021 0
    outer loop
      vertex -1.60748 2.53298 8
      vertex -1.91227 2.31154 0
      vertex -1.60748 2.53298 0
    endloop
  endfacet
  facet normal -0.368126 -0.929776 0
    outer loop
      vertex 0.927051 2.85317 0
      vertex 1.27734 2.71448 8
      vertex 0.927051 2.85317 8
    endloop
  endfacet
  facet normal -0.368126 -0.929776 -0
    outer loop
      vertex 1.27734 2.71448 8
      vertex 0.927051 2.85317 0
      vertex 1.27734 2.71448 0
    endloop
  endfacet
  facet normal 0.904828 0.425778 0
    outer loop
      vertex -2.62892 -1.44526 8
      vertex -2.78933 -1.10437 0
      vertex -2.78933 -1.10437 8
    endloop
  endfacet
  facet normal 0.904828 0.425778 0
    outer loop
      vertex -2.78933 -1.10437 0
      vertex -2.62892 -1.44526 8
      vertex -2.62892 -1.44526 0
    endloop
  endfacet
  facet normal 0.770514 0.637423 0
    outer loop
      vertex -2.18691 -2.05364 8
      vertex -2.42705 -1.76336 0
      vertex -2.42705 -1.76336 8
    endloop
  endfacet
  facet normal 0.770514 0.637423 0
    outer loop
      vertex -2.42705 -1.76336 0
      vertex -2.18691 -2.05364 8
      vertex -2.18691 -2.05364 0
    endloop
  endfacet
  facet normal -0.844331 0.535822 0
    outer loop
      vertex 2.42705 -1.76336 0
      vertex 2.62892 -1.44526 8
      vertex 2.62892 -1.44526 0
    endloop
  endfacet
  facet normal -0.844331 0.535822 0
    outer loop
      vertex 2.62892 -1.44526 8
      vertex 2.42705 -1.76336 0
      vertex 2.42705 -1.76336 8
    endloop
  endfacet
  facet normal -0.770514 -0.637423 0
    outer loop
      vertex 2.42705 1.76336 0
      vertex 2.18691 2.05364 8
      vertex 2.18691 2.05364 0
    endloop
  endfacet
  facet normal -0.770514 -0.637423 0
    outer loop
      vertex 2.18691 2.05364 8
      vertex 2.42705 1.76336 0
      vertex 2.42705 1.76336 8
    endloop
  endfacet
  facet normal -0.951056 -0.309019 0
    outer loop
      vertex 2.90575 0.746069 0
      vertex 2.78933 1.10437 8
      vertex 2.78933 1.10437 0
    endloop
  endfacet
  facet normal -0.951056 -0.309019 0
    outer loop
      vertex 2.78933 1.10437 8
      vertex 2.90575 0.746069 0
      vertex 2.90575 0.746069 8
    endloop
  endfacet
  facet normal 0.248684 -0.968585 0
    outer loop
      vertex -0.927051 2.85317 0
      vertex -0.562143 2.94686 8
      vertex -0.927051 2.85317 8
    endloop
  endfacet
  facet normal 0.248684 -0.968585 0
    outer loop
      vertex -0.562143 2.94686 8
      vertex -0.927051 2.85317 0
      vertex -0.562143 2.94686 0
    endloop
  endfacet
  facet normal 0.844331 0.535822 0
    outer loop
      vertex -2.42705 -1.76336 8
      vertex -2.62892 -1.44526 0
      vertex -2.62892 -1.44526 8
    endloop
  endfacet
  facet normal 0.844331 0.535822 0
    outer loop
      vertex -2.62892 -1.44526 0
      vertex -2.42705 -1.76336 8
      vertex -2.42705 -1.76336 0
    endloop
  endfacet
  facet normal 0.368126 0.929776 -0
    outer loop
      vertex -0.927051 -2.85317 0
      vertex -1.27734 -2.71448 8
      vertex -0.927051 -2.85317 8
    endloop
  endfacet
  facet normal 0.368126 0.929776 0
    outer loop
      vertex -1.27734 -2.71448 8
      vertex -0.927051 -2.85317 0
      vertex -1.27734 -2.71448 0
    endloop
  endfacet
  facet normal 0 -1 0
    outer loop
      vertex -0.188371 2.99408 0
      vertex 0.188371 2.99408 8
      vertex -0.188371 2.99408 8
    endloop
  endfacet
  facet normal 0 -1 -0
    outer loop
      vertex 0.188371 2.99408 8
      vertex -0.188371 2.99408 0
      vertex 0.188371 2.99408 0
    endloop
  endfacet
  facet normal 0.998026 0.0628015 0
    outer loop
      vertex -2.97634 -0.375999 8
      vertex -3 0 0
      vertex -3 0 8
    endloop
  endfacet
  facet normal 0.998026 0.0628015 0
    outer loop
      vertex -3 0 0
      vertex -2.97634 -0.375999 8
      vertex -2.97634 -0.375999 0
    endloop
  endfacet
  facet normal 0.125337 -0.992114 0
    outer loop
      vertex -0.562143 2.94686 0
      vertex -0.188371 2.99408 8
      vertex -0.562143 2.94686 8
    endloop
  endfacet
  facet normal 0.125337 -0.992114 0
    outer loop
      vertex -0.188371 2.99408 8
      vertex -0.562143 2.94686 0
      vertex -0.188371 2.99408 0
    endloop
  endfacet
  facet normal 0.481762 0.876302 -0
    outer loop
      vertex -1.27734 -2.71448 0
      vertex -1.60748 -2.53298 8
      vertex -1.27734 -2.71448 8
    endloop
  endfacet
  facet normal 0.481762 0.876302 0
    outer loop
      vertex -1.60748 -2.53298 8
      vertex -1.27734 -2.71448 0
      vertex -1.60748 -2.53298 0
    endloop
  endfacet
  facet normal 0.844331 -0.535822 0
    outer loop
      vertex -2.62892 1.44526 8
      vertex -2.42705 1.76336 0
      vertex -2.42705 1.76336 8
    endloop
  endfacet
  facet normal 0.844331 -0.535822 0
    outer loop
      vertex -2.42705 1.76336 0
      vertex -2.62892 1.44526 8
      vertex -2.62892 1.44526 0
    endloop
  endfacet
  facet normal 0.951056 0.309019 0
    outer loop
      vertex -2.78933 -1.10437 8
      vertex -2.90575 -0.746069 0
      vertex -2.90575 -0.746069 8
    endloop
  endfacet
  facet normal 0.951056 0.309019 0
    outer loop
      vertex -2.90575 -0.746069 0
      vertex -2.78933 -1.10437 8
      vertex -2.78933 -1.10437 0
    endloop
  endfacet
  facet normal -0.770514 0.637423 0
    outer loop
      vertex 2.18691 -2.05364 0
      vertex 2.42705 -1.76336 8
      vertex 2.42705 -1.76336 0
    endloop
  endfacet
  facet normal -0.770514 0.637423 0
    outer loop
      vertex 2.42705 -1.76336 8
      vertex 2.18691 -2.05364 0
      vertex 2.18691 -2.05364 8
    endloop
  endfacet
endsolid OpenSCAD_Model
