solid OpenSCAD_Model
  facet normal 0.165316 0.724325 -0.669346
    outer loop
      vertex 58.4772 36.2984 -1.84776
      vertex 57.5888 37.5014 -0.765367
      vertex 59.1521 37.1446 -0.765367
    endloop
  endfacet
  facet normal -0.463213 -0.580851 0.669362
    outer loop
      vertex -0.17031 -0.746177 6.34776
      vertex -0.689571 -0.33208 6.34776
      vertex -0.411164 -1.80143 5.26537
    endloop
  endfacet
  facet normal 0 0.716043 0.698056
    outer loop
      vertex 57.5888 37.5014 5.26537
      vertex -0.17031 36.4462 6.34776
      vertex 57.8297 36.4462 6.34776
    endloop
  endfacet
  facet normal 0 0.716043 0.698056
    outer loop
      vertex -0.17031 36.4462 6.34776
      vertex 57.5888 37.5014 5.26537
      vertex -0.411164 37.5014 5.26537
    endloop
  endfacet
  facet normal 0.165316 0.724324 0.669347
    outer loop
      vertex 59.1521 37.1446 5.26537
      vertex 57.5888 37.5014 5.26537
      vertex 58.4772 36.2984 6.34776
    endloop
  endfacet
  facet normal -1 0 0
    outer loop
      vertex -1.66477 -0.801712 -0.765367
      vertex -1.66477 36.5017 5.26537
      vertex -1.66477 36.5017 -0.765367
    endloop
  endfacet
  facet normal -1 -0 0
    outer loop
      vertex -1.66477 36.5017 5.26537
      vertex -1.66477 -0.801712 -0.765367
      vertex -1.66477 -0.801712 5.26537
    endloop
  endfacet
  facet normal 0.165337 0.72433 -0.669335
    outer loop
      vertex 57.8297 36.4462 -1.84776
      vertex 57.5888 37.5014 -0.765367
      vertex 58.4772 36.2984 -1.84776
    endloop
  endfacet
  facet normal 0.222513 0.97493 -0
    outer loop
      vertex 59.1521 37.1446 -0.765367
      vertex 57.5888 37.5014 5.26537
      vertex 59.1521 37.1446 5.26537
    endloop
  endfacet
  facet normal 0.222513 0.97493 0
    outer loop
      vertex 57.5888 37.5014 5.26537
      vertex 59.1521 37.1446 -0.765367
      vertex 57.5888 37.5014 -0.765367
    endloop
  endfacet
  facet normal 0.669359 0.322354 -0.669363
    outer loop
      vertex 59.8478 35.7 -0.765367
      vertex 58.7654 35.7 -1.84776
      vertex 59.1521 37.1446 -0.765367
    endloop
  endfacet
  facet normal 0 -0.716027 -0.698073
    outer loop
      vertex -0.17031 -0.746177 -1.84776
      vertex 57.5888 -1.80143 -0.765367
      vertex -0.411164 -1.80143 -0.765367
    endloop
  endfacet
  facet normal 0 -0.716027 -0.698073
    outer loop
      vertex 57.5888 -1.80143 -0.765367
      vertex -0.17031 -0.746177 -1.84776
      vertex 57.8297 -0.746177 -1.84776
    endloop
  endfacet
  facet normal 0 -1 0
    outer loop
      vertex -0.411164 -1.80143 -0.765367
      vertex 57.5888 -1.80143 5.26537
      vertex -0.411164 -1.80143 5.26537
    endloop
  endfacet
  facet normal 0 -1 -0
    outer loop
      vertex 57.5888 -1.80143 5.26537
      vertex -0.411164 -1.80143 -0.765367
      vertex 57.5888 -1.80143 -0.765367
    endloop
  endfacet
  facet normal -0.742937 0 -0.669361
    outer loop
      vertex -0.689571 -0.33208 -1.84776
      vertex -1.66477 36.5017 -0.765367
      vertex -0.689571 36.0321 -1.84776
    endloop
  endfacet
  facet normal -0.742937 -0 -0.669361
    outer loop
      vertex -1.66477 36.5017 -0.765367
      vertex -0.689571 -0.33208 -1.84776
      vertex -1.66477 -0.801712 -0.765367
    endloop
  endfacet
  facet normal 0 1 -0
    outer loop
      vertex 57.5888 37.5014 -0.765367
      vertex -0.411164 37.5014 5.26537
      vertex 57.5888 37.5014 5.26537
    endloop
  endfacet
  facet normal 0 1 0
    outer loop
      vertex -0.411164 37.5014 5.26537
      vertex 57.5888 37.5014 -0.765367
      vertex -0.411164 37.5014 -0.765367
    endloop
  endfacet
  facet normal 0.669342 0.322367 -0.669374
    outer loop
      vertex 58.7654 35.7 -1.84776
      vertex 58.4772 36.2984 -1.84776
      vertex 59.1521 37.1446 -0.765367
    endloop
  endfacet
  facet normal -0.463225 0.580861 -0.669345
    outer loop
      vertex -0.17031 36.4462 -1.84776
      vertex -0.689571 36.0321 -1.84776
      vertex -0.411164 37.5014 -0.765367
    endloop
  endfacet
  facet normal 0 0 -1
    outer loop
      vertex 57.8297 -0.746177 -1.84776
      vertex 58.7654 0 -1.84776
      vertex 58.4772 -0.598388 -1.84776
    endloop
  endfacet
  facet normal -0 0 -1
    outer loop
      vertex 58.7654 0 -1.84776
      vertex 57.8297 -0.746177 -1.84776
      vertex 58.7654 35.7 -1.84776
    endloop
  endfacet
  facet normal 0 0 -1
    outer loop
      vertex 57.8297 36.4462 -1.84776
      vertex 58.7654 35.7 -1.84776
      vertex 57.8297 -0.746177 -1.84776
    endloop
  endfacet
  facet normal 0 0 -1
    outer loop
      vertex 58.7654 35.7 -1.84776
      vertex 57.8297 36.4462 -1.84776
      vertex 58.4772 36.2984 -1.84776
    endloop
  endfacet
  facet normal 0 0 -1
    outer loop
      vertex -0.17031 -0.746177 -1.84776
      vertex 57.8297 36.4462 -1.84776
      vertex 57.8297 -0.746177 -1.84776
    endloop
  endfacet
  facet normal 0 0 -1
    outer loop
      vertex -0.17031 -0.746177 -1.84776
      vertex -0.17031 36.4462 -1.84776
      vertex 57.8297 36.4462 -1.84776
    endloop
  endfacet
  facet normal 0 0 -1
    outer loop
      vertex -0.689571 -0.33208 -1.84776
      vertex -0.17031 36.4462 -1.84776
      vertex -0.17031 -0.746177 -1.84776
    endloop
  endfacet
  facet normal 0 0 -1
    outer loop
      vertex -0.17031 36.4462 -1.84776
      vertex -0.689571 -0.33208 -1.84776
      vertex -0.689571 36.0321 -1.84776
    endloop
  endfacet
  facet normal 0.900969 -0.433883 0
    outer loop
      vertex 59.1521 -1.44464 5.26537
      vertex 59.8478 0 -0.765367
      vertex 59.8478 0 5.26537
    endloop
  endfacet
  facet normal 0.900969 -0.433883 0
    outer loop
      vertex 59.8478 0 -0.765367
      vertex 59.1521 -1.44464 5.26537
      vertex 59.1521 -1.44464 -0.765367
    endloop
  endfacet
  facet normal 0.669341 0.322366 0.669375
    outer loop
      vertex 59.1521 37.1446 5.26537
      vertex 58.4772 36.2984 6.34776
      vertex 58.7654 35.7 6.34776
    endloop
  endfacet
  facet normal 1 -0 0
    outer loop
      vertex 59.8478 0 5.26537
      vertex 59.8478 35.7 -0.765367
      vertex 59.8478 35.7 5.26537
    endloop
  endfacet
  facet normal 1 0 0
    outer loop
      vertex 59.8478 35.7 -0.765367
      vertex 59.8478 0 5.26537
      vertex 59.8478 0 -0.765367
    endloop
  endfacet
  facet normal 0.66936 -0.322346 0.669366
    outer loop
      vertex 59.8478 0 5.26537
      vertex 58.7654 0 6.34776
      vertex 59.1521 -1.44464 5.26537
    endloop
  endfacet
  facet normal 0.165308 -0.72431 -0.669364
    outer loop
      vertex 59.1521 -1.44464 -0.765367
      vertex 57.5888 -1.80143 -0.765367
      vertex 58.4772 -0.598388 -1.84776
    endloop
  endfacet
  facet normal 0.165321 -0.724313 -0.669357
    outer loop
      vertex 58.4772 -0.598388 -1.84776
      vertex 57.5888 -1.80143 -0.765367
      vertex 57.8297 -0.746177 -1.84776
    endloop
  endfacet
  facet normal -0.463215 0.580863 -0.66935
    outer loop
      vertex -0.689571 36.0321 -1.84776
      vertex -1.66477 36.5017 -0.765367
      vertex -0.411164 37.5014 -0.765367
    endloop
  endfacet
  facet normal -0.463213 -0.580851 0.669362
    outer loop
      vertex -0.689571 -0.33208 6.34776
      vertex -1.66477 -0.801712 5.26537
      vertex -0.411164 -1.80143 5.26537
    endloop
  endfacet
  facet normal -0.463214 0.580863 0.669351
    outer loop
      vertex -0.411164 37.5014 5.26537
      vertex -1.66477 36.5017 5.26537
      vertex -0.689571 36.0321 6.34776
    endloop
  endfacet
  facet normal -0.742936 0 0.669362
    outer loop
      vertex -1.66477 36.5017 5.26537
      vertex -0.689571 -0.33208 6.34776
      vertex -0.689571 36.0321 6.34776
    endloop
  endfacet
  facet normal -0.742936 0 0.669362
    outer loop
      vertex -0.689571 -0.33208 6.34776
      vertex -1.66477 36.5017 5.26537
      vertex -1.66477 -0.801712 5.26537
    endloop
  endfacet
  facet normal 0 0.716044 -0.698055
    outer loop
      vertex -0.17031 36.4462 -1.84776
      vertex 57.5888 37.5014 -0.765367
      vertex 57.8297 36.4462 -1.84776
    endloop
  endfacet
  facet normal 0 0.716044 -0.698055
    outer loop
      vertex 57.5888 37.5014 -0.765367
      vertex -0.17031 36.4462 -1.84776
      vertex -0.411164 37.5014 -0.765367
    endloop
  endfacet
  facet normal 0.165337 0.724329 0.669336
    outer loop
      vertex 58.4772 36.2984 6.34776
      vertex 57.5888 37.5014 5.26537
      vertex 57.8297 36.4462 6.34776
    endloop
  endfacet
  facet normal 0.707104 0 0.70711
    outer loop
      vertex 58.7654 35.7 6.34776
      vertex 59.8478 0 5.26537
      vertex 59.8478 35.7 5.26537
    endloop
  endfacet
  facet normal 0.707104 0 0.70711
    outer loop
      vertex 59.8478 0 5.26537
      vertex 58.7654 35.7 6.34776
      vertex 58.7654 0 6.34776
    endloop
  endfacet
  facet normal 0.165321 -0.724312 0.669358
    outer loop
      vertex 57.8297 -0.746177 6.34776
      vertex 57.5888 -1.80143 5.26537
      vertex 58.4772 -0.598388 6.34776
    endloop
  endfacet
  facet normal 0.900965 0.433893 0
    outer loop
      vertex 59.8478 35.7 5.26537
      vertex 59.1521 37.1446 -0.765367
      vertex 59.1521 37.1446 5.26537
    endloop
  endfacet
  facet normal 0.900965 0.433893 0
    outer loop
      vertex 59.1521 37.1446 -0.765367
      vertex 59.8478 35.7 5.26537
      vertex 59.8478 35.7 -0.765367
    endloop
  endfacet
  facet normal 0.165308 -0.724309 0.669365
    outer loop
      vertex 58.4772 -0.598388 6.34776
      vertex 57.5888 -1.80143 5.26537
      vertex 59.1521 -1.44464 5.26537
    endloop
  endfacet
  facet normal -0.463214 -0.580851 -0.669361
    outer loop
      vertex -0.411164 -1.80143 -0.765367
      vertex -0.689571 -0.33208 -1.84776
      vertex -0.17031 -0.746177 -1.84776
    endloop
  endfacet
  facet normal 0.707104 0 -0.707109
    outer loop
      vertex 58.7654 0 -1.84776
      vertex 59.8478 35.7 -0.765367
      vertex 59.8478 0 -0.765367
    endloop
  endfacet
  facet normal 0.707104 0 -0.707109
    outer loop
      vertex 59.8478 35.7 -0.765367
      vertex 58.7654 0 -1.84776
      vertex 58.7654 35.7 -1.84776
    endloop
  endfacet
  facet normal 0.669361 -0.322346 -0.669365
    outer loop
      vertex 59.1521 -1.44464 -0.765367
      vertex 58.7654 0 -1.84776
      vertex 59.8478 0 -0.765367
    endloop
  endfacet
  facet normal -0.623483 0.781837 0
    outer loop
      vertex -0.411164 37.5014 -0.765367
      vertex -1.66477 36.5017 5.26537
      vertex -0.411164 37.5014 5.26537
    endloop
  endfacet
  facet normal -0.623483 0.781837 0
    outer loop
      vertex -1.66477 36.5017 5.26537
      vertex -0.411164 37.5014 -0.765367
      vertex -1.66477 36.5017 -0.765367
    endloop
  endfacet
  facet normal 0.66933 -0.322368 0.669385
    outer loop
      vertex 58.7654 0 6.34776
      vertex 58.4772 -0.598388 6.34776
      vertex 59.1521 -1.44464 5.26537
    endloop
  endfacet
  facet normal -0.463224 0.580861 0.669346
    outer loop
      vertex -0.411164 37.5014 5.26537
      vertex -0.689571 36.0321 6.34776
      vertex -0.17031 36.4462 6.34776
    endloop
  endfacet
  facet normal 0 -0.716026 0.698074
    outer loop
      vertex 57.5888 -1.80143 5.26537
      vertex -0.17031 -0.746177 6.34776
      vertex -0.411164 -1.80143 5.26537
    endloop
  endfacet
  facet normal 0 -0.716026 0.698074
    outer loop
      vertex -0.17031 -0.746177 6.34776
      vertex 57.5888 -1.80143 5.26537
      vertex 57.8297 -0.746177 6.34776
    endloop
  endfacet
  facet normal 0.222507 -0.974931 0
    outer loop
      vertex 57.5888 -1.80143 -0.765367
      vertex 59.1521 -1.44464 5.26537
      vertex 57.5888 -1.80143 5.26537
    endloop
  endfacet
  facet normal 0.222507 -0.974931 0
    outer loop
      vertex 59.1521 -1.44464 5.26537
      vertex 57.5888 -1.80143 -0.765367
      vertex 59.1521 -1.44464 -0.765367
    endloop
  endfacet
  facet normal 0.669358 0.322354 0.669364
    outer loop
      vertex 59.1521 37.1446 5.26537
      vertex 58.7654 35.7 6.34776
      vertex 59.8478 35.7 5.26537
    endloop
  endfacet
  facet normal 0.669331 -0.322368 -0.669384
    outer loop
      vertex 59.1521 -1.44464 -0.765367
      vertex 58.4772 -0.598388 -1.84776
      vertex 58.7654 0 -1.84776
    endloop
  endfacet
  facet normal -0.463214 -0.580851 -0.669361
    outer loop
      vertex -0.411164 -1.80143 -0.765367
      vertex -1.66477 -0.801712 -0.765367
      vertex -0.689571 -0.33208 -1.84776
    endloop
  endfacet
  facet normal -0.62349 -0.781831 0
    outer loop
      vertex -1.66477 -0.801712 -0.765367
      vertex -0.411164 -1.80143 5.26537
      vertex -1.66477 -0.801712 5.26537
    endloop
  endfacet
  facet normal -0.62349 -0.781831 -0
    outer loop
      vertex -0.411164 -1.80143 5.26537
      vertex -1.66477 -0.801712 -0.765367
      vertex -0.411164 -1.80143 -0.765367
    endloop
  endfacet
  facet normal 0 0 1
    outer loop
      vertex 57.8297 36.4462 6.34776
      vertex 58.7654 35.7 6.34776
      vertex 58.4772 36.2984 6.34776
    endloop
  endfacet
  facet normal 0 0 1
    outer loop
      vertex 29.2678 9.76777 6.34776
      vertex 58.7654 35.7 6.34776
      vertex 57.8297 36.4462 6.34776
    endloop
  endfacet
  facet normal 0 0 1
    outer loop
      vertex 58.7654 35.7 6.34776
      vertex 29.2678 9.76777 6.34776
      vertex 58.7654 0 6.34776
    endloop
  endfacet
  facet normal 0 0 1
    outer loop
      vertex 58.7654 0 6.34776
      vertex 57.8297 -0.746177 6.34776
      vertex 58.4772 -0.598388 6.34776
    endloop
  endfacet
  facet normal -0 -0 1
    outer loop
      vertex 30 8 6.34776
      vertex 58.7654 0 6.34776
      vertex 29.2678 9.76777 6.34776
    endloop
  endfacet
  facet normal 0 0 1
    outer loop
      vertex 58.7654 0 6.34776
      vertex 30 8 6.34776
      vertex 57.8297 -0.746177 6.34776
    endloop
  endfacet
  facet normal 0 0 1
    outer loop
      vertex 57.8297 36.4462 6.34776
      vertex 22.2678 22.7678 6.34776
      vertex 29.2678 9.76777 6.34776
    endloop
  endfacet
  facet normal 0 0 1
    outer loop
      vertex 57.8297 36.4462 6.34776
      vertex 20.5 23.5 6.34776
      vertex 22.2678 22.7678 6.34776
    endloop
  endfacet
  facet normal 0 0 1
    outer loop
      vertex 18.7322 22.7678 6.34776
      vertex -0.689571 36.0321 6.34776
      vertex 9.73223 9.76777 6.34776
    endloop
  endfacet
  facet normal -0 0 1
    outer loop
      vertex -0.689571 36.0321 6.34776
      vertex 18.7322 22.7678 6.34776
      vertex -0.17031 36.4462 6.34776
    endloop
  endfacet
  facet normal 0 0 1
    outer loop
      vertex 20.5 23.5 6.34776
      vertex -0.17031 36.4462 6.34776
      vertex 18.7322 22.7678 6.34776
    endloop
  endfacet
  facet normal -0 0 1
    outer loop
      vertex -0.17031 36.4462 6.34776
      vertex 20.5 23.5 6.34776
      vertex 57.8297 36.4462 6.34776
    endloop
  endfacet
  facet normal -0 0 1
    outer loop
      vertex 29.2678 6.23223 6.34776
      vertex 57.8297 -0.746177 6.34776
      vertex 30 8 6.34776
    endloop
  endfacet
  facet normal -0 0 1
    outer loop
      vertex 25.2678 0.232232 6.34776
      vertex 57.8297 -0.746177 6.34776
      vertex 29.2678 6.23223 6.34776
    endloop
  endfacet
  facet normal -0 0 1
    outer loop
      vertex 23.5 -0.5 6.34776
      vertex 57.8297 -0.746177 6.34776
      vertex 25.2678 0.232232 6.34776
    endloop
  endfacet
  facet normal 0 0 1
    outer loop
      vertex 23.5 -0.5 6.34776
      vertex -0.17031 -0.746177 6.34776
      vertex 57.8297 -0.746177 6.34776
    endloop
  endfacet
  facet normal 0 0 1
    outer loop
      vertex 21.7322 0.232232 6.34776
      vertex -0.17031 -0.746177 6.34776
      vertex 23.5 -0.5 6.34776
    endloop
  endfacet
  facet normal 0 0 1
    outer loop
      vertex 9.73223 6.23223 6.34776
      vertex -0.17031 -0.746177 6.34776
      vertex 21.7322 0.232232 6.34776
    endloop
  endfacet
  facet normal 0 0 1
    outer loop
      vertex -0.689571 -0.33208 6.34776
      vertex 9.73223 6.23223 6.34776
      vertex 9 8 6.34776
    endloop
  endfacet
  facet normal 0 0 1
    outer loop
      vertex -0.689571 -0.33208 6.34776
      vertex 9.73223 9.76777 6.34776
      vertex -0.689571 36.0321 6.34776
    endloop
  endfacet
  facet normal 0 0 1
    outer loop
      vertex 9.73223 9.76777 6.34776
      vertex -0.689571 -0.33208 6.34776
      vertex 9 8 6.34776
    endloop
  endfacet
  facet normal 0 0 1
    outer loop
      vertex 9.73223 6.23223 6.34776
      vertex -0.689571 -0.33208 6.34776
      vertex -0.17031 -0.746177 6.34776
    endloop
  endfacet
  facet normal 0.923886 -0.382668 0
    outer loop
      vertex 29.2678 6.23223 10.5
      vertex 30 8 6.34776
      vertex 30 8 10.5
    endloop
  endfacet
  facet normal 0.923886 -0.382668 0
    outer loop
      vertex 30 8 6.34776
      vertex 29.2678 6.23223 10.5
      vertex 29.2678 6.23223 6.34776
    endloop
  endfacet
  facet normal -0.92388 -0.382682 0
    outer loop
      vertex 9.73223 6.23223 6.34776
      vertex 9 8 10.5
      vertex 9 8 6.34776
    endloop
  endfacet
  facet normal -0.92388 -0.382682 0
    outer loop
      vertex 9 8 10.5
      vertex 9.73223 6.23223 6.34776
      vertex 9.73223 6.23223 10.5
    endloop
  endfacet
  facet normal -0.822194 0.569208 0
    outer loop
      vertex 9.73223 9.76777 6.34776
      vertex 18.7322 22.7678 10.5
      vertex 18.7322 22.7678 6.34776
    endloop
  endfacet
  facet normal -0.822194 0.569208 0
    outer loop
      vertex 18.7322 22.7678 10.5
      vertex 9.73223 9.76777 6.34776
      vertex 9.73223 9.76777 10.5
    endloop
  endfacet
  facet normal -0.92388 0.382682 0
    outer loop
      vertex 9 8 6.34776
      vertex 9.73223 9.76777 10.5
      vertex 9.73223 9.76777 6.34776
    endloop
  endfacet
  facet normal -0.92388 0.382682 0
    outer loop
      vertex 9.73223 9.76777 10.5
      vertex 9 8 6.34776
      vertex 9 8 10.5
    endloop
  endfacet
  facet normal -0.382663 0.923888 0
    outer loop
      vertex 20.5 23.5 6.34776
      vertex 18.7322 22.7678 10.5
      vertex 20.5 23.5 10.5
    endloop
  endfacet
  facet normal -0.382663 0.923888 0
    outer loop
      vertex 18.7322 22.7678 10.5
      vertex 20.5 23.5 6.34776
      vertex 18.7322 22.7678 6.34776
    endloop
  endfacet
  facet normal 0.382663 0.923888 -0
    outer loop
      vertex 22.2678 22.7678 6.34776
      vertex 20.5 23.5 10.5
      vertex 22.2678 22.7678 10.5
    endloop
  endfacet
  facet normal 0.382663 0.923888 0
    outer loop
      vertex 20.5 23.5 10.5
      vertex 22.2678 22.7678 6.34776
      vertex 20.5 23.5 6.34776
    endloop
  endfacet
  facet normal 0.83205 -0.5547 0
    outer loop
      vertex 25.2678 0.232232 10.5
      vertex 29.2678 6.23223 6.34776
      vertex 29.2678 6.23223 10.5
    endloop
  endfacet
  facet normal 0.83205 -0.5547 0
    outer loop
      vertex 29.2678 6.23223 6.34776
      vertex 25.2678 0.232232 10.5
      vertex 25.2678 0.232232 6.34776
    endloop
  endfacet
  facet normal -0.447214 -0.894427 0
    outer loop
      vertex 9.73223 6.23223 6.34776
      vertex 21.7322 0.232232 10.5
      vertex 9.73223 6.23223 10.5
    endloop
  endfacet
  facet normal -0.447214 -0.894427 -0
    outer loop
      vertex 21.7322 0.232232 10.5
      vertex 9.73223 6.23223 6.34776
      vertex 21.7322 0.232232 6.34776
    endloop
  endfacet
  facet normal 0.880472 0.474099 0
    outer loop
      vertex 29.2678 9.76777 10.5
      vertex 22.2678 22.7678 6.34776
      vertex 22.2678 22.7678 10.5
    endloop
  endfacet
  facet normal 0.880472 0.474099 0
    outer loop
      vertex 22.2678 22.7678 6.34776
      vertex 29.2678 9.76777 10.5
      vertex 29.2678 9.76777 6.34776
    endloop
  endfacet
  facet normal 0.382677 -0.923882 0
    outer loop
      vertex 23.5 -0.5 6.34776
      vertex 25.2678 0.232232 10.5
      vertex 23.5 -0.5 10.5
    endloop
  endfacet
  facet normal 0.382677 -0.923882 0
    outer loop
      vertex 25.2678 0.232232 10.5
      vertex 23.5 -0.5 6.34776
      vertex 25.2678 0.232232 6.34776
    endloop
  endfacet
  facet normal 0 0 1
    outer loop
      vertex 29.2678 9.76777 10.5
      vertex 29.2678 6.23223 10.5
      vertex 30 8 10.5
    endloop
  endfacet
  facet normal 0 0 1
    outer loop
      vertex 21.7322 0.232232 10.5
      vertex 29.2678 6.23223 10.5
      vertex 29.2678 9.76777 10.5
    endloop
  endfacet
  facet normal 0 0 1
    outer loop
      vertex 29.2678 6.23223 10.5
      vertex 21.7322 0.232232 10.5
      vertex 25.2678 0.232232 10.5
    endloop
  endfacet
  facet normal -0 0 1
    outer loop
      vertex 18.7322 22.7678 10.5
      vertex 29.2678 9.76777 10.5
      vertex 22.2678 22.7678 10.5
    endloop
  endfacet
  facet normal 0 0 1
    outer loop
      vertex 25.2678 0.232232 10.5
      vertex 21.7322 0.232232 10.5
      vertex 23.5 -0.5 10.5
    endloop
  endfacet
  facet normal 0 0 1
    outer loop
      vertex 18.7322 22.7678 10.5
      vertex 22.2678 22.7678 10.5
      vertex 20.5 23.5 10.5
    endloop
  endfacet
  facet normal 0 0 1
    outer loop
      vertex 29.2678 9.76777 10.5
      vertex 18.7322 22.7678 10.5
      vertex 9.73223 9.76777 10.5
    endloop
  endfacet
  facet normal 0 0 1
    outer loop
      vertex 29.2678 9.76777 10.5
      vertex 9.73223 9.76777 10.5
      vertex 21.7322 0.232232 10.5
    endloop
  endfacet
  facet normal 0 0 1
    outer loop
      vertex 9.73223 9.76777 10.5
      vertex 9.73223 6.23223 10.5
      vertex 21.7322 0.232232 10.5
    endloop
  endfacet
  facet normal 0 -0 1
    outer loop
      vertex 9.73223 6.23223 10.5
      vertex 9.73223 9.76777 10.5
      vertex 9 8 10.5
    endloop
  endfacet
  facet normal -0.382677 -0.923882 0
    outer loop
      vertex 21.7322 0.232232 6.34776
      vertex 23.5 -0.5 10.5
      vertex 21.7322 0.232232 10.5
    endloop
  endfacet
  facet normal -0.382677 -0.923882 -0
    outer loop
      vertex 23.5 -0.5 10.5
      vertex 21.7322 0.232232 6.34776
      vertex 23.5 -0.5 6.34776
    endloop
  endfacet
  facet normal 0.923886 0.382668 0
    outer loop
      vertex 30 8 10.5
      vertex 29.2678 9.76777 6.34776
      vertex 29.2678 9.76777 10.5
    endloop
  endfacet
  facet normal 0.923886 0.382668 0
    outer loop
      vertex 29.2678 9.76777 6.34776
      vertex 30 8 10.5
      vertex 30 8 6.34776
    endloop
  endfacet
endsolid OpenSCAD_Model
