solid OpenSCAD_Model
  facet normal 0 -1 0
    outer loop
      vertex 5.75 -12.5 4.5
      vertex 6.75 -12.5 4.5
      vertex 5.75 -12.5 5
    endloop
  endfacet
  facet normal 0 -1 0
    outer loop
      vertex 5.75 -12.5 5
      vertex 6.75 -12.5 4.5
      vertex 7.25 -12.5 5
    endloop
  endfacet
  facet normal 0 -1 0
    outer loop
      vertex -6.75 -12.5 -3.5
      vertex 5.75 -12.5 -2.5
      vertex -5.75 -12.5 -2.5
    endloop
  endfacet
  facet normal 0 -1 -0
    outer loop
      vertex 7.25 -12.5 5
      vertex 6.75 -12.5 4.5
      vertex 7.25 -12.5 4.99901
    endloop
  endfacet
  facet normal 0 -1 0
    outer loop
      vertex -7.75 -12.5 4.5
      vertex -7.25 -12.5 4.99901
      vertex -7.74605 -12.5 4.56265
    endloop
  endfacet
  facet normal 0 -1 0
    outer loop
      vertex 7.34369 -12.5 4.99113
      vertex 7.28139 -12.5 4.99901
      vertex 7.25 -12.5 4.99901
    endloop
  endfacet
  facet normal 0 -1 0
    outer loop
      vertex 7.4045 -12.5 4.97552
      vertex 7.34369 -12.5 4.99113
      vertex 7.25 -12.5 4.99901
    endloop
  endfacet
  facet normal 0 -1 0
    outer loop
      vertex 7.46288 -12.5 4.95241
      vertex 7.4045 -12.5 4.97552
      vertex 7.25 -12.5 4.99901
    endloop
  endfacet
  facet normal 0 -1 0
    outer loop
      vertex 7.5179 -12.5 4.92215
      vertex 7.46288 -12.5 4.95241
      vertex 7.25 -12.5 4.99901
    endloop
  endfacet
  facet normal 0 -1 0
    outer loop
      vertex 7.56871 -12.5 4.88525
      vertex 7.5179 -12.5 4.92215
      vertex 7.25 -12.5 4.99901
    endloop
  endfacet
  facet normal 0 -1 0
    outer loop
      vertex 7.61447 -12.5 4.84227
      vertex 7.56871 -12.5 4.88525
      vertex 7.25 -12.5 4.99901
    endloop
  endfacet
  facet normal 0 -1 0
    outer loop
      vertex 7.6545 -12.5 4.79388
      vertex 7.61447 -12.5 4.84227
      vertex 7.25 -12.5 4.99901
    endloop
  endfacet
  facet normal 0 -1 0
    outer loop
      vertex 7.68814 -12.5 4.74088
      vertex 7.6545 -12.5 4.79388
      vertex 7.25 -12.5 4.99901
    endloop
  endfacet
  facet normal 0 -1 0
    outer loop
      vertex 7.71487 -12.5 4.68405
      vertex 7.68814 -12.5 4.74088
      vertex 7.25 -12.5 4.99901
    endloop
  endfacet
  facet normal 0 -1 0
    outer loop
      vertex 7.73428 -12.5 4.62434
      vertex 7.71487 -12.5 4.68405
      vertex 7.25 -12.5 4.99901
    endloop
  endfacet
  facet normal 0 -1 0
    outer loop
      vertex 7.74605 -12.5 4.56265
      vertex 7.73428 -12.5 4.62434
      vertex 7.25 -12.5 4.99901
    endloop
  endfacet
  facet normal 0 -1 0
    outer loop
      vertex 7.75 -12.5 4.5
      vertex 7.74605 -12.5 4.56265
      vertex 7.25 -12.5 4.99901
    endloop
  endfacet
  facet normal 0 -1 0
    outer loop
      vertex 6.75 -12.5 4.5
      vertex 7.75 -12.5 4.5
      vertex 7.25 -12.5 4.99901
    endloop
  endfacet
  facet normal 0 -1 0
    outer loop
      vertex 6.75 -12.5 4.5
      vertex 6.75 -12.5 0
      vertex 7.75 -12.5 4.5
    endloop
  endfacet
  facet normal 0 -1 -0
    outer loop
      vertex 7.75 -12.5 4.5
      vertex 6.75 -12.5 0
      vertex 7.75 -12.5 -2.5
    endloop
  endfacet
  facet normal -0 -1 0
    outer loop
      vertex 7.75 -12.5 -2.5
      vertex 5.75 -12.5 -2.5
      vertex 6.75 -12.5 -3.5
    endloop
  endfacet
  facet normal 0 -1 -0
    outer loop
      vertex -7.34369 -12.5 4.99113
      vertex -7.4045 -12.5 4.97552
      vertex -7.25 -12.5 4.99901
    endloop
  endfacet
  facet normal 0 -1 0
    outer loop
      vertex -7.73428 -12.5 4.62434
      vertex -7.25 -12.5 4.99901
      vertex -7.71487 -12.5 4.68405
    endloop
  endfacet
  facet normal 0 -1 0
    outer loop
      vertex -7.25 -12.5 4.99901
      vertex -7.6545 -12.5 4.79388
      vertex -7.68814 -12.5 4.74088
    endloop
  endfacet
  facet normal 0 -1 0
    outer loop
      vertex -7.25 -12.5 4.99901
      vertex -7.61447 -12.5 4.84227
      vertex -7.6545 -12.5 4.79388
    endloop
  endfacet
  facet normal 0 -1 0
    outer loop
      vertex -7.25 -12.5 4.99901
      vertex -7.56871 -12.5 4.88525
      vertex -7.61447 -12.5 4.84227
    endloop
  endfacet
  facet normal 0 -1 0
    outer loop
      vertex -7.25 -12.5 4.99901
      vertex -7.5179 -12.5 4.92215
      vertex -7.56871 -12.5 4.88525
    endloop
  endfacet
  facet normal 0 -1 0
    outer loop
      vertex -7.71487 -12.5 4.68405
      vertex -7.25 -12.5 4.99901
      vertex -7.68814 -12.5 4.74088
    endloop
  endfacet
  facet normal 0 -1 0
    outer loop
      vertex -7.25 -12.5 4.99901
      vertex -7.4045 -12.5 4.97552
      vertex -7.46288 -12.5 4.95241
    endloop
  endfacet
  facet normal 0 -1 -0
    outer loop
      vertex -7.28139 -12.5 4.99901
      vertex -7.34369 -12.5 4.99113
      vertex -7.25 -12.5 4.99901
    endloop
  endfacet
  facet normal 0 -1 0
    outer loop
      vertex -7.25 -12.5 4.99901
      vertex -7.46288 -12.5 4.95241
      vertex -7.5179 -12.5 4.92215
    endloop
  endfacet
  facet normal 0 -1 0
    outer loop
      vertex -7.74605 -12.5 4.56265
      vertex -7.25 -12.5 4.99901
      vertex -7.73428 -12.5 4.62434
    endloop
  endfacet
  facet normal 0 -1 0
    outer loop
      vertex -5.75 -12.5 4.5
      vertex -5.75 -12.5 5
      vertex -6.75 -12.5 4.5
    endloop
  endfacet
  facet normal 0 -1 0
    outer loop
      vertex -7.75 -12.5 4.5
      vertex -6.75 -12.5 0
      vertex -6.75 -12.5 4.5
    endloop
  endfacet
  facet normal 0 -1 0
    outer loop
      vertex -6.75 -12.5 4.5
      vertex -5.75 -12.5 5
      vertex -7.25 -12.5 5
    endloop
  endfacet
  facet normal 0 -1 -0
    outer loop
      vertex -6.75 -12.5 0
      vertex -7.75 -12.5 -2.5
      vertex -5.75 -12.5 -2.5
    endloop
  endfacet
  facet normal 0 -1 0
    outer loop
      vertex -7.75 -12.5 4.5
      vertex -7.75 -12.5 -2.5
      vertex -6.75 -12.5 0
    endloop
  endfacet
  facet normal 0 -1 0
    outer loop
      vertex -7.75 -12.5 4.5
      vertex -6.75 -12.5 4.5
      vertex -7.25 -12.5 4.99901
    endloop
  endfacet
  facet normal 0 -1 0
    outer loop
      vertex -6.75 -12.5 4.5
      vertex -7.25 -12.5 5
      vertex -7.25 -12.5 4.99901
    endloop
  endfacet
  facet normal 0 -1 0
    outer loop
      vertex -6.75 -12.5 0
      vertex -5.75 -12.5 -2.5
      vertex -5.75 -12.5 0
    endloop
  endfacet
  facet normal 0 -1 0
    outer loop
      vertex 5.75 -12.5 0
      vertex 5.75 -12.5 -2.5
      vertex 6.75 -12.5 0
    endloop
  endfacet
  facet normal 0 -1 0
    outer loop
      vertex -6.75 -12.5 -3.5
      vertex 6.75 -12.5 -3.5
      vertex 5.75 -12.5 -2.5
    endloop
  endfacet
  facet normal 0 -1 0
    outer loop
      vertex -6.75 -12.5 -3.5
      vertex -5.75 -12.5 -2.5
      vertex -7.75 -12.5 -2.5
    endloop
  endfacet
  facet normal 0 -1 0
    outer loop
      vertex 5.75 -12.5 -2.5
      vertex 7.75 -12.5 -2.5
      vertex 6.75 -12.5 0
    endloop
  endfacet
  facet normal 0 1 0
    outer loop
      vertex 6.38889 12.5 5
      vertex 7.5 12.5 4.5
      vertex 6.38889 12.5 4.5
    endloop
  endfacet
  facet normal 0 1 0
    outer loop
      vertex 8.05556 12.5 5
      vertex 7.5 12.5 4.5
      vertex 6.38889 12.5 5
    endloop
  endfacet
  facet normal -0 1 0
    outer loop
      vertex -6.38889 12.5 -2.5
      vertex 6.38889 12.5 -2.5
      vertex -7.5 12.5 -3.5
    endloop
  endfacet
  facet normal 0 1 -0
    outer loop
      vertex 8.05556 12.5 4.99901
      vertex 7.5 12.5 4.5
      vertex 8.05556 12.5 5
    endloop
  endfacet
  facet normal -0 1 0
    outer loop
      vertex -8.15965 12.5 4.99113
      vertex -8.05556 12.5 4.99901
      vertex -8.61111 12.5 4.5
    endloop
  endfacet
  facet normal -0 1 0
    outer loop
      vertex 8.05556 12.5 4.99901
      vertex 8.09043 12.5 4.99901
      vertex 8.15965 12.5 4.99113
    endloop
  endfacet
  facet normal 0 1 0
    outer loop
      vertex 8.29208 12.5 4.95241
      vertex 8.35322 12.5 4.92215
      vertex 8.61111 12.5 4.5
    endloop
  endfacet
  facet normal 0 1 0
    outer loop
      vertex 8.61111 12.5 4.5
      vertex 8.40968 12.5 4.88525
      vertex 8.46052 12.5 4.84227
    endloop
  endfacet
  facet normal 0 1 0
    outer loop
      vertex 8.54238 12.5 4.74088
      vertex 8.61111 12.5 4.5
      vertex 8.50499 12.5 4.79388
    endloop
  endfacet
  facet normal 0 1 0
    outer loop
      vertex 8.61111 12.5 4.5
      vertex 8.59365 12.5 4.62434
      vertex 8.60672 12.5 4.56265
    endloop
  endfacet
  facet normal 0 1 0
    outer loop
      vertex 8.57208 12.5 4.68405
      vertex 8.59365 12.5 4.62434
      vertex 8.61111 12.5 4.5
    endloop
  endfacet
  facet normal 0 1 0
    outer loop
      vertex 8.57208 12.5 4.68405
      vertex 8.61111 12.5 4.5
      vertex 8.54238 12.5 4.74088
    endloop
  endfacet
  facet normal 0 1 0
    outer loop
      vertex 8.61111 12.5 4.5
      vertex 8.46052 12.5 4.84227
      vertex 8.50499 12.5 4.79388
    endloop
  endfacet
  facet normal 0 1 0
    outer loop
      vertex 8.35322 12.5 4.92215
      vertex 8.40968 12.5 4.88525
      vertex 8.61111 12.5 4.5
    endloop
  endfacet
  facet normal 0 1 0
    outer loop
      vertex 8.29208 12.5 4.95241
      vertex 8.61111 12.5 4.5
      vertex 8.22722 12.5 4.97552
    endloop
  endfacet
  facet normal 0 1 0
    outer loop
      vertex 8.61111 12.5 4.5
      vertex 8.15965 12.5 4.99113
      vertex 8.22722 12.5 4.97552
    endloop
  endfacet
  facet normal 0 1 0
    outer loop
      vertex 8.05556 12.5 4.99901
      vertex 8.15965 12.5 4.99113
      vertex 8.61111 12.5 4.5
    endloop
  endfacet
  facet normal 0 1 0
    outer loop
      vertex 8.05556 12.5 4.99901
      vertex 8.61111 12.5 4.5
      vertex 7.5 12.5 4.5
    endloop
  endfacet
  facet normal 0 1 0
    outer loop
      vertex 8.61111 12.5 4.5
      vertex 7.5 12.5 0
      vertex 7.5 12.5 4.5
    endloop
  endfacet
  facet normal 0 1 -0
    outer loop
      vertex 8.61111 12.5 -2.5
      vertex 7.5 12.5 0
      vertex 8.61111 12.5 4.5
    endloop
  endfacet
  facet normal 0 1 -0
    outer loop
      vertex 7.5 12.5 -3.5
      vertex 6.38889 12.5 -2.5
      vertex 8.61111 12.5 -2.5
    endloop
  endfacet
  facet normal 0 1 0
    outer loop
      vertex -8.40968 12.5 4.88525
      vertex -8.61111 12.5 4.5
      vertex -8.46052 12.5 4.84227
    endloop
  endfacet
  facet normal 0 1 0
    outer loop
      vertex -8.61111 12.5 4.5
      vertex -8.60672 12.5 4.56265
      vertex -8.59365 12.5 4.62434
    endloop
  endfacet
  facet normal 0 1 0
    outer loop
      vertex -8.61111 12.5 4.5
      vertex -8.59365 12.5 4.62434
      vertex -8.57208 12.5 4.68405
    endloop
  endfacet
  facet normal 0 1 0
    outer loop
      vertex -8.61111 12.5 4.5
      vertex -8.57208 12.5 4.68405
      vertex -8.54238 12.5 4.74088
    endloop
  endfacet
  facet normal 0 1 0
    outer loop
      vertex -8.61111 12.5 4.5
      vertex -8.54238 12.5 4.74088
      vertex -8.50499 12.5 4.79388
    endloop
  endfacet
  facet normal 0 1 0
    outer loop
      vertex -8.61111 12.5 4.5
      vertex -8.50499 12.5 4.79388
      vertex -8.46052 12.5 4.84227
    endloop
  endfacet
  facet normal 0 1 0
    outer loop
      vertex -8.35322 12.5 4.92215
      vertex -8.61111 12.5 4.5
      vertex -8.40968 12.5 4.88525
    endloop
  endfacet
  facet normal 0 1 0
    outer loop
      vertex -8.29208 12.5 4.95241
      vertex -8.61111 12.5 4.5
      vertex -8.35322 12.5 4.92215
    endloop
  endfacet
  facet normal 0 1 0
    outer loop
      vertex -8.22722 12.5 4.97552
      vertex -8.61111 12.5 4.5
      vertex -8.29208 12.5 4.95241
    endloop
  endfacet
  facet normal 0 1 0
    outer loop
      vertex -8.15965 12.5 4.99113
      vertex -8.61111 12.5 4.5
      vertex -8.22722 12.5 4.97552
    endloop
  endfacet
  facet normal -0 1 0
    outer loop
      vertex -8.09043 12.5 4.99901
      vertex -8.05556 12.5 4.99901
      vertex -8.15965 12.5 4.99113
    endloop
  endfacet
  facet normal 0 1 0
    outer loop
      vertex -7.5 12.5 4.5
      vertex -6.38889 12.5 5
      vertex -6.38889 12.5 4.5
    endloop
  endfacet
  facet normal 0 1 0
    outer loop
      vertex -7.5 12.5 4.5
      vertex -7.5 12.5 0
      vertex -8.61111 12.5 4.5
    endloop
  endfacet
  facet normal -0 1 0
    outer loop
      vertex -8.05556 12.5 5
      vertex -6.38889 12.5 5
      vertex -7.5 12.5 4.5
    endloop
  endfacet
  facet normal 0 1 0
    outer loop
      vertex -6.38889 12.5 -2.5
      vertex -8.61111 12.5 -2.5
      vertex -7.5 12.5 0
    endloop
  endfacet
  facet normal 0 1 0
    outer loop
      vertex -7.5 12.5 0
      vertex -8.61111 12.5 -2.5
      vertex -8.61111 12.5 4.5
    endloop
  endfacet
  facet normal 0 1 0
    outer loop
      vertex -8.05556 12.5 4.99901
      vertex -7.5 12.5 4.5
      vertex -8.61111 12.5 4.5
    endloop
  endfacet
  facet normal -0 1 0
    outer loop
      vertex -8.05556 12.5 4.99901
      vertex -8.05556 12.5 5
      vertex -7.5 12.5 4.5
    endloop
  endfacet
  facet normal 0 1 0
    outer loop
      vertex -6.38889 12.5 0
      vertex -6.38889 12.5 -2.5
      vertex -7.5 12.5 0
    endloop
  endfacet
  facet normal 0 1 0
    outer loop
      vertex 7.5 12.5 0
      vertex 6.38889 12.5 -2.5
      vertex 6.38889 12.5 0
    endloop
  endfacet
  facet normal 0 1 0
    outer loop
      vertex 6.38889 12.5 -2.5
      vertex 7.5 12.5 -3.5
      vertex -7.5 12.5 -3.5
    endloop
  endfacet
  facet normal -0 1 0
    outer loop
      vertex -8.61111 12.5 -2.5
      vertex -6.38889 12.5 -2.5
      vertex -7.5 12.5 -3.5
    endloop
  endfacet
  facet normal 0 1 0
    outer loop
      vertex 7.5 12.5 0
      vertex 8.61111 12.5 -2.5
      vertex 6.38889 12.5 -2.5
    endloop
  endfacet
  facet normal 0 0 -1
    outer loop
      vertex 5.75 -12.5 4.5
      vertex 7.5 12.5 4.5
      vertex 6.75 -12.5 4.5
    endloop
  endfacet
  facet normal 0 0 -1
    outer loop
      vertex 5.75 -12.5 4.5
      vertex 6.38889 12.5 4.5
      vertex 7.5 12.5 4.5
    endloop
  endfacet
  facet normal -0.999674 0.0255473 0
    outer loop
      vertex 5.75 -12.5 5
      vertex 6.38889 12.5 4.5
      vertex 5.75 -12.5 4.5
    endloop
  endfacet
  facet normal -0.999674 0.0255473 0
    outer loop
      vertex 5.75 -12.5 5
      vertex 6.38889 12.5 5
      vertex 6.38889 12.5 4.5
    endloop
  endfacet
  facet normal 0 0 1
    outer loop
      vertex 7.25 -12.5 5
      vertex 6.38889 12.5 5
      vertex 5.75 -12.5 5
    endloop
  endfacet
  facet normal 0 -0 1
    outer loop
      vertex 7.25 -12.5 5
      vertex 8.05556 12.5 5
      vertex 6.38889 12.5 5
    endloop
  endfacet
  facet normal 0.999481 -0.0322057 0
    outer loop
      vertex 7.25 -12.5 4.99901
      vertex 8.05556 12.5 5
      vertex 7.25 -12.5 5
    endloop
  endfacet
  facet normal 0.999481 -0.0322057 0
    outer loop
      vertex 7.25 -12.5 4.99901
      vertex 8.05556 12.5 4.99901
      vertex 8.05556 12.5 5
    endloop
  endfacet
  facet normal 0 -0 1
    outer loop
      vertex 7.28139 -12.5 4.99901
      vertex 8.05556 12.5 4.99901
      vertex 7.25 -12.5 4.99901
    endloop
  endfacet
  facet normal 0 0 1
    outer loop
      vertex 7.28139 -12.5 4.99901
      vertex 8.09043 12.5 4.99901
      vertex 8.05556 12.5 4.99901
    endloop
  endfacet
  facet normal 0.125484 -0.00406086 0.992087
    outer loop
      vertex 7.34369 -12.5 4.99113
      vertex 8.09043 12.5 4.99901
      vertex 7.28139 -12.5 4.99901
    endloop
  endfacet
  facet normal 0.113109 -0.00369168 0.993576
    outer loop
      vertex 7.34369 -12.5 4.99113
      vertex 8.15965 12.5 4.99113
      vertex 8.09043 12.5 4.99901
    endloop
  endfacet
  facet normal 0.248632 -0.00811494 0.968564
    outer loop
      vertex 7.4045 -12.5 4.97552
      vertex 8.15965 12.5 4.99113
      vertex 7.34369 -12.5 4.99113
    endloop
  endfacet
  facet normal 0.225085 -0.00740728 0.974311
    outer loop
      vertex 7.4045 -12.5 4.97552
      vertex 8.22722 12.5 4.97552
      vertex 8.15965 12.5 4.99113
    endloop
  endfacet
  facet normal 0.368039 -0.0121117 0.929732
    outer loop
      vertex 7.46288 -12.5 4.95241
      vertex 8.22722 12.5 4.97552
      vertex 7.4045 -12.5 4.97552
    endloop
  endfacet
  facet normal 0.335616 -0.0111317 0.941933
    outer loop
      vertex 7.46288 -12.5 4.95241
      vertex 8.29208 12.5 4.95241
      vertex 8.22722 12.5 4.97552
    endloop
  endfacet
  facet normal 0.481845 -0.0159818 0.876111
    outer loop
      vertex 7.5179 -12.5 4.92215
      vertex 8.29208 12.5 4.95241
      vertex 7.46288 -12.5 4.95241
    endloop
  endfacet
  facet normal 0.443526 -0.0148194 0.896139
    outer loop
      vertex 7.5179 -12.5 4.92215
      vertex 8.35322 12.5 4.92215
      vertex 8.29208 12.5 4.95241
    endloop
  endfacet
  facet normal 0.587509 -0.0196303 0.808979
    outer loop
      vertex 7.56871 -12.5 4.88525
      vertex 8.35322 12.5 4.92215
      vertex 7.5179 -12.5 4.92215
    endloop
  endfacet
  facet normal 0.546989 -0.0184001 0.836938
    outer loop
      vertex 7.56871 -12.5 4.88525
      vertex 8.40968 12.5 4.88525
      vertex 8.35322 12.5 4.92215
    endloop
  endfacet
  facet normal 0.684438 -0.0230237 0.728708
    outer loop
      vertex 7.61447 -12.5 4.84227
      vertex 8.40968 12.5 4.88525
      vertex 7.56871 -12.5 4.88525
    endloop
  endfacet
  facet normal 0.645451 -0.0218434 0.763489
    outer loop
      vertex 7.61447 -12.5 4.84227
      vertex 8.46052 12.5 4.84227
      vertex 8.40968 12.5 4.88525
    endloop
  endfacet
  facet normal 0.770265 -0.0260673 0.637191
    outer loop
      vertex 7.6545 -12.5 4.79388
      vertex 8.46052 12.5 4.84227
      vertex 7.61447 -12.5 4.84227
    endloop
  endfacet
  facet normal 0.73607 -0.0250408 0.676442
    outer loop
      vertex 7.6545 -12.5 4.79388
      vertex 8.50499 12.5 4.79388
      vertex 8.46052 12.5 4.84227
    endloop
  endfacet
  facet normal 0.843943 -0.0287106 0.535665
    outer loop
      vertex 7.68814 -12.5 4.74088
      vertex 8.50499 12.5 4.79388
      vertex 7.6545 -12.5 4.79388
    endloop
  endfacet
  facet normal 0.816808 -0.02791 0.576235
    outer loop
      vertex 7.68814 -12.5 4.74088
      vertex 8.54238 12.5 4.74088
      vertex 8.50499 12.5 4.79388
    endloop
  endfacet
  facet normal 0.904469 -0.0309054 0.425417
    outer loop
      vertex 7.71487 -12.5 4.68405
      vertex 8.54238 12.5 4.74088
      vertex 7.68814 -12.5 4.74088
    endloop
  endfacet
  facet normal 0.885859 -0.0303747 0.46296
    outer loop
      vertex 7.71487 -12.5 4.68405
      vertex 8.57208 12.5 4.68405
      vertex 8.54238 12.5 4.74088
    endloop
  endfacet
  facet normal 0.950509 -0.0325914 0.308983
    outer loop
      vertex 7.73428 -12.5 4.62434
      vertex 8.57208 12.5 4.68405
      vertex 7.71487 -12.5 4.68405
    endloop
  endfacet
  facet normal 0.940022 -0.0323131 0.339579
    outer loop
      vertex 7.73428 -12.5 4.62434
      vertex 8.59365 12.5 4.62434
      vertex 8.57208 12.5 4.68405
    endloop
  endfacet
  facet normal 0.981722 -0.0337465 0.187305
    outer loop
      vertex 7.74605 -12.5 4.56265
      vertex 8.59365 12.5 4.62434
      vertex 7.73428 -12.5 4.62434
    endloop
  endfacet
  facet normal 0.97773 -0.0336601 0.207148
    outer loop
      vertex 7.74605 -12.5 4.56265
      vertex 8.60672 12.5 4.56265
      vertex 8.59365 12.5 4.62434
    endloop
  endfacet
  facet normal 0.99743 -0.0343383 0.0628866
    outer loop
      vertex 7.75 -12.5 4.5
      vertex 8.60672 12.5 4.56265
      vertex 7.74605 -12.5 4.56265
    endloop
  endfacet
  facet normal 0.996966 -0.0343399 0.0698592
    outer loop
      vertex 7.75 -12.5 4.5
      vertex 8.61111 12.5 4.5
      vertex 8.60672 12.5 4.56265
    endloop
  endfacet
  facet normal 0.999407 -0.034424 0
    outer loop
      vertex 7.75 -12.5 -2.5
      vertex 8.61111 12.5 4.5
      vertex 7.75 -12.5 4.5
    endloop
  endfacet
  facet normal 0.999407 -0.034424 0
    outer loop
      vertex 7.75 -12.5 -2.5
      vertex 8.61111 12.5 -2.5
      vertex 8.61111 12.5 4.5
    endloop
  endfacet
  facet normal 0.706897 -0.0243486 -0.706897
    outer loop
      vertex 6.75 -12.5 -3.5
      vertex 8.61111 12.5 -2.5
      vertex 7.75 -12.5 -2.5
    endloop
  endfacet
  facet normal 0.66883 -0.0200649 -0.743144
    outer loop
      vertex 6.75 -12.5 -3.5
      vertex 7.5 12.5 -3.5
      vertex 8.61111 12.5 -2.5
    endloop
  endfacet
  facet normal 0 0 -1
    outer loop
      vertex -6.75 -12.5 -3.5
      vertex 7.5 12.5 -3.5
      vertex 6.75 -12.5 -3.5
    endloop
  endfacet
  facet normal 0 0 -1
    outer loop
      vertex -6.75 -12.5 -3.5
      vertex -7.5 12.5 -3.5
      vertex 7.5 12.5 -3.5
    endloop
  endfacet
  facet normal -0.706948 -0.0212084 -0.706948
    outer loop
      vertex -7.75 -12.5 -2.5
      vertex -7.5 12.5 -3.5
      vertex -6.75 -12.5 -3.5
    endloop
  endfacet
  facet normal -0.668788 -0.023036 -0.743097
    outer loop
      vertex -7.75 -12.5 -2.5
      vertex -8.61111 12.5 -2.5
      vertex -7.5 12.5 -3.5
    endloop
  endfacet
  facet normal -0.999407 -0.034424 -0
    outer loop
      vertex -7.75 -12.5 4.5
      vertex -8.61111 12.5 -2.5
      vertex -7.75 -12.5 -2.5
    endloop
  endfacet
  facet normal -0.999407 -0.034424 0
    outer loop
      vertex -7.75 -12.5 4.5
      vertex -8.61111 12.5 4.5
      vertex -8.61111 12.5 -2.5
    endloop
  endfacet
  facet normal -0.997429 -0.0343558 0.0628866
    outer loop
      vertex -7.74605 -12.5 4.56265
      vertex -8.61111 12.5 4.5
      vertex -7.75 -12.5 4.5
    endloop
  endfacet
  facet normal -0.996966 -0.0343224 0.0698592
    outer loop
      vertex -7.74605 -12.5 4.56265
      vertex -8.60672 12.5 4.56265
      vertex -8.61111 12.5 4.5
    endloop
  endfacet
  facet normal -0.98172 -0.0337975 0.187305
    outer loop
      vertex -7.73428 -12.5 4.62434
      vertex -8.60672 12.5 4.56265
      vertex -7.74605 -12.5 4.56265
    endloop
  endfacet
  facet normal -0.977732 -0.0336093 0.207148
    outer loop
      vertex -7.73428 -12.5 4.62434
      vertex -8.59365 12.5 4.62434
      vertex -8.60672 12.5 4.56265
    endloop
  endfacet
  facet normal -0.950506 -0.0326735 0.308982
    outer loop
      vertex -7.71487 -12.5 4.68405
      vertex -8.59365 12.5 4.62434
      vertex -7.73428 -12.5 4.62434
    endloop
  endfacet
  facet normal -0.940025 -0.0322319 0.33958
    outer loop
      vertex -7.71487 -12.5 4.68405
      vertex -8.57208 12.5 4.68405
      vertex -8.59365 12.5 4.62434
    endloop
  endfacet
  facet normal -0.904466 -0.0310127 0.425416
    outer loop
      vertex -7.68814 -12.5 4.74088
      vertex -8.57208 12.5 4.68405
      vertex -7.71487 -12.5 4.68405
    endloop
  endfacet
  facet normal -0.885862 -0.0302695 0.462961
    outer loop
      vertex -7.68814 -12.5 4.74088
      vertex -8.54238 12.5 4.74088
      vertex -8.57208 12.5 4.68405
    endloop
  endfacet
  facet normal -0.843939 -0.0288371 0.535663
    outer loop
      vertex -7.6545 -12.5 4.79388
      vertex -8.54238 12.5 4.74088
      vertex -7.68814 -12.5 4.74088
    endloop
  endfacet
  facet normal -0.81681 -0.0277876 0.576237
    outer loop
      vertex -7.6545 -12.5 4.79388
      vertex -8.50499 12.5 4.79388
      vertex -8.54238 12.5 4.74088
    endloop
  endfacet
  facet normal -0.770262 -0.026204 0.637189
    outer loop
      vertex -7.61447 -12.5 4.84227
      vertex -8.50499 12.5 4.79388
      vertex -7.6545 -12.5 4.79388
    endloop
  endfacet
  facet normal -0.736072 -0.0249102 0.676444
    outer loop
      vertex -7.61447 -12.5 4.84227
      vertex -8.46052 12.5 4.84227
      vertex -8.50499 12.5 4.79388
    endloop
  endfacet
  facet normal -0.684435 -0.0231627 0.728706
    outer loop
      vertex -7.56871 -12.5 4.88525
      vertex -8.46052 12.5 4.84227
      vertex -7.61447 -12.5 4.84227
    endloop
  endfacet
  facet normal -0.645453 -0.0217123 0.763491
    outer loop
      vertex -7.56871 -12.5 4.88525
      vertex -8.40968 12.5 4.88525
      vertex -8.46052 12.5 4.84227
    endloop
  endfacet
  facet normal -0.587508 -0.0197631 0.808977
    outer loop
      vertex -7.5179 -12.5 4.92215
      vertex -8.40968 12.5 4.88525
      vertex -7.56871 -12.5 4.88525
    endloop
  endfacet
  facet normal -0.54699 -0.0182765 0.836939
    outer loop
      vertex -7.5179 -12.5 4.92215
      vertex -8.35322 12.5 4.92215
      vertex -8.40968 12.5 4.88525
    endloop
  endfacet
  facet normal -0.481844 -0.0160998 0.876109
    outer loop
      vertex -7.46288 -12.5 4.95241
      vertex -8.35322 12.5 4.92215
      vertex -7.5179 -12.5 4.92215
    endloop
  endfacet
  facet normal -0.443527 -0.0147109 0.896141
    outer loop
      vertex -7.46288 -12.5 4.95241
      vertex -8.29208 12.5 4.95241
      vertex -8.35322 12.5 4.92215
    endloop
  endfacet
  facet normal -0.368038 -0.0122071 0.929731
    outer loop
      vertex -7.4045 -12.5 4.97552
      vertex -8.29208 12.5 4.95241
      vertex -7.46288 -12.5 4.95241
    endloop
  endfacet
  facet normal -0.335617 -0.0110447 0.941934
    outer loop
      vertex -7.4045 -12.5 4.97552
      vertex -8.22722 12.5 4.97552
      vertex -8.29208 12.5 4.95241
    endloop
  endfacet
  facet normal -0.248631 -0.00818216 0.968564
    outer loop
      vertex -7.34369 -12.5 4.99113
      vertex -8.22722 12.5 4.97552
      vertex -7.4045 -12.5 4.97552
    endloop
  endfacet
  facet normal -0.225085 -0.00734642 0.974311
    outer loop
      vertex -7.34369 -12.5 4.99113
      vertex -8.15965 12.5 4.99113
      vertex -8.22722 12.5 4.97552
    endloop
  endfacet
  facet normal -0.125484 -0.00409559 0.992087
    outer loop
      vertex -7.28139 -12.5 4.99901
      vertex -8.15965 12.5 4.99113
      vertex -7.34369 -12.5 4.99113
    endloop
  endfacet
  facet normal -0.113109 -0.00366038 0.993576
    outer loop
      vertex -7.28139 -12.5 4.99901
      vertex -8.09043 12.5 4.99901
      vertex -8.15965 12.5 4.99113
    endloop
  endfacet
  facet normal 0 0 1
    outer loop
      vertex -7.25 -12.5 4.99901
      vertex -8.09043 12.5 4.99901
      vertex -7.28139 -12.5 4.99901
    endloop
  endfacet
  facet normal 0 0 1
    outer loop
      vertex -7.25 -12.5 4.99901
      vertex -8.05556 12.5 4.99901
      vertex -8.09043 12.5 4.99901
    endloop
  endfacet
  facet normal -0.999481 -0.0322057 -0
    outer loop
      vertex -7.25 -12.5 5
      vertex -8.05556 12.5 4.99901
      vertex -7.25 -12.5 4.99901
    endloop
  endfacet
  facet normal -0.999481 -0.0322057 0
    outer loop
      vertex -7.25 -12.5 5
      vertex -8.05556 12.5 5
      vertex -8.05556 12.5 4.99901
    endloop
  endfacet
  facet normal 0 0 1
    outer loop
      vertex -5.75 -12.5 5
      vertex -8.05556 12.5 5
      vertex -7.25 -12.5 5
    endloop
  endfacet
  facet normal 0 0 1
    outer loop
      vertex -5.75 -12.5 5
      vertex -6.38889 12.5 5
      vertex -8.05556 12.5 5
    endloop
  endfacet
  facet normal 0.999674 0.0255473 -0
    outer loop
      vertex -5.75 -12.5 4.5
      vertex -6.38889 12.5 5
      vertex -5.75 -12.5 5
    endloop
  endfacet
  facet normal 0.999674 0.0255473 0
    outer loop
      vertex -5.75 -12.5 4.5
      vertex -6.38889 12.5 4.5
      vertex -6.38889 12.5 5
    endloop
  endfacet
  facet normal 0 0 -1
    outer loop
      vertex -6.75 -12.5 4.5
      vertex -6.38889 12.5 4.5
      vertex -5.75 -12.5 4.5
    endloop
  endfacet
  facet normal 0 0 -1
    outer loop
      vertex -6.75 -12.5 4.5
      vertex -7.5 12.5 4.5
      vertex -6.38889 12.5 4.5
    endloop
  endfacet
  facet normal 0.99955 0.0299865 -0
    outer loop
      vertex -6.75 -12.5 0
      vertex -7.5 12.5 4.5
      vertex -6.75 -12.5 4.5
    endloop
  endfacet
  facet normal 0.99955 0.0299865 0
    outer loop
      vertex -6.75 -12.5 0
      vertex -7.5 12.5 0
      vertex -7.5 12.5 4.5
    endloop
  endfacet
  facet normal 0 0 1
    outer loop
      vertex -5.75 -12.5 0
      vertex -7.5 12.5 0
      vertex -6.75 -12.5 0
    endloop
  endfacet
  facet normal 0 0 1
    outer loop
      vertex -5.75 -12.5 0
      vertex -6.38889 12.5 0
      vertex -7.5 12.5 0
    endloop
  endfacet
  facet normal 0.999674 0.0255473 -0
    outer loop
      vertex -5.75 -12.5 -2.5
      vertex -6.38889 12.5 0
      vertex -5.75 -12.5 0
    endloop
  endfacet
  facet normal 0.999674 0.0255473 0
    outer loop
      vertex -5.75 -12.5 -2.5
      vertex -6.38889 12.5 -2.5
      vertex -6.38889 12.5 0
    endloop
  endfacet
  facet normal 0 0 1
    outer loop
      vertex 5.75 -12.5 -2.5
      vertex -6.38889 12.5 -2.5
      vertex -5.75 -12.5 -2.5
    endloop
  endfacet
  facet normal 0 -0 1
    outer loop
      vertex 5.75 -12.5 -2.5
      vertex 6.38889 12.5 -2.5
      vertex -6.38889 12.5 -2.5
    endloop
  endfacet
  facet normal -0.999674 0.0255473 0
    outer loop
      vertex 5.75 -12.5 0
      vertex 6.38889 12.5 -2.5
      vertex 5.75 -12.5 -2.5
    endloop
  endfacet
  facet normal -0.999674 0.0255473 0
    outer loop
      vertex 5.75 -12.5 0
      vertex 6.38889 12.5 0
      vertex 6.38889 12.5 -2.5
    endloop
  endfacet
  facet normal 0 0 1
    outer loop
      vertex 6.75 -12.5 0
      vertex 6.38889 12.5 0
      vertex 5.75 -12.5 0
    endloop
  endfacet
  facet normal 0 -0 1
    outer loop
      vertex 6.75 -12.5 0
      vertex 7.5 12.5 0
      vertex 6.38889 12.5 0
    endloop
  endfacet
  facet normal -0.99955 0.0299865 0
    outer loop
      vertex 6.75 -12.5 4.5
      vertex 7.5 12.5 0
      vertex 6.75 -12.5 0
    endloop
  endfacet
  facet normal -0.99955 0.0299865 0
    outer loop
      vertex 6.75 -12.5 4.5
      vertex 7.5 12.5 4.5
      vertex 7.5 12.5 0
    endloop
  endfacet
endsolid OpenSCAD_Model
