solid OpenSCAD_Model
  facet normal 0 -1 0
    outer loop
      vertex -7.5 -12.5 4.49901
      vertex -7.99605 -12.5 4.06265
      vertex -8 -12.5 4
    endloop
  endfacet
  facet normal 0 -1 0
    outer loop
      vertex 6 -12.5 4.5
      vertex 6 -12.5 4
      vertex 7 -12.5 4
    endloop
  endfacet
  facet normal 0 -1 -0
    outer loop
      vertex 7.5 -12.5 4.5
      vertex 7 -12.5 4
      vertex 7.5 -12.5 4.49901
    endloop
  endfacet
  facet normal 0 -1 0
    outer loop
      vertex 6 -12.5 4.5
      vertex 7 -12.5 4
      vertex 7.5 -12.5 4.5
    endloop
  endfacet
  facet normal -0 -1 0
    outer loop
      vertex 8 -12.5 4
      vertex 7 -12.5 4
      vertex 7 -12.5 -1.5858
    endloop
  endfacet
  facet normal 0 -1 0
    outer loop
      vertex 7.5 -12.5 4.49901
      vertex 7.59369 -12.5 4.49113
      vertex 7.53139 -12.5 4.49901
    endloop
  endfacet
  facet normal 0 -1 0
    outer loop
      vertex 7.5 -12.5 4.49901
      vertex 7.6545 -12.5 4.47552
      vertex 7.59369 -12.5 4.49113
    endloop
  endfacet
  facet normal 0 -1 0
    outer loop
      vertex 7.5 -12.5 4.49901
      vertex 7.71288 -12.5 4.45241
      vertex 7.6545 -12.5 4.47552
    endloop
  endfacet
  facet normal 0 -1 0
    outer loop
      vertex 7.5 -12.5 4.49901
      vertex 7.7679 -12.5 4.42215
      vertex 7.71288 -12.5 4.45241
    endloop
  endfacet
  facet normal 0 -1 0
    outer loop
      vertex 7.5 -12.5 4.49901
      vertex 7.81871 -12.5 4.38525
      vertex 7.7679 -12.5 4.42215
    endloop
  endfacet
  facet normal 0 -1 0
    outer loop
      vertex 7.5 -12.5 4.49901
      vertex 7.86447 -12.5 4.34227
      vertex 7.81871 -12.5 4.38525
    endloop
  endfacet
  facet normal 0 -1 0
    outer loop
      vertex 7.5 -12.5 4.49901
      vertex 7.9045 -12.5 4.29388
      vertex 7.86447 -12.5 4.34227
    endloop
  endfacet
  facet normal 0 -1 0
    outer loop
      vertex 7.5 -12.5 4.49901
      vertex 7.93814 -12.5 4.24088
      vertex 7.9045 -12.5 4.29388
    endloop
  endfacet
  facet normal 0 -1 0
    outer loop
      vertex 7.5 -12.5 4.49901
      vertex 7.96487 -12.5 4.18405
      vertex 7.93814 -12.5 4.24088
    endloop
  endfacet
  facet normal 0 -1 0
    outer loop
      vertex 7.5 -12.5 4.49901
      vertex 7.98428 -12.5 4.12434
      vertex 7.96487 -12.5 4.18405
    endloop
  endfacet
  facet normal 0 -1 0
    outer loop
      vertex 7.5 -12.5 4.49901
      vertex 7.99605 -12.5 4.06265
      vertex 7.98428 -12.5 4.12434
    endloop
  endfacet
  facet normal 0 -1 0
    outer loop
      vertex 7.5 -12.5 4.49901
      vertex 8 -12.5 4
      vertex 7.99605 -12.5 4.06265
    endloop
  endfacet
  facet normal 0 -1 -0
    outer loop
      vertex 7.5 -12.5 4.49901
      vertex 7 -12.5 4
      vertex 8 -12.5 4
    endloop
  endfacet
  facet normal 0 -1 -0
    outer loop
      vertex 8 -12.5 4
      vertex 7 -12.5 -1.5858
      vertex 8 -12.5 -2
    endloop
  endfacet
  facet normal 0 -1 -0
    outer loop
      vertex 7 -12.5 -1.5858
      vertex 6.5858 -12.5 -2
      vertex 7 -12.5 -3
    endloop
  endfacet
  facet normal 0 -1 0
    outer loop
      vertex -7.5 -12.5 4.49901
      vertex -7.93814 -12.5 4.24088
      vertex -7.96487 -12.5 4.18405
    endloop
  endfacet
  facet normal 0 -1 0
    outer loop
      vertex -7.98428 -12.5 4.12434
      vertex -7.5 -12.5 4.49901
      vertex -7.96487 -12.5 4.18405
    endloop
  endfacet
  facet normal 0 -1 0
    outer loop
      vertex -7.5 -12.5 4.49901
      vertex -7.9045 -12.5 4.29388
      vertex -7.93814 -12.5 4.24088
    endloop
  endfacet
  facet normal 0 -1 0
    outer loop
      vertex -7.5 -12.5 4.49901
      vertex -7.86447 -12.5 4.34227
      vertex -7.9045 -12.5 4.29388
    endloop
  endfacet
  facet normal 0 -1 0
    outer loop
      vertex -7.5 -12.5 4.49901
      vertex -7.81871 -12.5 4.38525
      vertex -7.86447 -12.5 4.34227
    endloop
  endfacet
  facet normal 0 -1 0
    outer loop
      vertex -7.5 -12.5 4.49901
      vertex -7.7679 -12.5 4.42215
      vertex -7.81871 -12.5 4.38525
    endloop
  endfacet
  facet normal 0 -1 -0
    outer loop
      vertex -7.6545 -12.5 4.47552
      vertex -7.71288 -12.5 4.45241
      vertex -7.5 -12.5 4.49901
    endloop
  endfacet
  facet normal 0 -1 -0
    outer loop
      vertex -7.59369 -12.5 4.49113
      vertex -7.6545 -12.5 4.47552
      vertex -7.5 -12.5 4.49901
    endloop
  endfacet
  facet normal 0 -1 -0
    outer loop
      vertex -7.53139 -12.5 4.49901
      vertex -7.59369 -12.5 4.49113
      vertex -7.5 -12.5 4.49901
    endloop
  endfacet
  facet normal 0 -1 0
    outer loop
      vertex -7.5 -12.5 4.49901
      vertex -7.71288 -12.5 4.45241
      vertex -7.7679 -12.5 4.42215
    endloop
  endfacet
  facet normal 0 -1 0
    outer loop
      vertex -7.99605 -12.5 4.06265
      vertex -7.5 -12.5 4.49901
      vertex -7.98428 -12.5 4.12434
    endloop
  endfacet
  facet normal 0 -1 0
    outer loop
      vertex -6 -12.5 4
      vertex -6 -12.5 4.5
      vertex -7 -12.5 4
    endloop
  endfacet
  facet normal 0 -1 0
    outer loop
      vertex -8 -12.5 4
      vertex -7 -12.5 -1.49998
      vertex -7 -12.5 4
    endloop
  endfacet
  facet normal 0 -1 0
    outer loop
      vertex -7 -12.5 4
      vertex -6 -12.5 4.5
      vertex -7.5 -12.5 4.5
    endloop
  endfacet
  facet normal 0 -1 0
    outer loop
      vertex -8 -12.5 4
      vertex -8 -12.5 -2
      vertex -7 -12.5 -1.49998
    endloop
  endfacet
  facet normal 0 -1 0
    outer loop
      vertex -8 -12.5 4
      vertex -7 -12.5 4
      vertex -7.5 -12.5 4.49901
    endloop
  endfacet
  facet normal 0 -1 0
    outer loop
      vertex -7 -12.5 4
      vertex -7.5 -12.5 4.5
      vertex -7.5 -12.5 4.49901
    endloop
  endfacet
  facet normal 0 -1 -0
    outer loop
      vertex -7 -12.5 -1.49998
      vertex -8 -12.5 -2
      vertex -6.5 -12.5 -2
    endloop
  endfacet
  facet normal 0 -1 0
    outer loop
      vertex 7 -12.5 -3
      vertex -6.5 -12.5 -2
      vertex -7 -12.5 -3
    endloop
  endfacet
  facet normal -0 -1 0
    outer loop
      vertex -6.5 -12.5 -2
      vertex -8 -12.5 -2
      vertex -7 -12.5 -3
    endloop
  endfacet
  facet normal -0 -1 -0
    outer loop
      vertex 6.5858 -12.5 -2
      vertex -6.5 -12.5 -2
      vertex 7 -12.5 -3
    endloop
  endfacet
  facet normal -0 -1 0
    outer loop
      vertex 8 -12.5 -2
      vertex 7 -12.5 -1.5858
      vertex 7 -12.5 -3
    endloop
  endfacet
  facet normal 0 1 0
    outer loop
      vertex -8.57143 12.5 4
      vertex -8.1361 12.5 4.49113
      vertex -8.03571 12.5 4.49901
    endloop
  endfacet
  facet normal 0 1 0
    outer loop
      vertex 7.5 12.5 4
      vertex 6.42857 12.5 4
      vertex 6.42857 12.5 4.5
    endloop
  endfacet
  facet normal 0 1 -0
    outer loop
      vertex 8.03571 12.5 4.49901
      vertex 7.5 12.5 4
      vertex 8.03571 12.5 4.5
    endloop
  endfacet
  facet normal 0 1 0
    outer loop
      vertex 8.03571 12.5 4.5
      vertex 7.5 12.5 4
      vertex 6.42857 12.5 4.5
    endloop
  endfacet
  facet normal 0 1 0
    outer loop
      vertex 7.5 12.5 -1.5858
      vertex 7.5 12.5 4
      vertex 8.57143 12.5 4
    endloop
  endfacet
  facet normal 0 1 0
    outer loop
      vertex 8.06934 12.5 4.49901
      vertex 8.1361 12.5 4.49113
      vertex 8.03571 12.5 4.49901
    endloop
  endfacet
  facet normal 0 1 0
    outer loop
      vertex 8.32275 12.5 4.42215
      vertex 8.57143 12.5 4
      vertex 8.26379 12.5 4.45241
    endloop
  endfacet
  facet normal 0 1 0
    outer loop
      vertex 8.37719 12.5 4.38525
      vertex 8.42622 12.5 4.34227
      vertex 8.57143 12.5 4
    endloop
  endfacet
  facet normal 0 1 0
    outer loop
      vertex 8.57143 12.5 4
      vertex 8.4691 12.5 4.29388
      vertex 8.50515 12.5 4.24088
    endloop
  endfacet
  facet normal 0 1 0
    outer loop
      vertex 8.55459 12.5 4.12434
      vertex 8.56719 12.5 4.06265
      vertex 8.57143 12.5 4
    endloop
  endfacet
  facet normal 0 1 0
    outer loop
      vertex 8.55459 12.5 4.12434
      vertex 8.57143 12.5 4
      vertex 8.53379 12.5 4.18405
    endloop
  endfacet
  facet normal 0 1 0
    outer loop
      vertex 8.57143 12.5 4
      vertex 8.50515 12.5 4.24088
      vertex 8.53379 12.5 4.18405
    endloop
  endfacet
  facet normal 0 1 0
    outer loop
      vertex 8.42622 12.5 4.34227
      vertex 8.4691 12.5 4.29388
      vertex 8.57143 12.5 4
    endloop
  endfacet
  facet normal 0 1 0
    outer loop
      vertex 8.37719 12.5 4.38525
      vertex 8.57143 12.5 4
      vertex 8.32275 12.5 4.42215
    endloop
  endfacet
  facet normal 0 1 0
    outer loop
      vertex 8.57143 12.5 4
      vertex 8.20125 12.5 4.47552
      vertex 8.26379 12.5 4.45241
    endloop
  endfacet
  facet normal 0 1 0
    outer loop
      vertex 8.1361 12.5 4.49113
      vertex 8.20125 12.5 4.47552
      vertex 8.57143 12.5 4
    endloop
  endfacet
  facet normal 0 1 0
    outer loop
      vertex 8.1361 12.5 4.49113
      vertex 8.57143 12.5 4
      vertex 8.03571 12.5 4.49901
    endloop
  endfacet
  facet normal 0 1 0
    outer loop
      vertex 8.57143 12.5 4
      vertex 7.5 12.5 4
      vertex 8.03571 12.5 4.49901
    endloop
  endfacet
  facet normal 0 1 -0
    outer loop
      vertex 8.57143 12.5 -2
      vertex 7.5 12.5 -1.5858
      vertex 8.57143 12.5 4
    endloop
  endfacet
  facet normal 0 1 -0
    outer loop
      vertex 7.5 12.5 -3
      vertex 7.05621 12.5 -2
      vertex 7.5 12.5 -1.5858
    endloop
  endfacet
  facet normal 0 1 0
    outer loop
      vertex -8.42622 12.5 4.34227
      vertex -8.57143 12.5 4
      vertex -8.4691 12.5 4.29388
    endloop
  endfacet
  facet normal 0 1 0
    outer loop
      vertex -8.57143 12.5 4
      vertex -8.56719 12.5 4.06265
      vertex -8.55459 12.5 4.12434
    endloop
  endfacet
  facet normal 0 1 0
    outer loop
      vertex -8.57143 12.5 4
      vertex -8.55459 12.5 4.12434
      vertex -8.53379 12.5 4.18405
    endloop
  endfacet
  facet normal 0 1 0
    outer loop
      vertex -8.57143 12.5 4
      vertex -8.53379 12.5 4.18405
      vertex -8.50515 12.5 4.24088
    endloop
  endfacet
  facet normal 0 1 0
    outer loop
      vertex -8.57143 12.5 4
      vertex -8.50515 12.5 4.24088
      vertex -8.4691 12.5 4.29388
    endloop
  endfacet
  facet normal 0 1 0
    outer loop
      vertex -8.37719 12.5 4.38525
      vertex -8.57143 12.5 4
      vertex -8.42622 12.5 4.34227
    endloop
  endfacet
  facet normal 0 1 0
    outer loop
      vertex -8.32275 12.5 4.42215
      vertex -8.57143 12.5 4
      vertex -8.37719 12.5 4.38525
    endloop
  endfacet
  facet normal 0 1 0
    outer loop
      vertex -8.26379 12.5 4.45241
      vertex -8.57143 12.5 4
      vertex -8.32275 12.5 4.42215
    endloop
  endfacet
  facet normal 0 1 0
    outer loop
      vertex -8.20125 12.5 4.47552
      vertex -8.57143 12.5 4
      vertex -8.26379 12.5 4.45241
    endloop
  endfacet
  facet normal 0 1 0
    outer loop
      vertex -8.1361 12.5 4.49113
      vertex -8.57143 12.5 4
      vertex -8.20125 12.5 4.47552
    endloop
  endfacet
  facet normal -0 1 0
    outer loop
      vertex -8.06934 12.5 4.49901
      vertex -8.03571 12.5 4.49901
      vertex -8.1361 12.5 4.49113
    endloop
  endfacet
  facet normal 0 1 0
    outer loop
      vertex -7.5 12.5 4
      vertex -6.42857 12.5 4.5
      vertex -6.42857 12.5 4
    endloop
  endfacet
  facet normal 0 1 0
    outer loop
      vertex -7.5 12.5 4
      vertex -7.5 12.5 -1.49998
      vertex -8.57143 12.5 4
    endloop
  endfacet
  facet normal -0 1 0
    outer loop
      vertex -8.03571 12.5 4.5
      vertex -6.42857 12.5 4.5
      vertex -7.5 12.5 4
    endloop
  endfacet
  facet normal 0 1 0
    outer loop
      vertex -7.5 12.5 -1.49998
      vertex -8.57143 12.5 -2
      vertex -8.57143 12.5 4
    endloop
  endfacet
  facet normal 0 1 0
    outer loop
      vertex -8.03571 12.5 4.49901
      vertex -7.5 12.5 4
      vertex -8.57143 12.5 4
    endloop
  endfacet
  facet normal -0 1 0
    outer loop
      vertex -8.03571 12.5 4.49901
      vertex -8.03571 12.5 4.5
      vertex -7.5 12.5 4
    endloop
  endfacet
  facet normal 0 1 -0
    outer loop
      vertex -7.5 12.5 -3
      vertex -8.57143 12.5 -2
      vertex -7.5 12.5 -1.49998
    endloop
  endfacet
  facet normal 0 1 0
    outer loop
      vertex -7.5 12.5 -3
      vertex -6.96429 12.5 -2
      vertex 7.5 12.5 -3
    endloop
  endfacet
  facet normal 0 1 0
    outer loop
      vertex -7.5 12.5 -3
      vertex -7.5 12.5 -1.49998
      vertex -6.96429 12.5 -2
    endloop
  endfacet
  facet normal 0 1 0
    outer loop
      vertex 7.5 12.5 -3
      vertex -6.96429 12.5 -2
      vertex 7.05621 12.5 -2
    endloop
  endfacet
  facet normal 0 1 0
    outer loop
      vertex 7.5 12.5 -3
      vertex 7.5 12.5 -1.5858
      vertex 8.57143 12.5 -2
    endloop
  endfacet
  facet normal -0.999853 0.0171403 0
    outer loop
      vertex 6 -12.5 4.5
      vertex 6.42857 12.5 4
      vertex 6 -12.5 4
    endloop
  endfacet
  facet normal -0.999853 0.0171403 0
    outer loop
      vertex 6 -12.5 4.5
      vertex 6.42857 12.5 4.5
      vertex 6.42857 12.5 4
    endloop
  endfacet
  facet normal 0 0 1
    outer loop
      vertex 7.5 -12.5 4.5
      vertex 6.42857 12.5 4.5
      vertex 6 -12.5 4.5
    endloop
  endfacet
  facet normal 0 -0 1
    outer loop
      vertex 7.5 -12.5 4.5
      vertex 8.03571 12.5 4.5
      vertex 6.42857 12.5 4.5
    endloop
  endfacet
  facet normal 0.99977 -0.0214235 0
    outer loop
      vertex 7.5 -12.5 4.49901
      vertex 8.03571 12.5 4.5
      vertex 7.5 -12.5 4.5
    endloop
  endfacet
  facet normal 0.99977 -0.0214235 0
    outer loop
      vertex 7.5 -12.5 4.49901
      vertex 8.03571 12.5 4.49901
      vertex 8.03571 12.5 4.5
    endloop
  endfacet
  facet normal 0 -0 1
    outer loop
      vertex 7.53139 -12.5 4.49901
      vertex 8.03571 12.5 4.49901
      vertex 7.5 -12.5 4.49901
    endloop
  endfacet
  facet normal 0 0 1
    outer loop
      vertex 7.53139 -12.5 4.49901
      vertex 8.06934 12.5 4.49901
      vertex 8.03571 12.5 4.49901
    endloop
  endfacet
  facet normal 0.125484 -0.00270018 0.992092
    outer loop
      vertex 7.59369 -12.5 4.49113
      vertex 8.06934 12.5 4.49901
      vertex 7.53139 -12.5 4.49901
    endloop
  endfacet
  facet normal 0.117221 -0.00254327 0.993103
    outer loop
      vertex 7.59369 -12.5 4.49113
      vertex 8.1361 12.5 4.49113
      vertex 8.06934 12.5 4.49901
    endloop
  endfacet
  facet normal 0.248636 -0.00539451 0.968582
    outer loop
      vertex 7.6545 -12.5 4.47552
      vertex 8.1361 12.5 4.49113
      vertex 7.59369 -12.5 4.49113
    endloop
  endfacet
  facet normal 0.233003 -0.00509577 0.972463
    outer loop
      vertex 7.6545 -12.5 4.47552
      vertex 8.20125 12.5 4.47552
      vertex 8.1361 12.5 4.49113
    endloop
  endfacet
  facet normal 0.368054 -0.00804934 0.92977
    outer loop
      vertex 7.71288 -12.5 4.45241
      vertex 8.20125 12.5 4.47552
      vertex 7.6545 -12.5 4.47552
    endloop
  endfacet
  facet normal 0.346606 -0.00763794 0.93798
    outer loop
      vertex 7.71288 -12.5 4.45241
      vertex 8.26379 12.5 4.45241
      vertex 8.20125 12.5 4.47552
    endloop
  endfacet
  facet normal 0.481879 -0.0106189 0.876173
    outer loop
      vertex 7.7679 -12.5 4.42215
      vertex 8.26379 12.5 4.45241
      vertex 7.71288 -12.5 4.45241
    endloop
  endfacet
  facet normal 0.456581 -0.0101334 0.889624
    outer loop
      vertex 7.7679 -12.5 4.42215
      vertex 8.32275 12.5 4.42215
      vertex 8.26379 12.5 4.45241
    endloop
  endfacet
  facet normal 0.587572 -0.0130406 0.809067
    outer loop
      vertex 7.81871 -12.5 4.38525
      vertex 8.32275 12.5 4.42215
      vertex 7.7679 -12.5 4.42215
    endloop
  endfacet
  facet normal 0.561026 -0.0125329 0.827703
    outer loop
      vertex 7.81871 -12.5 4.38525
      vertex 8.37719 12.5 4.38525
      vertex 8.32275 12.5 4.42215
    endloop
  endfacet
  facet normal 0.684539 -0.0152921 0.728816
    outer loop
      vertex 7.86447 -12.5 4.34227
      vertex 8.37719 12.5 4.38525
      vertex 7.81871 -12.5 4.38525
    endloop
  endfacet
  facet normal 0.659116 -0.0148103 0.751895
    outer loop
      vertex 7.86447 -12.5 4.34227
      vertex 8.42622 12.5 4.34227
      vertex 8.37719 12.5 4.38525
    endloop
  endfacet
  facet normal 0.770411 -0.0173111 0.637313
    outer loop
      vertex 7.9045 -12.5 4.29388
      vertex 8.42622 12.5 4.34227
      vertex 7.86447 -12.5 4.34227
    endloop
  endfacet
  facet normal 0.748326 -0.0169002 0.663116
    outer loop
      vertex 7.9045 -12.5 4.29388
      vertex 8.4691 12.5 4.29388
      vertex 8.42622 12.5 4.34227
    endloop
  endfacet
  facet normal 0.844137 -0.019064 0.535788
    outer loop
      vertex 7.93814 -12.5 4.24088
      vertex 8.4691 12.5 4.29388
      vertex 7.9045 -12.5 4.29388
    endloop
  endfacet
  facet normal 0.826709 -0.0187501 0.562318
    outer loop
      vertex 7.93814 -12.5 4.24088
      vertex 8.50515 12.5 4.24088
      vertex 8.4691 12.5 4.29388
    endloop
  endfacet
  facet normal 0.904711 -0.0205192 0.425531
    outer loop
      vertex 7.96487 -12.5 4.18405
      vertex 8.50515 12.5 4.24088
      vertex 7.93814 -12.5 4.24088
    endloop
  endfacet
  facet normal 0.892824 -0.0203178 0.449947
    outer loop
      vertex 7.96487 -12.5 4.18405
      vertex 8.53379 12.5 4.18405
      vertex 8.50515 12.5 4.24088
    endloop
  endfacet
  facet normal 0.950792 -0.021637 0.309075
    outer loop
      vertex 7.98428 -12.5 4.12434
      vertex 8.53379 12.5 4.18405
      vertex 7.96487 -12.5 4.18405
    endloop
  endfacet
  facet normal 0.944124 -0.0215377 0.328886
    outer loop
      vertex 7.98428 -12.5 4.12434
      vertex 8.55459 12.5 4.12434
      vertex 8.53379 12.5 4.18405
    endloop
  endfacet
  facet normal 0.982035 -0.0224026 0.187365
    outer loop
      vertex 7.99605 -12.5 4.06265
      vertex 8.55459 12.5 4.12434
      vertex 7.98428 -12.5 4.12434
    endloop
  endfacet
  facet normal 0.979527 -0.0223779 0.200065
    outer loop
      vertex 7.99605 -12.5 4.06265
      vertex 8.56719 12.5 4.06265
      vertex 8.55459 12.5 4.12434
    endloop
  endfacet
  facet normal 0.997759 -0.0227944 0.0629074
    outer loop
      vertex 8 -12.5 4
      vertex 8.56719 12.5 4.06265
      vertex 7.99605 -12.5 4.06265
    endloop
  endfacet
  facet normal 0.997458 -0.0227991 0.0675056
    outer loop
      vertex 8 -12.5 4
      vertex 8.57143 12.5 4
      vertex 8.56719 12.5 4.06265
    endloop
  endfacet
  facet normal 0.999739 -0.0228512 0
    outer loop
      vertex 8 -12.5 -2
      vertex 8.57143 12.5 4
      vertex 8 -12.5 4
    endloop
  endfacet
  facet normal 0.999739 -0.0228512 0
    outer loop
      vertex 8 -12.5 -2
      vertex 8.57143 12.5 -2
      vertex 8.57143 12.5 4
    endloop
  endfacet
  facet normal 0.707014 -0.0161604 -0.707014
    outer loop
      vertex 7 -12.5 -3
      vertex 8.57143 12.5 -2
      vertex 8 -12.5 -2
    endloop
  endfacet
  facet normal 0.682254 -0.0136451 -0.730988
    outer loop
      vertex 7 -12.5 -3
      vertex 7.5 12.5 -3
      vertex 8.57143 12.5 -2
    endloop
  endfacet
  facet normal 0 0 -1
    outer loop
      vertex -7 -12.5 -3
      vertex 7.5 12.5 -3
      vertex 7 -12.5 -3
    endloop
  endfacet
  facet normal 0 0 -1
    outer loop
      vertex -7 -12.5 -3
      vertex -7.5 12.5 -3
      vertex 7.5 12.5 -3
    endloop
  endfacet
  facet normal -0.707036 -0.0141407 -0.707036
    outer loop
      vertex -8 -12.5 -2
      vertex -7.5 12.5 -3
      vertex -7 -12.5 -3
    endloop
  endfacet
  facet normal -0.682235 -0.015594 -0.730967
    outer loop
      vertex -8 -12.5 -2
      vertex -8.57143 12.5 -2
      vertex -7.5 12.5 -3
    endloop
  endfacet
  facet normal -0.999739 -0.0228512 -0
    outer loop
      vertex -8 -12.5 4
      vertex -8.57143 12.5 -2
      vertex -8 -12.5 -2
    endloop
  endfacet
  facet normal -0.999739 -0.0228512 0
    outer loop
      vertex -8 -12.5 4
      vertex -8.57143 12.5 4
      vertex -8.57143 12.5 -2
    endloop
  endfacet
  facet normal -0.997759 -0.022806 0.0629074
    outer loop
      vertex -7.99605 -12.5 4.06265
      vertex -8.57143 12.5 4
      vertex -8 -12.5 4
    endloop
  endfacet
  facet normal -0.997459 -0.0227875 0.0675056
    outer loop
      vertex -7.99605 -12.5 4.06265
      vertex -8.56719 12.5 4.06265
      vertex -8.57143 12.5 4
    endloop
  endfacet
  facet normal -0.982034 -0.0224352 0.187365
    outer loop
      vertex -7.98428 -12.5 4.12434
      vertex -8.56719 12.5 4.06265
      vertex -7.99605 -12.5 4.06265
    endloop
  endfacet
  facet normal -0.979528 -0.0223454 0.200066
    outer loop
      vertex -7.98428 -12.5 4.12434
      vertex -8.55459 12.5 4.12434
      vertex -8.56719 12.5 4.06265
    endloop
  endfacet
  facet normal -0.95079 -0.0216898 0.309075
    outer loop
      vertex -7.96487 -12.5 4.18405
      vertex -8.55459 12.5 4.12434
      vertex -7.98428 -12.5 4.12434
    endloop
  endfacet
  facet normal -0.944125 -0.0214853 0.328886
    outer loop
      vertex -7.96487 -12.5 4.18405
      vertex -8.53379 12.5 4.18405
      vertex -8.55459 12.5 4.12434
    endloop
  endfacet
  facet normal -0.90471 -0.0205883 0.42553
    outer loop
      vertex -7.93814 -12.5 4.24088
      vertex -8.53379 12.5 4.18405
      vertex -7.96487 -12.5 4.18405
    endloop
  endfacet
  facet normal -0.892825 -0.0202496 0.449948
    outer loop
      vertex -7.93814 -12.5 4.24088
      vertex -8.50515 12.5 4.24088
      vertex -8.53379 12.5 4.18405
    endloop
  endfacet
  facet normal -0.844136 -0.0191453 0.535787
    outer loop
      vertex -7.9045 -12.5 4.29388
      vertex -8.50515 12.5 4.24088
      vertex -7.93814 -12.5 4.24088
    endloop
  endfacet
  facet normal -0.82671 -0.0186704 0.562319
    outer loop
      vertex -7.9045 -12.5 4.29388
      vertex -8.4691 12.5 4.29388
      vertex -8.50515 12.5 4.24088
    endloop
  endfacet
  facet normal -0.77041 -0.0173989 0.637312
    outer loop
      vertex -7.86447 -12.5 4.34227
      vertex -8.4691 12.5 4.29388
      vertex -7.9045 -12.5 4.29388
    endloop
  endfacet
  facet normal -0.748327 -0.0168149 0.663117
    outer loop
      vertex -7.86447 -12.5 4.34227
      vertex -8.42622 12.5 4.34227
      vertex -8.4691 12.5 4.29388
    endloop
  endfacet
  facet normal -0.684538 -0.0153816 0.728815
    outer loop
      vertex -7.81871 -12.5 4.38525
      vertex -8.42622 12.5 4.34227
      vertex -7.86447 -12.5 4.34227
    endloop
  endfacet
  facet normal -0.659117 -0.0147241 0.751896
    outer loop
      vertex -7.81871 -12.5 4.38525
      vertex -8.37719 12.5 4.38525
      vertex -8.42622 12.5 4.34227
    endloop
  endfacet
  facet normal -0.587572 -0.0131259 0.809066
    outer loop
      vertex -7.7679 -12.5 4.42215
      vertex -8.37719 12.5 4.38525
      vertex -7.81871 -12.5 4.38525
    endloop
  endfacet
  facet normal -0.561027 -0.0124514 0.827704
    outer loop
      vertex -7.7679 -12.5 4.42215
      vertex -8.32275 12.5 4.42215
      vertex -8.37719 12.5 4.38525
    endloop
  endfacet
  facet normal -0.481879 -0.0106948 0.876173
    outer loop
      vertex -7.71288 -12.5 4.45241
      vertex -8.32275 12.5 4.42215
      vertex -7.7679 -12.5 4.42215
    endloop
  endfacet
  facet normal -0.456581 -0.0100614 0.889625
    outer loop
      vertex -7.71288 -12.5 4.45241
      vertex -8.26379 12.5 4.45241
      vertex -8.32275 12.5 4.42215
    endloop
  endfacet
  facet normal -0.368054 -0.00811058 0.929769
    outer loop
      vertex -7.6545 -12.5 4.47552
      vertex -8.26379 12.5 4.45241
      vertex -7.71288 -12.5 4.45241
    endloop
  endfacet
  facet normal -0.346606 -0.00758027 0.93798
    outer loop
      vertex -7.6545 -12.5 4.47552
      vertex -8.20125 12.5 4.47552
      vertex -8.26379 12.5 4.45241
    endloop
  endfacet
  facet normal -0.248636 -0.00543767 0.968582
    outer loop
      vertex -7.59369 -12.5 4.49113
      vertex -8.20125 12.5 4.47552
      vertex -7.6545 -12.5 4.47552
    endloop
  endfacet
  facet normal -0.233003 -0.00505533 0.972463
    outer loop
      vertex -7.59369 -12.5 4.49113
      vertex -8.1361 12.5 4.49113
      vertex -8.20125 12.5 4.47552
    endloop
  endfacet
  facet normal -0.125484 -0.00272256 0.992092
    outer loop
      vertex -7.53139 -12.5 4.49901
      vertex -8.1361 12.5 4.49113
      vertex -7.59369 -12.5 4.49113
    endloop
  endfacet
  facet normal -0.117221 -0.00252235 0.993103
    outer loop
      vertex -7.53139 -12.5 4.49901
      vertex -8.06934 12.5 4.49901
      vertex -8.1361 12.5 4.49113
    endloop
  endfacet
  facet normal 0 0 1
    outer loop
      vertex -7.5 -12.5 4.49901
      vertex -8.06934 12.5 4.49901
      vertex -7.53139 -12.5 4.49901
    endloop
  endfacet
  facet normal 0 0 1
    outer loop
      vertex -7.5 -12.5 4.49901
      vertex -8.03571 12.5 4.49901
      vertex -8.06934 12.5 4.49901
    endloop
  endfacet
  facet normal -0.99977 -0.0214235 -0
    outer loop
      vertex -7.5 -12.5 4.5
      vertex -8.03571 12.5 4.49901
      vertex -7.5 -12.5 4.49901
    endloop
  endfacet
  facet normal -0.99977 -0.0214235 0
    outer loop
      vertex -7.5 -12.5 4.5
      vertex -8.03571 12.5 4.5
      vertex -8.03571 12.5 4.49901
    endloop
  endfacet
  facet normal 0 0 1
    outer loop
      vertex -6 -12.5 4.5
      vertex -8.03571 12.5 4.5
      vertex -7.5 -12.5 4.5
    endloop
  endfacet
  facet normal 0 0 1
    outer loop
      vertex -6 -12.5 4.5
      vertex -6.42857 12.5 4.5
      vertex -8.03571 12.5 4.5
    endloop
  endfacet
  facet normal 0.999853 0.0171403 -0
    outer loop
      vertex -6 -12.5 4
      vertex -6.42857 12.5 4.5
      vertex -6 -12.5 4.5
    endloop
  endfacet
  facet normal 0.999853 0.0171403 0
    outer loop
      vertex -6 -12.5 4
      vertex -6.42857 12.5 4
      vertex -6.42857 12.5 4.5
    endloop
  endfacet
  facet normal 0 0 -1
    outer loop
      vertex -7 -12.5 4
      vertex -6.42857 12.5 4
      vertex -6 -12.5 4
    endloop
  endfacet
  facet normal 0 0 -1
    outer loop
      vertex -7 -12.5 4
      vertex -7.5 12.5 4
      vertex -6.42857 12.5 4
    endloop
  endfacet
  facet normal 0.9998 0.019996 -0
    outer loop
      vertex -7 -12.5 -1.49998
      vertex -7.5 12.5 4
      vertex -7 -12.5 4
    endloop
  endfacet
  facet normal 0.9998 0.019996 0
    outer loop
      vertex -7 -12.5 -1.49998
      vertex -7.5 12.5 -1.49998
      vertex -7.5 12.5 4
    endloop
  endfacet
  facet normal 0.70705 0.014141 0.707022
    outer loop
      vertex -6.5 -12.5 -2
      vertex -7.5 12.5 -1.49998
      vertex -7 -12.5 -1.49998
    endloop
  endfacet
  facet normal 0.682281 0.012671 0.73098
    outer loop
      vertex -6.5 -12.5 -2
      vertex -6.96429 12.5 -2
      vertex -7.5 12.5 -1.49998
    endloop
  endfacet
  facet normal 0 0 1
    outer loop
      vertex 6.5858 -12.5 -2
      vertex -6.96429 12.5 -2
      vertex -6.5 -12.5 -2
    endloop
  endfacet
  facet normal 0 -0 1
    outer loop
      vertex 6.5858 -12.5 -2
      vertex 7.05621 12.5 -2
      vertex -6.96429 12.5 -2
    endloop
  endfacet
  facet normal -0.707044 0.013304 0.707044
    outer loop
      vertex 7 -12.5 -1.5858
      vertex 7.05621 12.5 -2
      vertex 6.5858 -12.5 -2
    endloop
  endfacet
  facet normal -0.682251 0.013645 0.73099
    outer loop
      vertex 7 -12.5 -1.5858
      vertex 7.5 12.5 -1.5858
      vertex 7.05621 12.5 -2
    endloop
  endfacet
  facet normal -0.9998 0.019996 0
    outer loop
      vertex 7 -12.5 4
      vertex 7.5 12.5 -1.5858
      vertex 7 -12.5 -1.5858
    endloop
  endfacet
  facet normal -0.9998 0.019996 0
    outer loop
      vertex 7 -12.5 4
      vertex 7.5 12.5 4
      vertex 7.5 12.5 -1.5858
    endloop
  endfacet
  facet normal 0 0 -1
    outer loop
      vertex 6 -12.5 4
      vertex 7.5 12.5 4
      vertex 7 -12.5 4
    endloop
  endfacet
  facet normal 0 0 -1
    outer loop
      vertex 6 -12.5 4
      vertex 6.42857 12.5 4
      vertex 7.5 12.5 4
    endloop
  endfacet
endsolid OpenSCAD_Model
