solid OpenSCAD_Model
  facet normal 0.146716 0.989179 -0
    outer loop
      vertex 9.65697 48.5489 -2
      vertex 4.85185 49.2616 2
      vertex 9.65697 48.5489 2
    endloop
  endfacet
  facet normal 0.146716 0.989179 0
    outer loop
      vertex 4.85185 49.2616 2
      vertex 9.65697 48.5489 -2
      vertex 4.85185 49.2616 -2
    endloop
  endfacet
  facet normal 0.989179 0.146716 0
    outer loop
      vertex 49.2616 4.85185 2
      vertex 48.5489 9.65697 -2
      vertex 48.5489 9.65697 2
    endloop
  endfacet
  facet normal 0.989179 0.146716 0
    outer loop
      vertex 48.5489 9.65697 -2
      vertex 49.2616 4.85185 2
      vertex 49.2616 4.85185 -2
    endloop
  endfacet
  facet normal 0.998795 0.0490767 0
    outer loop
      vertex 49.5 0 2
      vertex 49.2616 4.85185 -2
      vertex 49.2616 4.85185 2
    endloop
  endfacet
  facet normal 0.998795 0.0490767 0
    outer loop
      vertex 49.2616 4.85185 -2
      vertex 49.5 0 2
      vertex 49.5 0 -2
    endloop
  endfacet
  facet normal 0.970028 0.242994 0
    outer loop
      vertex 48.5489 9.65697 2
      vertex 47.3685 14.3691 -2
      vertex 47.3685 14.3691 2
    endloop
  endfacet
  facet normal 0.970028 0.242994 0
    outer loop
      vertex 47.3685 14.3691 -2
      vertex 48.5489 9.65697 2
      vertex 48.5489 9.65697 -2
    endloop
  endfacet
  facet normal 0.336891 -0.941544 0
    outer loop
      vertex 14.3691 -47.3685 -2
      vertex 18.9428 -45.732 2
      vertex 14.3691 -47.3685 2
    endloop
  endfacet
  facet normal 0.336891 -0.941544 0
    outer loop
      vertex 18.9428 -45.732 2
      vertex 14.3691 -47.3685 -2
      vertex 18.9428 -45.732 -2
    endloop
  endfacet
  facet normal 0.903992 -0.42755 0
    outer loop
      vertex 43.6551 -23.3341 2
      vertex 45.732 -18.9428 -2
      vertex 45.732 -18.9428 2
    endloop
  endfacet
  facet normal 0.903992 -0.42755 0
    outer loop
      vertex 45.732 -18.9428 -2
      vertex 43.6551 -23.3341 2
      vertex 43.6551 -23.3341 -2
    endloop
  endfacet
  facet normal 0.671557 0.740953 -0
    outer loop
      vertex 35.0018 35.0018 -2
      vertex 31.4025 38.264 2
      vertex 35.0018 35.0018 2
    endloop
  endfacet
  facet normal 0.671557 0.740953 0
    outer loop
      vertex 31.4025 38.264 2
      vertex 35.0018 35.0018 -2
      vertex 31.4025 38.264 -2
    endloop
  endfacet
  facet normal -0.740953 0.671557 0
    outer loop
      vertex -38.264 31.4025 -2
      vertex -35.0018 35.0018 2
      vertex -35.0018 35.0018 -2
    endloop
  endfacet
  facet normal -0.740953 0.671557 0
    outer loop
      vertex -35.0018 35.0018 2
      vertex -38.264 31.4025 -2
      vertex -38.264 31.4025 2
    endloop
  endfacet
  facet normal -0.146716 -0.989179 0
    outer loop
      vertex -9.65697 -48.5489 -2
      vertex -4.85185 -49.2616 2
      vertex -9.65697 -48.5489 2
    endloop
  endfacet
  facet normal -0.146716 -0.989179 -0
    outer loop
      vertex -4.85185 -49.2616 2
      vertex -9.65697 -48.5489 -2
      vertex -4.85185 -49.2616 -2
    endloop
  endfacet
  facet normal 0.941544 0.336891 0
    outer loop
      vertex 47.3685 14.3691 2
      vertex 45.732 18.9428 -2
      vertex 45.732 18.9428 2
    endloop
  endfacet
  facet normal 0.941544 0.336891 0
    outer loop
      vertex 45.732 18.9428 -2
      vertex 47.3685 14.3691 2
      vertex 47.3685 14.3691 -2
    endloop
  endfacet
  facet normal -0.0490767 0.998795 0
    outer loop
      vertex 0 49.5 -2
      vertex -4.85185 49.2616 2
      vertex 0 49.5 2
    endloop
  endfacet
  facet normal -0.0490767 0.998795 0
    outer loop
      vertex -4.85185 49.2616 2
      vertex 0 49.5 -2
      vertex -4.85185 49.2616 -2
    endloop
  endfacet
  facet normal 0.803215 0.59569 0
    outer loop
      vertex 41.1577 27.5007 2
      vertex 38.264 31.4025 -2
      vertex 38.264 31.4025 2
    endloop
  endfacet
  facet normal 0.803215 0.59569 0
    outer loop
      vertex 38.264 31.4025 -2
      vertex 41.1577 27.5007 2
      vertex 41.1577 27.5007 -2
    endloop
  endfacet
  facet normal 0.0490767 -0.998795 0
    outer loop
      vertex 0 -49.5 -2
      vertex 4.85185 -49.2616 2
      vertex 0 -49.5 2
    endloop
  endfacet
  facet normal 0.0490767 -0.998795 0
    outer loop
      vertex 4.85185 -49.2616 2
      vertex 0 -49.5 -2
      vertex 4.85185 -49.2616 -2
    endloop
  endfacet
  facet normal 0.0490767 0.998795 -0
    outer loop
      vertex 4.85185 49.2616 -2
      vertex 0 49.5 2
      vertex 4.85185 49.2616 2
    endloop
  endfacet
  facet normal 0.0490767 0.998795 0
    outer loop
      vertex 0 49.5 2
      vertex 4.85185 49.2616 -2
      vertex 0 49.5 -2
    endloop
  endfacet
  facet normal 0.857725 -0.514108 0
    outer loop
      vertex 41.1577 -27.5007 2
      vertex 43.6551 -23.3341 -2
      vertex 43.6551 -23.3341 2
    endloop
  endfacet
  facet normal 0.857725 -0.514108 0
    outer loop
      vertex 43.6551 -23.3341 -2
      vertex 41.1577 -27.5007 2
      vertex 41.1577 -27.5007 -2
    endloop
  endfacet
  facet normal -0.59569 -0.803215 0
    outer loop
      vertex -31.4025 -38.264 -2
      vertex -27.5007 -41.1577 2
      vertex -31.4025 -38.264 2
    endloop
  endfacet
  facet normal -0.59569 -0.803215 -0
    outer loop
      vertex -27.5007 -41.1577 2
      vertex -31.4025 -38.264 -2
      vertex -27.5007 -41.1577 -2
    endloop
  endfacet
  facet normal -0.857725 0.514108 0
    outer loop
      vertex -43.6551 23.3341 -2
      vertex -41.1577 27.5007 2
      vertex -41.1577 27.5007 -2
    endloop
  endfacet
  facet normal -0.857725 0.514108 0
    outer loop
      vertex -41.1577 27.5007 2
      vertex -43.6551 23.3341 -2
      vertex -43.6551 23.3341 2
    endloop
  endfacet
  facet normal -0.242994 -0.970028 0
    outer loop
      vertex -14.3691 -47.3685 -2
      vertex -9.65697 -48.5489 2
      vertex -14.3691 -47.3685 2
    endloop
  endfacet
  facet normal -0.242994 -0.970028 -0
    outer loop
      vertex -9.65697 -48.5489 2
      vertex -14.3691 -47.3685 -2
      vertex -9.65697 -48.5489 -2
    endloop
  endfacet
  facet normal 0.857725 0.514108 0
    outer loop
      vertex 43.6551 23.3341 2
      vertex 41.1577 27.5007 -2
      vertex 41.1577 27.5007 2
    endloop
  endfacet
  facet normal 0.857725 0.514108 0
    outer loop
      vertex 41.1577 27.5007 -2
      vertex 43.6551 23.3341 2
      vertex 43.6551 23.3341 -2
    endloop
  endfacet
  facet normal -0.998795 -0.0490767 0
    outer loop
      vertex -49.2616 -4.85185 -2
      vertex -49.5 0 2
      vertex -49.5 0 -2
    endloop
  endfacet
  facet normal -0.998795 -0.0490767 0
    outer loop
      vertex -49.5 0 2
      vertex -49.2616 -4.85185 -2
      vertex -49.2616 -4.85185 2
    endloop
  endfacet
  facet normal 0.903992 0.42755 0
    outer loop
      vertex 45.732 18.9428 2
      vertex 43.6551 23.3341 -2
      vertex 43.6551 23.3341 2
    endloop
  endfacet
  facet normal 0.903992 0.42755 0
    outer loop
      vertex 43.6551 23.3341 -2
      vertex 45.732 18.9428 2
      vertex 45.732 18.9428 -2
    endloop
  endfacet
  facet normal 0.970028 -0.242994 0
    outer loop
      vertex 47.3685 -14.3691 2
      vertex 48.5489 -9.65697 -2
      vertex 48.5489 -9.65697 2
    endloop
  endfacet
  facet normal 0.970028 -0.242994 0
    outer loop
      vertex 48.5489 -9.65697 -2
      vertex 47.3685 -14.3691 2
      vertex 47.3685 -14.3691 -2
    endloop
  endfacet
  facet normal -0.970028 0.242994 0
    outer loop
      vertex -48.5489 9.65697 -2
      vertex -47.3685 14.3691 2
      vertex -47.3685 14.3691 -2
    endloop
  endfacet
  facet normal -0.970028 0.242994 0
    outer loop
      vertex -47.3685 14.3691 2
      vertex -48.5489 9.65697 -2
      vertex -48.5489 9.65697 2
    endloop
  endfacet
  facet normal -0.42755 -0.903992 0
    outer loop
      vertex -23.3341 -43.6551 -2
      vertex -18.9428 -45.732 2
      vertex -23.3341 -43.6551 2
    endloop
  endfacet
  facet normal -0.42755 -0.903992 -0
    outer loop
      vertex -18.9428 -45.732 2
      vertex -23.3341 -43.6551 -2
      vertex -18.9428 -45.732 -2
    endloop
  endfacet
  facet normal -0.970028 -0.242994 0
    outer loop
      vertex -47.3685 -14.3691 -2
      vertex -48.5489 -9.65697 2
      vertex -48.5489 -9.65697 -2
    endloop
  endfacet
  facet normal -0.970028 -0.242994 0
    outer loop
      vertex -48.5489 -9.65697 2
      vertex -47.3685 -14.3691 -2
      vertex -47.3685 -14.3691 2
    endloop
  endfacet
  facet normal 0.336891 0.941544 -0
    outer loop
      vertex 18.9428 45.732 -2
      vertex 14.3691 47.3685 2
      vertex 18.9428 45.732 2
    endloop
  endfacet
  facet normal 0.336891 0.941544 0
    outer loop
      vertex 14.3691 47.3685 2
      vertex 18.9428 45.732 -2
      vertex 14.3691 47.3685 -2
    endloop
  endfacet
  facet normal 0.989179 -0.146716 0
    outer loop
      vertex 48.5489 -9.65697 2
      vertex 49.2616 -4.85185 -2
      vertex 49.2616 -4.85185 2
    endloop
  endfacet
  facet normal 0.989179 -0.146716 0
    outer loop
      vertex 49.2616 -4.85185 -2
      vertex 48.5489 -9.65697 2
      vertex 48.5489 -9.65697 -2
    endloop
  endfacet
  facet normal -0.146716 0.989179 0
    outer loop
      vertex -4.85185 49.2616 -2
      vertex -9.65697 48.5489 2
      vertex -4.85185 49.2616 2
    endloop
  endfacet
  facet normal -0.146716 0.989179 0
    outer loop
      vertex -9.65697 48.5489 2
      vertex -4.85185 49.2616 -2
      vertex -9.65697 48.5489 -2
    endloop
  endfacet
  facet normal 0.42755 -0.903992 0
    outer loop
      vertex 18.9428 -45.732 -2
      vertex 23.3341 -43.6551 2
      vertex 18.9428 -45.732 2
    endloop
  endfacet
  facet normal 0.42755 -0.903992 0
    outer loop
      vertex 23.3341 -43.6551 2
      vertex 18.9428 -45.732 -2
      vertex 23.3341 -43.6551 -2
    endloop
  endfacet
  facet normal -0.671557 0.740953 0
    outer loop
      vertex -31.4025 38.264 -2
      vertex -35.0018 35.0018 2
      vertex -31.4025 38.264 2
    endloop
  endfacet
  facet normal -0.671557 0.740953 0
    outer loop
      vertex -35.0018 35.0018 2
      vertex -31.4025 38.264 -2
      vertex -35.0018 35.0018 -2
    endloop
  endfacet
  facet normal 0 0 -1
    outer loop
      vertex 12.375 0 -2
      vertex 49.5 0 -2
      vertex 49.2616 -4.85185 -2
    endloop
  endfacet
  facet normal 0 0 -1
    outer loop
      vertex 12.3154 -1.21296 -2
      vertex 49.2616 -4.85185 -2
      vertex 48.5489 -9.65697 -2
    endloop
  endfacet
  facet normal 0 0 -1
    outer loop
      vertex 49.5 0 -2
      vertex 12.375 0 -2
      vertex 49.2616 4.85185 -2
    endloop
  endfacet
  facet normal 0 0 -1
    outer loop
      vertex 12.1372 -2.41424 -2
      vertex 48.5489 -9.65697 -2
      vertex 47.3685 -14.3691 -2
    endloop
  endfacet
  facet normal 0 0 -1
    outer loop
      vertex 12.3154 1.21296 -2
      vertex 49.2616 4.85185 -2
      vertex 12.375 0 -2
    endloop
  endfacet
  facet normal 0 0 -1
    outer loop
      vertex 11.8421 -3.59227 -2
      vertex 47.3685 -14.3691 -2
      vertex 45.732 -18.9428 -2
    endloop
  endfacet
  facet normal -0 0 -1
    outer loop
      vertex 49.2616 4.85185 -2
      vertex 12.3154 1.21296 -2
      vertex 48.5489 9.65697 -2
    endloop
  endfacet
  facet normal 0 0 -1
    outer loop
      vertex 11.433 -4.73571 -2
      vertex 45.732 -18.9428 -2
      vertex 43.6551 -23.3341 -2
    endloop
  endfacet
  facet normal 0 0 -1
    outer loop
      vertex 12.1372 2.41424 -2
      vertex 48.5489 9.65697 -2
      vertex 12.3154 1.21296 -2
    endloop
  endfacet
  facet normal 0 0 -1
    outer loop
      vertex 10.9138 -5.83353 -2
      vertex 43.6551 -23.3341 -2
      vertex 41.1577 -27.5007 -2
    endloop
  endfacet
  facet normal -0 0 -1
    outer loop
      vertex 48.5489 9.65697 -2
      vertex 12.1372 2.41424 -2
      vertex 47.3685 14.3691 -2
    endloop
  endfacet
  facet normal 0 0 -1
    outer loop
      vertex 10.2894 -6.87518 -2
      vertex 41.1577 -27.5007 -2
      vertex 38.264 -31.4025 -2
    endloop
  endfacet
  facet normal 0 0 -1
    outer loop
      vertex 11.8421 3.59227 -2
      vertex 47.3685 14.3691 -2
      vertex 12.1372 2.41424 -2
    endloop
  endfacet
  facet normal 0 0 -1
    outer loop
      vertex 9.566 -7.85062 -2
      vertex 38.264 -31.4025 -2
      vertex 35.0018 -35.0018 -2
    endloop
  endfacet
  facet normal -0 0 -1
    outer loop
      vertex 47.3685 14.3691 -2
      vertex 11.8421 3.59227 -2
      vertex 45.732 18.9428 -2
    endloop
  endfacet
  facet normal 0 0 -1
    outer loop
      vertex 8.75045 -8.75045 -2
      vertex 35.0018 -35.0018 -2
      vertex 31.4025 -38.264 -2
    endloop
  endfacet
  facet normal 0 0 -1
    outer loop
      vertex 11.433 4.73571 -2
      vertex 45.732 18.9428 -2
      vertex 11.8421 3.59227 -2
    endloop
  endfacet
  facet normal 0 0 -1
    outer loop
      vertex 7.85062 -9.566 -2
      vertex 31.4025 -38.264 -2
      vertex 27.5007 -41.1577 -2
    endloop
  endfacet
  facet normal -0 0 -1
    outer loop
      vertex 45.732 18.9428 -2
      vertex 11.433 4.73571 -2
      vertex 43.6551 23.3341 -2
    endloop
  endfacet
  facet normal 0 0 -1
    outer loop
      vertex 6.87518 -10.2894 -2
      vertex 27.5007 -41.1577 -2
      vertex 23.3341 -43.6551 -2
    endloop
  endfacet
  facet normal 0 0 -1
    outer loop
      vertex 10.9138 5.83353 -2
      vertex 43.6551 23.3341 -2
      vertex 11.433 4.73571 -2
    endloop
  endfacet
  facet normal 0 0 -1
    outer loop
      vertex 5.83353 -10.9138 -2
      vertex 23.3341 -43.6551 -2
      vertex 18.9428 -45.732 -2
    endloop
  endfacet
  facet normal -0 0 -1
    outer loop
      vertex 43.6551 23.3341 -2
      vertex 10.9138 5.83353 -2
      vertex 41.1577 27.5007 -2
    endloop
  endfacet
  facet normal 0 0 -1
    outer loop
      vertex 4.73571 -11.433 -2
      vertex 18.9428 -45.732 -2
      vertex 14.3691 -47.3685 -2
    endloop
  endfacet
  facet normal 0 0 -1
    outer loop
      vertex 10.2894 6.87518 -2
      vertex 41.1577 27.5007 -2
      vertex 10.9138 5.83353 -2
    endloop
  endfacet
  facet normal -0 0 -1
    outer loop
      vertex 41.1577 27.5007 -2
      vertex 10.2894 6.87518 -2
      vertex 38.264 31.4025 -2
    endloop
  endfacet
  facet normal 0 0 -1
    outer loop
      vertex 49.2616 -4.85185 -2
      vertex 12.3154 -1.21296 -2
      vertex 12.375 0 -2
    endloop
  endfacet
  facet normal 0 0 -1
    outer loop
      vertex 48.5489 -9.65697 -2
      vertex 12.1372 -2.41424 -2
      vertex 12.3154 -1.21296 -2
    endloop
  endfacet
  facet normal 0 0 -1
    outer loop
      vertex 47.3685 -14.3691 -2
      vertex 11.8421 -3.59227 -2
      vertex 12.1372 -2.41424 -2
    endloop
  endfacet
  facet normal 0 0 -1
    outer loop
      vertex 45.732 -18.9428 -2
      vertex 11.433 -4.73571 -2
      vertex 11.8421 -3.59227 -2
    endloop
  endfacet
  facet normal 0 0 -1
    outer loop
      vertex 43.6551 -23.3341 -2
      vertex 10.9138 -5.83353 -2
      vertex 11.433 -4.73571 -2
    endloop
  endfacet
  facet normal 0 0 -1
    outer loop
      vertex 41.1577 -27.5007 -2
      vertex 10.2894 -6.87518 -2
      vertex 10.9138 -5.83353 -2
    endloop
  endfacet
  facet normal 0 0 -1
    outer loop
      vertex 3.59227 -11.8421 -2
      vertex 14.3691 -47.3685 -2
      vertex 9.65697 -48.5489 -2
    endloop
  endfacet
  facet normal 0 0 -1
    outer loop
      vertex 38.264 -31.4025 -2
      vertex 9.566 -7.85062 -2
      vertex 10.2894 -6.87518 -2
    endloop
  endfacet
  facet normal 0 0 -1
    outer loop
      vertex 35.0018 -35.0018 -2
      vertex 8.75045 -8.75045 -2
      vertex 9.566 -7.85062 -2
    endloop
  endfacet
  facet normal 0 0 -1
    outer loop
      vertex 31.4025 -38.264 -2
      vertex 7.85062 -9.566 -2
      vertex 8.75045 -8.75045 -2
    endloop
  endfacet
  facet normal 0 0 -1
    outer loop
      vertex 27.5007 -41.1577 -2
      vertex 6.87518 -10.2894 -2
      vertex 7.85062 -9.566 -2
    endloop
  endfacet
  facet normal 0 0 -1
    outer loop
      vertex 23.3341 -43.6551 -2
      vertex 5.83353 -10.9138 -2
      vertex 6.87518 -10.2894 -2
    endloop
  endfacet
  facet normal 0 0 -1
    outer loop
      vertex 2.41424 -12.1372 -2
      vertex 9.65697 -48.5489 -2
      vertex 4.85185 -49.2616 -2
    endloop
  endfacet
  facet normal 0 0 -1
    outer loop
      vertex 18.9428 -45.732 -2
      vertex 4.73571 -11.433 -2
      vertex 5.83353 -10.9138 -2
    endloop
  endfacet
  facet normal 0 0 -1
    outer loop
      vertex 14.3691 -47.3685 -2
      vertex 3.59227 -11.8421 -2
      vertex 4.73571 -11.433 -2
    endloop
  endfacet
  facet normal 0 0 -1
    outer loop
      vertex 9.65697 -48.5489 -2
      vertex 2.41424 -12.1372 -2
      vertex 3.59227 -11.8421 -2
    endloop
  endfacet
  facet normal 0 0 -1
    outer loop
      vertex 4.85185 -49.2616 -2
      vertex 1.21296 -12.3154 -2
      vertex 2.41424 -12.1372 -2
    endloop
  endfacet
  facet normal 0 0 -1
    outer loop
      vertex 0 -49.5 -2
      vertex 1.21296 -12.3154 -2
      vertex 4.85185 -49.2616 -2
    endloop
  endfacet
  facet normal 0 0 -1
    outer loop
      vertex 0 -49.5 -2
      vertex 0 -12.375 -2
      vertex 1.21296 -12.3154 -2
    endloop
  endfacet
  facet normal 0 0 -1
    outer loop
      vertex 0 -49.5 -2
      vertex -1.21296 -12.3154 -2
      vertex 0 -12.375 -2
    endloop
  endfacet
  facet normal 0 0 -1
    outer loop
      vertex -4.85185 -49.2616 -2
      vertex -1.21296 -12.3154 -2
      vertex 0 -49.5 -2
    endloop
  endfacet
  facet normal -0 0 -1
    outer loop
      vertex -1.21296 -12.3154 -2
      vertex -4.85185 -49.2616 -2
      vertex -2.41424 -12.1372 -2
    endloop
  endfacet
  facet normal 0 0 -1
    outer loop
      vertex -9.65697 -48.5489 -2
      vertex -2.41424 -12.1372 -2
      vertex -4.85185 -49.2616 -2
    endloop
  endfacet
  facet normal -0 0 -1
    outer loop
      vertex -2.41424 -12.1372 -2
      vertex -9.65697 -48.5489 -2
      vertex -3.59227 -11.8421 -2
    endloop
  endfacet
  facet normal 0 0 -1
    outer loop
      vertex -14.3691 -47.3685 -2
      vertex -3.59227 -11.8421 -2
      vertex -9.65697 -48.5489 -2
    endloop
  endfacet
  facet normal -0 0 -1
    outer loop
      vertex -3.59227 -11.8421 -2
      vertex -14.3691 -47.3685 -2
      vertex -4.73571 -11.433 -2
    endloop
  endfacet
  facet normal 0 0 -1
    outer loop
      vertex -18.9428 -45.732 -2
      vertex -4.73571 -11.433 -2
      vertex -14.3691 -47.3685 -2
    endloop
  endfacet
  facet normal -0 0 -1
    outer loop
      vertex -4.73571 -11.433 -2
      vertex -18.9428 -45.732 -2
      vertex -5.83353 -10.9138 -2
    endloop
  endfacet
  facet normal 0 0 -1
    outer loop
      vertex -23.3341 -43.6551 -2
      vertex -5.83353 -10.9138 -2
      vertex -18.9428 -45.732 -2
    endloop
  endfacet
  facet normal -0 0 -1
    outer loop
      vertex -5.83353 -10.9138 -2
      vertex -23.3341 -43.6551 -2
      vertex -6.87518 -10.2894 -2
    endloop
  endfacet
  facet normal 0 0 -1
    outer loop
      vertex -27.5007 -41.1577 -2
      vertex -6.87518 -10.2894 -2
      vertex -23.3341 -43.6551 -2
    endloop
  endfacet
  facet normal -0 0 -1
    outer loop
      vertex -6.87518 -10.2894 -2
      vertex -27.5007 -41.1577 -2
      vertex -7.85062 -9.566 -2
    endloop
  endfacet
  facet normal 0 0 -1
    outer loop
      vertex -31.4025 -38.264 -2
      vertex -7.85062 -9.566 -2
      vertex -27.5007 -41.1577 -2
    endloop
  endfacet
  facet normal -0 0 -1
    outer loop
      vertex -7.85062 -9.566 -2
      vertex -31.4025 -38.264 -2
      vertex -8.75045 -8.75045 -2
    endloop
  endfacet
  facet normal 0 0 -1
    outer loop
      vertex -35.0018 -35.0018 -2
      vertex -8.75045 -8.75045 -2
      vertex -31.4025 -38.264 -2
    endloop
  endfacet
  facet normal -0 0 -1
    outer loop
      vertex -8.75045 -8.75045 -2
      vertex -35.0018 -35.0018 -2
      vertex -9.566 -7.85062 -2
    endloop
  endfacet
  facet normal -0 0 -1
    outer loop
      vertex -9.566 -7.85062 -2
      vertex -38.264 -31.4025 -2
      vertex -10.2894 -6.87518 -2
    endloop
  endfacet
  facet normal 0 0 -1
    outer loop
      vertex -38.264 -31.4025 -2
      vertex -9.566 -7.85062 -2
      vertex -35.0018 -35.0018 -2
    endloop
  endfacet
  facet normal 0 0 -1
    outer loop
      vertex 9.566 7.85062 -2
      vertex 38.264 31.4025 -2
      vertex 10.2894 6.87518 -2
    endloop
  endfacet
  facet normal -0 0 -1
    outer loop
      vertex 38.264 31.4025 -2
      vertex 9.566 7.85062 -2
      vertex 35.0018 35.0018 -2
    endloop
  endfacet
  facet normal 0 0 -1
    outer loop
      vertex 8.75045 8.75045 -2
      vertex 35.0018 35.0018 -2
      vertex 9.566 7.85062 -2
    endloop
  endfacet
  facet normal -0 0 -1
    outer loop
      vertex 35.0018 35.0018 -2
      vertex 8.75045 8.75045 -2
      vertex 31.4025 38.264 -2
    endloop
  endfacet
  facet normal 0 0 -1
    outer loop
      vertex 7.85062 9.566 -2
      vertex 31.4025 38.264 -2
      vertex 8.75045 8.75045 -2
    endloop
  endfacet
  facet normal -0 0 -1
    outer loop
      vertex 31.4025 38.264 -2
      vertex 7.85062 9.566 -2
      vertex 27.5007 41.1577 -2
    endloop
  endfacet
  facet normal 0 0 -1
    outer loop
      vertex 6.87518 10.2894 -2
      vertex 27.5007 41.1577 -2
      vertex 7.85062 9.566 -2
    endloop
  endfacet
  facet normal -0 0 -1
    outer loop
      vertex 27.5007 41.1577 -2
      vertex 6.87518 10.2894 -2
      vertex 23.3341 43.6551 -2
    endloop
  endfacet
  facet normal 0 0 -1
    outer loop
      vertex 5.83353 10.9138 -2
      vertex 23.3341 43.6551 -2
      vertex 6.87518 10.2894 -2
    endloop
  endfacet
  facet normal -0 0 -1
    outer loop
      vertex 23.3341 43.6551 -2
      vertex 5.83353 10.9138 -2
      vertex 18.9428 45.732 -2
    endloop
  endfacet
  facet normal 0 0 -1
    outer loop
      vertex 4.73571 11.433 -2
      vertex 18.9428 45.732 -2
      vertex 5.83353 10.9138 -2
    endloop
  endfacet
  facet normal -0 0 -1
    outer loop
      vertex 18.9428 45.732 -2
      vertex 4.73571 11.433 -2
      vertex 14.3691 47.3685 -2
    endloop
  endfacet
  facet normal 0 0 -1
    outer loop
      vertex 3.59227 11.8421 -2
      vertex 14.3691 47.3685 -2
      vertex 4.73571 11.433 -2
    endloop
  endfacet
  facet normal -0 0 -1
    outer loop
      vertex 14.3691 47.3685 -2
      vertex 3.59227 11.8421 -2
      vertex 9.65697 48.5489 -2
    endloop
  endfacet
  facet normal 0 0 -1
    outer loop
      vertex 2.41424 12.1372 -2
      vertex 9.65697 48.5489 -2
      vertex 3.59227 11.8421 -2
    endloop
  endfacet
  facet normal -0 0 -1
    outer loop
      vertex 9.65697 48.5489 -2
      vertex 2.41424 12.1372 -2
      vertex 4.85185 49.2616 -2
    endloop
  endfacet
  facet normal 0 0 -1
    outer loop
      vertex 1.21296 12.3154 -2
      vertex 4.85185 49.2616 -2
      vertex 2.41424 12.1372 -2
    endloop
  endfacet
  facet normal 0 0 -1
    outer loop
      vertex 0 12.375 -2
      vertex 4.85185 49.2616 -2
      vertex 1.21296 12.3154 -2
    endloop
  endfacet
  facet normal 0 0 -1
    outer loop
      vertex 0 12.375 -2
      vertex 0 49.5 -2
      vertex 4.85185 49.2616 -2
    endloop
  endfacet
  facet normal 0 0 -1
    outer loop
      vertex -1.21296 12.3154 -2
      vertex 0 49.5 -2
      vertex 0 12.375 -2
    endloop
  endfacet
  facet normal 0 0 -1
    outer loop
      vertex -4.85185 49.2616 -2
      vertex -1.21296 12.3154 -2
      vertex -2.41424 12.1372 -2
    endloop
  endfacet
  facet normal 0 0 -1
    outer loop
      vertex -9.65697 48.5489 -2
      vertex -2.41424 12.1372 -2
      vertex -3.59227 11.8421 -2
    endloop
  endfacet
  facet normal 0 0 -1
    outer loop
      vertex -14.3691 47.3685 -2
      vertex -3.59227 11.8421 -2
      vertex -4.73571 11.433 -2
    endloop
  endfacet
  facet normal 0 0 -1
    outer loop
      vertex -1.21296 12.3154 -2
      vertex -4.85185 49.2616 -2
      vertex 0 49.5 -2
    endloop
  endfacet
  facet normal 0 0 -1
    outer loop
      vertex -18.9428 45.732 -2
      vertex -4.73571 11.433 -2
      vertex -5.83353 10.9138 -2
    endloop
  endfacet
  facet normal 0 0 -1
    outer loop
      vertex -23.3341 43.6551 -2
      vertex -5.83353 10.9138 -2
      vertex -6.87518 10.2894 -2
    endloop
  endfacet
  facet normal 0 0 -1
    outer loop
      vertex -27.5007 41.1577 -2
      vertex -6.87518 10.2894 -2
      vertex -7.85062 9.566 -2
    endloop
  endfacet
  facet normal 0 0 -1
    outer loop
      vertex -31.4025 38.264 -2
      vertex -7.85062 9.566 -2
      vertex -8.75045 8.75045 -2
    endloop
  endfacet
  facet normal 0 0 -1
    outer loop
      vertex -35.0018 35.0018 -2
      vertex -8.75045 8.75045 -2
      vertex -9.566 7.85062 -2
    endloop
  endfacet
  facet normal 0 0 -1
    outer loop
      vertex -2.41424 12.1372 -2
      vertex -9.65697 48.5489 -2
      vertex -4.85185 49.2616 -2
    endloop
  endfacet
  facet normal 0 0 -1
    outer loop
      vertex -38.264 31.4025 -2
      vertex -9.566 7.85062 -2
      vertex -10.2894 6.87518 -2
    endloop
  endfacet
  facet normal 0 0 -1
    outer loop
      vertex -41.1577 27.5007 -2
      vertex -10.2894 6.87518 -2
      vertex -10.9138 5.83353 -2
    endloop
  endfacet
  facet normal 0 0 -1
    outer loop
      vertex -43.6551 23.3341 -2
      vertex -10.9138 5.83353 -2
      vertex -11.433 4.73571 -2
    endloop
  endfacet
  facet normal 0 0 -1
    outer loop
      vertex -45.732 18.9428 -2
      vertex -11.433 4.73571 -2
      vertex -11.8421 3.59227 -2
    endloop
  endfacet
  facet normal 0 0 -1
    outer loop
      vertex -47.3685 14.3691 -2
      vertex -11.8421 3.59227 -2
      vertex -12.1372 2.41424 -2
    endloop
  endfacet
  facet normal 0 0 -1
    outer loop
      vertex -48.5489 9.65697 -2
      vertex -12.1372 2.41424 -2
      vertex -12.3154 1.21296 -2
    endloop
  endfacet
  facet normal 0 0 -1
    outer loop
      vertex -3.59227 11.8421 -2
      vertex -14.3691 47.3685 -2
      vertex -9.65697 48.5489 -2
    endloop
  endfacet
  facet normal 0 0 -1
    outer loop
      vertex -49.2616 4.85185 -2
      vertex -12.3154 1.21296 -2
      vertex -12.375 0 -2
    endloop
  endfacet
  facet normal 0 0 -1
    outer loop
      vertex -41.1577 -27.5007 -2
      vertex -10.2894 -6.87518 -2
      vertex -38.264 -31.4025 -2
    endloop
  endfacet
  facet normal -0 0 -1
    outer loop
      vertex -10.2894 -6.87518 -2
      vertex -41.1577 -27.5007 -2
      vertex -10.9138 -5.83353 -2
    endloop
  endfacet
  facet normal 0 0 -1
    outer loop
      vertex -4.73571 11.433 -2
      vertex -18.9428 45.732 -2
      vertex -14.3691 47.3685 -2
    endloop
  endfacet
  facet normal 0 0 -1
    outer loop
      vertex -43.6551 -23.3341 -2
      vertex -10.9138 -5.83353 -2
      vertex -41.1577 -27.5007 -2
    endloop
  endfacet
  facet normal 0 0 -1
    outer loop
      vertex -5.83353 10.9138 -2
      vertex -23.3341 43.6551 -2
      vertex -18.9428 45.732 -2
    endloop
  endfacet
  facet normal -0 0 -1
    outer loop
      vertex -10.9138 -5.83353 -2
      vertex -43.6551 -23.3341 -2
      vertex -11.433 -4.73571 -2
    endloop
  endfacet
  facet normal 0 0 -1
    outer loop
      vertex -6.87518 10.2894 -2
      vertex -27.5007 41.1577 -2
      vertex -23.3341 43.6551 -2
    endloop
  endfacet
  facet normal 0 0 -1
    outer loop
      vertex -45.732 -18.9428 -2
      vertex -11.433 -4.73571 -2
      vertex -43.6551 -23.3341 -2
    endloop
  endfacet
  facet normal 0 0 -1
    outer loop
      vertex -7.85062 9.566 -2
      vertex -31.4025 38.264 -2
      vertex -27.5007 41.1577 -2
    endloop
  endfacet
  facet normal -0 0 -1
    outer loop
      vertex -11.433 -4.73571 -2
      vertex -45.732 -18.9428 -2
      vertex -11.8421 -3.59227 -2
    endloop
  endfacet
  facet normal 0 0 -1
    outer loop
      vertex -8.75045 8.75045 -2
      vertex -35.0018 35.0018 -2
      vertex -31.4025 38.264 -2
    endloop
  endfacet
  facet normal 0 0 -1
    outer loop
      vertex -47.3685 -14.3691 -2
      vertex -11.8421 -3.59227 -2
      vertex -45.732 -18.9428 -2
    endloop
  endfacet
  facet normal 0 0 -1
    outer loop
      vertex -9.566 7.85062 -2
      vertex -38.264 31.4025 -2
      vertex -35.0018 35.0018 -2
    endloop
  endfacet
  facet normal -0 0 -1
    outer loop
      vertex -11.8421 -3.59227 -2
      vertex -47.3685 -14.3691 -2
      vertex -12.1372 -2.41424 -2
    endloop
  endfacet
  facet normal 0 0 -1
    outer loop
      vertex -10.2894 6.87518 -2
      vertex -41.1577 27.5007 -2
      vertex -38.264 31.4025 -2
    endloop
  endfacet
  facet normal 0 0 -1
    outer loop
      vertex -48.5489 -9.65697 -2
      vertex -12.1372 -2.41424 -2
      vertex -47.3685 -14.3691 -2
    endloop
  endfacet
  facet normal 0 0 -1
    outer loop
      vertex -10.9138 5.83353 -2
      vertex -43.6551 23.3341 -2
      vertex -41.1577 27.5007 -2
    endloop
  endfacet
  facet normal -0 0 -1
    outer loop
      vertex -12.1372 -2.41424 -2
      vertex -48.5489 -9.65697 -2
      vertex -12.3154 -1.21296 -2
    endloop
  endfacet
  facet normal 0 0 -1
    outer loop
      vertex -11.433 4.73571 -2
      vertex -45.732 18.9428 -2
      vertex -43.6551 23.3341 -2
    endloop
  endfacet
  facet normal 0 0 -1
    outer loop
      vertex -49.2616 -4.85185 -2
      vertex -12.3154 -1.21296 -2
      vertex -48.5489 -9.65697 -2
    endloop
  endfacet
  facet normal 0 0 -1
    outer loop
      vertex -11.8421 3.59227 -2
      vertex -47.3685 14.3691 -2
      vertex -45.732 18.9428 -2
    endloop
  endfacet
  facet normal -0 0 -1
    outer loop
      vertex -12.3154 -1.21296 -2
      vertex -49.2616 -4.85185 -2
      vertex -12.375 0 -2
    endloop
  endfacet
  facet normal 0 0 -1
    outer loop
      vertex -12.1372 2.41424 -2
      vertex -48.5489 9.65697 -2
      vertex -47.3685 14.3691 -2
    endloop
  endfacet
  facet normal 0 0 -1
    outer loop
      vertex -49.5 0 -2
      vertex -12.375 0 -2
      vertex -49.2616 -4.85185 -2
    endloop
  endfacet
  facet normal 0 0 -1
    outer loop
      vertex -12.3154 1.21296 -2
      vertex -49.2616 4.85185 -2
      vertex -48.5489 9.65697 -2
    endloop
  endfacet
  facet normal 0 0 -1
    outer loop
      vertex -12.375 0 -2
      vertex -49.5 0 -2
      vertex -49.2616 4.85185 -2
    endloop
  endfacet
  facet normal -0.59569 0.803215 0
    outer loop
      vertex -27.5007 41.1577 -2
      vertex -31.4025 38.264 2
      vertex -27.5007 41.1577 2
    endloop
  endfacet
  facet normal -0.59569 0.803215 0
    outer loop
      vertex -31.4025 38.264 2
      vertex -27.5007 41.1577 -2
      vertex -31.4025 38.264 -2
    endloop
  endfacet
  facet normal 0.242994 0.970028 -0
    outer loop
      vertex 14.3691 47.3685 -2
      vertex 9.65697 48.5489 2
      vertex 14.3691 47.3685 2
    endloop
  endfacet
  facet normal 0.242994 0.970028 0
    outer loop
      vertex 9.65697 48.5489 2
      vertex 14.3691 47.3685 -2
      vertex 9.65697 48.5489 -2
    endloop
  endfacet
  facet normal 0.998795 -0.0490767 0
    outer loop
      vertex 49.2616 -4.85185 2
      vertex 49.5 0 -2
      vertex 49.5 0 2
    endloop
  endfacet
  facet normal 0.998795 -0.0490767 0
    outer loop
      vertex 49.5 0 -2
      vertex 49.2616 -4.85185 2
      vertex 49.2616 -4.85185 -2
    endloop
  endfacet
  facet normal -0.42755 0.903992 0
    outer loop
      vertex -18.9428 45.732 -2
      vertex -23.3341 43.6551 2
      vertex -18.9428 45.732 2
    endloop
  endfacet
  facet normal -0.42755 0.903992 0
    outer loop
      vertex -23.3341 43.6551 2
      vertex -18.9428 45.732 -2
      vertex -23.3341 43.6551 -2
    endloop
  endfacet
  facet normal -0.941544 -0.336891 0
    outer loop
      vertex -45.732 -18.9428 -2
      vertex -47.3685 -14.3691 2
      vertex -47.3685 -14.3691 -2
    endloop
  endfacet
  facet normal -0.941544 -0.336891 0
    outer loop
      vertex -47.3685 -14.3691 2
      vertex -45.732 -18.9428 -2
      vertex -45.732 -18.9428 2
    endloop
  endfacet
  facet normal 0.514108 0.857725 -0
    outer loop
      vertex 27.5007 41.1577 -2
      vertex 23.3341 43.6551 2
      vertex 27.5007 41.1577 2
    endloop
  endfacet
  facet normal 0.514108 0.857725 0
    outer loop
      vertex 23.3341 43.6551 2
      vertex 27.5007 41.1577 -2
      vertex 23.3341 43.6551 -2
    endloop
  endfacet
  facet normal 0.59569 0.803215 -0
    outer loop
      vertex 31.4025 38.264 -2
      vertex 27.5007 41.1577 2
      vertex 31.4025 38.264 2
    endloop
  endfacet
  facet normal 0.59569 0.803215 0
    outer loop
      vertex 27.5007 41.1577 2
      vertex 31.4025 38.264 -2
      vertex 27.5007 41.1577 -2
    endloop
  endfacet
  facet normal 0.146716 -0.989179 0
    outer loop
      vertex 4.85185 -49.2616 -2
      vertex 9.65697 -48.5489 2
      vertex 4.85185 -49.2616 2
    endloop
  endfacet
  facet normal 0.146716 -0.989179 0
    outer loop
      vertex 9.65697 -48.5489 2
      vertex 4.85185 -49.2616 -2
      vertex 9.65697 -48.5489 -2
    endloop
  endfacet
  facet normal 0.740953 -0.671557 0
    outer loop
      vertex 35.0018 -35.0018 2
      vertex 38.264 -31.4025 -2
      vertex 38.264 -31.4025 2
    endloop
  endfacet
  facet normal 0.740953 -0.671557 0
    outer loop
      vertex 38.264 -31.4025 -2
      vertex 35.0018 -35.0018 2
      vertex 35.0018 -35.0018 -2
    endloop
  endfacet
  facet normal 0.803215 -0.59569 0
    outer loop
      vertex 38.264 -31.4025 2
      vertex 41.1577 -27.5007 -2
      vertex 41.1577 -27.5007 2
    endloop
  endfacet
  facet normal 0.803215 -0.59569 0
    outer loop
      vertex 41.1577 -27.5007 -2
      vertex 38.264 -31.4025 2
      vertex 38.264 -31.4025 -2
    endloop
  endfacet
  facet normal 0.242994 -0.970028 0
    outer loop
      vertex 9.65697 -48.5489 -2
      vertex 14.3691 -47.3685 2
      vertex 9.65697 -48.5489 2
    endloop
  endfacet
  facet normal 0.242994 -0.970028 0
    outer loop
      vertex 14.3691 -47.3685 2
      vertex 9.65697 -48.5489 -2
      vertex 14.3691 -47.3685 -2
    endloop
  endfacet
  facet normal 0.941544 -0.336891 0
    outer loop
      vertex 45.732 -18.9428 2
      vertex 47.3685 -14.3691 -2
      vertex 47.3685 -14.3691 2
    endloop
  endfacet
  facet normal 0.941544 -0.336891 0
    outer loop
      vertex 47.3685 -14.3691 -2
      vertex 45.732 -18.9428 2
      vertex 45.732 -18.9428 -2
    endloop
  endfacet
  facet normal -0.242994 0.970028 0
    outer loop
      vertex -9.65697 48.5489 -2
      vertex -14.3691 47.3685 2
      vertex -9.65697 48.5489 2
    endloop
  endfacet
  facet normal -0.242994 0.970028 0
    outer loop
      vertex -14.3691 47.3685 2
      vertex -9.65697 48.5489 -2
      vertex -14.3691 47.3685 -2
    endloop
  endfacet
  facet normal -0.903992 -0.42755 0
    outer loop
      vertex -43.6551 -23.3341 -2
      vertex -45.732 -18.9428 2
      vertex -45.732 -18.9428 -2
    endloop
  endfacet
  facet normal -0.903992 -0.42755 0
    outer loop
      vertex -45.732 -18.9428 2
      vertex -43.6551 -23.3341 -2
      vertex -43.6551 -23.3341 2
    endloop
  endfacet
  facet normal -0.989179 0.146716 0
    outer loop
      vertex -49.2616 4.85185 -2
      vertex -48.5489 9.65697 2
      vertex -48.5489 9.65697 -2
    endloop
  endfacet
  facet normal -0.989179 0.146716 0
    outer loop
      vertex -48.5489 9.65697 2
      vertex -49.2616 4.85185 -2
      vertex -49.2616 4.85185 2
    endloop
  endfacet
  facet normal 0.42755 0.903992 -0
    outer loop
      vertex 23.3341 43.6551 -2
      vertex 18.9428 45.732 2
      vertex 23.3341 43.6551 2
    endloop
  endfacet
  facet normal 0.42755 0.903992 0
    outer loop
      vertex 18.9428 45.732 2
      vertex 23.3341 43.6551 -2
      vertex 18.9428 45.732 -2
    endloop
  endfacet
  facet normal -0.740953 -0.671557 0
    outer loop
      vertex -35.0018 -35.0018 -2
      vertex -38.264 -31.4025 2
      vertex -38.264 -31.4025 -2
    endloop
  endfacet
  facet normal -0.740953 -0.671557 0
    outer loop
      vertex -38.264 -31.4025 2
      vertex -35.0018 -35.0018 -2
      vertex -35.0018 -35.0018 2
    endloop
  endfacet
  facet normal -0.857725 -0.514108 0
    outer loop
      vertex -41.1577 -27.5007 -2
      vertex -43.6551 -23.3341 2
      vertex -43.6551 -23.3341 -2
    endloop
  endfacet
  facet normal -0.857725 -0.514108 0
    outer loop
      vertex -43.6551 -23.3341 2
      vertex -41.1577 -27.5007 -2
      vertex -41.1577 -27.5007 2
    endloop
  endfacet
  facet normal -0.336891 0.941544 0
    outer loop
      vertex -14.3691 47.3685 -2
      vertex -18.9428 45.732 2
      vertex -14.3691 47.3685 2
    endloop
  endfacet
  facet normal -0.336891 0.941544 0
    outer loop
      vertex -18.9428 45.732 2
      vertex -14.3691 47.3685 -2
      vertex -18.9428 45.732 -2
    endloop
  endfacet
  facet normal -0.514108 -0.857725 0
    outer loop
      vertex -27.5007 -41.1577 -2
      vertex -23.3341 -43.6551 2
      vertex -27.5007 -41.1577 2
    endloop
  endfacet
  facet normal -0.514108 -0.857725 -0
    outer loop
      vertex -23.3341 -43.6551 2
      vertex -27.5007 -41.1577 -2
      vertex -23.3341 -43.6551 -2
    endloop
  endfacet
  facet normal -0.941544 0.336891 0
    outer loop
      vertex -47.3685 14.3691 -2
      vertex -45.732 18.9428 2
      vertex -45.732 18.9428 -2
    endloop
  endfacet
  facet normal -0.941544 0.336891 0
    outer loop
      vertex -45.732 18.9428 2
      vertex -47.3685 14.3691 -2
      vertex -47.3685 14.3691 2
    endloop
  endfacet
  facet normal 0.59569 -0.803215 0
    outer loop
      vertex 27.5007 -41.1577 -2
      vertex 31.4025 -38.264 2
      vertex 27.5007 -41.1577 2
    endloop
  endfacet
  facet normal 0.59569 -0.803215 0
    outer loop
      vertex 31.4025 -38.264 2
      vertex 27.5007 -41.1577 -2
      vertex 31.4025 -38.264 -2
    endloop
  endfacet
  facet normal 0.740953 0.671557 0
    outer loop
      vertex 38.264 31.4025 2
      vertex 35.0018 35.0018 -2
      vertex 35.0018 35.0018 2
    endloop
  endfacet
  facet normal 0.740953 0.671557 0
    outer loop
      vertex 35.0018 35.0018 -2
      vertex 38.264 31.4025 2
      vertex 38.264 31.4025 -2
    endloop
  endfacet
  facet normal -0.803215 -0.59569 0
    outer loop
      vertex -38.264 -31.4025 -2
      vertex -41.1577 -27.5007 2
      vertex -41.1577 -27.5007 -2
    endloop
  endfacet
  facet normal -0.803215 -0.59569 0
    outer loop
      vertex -41.1577 -27.5007 2
      vertex -38.264 -31.4025 -2
      vertex -38.264 -31.4025 2
    endloop
  endfacet
  facet normal -0.514108 0.857725 0
    outer loop
      vertex -23.3341 43.6551 -2
      vertex -27.5007 41.1577 2
      vertex -23.3341 43.6551 2
    endloop
  endfacet
  facet normal -0.514108 0.857725 0
    outer loop
      vertex -27.5007 41.1577 2
      vertex -23.3341 43.6551 -2
      vertex -27.5007 41.1577 -2
    endloop
  endfacet
  facet normal -0.989179 -0.146716 0
    outer loop
      vertex -48.5489 -9.65697 -2
      vertex -49.2616 -4.85185 2
      vertex -49.2616 -4.85185 -2
    endloop
  endfacet
  facet normal -0.989179 -0.146716 0
    outer loop
      vertex -49.2616 -4.85185 2
      vertex -48.5489 -9.65697 -2
      vertex -48.5489 -9.65697 2
    endloop
  endfacet
  facet normal -0.903992 0.42755 0
    outer loop
      vertex -45.732 18.9428 -2
      vertex -43.6551 23.3341 2
      vertex -43.6551 23.3341 -2
    endloop
  endfacet
  facet normal -0.903992 0.42755 0
    outer loop
      vertex -43.6551 23.3341 2
      vertex -45.732 18.9428 -2
      vertex -45.732 18.9428 2
    endloop
  endfacet
  facet normal 0.514108 -0.857725 0
    outer loop
      vertex 23.3341 -43.6551 -2
      vertex 27.5007 -41.1577 2
      vertex 23.3341 -43.6551 2
    endloop
  endfacet
  facet normal 0.514108 -0.857725 0
    outer loop
      vertex 27.5007 -41.1577 2
      vertex 23.3341 -43.6551 -2
      vertex 27.5007 -41.1577 -2
    endloop
  endfacet
  facet normal -0.671557 -0.740953 0
    outer loop
      vertex -35.0018 -35.0018 -2
      vertex -31.4025 -38.264 2
      vertex -35.0018 -35.0018 2
    endloop
  endfacet
  facet normal -0.671557 -0.740953 -0
    outer loop
      vertex -31.4025 -38.264 2
      vertex -35.0018 -35.0018 -2
      vertex -31.4025 -38.264 -2
    endloop
  endfacet
  facet normal -0.803215 0.59569 0
    outer loop
      vertex -41.1577 27.5007 -2
      vertex -38.264 31.4025 2
      vertex -38.264 31.4025 -2
    endloop
  endfacet
  facet normal -0.803215 0.59569 0
    outer loop
      vertex -38.264 31.4025 2
      vertex -41.1577 27.5007 -2
      vertex -41.1577 27.5007 2
    endloop
  endfacet
  facet normal -0.0490767 -0.998795 0
    outer loop
      vertex -4.85185 -49.2616 -2
      vertex 0 -49.5 2
      vertex -4.85185 -49.2616 2
    endloop
  endfacet
  facet normal -0.0490767 -0.998795 -0
    outer loop
      vertex 0 -49.5 2
      vertex -4.85185 -49.2616 -2
      vertex 0 -49.5 -2
    endloop
  endfacet
  facet normal 0 0 1
    outer loop
      vertex 12.375 0 2
      vertex 49.5 0 2
      vertex 49.2616 4.85185 2
    endloop
  endfacet
  facet normal 0 0 1
    outer loop
      vertex 12.3154 1.21296 2
      vertex 49.2616 4.85185 2
      vertex 48.5489 9.65697 2
    endloop
  endfacet
  facet normal 0 0 1
    outer loop
      vertex 49.5 0 2
      vertex 12.375 0 2
      vertex 49.2616 -4.85185 2
    endloop
  endfacet
  facet normal 0 0 1
    outer loop
      vertex 12.1372 2.41424 2
      vertex 48.5489 9.65697 2
      vertex 47.3685 14.3691 2
    endloop
  endfacet
  facet normal -0 0 1
    outer loop
      vertex 12.3154 -1.21296 2
      vertex 49.2616 -4.85185 2
      vertex 12.375 0 2
    endloop
  endfacet
  facet normal 0 0 1
    outer loop
      vertex 11.8421 3.59227 2
      vertex 47.3685 14.3691 2
      vertex 45.732 18.9428 2
    endloop
  endfacet
  facet normal 0 0 1
    outer loop
      vertex 49.2616 -4.85185 2
      vertex 12.3154 -1.21296 2
      vertex 48.5489 -9.65697 2
    endloop
  endfacet
  facet normal 0 0 1
    outer loop
      vertex 11.433 4.73571 2
      vertex 45.732 18.9428 2
      vertex 43.6551 23.3341 2
    endloop
  endfacet
  facet normal -0 0 1
    outer loop
      vertex 12.1372 -2.41424 2
      vertex 48.5489 -9.65697 2
      vertex 12.3154 -1.21296 2
    endloop
  endfacet
  facet normal 0 0 1
    outer loop
      vertex 10.9138 5.83353 2
      vertex 43.6551 23.3341 2
      vertex 41.1577 27.5007 2
    endloop
  endfacet
  facet normal 0 0 1
    outer loop
      vertex 48.5489 -9.65697 2
      vertex 12.1372 -2.41424 2
      vertex 47.3685 -14.3691 2
    endloop
  endfacet
  facet normal 0 0 1
    outer loop
      vertex 10.2894 6.87518 2
      vertex 41.1577 27.5007 2
      vertex 38.264 31.4025 2
    endloop
  endfacet
  facet normal -0 0 1
    outer loop
      vertex 11.8421 -3.59227 2
      vertex 47.3685 -14.3691 2
      vertex 12.1372 -2.41424 2
    endloop
  endfacet
  facet normal 0 0 1
    outer loop
      vertex 9.566 7.85062 2
      vertex 38.264 31.4025 2
      vertex 35.0018 35.0018 2
    endloop
  endfacet
  facet normal 0 0 1
    outer loop
      vertex 47.3685 -14.3691 2
      vertex 11.8421 -3.59227 2
      vertex 45.732 -18.9428 2
    endloop
  endfacet
  facet normal 0 0 1
    outer loop
      vertex 8.75045 8.75045 2
      vertex 35.0018 35.0018 2
      vertex 31.4025 38.264 2
    endloop
  endfacet
  facet normal -0 0 1
    outer loop
      vertex 11.433 -4.73571 2
      vertex 45.732 -18.9428 2
      vertex 11.8421 -3.59227 2
    endloop
  endfacet
  facet normal 0 0 1
    outer loop
      vertex 7.85062 9.566 2
      vertex 31.4025 38.264 2
      vertex 27.5007 41.1577 2
    endloop
  endfacet
  facet normal 0 0 1
    outer loop
      vertex 45.732 -18.9428 2
      vertex 11.433 -4.73571 2
      vertex 43.6551 -23.3341 2
    endloop
  endfacet
  facet normal 0 0 1
    outer loop
      vertex 6.87518 10.2894 2
      vertex 27.5007 41.1577 2
      vertex 23.3341 43.6551 2
    endloop
  endfacet
  facet normal -0 0 1
    outer loop
      vertex 10.9138 -5.83353 2
      vertex 43.6551 -23.3341 2
      vertex 11.433 -4.73571 2
    endloop
  endfacet
  facet normal 0 0 1
    outer loop
      vertex 5.83353 10.9138 2
      vertex 23.3341 43.6551 2
      vertex 18.9428 45.732 2
    endloop
  endfacet
  facet normal 0 0 1
    outer loop
      vertex 43.6551 -23.3341 2
      vertex 10.9138 -5.83353 2
      vertex 41.1577 -27.5007 2
    endloop
  endfacet
  facet normal 0 0 1
    outer loop
      vertex 4.73571 11.433 2
      vertex 18.9428 45.732 2
      vertex 14.3691 47.3685 2
    endloop
  endfacet
  facet normal -0 0 1
    outer loop
      vertex 10.2894 -6.87518 2
      vertex 41.1577 -27.5007 2
      vertex 10.9138 -5.83353 2
    endloop
  endfacet
  facet normal 0 0 1
    outer loop
      vertex 41.1577 -27.5007 2
      vertex 10.2894 -6.87518 2
      vertex 38.264 -31.4025 2
    endloop
  endfacet
  facet normal 0 0 1
    outer loop
      vertex 49.2616 4.85185 2
      vertex 12.3154 1.21296 2
      vertex 12.375 0 2
    endloop
  endfacet
  facet normal 0 0 1
    outer loop
      vertex 48.5489 9.65697 2
      vertex 12.1372 2.41424 2
      vertex 12.3154 1.21296 2
    endloop
  endfacet
  facet normal 0 0 1
    outer loop
      vertex 47.3685 14.3691 2
      vertex 11.8421 3.59227 2
      vertex 12.1372 2.41424 2
    endloop
  endfacet
  facet normal 0 0 1
    outer loop
      vertex 45.732 18.9428 2
      vertex 11.433 4.73571 2
      vertex 11.8421 3.59227 2
    endloop
  endfacet
  facet normal 0 0 1
    outer loop
      vertex 43.6551 23.3341 2
      vertex 10.9138 5.83353 2
      vertex 11.433 4.73571 2
    endloop
  endfacet
  facet normal 0 0 1
    outer loop
      vertex 41.1577 27.5007 2
      vertex 10.2894 6.87518 2
      vertex 10.9138 5.83353 2
    endloop
  endfacet
  facet normal 0 0 1
    outer loop
      vertex 3.59227 11.8421 2
      vertex 14.3691 47.3685 2
      vertex 9.65697 48.5489 2
    endloop
  endfacet
  facet normal 0 0 1
    outer loop
      vertex 38.264 31.4025 2
      vertex 9.566 7.85062 2
      vertex 10.2894 6.87518 2
    endloop
  endfacet
  facet normal 0 0 1
    outer loop
      vertex 35.0018 35.0018 2
      vertex 8.75045 8.75045 2
      vertex 9.566 7.85062 2
    endloop
  endfacet
  facet normal 0 0 1
    outer loop
      vertex 31.4025 38.264 2
      vertex 7.85062 9.566 2
      vertex 8.75045 8.75045 2
    endloop
  endfacet
  facet normal 0 0 1
    outer loop
      vertex 27.5007 41.1577 2
      vertex 6.87518 10.2894 2
      vertex 7.85062 9.566 2
    endloop
  endfacet
  facet normal 0 0 1
    outer loop
      vertex 23.3341 43.6551 2
      vertex 5.83353 10.9138 2
      vertex 6.87518 10.2894 2
    endloop
  endfacet
  facet normal 0 0 1
    outer loop
      vertex 2.41424 12.1372 2
      vertex 9.65697 48.5489 2
      vertex 4.85185 49.2616 2
    endloop
  endfacet
  facet normal 0 0 1
    outer loop
      vertex 18.9428 45.732 2
      vertex 4.73571 11.433 2
      vertex 5.83353 10.9138 2
    endloop
  endfacet
  facet normal 0 0 1
    outer loop
      vertex 14.3691 47.3685 2
      vertex 3.59227 11.8421 2
      vertex 4.73571 11.433 2
    endloop
  endfacet
  facet normal 0 0 1
    outer loop
      vertex 9.65697 48.5489 2
      vertex 2.41424 12.1372 2
      vertex 3.59227 11.8421 2
    endloop
  endfacet
  facet normal 0 0 1
    outer loop
      vertex 4.85185 49.2616 2
      vertex 1.21296 12.3154 2
      vertex 2.41424 12.1372 2
    endloop
  endfacet
  facet normal 0 0 1
    outer loop
      vertex 0 49.5 2
      vertex 1.21296 12.3154 2
      vertex 4.85185 49.2616 2
    endloop
  endfacet
  facet normal 0 0 1
    outer loop
      vertex 0 49.5 2
      vertex 0 12.375 2
      vertex 1.21296 12.3154 2
    endloop
  endfacet
  facet normal 0 0 1
    outer loop
      vertex 0 49.5 2
      vertex -1.21296 12.3154 2
      vertex 0 12.375 2
    endloop
  endfacet
  facet normal -0 0 1
    outer loop
      vertex -4.85185 49.2616 2
      vertex -1.21296 12.3154 2
      vertex 0 49.5 2
    endloop
  endfacet
  facet normal 0 0 1
    outer loop
      vertex -1.21296 12.3154 2
      vertex -4.85185 49.2616 2
      vertex -2.41424 12.1372 2
    endloop
  endfacet
  facet normal -0 0 1
    outer loop
      vertex -9.65697 48.5489 2
      vertex -2.41424 12.1372 2
      vertex -4.85185 49.2616 2
    endloop
  endfacet
  facet normal 0 0 1
    outer loop
      vertex -2.41424 12.1372 2
      vertex -9.65697 48.5489 2
      vertex -3.59227 11.8421 2
    endloop
  endfacet
  facet normal -0 0 1
    outer loop
      vertex -14.3691 47.3685 2
      vertex -3.59227 11.8421 2
      vertex -9.65697 48.5489 2
    endloop
  endfacet
  facet normal 0 0 1
    outer loop
      vertex -3.59227 11.8421 2
      vertex -14.3691 47.3685 2
      vertex -4.73571 11.433 2
    endloop
  endfacet
  facet normal -0 0 1
    outer loop
      vertex -18.9428 45.732 2
      vertex -4.73571 11.433 2
      vertex -14.3691 47.3685 2
    endloop
  endfacet
  facet normal 0 0 1
    outer loop
      vertex -4.73571 11.433 2
      vertex -18.9428 45.732 2
      vertex -5.83353 10.9138 2
    endloop
  endfacet
  facet normal -0 0 1
    outer loop
      vertex -23.3341 43.6551 2
      vertex -5.83353 10.9138 2
      vertex -18.9428 45.732 2
    endloop
  endfacet
  facet normal 0 0 1
    outer loop
      vertex -5.83353 10.9138 2
      vertex -23.3341 43.6551 2
      vertex -6.87518 10.2894 2
    endloop
  endfacet
  facet normal -0 0 1
    outer loop
      vertex -27.5007 41.1577 2
      vertex -6.87518 10.2894 2
      vertex -23.3341 43.6551 2
    endloop
  endfacet
  facet normal 0 0 1
    outer loop
      vertex -6.87518 10.2894 2
      vertex -27.5007 41.1577 2
      vertex -7.85062 9.566 2
    endloop
  endfacet
  facet normal -0 0 1
    outer loop
      vertex -31.4025 38.264 2
      vertex -7.85062 9.566 2
      vertex -27.5007 41.1577 2
    endloop
  endfacet
  facet normal 0 0 1
    outer loop
      vertex -7.85062 9.566 2
      vertex -31.4025 38.264 2
      vertex -8.75045 8.75045 2
    endloop
  endfacet
  facet normal -0 0 1
    outer loop
      vertex -35.0018 35.0018 2
      vertex -8.75045 8.75045 2
      vertex -31.4025 38.264 2
    endloop
  endfacet
  facet normal 0 0 1
    outer loop
      vertex -8.75045 8.75045 2
      vertex -35.0018 35.0018 2
      vertex -9.566 7.85062 2
    endloop
  endfacet
  facet normal 0 0 1
    outer loop
      vertex -9.566 7.85062 2
      vertex -38.264 31.4025 2
      vertex -10.2894 6.87518 2
    endloop
  endfacet
  facet normal -0 0 1
    outer loop
      vertex -38.264 31.4025 2
      vertex -9.566 7.85062 2
      vertex -35.0018 35.0018 2
    endloop
  endfacet
  facet normal -0 0 1
    outer loop
      vertex 9.566 -7.85062 2
      vertex 38.264 -31.4025 2
      vertex 10.2894 -6.87518 2
    endloop
  endfacet
  facet normal 0 0 1
    outer loop
      vertex 38.264 -31.4025 2
      vertex 9.566 -7.85062 2
      vertex 35.0018 -35.0018 2
    endloop
  endfacet
  facet normal -0 0 1
    outer loop
      vertex 8.75045 -8.75045 2
      vertex 35.0018 -35.0018 2
      vertex 9.566 -7.85062 2
    endloop
  endfacet
  facet normal 0 0 1
    outer loop
      vertex 35.0018 -35.0018 2
      vertex 8.75045 -8.75045 2
      vertex 31.4025 -38.264 2
    endloop
  endfacet
  facet normal -0 0 1
    outer loop
      vertex 7.85062 -9.566 2
      vertex 31.4025 -38.264 2
      vertex 8.75045 -8.75045 2
    endloop
  endfacet
  facet normal 0 0 1
    outer loop
      vertex 31.4025 -38.264 2
      vertex 7.85062 -9.566 2
      vertex 27.5007 -41.1577 2
    endloop
  endfacet
  facet normal -0 0 1
    outer loop
      vertex 6.87518 -10.2894 2
      vertex 27.5007 -41.1577 2
      vertex 7.85062 -9.566 2
    endloop
  endfacet
  facet normal 0 0 1
    outer loop
      vertex 27.5007 -41.1577 2
      vertex 6.87518 -10.2894 2
      vertex 23.3341 -43.6551 2
    endloop
  endfacet
  facet normal -0 0 1
    outer loop
      vertex 5.83353 -10.9138 2
      vertex 23.3341 -43.6551 2
      vertex 6.87518 -10.2894 2
    endloop
  endfacet
  facet normal 0 0 1
    outer loop
      vertex 23.3341 -43.6551 2
      vertex 5.83353 -10.9138 2
      vertex 18.9428 -45.732 2
    endloop
  endfacet
  facet normal -0 0 1
    outer loop
      vertex 4.73571 -11.433 2
      vertex 18.9428 -45.732 2
      vertex 5.83353 -10.9138 2
    endloop
  endfacet
  facet normal 0 0 1
    outer loop
      vertex 18.9428 -45.732 2
      vertex 4.73571 -11.433 2
      vertex 14.3691 -47.3685 2
    endloop
  endfacet
  facet normal -0 0 1
    outer loop
      vertex 3.59227 -11.8421 2
      vertex 14.3691 -47.3685 2
      vertex 4.73571 -11.433 2
    endloop
  endfacet
  facet normal 0 0 1
    outer loop
      vertex 14.3691 -47.3685 2
      vertex 3.59227 -11.8421 2
      vertex 9.65697 -48.5489 2
    endloop
  endfacet
  facet normal -0 0 1
    outer loop
      vertex 2.41424 -12.1372 2
      vertex 9.65697 -48.5489 2
      vertex 3.59227 -11.8421 2
    endloop
  endfacet
  facet normal 0 0 1
    outer loop
      vertex 9.65697 -48.5489 2
      vertex 2.41424 -12.1372 2
      vertex 4.85185 -49.2616 2
    endloop
  endfacet
  facet normal -0 0 1
    outer loop
      vertex 1.21296 -12.3154 2
      vertex 4.85185 -49.2616 2
      vertex 2.41424 -12.1372 2
    endloop
  endfacet
  facet normal -0 0 1
    outer loop
      vertex 0 -12.375 2
      vertex 4.85185 -49.2616 2
      vertex 1.21296 -12.3154 2
    endloop
  endfacet
  facet normal 0 0 1
    outer loop
      vertex 0 -12.375 2
      vertex 0 -49.5 2
      vertex 4.85185 -49.2616 2
    endloop
  endfacet
  facet normal 0 0 1
    outer loop
      vertex -1.21296 -12.3154 2
      vertex 0 -49.5 2
      vertex 0 -12.375 2
    endloop
  endfacet
  facet normal 0 0 1
    outer loop
      vertex -4.85185 -49.2616 2
      vertex -1.21296 -12.3154 2
      vertex -2.41424 -12.1372 2
    endloop
  endfacet
  facet normal 0 0 1
    outer loop
      vertex -9.65697 -48.5489 2
      vertex -2.41424 -12.1372 2
      vertex -3.59227 -11.8421 2
    endloop
  endfacet
  facet normal 0 0 1
    outer loop
      vertex -14.3691 -47.3685 2
      vertex -3.59227 -11.8421 2
      vertex -4.73571 -11.433 2
    endloop
  endfacet
  facet normal 0 0 1
    outer loop
      vertex -1.21296 -12.3154 2
      vertex -4.85185 -49.2616 2
      vertex 0 -49.5 2
    endloop
  endfacet
  facet normal 0 0 1
    outer loop
      vertex -18.9428 -45.732 2
      vertex -4.73571 -11.433 2
      vertex -5.83353 -10.9138 2
    endloop
  endfacet
  facet normal 0 0 1
    outer loop
      vertex -23.3341 -43.6551 2
      vertex -5.83353 -10.9138 2
      vertex -6.87518 -10.2894 2
    endloop
  endfacet
  facet normal 0 0 1
    outer loop
      vertex -27.5007 -41.1577 2
      vertex -6.87518 -10.2894 2
      vertex -7.85062 -9.566 2
    endloop
  endfacet
  facet normal 0 0 1
    outer loop
      vertex -31.4025 -38.264 2
      vertex -7.85062 -9.566 2
      vertex -8.75045 -8.75045 2
    endloop
  endfacet
  facet normal 0 0 1
    outer loop
      vertex -35.0018 -35.0018 2
      vertex -8.75045 -8.75045 2
      vertex -9.566 -7.85062 2
    endloop
  endfacet
  facet normal 0 0 1
    outer loop
      vertex -2.41424 -12.1372 2
      vertex -9.65697 -48.5489 2
      vertex -4.85185 -49.2616 2
    endloop
  endfacet
  facet normal 0 0 1
    outer loop
      vertex -38.264 -31.4025 2
      vertex -9.566 -7.85062 2
      vertex -10.2894 -6.87518 2
    endloop
  endfacet
  facet normal 0 0 1
    outer loop
      vertex -41.1577 -27.5007 2
      vertex -10.2894 -6.87518 2
      vertex -10.9138 -5.83353 2
    endloop
  endfacet
  facet normal 0 0 1
    outer loop
      vertex -43.6551 -23.3341 2
      vertex -10.9138 -5.83353 2
      vertex -11.433 -4.73571 2
    endloop
  endfacet
  facet normal 0 0 1
    outer loop
      vertex -45.732 -18.9428 2
      vertex -11.433 -4.73571 2
      vertex -11.8421 -3.59227 2
    endloop
  endfacet
  facet normal 0 0 1
    outer loop
      vertex -47.3685 -14.3691 2
      vertex -11.8421 -3.59227 2
      vertex -12.1372 -2.41424 2
    endloop
  endfacet
  facet normal 0 0 1
    outer loop
      vertex -48.5489 -9.65697 2
      vertex -12.1372 -2.41424 2
      vertex -12.3154 -1.21296 2
    endloop
  endfacet
  facet normal 0 0 1
    outer loop
      vertex -3.59227 -11.8421 2
      vertex -14.3691 -47.3685 2
      vertex -9.65697 -48.5489 2
    endloop
  endfacet
  facet normal 0 0 1
    outer loop
      vertex -49.2616 -4.85185 2
      vertex -12.3154 -1.21296 2
      vertex -12.375 0 2
    endloop
  endfacet
  facet normal -0 0 1
    outer loop
      vertex -41.1577 27.5007 2
      vertex -10.2894 6.87518 2
      vertex -38.264 31.4025 2
    endloop
  endfacet
  facet normal 0 0 1
    outer loop
      vertex -10.2894 6.87518 2
      vertex -41.1577 27.5007 2
      vertex -10.9138 5.83353 2
    endloop
  endfacet
  facet normal 0 0 1
    outer loop
      vertex -4.73571 -11.433 2
      vertex -18.9428 -45.732 2
      vertex -14.3691 -47.3685 2
    endloop
  endfacet
  facet normal -0 0 1
    outer loop
      vertex -43.6551 23.3341 2
      vertex -10.9138 5.83353 2
      vertex -41.1577 27.5007 2
    endloop
  endfacet
  facet normal 0 0 1
    outer loop
      vertex -5.83353 -10.9138 2
      vertex -23.3341 -43.6551 2
      vertex -18.9428 -45.732 2
    endloop
  endfacet
  facet normal 0 0 1
    outer loop
      vertex -10.9138 5.83353 2
      vertex -43.6551 23.3341 2
      vertex -11.433 4.73571 2
    endloop
  endfacet
  facet normal 0 0 1
    outer loop
      vertex -6.87518 -10.2894 2
      vertex -27.5007 -41.1577 2
      vertex -23.3341 -43.6551 2
    endloop
  endfacet
  facet normal -0 0 1
    outer loop
      vertex -45.732 18.9428 2
      vertex -11.433 4.73571 2
      vertex -43.6551 23.3341 2
    endloop
  endfacet
  facet normal 0 0 1
    outer loop
      vertex -7.85062 -9.566 2
      vertex -31.4025 -38.264 2
      vertex -27.5007 -41.1577 2
    endloop
  endfacet
  facet normal 0 0 1
    outer loop
      vertex -11.433 4.73571 2
      vertex -45.732 18.9428 2
      vertex -11.8421 3.59227 2
    endloop
  endfacet
  facet normal 0 0 1
    outer loop
      vertex -8.75045 -8.75045 2
      vertex -35.0018 -35.0018 2
      vertex -31.4025 -38.264 2
    endloop
  endfacet
  facet normal -0 0 1
    outer loop
      vertex -47.3685 14.3691 2
      vertex -11.8421 3.59227 2
      vertex -45.732 18.9428 2
    endloop
  endfacet
  facet normal 0 0 1
    outer loop
      vertex -9.566 -7.85062 2
      vertex -38.264 -31.4025 2
      vertex -35.0018 -35.0018 2
    endloop
  endfacet
  facet normal 0 0 1
    outer loop
      vertex -11.8421 3.59227 2
      vertex -47.3685 14.3691 2
      vertex -12.1372 2.41424 2
    endloop
  endfacet
  facet normal 0 0 1
    outer loop
      vertex -10.2894 -6.87518 2
      vertex -41.1577 -27.5007 2
      vertex -38.264 -31.4025 2
    endloop
  endfacet
  facet normal -0 0 1
    outer loop
      vertex -48.5489 9.65697 2
      vertex -12.1372 2.41424 2
      vertex -47.3685 14.3691 2
    endloop
  endfacet
  facet normal 0 0 1
    outer loop
      vertex -10.9138 -5.83353 2
      vertex -43.6551 -23.3341 2
      vertex -41.1577 -27.5007 2
    endloop
  endfacet
  facet normal 0 0 1
    outer loop
      vertex -12.1372 2.41424 2
      vertex -48.5489 9.65697 2
      vertex -12.3154 1.21296 2
    endloop
  endfacet
  facet normal 0 0 1
    outer loop
      vertex -11.433 -4.73571 2
      vertex -45.732 -18.9428 2
      vertex -43.6551 -23.3341 2
    endloop
  endfacet
  facet normal -0 0 1
    outer loop
      vertex -49.2616 4.85185 2
      vertex -12.3154 1.21296 2
      vertex -48.5489 9.65697 2
    endloop
  endfacet
  facet normal 0 0 1
    outer loop
      vertex -11.8421 -3.59227 2
      vertex -47.3685 -14.3691 2
      vertex -45.732 -18.9428 2
    endloop
  endfacet
  facet normal 0 0 1
    outer loop
      vertex -12.3154 1.21296 2
      vertex -49.2616 4.85185 2
      vertex -12.375 0 2
    endloop
  endfacet
  facet normal 0 0 1
    outer loop
      vertex -12.1372 -2.41424 2
      vertex -48.5489 -9.65697 2
      vertex -47.3685 -14.3691 2
    endloop
  endfacet
  facet normal 0 0 1
    outer loop
      vertex -49.5 0 2
      vertex -12.375 0 2
      vertex -49.2616 4.85185 2
    endloop
  endfacet
  facet normal 0 0 1
    outer loop
      vertex -12.3154 -1.21296 2
      vertex -49.2616 -4.85185 2
      vertex -48.5489 -9.65697 2
    endloop
  endfacet
  facet normal 0 0 1
    outer loop
      vertex -12.375 0 2
      vertex -49.5 0 2
      vertex -49.2616 -4.85185 2
    endloop
  endfacet
  facet normal -0.998795 0.0490767 0
    outer loop
      vertex -49.5 0 -2
      vertex -49.2616 4.85185 2
      vertex -49.2616 4.85185 -2
    endloop
  endfacet
  facet normal -0.998795 0.0490767 0
    outer loop
      vertex -49.2616 4.85185 2
      vertex -49.5 0 -2
      vertex -49.5 0 2
    endloop
  endfacet
  facet normal -0.336891 -0.941544 0
    outer loop
      vertex -18.9428 -45.732 -2
      vertex -14.3691 -47.3685 2
      vertex -18.9428 -45.732 2
    endloop
  endfacet
  facet normal -0.336891 -0.941544 -0
    outer loop
      vertex -14.3691 -47.3685 2
      vertex -18.9428 -45.732 -2
      vertex -14.3691 -47.3685 -2
    endloop
  endfacet
  facet normal 0.671557 -0.740953 0
    outer loop
      vertex 31.4025 -38.264 -2
      vertex 35.0018 -35.0018 2
      vertex 31.4025 -38.264 2
    endloop
  endfacet
  facet normal 0.671557 -0.740953 0
    outer loop
      vertex 35.0018 -35.0018 2
      vertex 31.4025 -38.264 -2
      vertex 35.0018 -35.0018 -2
    endloop
  endfacet
  facet normal 0.941552 -0.336868 0
    outer loop
      vertex -11.8421 3.59227 2
      vertex -11.433 4.73571 -2
      vertex -11.433 4.73571 2
    endloop
  endfacet
  facet normal 0.941552 -0.336868 0
    outer loop
      vertex -11.433 4.73571 -2
      vertex -11.8421 3.59227 2
      vertex -11.8421 3.59227 -2
    endloop
  endfacet
  facet normal -0.989176 -0.146736 0
    outer loop
      vertex 12.3154 1.21296 -2
      vertex 12.1372 2.41424 2
      vertex 12.1372 2.41424 -2
    endloop
  endfacet
  facet normal -0.989176 -0.146736 0
    outer loop
      vertex 12.1372 2.41424 2
      vertex 12.3154 1.21296 -2
      vertex 12.3154 1.21296 2
    endloop
  endfacet
  facet normal -0.998795 -0.0490768 0
    outer loop
      vertex 12.375 0 -2
      vertex 12.3154 1.21296 2
      vertex 12.3154 1.21296 -2
    endloop
  endfacet
  facet normal -0.998795 -0.0490768 0
    outer loop
      vertex 12.3154 1.21296 2
      vertex 12.375 0 -2
      vertex 12.375 0 2
    endloop
  endfacet
  facet normal -0.970028 -0.242995 0
    outer loop
      vertex 12.1372 2.41424 -2
      vertex 11.8421 3.59227 2
      vertex 11.8421 3.59227 -2
    endloop
  endfacet
  facet normal -0.970028 -0.242995 0
    outer loop
      vertex 11.8421 3.59227 2
      vertex 12.1372 2.41424 -2
      vertex 12.1372 2.41424 2
    endloop
  endfacet
  facet normal -0.514138 0.857707 0
    outer loop
      vertex 6.87518 -10.2894 -2
      vertex 5.83353 -10.9138 2
      vertex 6.87518 -10.2894 2
    endloop
  endfacet
  facet normal -0.514138 0.857707 0
    outer loop
      vertex 5.83353 -10.9138 2
      vertex 6.87518 -10.2894 -2
      vertex 5.83353 -10.9138 -2
    endloop
  endfacet
  facet normal -0.336868 -0.941552 0
    outer loop
      vertex 3.59227 11.8421 -2
      vertex 4.73571 11.433 2
      vertex 3.59227 11.8421 2
    endloop
  endfacet
  facet normal -0.336868 -0.941552 -0
    outer loop
      vertex 4.73571 11.433 2
      vertex 3.59227 11.8421 -2
      vertex 4.73571 11.433 -2
    endloop
  endfacet
  facet normal 0.857707 -0.514138 0
    outer loop
      vertex -10.9138 5.83353 2
      vertex -10.2894 6.87518 -2
      vertex -10.2894 6.87518 2
    endloop
  endfacet
  facet normal 0.857707 -0.514138 0
    outer loop
      vertex -10.2894 6.87518 -2
      vertex -10.9138 5.83353 2
      vertex -10.9138 5.83353 -2
    endloop
  endfacet
  facet normal 0.803222 -0.59568 0
    outer loop
      vertex -10.2894 6.87518 2
      vertex -9.566 7.85062 -2
      vertex -9.566 7.85062 2
    endloop
  endfacet
  facet normal 0.803222 -0.59568 0
    outer loop
      vertex -9.566 7.85062 -2
      vertex -10.2894 6.87518 2
      vertex -10.2894 6.87518 -2
    endloop
  endfacet
  facet normal 0.146736 0.989176 -0
    outer loop
      vertex -1.21296 -12.3154 -2
      vertex -2.41424 -12.1372 2
      vertex -1.21296 -12.3154 2
    endloop
  endfacet
  facet normal 0.146736 0.989176 0
    outer loop
      vertex -2.41424 -12.1372 2
      vertex -1.21296 -12.3154 -2
      vertex -2.41424 -12.1372 -2
    endloop
  endfacet
  facet normal -0.941552 -0.336868 0
    outer loop
      vertex 11.8421 3.59227 -2
      vertex 11.433 4.73571 2
      vertex 11.433 4.73571 -2
    endloop
  endfacet
  facet normal -0.941552 -0.336868 0
    outer loop
      vertex 11.433 4.73571 2
      vertex 11.8421 3.59227 -2
      vertex 11.8421 3.59227 2
    endloop
  endfacet
  facet normal 0.59568 -0.803222 0
    outer loop
      vertex -7.85062 9.566 -2
      vertex -6.87518 10.2894 2
      vertex -7.85062 9.566 2
    endloop
  endfacet
  facet normal 0.59568 -0.803222 0
    outer loop
      vertex -6.87518 10.2894 2
      vertex -7.85062 9.566 -2
      vertex -6.87518 10.2894 -2
    endloop
  endfacet
  facet normal 0.671555 -0.740955 0
    outer loop
      vertex -8.75045 8.75045 -2
      vertex -7.85062 9.566 2
      vertex -8.75045 8.75045 2
    endloop
  endfacet
  facet normal 0.671555 -0.740955 0
    outer loop
      vertex -7.85062 9.566 2
      vertex -8.75045 8.75045 -2
      vertex -7.85062 9.566 -2
    endloop
  endfacet
  facet normal -0.0490768 0.998795 0
    outer loop
      vertex 1.21296 -12.3154 -2
      vertex 0 -12.375 2
      vertex 1.21296 -12.3154 2
    endloop
  endfacet
  facet normal -0.0490768 0.998795 0
    outer loop
      vertex 0 -12.375 2
      vertex 1.21296 -12.3154 -2
      vertex 0 -12.375 -2
    endloop
  endfacet
  facet normal 0.857707 0.514138 0
    outer loop
      vertex -10.2894 -6.87518 2
      vertex -10.9138 -5.83353 -2
      vertex -10.9138 -5.83353 2
    endloop
  endfacet
  facet normal 0.857707 0.514138 0
    outer loop
      vertex -10.9138 -5.83353 -2
      vertex -10.2894 -6.87518 2
      vertex -10.2894 -6.87518 -2
    endloop
  endfacet
  facet normal 0.970028 0.242995 0
    outer loop
      vertex -11.8421 -3.59227 2
      vertex -12.1372 -2.41424 -2
      vertex -12.1372 -2.41424 2
    endloop
  endfacet
  facet normal 0.970028 0.242995 0
    outer loop
      vertex -12.1372 -2.41424 -2
      vertex -11.8421 -3.59227 2
      vertex -11.8421 -3.59227 -2
    endloop
  endfacet
  facet normal -0.242995 -0.970028 0
    outer loop
      vertex 2.41424 12.1372 -2
      vertex 3.59227 11.8421 2
      vertex 2.41424 12.1372 2
    endloop
  endfacet
  facet normal -0.242995 -0.970028 -0
    outer loop
      vertex 3.59227 11.8421 2
      vertex 2.41424 12.1372 -2
      vertex 3.59227 11.8421 -2
    endloop
  endfacet
  facet normal 0.514138 0.857707 -0
    outer loop
      vertex -5.83353 -10.9138 -2
      vertex -6.87518 -10.2894 2
      vertex -5.83353 -10.9138 2
    endloop
  endfacet
  facet normal 0.514138 0.857707 0
    outer loop
      vertex -6.87518 -10.2894 2
      vertex -5.83353 -10.9138 -2
      vertex -6.87518 -10.2894 -2
    endloop
  endfacet
  facet normal -0.740955 -0.671555 0
    outer loop
      vertex 9.566 7.85062 -2
      vertex 8.75045 8.75045 2
      vertex 8.75045 8.75045 -2
    endloop
  endfacet
  facet normal -0.740955 -0.671555 0
    outer loop
      vertex 8.75045 8.75045 2
      vertex 9.566 7.85062 -2
      vertex 9.566 7.85062 2
    endloop
  endfacet
  facet normal 0.998795 0.0490768 0
    outer loop
      vertex -12.3154 -1.21296 2
      vertex -12.375 0 -2
      vertex -12.375 0 2
    endloop
  endfacet
  facet normal 0.998795 0.0490768 0
    outer loop
      vertex -12.375 0 -2
      vertex -12.3154 -1.21296 2
      vertex -12.3154 -1.21296 -2
    endloop
  endfacet
  facet normal -0.671555 -0.740955 0
    outer loop
      vertex 7.85062 9.566 -2
      vertex 8.75045 8.75045 2
      vertex 7.85062 9.566 2
    endloop
  endfacet
  facet normal -0.671555 -0.740955 -0
    outer loop
      vertex 8.75045 8.75045 2
      vertex 7.85062 9.566 -2
      vertex 8.75045 8.75045 -2
    endloop
  endfacet
  facet normal -0.903999 -0.427535 0
    outer loop
      vertex 11.433 4.73571 -2
      vertex 10.9138 5.83353 2
      vertex 10.9138 5.83353 -2
    endloop
  endfacet
  facet normal -0.903999 -0.427535 0
    outer loop
      vertex 10.9138 5.83353 2
      vertex 11.433 4.73571 -2
      vertex 11.433 4.73571 2
    endloop
  endfacet
  facet normal -0.0490768 -0.998795 0
    outer loop
      vertex 0 12.375 -2
      vertex 1.21296 12.3154 2
      vertex 0 12.375 2
    endloop
  endfacet
  facet normal -0.0490768 -0.998795 -0
    outer loop
      vertex 1.21296 12.3154 2
      vertex 0 12.375 -2
      vertex 1.21296 12.3154 -2
    endloop
  endfacet
  facet normal 0.336868 -0.941552 0
    outer loop
      vertex -4.73571 11.433 -2
      vertex -3.59227 11.8421 2
      vertex -4.73571 11.433 2
    endloop
  endfacet
  facet normal 0.336868 -0.941552 0
    outer loop
      vertex -3.59227 11.8421 2
      vertex -4.73571 11.433 -2
      vertex -3.59227 11.8421 -2
    endloop
  endfacet
  facet normal -0.59568 -0.803222 0
    outer loop
      vertex 6.87518 10.2894 -2
      vertex 7.85062 9.566 2
      vertex 6.87518 10.2894 2
    endloop
  endfacet
  facet normal -0.59568 -0.803222 -0
    outer loop
      vertex 7.85062 9.566 2
      vertex 6.87518 10.2894 -2
      vertex 7.85062 9.566 -2
    endloop
  endfacet
  facet normal 0.941552 0.336868 0
    outer loop
      vertex -11.433 -4.73571 2
      vertex -11.8421 -3.59227 -2
      vertex -11.8421 -3.59227 2
    endloop
  endfacet
  facet normal 0.941552 0.336868 0
    outer loop
      vertex -11.8421 -3.59227 -2
      vertex -11.433 -4.73571 2
      vertex -11.433 -4.73571 -2
    endloop
  endfacet
  facet normal -0.970028 0.242995 0
    outer loop
      vertex 11.8421 -3.59227 -2
      vertex 12.1372 -2.41424 2
      vertex 12.1372 -2.41424 -2
    endloop
  endfacet
  facet normal -0.970028 0.242995 0
    outer loop
      vertex 12.1372 -2.41424 2
      vertex 11.8421 -3.59227 -2
      vertex 11.8421 -3.59227 2
    endloop
  endfacet
  facet normal 0.514138 -0.857707 0
    outer loop
      vertex -6.87518 10.2894 -2
      vertex -5.83353 10.9138 2
      vertex -6.87518 10.2894 2
    endloop
  endfacet
  facet normal 0.514138 -0.857707 0
    outer loop
      vertex -5.83353 10.9138 2
      vertex -6.87518 10.2894 -2
      vertex -5.83353 10.9138 -2
    endloop
  endfacet
  facet normal -0.857707 -0.514138 0
    outer loop
      vertex 10.9138 5.83353 -2
      vertex 10.2894 6.87518 2
      vertex 10.2894 6.87518 -2
    endloop
  endfacet
  facet normal -0.857707 -0.514138 0
    outer loop
      vertex 10.2894 6.87518 2
      vertex 10.9138 5.83353 -2
      vertex 10.9138 5.83353 2
    endloop
  endfacet
  facet normal 0.970028 -0.242995 0
    outer loop
      vertex -12.1372 2.41424 2
      vertex -11.8421 3.59227 -2
      vertex -11.8421 3.59227 2
    endloop
  endfacet
  facet normal 0.970028 -0.242995 0
    outer loop
      vertex -11.8421 3.59227 -2
      vertex -12.1372 2.41424 2
      vertex -12.1372 2.41424 -2
    endloop
  endfacet
  facet normal -0.427535 0.903999 0
    outer loop
      vertex 5.83353 -10.9138 -2
      vertex 4.73571 -11.433 2
      vertex 5.83353 -10.9138 2
    endloop
  endfacet
  facet normal -0.427535 0.903999 0
    outer loop
      vertex 4.73571 -11.433 2
      vertex 5.83353 -10.9138 -2
      vertex 4.73571 -11.433 -2
    endloop
  endfacet
  facet normal 0.671555 0.740955 -0
    outer loop
      vertex -7.85062 -9.566 -2
      vertex -8.75045 -8.75045 2
      vertex -7.85062 -9.566 2
    endloop
  endfacet
  facet normal 0.671555 0.740955 0
    outer loop
      vertex -8.75045 -8.75045 2
      vertex -7.85062 -9.566 -2
      vertex -8.75045 -8.75045 -2
    endloop
  endfacet
  facet normal 0.740955 -0.671555 0
    outer loop
      vertex -9.566 7.85062 2
      vertex -8.75045 8.75045 -2
      vertex -8.75045 8.75045 2
    endloop
  endfacet
  facet normal 0.740955 -0.671555 0
    outer loop
      vertex -8.75045 8.75045 -2
      vertex -9.566 7.85062 2
      vertex -9.566 7.85062 -2
    endloop
  endfacet
  facet normal -0.514138 -0.857707 0
    outer loop
      vertex 5.83353 10.9138 -2
      vertex 6.87518 10.2894 2
      vertex 5.83353 10.9138 2
    endloop
  endfacet
  facet normal -0.514138 -0.857707 -0
    outer loop
      vertex 6.87518 10.2894 2
      vertex 5.83353 10.9138 -2
      vertex 6.87518 10.2894 -2
    endloop
  endfacet
  facet normal -0.146736 0.989176 0
    outer loop
      vertex 2.41424 -12.1372 -2
      vertex 1.21296 -12.3154 2
      vertex 2.41424 -12.1372 2
    endloop
  endfacet
  facet normal -0.146736 0.989176 0
    outer loop
      vertex 1.21296 -12.3154 2
      vertex 2.41424 -12.1372 -2
      vertex 1.21296 -12.3154 -2
    endloop
  endfacet
  facet normal -0.941552 0.336868 0
    outer loop
      vertex 11.433 -4.73571 -2
      vertex 11.8421 -3.59227 2
      vertex 11.8421 -3.59227 -2
    endloop
  endfacet
  facet normal -0.941552 0.336868 0
    outer loop
      vertex 11.8421 -3.59227 2
      vertex 11.433 -4.73571 -2
      vertex 11.433 -4.73571 2
    endloop
  endfacet
  facet normal -0.740955 0.671555 0
    outer loop
      vertex 8.75045 -8.75045 -2
      vertex 9.566 -7.85062 2
      vertex 9.566 -7.85062 -2
    endloop
  endfacet
  facet normal -0.740955 0.671555 0
    outer loop
      vertex 9.566 -7.85062 2
      vertex 8.75045 -8.75045 -2
      vertex 8.75045 -8.75045 2
    endloop
  endfacet
  facet normal -0.803222 0.59568 0
    outer loop
      vertex 9.566 -7.85062 -2
      vertex 10.2894 -6.87518 2
      vertex 10.2894 -6.87518 -2
    endloop
  endfacet
  facet normal -0.803222 0.59568 0
    outer loop
      vertex 10.2894 -6.87518 2
      vertex 9.566 -7.85062 -2
      vertex 9.566 -7.85062 2
    endloop
  endfacet
  facet normal 0.242995 -0.970028 0
    outer loop
      vertex -3.59227 11.8421 -2
      vertex -2.41424 12.1372 2
      vertex -3.59227 11.8421 2
    endloop
  endfacet
  facet normal 0.242995 -0.970028 0
    outer loop
      vertex -2.41424 12.1372 2
      vertex -3.59227 11.8421 -2
      vertex -2.41424 12.1372 -2
    endloop
  endfacet
  facet normal 0.427535 -0.903999 0
    outer loop
      vertex -5.83353 10.9138 -2
      vertex -4.73571 11.433 2
      vertex -5.83353 10.9138 2
    endloop
  endfacet
  facet normal 0.427535 -0.903999 0
    outer loop
      vertex -4.73571 11.433 2
      vertex -5.83353 10.9138 -2
      vertex -4.73571 11.433 -2
    endloop
  endfacet
  facet normal 0.989176 -0.146736 0
    outer loop
      vertex -12.3154 1.21296 2
      vertex -12.1372 2.41424 -2
      vertex -12.1372 2.41424 2
    endloop
  endfacet
  facet normal 0.989176 -0.146736 0
    outer loop
      vertex -12.1372 2.41424 -2
      vertex -12.3154 1.21296 2
      vertex -12.3154 1.21296 -2
    endloop
  endfacet
  facet normal -0.427535 -0.903999 0
    outer loop
      vertex 4.73571 11.433 -2
      vertex 5.83353 10.9138 2
      vertex 4.73571 11.433 2
    endloop
  endfacet
  facet normal -0.427535 -0.903999 -0
    outer loop
      vertex 5.83353 10.9138 2
      vertex 4.73571 11.433 -2
      vertex 5.83353 10.9138 -2
    endloop
  endfacet
  facet normal 0.242995 0.970028 -0
    outer loop
      vertex -2.41424 -12.1372 -2
      vertex -3.59227 -11.8421 2
      vertex -2.41424 -12.1372 2
    endloop
  endfacet
  facet normal 0.242995 0.970028 0
    outer loop
      vertex -3.59227 -11.8421 2
      vertex -2.41424 -12.1372 -2
      vertex -3.59227 -11.8421 -2
    endloop
  endfacet
  facet normal -0.989176 0.146736 0
    outer loop
      vertex 12.1372 -2.41424 -2
      vertex 12.3154 -1.21296 2
      vertex 12.3154 -1.21296 -2
    endloop
  endfacet
  facet normal -0.989176 0.146736 0
    outer loop
      vertex 12.3154 -1.21296 2
      vertex 12.1372 -2.41424 -2
      vertex 12.1372 -2.41424 2
    endloop
  endfacet
  facet normal -0.803222 -0.59568 0
    outer loop
      vertex 10.2894 6.87518 -2
      vertex 9.566 7.85062 2
      vertex 9.566 7.85062 -2
    endloop
  endfacet
  facet normal -0.803222 -0.59568 0
    outer loop
      vertex 9.566 7.85062 2
      vertex 10.2894 6.87518 -2
      vertex 10.2894 6.87518 2
    endloop
  endfacet
  facet normal 0.803222 0.59568 0
    outer loop
      vertex -9.566 -7.85062 2
      vertex -10.2894 -6.87518 -2
      vertex -10.2894 -6.87518 2
    endloop
  endfacet
  facet normal 0.803222 0.59568 0
    outer loop
      vertex -10.2894 -6.87518 -2
      vertex -9.566 -7.85062 2
      vertex -9.566 -7.85062 -2
    endloop
  endfacet
  facet normal 0.903999 0.427535 0
    outer loop
      vertex -10.9138 -5.83353 2
      vertex -11.433 -4.73571 -2
      vertex -11.433 -4.73571 2
    endloop
  endfacet
  facet normal 0.903999 0.427535 0
    outer loop
      vertex -11.433 -4.73571 -2
      vertex -10.9138 -5.83353 2
      vertex -10.9138 -5.83353 -2
    endloop
  endfacet
  facet normal -0.146736 -0.989176 0
    outer loop
      vertex 1.21296 12.3154 -2
      vertex 2.41424 12.1372 2
      vertex 1.21296 12.3154 2
    endloop
  endfacet
  facet normal -0.146736 -0.989176 -0
    outer loop
      vertex 2.41424 12.1372 2
      vertex 1.21296 12.3154 -2
      vertex 2.41424 12.1372 -2
    endloop
  endfacet
  facet normal 0.0490768 -0.998795 0
    outer loop
      vertex -1.21296 12.3154 -2
      vertex 0 12.375 2
      vertex -1.21296 12.3154 2
    endloop
  endfacet
  facet normal 0.0490768 -0.998795 0
    outer loop
      vertex 0 12.375 2
      vertex -1.21296 12.3154 -2
      vertex 0 12.375 -2
    endloop
  endfacet
  facet normal 0.427535 0.903999 -0
    outer loop
      vertex -4.73571 -11.433 -2
      vertex -5.83353 -10.9138 2
      vertex -4.73571 -11.433 2
    endloop
  endfacet
  facet normal 0.427535 0.903999 0
    outer loop
      vertex -5.83353 -10.9138 2
      vertex -4.73571 -11.433 -2
      vertex -5.83353 -10.9138 -2
    endloop
  endfacet
  facet normal -0.59568 0.803222 0
    outer loop
      vertex 7.85062 -9.566 -2
      vertex 6.87518 -10.2894 2
      vertex 7.85062 -9.566 2
    endloop
  endfacet
  facet normal -0.59568 0.803222 0
    outer loop
      vertex 6.87518 -10.2894 2
      vertex 7.85062 -9.566 -2
      vertex 6.87518 -10.2894 -2
    endloop
  endfacet
  facet normal -0.998795 0.0490768 0
    outer loop
      vertex 12.3154 -1.21296 -2
      vertex 12.375 0 2
      vertex 12.375 0 -2
    endloop
  endfacet
  facet normal -0.998795 0.0490768 0
    outer loop
      vertex 12.375 0 2
      vertex 12.3154 -1.21296 -2
      vertex 12.3154 -1.21296 2
    endloop
  endfacet
  facet normal 0.146736 -0.989176 0
    outer loop
      vertex -2.41424 12.1372 -2
      vertex -1.21296 12.3154 2
      vertex -2.41424 12.1372 2
    endloop
  endfacet
  facet normal 0.146736 -0.989176 0
    outer loop
      vertex -1.21296 12.3154 2
      vertex -2.41424 12.1372 -2
      vertex -1.21296 12.3154 -2
    endloop
  endfacet
  facet normal 0.989176 0.146736 0
    outer loop
      vertex -12.1372 -2.41424 2
      vertex -12.3154 -1.21296 -2
      vertex -12.3154 -1.21296 2
    endloop
  endfacet
  facet normal 0.989176 0.146736 0
    outer loop
      vertex -12.3154 -1.21296 -2
      vertex -12.1372 -2.41424 2
      vertex -12.1372 -2.41424 -2
    endloop
  endfacet
  facet normal -0.336868 0.941552 0
    outer loop
      vertex 4.73571 -11.433 -2
      vertex 3.59227 -11.8421 2
      vertex 4.73571 -11.433 2
    endloop
  endfacet
  facet normal -0.336868 0.941552 0
    outer loop
      vertex 3.59227 -11.8421 2
      vertex 4.73571 -11.433 -2
      vertex 3.59227 -11.8421 -2
    endloop
  endfacet
  facet normal -0.242995 0.970028 0
    outer loop
      vertex 3.59227 -11.8421 -2
      vertex 2.41424 -12.1372 2
      vertex 3.59227 -11.8421 2
    endloop
  endfacet
  facet normal -0.242995 0.970028 0
    outer loop
      vertex 2.41424 -12.1372 2
      vertex 3.59227 -11.8421 -2
      vertex 2.41424 -12.1372 -2
    endloop
  endfacet
  facet normal 0.740955 0.671555 0
    outer loop
      vertex -8.75045 -8.75045 2
      vertex -9.566 -7.85062 -2
      vertex -9.566 -7.85062 2
    endloop
  endfacet
  facet normal 0.740955 0.671555 0
    outer loop
      vertex -9.566 -7.85062 -2
      vertex -8.75045 -8.75045 2
      vertex -8.75045 -8.75045 -2
    endloop
  endfacet
  facet normal 0.903999 -0.427535 0
    outer loop
      vertex -11.433 4.73571 2
      vertex -10.9138 5.83353 -2
      vertex -10.9138 5.83353 2
    endloop
  endfacet
  facet normal 0.903999 -0.427535 0
    outer loop
      vertex -10.9138 5.83353 -2
      vertex -11.433 4.73571 2
      vertex -11.433 4.73571 -2
    endloop
  endfacet
  facet normal 0.59568 0.803222 -0
    outer loop
      vertex -6.87518 -10.2894 -2
      vertex -7.85062 -9.566 2
      vertex -6.87518 -10.2894 2
    endloop
  endfacet
  facet normal 0.59568 0.803222 0
    outer loop
      vertex -7.85062 -9.566 2
      vertex -6.87518 -10.2894 -2
      vertex -7.85062 -9.566 -2
    endloop
  endfacet
  facet normal -0.903999 0.427535 0
    outer loop
      vertex 10.9138 -5.83353 -2
      vertex 11.433 -4.73571 2
      vertex 11.433 -4.73571 -2
    endloop
  endfacet
  facet normal -0.903999 0.427535 0
    outer loop
      vertex 11.433 -4.73571 2
      vertex 10.9138 -5.83353 -2
      vertex 10.9138 -5.83353 2
    endloop
  endfacet
  facet normal -0.857707 0.514138 0
    outer loop
      vertex 10.2894 -6.87518 -2
      vertex 10.9138 -5.83353 2
      vertex 10.9138 -5.83353 -2
    endloop
  endfacet
  facet normal -0.857707 0.514138 0
    outer loop
      vertex 10.9138 -5.83353 2
      vertex 10.2894 -6.87518 -2
      vertex 10.2894 -6.87518 2
    endloop
  endfacet
  facet normal 0.0490768 0.998795 -0
    outer loop
      vertex 0 -12.375 -2
      vertex -1.21296 -12.3154 2
      vertex 0 -12.375 2
    endloop
  endfacet
  facet normal 0.0490768 0.998795 0
    outer loop
      vertex -1.21296 -12.3154 2
      vertex 0 -12.375 -2
      vertex -1.21296 -12.3154 -2
    endloop
  endfacet
  facet normal 0.998795 -0.0490768 0
    outer loop
      vertex -12.375 0 2
      vertex -12.3154 1.21296 -2
      vertex -12.3154 1.21296 2
    endloop
  endfacet
  facet normal 0.998795 -0.0490768 0
    outer loop
      vertex -12.3154 1.21296 -2
      vertex -12.375 0 2
      vertex -12.375 0 -2
    endloop
  endfacet
  facet normal 0.336868 0.941552 -0
    outer loop
      vertex -3.59227 -11.8421 -2
      vertex -4.73571 -11.433 2
      vertex -3.59227 -11.8421 2
    endloop
  endfacet
  facet normal 0.336868 0.941552 0
    outer loop
      vertex -4.73571 -11.433 2
      vertex -3.59227 -11.8421 -2
      vertex -4.73571 -11.433 -2
    endloop
  endfacet
  facet normal -0.671555 0.740955 0
    outer loop
      vertex 8.75045 -8.75045 -2
      vertex 7.85062 -9.566 2
      vertex 8.75045 -8.75045 2
    endloop
  endfacet
  facet normal -0.671555 0.740955 0
    outer loop
      vertex 7.85062 -9.566 2
      vertex 8.75045 -8.75045 -2
      vertex 7.85062 -9.566 -2
    endloop
  endfacet
endsolid OpenSCAD_Model
