<?xml version="1.0" encoding="UTF-8" standalone="no"?>
<svg
   viewBox="0 0 793.70079 1122.5197"
   width="210mm"
   height="297mm"
   version="1.1"
   id="svg528"
   sodipodi:docname="SO_v4_5inch_arm_4mm_4x_holes.svg"
   inkscape:version="1.1 (c68e22c387, 2021-05-23)"
   xmlns:inkscape="http://www.inkscape.org/namespaces/inkscape"
   xmlns:sodipodi="http://sodipodi.sourceforge.net/DTD/sodipodi-0.dtd"
   xmlns="http://www.w3.org/2000/svg"
   xmlns:svg="http://www.w3.org/2000/svg">
  <sodipodi:namedview
     id="namedview530"
     pagecolor="#505050"
     bordercolor="#eeeeee"
     borderopacity="1"
     inkscape:pageshadow="0"
     inkscape:pageopacity="0"
     inkscape:pagecheckerboard="0"
     showgrid="false"
     inkscape:zoom="2.4007726"
     inkscape:cx="150.16"
     inkscape:cy="961.35721"
     inkscape:window-width="1920"
     inkscape:window-height="1011"
     inkscape:window-x="0"
     inkscape:window-y="0"
     inkscape:window-maximized="1"
     inkscape:current-layer="g526"
     units="mm"
     inkscape:document-units="mm" />
  <desc
     id="desc464">SO_v4_5inch_arm_4mm_4x.dxf - scale = 1.0, origin = (0.0, 0.0), method = file</desc>
  <defs
     id="defs478">
    <marker
       id="DistanceX"
       orient="auto"
       refX="0"
       refY="0"
       style="overflow:visible">
      <path
         d="M 3,-3 -3,3 M 0,-5 V 5"
         style="stroke:#000000;stroke-width:0.5"
         id="path466" />
    </marker>
    <pattern
       id="Hatch"
       patternUnits="userSpaceOnUse"
       width="8"
       height="8"
       x="0"
       y="0">
      <path
         d="M8 4 l-4,4"
         stroke="#000000"
         stroke-width="0.25"
         linecap="square"
         id="path469" />
      <path
         d="M6 2 l-4,4"
         stroke="#000000"
         stroke-width="0.25"
         linecap="square"
         id="path471" />
      <path
         d="M4 0 l-4,4"
         stroke="#000000"
         stroke-width="0.25"
         linecap="square"
         id="path473" />
    </pattern>
    <symbol
       id="*Model_Space" />
    <symbol
       id="*Paper_Space" />
    <inkscape:path-effect
       effect="fill_between_many"
       method="originald"
       linkedpaths="#path498,0,1|#path500,0,1|#path502,0,1|#path504,0,1|"
       id="path-effect1469" />
    <inkscape:path-effect
       effect="fill_between_many"
       method="originald"
       linkedpaths="#path516,0,1|#path518,0,1|#path520,0,1|#path522,0,1|"
       id="path-effect1632" />
    <inkscape:path-effect
       effect="fill_between_many"
       method="originald"
       linkedpaths="#path508,0,1|#path510,0,1|#path512,0,1|#path514,0,1|"
       id="path-effect1636" />
    <inkscape:path-effect
       effect="fill_between_many"
       method="originald"
       linkedpaths="#path486,0,1|#path488,0,1|#path490,0,1|#path492,0,1|"
       id="path-effect1640" />
  </defs>
  <g
     inkscape:groupmode="layer"
     inkscape:label="0"
     id="g480" />
  <g
     inkscape:groupmode="layer"
     inkscape:label="Frame-Arms"
     id="g526">
    <path
       inkscape:original-d="M 0,0"
       inkscape:path-effect="#path-effect1640"
       d="m 166.466,1025.69 5.595,0.92 a 5.6692916,5.6692916 0 0 1 -1.83278,11.1865 l -3.76226,-12.1058 a 5.6693299,5.6693299 0 0 0 -1.8325,11.1896 l 5.59454,0.9197 z"
       id="path1642" />
    <path
       style="fill:none;stroke:#4c9872"
       d="m 166.466,1025.69 5.595,0.92"
       id="path486" />
    <path
       style="fill:none;stroke:#4c9872"
       d="m 170.22822,1037.7965 a 5.6692916,5.6692916 0 0 0 1.83251,-11.1895"
       id="path488" />
    <path
       style="fill:none;stroke:#4c9872"
       d="m 170.228,1037.8 -5.595,-0.92"
       id="path490" />
    <path
       style="fill:none;stroke:#4c9872"
       d="m 166.46596,1025.6907 a 5.6693299,5.6693299 0 0 0 -1.8325,11.1896"
       id="path492" />
    <path
       d="m 100.26172,1014.9277 a 5.6692916,5.6692916 0 0 0 -0.900392,11.2637 l 5.593752,0.918 v -0 a 5.6692911,5.6692911 0 1 0 1.83398,-11.1875 L 101.19336,1015 v 0 a 5.6692916,5.6692916 0 0 0 -0.93164,-0.074 z"
       id="path1471" />
    <path
       style="fill:none;stroke:#4c9872"
       d="m 101.194,1015 5.595,0.92"
       id="path498" />
    <path
       style="fill:none;stroke:#4c9872"
       d="m 104.95601,1027.1069 a 5.6692911,5.6692911 0 1 0 1.83251,-11.1895"
       id="path500" />
    <path
       style="fill:none;stroke:#4c9872"
       d="m 104.956,1027.11 -5.5947,-0.92"
       id="path502" />
    <path
       style="fill:none;stroke:#4c9872"
       d="m 101.19376,1015.0011 a 5.6692916,5.6692916 0 0 0 -1.832506,11.1895"
       id="path504" />
    <path
       inkscape:original-d="M 0,0"
       inkscape:path-effect="#path-effect1636"
       d="m 124.3133,1060.916 a 5.6692985,5.6692985 0 0 0 11.18952,1.8326 l 0.91618,-5.5986 a 5.6692911,5.6692911 0 0 0 -11.18945,-1.8287 l -0.91655,5.5987 z"
       id="path1638" />
    <path
       style="fill:none;stroke:#4c9872"
       d="m 124.3133,1060.916 a 5.6692985,5.6692985 0 0 0 11.18952,1.8326"
       id="path508" />
    <path
       style="fill:none;stroke:#4c9872"
       d="m 124.313,1060.92 0.917,-5.6"
       id="path510" />
    <path
       style="fill:none;stroke:#4c9872"
       d="m 136.41907,1057.1538 a 5.6692911,5.6692911 0 0 0 -11.18952,-1.8325"
       id="path512" />
    <path
       style="fill:none;stroke:#4c9872"
       d="m 136.419,1057.15 -0.916,5.6"
       id="path514" />
    <path
       inkscape:original-d="M 0,0"
       inkscape:path-effect="#path-effect1632"
       d="m 147.109,991.882 -0.917,5.594 a 5.6692953,5.6692953 0 0 1 -11.1891,-1.83216 l 12.10578,-3.76226 a 5.6692916,5.6692916 0 1 0 -11.18952,-1.8325 L 135.003,995.644 Z"
       id="path1634" />
    <path
       style="fill:none;stroke:#4c9872"
       d="m 147.109,991.882 -0.917,5.594"
       id="path516" />
    <path
       style="fill:none;stroke:#4c9872"
       d="m 135.0029,995.64384 a 5.6692953,5.6692953 0 0 0 11.18953,1.8325"
       id="path518" />
    <path
       style="fill:none;stroke:#4c9872"
       d="m 135.003,995.644 0.916,-5.595"
       id="path520" />
    <path
       style="fill:none;stroke:#4c9872"
       d="m 147.10868,991.88158 a 5.6692916,5.6692916 0 1 0 -11.18952,-1.8325"
       id="path522" />
  </g>
</svg>
