<?xml version="1.0" encoding="UTF-8" standalone="no"?>
<svg
   viewBox="0 0 793.70079 1122.5197"
   width="210mm"
   height="297mm"
   version="1.1"
   id="svg528"
   xmlns="http://www.w3.org/2000/svg"
   xmlns:svg="http://www.w3.org/2000/svg">
  <desc
     id="desc464">SO_v4_5inch_arm_4mm_4x.dxf - scale = 1.0, origin = (0.0, 0.0), method = file</desc>
  <defs
     id="defs478">
    <marker
       id="DistanceX"
       orient="auto"
       refX="0"
       refY="0"
       style="overflow:visible">
      <path
         d="M 3,-3 -3,3 M 0,-5 V 5"
         style="stroke:#000000;stroke-width:0.5"
         id="path466" />
    </marker>
    <pattern
       id="Hatch"
       patternUnits="userSpaceOnUse"
       width="8"
       height="8"
       x="0"
       y="0">
      <path
         d="M8 4 l-4,4"
         stroke="#000000"
         stroke-width="0.25"
         linecap="square"
         id="path469" />
      <path
         d="M6 2 l-4,4"
         stroke="#000000"
         stroke-width="0.25"
         linecap="square"
         id="path471" />
      <path
         d="M4 0 l-4,4"
         stroke="#000000"
         stroke-width="0.25"
         linecap="square"
         id="path473" />
    </pattern>
    <symbol
       id="*Model_Space" />
    <symbol
       id="*Paper_Space" />
  </defs>
  <g
     id="g480" />
  <g
     id="g526">
    <path
       style="fill:none;stroke:#4c9872"
       d="m -203.267,1248.94 v 15.37"
       id="path482" />
    <path
       style="fill:none;stroke:#4c9872"
       d="m -203.267,1248.94 v 15.37"
       id="path484" />
    <path
       style="fill:none;stroke:#4c9872"
       d="m 166.466,1025.69 5.595,0.92"
       id="path486" />
    <path
       d="m 170.22822,1037.7965 a 5.6692916,5.6692916 0 0 0 1.83251,-11.1895"
       style="fill:none;stroke:#4c9872"
       id="path488" />
    <path
       style="fill:none;stroke:#4c9872"
       d="m 170.228,1037.8 -5.595,-0.92"
       id="path490" />
    <path
       d="m 166.46596,1025.6907 a 5.6692911,5.6692911 0 0 0 -1.8325,11.1896"
       style="fill:none;stroke:#4c9872"
       id="path492" />
    <path
       d="m 148.93934,1026.3988 a 13.228346,13.228346 0 1 0 -26.4567,0 13.228346,13.228346 0 1 0 26.4567,0 z"
       style="fill:none;stroke:#4c9872"
       id="path494" />
    <path
       d="m -139.96002,1228.5596 a 5.669291,5.669291 0 1 0 -11.33859,0 5.669291,5.669291 0 1 0 11.33859,0 z"
       style="fill:none;stroke:#4c9872"
       id="path496" />
    <path
       style="fill:none;stroke:#4c9872"
       d="m 101.194,1015 5.595,0.92"
       id="path498" />
    <path
       d="m 104.95601,1027.1069 a 5.6692911,5.6692911 0 1 0 1.83251,-11.1895"
       style="fill:none;stroke:#4c9872"
       id="path500" />
    <path
       style="fill:none;stroke:#4c9872"
       d="m 104.956,1027.11 -5.5947,-0.92"
       id="path502" />
    <path
       d="m 101.19376,1015.0011 a 5.6692916,5.6692916 0 0 0 -1.832506,11.1895"
       style="fill:none;stroke:#4c9872"
       id="path504" />
    <path
       d="m -159.80254,1248.4015 a 5.6692915,5.6692915 0 1 0 -11.33859,0 5.6692915,5.6692915 0 1 0 11.33859,0 z"
       style="fill:none;stroke:#4c9872"
       id="path506" />
    <path
       d="m 124.3133,1060.916 a 5.6692916,5.6692916 0 0 0 11.18952,1.8326"
       style="fill:none;stroke:#4c9872"
       id="path508" />
    <path
       style="fill:none;stroke:#4c9872"
       d="m 124.313,1060.92 0.917,-5.6"
       id="path510" />
    <path
       d="m 136.41907,1057.1538 a 5.6692911,5.6692911 0 0 0 -11.18952,-1.8325"
       style="fill:none;stroke:#4c9872"
       id="path512" />
    <path
       style="fill:none;stroke:#4c9872"
       d="m 136.419,1057.15 -0.916,5.6"
       id="path514" />
    <path
       style="fill:none;stroke:#4c9872"
       d="m 147.109,991.882 -0.917,5.594"
       id="path516" />
    <path
       d="m 135.0029,995.64384 a 5.6692911,5.6692911 0 0 0 11.18953,1.8325"
       style="fill:none;stroke:#4c9872"
       id="path518" />
    <path
       style="fill:none;stroke:#4c9872"
       d="m 135.003,995.644 0.916,-5.595"
       id="path520" />
    <path
       d="m 147.10868,991.88158 a 5.6692916,5.6692916 0 1 0 -11.18952,-1.8325"
       style="fill:none;stroke:#4c9872"
       id="path522" />
    <path
       d="m -203.26712,1248.9404 v 15.3663 a 5.669291,5.669291 0 0 1 3.30793,10.2734 l -3.30792,2.3766 v 9.2401 h 11.32577 a 74.580052,74.580052 0 0 1 31.72952,-17.684 113.38583,113.38583 0 0 1 0.10945,-0.029 20.787402,20.787402 0 0 0 9.05943,-5.1179 113.38583,113.38583 0 0 1 18.2986,-14.3344 24.188976,24.188976 0 0 0 2.43407,-1.7519 2277.3752,2277.3752 0 0 1 189.072689,-145.1101 90.371277,90.371277 0 0 1 57.116131,-18.4455 l 22.87137,0.5978 a 8.560651,8.560651 0 0 0 8.26146,-11.5037 18.087295,18.087295 0 0 1 19.90575,-24.0739 l 23.85407,3.9065 a 7.559055,7.559055 0 0 0 7.63743,-3.4625 32.122652,32.122652 0 0 0 3.99404,-24.3882 7.559055,7.559055 0 0 0 -6.13396,-5.7178 l -18.64636,-3.0537 a 22.677165,22.677165 0 0 1 -18.7141,-26.04366 l 3.05336,-18.64642 a 7.559055,7.559055 0 0 0 -3.46266,-7.63736 32.122652,32.122652 0 0 0 -24.38827,-3.9936 7.559055,7.559055 0 0 0 -5.71774,6.13407 l -3.90613,23.85414 a 18.087295,18.087295 0 0 1 -29.165725,11.18723 8.560651,8.560651 0 0 0 -13.537971,4.1606 l -6.728608,21.8674 a 90.368646,90.368646 0 0 1 -35.700401,48.2487 2277.3752,2277.3752 0 0 1 -197.838995,132.9104 24.188976,24.188976 0 0 0 -4.43162,3.5703 l -7.2404,7.3967 a 362.83465,362.83465 0 0 1 -33.11021,29.9037 z"
       style="fill:none;stroke:#4c9872"
       id="path524" />
  </g>
</svg>
