solid OpenSCAD_Model
  facet normal -0.173643 -0.984809 0
    outer loop
      vertex -0.858822 -3.44455 0
      vertex -0.371076 -3.53055 9
      vertex -0.858822 -3.44455 9
    endloop
  endfacet
  facet normal -0.173643 -0.984809 -0
    outer loop
      vertex -0.371076 -3.53055 9
      vertex -0.858822 -3.44455 0
      vertex -0.371076 -3.53055 0
    endloop
  endfacet
  facet normal -0.990268 -0.139176 1.61158e-19
    outer loop
      vertex -3.47242 -0.738086 0
      vertex -3.54135 -0.247635 9
      vertex -3.54135 -0.247635 0
    endloop
  endfacet
  facet normal -0.990268 -0.139176 1.61158e-19
    outer loop
      vertex -3.54135 -0.247635 9
      vertex -3.47242 -0.738086 0
      vertex -3.47242 -0.738086 9
    endloop
  endfacet
  facet normal 0.935511 -0.353297 4.57599e-19
    outer loop
      vertex 3.24309 -1.44391 9
      vertex 3.60219 -0.493032 0
      vertex 3.60219 -0.493032 9
    endloop
  endfacet
  facet normal 0.935511 -0.353297 4.57599e-19
    outer loop
      vertex 3.60219 -0.493032 0
      vertex 3.24309 -1.44391 9
      vertex 3.24309 -1.44391 0
    endloop
  endfacet
  facet normal -0.0349102 -0.99939 0
    outer loop
      vertex -0.371076 -3.53055 0
      vertex 0.123893 -3.54784 9
      vertex -0.371076 -3.53055 9
    endloop
  endfacet
  facet normal -0.0349102 -0.99939 -0
    outer loop
      vertex 0.123893 -3.54784 9
      vertex -0.371076 -3.53055 0
      vertex 0.123893 -3.54784 0
    endloop
  endfacet
  facet normal -0.848055 0.529908 4.28525e-19
    outer loop
      vertex -3.13446 1.66662 0
      vertex -2.87201 2.08664 9
      vertex -2.87201 2.08664 0
    endloop
  endfacet
  facet normal -0.848055 0.529908 4.28525e-19
    outer loop
      vertex -2.87201 2.08664 9
      vertex -3.13446 1.66662 0
      vertex -3.13446 1.66662 9
    endloop
  endfacet
  facet normal -0.990268 0.139176 -1.61158e-19
    outer loop
      vertex -3.54135 0.247635 0
      vertex -3.47242 0.738086 9
      vertex -3.47242 0.738086 0
    endloop
  endfacet
  facet normal -0.990268 0.139176 -1.61158e-19
    outer loop
      vertex -3.47242 0.738086 9
      vertex -3.54135 0.247635 0
      vertex -3.54135 0.247635 9
    endloop
  endfacet
  facet normal -0.309024 0.951054 0
    outer loop
      vertex -0.858822 3.44455 0
      vertex -1.32985 3.2915 9
      vertex -0.858822 3.44455 9
    endloop
  endfacet
  facet normal -0.309024 0.951054 0
    outer loop
      vertex -1.32985 3.2915 9
      vertex -0.858822 3.44455 0
      vertex -1.32985 3.2915 0
    endloop
  endfacet
  facet normal 0.809025 -0.587774 -7.39562e-19
    outer loop
      vertex 2.71946 -2.2819 9
      vertex 3.01057 -1.88121 0
      vertex 3.01057 -1.88121 9
    endloop
  endfacet
  facet normal 0.809025 -0.587774 -7.39562e-19
    outer loop
      vertex 3.01057 -1.88121 0
      vertex 2.71946 -2.2819 9
      vertex 2.71946 -2.2819 0
    endloop
  endfacet
  facet normal -1 0 0
    outer loop
      vertex -3.54135 -0.247635 0
      vertex -3.54135 0.247635 9
      vertex -3.54135 0.247635 0
    endloop
  endfacet
  facet normal -1 -0 0
    outer loop
      vertex -3.54135 0.247635 9
      vertex -3.54135 -0.247635 0
      vertex -3.54135 -0.247635 9
    endloop
  endfacet
  facet normal -0.309024 -0.951054 0
    outer loop
      vertex -1.32985 -3.2915 0
      vertex -0.858822 -3.44455 9
      vertex -1.32985 -3.2915 9
    endloop
  endfacet
  facet normal -0.309024 -0.951054 -0
    outer loop
      vertex -0.858822 -3.44455 9
      vertex -1.32985 -3.2915 0
      vertex -0.858822 -3.44455 0
    endloop
  endfacet
  facet normal -0.438364 -0.898797 0
    outer loop
      vertex -1.775 -3.07439 0
      vertex -1.32985 -3.2915 9
      vertex -1.775 -3.07439 9
    endloop
  endfacet
  facet normal -0.438364 -0.898797 -0
    outer loop
      vertex -1.32985 -3.2915 9
      vertex -1.775 -3.07439 0
      vertex -1.32985 -3.2915 0
    endloop
  endfacet
  facet normal -0.766049 -0.642782 -9.03287e-19
    outer loop
      vertex -2.55366 -2.46604 0
      vertex -2.87201 -2.08664 9
      vertex -2.87201 -2.08664 0
    endloop
  endfacet
  facet normal -0.766049 -0.642782 -9.03287e-19
    outer loop
      vertex -2.87201 -2.08664 9
      vertex -2.55366 -2.46604 0
      vertex -2.55366 -2.46604 9
    endloop
  endfacet
  facet normal 0.615661 -0.788011 0
    outer loop
      vertex 1.98513 -2.94308 0
      vertex 2.37541 -2.63816 9
      vertex 1.98513 -2.94308 9
    endloop
  endfacet
  facet normal 0.615661 -0.788011 0
    outer loop
      vertex 2.37541 -2.63816 9
      vertex 1.98513 -2.94308 0
      vertex 2.37541 -2.63816 0
    endloop
  endfacet
  facet normal 0.989821 -0.14232 4.31135e-19
    outer loop
      vertex 3.60219 -0.493032 9
      vertex 3.67308 0 0
      vertex 3.67308 0 9
    endloop
  endfacet
  facet normal 0.989821 -0.14232 4.31135e-19
    outer loop
      vertex 3.67308 0 0
      vertex 3.60219 -0.493032 9
      vertex 3.60219 -0.493032 0
    endloop
  endfacet
  facet normal -0.669128 -0.743148 0
    outer loop
      vertex -2.55366 -2.46604 0
      vertex -2.1856 -2.79744 9
      vertex -2.55366 -2.46604 9
    endloop
  endfacet
  facet normal -0.669128 -0.743148 -0
    outer loop
      vertex -2.1856 -2.79744 9
      vertex -2.55366 -2.46604 0
      vertex -2.1856 -2.79744 0
    endloop
  endfacet
  facet normal 0.500006 0.866022 -0
    outer loop
      vertex 1.92308 2.97891 0
      vertex 1.55622 3.19072 9
      vertex 1.92308 2.97891 9
    endloop
  endfacet
  facet normal 0.500006 0.866022 0
    outer loop
      vertex 1.55622 3.19072 9
      vertex 1.92308 2.97891 0
      vertex 1.55622 3.19072 0
    endloop
  endfacet
  facet normal 0.882945 -0.469477 -1.34667e-18
    outer loop
      vertex 3.01057 -1.88121 9
      vertex 3.24309 -1.44391 0
      vertex 3.24309 -1.44391 9
    endloop
  endfacet
  facet normal 0.882945 -0.469477 -1.34667e-18
    outer loop
      vertex 3.24309 -1.44391 0
      vertex 3.01057 -1.88121 9
      vertex 3.01057 -1.88121 0
    endloop
  endfacet
  facet normal -0.0349102 0.99939 0
    outer loop
      vertex 0.123893 3.54784 0
      vertex -0.371076 3.53055 9
      vertex 0.123893 3.54784 9
    endloop
  endfacet
  facet normal -0.0349102 0.99939 0
    outer loop
      vertex -0.371076 3.53055 9
      vertex 0.123893 3.54784 0
      vertex -0.371076 3.53055 0
    endloop
  endfacet
  facet normal 0.500013 -0.866018 0
    outer loop
      vertex 1.55622 -3.19072 0
      vertex 1.98513 -2.94308 9
      vertex 1.55622 -3.19072 9
    endloop
  endfacet
  facet normal 0.500013 -0.866018 0
    outer loop
      vertex 1.98513 -2.94308 9
      vertex 1.55622 -3.19072 0
      vertex 1.98513 -2.94308 0
    endloop
  endfacet
  facet normal -0.913541 0.406747 1.12994e-18
    outer loop
      vertex -3.33591 1.21417 0
      vertex -3.13446 1.66662 9
      vertex -3.13446 1.66662 0
    endloop
  endfacet
  facet normal -0.913541 0.406747 1.12994e-18
    outer loop
      vertex -3.13446 1.66662 9
      vertex -3.33591 1.21417 0
      vertex -3.33591 1.21417 9
    endloop
  endfacet
  facet normal 0.374602 -0.927186 0
    outer loop
      vertex 1.09701 -3.37625 0
      vertex 1.55622 -3.19072 9
      vertex 1.09701 -3.37625 9
    endloop
  endfacet
  facet normal 0.374602 -0.927186 0
    outer loop
      vertex 1.55622 -3.19072 9
      vertex 1.09701 -3.37625 0
      vertex 1.55622 -3.19072 0
    endloop
  endfacet
  facet normal -0.766049 0.642782 9.03287e-19
    outer loop
      vertex -2.87201 2.08664 0
      vertex -2.55366 2.46604 9
      vertex -2.55366 2.46604 0
    endloop
  endfacet
  facet normal -0.766049 0.642782 9.03287e-19
    outer loop
      vertex -2.55366 2.46604 9
      vertex -2.87201 2.08664 0
      vertex -2.87201 2.08664 9
    endloop
  endfacet
  facet normal -0.961264 -0.275628 1.45206e-18
    outer loop
      vertex -3.33591 -1.21417 0
      vertex -3.47242 -0.738086 9
      vertex -3.47242 -0.738086 0
    endloop
  endfacet
  facet normal -0.961264 -0.275628 1.45206e-18
    outer loop
      vertex -3.47242 -0.738086 9
      vertex -3.33591 -1.21417 0
      vertex -3.33591 -1.21417 9
    endloop
  endfacet
  facet normal -0 0 1
    outer loop
      vertex 1.92308 2.97891 9
      vertex 3.67308 0 9
      vertex 3.67308 16.55 9
    endloop
  endfacet
  facet normal -0 -0 1
    outer loop
      vertex 2.07867 1.38893 9
      vertex 3.67308 0 9
      vertex 1.92308 2.97891 9
    endloop
  endfacet
  facet normal -0 -0 1
    outer loop
      vertex 2.3097 0.956708 9
      vertex 3.67308 0 9
      vertex 2.07867 1.38893 9
    endloop
  endfacet
  facet normal -0 -0 1
    outer loop
      vertex 2.45196 0.487725 9
      vertex 3.67308 0 9
      vertex 2.3097 0.956708 9
    endloop
  endfacet
  facet normal -0 0 1
    outer loop
      vertex 2.45196 -0.487725 9
      vertex 3.60219 -0.493032 9
      vertex 2.5 0 9
    endloop
  endfacet
  facet normal -0 0 1
    outer loop
      vertex 2.3097 -0.956708 9
      vertex 3.24309 -1.44391 9
      vertex 2.45196 -0.487725 9
    endloop
  endfacet
  facet normal 0 0 1
    outer loop
      vertex 3.60219 -0.493032 9
      vertex 2.45196 -0.487725 9
      vertex 3.24309 -1.44391 9
    endloop
  endfacet
  facet normal 0 0 1
    outer loop
      vertex 3.67308 0 9
      vertex 2.5 0 9
      vertex 3.60219 -0.493032 9
    endloop
  endfacet
  facet normal 0 -0 1
    outer loop
      vertex 2.5 0 9
      vertex 3.67308 0 9
      vertex 2.45196 0.487725 9
    endloop
  endfacet
  facet normal 0 0 1
    outer loop
      vertex 1.92308 2.97891 9
      vertex 3.67308 16.55 9
      vertex 1.92308 16.55 9
    endloop
  endfacet
  facet normal 0 0 1
    outer loop
      vertex 1.92308 2.97891 9
      vertex 1.76777 1.76777 9
      vertex 2.07867 1.38893 9
    endloop
  endfacet
  facet normal 0 0 1
    outer loop
      vertex 1.38893 2.07867 9
      vertex 1.92308 2.97891 9
      vertex 1.55622 3.19072 9
    endloop
  endfacet
  facet normal 0 0 1
    outer loop
      vertex 1.92308 2.97891 9
      vertex 1.38893 2.07867 9
      vertex 1.76777 1.76777 9
    endloop
  endfacet
  facet normal 0 0 1
    outer loop
      vertex 0.956708 2.3097 9
      vertex 1.55622 3.19072 9
      vertex 1.09701 3.37625 9
    endloop
  endfacet
  facet normal 0 0 1
    outer loop
      vertex 1.55622 3.19072 9
      vertex 0.956708 2.3097 9
      vertex 1.38893 2.07867 9
    endloop
  endfacet
  facet normal 0 0 1
    outer loop
      vertex 0.487725 2.45196 9
      vertex 1.09701 3.37625 9
      vertex 0.61645 3.49607 9
    endloop
  endfacet
  facet normal 0 0 1
    outer loop
      vertex 1.09701 3.37625 9
      vertex 0.487725 2.45196 9
      vertex 0.956708 2.3097 9
    endloop
  endfacet
  facet normal 0 0 1
    outer loop
      vertex 0.123893 3.54784 9
      vertex 0.487725 2.45196 9
      vertex 0.61645 3.49607 9
    endloop
  endfacet
  facet normal 0 0 1
    outer loop
      vertex 0.123893 3.54784 9
      vertex 0 2.5 9
      vertex 0.487725 2.45196 9
    endloop
  endfacet
  facet normal -0 0 1
    outer loop
      vertex -0.371076 3.53055 9
      vertex 0 2.5 9
      vertex 0.123893 3.54784 9
    endloop
  endfacet
  facet normal 0 0 1
    outer loop
      vertex -0.371076 3.53055 9
      vertex -0.487725 2.45196 9
      vertex 0 2.5 9
    endloop
  endfacet
  facet normal -0 0 1
    outer loop
      vertex -0.858822 3.44455 9
      vertex -0.487725 2.45196 9
      vertex -0.371076 3.53055 9
    endloop
  endfacet
  facet normal 0 0 1
    outer loop
      vertex -0.858822 3.44455 9
      vertex -0.956708 2.3097 9
      vertex -0.487725 2.45196 9
    endloop
  endfacet
  facet normal -0 0 1
    outer loop
      vertex -1.32985 3.2915 9
      vertex -0.956708 2.3097 9
      vertex -0.858822 3.44455 9
    endloop
  endfacet
  facet normal -0 0 1
    outer loop
      vertex -1.775 3.07439 9
      vertex -0.956708 2.3097 9
      vertex -1.32985 3.2915 9
    endloop
  endfacet
  facet normal 0 0 1
    outer loop
      vertex -0.956708 2.3097 9
      vertex -1.775 3.07439 9
      vertex -1.38893 2.07867 9
    endloop
  endfacet
  facet normal -0 0 1
    outer loop
      vertex -2.1856 2.79744 9
      vertex -1.38893 2.07867 9
      vertex -1.775 3.07439 9
    endloop
  endfacet
  facet normal 0 0 1
    outer loop
      vertex -1.38893 2.07867 9
      vertex -2.1856 2.79744 9
      vertex -1.76777 1.76777 9
    endloop
  endfacet
  facet normal -0 0 1
    outer loop
      vertex -2.55366 2.46604 9
      vertex -1.76777 1.76777 9
      vertex -2.1856 2.79744 9
    endloop
  endfacet
  facet normal -0 0 1
    outer loop
      vertex -2.87201 2.08664 9
      vertex -1.76777 1.76777 9
      vertex -2.55366 2.46604 9
    endloop
  endfacet
  facet normal 0 0 1
    outer loop
      vertex -1.76777 1.76777 9
      vertex -2.87201 2.08664 9
      vertex -2.07867 1.38893 9
    endloop
  endfacet
  facet normal 0 0 1
    outer loop
      vertex -2.07867 1.38893 9
      vertex -3.13446 1.66662 9
      vertex -2.3097 0.956708 9
    endloop
  endfacet
  facet normal -0 0 1
    outer loop
      vertex -3.13446 1.66662 9
      vertex -2.07867 1.38893 9
      vertex -2.87201 2.08664 9
    endloop
  endfacet
  facet normal 0 0 1
    outer loop
      vertex 3.24309 -1.44391 9
      vertex 2.3097 -0.956708 9
      vertex 3.01057 -1.88121 9
    endloop
  endfacet
  facet normal -0 0 1
    outer loop
      vertex 2.07867 -1.38893 9
      vertex 3.01057 -1.88121 9
      vertex 2.3097 -0.956708 9
    endloop
  endfacet
  facet normal 0 0 1
    outer loop
      vertex 3.01057 -1.88121 9
      vertex 2.07867 -1.38893 9
      vertex 2.71946 -2.2819 9
    endloop
  endfacet
  facet normal -0 0 1
    outer loop
      vertex 1.76777 -1.76777 9
      vertex 2.71946 -2.2819 9
      vertex 2.07867 -1.38893 9
    endloop
  endfacet
  facet normal 0 0 1
    outer loop
      vertex 2.71946 -2.2819 9
      vertex 1.76777 -1.76777 9
      vertex 2.37541 -2.63816 9
    endloop
  endfacet
  facet normal -0 0 1
    outer loop
      vertex 1.38893 -2.07867 9
      vertex 2.37541 -2.63816 9
      vertex 1.76777 -1.76777 9
    endloop
  endfacet
  facet normal 0 0 1
    outer loop
      vertex 2.37541 -2.63816 9
      vertex 1.38893 -2.07867 9
      vertex 1.98513 -2.94308 9
    endloop
  endfacet
  facet normal 0 0 1
    outer loop
      vertex 1.98513 -2.94308 9
      vertex 1.38893 -2.07867 9
      vertex 1.55622 -3.19072 9
    endloop
  endfacet
  facet normal -0 0 1
    outer loop
      vertex 0.956708 -2.3097 9
      vertex 1.55622 -3.19072 9
      vertex 1.38893 -2.07867 9
    endloop
  endfacet
  facet normal 0 0 1
    outer loop
      vertex 1.55622 -3.19072 9
      vertex 0.956708 -2.3097 9
      vertex 1.09701 -3.37625 9
    endloop
  endfacet
  facet normal -0 0 1
    outer loop
      vertex 0.487725 -2.45196 9
      vertex 1.09701 -3.37625 9
      vertex 0.956708 -2.3097 9
    endloop
  endfacet
  facet normal 0 0 1
    outer loop
      vertex 1.09701 -3.37625 9
      vertex 0.487725 -2.45196 9
      vertex 0.61645 -3.49607 9
    endloop
  endfacet
  facet normal 0 0 1
    outer loop
      vertex 0.487725 -2.45196 9
      vertex 0.123893 -3.54784 9
      vertex 0.61645 -3.49607 9
    endloop
  endfacet
  facet normal -0 0 1
    outer loop
      vertex 0 -2.5 9
      vertex 0.123893 -3.54784 9
      vertex 0.487725 -2.45196 9
    endloop
  endfacet
  facet normal 0 0 1
    outer loop
      vertex 0 -2.5 9
      vertex -0.371076 -3.53055 9
      vertex 0.123893 -3.54784 9
    endloop
  endfacet
  facet normal 0 0 1
    outer loop
      vertex -0.487725 -2.45196 9
      vertex -0.371076 -3.53055 9
      vertex 0 -2.5 9
    endloop
  endfacet
  facet normal 0 0 1
    outer loop
      vertex -0.487725 -2.45196 9
      vertex -0.858822 -3.44455 9
      vertex -0.371076 -3.53055 9
    endloop
  endfacet
  facet normal 0 0 1
    outer loop
      vertex -0.956708 -2.3097 9
      vertex -0.858822 -3.44455 9
      vertex -0.487725 -2.45196 9
    endloop
  endfacet
  facet normal 0 0 1
    outer loop
      vertex -0.956708 -2.3097 9
      vertex -1.32985 -3.2915 9
      vertex -0.858822 -3.44455 9
    endloop
  endfacet
  facet normal 0 0 1
    outer loop
      vertex -1.775 -3.07439 9
      vertex -0.956708 -2.3097 9
      vertex -1.38893 -2.07867 9
    endloop
  endfacet
  facet normal 0 0 1
    outer loop
      vertex -2.1856 -2.79744 9
      vertex -1.38893 -2.07867 9
      vertex -1.76777 -1.76777 9
    endloop
  endfacet
  facet normal 0 0 1
    outer loop
      vertex -0.956708 -2.3097 9
      vertex -1.775 -3.07439 9
      vertex -1.32985 -3.2915 9
    endloop
  endfacet
  facet normal 0 0 1
    outer loop
      vertex -2.87201 -2.08664 9
      vertex -1.76777 -1.76777 9
      vertex -2.07867 -1.38893 9
    endloop
  endfacet
  facet normal 0 0 1
    outer loop
      vertex -1.38893 -2.07867 9
      vertex -2.1856 -2.79744 9
      vertex -1.775 -3.07439 9
    endloop
  endfacet
  facet normal 0 0 1
    outer loop
      vertex -3.13446 -1.66662 9
      vertex -2.07867 -1.38893 9
      vertex -2.3097 -0.956708 9
    endloop
  endfacet
  facet normal 0 0 1
    outer loop
      vertex -3.33591 -1.21417 9
      vertex -2.3097 -0.956708 9
      vertex -2.45196 -0.487725 9
    endloop
  endfacet
  facet normal 0 0 1
    outer loop
      vertex -1.76777 -1.76777 9
      vertex -2.55366 -2.46604 9
      vertex -2.1856 -2.79744 9
    endloop
  endfacet
  facet normal -0 0 1
    outer loop
      vertex -3.54135 -0.247635 9
      vertex -2.45196 -0.487725 9
      vertex -2.5 0 9
    endloop
  endfacet
  facet normal -0 0 1
    outer loop
      vertex -3.33591 1.21417 9
      vertex -2.3097 0.956708 9
      vertex -3.13446 1.66662 9
    endloop
  endfacet
  facet normal 0 0 1
    outer loop
      vertex -2.3097 0.956708 9
      vertex -3.33591 1.21417 9
      vertex -2.45196 0.487725 9
    endloop
  endfacet
  facet normal 0 0 1
    outer loop
      vertex -1.76777 -1.76777 9
      vertex -2.87201 -2.08664 9
      vertex -2.55366 -2.46604 9
    endloop
  endfacet
  facet normal -0 0 1
    outer loop
      vertex -3.47242 0.738086 9
      vertex -2.45196 0.487725 9
      vertex -3.33591 1.21417 9
    endloop
  endfacet
  facet normal 0 0 1
    outer loop
      vertex -2.07867 -1.38893 9
      vertex -3.13446 -1.66662 9
      vertex -2.87201 -2.08664 9
    endloop
  endfacet
  facet normal 0 0 1
    outer loop
      vertex -3.54135 0.247635 9
      vertex -2.45196 0.487725 9
      vertex -3.47242 0.738086 9
    endloop
  endfacet
  facet normal 0 0 1
    outer loop
      vertex -2.3097 -0.956708 9
      vertex -3.33591 -1.21417 9
      vertex -3.13446 -1.66662 9
    endloop
  endfacet
  facet normal 0 0 1
    outer loop
      vertex -2.45196 0.487725 9
      vertex -3.54135 0.247635 9
      vertex -2.5 0 9
    endloop
  endfacet
  facet normal 0 0 1
    outer loop
      vertex -2.45196 -0.487725 9
      vertex -3.47242 -0.738086 9
      vertex -3.33591 -1.21417 9
    endloop
  endfacet
  facet normal 0 0 1
    outer loop
      vertex -3.54135 -0.247635 9
      vertex -2.5 0 9
      vertex -3.54135 0.247635 9
    endloop
  endfacet
  facet normal 0 0 1
    outer loop
      vertex -2.45196 -0.487725 9
      vertex -3.54135 -0.247635 9
      vertex -3.47242 -0.738086 9
    endloop
  endfacet
  facet normal -0.961264 0.275628 -1.45206e-18
    outer loop
      vertex -3.47242 0.738086 0
      vertex -3.33591 1.21417 9
      vertex -3.33591 1.21417 0
    endloop
  endfacet
  facet normal -0.961264 0.275628 -1.45206e-18
    outer loop
      vertex -3.33591 1.21417 9
      vertex -3.47242 0.738086 0
      vertex -3.47242 0.738086 9
    endloop
  endfacet
  facet normal -0.913541 -0.406747 -1.12994e-18
    outer loop
      vertex -3.13446 -1.66662 0
      vertex -3.33591 -1.21417 9
      vertex -3.33591 -1.21417 0
    endloop
  endfacet
  facet normal -0.913541 -0.406747 -1.12994e-18
    outer loop
      vertex -3.33591 -1.21417 9
      vertex -3.13446 -1.66662 0
      vertex -3.13446 -1.66662 9
    endloop
  endfacet
  facet normal 0.719326 -0.694673 -1.497e-18
    outer loop
      vertex 2.37541 -2.63816 9
      vertex 2.71946 -2.2819 0
      vertex 2.71946 -2.2819 9
    endloop
  endfacet
  facet normal 0.719326 -0.694673 -1.497e-18
    outer loop
      vertex 2.71946 -2.2819 0
      vertex 2.37541 -2.63816 9
      vertex 2.37541 -2.63816 0
    endloop
  endfacet
  facet normal 0.241927 -0.970294 0
    outer loop
      vertex 0.61645 -3.49607 0
      vertex 1.09701 -3.37625 9
      vertex 0.61645 -3.49607 9
    endloop
  endfacet
  facet normal 0.241927 -0.970294 0
    outer loop
      vertex 1.09701 -3.37625 9
      vertex 0.61645 -3.49607 0
      vertex 1.09701 -3.37625 0
    endloop
  endfacet
  facet normal 0.104529 -0.994522 0
    outer loop
      vertex 0.123893 -3.54784 0
      vertex 0.61645 -3.49607 9
      vertex 0.123893 -3.54784 9
    endloop
  endfacet
  facet normal 0.104529 -0.994522 0
    outer loop
      vertex 0.61645 -3.49607 9
      vertex 0.123893 -3.54784 0
      vertex 0.61645 -3.49607 0
    endloop
  endfacet
  facet normal 0 0 -1
    outer loop
      vertex 1.76777 1.76777 0
      vertex 1.92308 2.97891 0
      vertex 2.07867 1.38893 0
    endloop
  endfacet
  facet normal 0 0 -1
    outer loop
      vertex 1.38893 2.07867 0
      vertex 1.92308 2.97891 0
      vertex 1.76777 1.76777 0
    endloop
  endfacet
  facet normal -0 0 -1
    outer loop
      vertex 1.92308 2.97891 0
      vertex 1.38893 2.07867 0
      vertex 1.55622 3.19072 0
    endloop
  endfacet
  facet normal 0 0 -1
    outer loop
      vertex 0.956708 2.3097 0
      vertex 1.55622 3.19072 0
      vertex 1.38893 2.07867 0
    endloop
  endfacet
  facet normal -0 0 -1
    outer loop
      vertex 1.55622 3.19072 0
      vertex 0.956708 2.3097 0
      vertex 1.09701 3.37625 0
    endloop
  endfacet
  facet normal 0 0 -1
    outer loop
      vertex 0.487725 2.45196 0
      vertex 1.09701 3.37625 0
      vertex 0.956708 2.3097 0
    endloop
  endfacet
  facet normal -0 0 -1
    outer loop
      vertex 1.09701 3.37625 0
      vertex 0.487725 2.45196 0
      vertex 0.61645 3.49607 0
    endloop
  endfacet
  facet normal 0 0 -1
    outer loop
      vertex 0.487725 2.45196 0
      vertex 0.123893 3.54784 0
      vertex 0.61645 3.49607 0
    endloop
  endfacet
  facet normal 0 0 -1
    outer loop
      vertex 0 2.5 0
      vertex 0.123893 3.54784 0
      vertex 0.487725 2.45196 0
    endloop
  endfacet
  facet normal 0 0 -1
    outer loop
      vertex 0 2.5 0
      vertex -0.371076 3.53055 0
      vertex 0.123893 3.54784 0
    endloop
  endfacet
  facet normal 0 0 -1
    outer loop
      vertex -0.487725 2.45196 0
      vertex -0.371076 3.53055 0
      vertex 0 2.5 0
    endloop
  endfacet
  facet normal 0 0 -1
    outer loop
      vertex -0.487725 2.45196 0
      vertex -0.858822 3.44455 0
      vertex -0.371076 3.53055 0
    endloop
  endfacet
  facet normal 0 0 -1
    outer loop
      vertex -0.956708 2.3097 0
      vertex -0.858822 3.44455 0
      vertex -0.487725 2.45196 0
    endloop
  endfacet
  facet normal 0 0 -1
    outer loop
      vertex -0.956708 2.3097 0
      vertex -1.32985 3.2915 0
      vertex -0.858822 3.44455 0
    endloop
  endfacet
  facet normal 0 0 -1
    outer loop
      vertex -1.775 3.07439 0
      vertex -0.956708 2.3097 0
      vertex -1.38893 2.07867 0
    endloop
  endfacet
  facet normal 0 0 -1
    outer loop
      vertex -2.1856 2.79744 0
      vertex -1.38893 2.07867 0
      vertex -1.76777 1.76777 0
    endloop
  endfacet
  facet normal 0 0 -1
    outer loop
      vertex -0.956708 2.3097 0
      vertex -1.775 3.07439 0
      vertex -1.32985 3.2915 0
    endloop
  endfacet
  facet normal 0 0 -1
    outer loop
      vertex -2.87201 2.08664 0
      vertex -1.76777 1.76777 0
      vertex -2.07867 1.38893 0
    endloop
  endfacet
  facet normal 0 0 -1
    outer loop
      vertex -1.38893 2.07867 0
      vertex -2.1856 2.79744 0
      vertex -1.775 3.07439 0
    endloop
  endfacet
  facet normal 0 0 -1
    outer loop
      vertex -3.13446 1.66662 0
      vertex -2.07867 1.38893 0
      vertex -2.3097 0.956708 0
    endloop
  endfacet
  facet normal 0 0 -1
    outer loop
      vertex -3.33591 1.21417 0
      vertex -2.3097 0.956708 0
      vertex -2.45196 0.487725 0
    endloop
  endfacet
  facet normal 0 0 -1
    outer loop
      vertex -1.76777 1.76777 0
      vertex -2.55366 2.46604 0
      vertex -2.1856 2.79744 0
    endloop
  endfacet
  facet normal 0 0 -1
    outer loop
      vertex -3.54135 0.247635 0
      vertex -2.45196 0.487725 0
      vertex -2.5 0 0
    endloop
  endfacet
  facet normal 0 0 -1
    outer loop
      vertex -3.33591 -1.21417 0
      vertex -2.3097 -0.956708 0
      vertex -3.13446 -1.66662 0
    endloop
  endfacet
  facet normal -0 0 -1
    outer loop
      vertex -2.3097 -0.956708 0
      vertex -3.33591 -1.21417 0
      vertex -2.45196 -0.487725 0
    endloop
  endfacet
  facet normal 0 0 -1
    outer loop
      vertex -1.76777 1.76777 0
      vertex -2.87201 2.08664 0
      vertex -2.55366 2.46604 0
    endloop
  endfacet
  facet normal 0 0 -1
    outer loop
      vertex -3.47242 -0.738086 0
      vertex -2.45196 -0.487725 0
      vertex -3.33591 -1.21417 0
    endloop
  endfacet
  facet normal 0 0 -1
    outer loop
      vertex -2.07867 1.38893 0
      vertex -3.13446 1.66662 0
      vertex -2.87201 2.08664 0
    endloop
  endfacet
  facet normal 0 0 -1
    outer loop
      vertex -3.54135 -0.247635 0
      vertex -2.45196 -0.487725 0
      vertex -3.47242 -0.738086 0
    endloop
  endfacet
  facet normal 0 0 -1
    outer loop
      vertex -2.3097 0.956708 0
      vertex -3.33591 1.21417 0
      vertex -3.13446 1.66662 0
    endloop
  endfacet
  facet normal 0 0 -1
    outer loop
      vertex -2.45196 -0.487725 0
      vertex -3.54135 -0.247635 0
      vertex -2.5 0 0
    endloop
  endfacet
  facet normal 0 0 -1
    outer loop
      vertex -2.45196 0.487725 0
      vertex -3.47242 0.738086 0
      vertex -3.33591 1.21417 0
    endloop
  endfacet
  facet normal 0 0 -1
    outer loop
      vertex -3.54135 0.247635 0
      vertex -2.5 0 0
      vertex -3.54135 -0.247635 0
    endloop
  endfacet
  facet normal -0 0 -1
    outer loop
      vertex -2.45196 0.487725 0
      vertex -3.54135 0.247635 0
      vertex -3.47242 0.738086 0
    endloop
  endfacet
  facet normal 0 0 -1
    outer loop
      vertex 3.60219 -0.493032 0
      vertex 2.45196 -0.487725 0
      vertex 2.5 0 0
    endloop
  endfacet
  facet normal 0 0 -1
    outer loop
      vertex 1.76777 -1.76777 0
      vertex 2.71946 -2.2819 0
      vertex 2.37541 -2.63816 0
    endloop
  endfacet
  facet normal 0 0 -1
    outer loop
      vertex 3.01057 -1.88121 0
      vertex 2.3097 -0.956708 0
      vertex 2.45196 -0.487725 0
    endloop
  endfacet
  facet normal 0 0 -1
    outer loop
      vertex 3.01057 -1.88121 0
      vertex 2.07867 -1.38893 0
      vertex 2.3097 -0.956708 0
    endloop
  endfacet
  facet normal 0 0 -1
    outer loop
      vertex 1.38893 -2.07867 0
      vertex 2.37541 -2.63816 0
      vertex 1.98513 -2.94308 0
    endloop
  endfacet
  facet normal 0 0 -1
    outer loop
      vertex 2.71946 -2.2819 0
      vertex 1.76777 -1.76777 0
      vertex 2.07867 -1.38893 0
    endloop
  endfacet
  facet normal 0 0 -1
    outer loop
      vertex 1.38893 -2.07867 0
      vertex 1.98513 -2.94308 0
      vertex 1.55622 -3.19072 0
    endloop
  endfacet
  facet normal 0 0 -1
    outer loop
      vertex 2.37541 -2.63816 0
      vertex 1.38893 -2.07867 0
      vertex 1.76777 -1.76777 0
    endloop
  endfacet
  facet normal 0 0 -1
    outer loop
      vertex 0.956708 -2.3097 0
      vertex 1.55622 -3.19072 0
      vertex 1.09701 -3.37625 0
    endloop
  endfacet
  facet normal 0 0 -1
    outer loop
      vertex 1.55622 -3.19072 0
      vertex 0.956708 -2.3097 0
      vertex 1.38893 -2.07867 0
    endloop
  endfacet
  facet normal 0 0 -1
    outer loop
      vertex 0.487725 -2.45196 0
      vertex 1.09701 -3.37625 0
      vertex 0.61645 -3.49607 0
    endloop
  endfacet
  facet normal 0 0 -1
    outer loop
      vertex 1.09701 -3.37625 0
      vertex 0.487725 -2.45196 0
      vertex 0.956708 -2.3097 0
    endloop
  endfacet
  facet normal 0 0 -1
    outer loop
      vertex 0.123893 -3.54784 0
      vertex 0.487725 -2.45196 0
      vertex 0.61645 -3.49607 0
    endloop
  endfacet
  facet normal 0 0 -1
    outer loop
      vertex 0.123893 -3.54784 0
      vertex 0 -2.5 0
      vertex 0.487725 -2.45196 0
    endloop
  endfacet
  facet normal 0 0 -1
    outer loop
      vertex -0.371076 -3.53055 0
      vertex 0 -2.5 0
      vertex 0.123893 -3.54784 0
    endloop
  endfacet
  facet normal 0 0 -1
    outer loop
      vertex -0.371076 -3.53055 0
      vertex -0.487725 -2.45196 0
      vertex 0 -2.5 0
    endloop
  endfacet
  facet normal 0 0 -1
    outer loop
      vertex -0.858822 -3.44455 0
      vertex -0.487725 -2.45196 0
      vertex -0.371076 -3.53055 0
    endloop
  endfacet
  facet normal 0 0 -1
    outer loop
      vertex -0.858822 -3.44455 0
      vertex -0.956708 -2.3097 0
      vertex -0.487725 -2.45196 0
    endloop
  endfacet
  facet normal 0 0 -1
    outer loop
      vertex -1.32985 -3.2915 0
      vertex -0.956708 -2.3097 0
      vertex -0.858822 -3.44455 0
    endloop
  endfacet
  facet normal 0 0 -1
    outer loop
      vertex -1.775 -3.07439 0
      vertex -0.956708 -2.3097 0
      vertex -1.32985 -3.2915 0
    endloop
  endfacet
  facet normal -0 0 -1
    outer loop
      vertex -0.956708 -2.3097 0
      vertex -1.775 -3.07439 0
      vertex -1.38893 -2.07867 0
    endloop
  endfacet
  facet normal 0 0 -1
    outer loop
      vertex -2.1856 -2.79744 0
      vertex -1.38893 -2.07867 0
      vertex -1.775 -3.07439 0
    endloop
  endfacet
  facet normal -0 0 -1
    outer loop
      vertex -1.38893 -2.07867 0
      vertex -2.1856 -2.79744 0
      vertex -1.76777 -1.76777 0
    endloop
  endfacet
  facet normal 0 0 -1
    outer loop
      vertex -2.55366 -2.46604 0
      vertex -1.76777 -1.76777 0
      vertex -2.1856 -2.79744 0
    endloop
  endfacet
  facet normal 0 0 -1
    outer loop
      vertex -2.87201 -2.08664 0
      vertex -1.76777 -1.76777 0
      vertex -2.55366 -2.46604 0
    endloop
  endfacet
  facet normal -0 0 -1
    outer loop
      vertex -1.76777 -1.76777 0
      vertex -2.87201 -2.08664 0
      vertex -2.07867 -1.38893 0
    endloop
  endfacet
  facet normal -0 0 -1
    outer loop
      vertex -2.07867 -1.38893 0
      vertex -3.13446 -1.66662 0
      vertex -2.3097 -0.956708 0
    endloop
  endfacet
  facet normal 0 0 -1
    outer loop
      vertex -3.13446 -1.66662 0
      vertex -2.07867 -1.38893 0
      vertex -2.87201 -2.08664 0
    endloop
  endfacet
  facet normal 0 0 -1
    outer loop
      vertex 2.5 0 0
      vertex 3.67308 0 0
      vertex 3.60219 -0.493032 0
    endloop
  endfacet
  facet normal 0 0 -1
    outer loop
      vertex 2.45196 -0.487725 0
      vertex 3.60219 -0.493032 0
      vertex 3.24309 -1.44391 0
    endloop
  endfacet
  facet normal 0 0 -1
    outer loop
      vertex 2.45196 -0.487725 0
      vertex 3.24309 -1.44391 0
      vertex 3.01057 -1.88121 0
    endloop
  endfacet
  facet normal 0 0 -1
    outer loop
      vertex 2.07867 -1.38893 0
      vertex 3.01057 -1.88121 0
      vertex 2.71946 -2.2819 0
    endloop
  endfacet
  facet normal 0 0 -1
    outer loop
      vertex 3.67308 0 0
      vertex 2.5 0 0
      vertex 2.45196 0.487725 0
    endloop
  endfacet
  facet normal 0 0 -1
    outer loop
      vertex 3.67308 0 0
      vertex 2.45196 0.487725 0
      vertex 2.3097 0.956708 0
    endloop
  endfacet
  facet normal 0 0 -1
    outer loop
      vertex 3.67308 0 0
      vertex 2.3097 0.956708 0
      vertex 2.07867 1.38893 0
    endloop
  endfacet
  facet normal 0 0 -1
    outer loop
      vertex 3.67308 0 0
      vertex 2.07867 1.38893 0
      vertex 1.92308 2.97891 0
    endloop
  endfacet
  facet normal 0 0 -1
    outer loop
      vertex 3.67308 0 0
      vertex 1.92308 2.97891 0
      vertex 3.67308 16.55 0
    endloop
  endfacet
  facet normal -0 0 -1
    outer loop
      vertex 3.67308 16.55 0
      vertex 1.92308 2.97891 0
      vertex 1.92308 16.55 0
    endloop
  endfacet
  facet normal -0.669128 0.743148 0
    outer loop
      vertex -2.1856 2.79744 0
      vertex -2.55366 2.46604 9
      vertex -2.1856 2.79744 9
    endloop
  endfacet
  facet normal -0.669128 0.743148 0
    outer loop
      vertex -2.55366 2.46604 9
      vertex -2.1856 2.79744 0
      vertex -2.55366 2.46604 0
    endloop
  endfacet
  facet normal -0.559188 -0.829041 0
    outer loop
      vertex -2.1856 -2.79744 0
      vertex -1.775 -3.07439 9
      vertex -2.1856 -2.79744 9
    endloop
  endfacet
  facet normal -0.559188 -0.829041 -0
    outer loop
      vertex -1.775 -3.07439 9
      vertex -2.1856 -2.79744 0
      vertex -1.775 -3.07439 0
    endloop
  endfacet
  facet normal -0.173643 0.984809 0
    outer loop
      vertex -0.371076 3.53055 0
      vertex -0.858822 3.44455 9
      vertex -0.371076 3.53055 9
    endloop
  endfacet
  facet normal -0.173643 0.984809 0
    outer loop
      vertex -0.858822 3.44455 9
      vertex -0.371076 3.53055 0
      vertex -0.858822 3.44455 0
    endloop
  endfacet
  facet normal 0.104529 0.994522 -0
    outer loop
      vertex 0.61645 3.49607 0
      vertex 0.123893 3.54784 9
      vertex 0.61645 3.49607 9
    endloop
  endfacet
  facet normal 0.104529 0.994522 0
    outer loop
      vertex 0.123893 3.54784 9
      vertex 0.61645 3.49607 0
      vertex 0.123893 3.54784 0
    endloop
  endfacet
  facet normal 0.374602 0.927186 -0
    outer loop
      vertex 1.55622 3.19072 0
      vertex 1.09701 3.37625 9
      vertex 1.55622 3.19072 9
    endloop
  endfacet
  facet normal 0.374602 0.927186 0
    outer loop
      vertex 1.09701 3.37625 9
      vertex 1.55622 3.19072 0
      vertex 1.09701 3.37625 0
    endloop
  endfacet
  facet normal -0.559188 0.829041 0
    outer loop
      vertex -1.775 3.07439 0
      vertex -2.1856 2.79744 9
      vertex -1.775 3.07439 9
    endloop
  endfacet
  facet normal -0.559188 0.829041 0
    outer loop
      vertex -2.1856 2.79744 9
      vertex -1.775 3.07439 0
      vertex -2.1856 2.79744 0
    endloop
  endfacet
  facet normal 0.241927 0.970294 -0
    outer loop
      vertex 1.09701 3.37625 0
      vertex 0.61645 3.49607 9
      vertex 1.09701 3.37625 9
    endloop
  endfacet
  facet normal 0.241927 0.970294 0
    outer loop
      vertex 0.61645 3.49607 9
      vertex 1.09701 3.37625 0
      vertex 0.61645 3.49607 0
    endloop
  endfacet
  facet normal -0.438364 0.898797 0
    outer loop
      vertex -1.32985 3.2915 0
      vertex -1.775 3.07439 9
      vertex -1.32985 3.2915 9
    endloop
  endfacet
  facet normal -0.438364 0.898797 0
    outer loop
      vertex -1.775 3.07439 9
      vertex -1.32985 3.2915 0
      vertex -1.775 3.07439 0
    endloop
  endfacet
  facet normal -0.848055 -0.529908 -4.28525e-19
    outer loop
      vertex -2.87201 -2.08664 0
      vertex -3.13446 -1.66662 9
      vertex -3.13446 -1.66662 0
    endloop
  endfacet
  facet normal -0.848055 -0.529908 -4.28525e-19
    outer loop
      vertex -3.13446 -1.66662 9
      vertex -2.87201 -2.08664 0
      vertex -2.87201 -2.08664 9
    endloop
  endfacet
  facet normal -0.0980238 -0.995184 0
    outer loop
      vertex 0 2.5 0
      vertex 0.487725 2.45196 9
      vertex 0 2.5 9
    endloop
  endfacet
  facet normal -0.0980238 -0.995184 -0
    outer loop
      vertex 0.487725 2.45196 9
      vertex 0 2.5 0
      vertex 0.487725 2.45196 0
    endloop
  endfacet
  facet normal -0.956943 -0.290276 1.46626e-18
    outer loop
      vertex 2.45196 0.487725 0
      vertex 2.3097 0.956708 9
      vertex 2.3097 0.956708 0
    endloop
  endfacet
  facet normal -0.956943 -0.290276 1.46626e-18
    outer loop
      vertex 2.3097 0.956708 9
      vertex 2.45196 0.487725 0
      vertex 2.45196 0.487725 9
    endloop
  endfacet
  facet normal -0.995184 -0.0980238 2.24184e-19
    outer loop
      vertex 2.5 0 0
      vertex 2.45196 0.487725 9
      vertex 2.45196 0.487725 0
    endloop
  endfacet
  facet normal -0.995184 -0.0980238 2.24184e-19
    outer loop
      vertex 2.45196 0.487725 9
      vertex 2.5 0 0
      vertex 2.5 0 9
    endloop
  endfacet
  facet normal -0.881919 -0.471401 1.55938e-18
    outer loop
      vertex 2.3097 0.956708 0
      vertex 2.07867 1.38893 9
      vertex 2.07867 1.38893 0
    endloop
  endfacet
  facet normal -0.881919 -0.471401 1.55938e-18
    outer loop
      vertex 2.07867 1.38893 9
      vertex 2.3097 0.956708 0
      vertex 2.3097 0.956708 9
    endloop
  endfacet
  facet normal 0.634386 -0.773016 0
    outer loop
      vertex -1.76777 1.76777 0
      vertex -1.38893 2.07867 9
      vertex -1.76777 1.76777 9
    endloop
  endfacet
  facet normal 0.634386 -0.773016 0
    outer loop
      vertex -1.38893 2.07867 9
      vertex -1.76777 1.76777 0
      vertex -1.38893 2.07867 0
    endloop
  endfacet
  facet normal -0.773016 -0.634386 3.49e-19
    outer loop
      vertex 2.07867 1.38893 0
      vertex 1.76777 1.76777 9
      vertex 1.76777 1.76777 0
    endloop
  endfacet
  facet normal -0.773016 -0.634386 3.49e-19
    outer loop
      vertex 1.76777 1.76777 9
      vertex 2.07867 1.38893 0
      vertex 2.07867 1.38893 9
    endloop
  endfacet
  facet normal 0.773016 -0.634386 -3.49e-19
    outer loop
      vertex -2.07867 1.38893 9
      vertex -1.76777 1.76777 0
      vertex -1.76777 1.76777 9
    endloop
  endfacet
  facet normal 0.773016 -0.634386 -3.49e-19
    outer loop
      vertex -1.76777 1.76777 0
      vertex -2.07867 1.38893 9
      vertex -2.07867 1.38893 0
    endloop
  endfacet
  facet normal 0.881919 0.471401 1.55938e-18
    outer loop
      vertex -2.07867 -1.38893 9
      vertex -2.3097 -0.956708 0
      vertex -2.3097 -0.956708 9
    endloop
  endfacet
  facet normal 0.881919 0.471401 1.55938e-18
    outer loop
      vertex -2.3097 -0.956708 0
      vertex -2.07867 -1.38893 9
      vertex -2.07867 -1.38893 0
    endloop
  endfacet
  facet normal -0.881919 0.471401 -1.55938e-18
    outer loop
      vertex 2.07867 -1.38893 0
      vertex 2.3097 -0.956708 9
      vertex 2.3097 -0.956708 0
    endloop
  endfacet
  facet normal -0.881919 0.471401 -1.55938e-18
    outer loop
      vertex 2.3097 -0.956708 9
      vertex 2.07867 -1.38893 0
      vertex 2.07867 -1.38893 9
    endloop
  endfacet
  facet normal 0.290276 -0.956943 0
    outer loop
      vertex -0.956708 2.3097 0
      vertex -0.487725 2.45196 9
      vertex -0.956708 2.3097 9
    endloop
  endfacet
  facet normal 0.290276 -0.956943 0
    outer loop
      vertex -0.487725 2.45196 9
      vertex -0.956708 2.3097 0
      vertex -0.487725 2.45196 0
    endloop
  endfacet
  facet normal -0.290276 0.956943 0
    outer loop
      vertex 0.956708 -2.3097 0
      vertex 0.487725 -2.45196 9
      vertex 0.956708 -2.3097 9
    endloop
  endfacet
  facet normal -0.290276 0.956943 0
    outer loop
      vertex 0.487725 -2.45196 9
      vertex 0.956708 -2.3097 0
      vertex 0.487725 -2.45196 0
    endloop
  endfacet
  facet normal -0.634386 -0.773016 0
    outer loop
      vertex 1.38893 2.07867 0
      vertex 1.76777 1.76777 9
      vertex 1.38893 2.07867 9
    endloop
  endfacet
  facet normal -0.634386 -0.773016 -0
    outer loop
      vertex 1.76777 1.76777 9
      vertex 1.38893 2.07867 0
      vertex 1.76777 1.76777 0
    endloop
  endfacet
  facet normal 0.0980238 -0.995184 0
    outer loop
      vertex -0.487725 2.45196 0
      vertex 0 2.5 9
      vertex -0.487725 2.45196 9
    endloop
  endfacet
  facet normal 0.0980238 -0.995184 0
    outer loop
      vertex 0 2.5 9
      vertex -0.487725 2.45196 0
      vertex 0 2.5 0
    endloop
  endfacet
  facet normal -0.634386 0.773016 0
    outer loop
      vertex 1.76777 -1.76777 0
      vertex 1.38893 -2.07867 9
      vertex 1.76777 -1.76777 9
    endloop
  endfacet
  facet normal -0.634386 0.773016 0
    outer loop
      vertex 1.38893 -2.07867 9
      vertex 1.76777 -1.76777 0
      vertex 1.38893 -2.07867 0
    endloop
  endfacet
  facet normal -0.471401 0.881919 0
    outer loop
      vertex 1.38893 -2.07867 0
      vertex 0.956708 -2.3097 9
      vertex 1.38893 -2.07867 9
    endloop
  endfacet
  facet normal -0.471401 0.881919 0
    outer loop
      vertex 0.956708 -2.3097 9
      vertex 1.38893 -2.07867 0
      vertex 0.956708 -2.3097 0
    endloop
  endfacet
  facet normal 0.634386 0.773016 -0
    outer loop
      vertex -1.38893 -2.07867 0
      vertex -1.76777 -1.76777 9
      vertex -1.38893 -2.07867 9
    endloop
  endfacet
  facet normal 0.634386 0.773016 0
    outer loop
      vertex -1.76777 -1.76777 9
      vertex -1.38893 -2.07867 0
      vertex -1.76777 -1.76777 0
    endloop
  endfacet
  facet normal -0.773016 0.634386 -3.49e-19
    outer loop
      vertex 1.76777 -1.76777 0
      vertex 2.07867 -1.38893 9
      vertex 2.07867 -1.38893 0
    endloop
  endfacet
  facet normal -0.773016 0.634386 -3.49e-19
    outer loop
      vertex 2.07867 -1.38893 9
      vertex 1.76777 -1.76777 0
      vertex 1.76777 -1.76777 9
    endloop
  endfacet
  facet normal 0.995184 -0.0980238 -2.24184e-19
    outer loop
      vertex -2.5 0 9
      vertex -2.45196 0.487725 0
      vertex -2.45196 0.487725 9
    endloop
  endfacet
  facet normal 0.995184 -0.0980238 -2.24184e-19
    outer loop
      vertex -2.45196 0.487725 0
      vertex -2.5 0 9
      vertex -2.5 0 0
    endloop
  endfacet
  facet normal 0.471401 -0.881919 0
    outer loop
      vertex -1.38893 2.07867 0
      vertex -0.956708 2.3097 9
      vertex -1.38893 2.07867 9
    endloop
  endfacet
  facet normal 0.471401 -0.881919 0
    outer loop
      vertex -0.956708 2.3097 9
      vertex -1.38893 2.07867 0
      vertex -0.956708 2.3097 0
    endloop
  endfacet
  facet normal -0.471401 -0.881919 0
    outer loop
      vertex 0.956708 2.3097 0
      vertex 1.38893 2.07867 9
      vertex 0.956708 2.3097 9
    endloop
  endfacet
  facet normal -0.471401 -0.881919 -0
    outer loop
      vertex 1.38893 2.07867 9
      vertex 0.956708 2.3097 0
      vertex 1.38893 2.07867 0
    endloop
  endfacet
  facet normal -0.290276 -0.956943 0
    outer loop
      vertex 0.487725 2.45196 0
      vertex 0.956708 2.3097 9
      vertex 0.487725 2.45196 9
    endloop
  endfacet
  facet normal -0.290276 -0.956943 -0
    outer loop
      vertex 0.956708 2.3097 9
      vertex 0.487725 2.45196 0
      vertex 0.956708 2.3097 0
    endloop
  endfacet
  facet normal 0.956943 -0.290276 -1.46626e-18
    outer loop
      vertex -2.45196 0.487725 9
      vertex -2.3097 0.956708 0
      vertex -2.3097 0.956708 9
    endloop
  endfacet
  facet normal 0.956943 -0.290276 -1.46626e-18
    outer loop
      vertex -2.3097 0.956708 0
      vertex -2.45196 0.487725 9
      vertex -2.45196 0.487725 0
    endloop
  endfacet
  facet normal -0.0980238 0.995184 0
    outer loop
      vertex 0.487725 -2.45196 0
      vertex 0 -2.5 9
      vertex 0.487725 -2.45196 9
    endloop
  endfacet
  facet normal -0.0980238 0.995184 0
    outer loop
      vertex 0 -2.5 9
      vertex 0.487725 -2.45196 0
      vertex 0 -2.5 0
    endloop
  endfacet
  facet normal 0.881919 -0.471401 -1.55938e-18
    outer loop
      vertex -2.3097 0.956708 9
      vertex -2.07867 1.38893 0
      vertex -2.07867 1.38893 9
    endloop
  endfacet
  facet normal 0.881919 -0.471401 -1.55938e-18
    outer loop
      vertex -2.07867 1.38893 0
      vertex -2.3097 0.956708 9
      vertex -2.3097 0.956708 0
    endloop
  endfacet
  facet normal -0.956943 0.290276 -1.46626e-18
    outer loop
      vertex 2.3097 -0.956708 0
      vertex 2.45196 -0.487725 9
      vertex 2.45196 -0.487725 0
    endloop
  endfacet
  facet normal -0.956943 0.290276 -1.46626e-18
    outer loop
      vertex 2.45196 -0.487725 9
      vertex 2.3097 -0.956708 0
      vertex 2.3097 -0.956708 9
    endloop
  endfacet
  facet normal -0.995184 0.0980238 -2.24184e-19
    outer loop
      vertex 2.45196 -0.487725 0
      vertex 2.5 0 9
      vertex 2.5 0 0
    endloop
  endfacet
  facet normal -0.995184 0.0980238 -2.24184e-19
    outer loop
      vertex 2.5 0 9
      vertex 2.45196 -0.487725 0
      vertex 2.45196 -0.487725 9
    endloop
  endfacet
  facet normal 0.956943 0.290276 1.46626e-18
    outer loop
      vertex -2.3097 -0.956708 9
      vertex -2.45196 -0.487725 0
      vertex -2.45196 -0.487725 9
    endloop
  endfacet
  facet normal 0.956943 0.290276 1.46626e-18
    outer loop
      vertex -2.45196 -0.487725 0
      vertex -2.3097 -0.956708 9
      vertex -2.3097 -0.956708 0
    endloop
  endfacet
  facet normal 0.995184 0.0980238 2.24184e-19
    outer loop
      vertex -2.45196 -0.487725 9
      vertex -2.5 0 0
      vertex -2.5 0 9
    endloop
  endfacet
  facet normal 0.995184 0.0980238 2.24184e-19
    outer loop
      vertex -2.5 0 0
      vertex -2.45196 -0.487725 9
      vertex -2.45196 -0.487725 0
    endloop
  endfacet
  facet normal 0.773016 0.634386 3.49e-19
    outer loop
      vertex -1.76777 -1.76777 9
      vertex -2.07867 -1.38893 0
      vertex -2.07867 -1.38893 9
    endloop
  endfacet
  facet normal 0.773016 0.634386 3.49e-19
    outer loop
      vertex -2.07867 -1.38893 0
      vertex -1.76777 -1.76777 9
      vertex -1.76777 -1.76777 0
    endloop
  endfacet
  facet normal 0.471401 0.881919 -0
    outer loop
      vertex -0.956708 -2.3097 0
      vertex -1.38893 -2.07867 9
      vertex -0.956708 -2.3097 9
    endloop
  endfacet
  facet normal 0.471401 0.881919 0
    outer loop
      vertex -1.38893 -2.07867 9
      vertex -0.956708 -2.3097 0
      vertex -1.38893 -2.07867 0
    endloop
  endfacet
  facet normal 0.0980238 0.995184 -0
    outer loop
      vertex 0 -2.5 0
      vertex -0.487725 -2.45196 9
      vertex 0 -2.5 9
    endloop
  endfacet
  facet normal 0.0980238 0.995184 0
    outer loop
      vertex -0.487725 -2.45196 9
      vertex 0 -2.5 0
      vertex -0.487725 -2.45196 0
    endloop
  endfacet
  facet normal 0.290276 0.956943 -0
    outer loop
      vertex -0.487725 -2.45196 0
      vertex -0.956708 -2.3097 9
      vertex -0.487725 -2.45196 9
    endloop
  endfacet
  facet normal 0.290276 0.956943 0
    outer loop
      vertex -0.956708 -2.3097 9
      vertex -0.487725 -2.45196 0
      vertex -0.956708 -2.3097 0
    endloop
  endfacet
  facet normal 1 0 0
    outer loop
      vertex 3.67308 15.5792 5.20534
      vertex 3.67308 16.55 8.99317
      vertex 3.67308 16.55 9
    endloop
  endfacet
  facet normal 1 0 0
    outer loop
      vertex 3.67308 16.55 8.99317
      vertex 3.67308 16.1792 5.64127
      vertex 3.67308 16.55 5.7
    endloop
  endfacet
  facet normal 1 0 0
    outer loop
      vertex 3.67308 16.55 8.99317
      vertex 3.67308 15.8447 5.47082
      vertex 3.67308 16.1792 5.64127
    endloop
  endfacet
  facet normal 1 0 0
    outer loop
      vertex 3.67308 16.55 8.99317
      vertex 3.67308 15.5792 5.20534
      vertex 3.67308 15.8447 5.47082
    endloop
  endfacet
  facet normal 1 -0 0
    outer loop
      vertex 3.67308 0 9
      vertex 3.67308 15.5792 5.20534
      vertex 3.67308 16.55 9
    endloop
  endfacet
  facet normal 1 0 0
    outer loop
      vertex 3.67308 15.4087 4.87082
      vertex 3.67308 0 9
      vertex 3.67308 15.35 4.5
    endloop
  endfacet
  facet normal 1 0 0
    outer loop
      vertex 3.67308 15.5792 5.20534
      vertex 3.67308 0 9
      vertex 3.67308 15.4087 4.87082
    endloop
  endfacet
  facet normal 1 0 0
    outer loop
      vertex 3.67308 20.9665 5.3627
      vertex 3.67308 17.6913 4.87082
      vertex 3.67308 17.75 4.5
    endloop
  endfacet
  facet normal 1 0 0
    outer loop
      vertex 3.67308 18.2434 8.66922
      vertex 3.67308 17.5208 5.20534
      vertex 3.67308 17.6913 4.87082
    endloop
  endfacet
  facet normal 1 0 0
    outer loop
      vertex 3.67308 16.9208 5.64127
      vertex 3.67308 17.7745 8.83021
      vertex 3.67308 17.2907 8.93863
    endloop
  endfacet
  facet normal 1 0 0
    outer loop
      vertex 3.67308 18.2434 8.66922
      vertex 3.67308 17.2553 5.47082
      vertex 3.67308 17.5208 5.20534
    endloop
  endfacet
  facet normal 1 0 0
    outer loop
      vertex 3.67308 18.2434 8.66922
      vertex 3.67308 16.9208 5.64127
      vertex 3.67308 17.2553 5.47082
    endloop
  endfacet
  facet normal 1 0 0
    outer loop
      vertex 3.67308 16.55 5.7
      vertex 3.67308 17.2907 8.93863
      vertex 3.67308 16.7979 8.99317
    endloop
  endfacet
  facet normal 1 0 0
    outer loop
      vertex 3.67308 16.55 5.7
      vertex 3.67308 16.7979 8.99317
      vertex 3.67308 16.55 8.99317
    endloop
  endfacet
  facet normal 1 0 0
    outer loop
      vertex 3.67308 17.2907 8.93863
      vertex 3.67308 16.55 5.7
      vertex 3.67308 16.9208 5.64127
    endloop
  endfacet
  facet normal 1 -0 0
    outer loop
      vertex 3.67308 17.75 4.5
      vertex 3.67308 21.0483 4.37601
      vertex 3.67308 21.0346 4.87161
    endloop
  endfacet
  facet normal 1 0 0
    outer loop
      vertex 3.67308 17.75 4.5
      vertex 3.67308 21.0346 4.87161
      vertex 3.67308 20.9665 5.3627
    endloop
  endfacet
  facet normal 1 0 0
    outer loop
      vertex 3.67308 21.0483 4.37601
      vertex 3.67308 17.75 4.5
      vertex 3.67308 21.0073 3.88191
    endloop
  endfacet
  facet normal 1 0 0
    outer loop
      vertex 3.67308 17.6913 4.87082
      vertex 3.67308 20.9665 5.3627
      vertex 3.67308 20.8448 5.84332
    endloop
  endfacet
  facet normal 1 -0 0
    outer loop
      vertex 3.67308 17.6913 4.12918
      vertex 3.67308 21.0073 3.88191
      vertex 3.67308 17.75 4.5
    endloop
  endfacet
  facet normal 1 0 0
    outer loop
      vertex 3.67308 17.6913 4.87082
      vertex 3.67308 20.8448 5.84332
      vertex 3.67308 20.671 6.30763
    endloop
  endfacet
  facet normal 1 0 0
    outer loop
      vertex 3.67308 21.0073 3.88191
      vertex 3.67308 17.6913 4.12918
      vertex 3.67308 20.9123 3.39532
    endloop
  endfacet
  facet normal 1 0 0
    outer loop
      vertex 3.67308 17.6913 4.87082
      vertex 3.67308 20.671 6.30763
      vertex 3.67308 20.4471 6.75
    endloop
  endfacet
  facet normal 1 0 0
    outer loop
      vertex 3.67308 20.9123 3.39532
      vertex 3.67308 17.6913 4.12918
      vertex 3.67308 20.7643 2.92213
    endloop
  endfacet
  facet normal 1 0 0
    outer loop
      vertex 3.67308 17.6913 4.87082
      vertex 3.67308 20.4471 6.75
      vertex 3.67308 20.1759 7.16506
    endloop
  endfacet
  facet normal 1 0 0
    outer loop
      vertex 3.67308 20.7643 2.92213
      vertex 3.67308 17.6913 4.12918
      vertex 3.67308 20.5651 2.4681
    endloop
  endfacet
  facet normal 1 0 0
    outer loop
      vertex 3.67308 17.6913 4.87082
      vertex 3.67308 20.1759 7.16506
      vertex 3.67308 19.8608 7.54777
    endloop
  endfacet
  facet normal 1 -0 0
    outer loop
      vertex 3.67308 17.5208 3.79466
      vertex 3.67308 20.5651 2.4681
      vertex 3.67308 17.6913 4.12918
    endloop
  endfacet
  facet normal 1 0 0
    outer loop
      vertex 3.67308 17.6913 4.87082
      vertex 3.67308 19.8608 7.54777
      vertex 3.67308 19.5054 7.89348
    endloop
  endfacet
  facet normal 1 0 0
    outer loop
      vertex 3.67308 20.5651 2.4681
      vertex 3.67308 17.5208 3.79466
      vertex 3.67308 20.3172 2.03873
    endloop
  endfacet
  facet normal 1 0 0
    outer loop
      vertex 3.67308 17.6913 4.87082
      vertex 3.67308 19.5054 7.89348
      vertex 3.67308 19.1141 8.198
    endloop
  endfacet
  facet normal 1 0 0
    outer loop
      vertex 3.67308 20.3172 2.03873
      vertex 3.67308 17.5208 3.79466
      vertex 3.67308 20.0236 1.63924
    endloop
  endfacet
  facet normal 1 0 0
    outer loop
      vertex 3.67308 17.6913 4.87082
      vertex 3.67308 19.1141 8.198
      vertex 3.67308 18.6918 8.45763
    endloop
  endfacet
  facet normal 1 0 0
    outer loop
      vertex 3.67308 20.0236 1.63924
      vertex 3.67308 17.5208 3.79466
      vertex 3.67308 19.6878 1.27448
    endloop
  endfacet
  facet normal 1 0 0
    outer loop
      vertex 3.67308 17.6913 4.87082
      vertex 3.67308 18.6918 8.45763
      vertex 3.67308 18.2434 8.66922
    endloop
  endfacet
  facet normal 1 -0 0
    outer loop
      vertex 3.67308 17.2553 3.52918
      vertex 3.67308 19.6878 1.27448
      vertex 3.67308 17.5208 3.79466
    endloop
  endfacet
  facet normal 1 0 0
    outer loop
      vertex 3.67308 16.9208 5.64127
      vertex 3.67308 18.2434 8.66922
      vertex 3.67308 17.7745 8.83021
    endloop
  endfacet
  facet normal 1 0 0
    outer loop
      vertex 3.67308 19.6878 1.27448
      vertex 3.67308 17.2553 3.52918
      vertex 3.67308 19.314 0.948867
    endloop
  endfacet
  facet normal 1 0 0
    outer loop
      vertex 3.67308 19.314 0.948867
      vertex 3.67308 17.2553 3.52918
      vertex 3.67308 18.9065 0.666362
    endloop
  endfacet
  facet normal 1 0 0
    outer loop
      vertex 3.67308 18.9065 0.666362
      vertex 3.67308 17.2553 3.52918
      vertex 3.67308 18.4705 0.430392
    endloop
  endfacet
  facet normal 1 -0 0
    outer loop
      vertex 3.67308 16.9208 3.35873
      vertex 3.67308 18.4705 0.430392
      vertex 3.67308 17.2553 3.52918
    endloop
  endfacet
  facet normal 1 0 0
    outer loop
      vertex 3.67308 18.4705 0.430392
      vertex 3.67308 16.9208 3.35873
      vertex 3.67308 18.0111 0.243822
    endloop
  endfacet
  facet normal 1 0 0
    outer loop
      vertex 3.67308 18.0111 0.243822
      vertex 3.67308 16.9208 3.35873
      vertex 3.67308 17.5341 0.108915
    endloop
  endfacet
  facet normal 1 0 0
    outer loop
      vertex 3.67308 17.5341 0.108915
      vertex 3.67308 16.9208 3.35873
      vertex 3.67308 17.045 0.0273113
    endloop
  endfacet
  facet normal 1 -0 0
    outer loop
      vertex 3.67308 16.55 3.3
      vertex 3.67308 17.045 0.0273113
      vertex 3.67308 16.9208 3.35873
    endloop
  endfacet
  facet normal 1 0 0
    outer loop
      vertex 3.67308 16.55 3.3
      vertex 3.67308 16.55 0
      vertex 3.67308 17.045 0.0273113
    endloop
  endfacet
  facet normal 1 0 0
    outer loop
      vertex 3.67308 16.1792 3.35873
      vertex 3.67308 16.55 0
      vertex 3.67308 16.55 3.3
    endloop
  endfacet
  facet normal 1 0 0
    outer loop
      vertex 3.67308 15.8447 3.52918
      vertex 3.67308 16.55 0
      vertex 3.67308 16.1792 3.35873
    endloop
  endfacet
  facet normal 1 0 0
    outer loop
      vertex 3.67308 15.5792 3.79466
      vertex 3.67308 16.55 0
      vertex 3.67308 15.8447 3.52918
    endloop
  endfacet
  facet normal 1 0 0
    outer loop
      vertex 3.67308 0 0
      vertex 3.67308 15.5792 3.79466
      vertex 3.67308 15.4087 4.12918
    endloop
  endfacet
  facet normal 1 0 0
    outer loop
      vertex 3.67308 0 0
      vertex 3.67308 15.35 4.5
      vertex 3.67308 0 9
    endloop
  endfacet
  facet normal 1 0 0
    outer loop
      vertex 3.67308 15.35 4.5
      vertex 3.67308 0 0
      vertex 3.67308 15.4087 4.12918
    endloop
  endfacet
  facet normal 1 0 0
    outer loop
      vertex 3.67308 15.5792 3.79466
      vertex 3.67308 0 0
      vertex 3.67308 16.55 0
    endloop
  endfacet
  facet normal -1 0 0
    outer loop
      vertex 1.92308 17.75 4.5
      vertex 1.92308 21.0483 4.37601
      vertex 1.92308 21.0073 3.88191
    endloop
  endfacet
  facet normal -1 0 0
    outer loop
      vertex 1.92308 21.0483 4.37601
      vertex 1.92308 17.75 4.5
      vertex 1.92308 21.0346 4.87161
    endloop
  endfacet
  facet normal -1 0 0
    outer loop
      vertex 1.92308 17.6913 4.12918
      vertex 1.92308 21.0073 3.88191
      vertex 1.92308 20.9123 3.39532
    endloop
  endfacet
  facet normal -1 -0 0
    outer loop
      vertex 1.92308 21.0346 4.87161
      vertex 1.92308 17.75 4.5
      vertex 1.92308 20.9665 5.3627
    endloop
  endfacet
  facet normal -1 0 0
    outer loop
      vertex 1.92308 17.6913 4.12918
      vertex 1.92308 20.9123 3.39532
      vertex 1.92308 20.7643 2.92213
    endloop
  endfacet
  facet normal -1 0 0
    outer loop
      vertex 1.92308 17.6913 4.87082
      vertex 1.92308 20.9665 5.3627
      vertex 1.92308 17.75 4.5
    endloop
  endfacet
  facet normal -1 0 0
    outer loop
      vertex 1.92308 17.6913 4.12918
      vertex 1.92308 20.7643 2.92213
      vertex 1.92308 20.5651 2.4681
    endloop
  endfacet
  facet normal -1 -0 0
    outer loop
      vertex 1.92308 20.9665 5.3627
      vertex 1.92308 17.6913 4.87082
      vertex 1.92308 20.8448 5.84332
    endloop
  endfacet
  facet normal -1 0 0
    outer loop
      vertex 1.92308 17.5208 3.79466
      vertex 1.92308 20.5651 2.4681
      vertex 1.92308 20.3172 2.03873
    endloop
  endfacet
  facet normal -1 -0 0
    outer loop
      vertex 1.92308 20.8448 5.84332
      vertex 1.92308 17.6913 4.87082
      vertex 1.92308 20.671 6.30763
    endloop
  endfacet
  facet normal -1 0 0
    outer loop
      vertex 1.92308 17.5208 3.79466
      vertex 1.92308 20.3172 2.03873
      vertex 1.92308 20.0236 1.63924
    endloop
  endfacet
  facet normal -1 -0 0
    outer loop
      vertex 1.92308 20.671 6.30763
      vertex 1.92308 17.6913 4.87082
      vertex 1.92308 20.4471 6.75
    endloop
  endfacet
  facet normal -1 0 0
    outer loop
      vertex 1.92308 17.5208 3.79466
      vertex 1.92308 20.0236 1.63924
      vertex 1.92308 19.6878 1.27448
    endloop
  endfacet
  facet normal -1 0 0
    outer loop
      vertex 1.92308 17.5208 5.20534
      vertex 1.92308 20.4471 6.75
      vertex 1.92308 17.6913 4.87082
    endloop
  endfacet
  facet normal -1 0 0
    outer loop
      vertex 1.92308 17.2553 3.52918
      vertex 1.92308 19.6878 1.27448
      vertex 1.92308 19.314 0.948867
    endloop
  endfacet
  facet normal -1 -0 0
    outer loop
      vertex 1.92308 20.4471 6.75
      vertex 1.92308 17.5208 5.20534
      vertex 1.92308 20.1759 7.16506
    endloop
  endfacet
  facet normal -1 0 0
    outer loop
      vertex 1.92308 17.2553 3.52918
      vertex 1.92308 19.314 0.948867
      vertex 1.92308 18.9065 0.666362
    endloop
  endfacet
  facet normal -1 -0 0
    outer loop
      vertex 1.92308 20.1759 7.16506
      vertex 1.92308 17.5208 5.20534
      vertex 1.92308 19.8608 7.54777
    endloop
  endfacet
  facet normal -1 0 0
    outer loop
      vertex 1.92308 17.2553 3.52918
      vertex 1.92308 18.9065 0.666362
      vertex 1.92308 18.4705 0.430392
    endloop
  endfacet
  facet normal -1 0 0
    outer loop
      vertex 1.92308 17.2553 5.47082
      vertex 1.92308 19.8608 7.54777
      vertex 1.92308 17.5208 5.20534
    endloop
  endfacet
  facet normal -1 0 0
    outer loop
      vertex 1.92308 16.9208 3.35873
      vertex 1.92308 18.4705 0.430392
      vertex 1.92308 18.0111 0.243822
    endloop
  endfacet
  facet normal -1 -0 0
    outer loop
      vertex 1.92308 19.8608 7.54777
      vertex 1.92308 17.2553 5.47082
      vertex 1.92308 19.5054 7.89348
    endloop
  endfacet
  facet normal -1 -0 0
    outer loop
      vertex 1.92308 19.5054 7.89348
      vertex 1.92308 17.2553 5.47082
      vertex 1.92308 19.1141 8.198
    endloop
  endfacet
  facet normal -1 0 0
    outer loop
      vertex 1.92308 21.0073 3.88191
      vertex 1.92308 17.6913 4.12918
      vertex 1.92308 17.75 4.5
    endloop
  endfacet
  facet normal -1 0 0
    outer loop
      vertex 1.92308 16.9208 3.35873
      vertex 1.92308 18.0111 0.243822
      vertex 1.92308 17.5341 0.108915
    endloop
  endfacet
  facet normal -1 0 0
    outer loop
      vertex 1.92308 20.5651 2.4681
      vertex 1.92308 17.5208 3.79466
      vertex 1.92308 17.6913 4.12918
    endloop
  endfacet
  facet normal -1 0 0
    outer loop
      vertex 1.92308 19.6878 1.27448
      vertex 1.92308 17.2553 3.52918
      vertex 1.92308 17.5208 3.79466
    endloop
  endfacet
  facet normal -1 0 0
    outer loop
      vertex 1.92308 16.9208 3.35873
      vertex 1.92308 17.5341 0.108915
      vertex 1.92308 17.045 0.0273113
    endloop
  endfacet
  facet normal -1 0 0
    outer loop
      vertex 1.92308 18.4705 0.430392
      vertex 1.92308 16.9208 3.35873
      vertex 1.92308 17.2553 3.52918
    endloop
  endfacet
  facet normal -1 0 0
    outer loop
      vertex 1.92308 16.55 3.3
      vertex 1.92308 17.045 0.0273113
      vertex 1.92308 16.55 0
    endloop
  endfacet
  facet normal -1 0 0
    outer loop
      vertex 1.92308 17.045 0.0273113
      vertex 1.92308 16.55 3.3
      vertex 1.92308 16.9208 3.35873
    endloop
  endfacet
  facet normal -1 0 0
    outer loop
      vertex 1.92308 16.55 0
      vertex 1.92308 16.1792 3.35873
      vertex 1.92308 16.55 3.3
    endloop
  endfacet
  facet normal -1 0 0
    outer loop
      vertex 1.92308 16.55 0
      vertex 1.92308 15.8447 3.52918
      vertex 1.92308 16.1792 3.35873
    endloop
  endfacet
  facet normal -1 0 0
    outer loop
      vertex 1.92308 16.55 0
      vertex 1.92308 15.5792 3.79466
      vertex 1.92308 15.8447 3.52918
    endloop
  endfacet
  facet normal -1 0 0
    outer loop
      vertex 1.92308 2.97891 0
      vertex 1.92308 15.5792 3.79466
      vertex 1.92308 16.55 0
    endloop
  endfacet
  facet normal -1 -0 0
    outer loop
      vertex 1.92308 15.4087 4.12918
      vertex 1.92308 2.97891 0
      vertex 1.92308 15.35 4.5
    endloop
  endfacet
  facet normal -1 -0 0
    outer loop
      vertex 1.92308 15.5792 3.79466
      vertex 1.92308 2.97891 0
      vertex 1.92308 15.4087 4.12918
    endloop
  endfacet
  facet normal -1 -0 0
    outer loop
      vertex 1.92308 19.1141 8.198
      vertex 1.92308 17.2553 5.47082
      vertex 1.92308 18.6918 8.45763
    endloop
  endfacet
  facet normal -1 0 0
    outer loop
      vertex 1.92308 16.9208 5.64127
      vertex 1.92308 18.6918 8.45763
      vertex 1.92308 17.2553 5.47082
    endloop
  endfacet
  facet normal -1 -0 0
    outer loop
      vertex 1.92308 18.6918 8.45763
      vertex 1.92308 16.9208 5.64127
      vertex 1.92308 18.2434 8.66922
    endloop
  endfacet
  facet normal -1 -0 0
    outer loop
      vertex 1.92308 18.2434 8.66922
      vertex 1.92308 16.9208 5.64127
      vertex 1.92308 17.7745 8.83021
    endloop
  endfacet
  facet normal -1 -0 0
    outer loop
      vertex 1.92308 17.7745 8.83021
      vertex 1.92308 16.9208 5.64127
      vertex 1.92308 17.2907 8.93863
    endloop
  endfacet
  facet normal -1 0 0
    outer loop
      vertex 1.92308 16.55 5.7
      vertex 1.92308 17.2907 8.93863
      vertex 1.92308 16.9208 5.64127
    endloop
  endfacet
  facet normal -1 -0 0
    outer loop
      vertex 1.92308 17.2907 8.93863
      vertex 1.92308 16.55 5.7
      vertex 1.92308 16.7979 8.99317
    endloop
  endfacet
  facet normal -1 0 0
    outer loop
      vertex 1.92308 16.55 5.7
      vertex 1.92308 16.55 8.99317
      vertex 1.92308 16.7979 8.99317
    endloop
  endfacet
  facet normal -1 0 0
    outer loop
      vertex 1.92308 16.1792 5.64127
      vertex 1.92308 16.55 8.99317
      vertex 1.92308 16.55 5.7
    endloop
  endfacet
  facet normal -1 0 0
    outer loop
      vertex 1.92308 15.8447 5.47082
      vertex 1.92308 16.55 8.99317
      vertex 1.92308 16.1792 5.64127
    endloop
  endfacet
  facet normal -1 0 0
    outer loop
      vertex 1.92308 15.5792 5.20534
      vertex 1.92308 16.55 8.99317
      vertex 1.92308 15.8447 5.47082
    endloop
  endfacet
  facet normal -1 0 0
    outer loop
      vertex 1.92308 2.97891 9
      vertex 1.92308 16.55 8.99317
      vertex 1.92308 15.5792 5.20534
    endloop
  endfacet
  facet normal -1 0 0
    outer loop
      vertex 1.92308 2.97891 9
      vertex 1.92308 15.5792 5.20534
      vertex 1.92308 15.4087 4.87082
    endloop
  endfacet
  facet normal -1 0 0
    outer loop
      vertex 1.92308 2.97891 9
      vertex 1.92308 15.35 4.5
      vertex 1.92308 2.97891 0
    endloop
  endfacet
  facet normal -1 0 0
    outer loop
      vertex 1.92308 15.35 4.5
      vertex 1.92308 2.97891 9
      vertex 1.92308 15.4087 4.87082
    endloop
  endfacet
  facet normal -1 0 0
    outer loop
      vertex 1.92308 16.55 8.99317
      vertex 1.92308 2.97891 9
      vertex 1.92308 16.55 9
    endloop
  endfacet
  facet normal 0 1 -0
    outer loop
      vertex 3.67308 16.55 8.99317
      vertex 1.92308 16.55 9
      vertex 3.67308 16.55 9
    endloop
  endfacet
  facet normal 0 1 0
    outer loop
      vertex 1.92308 16.55 9
      vertex 3.67308 16.55 8.99317
      vertex 1.92308 16.55 8.99317
    endloop
  endfacet
  facet normal 0 0.16457 -0.986365
    outer loop
      vertex 1.92308 17.045 0.0273113
      vertex 3.67308 17.5341 0.108915
      vertex 3.67308 17.045 0.0273113
    endloop
  endfacet
  facet normal 0 0.16457 -0.986365
    outer loop
      vertex 3.67308 17.5341 0.108915
      vertex 1.92308 17.045 0.0273113
      vertex 1.92308 17.5341 0.108915
    endloop
  endfacet
  facet normal 6.38813e-18 0.735709 -0.677298
    outer loop
      vertex 3.67308 19.6878 1.27448
      vertex 1.92308 20.0236 1.63924
      vertex 3.67308 20.0236 1.63924
    endloop
  endfacet
  facet normal 6.38813e-18 0.735709 -0.677298
    outer loop
      vertex 1.92308 20.0236 1.63924
      vertex 3.67308 19.6878 1.27448
      vertex 1.92308 19.6878 1.27448
    endloop
  endfacet
  facet normal 0 0.656833 -0.754036
    outer loop
      vertex 1.92308 19.314 0.948867
      vertex 3.67308 19.6878 1.27448
      vertex 3.67308 19.314 0.948867
    endloop
  endfacet
  facet normal 0 0.656833 -0.754036
    outer loop
      vertex 3.67308 19.6878 1.27448
      vertex 1.92308 19.314 0.948867
      vertex 1.92308 19.6878 1.27448
    endloop
  endfacet
  facet normal 4.30553e-19 0.996575 -0.0826949
    outer loop
      vertex 3.67308 21.0073 3.88191
      vertex 1.92308 21.0483 4.37601
      vertex 3.67308 21.0483 4.37601
    endloop
  endfacet
  facet normal 4.30553e-19 0.996575 -0.0826949
    outer loop
      vertex 1.92308 21.0483 4.37601
      vertex 3.67308 21.0073 3.88191
      vertex 1.92308 21.0073 3.88191
    endloop
  endfacet
  facet normal 0 0.569741 -0.821824
    outer loop
      vertex 1.92308 18.9065 0.666362
      vertex 3.67308 19.314 0.948867
      vertex 3.67308 18.9065 0.666362
    endloop
  endfacet
  facet normal 0 0.569741 -0.821824
    outer loop
      vertex 3.67308 19.314 0.948867
      vertex 1.92308 18.9065 0.666362
      vertex 1.92308 19.314 0.948867
    endloop
  endfacet
  facet normal 2.96898e-18 0.969405 0.245467
    outer loop
      vertex 3.67308 20.9665 5.3627
      vertex 1.92308 20.8448 5.84332
      vertex 3.67308 20.8448 5.84332
    endloop
  endfacet
  facet normal 2.96898e-18 0.969405 0.245467
    outer loop
      vertex 1.92308 20.8448 5.84332
      vertex 3.67308 20.9665 5.3627
      vertex 1.92308 20.9665 5.3627
    endloop
  endfacet
  facet normal 0 0.475976 -0.879458
    outer loop
      vertex 1.92308 18.4705 0.430392
      vertex 3.67308 18.9065 0.666362
      vertex 3.67308 18.4705 0.430392
    endloop
  endfacet
  facet normal 0 0.475976 -0.879458
    outer loop
      vertex 3.67308 18.9065 0.666362
      vertex 1.92308 18.4705 0.430392
      vertex 1.92308 18.9065 0.666362
    endloop
  endfacet
  facet normal 7.32548e-18 0.892226 0.451589
    outer loop
      vertex 3.67308 20.671 6.30763
      vertex 1.92308 20.4471 6.75
      vertex 3.67308 20.4471 6.75
    endloop
  endfacet
  facet normal 7.32548e-18 0.892226 0.451589
    outer loop
      vertex 1.92308 20.4471 6.75
      vertex 3.67308 20.671 6.30763
      vertex 1.92308 20.671 6.30763
    endloop
  endfacet
  facet normal 3.1219e-19 0.999618 0.0276327
    outer loop
      vertex 3.67308 21.0483 4.37601
      vertex 1.92308 21.0346 4.87161
      vertex 3.67308 21.0346 4.87161
    endloop
  endfacet
  facet normal 3.1219e-19 0.999618 0.0276327
    outer loop
      vertex 1.92308 21.0346 4.87161
      vertex 3.67308 21.0483 4.37601
      vertex 1.92308 21.0483 4.37601
    endloop
  endfacet
  facet normal -0 0.614161 0.789181
    outer loop
      vertex 1.92308 19.5054 7.89348
      vertex 3.67308 19.1141 8.198
      vertex 3.67308 19.5054 7.89348
    endloop
  endfacet
  facet normal 0 0.614161 0.789181
    outer loop
      vertex 3.67308 19.1141 8.198
      vertex 1.92308 19.5054 7.89348
      vertex 1.92308 19.1141 8.198
    endloop
  endfacet
  facet normal -3.94579e-18 0.866023 -0.500005
    outer loop
      vertex 3.67308 20.3172 2.03873
      vertex 1.92308 20.5651 2.4681
      vertex 3.67308 20.5651 2.4681
    endloop
  endfacet
  facet normal -3.94579e-18 0.866023 -0.500005
    outer loop
      vertex 1.92308 20.5651 2.4681
      vertex 3.67308 20.3172 2.03873
      vertex 1.92308 20.3172 2.03873
    endloop
  endfacet
  facet normal 0 0.0550906 -0.998481
    outer loop
      vertex 1.92308 16.55 0
      vertex 3.67308 17.045 0.0273113
      vertex 3.67308 16.55 0
    endloop
  endfacet
  facet normal 0 0.0550906 -0.998481
    outer loop
      vertex 3.67308 17.045 0.0273113
      vertex 1.92308 16.55 0
      vertex 1.92308 17.045 0.0273113
    endloop
  endfacet
  facet normal -5.09538e-19 0.805788 -0.592204
    outer loop
      vertex 3.67308 20.0236 1.63924
      vertex 1.92308 20.3172 2.03873
      vertex 3.67308 20.3172 2.03873
    endloop
  endfacet
  facet normal -5.09538e-19 0.805788 -0.592204
    outer loop
      vertex 1.92308 20.3172 2.03873
      vertex 3.67308 20.0236 1.63924
      vertex 1.92308 20.0236 1.63924
    endloop
  endfacet
  facet normal 4.15061e-18 0.837141 0.546987
    outer loop
      vertex 3.67308 20.4471 6.75
      vertex 1.92308 20.1759 7.16506
      vertex 3.67308 20.1759 7.16506
    endloop
  endfacet
  facet normal 4.15061e-18 0.837141 0.546987
    outer loop
      vertex 1.92308 20.1759 7.16506
      vertex 3.67308 20.4471 6.75
      vertex 1.92308 20.4471 6.75
    endloop
  endfacet
  facet normal -0 0.697267 0.716811
    outer loop
      vertex 1.92308 19.8608 7.54777
      vertex 3.67308 19.5054 7.89348
      vertex 3.67308 19.8608 7.54777
    endloop
  endfacet
  facet normal 0 0.697267 0.716811
    outer loop
      vertex 3.67308 19.5054 7.89348
      vertex 1.92308 19.8608 7.54777
      vertex 1.92308 19.5054 7.89348
    endloop
  endfacet
  facet normal 0 0.272149 -0.962255
    outer loop
      vertex 1.92308 17.5341 0.108915
      vertex 3.67308 18.0111 0.243822
      vertex 3.67308 17.5341 0.108915
    endloop
  endfacet
  facet normal 0 0.272149 -0.962255
    outer loop
      vertex 3.67308 18.0111 0.243822
      vertex 1.92308 17.5341 0.108915
      vertex 1.92308 18.0111 0.243822
    endloop
  endfacet
  facet normal 0 0.376271 -0.92651
    outer loop
      vertex 1.92308 18.0111 0.243822
      vertex 3.67308 18.4705 0.430392
      vertex 3.67308 18.0111 0.243822
    endloop
  endfacet
  facet normal 0 0.376271 -0.92651
    outer loop
      vertex 3.67308 18.4705 0.430392
      vertex 1.92308 18.0111 0.243822
      vertex 1.92308 18.4705 0.430392
    endloop
  endfacet
  facet normal 3.96452e-18 0.936539 0.350564
    outer loop
      vertex 3.67308 20.8448 5.84332
      vertex 1.92308 20.671 6.30763
      vertex 3.67308 20.671 6.30763
    endloop
  endfacet
  facet normal 3.96452e-18 0.936539 0.350564
    outer loop
      vertex 1.92308 20.671 6.30763
      vertex 3.67308 20.8448 5.84332
      vertex 1.92308 20.8448 5.84332
    endloop
  endfacet
  facet normal -0 0.324729 0.945807
    outer loop
      vertex 1.92308 18.2434 8.66922
      vertex 3.67308 17.7745 8.83021
      vertex 3.67308 18.2434 8.66922
    endloop
  endfacet
  facet normal 0 0.324729 0.945807
    outer loop
      vertex 3.67308 17.7745 8.83021
      vertex 1.92308 18.2434 8.66922
      vertex 1.92308 17.7745 8.83021
    endloop
  endfacet
  facet normal -0 0 1
    outer loop
      vertex 1.92308 16.7979 8.99317
      vertex 3.67308 16.55 8.99317
      vertex 3.67308 16.7979 8.99317
    endloop
  endfacet
  facet normal 0 0 1
    outer loop
      vertex 3.67308 16.55 8.99317
      vertex 1.92308 16.7979 8.99317
      vertex 1.92308 16.55 8.99317
    endloop
  endfacet
  facet normal -0 0.218677 0.975797
    outer loop
      vertex 1.92308 17.7745 8.83021
      vertex 3.67308 17.2907 8.93863
      vertex 3.67308 17.7745 8.83021
    endloop
  endfacet
  facet normal 0 0.218677 0.975797
    outer loop
      vertex 3.67308 17.2907 8.93863
      vertex 1.92308 17.7745 8.83021
      vertex 1.92308 17.2907 8.93863
    endloop
  endfacet
  facet normal 6.19898e-18 0.915741 -0.40177
    outer loop
      vertex 3.67308 20.5651 2.4681
      vertex 1.92308 20.7643 2.92213
      vertex 3.67308 20.7643 2.92213
    endloop
  endfacet
  facet normal 6.19898e-18 0.915741 -0.40177
    outer loop
      vertex 1.92308 20.7643 2.92213
      vertex 3.67308 20.5651 2.4681
      vertex 1.92308 20.5651 2.4681
    endloop
  endfacet
  facet normal -3.5876e-18 0.990522 0.137357
    outer loop
      vertex 3.67308 21.0346 4.87161
      vertex 1.92308 20.9665 5.3627
      vertex 3.67308 20.9665 5.3627
    endloop
  endfacet
  facet normal -3.5876e-18 0.990522 0.137357
    outer loop
      vertex 1.92308 20.9665 5.3627
      vertex 3.67308 21.0346 4.87161
      vertex 1.92308 21.0346 4.87161
    endloop
  endfacet
  facet normal 3.10792e-18 0.772002 0.63562
    outer loop
      vertex 3.67308 20.1759 7.16506
      vertex 1.92308 19.8608 7.54777
      vertex 3.67308 19.8608 7.54777
    endloop
  endfacet
  facet normal 3.10792e-18 0.772002 0.63562
    outer loop
      vertex 1.92308 19.8608 7.54777
      vertex 3.67308 20.1759 7.16506
      vertex 1.92308 20.1759 7.16506
    endloop
  endfacet
  facet normal -1.51017e-18 0.98147 -0.191618
    outer loop
      vertex 3.67308 20.9123 3.39532
      vertex 1.92308 21.0073 3.88191
      vertex 3.67308 21.0073 3.88191
    endloop
  endfacet
  facet normal -1.51017e-18 0.98147 -0.191618
    outer loop
      vertex 1.92308 21.0073 3.88191
      vertex 3.67308 20.9123 3.39532
      vertex 1.92308 20.9123 3.39532
    endloop
  endfacet
  facet normal -0 0.110002 0.993931
    outer loop
      vertex 1.92308 17.2907 8.93863
      vertex 3.67308 16.7979 8.99317
      vertex 3.67308 17.2907 8.93863
    endloop
  endfacet
  facet normal 0 0.110002 0.993931
    outer loop
      vertex 3.67308 16.7979 8.99317
      vertex 1.92308 17.2907 8.93863
      vertex 1.92308 16.7979 8.99317
    endloop
  endfacet
  facet normal -0 0.426752 0.904369
    outer loop
      vertex 1.92308 18.6918 8.45763
      vertex 3.67308 18.2434 8.66922
      vertex 3.67308 18.6918 8.45763
    endloop
  endfacet
  facet normal 0 0.426752 0.904369
    outer loop
      vertex 3.67308 18.2434 8.66922
      vertex 1.92308 18.6918 8.45763
      vertex 1.92308 18.2434 8.66922
    endloop
  endfacet
  facet normal -4.28701e-18 0.954406 -0.29851
    outer loop
      vertex 3.67308 20.7643 2.92213
      vertex 1.92308 20.9123 3.39532
      vertex 3.67308 20.9123 3.39532
    endloop
  endfacet
  facet normal -4.28701e-18 0.954406 -0.29851
    outer loop
      vertex 1.92308 20.9123 3.39532
      vertex 3.67308 20.7643 2.92213
      vertex 1.92308 20.7643 2.92213
    endloop
  endfacet
  facet normal -0 0.523736 0.851881
    outer loop
      vertex 1.92308 19.1141 8.198
      vertex 3.67308 18.6918 8.45763
      vertex 3.67308 19.1141 8.198
    endloop
  endfacet
  facet normal 0 0.523736 0.851881
    outer loop
      vertex 3.67308 18.6918 8.45763
      vertex 1.92308 19.1141 8.198
      vertex 1.92308 18.6918 8.45763
    endloop
  endfacet
  facet normal 2.55446e-18 -0.987702 -0.156351
    outer loop
      vertex 1.92308 17.75 4.5
      vertex 3.67308 17.6913 4.87082
      vertex 1.92308 17.6913 4.87082
    endloop
  endfacet
  facet normal 2.55446e-18 -0.987702 -0.156351
    outer loop
      vertex 3.67308 17.6913 4.87082
      vertex 1.92308 17.75 4.5
      vertex 3.67308 17.75 4.5
    endloop
  endfacet
  facet normal 0 0.156437 -0.987688
    outer loop
      vertex 1.92308 16.1792 5.64127
      vertex 3.67308 16.55 5.7
      vertex 3.67308 16.1792 5.64127
    endloop
  endfacet
  facet normal 0 0.156437 -0.987688
    outer loop
      vertex 3.67308 16.55 5.7
      vertex 1.92308 16.1792 5.64127
      vertex 1.92308 16.55 5.7
    endloop
  endfacet
  facet normal 0 -0.156437 0.987688
    outer loop
      vertex 1.92308 16.9208 3.35873
      vertex 3.67308 16.55 3.3
      vertex 3.67308 16.9208 3.35873
    endloop
  endfacet
  facet normal 0 -0.156437 0.987688
    outer loop
      vertex 3.67308 16.55 3.3
      vertex 1.92308 16.9208 3.35873
      vertex 1.92308 16.55 3.3
    endloop
  endfacet
  facet normal -1.77889e-20 0.890949 0.454104
    outer loop
      vertex 3.67308 15.5792 3.79466
      vertex 1.92308 15.4087 4.12918
      vertex 3.67308 15.4087 4.12918
    endloop
  endfacet
  facet normal -1.77889e-20 0.890949 0.454104
    outer loop
      vertex 1.92308 15.4087 4.12918
      vertex 3.67308 15.5792 3.79466
      vertex 1.92308 15.5792 3.79466
    endloop
  endfacet
  facet normal 0 -0.45402 0.890992
    outer loop
      vertex 1.92308 17.2553 3.52918
      vertex 3.67308 16.9208 3.35873
      vertex 3.67308 17.2553 3.52918
    endloop
  endfacet
  facet normal 0 -0.45402 0.890992
    outer loop
      vertex 3.67308 16.9208 3.35873
      vertex 1.92308 17.2553 3.52918
      vertex 1.92308 16.9208 3.35873
    endloop
  endfacet
  facet normal -0 0.70708 0.707133
    outer loop
      vertex 1.92308 15.8447 3.52918
      vertex 3.67308 15.5792 3.79466
      vertex 3.67308 15.8447 3.52918
    endloop
  endfacet
  facet normal 0 0.70708 0.707133
    outer loop
      vertex 3.67308 15.5792 3.79466
      vertex 1.92308 15.8447 3.52918
      vertex 1.92308 15.5792 3.79466
    endloop
  endfacet
  facet normal 0 -0.70708 0.707133
    outer loop
      vertex 1.92308 17.5208 3.79466
      vertex 3.67308 17.2553 3.52918
      vertex 3.67308 17.5208 3.79466
    endloop
  endfacet
  facet normal 0 -0.70708 0.707133
    outer loop
      vertex 3.67308 17.2553 3.52918
      vertex 1.92308 17.5208 3.79466
      vertex 1.92308 17.2553 3.52918
    endloop
  endfacet
  facet normal 0 -0.70708 -0.707133
    outer loop
      vertex 1.92308 17.2553 5.47082
      vertex 3.67308 17.5208 5.20534
      vertex 3.67308 17.2553 5.47082
    endloop
  endfacet
  facet normal -0 -0.70708 -0.707133
    outer loop
      vertex 3.67308 17.5208 5.20534
      vertex 1.92308 17.2553 5.47082
      vertex 1.92308 17.5208 5.20534
    endloop
  endfacet
  facet normal -2.87831e-18 -0.890949 0.454104
    outer loop
      vertex 1.92308 17.5208 3.79466
      vertex 3.67308 17.6913 4.12918
      vertex 1.92308 17.6913 4.12918
    endloop
  endfacet
  facet normal -2.87831e-18 -0.890949 0.454104
    outer loop
      vertex 3.67308 17.6913 4.12918
      vertex 1.92308 17.5208 3.79466
      vertex 3.67308 17.5208 3.79466
    endloop
  endfacet
  facet normal 9.47109e-19 0.890949 -0.454104
    outer loop
      vertex 3.67308 15.4087 4.87082
      vertex 1.92308 15.5792 5.20534
      vertex 3.67308 15.5792 5.20534
    endloop
  endfacet
  facet normal 9.47109e-19 0.890949 -0.454104
    outer loop
      vertex 1.92308 15.5792 5.20534
      vertex 3.67308 15.4087 4.87082
      vertex 1.92308 15.4087 4.87082
    endloop
  endfacet
  facet normal -0 0.45402 0.890992
    outer loop
      vertex 1.92308 16.1792 3.35873
      vertex 3.67308 15.8447 3.52918
      vertex 3.67308 16.1792 3.35873
    endloop
  endfacet
  facet normal 0 0.45402 0.890992
    outer loop
      vertex 3.67308 15.8447 3.52918
      vertex 1.92308 16.1792 3.35873
      vertex 1.92308 15.8447 3.52918
    endloop
  endfacet
  facet normal 0 -0.156437 -0.987688
    outer loop
      vertex 1.92308 16.55 5.7
      vertex 3.67308 16.9208 5.64127
      vertex 3.67308 16.55 5.7
    endloop
  endfacet
  facet normal -0 -0.156437 -0.987688
    outer loop
      vertex 3.67308 16.9208 5.64127
      vertex 1.92308 16.55 5.7
      vertex 1.92308 16.9208 5.64127
    endloop
  endfacet
  facet normal 1.81432e-18 0.987702 0.156351
    outer loop
      vertex 3.67308 15.4087 4.12918
      vertex 1.92308 15.35 4.5
      vertex 3.67308 15.35 4.5
    endloop
  endfacet
  facet normal 1.81432e-18 0.987702 0.156351
    outer loop
      vertex 1.92308 15.35 4.5
      vertex 3.67308 15.4087 4.12918
      vertex 1.92308 15.4087 4.12918
    endloop
  endfacet
  facet normal -0 0.156437 0.987688
    outer loop
      vertex 1.92308 16.55 3.3
      vertex 3.67308 16.1792 3.35873
      vertex 3.67308 16.55 3.3
    endloop
  endfacet
  facet normal 0 0.156437 0.987688
    outer loop
      vertex 3.67308 16.1792 3.35873
      vertex 1.92308 16.55 3.3
      vertex 1.92308 16.1792 3.35873
    endloop
  endfacet
  facet normal 0 0.45402 -0.890992
    outer loop
      vertex 1.92308 15.8447 5.47082
      vertex 3.67308 16.1792 5.64127
      vertex 3.67308 15.8447 5.47082
    endloop
  endfacet
  facet normal 0 0.45402 -0.890992
    outer loop
      vertex 3.67308 16.1792 5.64127
      vertex 1.92308 15.8447 5.47082
      vertex 1.92308 16.1792 5.64127
    endloop
  endfacet
  facet normal -2.55446e-18 -0.987702 0.156351
    outer loop
      vertex 1.92308 17.6913 4.12918
      vertex 3.67308 17.75 4.5
      vertex 1.92308 17.75 4.5
    endloop
  endfacet
  facet normal -2.55446e-18 -0.987702 0.156351
    outer loop
      vertex 3.67308 17.75 4.5
      vertex 1.92308 17.6913 4.12918
      vertex 3.67308 17.6913 4.12918
    endloop
  endfacet
  facet normal 1.94899e-18 -0.890949 -0.454104
    outer loop
      vertex 1.92308 17.6913 4.87082
      vertex 3.67308 17.5208 5.20534
      vertex 1.92308 17.5208 5.20534
    endloop
  endfacet
  facet normal 1.94899e-18 -0.890949 -0.454104
    outer loop
      vertex 3.67308 17.5208 5.20534
      vertex 1.92308 17.6913 4.87082
      vertex 3.67308 17.6913 4.87082
    endloop
  endfacet
  facet normal -1.81432e-18 0.987702 -0.156351
    outer loop
      vertex 3.67308 15.35 4.5
      vertex 1.92308 15.4087 4.87082
      vertex 3.67308 15.4087 4.87082
    endloop
  endfacet
  facet normal -1.81432e-18 0.987702 -0.156351
    outer loop
      vertex 1.92308 15.4087 4.87082
      vertex 3.67308 15.35 4.5
      vertex 1.92308 15.35 4.5
    endloop
  endfacet
  facet normal 0 0.70708 -0.707133
    outer loop
      vertex 1.92308 15.5792 5.20534
      vertex 3.67308 15.8447 5.47082
      vertex 3.67308 15.5792 5.20534
    endloop
  endfacet
  facet normal 0 0.70708 -0.707133
    outer loop
      vertex 3.67308 15.8447 5.47082
      vertex 1.92308 15.5792 5.20534
      vertex 1.92308 15.8447 5.47082
    endloop
  endfacet
  facet normal 0 -0.45402 -0.890992
    outer loop
      vertex 1.92308 16.9208 5.64127
      vertex 3.67308 17.2553 5.47082
      vertex 3.67308 16.9208 5.64127
    endloop
  endfacet
  facet normal -0 -0.45402 -0.890992
    outer loop
      vertex 3.67308 17.2553 5.47082
      vertex 1.92308 16.9208 5.64127
      vertex 1.92308 17.2553 5.47082
    endloop
  endfacet
endsolid OpenSCAD_Model
