solid OpenSCAD_Model
  facet normal 0.425772 -0.90483 0
    outer loop
      vertex 0.938639 -2.88883 0
      vertex 1.62757 -2.56465 4
      vertex 0.938639 -2.88883 4
    endloop
  endfacet
  facet normal 0.425772 -0.90483 0
    outer loop
      vertex 1.62757 -2.56465 4
      vertex 0.938639 -2.88883 0
      vertex 1.62757 -2.56465 0
    endloop
  endfacet
  facet normal -0.968584 -0.248686 6.42749e-19
    outer loop
      vertex -2.8242 -1.11818 0
      vertex -3.01355 -0.380699 4
      vertex -3.01355 -0.380699 0
    endloop
  endfacet
  facet normal -0.968584 -0.248686 6.42749e-19
    outer loop
      vertex -3.01355 -0.380699 4
      vertex -2.8242 -1.11818 0
      vertex -2.8242 -1.11818 4
    endloop
  endfacet
  facet normal -0.968584 0.248686 -6.42749e-19
    outer loop
      vertex -3.01355 0.380699 0
      vertex -2.8242 1.11818 4
      vertex -2.8242 1.11818 0
    endloop
  endfacet
  facet normal -0.968584 0.248686 -6.42749e-19
    outer loop
      vertex -2.8242 1.11818 4
      vertex -3.01355 0.380699 0
      vertex -3.01355 0.380699 4
    endloop
  endfacet
  facet normal -0.309024 -0.951054 0
    outer loop
      vertex -1.2933 -2.74841 0
      vertex -0.56917 -2.9837 4
      vertex -1.2933 -2.74841 4
    endloop
  endfacet
  facet normal -0.309024 -0.951054 -0
    outer loop
      vertex -0.56917 -2.9837 4
      vertex -1.2933 -2.74841 0
      vertex -0.56917 -2.9837 0
    endloop
  endfacet
  facet normal -0.728967 0.684549 -1.27627e-18
    outer loop
      vertex -2.45739 1.7854 0
      vertex -1.93618 2.34043 4
      vertex -1.93618 2.34043 0
    endloop
  endfacet
  facet normal -0.728967 0.684549 -1.27627e-18
    outer loop
      vertex -1.93618 2.34043 4
      vertex -2.45739 1.7854 0
      vertex -2.45739 1.7854 4
    endloop
  endfacet
  facet normal 0.992114 -0.125335 5.96556e-19
    outer loop
      vertex 2.94207 -0.755395 4
      vertex 3.0375 0 0
      vertex 3.0375 0 4
    endloop
  endfacet
  facet normal 0.992114 -0.125335 5.96556e-19
    outer loop
      vertex 3.0375 0 0
      vertex 2.94207 -0.755395 4
      vertex 2.94207 -0.755395 0
    endloop
  endfacet
  facet normal 0.809014 0.587789 -1.15005e-18
    outer loop
      vertex 2.66178 1.46333 4
      vertex 2.21424 2.07931 0
      vertex 2.21424 2.07931 4
    endloop
  endfacet
  facet normal 0.809014 0.587789 -1.15005e-18
    outer loop
      vertex 2.21424 2.07931 0
      vertex 2.66178 1.46333 4
      vertex 2.66178 1.46333 0
    endloop
  endfacet
  facet normal 0 0 1
    outer loop
      vertex 2.025 0 4
      vertex 3.0375 0 4
      vertex 2.94207 0.755395 4
    endloop
  endfacet
  facet normal 0 0 1
    outer loop
      vertex 1.96138 0.503596 4
      vertex 2.94207 0.755395 4
      vertex 2.66178 1.46333 4
    endloop
  endfacet
  facet normal 0 0 1
    outer loop
      vertex 3.0375 0 4
      vertex 2.025 0 4
      vertex 2.94207 -0.755395 4
    endloop
  endfacet
  facet normal 0 0 1
    outer loop
      vertex 1.77452 0.975551 4
      vertex 2.66178 1.46333 4
      vertex 2.21424 2.07931 4
    endloop
  endfacet
  facet normal -0 0 1
    outer loop
      vertex 1.96138 -0.503596 4
      vertex 2.94207 -0.755395 4
      vertex 2.025 0 4
    endloop
  endfacet
  facet normal 0 0 1
    outer loop
      vertex 2.94207 -0.755395 4
      vertex 1.96138 -0.503596 4
      vertex 2.66178 -1.46333 4
    endloop
  endfacet
  facet normal 0 0 1
    outer loop
      vertex 2.94207 0.755395 4
      vertex 1.96138 0.503596 4
      vertex 2.025 0 4
    endloop
  endfacet
  facet normal 0 0 1
    outer loop
      vertex 2.66178 1.46333 4
      vertex 1.77452 0.975551 4
      vertex 1.96138 0.503596 4
    endloop
  endfacet
  facet normal 0 0 1
    outer loop
      vertex 1.47616 1.38621 4
      vertex 2.21424 2.07931 4
      vertex 1.62757 2.56465 4
    endloop
  endfacet
  facet normal 0 0 1
    outer loop
      vertex 2.21424 2.07931 4
      vertex 1.47616 1.38621 4
      vertex 1.77452 0.975551 4
    endloop
  endfacet
  facet normal 0 0 1
    outer loop
      vertex 1.62757 2.56465 4
      vertex 1.08505 1.70976 4
      vertex 1.47616 1.38621 4
    endloop
  endfacet
  facet normal 0 0 1
    outer loop
      vertex 0.938639 2.88883 4
      vertex 1.08505 1.70976 4
      vertex 1.62757 2.56465 4
    endloop
  endfacet
  facet normal 0 0 1
    outer loop
      vertex 0.938639 2.88883 4
      vertex 0.625759 1.92589 4
      vertex 1.08505 1.70976 4
    endloop
  endfacet
  facet normal 0 0 1
    outer loop
      vertex 0.190725 3.03151 4
      vertex 0.625759 1.92589 4
      vertex 0.938639 2.88883 4
    endloop
  endfacet
  facet normal 0 0 1
    outer loop
      vertex 0.190725 3.03151 4
      vertex 0.127151 2.021 4
      vertex 0.625759 1.92589 4
    endloop
  endfacet
  facet normal 0 0 1
    outer loop
      vertex 0.190725 3.03151 4
      vertex -0.379447 1.98913 4
      vertex 0.127151 2.021 4
    endloop
  endfacet
  facet normal -0 0 1
    outer loop
      vertex -0.56917 2.9837 4
      vertex -0.379447 1.98913 4
      vertex 0.190725 3.03151 4
    endloop
  endfacet
  facet normal 0 0 1
    outer loop
      vertex -0.56917 2.9837 4
      vertex -0.862203 1.83227 4
      vertex -0.379447 1.98913 4
    endloop
  endfacet
  facet normal -0 0 1
    outer loop
      vertex -1.2933 2.74841 4
      vertex -0.862203 1.83227 4
      vertex -0.56917 2.9837 4
    endloop
  endfacet
  facet normal 0 0 1
    outer loop
      vertex -0.862203 1.83227 4
      vertex -1.2933 2.74841 4
      vertex -1.29078 1.56029 4
    endloop
  endfacet
  facet normal -0 0 1
    outer loop
      vertex -1.93618 2.34043 4
      vertex -1.29078 1.56029 4
      vertex -1.2933 2.74841 4
    endloop
  endfacet
  facet normal 0 0 1
    outer loop
      vertex -1.29078 1.56029 4
      vertex -1.93618 2.34043 4
      vertex -1.63826 1.19026 4
    endloop
  endfacet
  facet normal -0 0 1
    outer loop
      vertex -2.45739 1.7854 4
      vertex -1.63826 1.19026 4
      vertex -1.93618 2.34043 4
    endloop
  endfacet
  facet normal 0 0 1
    outer loop
      vertex -1.63826 1.19026 4
      vertex -2.45739 1.7854 4
      vertex -1.8828 0.745452 4
    endloop
  endfacet
  facet normal 0 0 1
    outer loop
      vertex -1.8828 0.745452 4
      vertex -2.8242 1.11818 4
      vertex -2.00903 0.253799 4
    endloop
  endfacet
  facet normal -0 0 1
    outer loop
      vertex -2.8242 1.11818 4
      vertex -1.8828 0.745452 4
      vertex -2.45739 1.7854 4
    endloop
  endfacet
  facet normal -0 0 1
    outer loop
      vertex 1.77452 -0.975551 4
      vertex 2.66178 -1.46333 4
      vertex 1.96138 -0.503596 4
    endloop
  endfacet
  facet normal 0 0 1
    outer loop
      vertex 2.66178 -1.46333 4
      vertex 1.77452 -0.975551 4
      vertex 2.21424 -2.07931 4
    endloop
  endfacet
  facet normal -0 0 1
    outer loop
      vertex 1.47616 -1.38621 4
      vertex 2.21424 -2.07931 4
      vertex 1.77452 -0.975551 4
    endloop
  endfacet
  facet normal 0 0 1
    outer loop
      vertex 2.21424 -2.07931 4
      vertex 1.47616 -1.38621 4
      vertex 1.62757 -2.56465 4
    endloop
  endfacet
  facet normal -0 0 1
    outer loop
      vertex 1.08505 -1.70976 4
      vertex 1.62757 -2.56465 4
      vertex 1.47616 -1.38621 4
    endloop
  endfacet
  facet normal 0 0 1
    outer loop
      vertex 1.08505 -1.70976 4
      vertex 0.938639 -2.88883 4
      vertex 1.62757 -2.56465 4
    endloop
  endfacet
  facet normal -0 0 1
    outer loop
      vertex 0.625759 -1.92589 4
      vertex 0.938639 -2.88883 4
      vertex 1.08505 -1.70976 4
    endloop
  endfacet
  facet normal 0 0 1
    outer loop
      vertex 0.625759 -1.92589 4
      vertex 0.190725 -3.03151 4
      vertex 0.938639 -2.88883 4
    endloop
  endfacet
  facet normal -0 0 1
    outer loop
      vertex 0.127151 -2.021 4
      vertex 0.190725 -3.03151 4
      vertex 0.625759 -1.92589 4
    endloop
  endfacet
  facet normal 0 0 1
    outer loop
      vertex -0.379447 -1.98913 4
      vertex 0.190725 -3.03151 4
      vertex 0.127151 -2.021 4
    endloop
  endfacet
  facet normal 0 0 1
    outer loop
      vertex -0.379447 -1.98913 4
      vertex -0.56917 -2.9837 4
      vertex 0.190725 -3.03151 4
    endloop
  endfacet
  facet normal 0 0 1
    outer loop
      vertex -0.862203 -1.83227 4
      vertex -0.56917 -2.9837 4
      vertex -0.379447 -1.98913 4
    endloop
  endfacet
  facet normal 0 0 1
    outer loop
      vertex -1.2933 -2.74841 4
      vertex -0.862203 -1.83227 4
      vertex -1.29078 -1.56029 4
    endloop
  endfacet
  facet normal 0 0 1
    outer loop
      vertex -0.862203 -1.83227 4
      vertex -1.2933 -2.74841 4
      vertex -0.56917 -2.9837 4
    endloop
  endfacet
  facet normal 0 0 1
    outer loop
      vertex -1.93618 -2.34043 4
      vertex -1.29078 -1.56029 4
      vertex -1.63826 -1.19026 4
    endloop
  endfacet
  facet normal 0 0 1
    outer loop
      vertex -2.45739 -1.7854 4
      vertex -1.63826 -1.19026 4
      vertex -1.8828 -0.745452 4
    endloop
  endfacet
  facet normal 0 0 1
    outer loop
      vertex -1.29078 -1.56029 4
      vertex -1.93618 -2.34043 4
      vertex -1.2933 -2.74841 4
    endloop
  endfacet
  facet normal 0 0 1
    outer loop
      vertex -2.8242 -1.11818 4
      vertex -1.8828 -0.745452 4
      vertex -2.00903 -0.253799 4
    endloop
  endfacet
  facet normal -0 0 1
    outer loop
      vertex -3.01355 0.380699 4
      vertex -2.00903 0.253799 4
      vertex -2.8242 1.11818 4
    endloop
  endfacet
  facet normal 0 0 1
    outer loop
      vertex -1.63826 -1.19026 4
      vertex -2.45739 -1.7854 4
      vertex -1.93618 -2.34043 4
    endloop
  endfacet
  facet normal 0 0 1
    outer loop
      vertex -2.00903 0.253799 4
      vertex -3.01355 0.380699 4
      vertex -2.00903 -0.253799 4
    endloop
  endfacet
  facet normal 0 0 1
    outer loop
      vertex -1.8828 -0.745452 4
      vertex -2.8242 -1.11818 4
      vertex -2.45739 -1.7854 4
    endloop
  endfacet
  facet normal 0 0 1
    outer loop
      vertex -3.01355 -0.380699 4
      vertex -2.00903 -0.253799 4
      vertex -3.01355 0.380699 4
    endloop
  endfacet
  facet normal 0 0 1
    outer loop
      vertex -2.00903 -0.253799 4
      vertex -3.01355 -0.380699 4
      vertex -2.8242 -1.11818 4
    endloop
  endfacet
  facet normal 0.809014 -0.587789 1.15005e-18
    outer loop
      vertex 2.21424 -2.07931 4
      vertex 2.66178 -1.46333 0
      vertex 2.66178 -1.46333 4
    endloop
  endfacet
  facet normal 0.809014 -0.587789 1.15005e-18
    outer loop
      vertex 2.66178 -1.46333 0
      vertex 2.21424 -2.07931 4
      vertex 2.21424 -2.07931 0
    endloop
  endfacet
  facet normal 0.187391 0.982285 -0
    outer loop
      vertex 0.938639 2.88883 0
      vertex 0.190725 3.03151 4
      vertex 0.938639 2.88883 4
    endloop
  endfacet
  facet normal 0.187391 0.982285 0
    outer loop
      vertex 0.190725 3.03151 4
      vertex 0.938639 2.88883 0
      vertex 0.190725 3.03151 0
    endloop
  endfacet
  facet normal 0.637427 0.77051 -0
    outer loop
      vertex 2.21424 2.07931 0
      vertex 1.62757 2.56465 4
      vertex 2.21424 2.07931 4
    endloop
  endfacet
  facet normal 0.637427 0.77051 0
    outer loop
      vertex 1.62757 2.56465 4
      vertex 2.21424 2.07931 0
      vertex 1.62757 2.56465 0
    endloop
  endfacet
  facet normal 0.992114 0.125335 -5.96556e-19
    outer loop
      vertex 3.0375 0 4
      vertex 2.94207 0.755395 0
      vertex 2.94207 0.755395 4
    endloop
  endfacet
  facet normal 0.992114 0.125335 -5.96556e-19
    outer loop
      vertex 2.94207 0.755395 0
      vertex 3.0375 0 4
      vertex 3.0375 0 0
    endloop
  endfacet
  facet normal 0.187391 -0.982285 0
    outer loop
      vertex 0.190725 -3.03151 0
      vertex 0.938639 -2.88883 4
      vertex 0.190725 -3.03151 4
    endloop
  endfacet
  facet normal 0.187391 -0.982285 0
    outer loop
      vertex 0.938639 -2.88883 4
      vertex 0.190725 -3.03151 0
      vertex 0.938639 -2.88883 0
    endloop
  endfacet
  facet normal -0.535823 0.84433 0
    outer loop
      vertex -1.2933 2.74841 0
      vertex -1.93618 2.34043 4
      vertex -1.2933 2.74841 4
    endloop
  endfacet
  facet normal -0.535823 0.84433 0
    outer loop
      vertex -1.93618 2.34043 4
      vertex -1.2933 2.74841 0
      vertex -1.93618 2.34043 0
    endloop
  endfacet
  facet normal 0.929777 0.368123 -4.29589e-19
    outer loop
      vertex 2.94207 0.755395 4
      vertex 2.66178 1.46333 0
      vertex 2.66178 1.46333 4
    endloop
  endfacet
  facet normal 0.929777 0.368123 -4.29589e-19
    outer loop
      vertex 2.66178 1.46333 0
      vertex 2.94207 0.755395 4
      vertex 2.94207 0.755395 0
    endloop
  endfacet
  facet normal -0.728967 -0.684549 1.27627e-18
    outer loop
      vertex -1.93618 -2.34043 0
      vertex -2.45739 -1.7854 4
      vertex -2.45739 -1.7854 0
    endloop
  endfacet
  facet normal -0.728967 -0.684549 1.27627e-18
    outer loop
      vertex -2.45739 -1.7854 4
      vertex -1.93618 -2.34043 0
      vertex -1.93618 -2.34043 4
    endloop
  endfacet
  facet normal 0.425772 0.90483 -0
    outer loop
      vertex 1.62757 2.56465 0
      vertex 0.938639 2.88883 4
      vertex 1.62757 2.56465 4
    endloop
  endfacet
  facet normal 0.425772 0.90483 0
    outer loop
      vertex 0.938639 2.88883 4
      vertex 1.62757 2.56465 0
      vertex 0.938639 2.88883 0
    endloop
  endfacet
  facet normal -0.309024 0.951054 0
    outer loop
      vertex -0.56917 2.9837 0
      vertex -1.2933 2.74841 4
      vertex -0.56917 2.9837 4
    endloop
  endfacet
  facet normal -0.309024 0.951054 0
    outer loop
      vertex -1.2933 2.74841 4
      vertex -0.56917 2.9837 0
      vertex -1.2933 2.74841 0
    endloop
  endfacet
  facet normal -0.876305 0.481756 3.72434e-18
    outer loop
      vertex -2.8242 1.11818 0
      vertex -2.45739 1.7854 4
      vertex -2.45739 1.7854 0
    endloop
  endfacet
  facet normal -0.876305 0.481756 3.72434e-18
    outer loop
      vertex -2.45739 1.7854 4
      vertex -2.8242 1.11818 0
      vertex -2.8242 1.11818 4
    endloop
  endfacet
  facet normal -0.535823 -0.84433 0
    outer loop
      vertex -1.93618 -2.34043 0
      vertex -1.2933 -2.74841 4
      vertex -1.93618 -2.34043 4
    endloop
  endfacet
  facet normal -0.535823 -0.84433 -0
    outer loop
      vertex -1.2933 -2.74841 4
      vertex -1.93618 -2.34043 0
      vertex -1.2933 -2.74841 0
    endloop
  endfacet
  facet normal 0.929777 -0.368123 4.29589e-19
    outer loop
      vertex 2.66178 -1.46333 4
      vertex 2.94207 -0.755395 0
      vertex 2.94207 -0.755395 4
    endloop
  endfacet
  facet normal 0.929777 -0.368123 4.29589e-19
    outer loop
      vertex 2.94207 -0.755395 0
      vertex 2.66178 -1.46333 4
      vertex 2.66178 -1.46333 0
    endloop
  endfacet
  facet normal -1 0 0
    outer loop
      vertex -3.01355 -0.380699 0
      vertex -3.01355 0.380699 4
      vertex -3.01355 0.380699 0
    endloop
  endfacet
  facet normal -1 -0 0
    outer loop
      vertex -3.01355 0.380699 4
      vertex -3.01355 -0.380699 0
      vertex -3.01355 -0.380699 4
    endloop
  endfacet
  facet normal 0 0 -1
    outer loop
      vertex 2.025 0 0
      vertex 3.0375 0 0
      vertex 2.94207 -0.755395 0
    endloop
  endfacet
  facet normal 0 0 -1
    outer loop
      vertex 1.96138 -0.503596 0
      vertex 2.94207 -0.755395 0
      vertex 2.66178 -1.46333 0
    endloop
  endfacet
  facet normal 0 0 -1
    outer loop
      vertex 3.0375 0 0
      vertex 2.025 0 0
      vertex 2.94207 0.755395 0
    endloop
  endfacet
  facet normal 0 0 -1
    outer loop
      vertex 1.77452 -0.975551 0
      vertex 2.66178 -1.46333 0
      vertex 2.21424 -2.07931 0
    endloop
  endfacet
  facet normal 0 0 -1
    outer loop
      vertex 1.96138 0.503596 0
      vertex 2.94207 0.755395 0
      vertex 2.025 0 0
    endloop
  endfacet
  facet normal -0 0 -1
    outer loop
      vertex 2.94207 0.755395 0
      vertex 1.96138 0.503596 0
      vertex 2.66178 1.46333 0
    endloop
  endfacet
  facet normal 0 0 -1
    outer loop
      vertex 2.94207 -0.755395 0
      vertex 1.96138 -0.503596 0
      vertex 2.025 0 0
    endloop
  endfacet
  facet normal 0 0 -1
    outer loop
      vertex 2.66178 -1.46333 0
      vertex 1.77452 -0.975551 0
      vertex 1.96138 -0.503596 0
    endloop
  endfacet
  facet normal 0 0 -1
    outer loop
      vertex 1.47616 -1.38621 0
      vertex 2.21424 -2.07931 0
      vertex 1.62757 -2.56465 0
    endloop
  endfacet
  facet normal 0 0 -1
    outer loop
      vertex 2.21424 -2.07931 0
      vertex 1.47616 -1.38621 0
      vertex 1.77452 -0.975551 0
    endloop
  endfacet
  facet normal 0 0 -1
    outer loop
      vertex 1.62757 -2.56465 0
      vertex 1.08505 -1.70976 0
      vertex 1.47616 -1.38621 0
    endloop
  endfacet
  facet normal 0 0 -1
    outer loop
      vertex 0.938639 -2.88883 0
      vertex 1.08505 -1.70976 0
      vertex 1.62757 -2.56465 0
    endloop
  endfacet
  facet normal 0 0 -1
    outer loop
      vertex 0.938639 -2.88883 0
      vertex 0.625759 -1.92589 0
      vertex 1.08505 -1.70976 0
    endloop
  endfacet
  facet normal 0 0 -1
    outer loop
      vertex 0.190725 -3.03151 0
      vertex 0.625759 -1.92589 0
      vertex 0.938639 -2.88883 0
    endloop
  endfacet
  facet normal 0 0 -1
    outer loop
      vertex 0.190725 -3.03151 0
      vertex 0.127151 -2.021 0
      vertex 0.625759 -1.92589 0
    endloop
  endfacet
  facet normal 0 0 -1
    outer loop
      vertex 0.190725 -3.03151 0
      vertex -0.379447 -1.98913 0
      vertex 0.127151 -2.021 0
    endloop
  endfacet
  facet normal 0 0 -1
    outer loop
      vertex -0.56917 -2.9837 0
      vertex -0.379447 -1.98913 0
      vertex 0.190725 -3.03151 0
    endloop
  endfacet
  facet normal 0 0 -1
    outer loop
      vertex -0.56917 -2.9837 0
      vertex -0.862203 -1.83227 0
      vertex -0.379447 -1.98913 0
    endloop
  endfacet
  facet normal 0 0 -1
    outer loop
      vertex -1.2933 -2.74841 0
      vertex -0.862203 -1.83227 0
      vertex -0.56917 -2.9837 0
    endloop
  endfacet
  facet normal -0 0 -1
    outer loop
      vertex -0.862203 -1.83227 0
      vertex -1.2933 -2.74841 0
      vertex -1.29078 -1.56029 0
    endloop
  endfacet
  facet normal 0 0 -1
    outer loop
      vertex -1.93618 -2.34043 0
      vertex -1.29078 -1.56029 0
      vertex -1.2933 -2.74841 0
    endloop
  endfacet
  facet normal -0 0 -1
    outer loop
      vertex -1.29078 -1.56029 0
      vertex -1.93618 -2.34043 0
      vertex -1.63826 -1.19026 0
    endloop
  endfacet
  facet normal 0 0 -1
    outer loop
      vertex -2.45739 -1.7854 0
      vertex -1.63826 -1.19026 0
      vertex -1.93618 -2.34043 0
    endloop
  endfacet
  facet normal -0 0 -1
    outer loop
      vertex -1.63826 -1.19026 0
      vertex -2.45739 -1.7854 0
      vertex -1.8828 -0.745452 0
    endloop
  endfacet
  facet normal -0 0 -1
    outer loop
      vertex -1.8828 -0.745452 0
      vertex -2.8242 -1.11818 0
      vertex -2.00903 -0.253799 0
    endloop
  endfacet
  facet normal 0 0 -1
    outer loop
      vertex -2.8242 -1.11818 0
      vertex -1.8828 -0.745452 0
      vertex -2.45739 -1.7854 0
    endloop
  endfacet
  facet normal 0 0 -1
    outer loop
      vertex 1.77452 0.975551 0
      vertex 2.66178 1.46333 0
      vertex 1.96138 0.503596 0
    endloop
  endfacet
  facet normal -0 0 -1
    outer loop
      vertex 2.66178 1.46333 0
      vertex 1.77452 0.975551 0
      vertex 2.21424 2.07931 0
    endloop
  endfacet
  facet normal 0 0 -1
    outer loop
      vertex 1.47616 1.38621 0
      vertex 2.21424 2.07931 0
      vertex 1.77452 0.975551 0
    endloop
  endfacet
  facet normal -0 0 -1
    outer loop
      vertex 2.21424 2.07931 0
      vertex 1.47616 1.38621 0
      vertex 1.62757 2.56465 0
    endloop
  endfacet
  facet normal 0 0 -1
    outer loop
      vertex 1.08505 1.70976 0
      vertex 1.62757 2.56465 0
      vertex 1.47616 1.38621 0
    endloop
  endfacet
  facet normal 0 0 -1
    outer loop
      vertex 1.08505 1.70976 0
      vertex 0.938639 2.88883 0
      vertex 1.62757 2.56465 0
    endloop
  endfacet
  facet normal 0 0 -1
    outer loop
      vertex 0.625759 1.92589 0
      vertex 0.938639 2.88883 0
      vertex 1.08505 1.70976 0
    endloop
  endfacet
  facet normal 0 0 -1
    outer loop
      vertex 0.625759 1.92589 0
      vertex 0.190725 3.03151 0
      vertex 0.938639 2.88883 0
    endloop
  endfacet
  facet normal 0 0 -1
    outer loop
      vertex 0.127151 2.021 0
      vertex 0.190725 3.03151 0
      vertex 0.625759 1.92589 0
    endloop
  endfacet
  facet normal 0 0 -1
    outer loop
      vertex -0.379447 1.98913 0
      vertex 0.190725 3.03151 0
      vertex 0.127151 2.021 0
    endloop
  endfacet
  facet normal 0 0 -1
    outer loop
      vertex -0.379447 1.98913 0
      vertex -0.56917 2.9837 0
      vertex 0.190725 3.03151 0
    endloop
  endfacet
  facet normal 0 0 -1
    outer loop
      vertex -0.862203 1.83227 0
      vertex -0.56917 2.9837 0
      vertex -0.379447 1.98913 0
    endloop
  endfacet
  facet normal 0 0 -1
    outer loop
      vertex -1.2933 2.74841 0
      vertex -0.862203 1.83227 0
      vertex -1.29078 1.56029 0
    endloop
  endfacet
  facet normal 0 0 -1
    outer loop
      vertex -0.862203 1.83227 0
      vertex -1.2933 2.74841 0
      vertex -0.56917 2.9837 0
    endloop
  endfacet
  facet normal 0 0 -1
    outer loop
      vertex -1.93618 2.34043 0
      vertex -1.29078 1.56029 0
      vertex -1.63826 1.19026 0
    endloop
  endfacet
  facet normal 0 0 -1
    outer loop
      vertex -2.45739 1.7854 0
      vertex -1.63826 1.19026 0
      vertex -1.8828 0.745452 0
    endloop
  endfacet
  facet normal 0 0 -1
    outer loop
      vertex -1.29078 1.56029 0
      vertex -1.93618 2.34043 0
      vertex -1.2933 2.74841 0
    endloop
  endfacet
  facet normal 0 0 -1
    outer loop
      vertex -2.8242 1.11818 0
      vertex -1.8828 0.745452 0
      vertex -2.00903 0.253799 0
    endloop
  endfacet
  facet normal 0 0 -1
    outer loop
      vertex -3.01355 -0.380699 0
      vertex -2.00903 -0.253799 0
      vertex -2.8242 -1.11818 0
    endloop
  endfacet
  facet normal 0 0 -1
    outer loop
      vertex -1.63826 1.19026 0
      vertex -2.45739 1.7854 0
      vertex -1.93618 2.34043 0
    endloop
  endfacet
  facet normal -0 0 -1
    outer loop
      vertex -2.00903 -0.253799 0
      vertex -3.01355 -0.380699 0
      vertex -2.00903 0.253799 0
    endloop
  endfacet
  facet normal 0 0 -1
    outer loop
      vertex -1.8828 0.745452 0
      vertex -2.8242 1.11818 0
      vertex -2.45739 1.7854 0
    endloop
  endfacet
  facet normal 0 0 -1
    outer loop
      vertex -3.01355 0.380699 0
      vertex -2.00903 0.253799 0
      vertex -3.01355 -0.380699 0
    endloop
  endfacet
  facet normal 0 0 -1
    outer loop
      vertex -2.00903 0.253799 0
      vertex -3.01355 0.380699 0
      vertex -2.8242 1.11818 0
    endloop
  endfacet
  facet normal 0.637427 -0.77051 0
    outer loop
      vertex 1.62757 -2.56465 0
      vertex 2.21424 -2.07931 4
      vertex 1.62757 -2.56465 4
    endloop
  endfacet
  facet normal 0.637427 -0.77051 0
    outer loop
      vertex 2.21424 -2.07931 4
      vertex 1.62757 -2.56465 0
      vertex 2.21424 -2.07931 0
    endloop
  endfacet
  facet normal -0.876305 -0.481756 -3.72434e-18
    outer loop
      vertex -2.45739 -1.7854 0
      vertex -2.8242 -1.11818 4
      vertex -2.8242 -1.11818 0
    endloop
  endfacet
  facet normal -0.876305 -0.481756 -3.72434e-18
    outer loop
      vertex -2.8242 -1.11818 4
      vertex -2.45739 -1.7854 0
      vertex -2.45739 -1.7854 4
    endloop
  endfacet
  facet normal -0.0627924 0.998027 0
    outer loop
      vertex 0.190725 3.03151 0
      vertex -0.56917 2.9837 4
      vertex 0.190725 3.03151 4
    endloop
  endfacet
  facet normal -0.0627924 0.998027 0
    outer loop
      vertex -0.56917 2.9837 4
      vertex 0.190725 3.03151 0
      vertex -0.56917 2.9837 0
    endloop
  endfacet
  facet normal -0.0627924 -0.998027 0
    outer loop
      vertex -0.56917 -2.9837 0
      vertex 0.190725 -3.03151 4
      vertex -0.56917 -2.9837 4
    endloop
  endfacet
  facet normal -0.0627924 -0.998027 -0
    outer loop
      vertex 0.190725 -3.03151 4
      vertex -0.56917 -2.9837 0
      vertex 0.190725 -3.03151 0
    endloop
  endfacet
  facet normal -0.929777 -0.368124 -2.47059e-18
    outer loop
      vertex 1.96138 0.503596 0
      vertex 1.77452 0.975551 4
      vertex 1.77452 0.975551 0
    endloop
  endfacet
  facet normal -0.929777 -0.368124 -2.47059e-18
    outer loop
      vertex 1.77452 0.975551 4
      vertex 1.96138 0.503596 0
      vertex 1.96138 0.503596 4
    endloop
  endfacet
  facet normal -0.992114 -0.125335 -9.67833e-19
    outer loop
      vertex 2.025 0 0
      vertex 1.96138 0.503596 4
      vertex 1.96138 0.503596 0
    endloop
  endfacet
  facet normal -0.992114 -0.125335 -9.67833e-19
    outer loop
      vertex 1.96138 0.503596 4
      vertex 2.025 0 0
      vertex 2.025 0 4
    endloop
  endfacet
  facet normal 0.535822 -0.844331 0
    outer loop
      vertex -1.29078 1.56029 0
      vertex -0.862203 1.83227 4
      vertex -1.29078 1.56029 4
    endloop
  endfacet
  facet normal 0.535822 -0.844331 0
    outer loop
      vertex -0.862203 1.83227 4
      vertex -1.29078 1.56029 0
      vertex -0.862203 1.83227 0
    endloop
  endfacet
  facet normal -0.929777 0.368124 2.47059e-18
    outer loop
      vertex 1.77452 -0.975551 0
      vertex 1.96138 -0.503596 4
      vertex 1.96138 -0.503596 0
    endloop
  endfacet
  facet normal -0.929777 0.368124 2.47059e-18
    outer loop
      vertex 1.96138 -0.503596 4
      vertex 1.77452 -0.975551 0
      vertex 1.77452 -0.975551 4
    endloop
  endfacet
  facet normal 0.535822 0.844331 -0
    outer loop
      vertex -0.862203 -1.83227 0
      vertex -1.29078 -1.56029 4
      vertex -0.862203 -1.83227 4
    endloop
  endfacet
  facet normal 0.535822 0.844331 0
    outer loop
      vertex -1.29078 -1.56029 4
      vertex -0.862203 -1.83227 0
      vertex -1.29078 -1.56029 0
    endloop
  endfacet
  facet normal 0.0627857 0.998027 -0
    outer loop
      vertex 0.127151 -2.021 0
      vertex -0.379447 -1.98913 4
      vertex 0.127151 -2.021 4
    endloop
  endfacet
  facet normal 0.0627857 0.998027 0
    outer loop
      vertex -0.379447 -1.98913 4
      vertex 0.127151 -2.021 0
      vertex -0.379447 -1.98913 0
    endloop
  endfacet
  facet normal 0.968586 -0.248681 -5.26566e-19
    outer loop
      vertex -2.00903 0.253799 4
      vertex -1.8828 0.745452 0
      vertex -1.8828 0.745452 4
    endloop
  endfacet
  facet normal 0.968586 -0.248681 -5.26566e-19
    outer loop
      vertex -1.8828 0.745452 0
      vertex -2.00903 0.253799 4
      vertex -2.00903 0.253799 0
    endloop
  endfacet
  facet normal -0.425786 -0.904824 0
    outer loop
      vertex 0.625759 1.92589 0
      vertex 1.08505 1.70976 4
      vertex 0.625759 1.92589 4
    endloop
  endfacet
  facet normal -0.425786 -0.904824 -0
    outer loop
      vertex 1.08505 1.70976 4
      vertex 0.625759 1.92589 0
      vertex 1.08505 1.70976 0
    endloop
  endfacet
  facet normal 0.72897 -0.684546 -3.78469e-18
    outer loop
      vertex -1.63826 1.19026 4
      vertex -1.29078 1.56029 0
      vertex -1.29078 1.56029 4
    endloop
  endfacet
  facet normal 0.72897 -0.684546 -3.78469e-18
    outer loop
      vertex -1.29078 1.56029 0
      vertex -1.63826 1.19026 4
      vertex -1.63826 1.19026 0
    endloop
  endfacet
  facet normal -0.992114 0.125335 9.67833e-19
    outer loop
      vertex 1.96138 -0.503596 0
      vertex 2.025 0 4
      vertex 2.025 0 0
    endloop
  endfacet
  facet normal -0.992114 0.125335 9.67833e-19
    outer loop
      vertex 2.025 0 4
      vertex 1.96138 -0.503596 0
      vertex 1.96138 -0.503596 4
    endloop
  endfacet
  facet normal 1 -0 0
    outer loop
      vertex -2.00903 -0.253799 4
      vertex -2.00903 0.253799 0
      vertex -2.00903 0.253799 4
    endloop
  endfacet
  facet normal 1 0 0
    outer loop
      vertex -2.00903 0.253799 0
      vertex -2.00903 -0.253799 4
      vertex -2.00903 -0.253799 0
    endloop
  endfacet
  facet normal 0.0627857 -0.998027 0
    outer loop
      vertex -0.379447 1.98913 0
      vertex 0.127151 2.021 4
      vertex -0.379447 1.98913 4
    endloop
  endfacet
  facet normal 0.0627857 -0.998027 0
    outer loop
      vertex 0.127151 2.021 4
      vertex -0.379447 1.98913 0
      vertex 0.127151 2.021 0
    endloop
  endfacet
  facet normal 0.309022 -0.951055 0
    outer loop
      vertex -0.862203 1.83227 0
      vertex -0.379447 1.98913 4
      vertex -0.862203 1.83227 4
    endloop
  endfacet
  facet normal 0.309022 -0.951055 0
    outer loop
      vertex -0.379447 1.98913 4
      vertex -0.862203 1.83227 0
      vertex -0.379447 1.98913 0
    endloop
  endfacet
  facet normal -0.425786 0.904824 0
    outer loop
      vertex 1.08505 -1.70976 0
      vertex 0.625759 -1.92589 4
      vertex 1.08505 -1.70976 4
    endloop
  endfacet
  facet normal -0.425786 0.904824 0
    outer loop
      vertex 0.625759 -1.92589 4
      vertex 1.08505 -1.70976 0
      vertex 0.625759 -1.92589 0
    endloop
  endfacet
  facet normal -0.187373 0.982289 0
    outer loop
      vertex 0.625759 -1.92589 0
      vertex 0.127151 -2.021 4
      vertex 0.625759 -1.92589 4
    endloop
  endfacet
  facet normal -0.187373 0.982289 0
    outer loop
      vertex 0.127151 -2.021 4
      vertex 0.625759 -1.92589 0
      vertex 0.127151 -2.021 0
    endloop
  endfacet
  facet normal 0.968586 0.248681 5.26566e-19
    outer loop
      vertex -1.8828 -0.745452 4
      vertex -2.00903 -0.253799 0
      vertex -2.00903 -0.253799 4
    endloop
  endfacet
  facet normal 0.968586 0.248681 5.26566e-19
    outer loop
      vertex -2.00903 -0.253799 0
      vertex -1.8828 -0.745452 4
      vertex -1.8828 -0.745452 0
    endloop
  endfacet
  facet normal 0.876303 -0.481761 -2.42903e-18
    outer loop
      vertex -1.8828 0.745452 4
      vertex -1.63826 1.19026 0
      vertex -1.63826 1.19026 4
    endloop
  endfacet
  facet normal 0.876303 -0.481761 -2.42903e-18
    outer loop
      vertex -1.63826 1.19026 0
      vertex -1.8828 0.745452 4
      vertex -1.8828 0.745452 0
    endloop
  endfacet
  facet normal -0.637419 -0.770517 0
    outer loop
      vertex 1.08505 1.70976 0
      vertex 1.47616 1.38621 4
      vertex 1.08505 1.70976 4
    endloop
  endfacet
  facet normal -0.637419 -0.770517 -0
    outer loop
      vertex 1.47616 1.38621 4
      vertex 1.08505 1.70976 0
      vertex 1.47616 1.38621 0
    endloop
  endfacet
  facet normal 0.309022 0.951055 -0
    outer loop
      vertex -0.379447 -1.98913 0
      vertex -0.862203 -1.83227 4
      vertex -0.379447 -1.98913 4
    endloop
  endfacet
  facet normal 0.309022 0.951055 0
    outer loop
      vertex -0.862203 -1.83227 4
      vertex -0.379447 -1.98913 0
      vertex -0.862203 -1.83227 0
    endloop
  endfacet
  facet normal -0.187373 -0.982289 0
    outer loop
      vertex 0.127151 2.021 0
      vertex 0.625759 1.92589 4
      vertex 0.127151 2.021 4
    endloop
  endfacet
  facet normal -0.187373 -0.982289 -0
    outer loop
      vertex 0.625759 1.92589 4
      vertex 0.127151 2.021 0
      vertex 0.625759 1.92589 0
    endloop
  endfacet
  facet normal 0.876303 0.481761 2.42903e-18
    outer loop
      vertex -1.63826 -1.19026 4
      vertex -1.8828 -0.745452 0
      vertex -1.8828 -0.745452 4
    endloop
  endfacet
  facet normal 0.876303 0.481761 2.42903e-18
    outer loop
      vertex -1.8828 -0.745452 0
      vertex -1.63826 -1.19026 4
      vertex -1.63826 -1.19026 0
    endloop
  endfacet
  facet normal -0.809018 -0.587784 2.93888e-18
    outer loop
      vertex 1.77452 0.975551 0
      vertex 1.47616 1.38621 4
      vertex 1.47616 1.38621 0
    endloop
  endfacet
  facet normal -0.809018 -0.587784 2.93888e-18
    outer loop
      vertex 1.47616 1.38621 4
      vertex 1.77452 0.975551 0
      vertex 1.77452 0.975551 4
    endloop
  endfacet
  facet normal -0.637419 0.770517 0
    outer loop
      vertex 1.47616 -1.38621 0
      vertex 1.08505 -1.70976 4
      vertex 1.47616 -1.38621 4
    endloop
  endfacet
  facet normal -0.637419 0.770517 0
    outer loop
      vertex 1.08505 -1.70976 4
      vertex 1.47616 -1.38621 0
      vertex 1.08505 -1.70976 0
    endloop
  endfacet
  facet normal -0.809018 0.587784 -2.93888e-18
    outer loop
      vertex 1.47616 -1.38621 0
      vertex 1.77452 -0.975551 4
      vertex 1.77452 -0.975551 0
    endloop
  endfacet
  facet normal -0.809018 0.587784 -2.93888e-18
    outer loop
      vertex 1.77452 -0.975551 4
      vertex 1.47616 -1.38621 0
      vertex 1.47616 -1.38621 4
    endloop
  endfacet
  facet normal 0.72897 0.684546 3.78469e-18
    outer loop
      vertex -1.29078 -1.56029 4
      vertex -1.63826 -1.19026 0
      vertex -1.63826 -1.19026 4
    endloop
  endfacet
  facet normal 0.72897 0.684546 3.78469e-18
    outer loop
      vertex -1.63826 -1.19026 0
      vertex -1.29078 -1.56029 4
      vertex -1.29078 -1.56029 0
    endloop
  endfacet
endsolid OpenSCAD_Model
